<?xml version="1.0" encoding="utf-8"?>
<!-- Generator: Adobe Illustrator 14.0.0, SVG Export Plug-In  -->
<!DOCTYPE svg PUBLIC "-//W3C//DTD SVG 1.1//EN" "http://www.w3.org/Graphics/SVG/1.1/DTD/svg11.dtd" [
	<!ENTITY ns_flows "http://ns.adobe.com/Flows/1.0/">
]>
<svg version="1.1"
	 xmlns="http://www.w3.org/2000/svg" xmlns:xlink="http://www.w3.org/1999/xlink" xmlns:a="http://ns.adobe.com/AdobeSVGViewerExtensions/3.0/"
	 x="0px" y="0px" width="616px" height="46px" viewBox="-0.278 -0.699 616 46" enable-background="new -0.278 -0.699 616 46"
	 xml:space="preserve">
<defs>
</defs>
<rect x="421.388" fill="#010101" width="193.973" height="45"/>
<rect y="0.044" fill="#010101" width="240.541" height="45"/>
<rect x="240.541" y="0.044" fill="#A5CF4C" width="181.793" height="45"/>
<path fill="#FFFFFF" d="M6.616,27.186c0.605,1.689,1.301,2.859,2.088,3.508c0.785,0.649,1.755,0.974,2.907,0.974
	c1.064,0,1.882-0.232,2.454-0.696c0.57-0.464,0.856-1.052,0.856-1.765c0-0.41-0.105-0.769-0.315-1.077
	c-0.211-0.308-0.502-0.537-0.873-0.688c-0.372-0.151-1.336-0.374-2.892-0.667c-1.487-0.293-2.524-0.601-3.11-0.923
	c-0.587-0.322-1.044-0.767-1.371-1.333s-0.491-1.182-0.491-1.846c0-1.006,0.337-1.919,1.013-2.739
	c0.87-1.045,2.088-1.567,3.652-1.567c1.193,0,2.298,0.376,3.315,1.128l0.969-1.025h0.602l0.381,4.893h-0.981
	c-0.431-1.387-1.013-2.385-1.747-2.996c-0.733-0.61-1.639-0.916-2.715-0.916c-0.93,0-1.658,0.227-2.187,0.681
	c-0.529,0.454-0.793,1.008-0.793,1.663c0,0.577,0.244,1.055,0.733,1.436c0.479,0.391,1.419,0.699,2.818,0.924
	c1.623,0.275,2.68,0.505,3.169,0.691c0.802,0.293,1.423,0.744,1.862,1.354c0.44,0.61,0.66,1.354,0.66,2.233
	c0,1.21-0.477,2.235-1.431,3.074c-0.953,0.84-2.163,1.259-3.63,1.259c-1.359,0-2.621-0.449-3.784-1.348l-1.071,1.23H5.928
	l-0.293-5.464H6.616z"/>
<path fill="#FFFFFF" d="M29.336,28.285l0.952,0.278c-0.762,2.803-2.441,4.204-5.039,4.204c-1.904,0-3.462-0.63-4.673-1.89
	s-1.816-2.935-1.816-5.024c0-2.422,0.664-4.299,1.992-5.632s2.891-2,4.688-2c1.348,0,2.461,0.371,3.34,1.113
	s1.318,1.567,1.318,2.476c0,0.547-0.164,0.999-0.491,1.355S28.892,23.7,28.442,23.7c-0.439,0-0.811-0.151-1.113-0.453
	s-0.454-0.667-0.454-1.095c0-0.428,0.166-0.836,0.498-1.226c0.156-0.185,0.234-0.331,0.234-0.438c0-0.282-0.19-0.557-0.571-0.825
	c-0.381-0.268-0.898-0.401-1.553-0.401c-1.191,0-2.095,0.434-2.71,1.302c-0.879,1.258-1.318,2.917-1.318,4.975
	c0,1.96,0.391,3.446,1.172,4.455s1.777,1.514,2.988,1.514C27.285,31.507,28.525,30.433,29.336,28.285z"/>
<path fill="#FFFFFF" d="M31.899,18.631l5.464-0.161v11.807c0,0.322,0.078,0.552,0.234,0.688c0.225,0.195,0.508,0.293,0.85,0.293H40
	v1.099h-7.808v-1.099h1.45c0.43,0,0.744-0.105,0.945-0.315c0.199-0.21,0.3-0.515,0.3-0.916v-8.643c0-0.547-0.156-0.959-0.469-1.238
	s-0.776-0.417-1.392-0.417h-1.128V18.631z M35.708,10.443c0.439,0,0.825,0.166,1.157,0.498s0.498,0.723,0.498,1.172
	c0,0.439-0.161,0.82-0.483,1.143s-0.708,0.483-1.157,0.483s-0.838-0.164-1.164-0.491c-0.328-0.327-0.491-0.71-0.491-1.15
	s0.166-0.825,0.498-1.157S35.278,10.443,35.708,10.443z"/>
<path fill="#FFFFFF" d="M54.487,25.589h-9.829c0.049,2.09,0.439,3.564,1.172,4.424c0.84,0.967,1.909,1.45,3.208,1.45
	c1.914,0,3.452-1.089,4.614-3.267l0.952,0.41c-1.426,2.773-3.486,4.16-6.182,4.16c-1.836,0-3.382-0.664-4.637-1.992
	s-1.882-3.027-1.882-5.098c0-2.227,0.617-4.026,1.853-5.398s2.757-2.058,4.563-2.058c1.328,0,2.476,0.342,3.442,1.025
	s1.694,1.665,2.183,2.944C54.287,23.089,54.468,24.222,54.487,25.589z M44.658,24.549h5.947c0.352,0,0.625-0.12,0.82-0.359
	s0.293-0.647,0.293-1.223c0-1.074-0.335-1.987-1.003-2.739c-0.67-0.752-1.458-1.128-2.366-1.128c-1.016,0-1.878,0.454-2.585,1.362
	C45.056,21.371,44.688,22.733,44.658,24.549z"/>
<path fill="#FFFFFF" d="M56.611,18.631l4.556-0.278c0.186,0.859,0.322,1.865,0.41,3.018c0.615-0.996,1.34-1.743,2.176-2.241
	c0.834-0.498,1.779-0.747,2.834-0.747c0.908,0,1.67,0.178,2.285,0.535s1.108,0.92,1.479,1.692s0.557,1.636,0.557,2.593v6.68
	c0,0.498,0.112,0.852,0.337,1.062s0.601,0.315,1.128,0.315h0.967v1.099h-7.236v-1.099h0.688c0.645,0,1.094-0.103,1.348-0.308
	s0.381-0.513,0.381-0.923v-5.874c0-1.279-0.195-2.227-0.586-2.842c-0.547-0.879-1.377-1.318-2.49-1.318
	c-1.104,0-2.024,0.444-2.762,1.333s-1.105,2.046-1.105,3.472v5.083c0,0.498,0.114,0.852,0.344,1.062s0.608,0.315,1.136,0.315h0.952
	v1.099h-7.266v-1.099h0.952c0.479,0,0.843-0.098,1.091-0.293c0.25-0.195,0.374-0.439,0.374-0.732v-8.862
	c0-0.586-0.159-1.03-0.476-1.333c-0.318-0.303-0.774-0.454-1.37-0.454h-0.703V18.631z"/>
<path fill="#FFFFFF" d="M85.425,28.285l0.952,0.278c-0.762,2.803-2.441,4.204-5.039,4.204c-1.904,0-3.462-0.63-4.673-1.89
	s-1.816-2.935-1.816-5.024c0-2.422,0.664-4.299,1.992-5.632s2.891-2,4.688-2c1.348,0,2.461,0.371,3.34,1.113
	s1.318,1.567,1.318,2.476c0,0.547-0.164,0.999-0.491,1.355S84.98,23.7,84.531,23.7c-0.439,0-0.811-0.151-1.113-0.453
	s-0.454-0.667-0.454-1.095c0-0.428,0.166-0.836,0.498-1.226c0.156-0.185,0.234-0.331,0.234-0.438c0-0.282-0.19-0.557-0.571-0.825
	c-0.381-0.268-0.898-0.401-1.553-0.401c-1.191,0-2.095,0.434-2.71,1.302c-0.879,1.258-1.318,2.917-1.318,4.975
	c0,1.96,0.391,3.446,1.172,4.455s1.777,1.514,2.988,1.514C83.374,31.507,84.614,30.433,85.425,28.285z"/>
<path fill="#FFFFFF" d="M101.128,25.589h-9.829c0.049,2.09,0.439,3.564,1.172,4.424c0.84,0.967,1.909,1.45,3.208,1.45
	c1.914,0,3.452-1.089,4.614-3.267l0.952,0.41c-1.426,2.773-3.486,4.16-6.182,4.16c-1.836,0-3.382-0.664-4.637-1.992
	s-1.882-3.027-1.882-5.098c0-2.227,0.617-4.026,1.853-5.398s2.757-2.058,4.563-2.058c1.328,0,2.476,0.342,3.442,1.025
	s1.694,1.665,2.183,2.944C100.928,23.089,101.108,24.222,101.128,25.589z M91.299,24.549h5.947c0.352,0,0.625-0.12,0.82-0.359
	s0.293-0.647,0.293-1.223c0-1.074-0.335-1.987-1.003-2.739c-0.67-0.752-1.458-1.128-2.366-1.128c-1.016,0-1.878,0.454-2.585,1.362
	C91.696,21.371,91.328,22.733,91.299,24.549z"/>
<path fill="#FFFFFF" d="M115.937,18.382c0.215,1.025,0.343,2.012,0.382,2.959c0.673-1.074,1.38-1.836,2.121-2.285
	s1.551-0.674,2.428-0.674c0.937,0,1.831,0.288,2.685,0.864c0.853,0.576,1.545,1.421,2.077,2.534
	c0.531,1.113,0.797,2.368,0.797,3.765c0,2.236-0.652,4.058-1.957,5.464c-1.081,1.172-2.376,1.758-3.885,1.758
	c-0.857,0-1.632-0.22-2.323-0.659c-0.69-0.439-1.305-1.094-1.84-1.963v5.552c0,0.43,0.103,0.732,0.308,0.908
	c0.264,0.234,0.63,0.352,1.099,0.352h1.011v1.04h-7.339v-1.04h1.011c0.469,0,0.82-0.093,1.055-0.278s0.352-0.43,0.352-0.732V21.502
	c0-0.674-0.161-1.15-0.483-1.428s-0.967-0.432-1.934-0.461v-0.981L115.937,18.382z M120.192,19.715
	c-1.062,0-1.962,0.513-2.697,1.538s-1.104,2.51-1.104,4.453c0,1.963,0.355,3.413,1.067,4.351c0.711,0.938,1.617,1.406,2.719,1.406
	c1.033,0,1.827-0.4,2.383-1.201c0.712-1.055,1.067-2.598,1.067-4.629c0-2.129-0.322-3.647-0.965-4.556
	C122.02,20.169,121.196,19.715,120.192,19.715z"/>
<path fill="#FFFFFF" d="M128.594,18.631l4.937-0.249v5.552c0.527-1.826,1.162-3.208,1.904-4.146s1.66-1.406,2.754-1.406
	c0.742,0,1.335,0.227,1.78,0.681c0.443,0.454,0.666,1.062,0.666,1.824c0,0.615-0.149,1.094-0.447,1.436s-0.671,0.513-1.12,0.513
	c-0.439,0-0.794-0.146-1.062-0.439c-0.27-0.293-0.403-0.688-0.403-1.187c0-0.322,0.078-0.625,0.234-0.908
	c0.146-0.254,0.22-0.405,0.22-0.454c0-0.146-0.093-0.22-0.278-0.22c-0.4,0-0.854,0.234-1.362,0.703
	c-0.703,0.654-1.245,1.553-1.626,2.695c-0.586,1.777-0.879,3.198-0.879,4.263v2.944c0,0.332,0.117,0.586,0.352,0.762
	s0.635,0.264,1.201,0.264h1.743v1.099h-8.525v-1.099h1.362c0.459,0,0.806-0.09,1.04-0.271s0.352-0.398,0.352-0.652V21.59
	c0-0.664-0.142-1.15-0.425-1.458s-0.688-0.461-1.216-0.461h-1.201V18.631z"/>
<path fill="#FFFFFF" d="M169.287,28.285l0.952,0.278c-0.762,2.803-2.441,4.204-5.039,4.204c-1.904,0-3.462-0.63-4.673-1.89
	s-1.816-2.935-1.816-5.024c0-2.422,0.664-4.299,1.992-5.632s2.891-2,4.688-2c1.348,0,2.461,0.371,3.34,1.113
	s1.318,1.567,1.318,2.476c0,0.547-0.164,0.999-0.491,1.355s-0.715,0.535-1.164,0.535c-0.439,0-0.811-0.151-1.113-0.453
	s-0.454-0.667-0.454-1.095c0-0.428,0.166-0.836,0.498-1.226c0.156-0.185,0.234-0.331,0.234-0.438c0-0.282-0.19-0.557-0.571-0.825
	c-0.381-0.268-0.898-0.401-1.553-0.401c-1.191,0-2.095,0.434-2.71,1.302c-0.879,1.258-1.318,2.917-1.318,4.975
	c0,1.96,0.391,3.446,1.172,4.455s1.777,1.514,2.988,1.514C167.236,31.507,168.477,30.433,169.287,28.285z"/>
<path fill="#FFFFFF" d="M175.732,13.036h0.981v5.596h4.438v1.348h-4.438v8.804c0,0.762,0.181,1.345,0.542,1.75
	s0.82,0.608,1.377,0.608c0.664,0,1.23-0.308,1.699-0.923s0.742-1.631,0.82-3.047h0.981c-0.059,1.826-0.474,3.181-1.245,4.065
	s-1.772,1.326-3.003,1.326c-1.133,0-2.02-0.31-2.659-0.93s-0.959-1.433-0.959-2.439v-9.214h-2.388v-1.025
	c1.088-0.186,1.916-0.64,2.485-1.362C175.208,16.507,175.664,14.989,175.732,13.036z"/>
<path fill="#FFFFFF" d="M183.525,18.631l5.464-0.161v11.807c0,0.322,0.078,0.552,0.234,0.688c0.225,0.195,0.508,0.293,0.85,0.293
	h1.553v1.099h-7.808v-1.099h1.45c0.43,0,0.744-0.105,0.945-0.315c0.199-0.21,0.3-0.515,0.3-0.916v-8.643
	c0-0.547-0.156-0.959-0.469-1.238s-0.776-0.417-1.392-0.417h-1.128V18.631z M187.334,10.443c0.439,0,0.825,0.166,1.157,0.498
	s0.498,0.723,0.498,1.172c0,0.439-0.161,0.82-0.483,1.143s-0.708,0.483-1.157,0.483s-0.838-0.164-1.164-0.491
	c-0.328-0.327-0.491-0.71-0.491-1.15s0.166-0.825,0.498-1.157S186.904,10.443,187.334,10.443z"/>
<path fill="#FFFFFF" d="M203.726,28.285l0.952,0.278c-0.762,2.803-2.441,4.204-5.039,4.204c-1.904,0-3.462-0.63-4.673-1.89
	s-1.816-2.935-1.816-5.024c0-2.422,0.664-4.299,1.992-5.632s2.891-2,4.688-2c1.348,0,2.461,0.371,3.34,1.113
	s1.318,1.567,1.318,2.476c0,0.547-0.164,0.999-0.491,1.355s-0.715,0.535-1.164,0.535c-0.439,0-0.811-0.151-1.113-0.453
	s-0.454-0.667-0.454-1.095c0-0.428,0.166-0.836,0.498-1.226c0.156-0.185,0.234-0.331,0.234-0.438c0-0.282-0.19-0.557-0.571-0.825
	c-0.381-0.268-0.898-0.401-1.553-0.401c-1.191,0-2.095,0.434-2.71,1.302c-0.879,1.258-1.318,2.917-1.318,4.975
	c0,1.96,0.391,3.446,1.172,4.455s1.777,1.514,2.988,1.514C201.675,31.507,202.915,30.433,203.726,28.285z"/>
<path fill="#FFFFFF" d="M219.429,25.589H209.6c0.049,2.09,0.439,3.564,1.172,4.424c0.84,0.967,1.909,1.45,3.208,1.45
	c1.914,0,3.452-1.089,4.614-3.267l0.952,0.41c-1.426,2.773-3.486,4.16-6.182,4.16c-1.836,0-3.382-0.664-4.637-1.992
	s-1.882-3.027-1.882-5.098c0-2.227,0.617-4.026,1.853-5.398s2.757-2.058,4.563-2.058c1.328,0,2.476,0.342,3.442,1.025
	s1.694,1.665,2.183,2.944C219.229,23.089,219.409,24.222,219.429,25.589z M209.6,24.549h5.947c0.352,0,0.625-0.12,0.82-0.359
	s0.293-0.647,0.293-1.223c0-1.074-0.335-1.987-1.003-2.739c-0.67-0.752-1.458-1.128-2.366-1.128c-1.016,0-1.878,0.454-2.585,1.362
	C209.997,21.371,209.629,22.733,209.6,24.549z"/>
<path fill="#FFFFFF" d="M223.208,27.186c0.605,1.689,1.301,2.859,2.088,3.508c0.785,0.649,1.755,0.974,2.907,0.974
	c1.064,0,1.882-0.232,2.454-0.696c0.57-0.464,0.856-1.052,0.856-1.765c0-0.41-0.105-0.769-0.315-1.077
	c-0.211-0.308-0.502-0.537-0.873-0.688c-0.372-0.151-1.336-0.374-2.892-0.667c-1.487-0.293-2.524-0.601-3.11-0.923
	c-0.587-0.322-1.044-0.767-1.371-1.333s-0.491-1.182-0.491-1.846c0-1.006,0.337-1.919,1.013-2.739
	c0.87-1.045,2.088-1.567,3.652-1.567c1.193,0,2.298,0.376,3.315,1.128l0.969-1.025h0.602l0.381,4.893h-0.981
	c-0.431-1.387-1.013-2.385-1.747-2.996c-0.733-0.61-1.639-0.916-2.715-0.916c-0.93,0-1.658,0.227-2.187,0.681
	c-0.529,0.454-0.793,1.008-0.793,1.663c0,0.577,0.244,1.055,0.733,1.436c0.479,0.391,1.419,0.699,2.818,0.924
	c1.623,0.275,2.68,0.505,3.169,0.691c0.802,0.293,1.423,0.744,1.862,1.354c0.44,0.61,0.66,1.354,0.66,2.233
	c0,1.21-0.477,2.235-1.431,3.074c-0.953,0.84-2.163,1.259-3.63,1.259c-1.359,0-2.621-0.449-3.784-1.348l-1.071,1.23h-0.777
	l-0.293-5.464H223.208z"/>
<path fill="#A5CF4C" d="M140.053,34.016l9.157-3.246c0.369-0.131,0.544-0.583,0.394-1.009c-0.15-0.427-0.571-0.667-0.94-0.536
	l-9.157,3.248c-0.368,0.129-0.547,0.582-0.396,1.009C139.261,33.906,139.684,34.146,140.053,34.016z"/>
<path fill="#A5CF4C" d="M151.081,17.738c-0.584,0.099-1.164,0.004-1.682-0.23c0.211,0.096,0.431,0.176,0.662,0.219
	c-0.242-0.044-0.472-0.129-0.693-0.234c-0.681-0.317-1.24-0.889-1.512-1.65c-0.537-1.516,0.256-3.182,1.77-3.718
	c0.895-0.317,1.838-0.163,2.575,0.323c0.057,0.037,0.113,0.076,0.167,0.119c0.089,0.065,0.169,0.139,0.248,0.217
	c0.047,0.045,0.094,0.089,0.139,0.137c0.084,0.092,0.158,0.193,0.229,0.297c0.031,0.043,0.064,0.082,0.092,0.127
	c0.096,0.156,0.18,0.319,0.246,0.496l2.343-4.075l-5.745-2.737l-5.342,13.674l3.768,1.799L151.081,17.738z M152.201,12.447
	c0.057,0.037,0.111,0.076,0.165,0.115C152.312,12.523,152.257,12.484,152.201,12.447z M152.622,12.787
	c0.044,0.043,0.09,0.085,0.131,0.131C152.711,12.872,152.666,12.83,152.622,12.787z M152.989,13.223
	c0.027,0.041,0.059,0.077,0.086,0.121C153.047,13.3,153.016,13.264,152.989,13.223z"/>
<path fill="#50B848" d="M152.493,15.285c0.072-0.343,0.064-0.711-0.062-1.066c-0.355-1.009-1.47-1.538-2.479-1.18
	c-1.008,0.357-1.537,1.469-1.181,2.478c0.359,1.009,1.471,1.54,2.478,1.183c0.252-0.089,0.472-0.226,0.657-0.394
	C152.202,16.035,152.403,15.674,152.493,15.285z"/>
<path fill="#50B848" d="M154.241,8.282l1.291-2.712l0.245,0.116c0.25,0.118,0.549,0.013,0.671-0.237
	c0.118-0.252,0.013-0.552-0.237-0.672l-2.651-1.262c-0.252-0.119-0.549-0.014-0.67,0.238c-0.118,0.25-0.013,0.551,0.238,0.669
	l0.244,0.116l-1.293,2.713L154.241,8.282z"/>
<rect x="144.244" y="22.429" transform="matrix(0.9025 0.4307 -0.4307 0.9025 24.1192 -60.5474)" fill="#A5CF4C" width="3.107" height="1.144"/>
<path fill="#A5CF4C" d="M157.11,19.181c-0.744-2.099-2.237-3.978-3.713-5.114c0.408,1.43-0.327,2.946-1.714,3.502
	c0.724,0.662,1.329,1.473,1.729,2.605c1.723,4.855,1.338,9.252-4.952,11.482c-1.944,0.689-6.616,2.336-6.616,2.336l1.349,3.916
	c0,0,1.325-0.479,2.815-1.016c-0.028-0.421-0.051-0.797-0.064-1.08c-0.059-1.414,0.611-2.473,1.816-2.901
	c0,0,0.391-0.147,0.742-0.272c0.192-0.067,0.371-0.127,0.48-0.16c1.738-0.516,2.697,0.755,3.107,1.297
	c0.09,0.117,0.196,0.258,0.311,0.408C157.644,30.77,159.069,24.703,157.11,19.181z"/>
<path fill="#50B848" d="M149.258,33.408c-0.296,0.086-1.158,0.412-1.158,0.412c-0.92,0.326-1.22,1.081-1.185,1.95
	c0.069,1.671,0.503,6.642,0.503,6.642l8.245-1.09c-1.08-1.447-3.509-5.854-4.347-6.961C150.74,33.598,150.178,33.135,149.258,33.408
	z M149.974,37.382c-0.718,0.256-1.505-0.12-1.761-0.837c-0.253-0.717,0.121-1.504,0.84-1.759c0.719-0.253,1.503,0.122,1.756,0.838
	C151.065,36.342,150.692,37.129,149.974,37.382z"/>
<path fill="#50B848" d="M161.618,41.322c0,0.716-0.58,1.296-1.296,1.296h-19.341c-0.717,0-1.297-0.58-1.297-1.296l0,0
	c0-0.715,0.58-1.295,1.297-1.295h19.341C161.038,40.027,161.618,40.607,161.618,41.322L161.618,41.322z"/>
<path fill="#FFFFFF" d="M506.779,13.301c0,0.659-0.162,1.271-0.488,1.834c-0.326,0.564-0.772,1.012-1.342,1.341
	c-0.568,0.33-1.179,0.495-1.827,0.495c-0.649,0-1.258-0.164-1.826-0.492c-0.569-0.328-1.02-0.776-1.345-1.341
	c-0.328-0.566-0.492-1.172-0.492-1.819c0-0.652,0.164-1.266,0.492-1.837c0.325-0.572,0.773-1.021,1.341-1.348
	c0.568-0.327,1.178-0.489,1.83-0.489s1.261,0.162,1.823,0.486c0.564,0.326,1.011,0.774,1.341,1.346S506.779,12.658,506.779,13.301z
	 M506.272,13.306c0-0.561-0.142-1.086-0.425-1.578c-0.282-0.494-0.667-0.882-1.151-1.165s-1.005-0.424-1.565-0.424
	c-0.562,0-1.09,0.142-1.583,0.424c-0.492,0.282-0.879,0.67-1.16,1.165c-0.28,0.492-0.422,1.021-0.422,1.587
	c0,0.562,0.142,1.087,0.422,1.576c0.281,0.488,0.668,0.874,1.163,1.157c0.493,0.283,1.021,0.424,1.58,0.424
	c0.556,0,1.078-0.142,1.565-0.426c0.489-0.284,0.874-0.67,1.154-1.156C506.131,14.402,506.272,13.875,506.272,13.306z
	 M501.597,11.168h1.759c0.41,0,0.704,0.041,0.886,0.124c0.18,0.083,0.325,0.217,0.439,0.404c0.113,0.187,0.169,0.405,0.169,0.654
	c0,0.214-0.04,0.4-0.12,0.555c-0.062,0.115-0.197,0.241-0.405,0.378c0.188,0.093,0.317,0.201,0.383,0.325
	c0.064,0.122,0.097,0.333,0.097,0.631v0.476c0,0.224,0.051,0.411,0.148,0.561l0.071,0.112h-0.746
	c-0.048-0.175-0.081-0.382-0.102-0.623l-0.034-0.519c-0.013-0.19-0.041-0.324-0.09-0.402c-0.048-0.077-0.118-0.133-0.205-0.168
	c-0.088-0.034-0.264-0.05-0.527-0.05h-1.055v1.762h-0.668V11.168z M502.265,11.774v1.249h1.034c0.313,0,0.525-0.036,0.638-0.106
	c0.165-0.103,0.248-0.277,0.248-0.522c0-0.215-0.06-0.372-0.178-0.472c-0.117-0.099-0.34-0.149-0.667-0.149H502.265z"/>
<path fill="#FFFFFF" d="M264.031,18.522l-1.457,1.117c-0.804-1.046-1.769-1.839-2.894-2.379c-1.126-0.54-2.362-0.81-3.71-0.81
	c-1.473,0-2.837,0.354-4.093,1.061c-1.255,0.707-2.229,1.657-2.919,2.85c-0.69,1.192-1.036,2.534-1.036,4.024
	c0,2.251,0.772,4.13,2.316,5.637c1.544,1.506,3.492,2.26,5.844,2.26c2.586,0,4.75-1.013,6.491-3.038l1.457,1.104
	c-0.921,1.172-2.07,2.078-3.447,2.718c-1.377,0.641-2.915,0.96-4.614,0.96c-3.231,0-5.78-1.075-7.646-3.227
	c-1.565-1.816-2.348-4.009-2.348-6.579c0-2.703,0.948-4.978,2.844-6.824c1.896-1.846,4.271-2.768,7.125-2.768
	c1.725,0,3.281,0.341,4.671,1.023C262.005,16.335,263.144,17.292,264.031,18.522z"/>
<path fill="#FFFFFF" d="M276.53,14.63c2.797,0,5.138,0.933,7.022,2.8c1.885,1.866,2.827,4.164,2.827,6.893
	c0,2.704-0.94,4.997-2.821,6.88s-4.173,2.825-6.878,2.825c-2.739,0-5.05-0.937-6.935-2.812c-1.884-1.875-2.827-4.144-2.827-6.805
	c0-1.774,0.429-3.419,1.288-4.934c0.858-1.515,2.029-2.702,3.511-3.56S274.804,14.63,276.53,14.63z M276.611,16.426
	c-1.367,0-2.662,0.356-3.886,1.068c-1.224,0.712-2.18,1.671-2.868,2.877c-0.687,1.206-1.031,2.551-1.031,4.033
	c0,2.195,0.761,4.048,2.282,5.561c1.521,1.512,3.355,2.268,5.502,2.268c1.434,0,2.76-0.348,3.98-1.042
	c1.22-0.695,2.171-1.646,2.854-2.853c0.683-1.206,1.025-2.546,1.025-4.021c0-1.466-0.342-2.792-1.025-3.977
	c-0.683-1.186-1.646-2.134-2.886-2.846C279.319,16.782,278.003,16.426,276.611,16.426z"/>
<path fill="#FFFFFF" d="M290.096,33.563V15.095h0.402l12.292,14.157V15.095h1.821v18.469h-0.415l-12.191-13.985v13.985H290.096z"/>
<path fill="#FFFFFF" d="M309.117,33.563V15.095h0.402l12.292,14.157V15.095h1.821v18.469h-0.415l-12.191-13.985v13.985H309.117z"/>
<path fill="#FFFFFF" d="M328.138,15.095h10.584v1.808h-8.739v5.788h8.663v1.808h-8.663v7.257h8.663v1.808h-10.509V15.095z"/>
<path fill="#FFFFFF" d="M359.112,18.522l-1.457,1.117c-0.804-1.046-1.769-1.839-2.894-2.379c-1.126-0.54-2.362-0.81-3.71-0.81
	c-1.473,0-2.837,0.354-4.093,1.061c-1.255,0.707-2.229,1.657-2.919,2.85c-0.69,1.192-1.036,2.534-1.036,4.024
	c0,2.251,0.772,4.13,2.316,5.637c1.544,1.506,3.492,2.26,5.844,2.26c2.586,0,4.75-1.013,6.491-3.038l1.457,1.104
	c-0.921,1.172-2.07,2.078-3.447,2.718c-1.377,0.641-2.915,0.96-4.614,0.96c-3.231,0-5.78-1.075-7.646-3.227
	c-1.565-1.816-2.348-4.009-2.348-6.579c0-2.703,0.948-4.978,2.844-6.824c1.896-1.846,4.271-2.768,7.125-2.768
	c1.725,0,3.281,0.341,4.671,1.023C357.086,16.335,358.225,17.292,359.112,18.522z"/>
<path fill="#FFFFFF" d="M360.983,16.903v-1.808h10.119v1.808h-4.118v16.661h-1.883V16.903H360.983z"/>
<path fill="#FFFFFF" d="M373.5,15.095h1.846v18.469H373.5V15.095z"/>
<path fill="#FFFFFF" d="M388.372,14.63c2.797,0,5.139,0.933,7.023,2.8c1.883,1.866,2.826,4.164,2.826,6.893
	c0,2.704-0.939,4.997-2.82,6.88s-4.174,2.825-6.879,2.825c-2.738,0-5.051-0.937-6.936-2.812c-1.884-1.875-2.826-4.144-2.826-6.805
	c0-1.774,0.429-3.419,1.288-4.934c0.858-1.515,2.028-2.702,3.511-3.56S386.646,14.63,388.372,14.63z M388.454,16.426
	c-1.367,0-2.662,0.356-3.887,1.068c-1.225,0.712-2.18,1.671-2.867,2.877s-1.031,2.551-1.031,4.033c0,2.195,0.761,4.048,2.283,5.561
	c1.521,1.512,3.355,2.268,5.502,2.268c1.434,0,2.76-0.348,3.979-1.042c1.221-0.695,2.172-1.646,2.855-2.853
	c0.684-1.206,1.025-2.546,1.025-4.021c0-1.466-0.342-2.792-1.025-3.977c-0.684-1.186-1.645-2.134-2.887-2.846
	C391.161,16.782,389.845,16.426,388.454,16.426z"/>
<path fill="#FFFFFF" d="M401.938,33.563V15.095h0.402l12.291,14.157V15.095h1.82v18.469h-0.414l-12.191-13.985v13.985H401.938z"/>
<path fill="#FFFFFF" d="M433.401,14.63v1.72c-0.645-0.276-1.196-0.414-1.657-0.414c-0.343,0-0.628,0.069-0.854,0.207
	s-0.368,0.297-0.427,0.477c-0.059,0.18-0.088,0.659-0.088,1.438l-0.002,1.846h2.852v1.519h-2.853l-0.01,12.141h-1.758V21.422h-1.795
	v-1.519h1.795v-2.134c0-0.979,0.09-1.678,0.271-2.097c0.18-0.418,0.485-0.755,0.916-1.011s0.952-0.383,1.563-0.383
	C431.925,14.279,432.606,14.396,433.401,14.63z"/>
<path fill="#FFFFFF" d="M442.316,19.552c2.104,0,3.849,0.762,5.232,2.285c1.257,1.39,1.886,3.034,1.886,4.934
	c0,1.909-0.664,3.576-1.993,5.003s-3.037,2.141-5.125,2.141c-2.097,0-3.81-0.713-5.138-2.141c-1.329-1.427-1.994-3.095-1.994-5.003
	c0-1.892,0.629-3.532,1.887-4.921C438.455,20.318,440.203,19.552,442.316,19.552z M442.31,21.272c-1.461,0-2.717,0.54-3.767,1.62
	c-1.051,1.08-1.575,2.385-1.575,3.917c0,0.988,0.239,1.909,0.718,2.762c0.479,0.854,1.126,1.513,1.94,1.978
	c0.815,0.464,1.71,0.697,2.684,0.697c0.975,0,1.869-0.232,2.684-0.697c0.815-0.464,1.462-1.124,1.94-1.978
	c0.479-0.854,0.719-1.774,0.719-2.762c0-1.532-0.527-2.837-1.582-3.917C445.017,21.812,443.763,21.272,442.31,21.272z"/>
<path fill="#FFFFFF" d="M452.021,19.903h1.796v1.996c0.535-0.787,1.101-1.375,1.694-1.764c0.595-0.389,1.214-0.584,1.858-0.584
	c0.485,0,1.005,0.155,1.557,0.464l-0.916,1.482c-0.368-0.159-0.678-0.239-0.93-0.239c-0.586,0-1.15,0.241-1.694,0.722
	s-0.959,1.228-1.243,2.241c-0.218,0.779-0.326,2.353-0.326,4.721v4.62h-1.796V19.903z"/>
<path fill="#FFFFFF" d="M475.374,15.095l8.613,18.469h-1.994l-2.904-6.077h-7.956l-2.878,6.077h-2.059l8.726-18.469H475.374z
	 M475.141,19.019l-3.164,6.686h6.313L475.141,19.019z"/>
<path fill="#FFFFFF" d="M486.836,15.095h3.679c2.109,0,3.532,0.092,4.27,0.276c1.055,0.259,1.916,0.793,2.586,1.601
	c0.67,0.808,1.005,1.823,1.005,3.044c0,1.23-0.327,2.246-0.979,3.045c-0.653,0.799-1.553,1.337-2.699,1.613
	c-0.837,0.201-2.402,0.301-4.696,0.301h-1.318v8.588h-1.846V15.095z M488.682,16.903v6.265l3.127,0.038
	c1.264,0,2.188-0.115,2.774-0.345c0.586-0.229,1.046-0.602,1.381-1.115s0.502-1.088,0.502-1.723c0-0.618-0.167-1.184-0.502-1.698
	c-0.335-0.514-0.776-0.879-1.324-1.096c-0.549-0.217-1.446-0.326-2.693-0.326H488.682z"/>
<path fill="#FFFFFF" d="M530.536,18.522l-1.457,1.117c-0.803-1.046-1.768-1.839-2.894-2.379c-1.126-0.54-2.362-0.81-3.71-0.81
	c-1.474,0-2.838,0.354-4.093,1.061c-1.256,0.707-2.229,1.657-2.919,2.85c-0.691,1.192-1.036,2.534-1.036,4.024
	c0,2.251,0.772,4.13,2.316,5.637c1.544,1.506,3.492,2.26,5.845,2.26c2.586,0,4.75-1.013,6.49-3.038l1.457,1.104
	c-0.921,1.172-2.069,2.078-3.446,2.718c-1.377,0.641-2.915,0.96-4.614,0.96c-3.231,0-5.78-1.075-7.646-3.227
	c-1.565-1.816-2.348-4.009-2.348-6.579c0-2.703,0.948-4.978,2.844-6.824s4.271-2.768,7.125-2.768c1.725,0,3.281,0.341,4.671,1.023
	S529.648,17.292,530.536,18.522z"/>
<path fill="#FFFFFF" d="M540.417,19.552c2.104,0,3.849,0.762,5.232,2.285c1.257,1.39,1.886,3.034,1.886,4.934
	c0,1.909-0.664,3.576-1.993,5.003s-3.037,2.141-5.125,2.141c-2.097,0-3.81-0.713-5.138-2.141c-1.329-1.427-1.994-3.095-1.994-5.003
	c0-1.892,0.629-3.532,1.887-4.921C536.556,20.318,538.304,19.552,540.417,19.552z M540.41,21.272c-1.461,0-2.717,0.54-3.767,1.62
	c-1.051,1.08-1.575,2.385-1.575,3.917c0,0.988,0.239,1.909,0.718,2.762c0.479,0.854,1.126,1.513,1.94,1.978
	c0.815,0.464,1.71,0.697,2.684,0.697c0.975,0,1.869-0.232,2.684-0.697c0.815-0.464,1.462-1.124,1.94-1.978
	c0.479-0.854,0.719-1.774,0.719-2.762c0-1.532-0.527-2.837-1.582-3.917C543.117,21.812,541.863,21.272,540.41,21.272z"/>
<path fill="#FFFFFF" d="M550.562,19.903h1.758v6.378c0,1.557,0.084,2.628,0.252,3.214c0.251,0.837,0.731,1.499,1.439,1.984
	s1.553,0.728,2.533,0.728c0.981,0,1.813-0.236,2.496-0.709c0.684-0.473,1.155-1.094,1.415-1.864
	c0.176-0.527,0.264-1.645,0.264-3.353v-6.378h1.796v6.705c0,1.883-0.22,3.302-0.659,4.256c-0.439,0.954-1.101,1.701-1.984,2.241
	c-0.883,0.54-1.989,0.81-3.32,0.81s-2.442-0.27-3.334-0.81c-0.891-0.54-1.557-1.293-1.996-2.26s-0.659-2.421-0.659-4.363V19.903z"/>
<path fill="#FFFFFF" d="M565.753,19.903h1.796v1.996c0.535-0.787,1.101-1.375,1.694-1.764c0.595-0.389,1.214-0.584,1.858-0.584
	c0.485,0,1.005,0.155,1.557,0.464l-0.916,1.482c-0.368-0.159-0.678-0.239-0.93-0.239c-0.586,0-1.15,0.241-1.694,0.722
	s-0.959,1.228-1.243,2.241c-0.218,0.779-0.326,2.353-0.326,4.721v4.62h-1.796V19.903z"/>
<path fill="#FFFFFF" d="M581.021,21.397l-1.13,1.167c-0.94-0.912-1.858-1.368-2.757-1.368c-0.57,0-1.06,0.188-1.467,0.565
	c-0.406,0.376-0.61,0.816-0.61,1.318c0,0.444,0.168,0.867,0.504,1.269c0.335,0.41,1.04,0.891,2.113,1.444
	c1.309,0.678,2.197,1.331,2.668,1.958c0.461,0.636,0.691,1.352,0.691,2.147c0,1.122-0.395,2.071-1.182,2.85
	c-0.788,0.778-1.773,1.167-2.955,1.167c-0.788,0-1.541-0.172-2.258-0.515c-0.717-0.343-1.31-0.816-1.779-1.419l1.105-1.255
	c0.897,1.013,1.85,1.519,2.856,1.519c0.705,0,1.305-0.226,1.8-0.678c0.495-0.452,0.742-0.983,0.742-1.595
	c0-0.502-0.163-0.95-0.49-1.343c-0.327-0.385-1.065-0.871-2.215-1.457c-1.233-0.636-2.072-1.264-2.517-1.883
	c-0.444-0.619-0.667-1.327-0.667-2.122c0-1.038,0.354-1.9,1.063-2.586c0.708-0.687,1.603-1.03,2.685-1.03
	C578.48,19.552,579.746,20.167,581.021,21.397z"/>
<path fill="#FFFFFF" d="M595.635,29.031l1.481,0.778c-0.485,0.954-1.047,1.724-1.684,2.31s-1.354,1.032-2.149,1.337
	c-0.796,0.306-1.696,0.458-2.701,0.458c-2.229,0-3.972-0.73-5.228-2.191c-1.257-1.46-1.886-3.111-1.886-4.953
	c0-1.732,0.532-3.277,1.596-4.633c1.35-1.724,3.154-2.586,5.417-2.586c2.329,0,4.188,0.883,5.579,2.649
	c0.988,1.247,1.491,2.804,1.508,4.67h-12.291c0.033,1.586,0.54,2.887,1.521,3.902s2.191,1.522,3.633,1.522
	c0.695,0,1.372-0.121,2.03-0.363s1.217-0.563,1.678-0.963C594.6,30.569,595.099,29.923,595.635,29.031z M595.635,25.353
	c-0.234-0.938-0.576-1.687-1.024-2.248c-0.448-0.561-1.041-1.013-1.778-1.356c-0.738-0.343-1.513-0.515-2.326-0.515
	c-1.341,0-2.493,0.431-3.457,1.293c-0.704,0.628-1.236,1.569-1.596,2.825H595.635z"/>
<path fill="#FFFFFF" d="M607.713,21.397l-1.13,1.167c-0.94-0.912-1.858-1.368-2.757-1.368c-0.57,0-1.06,0.188-1.467,0.565
	c-0.406,0.376-0.61,0.816-0.61,1.318c0,0.444,0.168,0.867,0.504,1.269c0.335,0.41,1.04,0.891,2.113,1.444
	c1.309,0.678,2.197,1.331,2.668,1.958c0.461,0.636,0.691,1.352,0.691,2.147c0,1.122-0.395,2.071-1.182,2.85
	c-0.788,0.778-1.773,1.167-2.955,1.167c-0.788,0-1.541-0.172-2.258-0.515c-0.717-0.343-1.31-0.816-1.779-1.419l1.105-1.255
	c0.897,1.013,1.85,1.519,2.856,1.519c0.705,0,1.305-0.226,1.8-0.678c0.495-0.452,0.742-0.983,0.742-1.595
	c0-0.502-0.163-0.95-0.49-1.343c-0.327-0.385-1.065-0.871-2.215-1.457c-1.233-0.636-2.072-1.264-2.517-1.883
	c-0.444-0.619-0.667-1.327-0.667-2.122c0-1.038,0.354-1.9,1.063-2.586c0.708-0.687,1.603-1.03,2.685-1.03
	C605.173,19.552,606.438,20.167,607.713,21.397z"/>
</svg>
