<?xml version="1.0" encoding="utf-8"?>
<!-- Generator: Adobe Illustrator 16.0.4, SVG Export Plug-In . SVG Version: 6.00 Build 0)  -->
<!DOCTYPE svg PUBLIC "-//W3C//DTD SVG 1.1//EN" "http://www.w3.org/Graphics/SVG/1.1/DTD/svg11.dtd">
<svg version="1.1"
	 id="svg3453" inkscape:version="0.48.3.1 r9886" sodipodi:docname="CNX_BioMaj_Career.svg" xmlns:dc="http://purl.org/dc/elements/1.1/" xmlns:cc="http://creativecommons.org/ns#" xmlns:rdf="http://www.w3.org/1999/02/22-rdf-syntax-ns#" xmlns:inkscape="http://www.inkscape.org/namespaces/inkscape" xmlns:svg="http://www.w3.org/2000/svg" xmlns:sodipodi="http://sodipodi.sourceforge.net/DTD/sodipodi-0.dtd"
	 xmlns="http://www.w3.org/2000/svg" xmlns:xlink="http://www.w3.org/1999/xlink" x="0px" y="0px" width="433px" height="64px"
	 viewBox="0 0 433 64" enable-background="new 0 0 433 64" xml:space="preserve">
<sodipodi:namedview  inkscape:window-x="1425" inkscape:pageshadow="2" inkscape:window-height="1026" inkscape:guide-bbox="true" inkscape:window-maximized="1" inkscape:window-width="1615" inkscape:current-layer="svg3453" inkscape:pageopacity="0" inkscape:window-y="24" borderopacity="1" id="namedview3493" inkscape:zoom="1.4254587" showguides="true" showgrid="false" gridtolerance="10" guidetolerance="10" pagecolor="#ffffff" objecttolerance="10" inkscape:cx="216.5" inkscape:cy="32" bordercolor="#666666">
	<sodipodi:guide  id="guide3497" position="351.46581,165.56074" orientation="1,0"></sodipodi:guide>
	<sodipodi:guide  id="guide3519" position="11.224457,-108.0354" orientation="1,0"></sodipodi:guide>
	<sodipodi:guide  id="guide3521" position="338.8383,-236.41513" orientation="1,0"></sodipodi:guide>
</sodipodi:namedview>
<rect x="35.655" y="28.604" fill="#010101" width="188.61" height="35.285"/>
<rect x="224.265" y="28.604" fill="#A5CF4C" width="162.891" height="35.285"/>
<path fill="#FFFFFF" d="M40.842,49.886c0.475,1.324,1.021,2.241,1.637,2.751c0.616,0.509,1.376,0.764,2.279,0.764
	c0.834,0,1.476-0.182,1.924-0.546c0.447-0.364,0.671-0.825,0.671-1.384c0-0.322-0.083-0.603-0.247-0.845
	c-0.166-0.242-0.394-0.421-0.685-0.539c-0.292-0.119-1.047-0.294-2.268-0.524c-1.166-0.229-1.979-0.471-2.438-0.723
	c-0.46-0.252-0.818-0.602-1.075-1.046c-0.256-0.443-0.385-0.927-0.385-1.447c0-0.788,0.265-1.505,0.794-2.147
	c0.683-0.819,1.637-1.229,2.864-1.229c0.936,0,1.802,0.295,2.599,0.885l0.76-0.805h0.472l0.299,3.837h-0.769
	c-0.338-1.087-0.794-1.87-1.37-2.349c-0.575-0.479-1.285-0.719-2.129-0.719c-0.729,0-1.3,0.178-1.715,0.534
	s-0.622,0.791-0.622,1.304c0,0.453,0.191,0.828,0.575,1.127c0.375,0.306,1.113,0.547,2.209,0.725
	c1.272,0.215,2.102,0.396,2.485,0.541c0.629,0.229,1.116,0.583,1.46,1.062c0.345,0.479,0.518,1.062,0.518,1.751
	c0,0.949-0.374,1.753-1.122,2.41c-0.747,0.659-1.696,0.988-2.846,0.988c-1.066,0-2.055-0.353-2.967-1.058l-0.84,0.964h-0.609
	l-0.23-4.283L40.842,49.886L40.842,49.886z"/>
<path fill="#FFFFFF" d="M58.657,50.748l0.746,0.218c-0.597,2.197-1.914,3.296-3.951,3.296c-1.493,0-2.715-0.494-3.664-1.482
	c-0.95-0.987-1.424-2.301-1.424-3.939c0-1.898,0.521-3.37,1.562-4.416c1.041-1.045,2.267-1.567,3.676-1.567
	c1.057,0,1.93,0.29,2.619,0.872c0.689,0.582,1.033,1.229,1.033,1.941c0,0.43-0.128,0.784-0.385,1.062
	c-0.256,0.279-0.561,0.42-0.913,0.42c-0.344,0-0.636-0.118-0.873-0.355c-0.236-0.237-0.355-0.522-0.355-0.858
	c0-0.335,0.13-0.655,0.391-0.962c0.122-0.145,0.183-0.259,0.183-0.343c0-0.221-0.149-0.437-0.448-0.646
	c-0.299-0.211-0.704-0.315-1.218-0.315c-0.934,0-1.643,0.341-2.125,1.021c-0.689,0.986-1.034,2.287-1.034,3.901
	c0,1.536,0.307,2.702,0.919,3.493s1.394,1.187,2.343,1.187C57.049,53.273,58.021,52.432,58.657,50.748z"/>
<path fill="#FFFFFF" d="M60.667,43.178l4.284-0.127v9.258c0,0.253,0.062,0.434,0.184,0.54c0.176,0.153,0.398,0.229,0.667,0.229
	h1.218v0.861h-6.123v-0.861h1.137c0.337,0,0.583-0.082,0.741-0.247c0.156-0.164,0.235-0.403,0.235-0.718v-6.777
	c0-0.429-0.122-0.752-0.368-0.971c-0.245-0.218-0.609-0.326-1.091-0.326h-0.885L60.667,43.178L60.667,43.178z M63.654,36.758
	c0.344,0,0.646,0.13,0.907,0.391c0.261,0.26,0.391,0.566,0.391,0.918c0,0.345-0.126,0.644-0.378,0.896
	c-0.253,0.254-0.555,0.379-0.908,0.379c-0.352,0-0.657-0.129-0.913-0.385c-0.257-0.257-0.385-0.557-0.385-0.902
	c0-0.344,0.13-0.646,0.391-0.906C63.019,36.888,63.316,36.758,63.654,36.758z"/>
<path fill="#FFFFFF" d="M78.378,48.634h-7.707c0.039,1.639,0.344,2.795,0.918,3.469c0.659,0.758,1.497,1.137,2.516,1.137
	c1.501,0,2.707-0.854,3.618-2.562l0.747,0.321c-1.119,2.175-2.734,3.263-4.848,3.263c-1.439,0-2.651-0.521-3.636-1.562
	c-0.984-1.041-1.476-2.374-1.476-3.998c0-1.745,0.484-3.156,1.453-4.232c0.969-1.075,2.162-1.613,3.578-1.613
	c1.042,0,1.941,0.269,2.699,0.804c0.758,0.535,1.328,1.306,1.712,2.309C78.221,46.673,78.362,47.562,78.378,48.634z M70.671,47.818
	h4.663c0.276,0,0.49-0.095,0.643-0.281c0.152-0.188,0.229-0.508,0.229-0.96c0-0.842-0.263-1.558-0.787-2.147
	c-0.525-0.59-1.143-0.884-1.855-0.884c-0.796,0-1.473,0.355-2.027,1.067C70.982,45.326,70.694,46.395,70.671,47.818z"/>
<path fill="#FFFFFF" d="M80.044,43.178l3.572-0.218c0.146,0.673,0.252,1.462,0.321,2.366c0.482-0.781,1.051-1.367,1.707-1.757
	c0.654-0.391,1.395-0.586,2.222-0.586c0.711,0,1.309,0.14,1.792,0.419c0.482,0.28,0.869,0.722,1.16,1.327
	c0.291,0.605,0.437,1.283,0.437,2.033V52c0,0.391,0.088,0.669,0.264,0.833c0.177,0.165,0.471,0.247,0.885,0.247h0.758v0.861h-5.674
	V53.08h0.54c0.506,0,0.857-0.08,1.057-0.241c0.2-0.161,0.299-0.403,0.299-0.725v-4.606c0-1.002-0.153-1.746-0.459-2.228
	c-0.429-0.689-1.08-1.034-1.952-1.034c-0.866,0-1.587,0.349-2.166,1.046c-0.579,0.696-0.867,1.604-0.867,2.722V52
	c0,0.39,0.09,0.667,0.27,0.833c0.181,0.163,0.477,0.246,0.891,0.246h0.747v0.862h-5.697v-0.862h0.747
	c0.375,0,0.661-0.076,0.855-0.229c0.196-0.153,0.293-0.345,0.293-0.574v-6.948c0-0.46-0.125-0.808-0.373-1.045
	c-0.25-0.238-0.607-0.356-1.074-0.356h-0.551L80.044,43.178L80.044,43.178z"/>
<path fill="#FFFFFF" d="M102.636,50.748l0.747,0.218c-0.598,2.197-1.914,3.296-3.951,3.296c-1.493,0-2.715-0.494-3.664-1.482
	c-0.95-0.987-1.424-2.301-1.424-3.939c0-1.898,0.521-3.37,1.562-4.416c1.042-1.045,2.267-1.567,3.676-1.567
	c1.057,0,1.93,0.29,2.619,0.872c0.689,0.582,1.034,1.229,1.034,1.941c0,0.43-0.129,0.784-0.385,1.062
	c-0.256,0.279-0.561,0.42-0.913,0.42c-0.344,0-0.636-0.118-0.873-0.355c-0.237-0.237-0.356-0.522-0.356-0.858
	c0-0.335,0.13-0.655,0.391-0.962c0.122-0.145,0.184-0.259,0.184-0.343c0-0.221-0.149-0.437-0.448-0.646
	c-0.299-0.211-0.704-0.315-1.218-0.315c-0.934,0-1.643,0.341-2.125,1.021c-0.689,0.986-1.033,2.287-1.033,3.901
	c0,1.536,0.307,2.702,0.919,3.493c0.612,0.791,1.393,1.187,2.343,1.187C101.029,53.273,102.001,52.432,102.636,50.748z"/>
<path fill="#FFFFFF" d="M114.95,48.634h-7.707c0.039,1.639,0.344,2.795,0.919,3.469c0.659,0.758,1.497,1.137,2.515,1.137
	c1.501,0,2.707-0.854,3.618-2.562l0.746,0.321c-1.118,2.175-2.733,3.263-4.847,3.263c-1.439,0-2.652-0.521-3.636-1.562
	c-0.984-1.041-1.476-2.374-1.476-3.998c0-1.745,0.484-3.156,1.453-4.232c0.969-1.075,2.162-1.613,3.578-1.613
	c1.041,0,1.941,0.269,2.699,0.804s1.329,1.306,1.712,2.309C114.792,46.673,114.934,47.562,114.95,48.634z M107.243,47.818h4.663
	c0.276,0,0.49-0.095,0.643-0.281c0.153-0.188,0.229-0.508,0.229-0.96c0-0.842-0.262-1.558-0.786-2.147
	c-0.525-0.59-1.143-0.884-1.855-0.884c-0.797,0-1.473,0.355-2.027,1.067C107.554,45.326,107.265,46.395,107.243,47.818z"/>
<path fill="#FFFFFF" d="M126.561,42.982c0.168,0.804,0.269,1.578,0.299,2.32c0.527-0.842,1.082-1.439,1.663-1.792
	c0.581-0.352,1.216-0.528,1.903-0.528c0.735,0,1.436,0.226,2.105,0.678c0.669,0.451,1.211,1.114,1.629,1.986
	c0.416,0.873,0.625,1.856,0.625,2.952c0,1.753-0.511,3.182-1.535,4.284c-0.848,0.919-1.863,1.379-3.046,1.379
	c-0.672,0-1.28-0.173-1.821-0.517c-0.541-0.345-1.023-0.858-1.443-1.539v4.353c0,0.338,0.081,0.574,0.242,0.712
	c0.207,0.184,0.494,0.276,0.861,0.276h0.793v0.815h-5.754v-0.815h0.792c0.368,0,0.643-0.072,0.828-0.218
	c0.184-0.145,0.276-0.337,0.276-0.574V45.429c0-0.528-0.126-0.901-0.379-1.119c-0.252-0.219-0.758-0.339-1.516-0.362v-0.769
	L126.561,42.982z M129.898,44.027c-0.833,0-1.539,0.402-2.115,1.206c-0.577,0.804-0.866,1.968-0.866,3.492
	c0,1.539,0.278,2.676,0.837,3.412c0.557,0.734,1.268,1.102,2.132,1.102c0.81,0,1.433-0.313,1.869-0.941
	c0.558-0.827,0.836-2.037,0.836-3.63c0-1.669-0.252-2.859-0.757-3.572C131.331,44.384,130.685,44.027,129.898,44.027z"/>
<path fill="#FFFFFF" d="M136.485,43.178l3.871-0.195v4.354c0.414-1.432,0.912-2.516,1.493-3.251s1.302-1.103,2.16-1.103
	c0.582,0,1.047,0.178,1.396,0.534c0.347,0.355,0.522,0.833,0.522,1.43c0,0.482-0.117,0.858-0.35,1.126
	c-0.234,0.269-0.526,0.402-0.878,0.402c-0.344,0-0.623-0.114-0.833-0.344c-0.212-0.23-0.316-0.54-0.316-0.931
	c0-0.253,0.061-0.49,0.183-0.713c0.115-0.198,0.172-0.317,0.172-0.355c0-0.114-0.073-0.173-0.218-0.173
	c-0.313,0-0.669,0.184-1.068,0.552c-0.551,0.513-0.976,1.218-1.275,2.113c-0.459,1.393-0.689,2.507-0.689,3.343v2.309
	c0,0.26,0.092,0.459,0.276,0.597c0.185,0.139,0.498,0.207,0.942,0.207h1.367v0.862h-6.685v-0.862h1.068
	c0.36,0,0.632-0.07,0.815-0.213c0.183-0.141,0.276-0.312,0.276-0.511v-6.857c0-0.521-0.111-0.901-0.333-1.143
	c-0.222-0.241-0.54-0.361-0.953-0.361h-0.942L136.485,43.178L136.485,43.178z"/>
<path fill="#FFFFFF" d="M168.393,50.748l0.747,0.218c-0.597,2.197-1.914,3.296-3.951,3.296c-1.493,0-2.714-0.494-3.664-1.482
	c-0.95-0.987-1.424-2.301-1.424-3.939c0-1.898,0.521-3.37,1.562-4.416c1.042-1.045,2.267-1.567,3.676-1.567
	c1.057,0,1.93,0.29,2.619,0.872s1.034,1.229,1.034,1.941c0,0.43-0.128,0.784-0.386,1.062c-0.256,0.279-0.561,0.42-0.912,0.42
	c-0.345,0-0.636-0.118-0.873-0.355c-0.236-0.237-0.356-0.522-0.356-0.858c0-0.335,0.13-0.655,0.391-0.962
	c0.123-0.145,0.184-0.259,0.184-0.343c0-0.221-0.149-0.437-0.448-0.646c-0.299-0.211-0.704-0.315-1.218-0.315
	c-0.934,0-1.642,0.341-2.125,1.021c-0.689,0.986-1.034,2.287-1.034,3.901c0,1.536,0.306,2.702,0.918,3.493
	c0.613,0.791,1.394,1.187,2.343,1.187C166.785,53.273,167.758,52.432,168.393,50.748z"/>
<path fill="#FFFFFF" d="M173.447,38.791h0.77v4.388h3.479v1.057h-3.479v6.903c0,0.598,0.142,1.055,0.424,1.372
	c0.284,0.317,0.644,0.477,1.08,0.477c0.521,0,0.965-0.241,1.332-0.724c0.368-0.481,0.582-1.278,0.644-2.389h0.769
	c-0.046,1.432-0.371,2.493-0.976,3.188c-0.605,0.692-1.39,1.04-2.355,1.04c-0.888,0-1.583-0.244-2.084-0.73
	c-0.501-0.485-0.752-1.123-0.752-1.911v-7.226h-1.873v-0.805c0.853-0.146,1.502-0.502,1.949-1.067
	C173.036,41.512,173.394,40.322,173.447,38.791z"/>
<path fill="#FFFFFF" d="M179.558,43.178l4.284-0.127v9.258c0,0.253,0.062,0.434,0.184,0.54c0.176,0.153,0.398,0.229,0.667,0.229
	h1.217v0.861h-6.122v-0.861h1.137c0.337,0,0.583-0.082,0.741-0.247c0.156-0.164,0.234-0.403,0.234-0.718v-6.777
	c0-0.429-0.122-0.752-0.368-0.971c-0.245-0.218-0.608-0.326-1.091-0.326h-0.885L179.558,43.178L179.558,43.178z M182.545,36.758
	c0.344,0,0.646,0.13,0.906,0.391c0.26,0.26,0.391,0.566,0.391,0.918c0,0.345-0.126,0.644-0.378,0.896
	c-0.252,0.254-0.556,0.379-0.908,0.379c-0.351,0-0.657-0.129-0.912-0.385c-0.257-0.257-0.385-0.557-0.385-0.902
	c0-0.344,0.13-0.646,0.391-0.906C181.909,36.888,182.207,36.758,182.545,36.758z"/>
<path fill="#FFFFFF" d="M195.396,50.748l0.746,0.218c-0.598,2.197-1.914,3.296-3.951,3.296c-1.493,0-2.714-0.494-3.664-1.482
	c-0.949-0.987-1.424-2.301-1.424-3.939c0-1.898,0.521-3.37,1.562-4.416c1.041-1.045,2.267-1.567,3.675-1.567
	c1.057,0,1.93,0.29,2.619,0.872c0.689,0.582,1.034,1.229,1.034,1.941c0,0.43-0.129,0.784-0.385,1.062
	c-0.257,0.279-0.561,0.42-0.912,0.42c-0.345,0-0.636-0.118-0.873-0.355c-0.237-0.237-0.357-0.522-0.357-0.858
	c0-0.335,0.13-0.655,0.391-0.962c0.123-0.145,0.184-0.259,0.184-0.343c0-0.221-0.149-0.437-0.447-0.646
	c-0.299-0.211-0.705-0.315-1.218-0.315c-0.934,0-1.643,0.341-2.125,1.021c-0.689,0.986-1.034,2.287-1.034,3.901
	c0,1.536,0.307,2.702,0.919,3.493c0.612,0.791,1.394,1.187,2.343,1.187C193.789,53.273,194.761,52.432,195.396,50.748z"/>
<path fill="#FFFFFF" d="M207.71,48.634h-7.708c0.039,1.639,0.345,2.795,0.919,3.469c0.659,0.758,1.497,1.137,2.516,1.137
	c1.501,0,2.706-0.854,3.617-2.562l0.748,0.321c-1.119,2.175-2.734,3.263-4.849,3.263c-1.439,0-2.651-0.521-3.635-1.562
	c-0.984-1.041-1.476-2.374-1.476-3.998c0-1.745,0.483-3.156,1.452-4.232c0.969-1.075,2.162-1.613,3.578-1.613
	c1.042,0,1.941,0.269,2.698,0.804c0.759,0.535,1.329,1.306,1.713,2.309C207.553,46.673,207.694,47.562,207.71,48.634z
	 M200.002,47.818h4.663c0.276,0,0.49-0.095,0.644-0.281c0.152-0.188,0.229-0.508,0.229-0.96c0-0.842-0.263-1.558-0.786-2.147
	c-0.525-0.59-1.144-0.884-1.855-0.884c-0.797,0-1.473,0.355-2.026,1.067C200.314,45.326,200.026,46.395,200.002,47.818z"/>
<path fill="#FFFFFF" d="M210.673,49.886c0.475,1.324,1.02,2.241,1.637,2.751c0.616,0.509,1.377,0.764,2.28,0.764
	c0.834,0,1.476-0.182,1.924-0.546c0.447-0.364,0.671-0.825,0.671-1.384c0-0.322-0.082-0.603-0.246-0.845
	c-0.166-0.242-0.394-0.421-0.685-0.539c-0.292-0.119-1.048-0.294-2.268-0.524c-1.166-0.229-1.979-0.471-2.439-0.723
	s-0.818-0.602-1.074-1.046c-0.256-0.443-0.385-0.927-0.385-1.447c0-0.788,0.264-1.505,0.794-2.147
	c0.683-0.819,1.638-1.229,2.863-1.229c0.936,0,1.803,0.295,2.6,0.885l0.76-0.805h0.472l0.299,3.837h-0.769
	c-0.339-1.087-0.795-1.87-1.37-2.349s-1.285-0.719-2.129-0.719c-0.729,0-1.301,0.178-1.716,0.534
	c-0.414,0.356-0.621,0.791-0.621,1.304c0,0.453,0.191,0.828,0.574,1.127c0.376,0.306,1.113,0.547,2.21,0.725
	c1.273,0.215,2.102,0.396,2.485,0.541c0.629,0.229,1.115,0.583,1.459,1.062c0.346,0.479,0.518,1.062,0.518,1.751
	c0,0.949-0.373,1.753-1.121,2.41c-0.748,0.659-1.696,0.988-2.847,0.988c-1.065,0-2.055-0.353-2.967-1.058l-0.84,0.964h-0.609
	l-0.229-4.283L210.673,49.886L210.673,49.886z"/>
<path fill="#FFFFFF" d="M245.195,42.126l-1.182,0.906c-0.652-0.849-1.435-1.492-2.348-1.929c-0.913-0.439-1.915-0.658-3.01-0.658
	c-1.195,0-2.303,0.287-3.32,0.861c-1.019,0.574-1.807,1.344-2.367,2.312c-0.56,0.968-0.84,2.056-0.84,3.265
	c0,1.827,0.626,3.351,1.879,4.573c1.252,1.222,2.831,1.833,4.739,1.833c2.1,0,3.854-0.822,5.267-2.465l1.182,0.896
	c-0.748,0.949-1.68,1.686-2.796,2.205c-1.117,0.52-2.364,0.779-3.742,0.779c-2.622,0-4.688-0.872-6.202-2.617
	c-1.27-1.475-1.905-3.252-1.905-5.337c0-2.193,0.769-4.038,2.308-5.536c1.538-1.497,3.464-2.246,5.778-2.246
	c1.399,0,2.662,0.277,3.789,0.831C243.552,40.353,244.475,41.128,245.195,42.126z"/>
<path fill="#FFFFFF" d="M256.375,38.969c2.271,0,4.168,0.758,5.698,2.271c1.527,1.513,2.292,3.377,2.292,5.59
	c0,2.193-0.763,4.053-2.287,5.581c-1.525,1.528-3.385,2.291-5.579,2.291c-2.222,0-4.097-0.761-5.626-2.28
	c-1.528-1.521-2.293-3.361-2.293-5.521c0-1.439,0.348-2.773,1.045-4.002c0.696-1.229,1.646-2.19,2.848-2.888
	C253.675,39.316,254.976,38.969,256.375,38.969z M256.441,40.426c-1.108,0-2.159,0.288-3.152,0.866s-1.768,1.355-2.325,2.334
	c-0.559,0.979-0.836,2.069-0.836,3.271c0,1.78,0.617,3.284,1.851,4.51c1.233,1.227,2.722,1.841,4.463,1.841
	c1.162,0,2.238-0.282,3.229-0.848c0.989-0.564,1.761-1.335,2.315-2.313c0.554-0.979,0.831-2.064,0.831-3.262
	c0-1.188-0.277-2.265-0.831-3.226c-0.555-0.962-1.335-1.731-2.341-2.309C258.638,40.714,257.57,40.426,256.441,40.426z"/>
<path fill="#FFFFFF" d="M268.423,54.327V39.346h0.326l9.97,11.483V39.346h1.477v14.981h-0.336l-9.889-11.344v11.344H268.423z"/>
<path fill="#FFFFFF" d="M284.895,54.327V39.346h0.326l9.97,11.483V39.346h1.478v14.981h-0.336l-9.889-11.344v11.344H284.895z"/>
<path fill="#FFFFFF" d="M301.366,39.346h8.585v1.467h-7.088v4.694h7.027v1.468h-7.027v5.886h7.027v1.467h-8.524V39.346z"/>
<path fill="#FFFFFF" d="M327.533,42.126l-1.182,0.906c-0.651-0.849-1.434-1.492-2.348-1.929c-0.912-0.439-1.915-0.658-3.009-0.658
	c-1.194,0-2.302,0.287-3.32,0.861s-1.808,1.344-2.368,2.312c-0.56,0.968-0.84,2.056-0.84,3.265c0,1.827,0.627,3.351,1.88,4.573
	c1.252,1.222,2.831,1.833,4.74,1.833c2.098,0,3.854-0.822,5.265-2.465l1.182,0.896c-0.747,0.949-1.679,1.686-2.795,2.205
	c-1.117,0.52-2.365,0.779-3.742,0.779c-2.621,0-4.688-0.872-6.203-2.617c-1.27-1.475-1.904-3.252-1.904-5.337
	c0-2.193,0.769-4.038,2.308-5.536c1.537-1.497,3.464-2.246,5.778-2.246c1.398,0,2.662,0.277,3.788,0.831
	C325.891,40.353,326.813,41.128,327.533,42.126z"/>
<path fill="#FFFFFF" d="M330.094,40.812v-1.467h8.209v1.467h-3.341v13.515h-1.527V40.812H330.094z"/>
<path fill="#FFFFFF" d="M341.29,39.346h1.497v14.981h-1.497V39.346z"/>
<path fill="#FFFFFF" d="M354.396,38.969c2.271,0,4.168,0.758,5.698,2.271c1.528,1.513,2.293,3.377,2.293,5.59
	c0,2.193-0.763,4.053-2.288,5.581s-3.385,2.291-5.579,2.291c-2.222,0-4.097-0.761-5.625-2.28c-1.529-1.521-2.294-3.361-2.294-5.521
	c0-1.439,0.349-2.773,1.045-4.002s1.646-2.19,2.849-2.888C351.695,39.316,352.996,38.969,354.396,38.969z M354.463,40.426
	c-1.108,0-2.16,0.288-3.152,0.866c-0.993,0.578-1.769,1.355-2.326,2.334s-0.836,2.069-0.836,3.271c0,1.78,0.617,3.284,1.851,4.51
	c1.234,1.227,2.723,1.841,4.463,1.841c1.162,0,2.239-0.282,3.229-0.848c0.989-0.564,1.761-1.335,2.315-2.313
	s0.832-2.064,0.832-3.262c0-1.188-0.277-2.265-0.832-3.226c-0.555-0.962-1.335-1.731-2.341-2.309
	C356.658,40.714,355.591,40.426,354.463,40.426z"/>
<path fill="#FFFFFF" d="M366.443,54.327V39.346h0.326l9.97,11.483V39.346h1.478v14.981h-0.337l-9.888-11.344v11.344H366.443z"/>
<path fill="#A5CF4C" d="M145.471,55.241l7.18-2.545c0.289-0.104,0.427-0.458,0.309-0.792s-0.448-0.522-0.737-0.419l-7.18,2.547
	c-0.289,0.101-0.429,0.455-0.311,0.79C144.85,55.154,145.182,55.344,145.471,55.241z"/>
<path fill="#A5CF4C" d="M154.117,42.478c-0.458,0.077-0.913,0.003-1.319-0.181c0.166,0.075,0.338,0.139,0.519,0.172
	c-0.189-0.034-0.37-0.101-0.543-0.184c-0.534-0.248-0.972-0.697-1.185-1.294c-0.421-1.188,0.2-2.495,1.388-2.915
	c0.702-0.248,1.441-0.128,2.019,0.254c0.044,0.028,0.089,0.059,0.131,0.093c0.069,0.051,0.132,0.108,0.194,0.171
	c0.037,0.035,0.074,0.069,0.109,0.106c0.066,0.072,0.124,0.151,0.179,0.233c0.024,0.033,0.051,0.064,0.072,0.1
	c0.075,0.122,0.141,0.25,0.193,0.389l1.837-3.195l-4.505-2.146l-4.189,10.723l2.955,1.41L154.117,42.478z M154.995,38.328
	c0.044,0.029,0.087,0.061,0.13,0.091C155.083,38.389,155.04,38.357,154.995,38.328z M155.325,38.596
	c0.035,0.033,0.071,0.066,0.104,0.103C155.396,38.662,155.36,38.629,155.325,38.596z M155.613,38.938
	c0.021,0.031,0.047,0.061,0.067,0.094C155.66,38.998,155.636,38.969,155.613,38.938z"/>
<path fill="#50B848" d="M155.224,40.555c0.057-0.27,0.05-0.559-0.048-0.837c-0.279-0.79-1.153-1.206-1.944-0.925
	c-0.791,0.279-1.205,1.152-0.926,1.943c0.281,0.791,1.153,1.207,1.943,0.928c0.198-0.07,0.37-0.178,0.515-0.309
	C154.996,41.143,155.155,40.859,155.224,40.555z"/>
<path fill="#50B848" d="M156.595,35.062l1.013-2.126l0.192,0.091c0.196,0.092,0.431,0.011,0.526-0.186
	c0.092-0.197,0.01-0.433-0.186-0.527l-2.079-0.989c-0.197-0.093-0.43-0.011-0.525,0.187c-0.093,0.196-0.011,0.432,0.187,0.524
	l0.191,0.091l-1.014,2.126L156.595,35.062z"/>
<rect x="148.754" y="46.161" transform="matrix(-0.9024 -0.4309 0.4309 -0.9024 265.2271 153.2875)" fill="#A5CF4C" width="2.436" height="0.896"/>
<path fill="#A5CF4C" d="M158.845,43.609c-0.583-1.646-1.753-3.119-2.911-4.01c0.32,1.121-0.256,2.31-1.345,2.745
	c0.568,0.52,1.043,1.155,1.356,2.043c1.351,3.806,1.05,7.254-3.883,9.002c-1.524,0.541-5.188,1.833-5.188,1.833l1.058,3.07
	c0,0,1.039-0.376,2.207-0.797c-0.021-0.33-0.04-0.625-0.05-0.847c-0.046-1.109,0.479-1.939,1.424-2.274c0,0,0.307-0.116,0.582-0.214
	c0.151-0.053,0.291-0.1,0.376-0.125c1.363-0.405,2.114,0.592,2.436,1.017c0.07,0.093,0.154,0.203,0.244,0.32
	C159.264,52.696,160.381,47.938,158.845,43.609z"/>
<path fill="#50B848" d="M152.688,54.765c-0.232,0.067-0.908,0.322-0.908,0.322c-0.721,0.256-0.956,0.849-0.929,1.53
	c0.054,1.309,0.395,5.207,0.395,5.207l6.464-0.855c-0.847-1.134-2.751-4.589-3.408-5.458C153.85,54.914,153.41,54.55,152.688,54.765
	z M153.25,57.88c-0.563,0.201-1.18-0.094-1.381-0.656c-0.198-0.562,0.095-1.179,0.659-1.379c0.564-0.198,1.178,0.096,1.377,0.657
	C154.105,57.064,153.813,57.682,153.25,57.88z"/>
<path fill="#50B848" d="M162.379,60.969c0,0.562-0.455,1.018-1.016,1.018h-15.166c-0.562,0-1.017-0.455-1.017-1.018l0,0
	c0-0.56,0.455-1.015,1.017-1.015h15.166C161.924,59.954,162.379,60.409,162.379,60.969L162.379,60.969z"/>
<rect y="28.604" fill="#A5CF4C" width="36.686" height="35.396"/>
<path fill="#FFFFFF" d="M34.223,39.25c0,0.541-0.134,1.044-0.402,1.506c-0.268,0.464-0.636,0.832-1.103,1.102
	c-0.467,0.271-0.967,0.406-1.5,0.406c-0.534,0-1.034-0.135-1.501-0.404c-0.467-0.269-0.835-0.637-1.104-1.101
	c-0.27-0.465-0.404-0.963-0.404-1.495c0-0.535,0.135-1.039,0.404-1.509c0.269-0.471,0.636-0.839,1.102-1.107
	s0.967-0.401,1.503-0.401c0.536,0,1.035,0.133,1.499,0.4c0.463,0.268,0.831,0.635,1.101,1.105
	C34.087,38.221,34.223,38.721,34.223,39.25z M33.805,39.254c0-0.46-0.116-0.893-0.348-1.298S32.91,37.232,32.511,37
	c-0.398-0.231-0.827-0.348-1.287-0.348c-0.462,0-0.896,0.115-1.3,0.348c-0.405,0.233-0.722,0.552-0.954,0.956
	c-0.231,0.405-0.347,0.84-0.347,1.305c0,0.463,0.115,0.894,0.347,1.296c0.23,0.4,0.549,0.717,0.955,0.949
	c0.406,0.232,0.838,0.349,1.297,0.349c0.457,0,0.886-0.116,1.287-0.35s0.717-0.551,0.947-0.95
	C33.689,40.154,33.805,39.721,33.805,39.254z M29.965,37.498h1.444c0.337,0,0.579,0.033,0.727,0.101
	c0.148,0.067,0.27,0.179,0.362,0.332c0.093,0.153,0.14,0.332,0.14,0.537c0,0.177-0.033,0.327-0.1,0.456
	c-0.051,0.096-0.163,0.197-0.333,0.311c0.156,0.077,0.26,0.166,0.314,0.267c0.053,0.101,0.081,0.274,0.081,0.519v0.393
	c0,0.184,0.041,0.336,0.122,0.459l0.058,0.092h-0.613c-0.04-0.143-0.067-0.313-0.083-0.51l-0.027-0.426
	c-0.01-0.156-0.035-0.267-0.074-0.33c-0.04-0.064-0.096-0.11-0.168-0.139c-0.073-0.027-0.217-0.042-0.434-0.042h-0.866v1.448h-0.548
	L29.965,37.498L29.965,37.498z M30.513,37.996v1.025h0.85c0.258,0,0.433-0.029,0.524-0.088c0.135-0.084,0.203-0.227,0.203-0.429
	c0-0.177-0.048-0.305-0.146-0.386c-0.097-0.082-0.279-0.123-0.547-0.123H30.513L30.513,37.996z"/>
<path fill="#FFFFFF" d="M13.03,40.936l6.303,13.516h-1.459l-2.125-4.447H9.925l-2.106,4.447H6.312l6.386-13.516H13.03z
	 M12.858,43.808L10.542,48.7h4.622L12.858,43.808z"/>
<path fill="#FFFFFF" d="M20.007,40.936H22.7c1.543,0,2.585,0.066,3.124,0.201c0.771,0.19,1.403,0.581,1.893,1.172
	c0.49,0.592,0.735,1.334,0.735,2.229c0,0.9-0.239,1.644-0.717,2.229s-1.136,0.979-1.976,1.181c-0.612,0.148-1.758,0.221-3.437,0.221
	h-0.965v6.285h-1.351V40.936z M21.358,42.259v4.586l2.289,0.026c0.925,0,1.602-0.083,2.031-0.252
	c0.429-0.168,0.766-0.439,1.011-0.815s0.368-0.797,0.368-1.261c0-0.453-0.123-0.866-0.368-1.242
	c-0.246-0.376-0.569-0.644-0.97-0.802c-0.4-0.159-1.058-0.239-1.971-0.239L21.358,42.259L21.358,42.259z"/>
</svg>
