<?xml version="1.0" encoding="utf-8"?>
<!-- Generator: Adobe Illustrator 19.1.0, SVG Export Plug-In . SVG Version: 6.00 Build 0)  -->
<svg version="1.1" id="Layer_1" xmlns="http://www.w3.org/2000/svg" xmlns:xlink="http://www.w3.org/1999/xlink" x="0px" y="0px"
	 viewBox="-89 365 431.8 44.8" style="enable-background:new -89 365 431.8 44.8;" xml:space="preserve">
<style type="text/css">
	.st0{fill:#010101;}
	.st1{fill:#F99C1C;}
	.st2{fill:#D66C29;}
	.st3{fill:#FFFFFF;}
</style>
<rect x="-89" y="365" class="st0" width="236.4" height="45"/>
<path class="st1" d="M103.4,383.5L103.4,383.5c-0.1,0.2-0.2,0.3-0.3,0.4c0,0,0,0.1-0.1,0.1c-0.5,0.8-0.9,1.6-1.2,2.4l0,0
	c-0.7,2-1,4.3-0.6,6.5l0,0c0.1,0.5,0.2,1,0.4,1.5c0.2,0.7,0.4,1.3,0.7,1.9l0,0c1,2,2.5,3.8,4.5,5.1l0,0c0.2,0.1,0.3,0.2,0.5,0.3
	c0.8,0.5,1.6,0.9,2.4,1.2l-0.8-3l3.6-1l-2.4-0.9l0,0c-1.3-0.7-2.4-1.8-3.2-3l-0.9-1.9l0,0c-0.4-1.4-0.5-2.9-0.1-4.3l0.8-2.1l0,0
	c1-1.9,2.7-3.3,4.8-4l2.6-2.7l-2.2-2.2C108.5,378.6,105.4,380.5,103.4,383.5z"/>
<path class="st2" d="M120.7,380.2c-0.2-0.1-0.3-0.2-0.5-0.3c-0.8-0.5-1.6-0.9-2.4-1.2l0.8,3l-3.6,1l2.4,0.9l0,0
	c1.3,0.7,2.4,1.7,3.2,3l1,2l0,0c0.4,1.5,0.5,3,0.1,4.5L121,395l0,0c-1,1.9-2.7,3.3-4.8,4l-2.6,2.7l2.2,2.2c3.3-0.6,6.3-2.4,8.4-5.3
	l0,0c0,0,0-0.1,0.1-0.1c0-0.1,0.1-0.1,0.1-0.2l0,0c0.1-0.1,0.2-0.3,0.3-0.4c0,0,0-0.1,0.1-0.1c0.5-0.8,0.9-1.6,1.2-2.4h-0.1
	c0.7-2.1,0.9-4.3,0.5-6.6l0,0l0,0c0-0.1,0-0.2,0-0.2l0,0c0-0.2-0.1-0.3-0.1-0.5V388c-0.2-0.9-0.5-1.7-0.9-2.5l0,0
	C124.2,383.4,122.7,381.6,120.7,380.2L120.7,380.2z"/>
<rect x="143.4" y="365" class="st2" width="199.8" height="45"/>
<path class="st3" d="M-79.9,392.4c0.6,1.6,1.2,2.6,1.9,3.2s1.6,0.9,2.7,0.9c1,0,1.7-0.2,2.3-0.6c0.5-0.4,0.8-1,0.8-1.6
	c0-0.4-0.1-0.7-0.3-1c-0.2-0.3-0.5-0.5-0.8-0.6c-0.3-0.1-1.2-0.3-2.7-0.6c-1.4-0.3-2.3-0.6-2.9-0.9c-0.5-0.3-1-0.7-1.3-1.2
	c-0.3-0.5-0.5-1.1-0.5-1.7c0-0.9,0.3-1.8,0.9-2.5c0.8-1,1.9-1.4,3.4-1.4c1.1,0,2.1,0.3,3.1,1l0.9-0.9h0.6l0.4,4.5h-0.9
	c-0.4-1.3-0.9-2.2-1.6-2.8c-0.7-0.6-1.5-0.8-2.5-0.8c-0.9,0-1.5,0.2-2,0.6s-0.7,0.9-0.7,1.5c0,0.5,0.2,1,0.7,1.3
	c0.4,0.4,1.3,0.6,2.6,0.9c1.5,0.3,2.5,0.5,2.9,0.6c0.7,0.3,1.3,0.7,1.7,1.2s0.6,1.2,0.6,2.1c0,1.1-0.4,2.1-1.3,2.8
	c-0.9,0.8-2,1.2-3.3,1.2s-2.4-0.4-3.5-1.2l-1,1.1h-0.8l-0.3-5h0.9V392.4z"/>
<path class="st3" d="M-59,393.4l0.9,0.3c-0.7,2.6-2.3,3.9-4.6,3.9c-1.8,0-3.2-0.6-4.3-1.7c-1.1-1.2-1.7-2.7-1.7-4.6
	c0-2.2,0.6-4,1.8-5.2s2.7-1.8,4.3-1.8c1.2,0,2.3,0.3,3.1,1c0.8,0.7,1.2,1.4,1.2,2.3c0,0.5-0.2,0.9-0.5,1.2c-0.3,0.3-0.7,0.5-1.1,0.5
	s-0.7-0.1-1-0.4c-0.3-0.3-0.4-0.6-0.4-1c0-0.4,0.2-0.8,0.5-1.1c0.1-0.2,0.2-0.3,0.2-0.4c0-0.3-0.2-0.5-0.5-0.8
	c-0.4-0.2-0.8-0.4-1.4-0.4c-1.1,0-1.9,0.4-2.5,1.2c-0.8,1.2-1.2,2.7-1.2,4.6c0,1.8,0.4,3.2,1.1,4.1c0.7,0.9,1.6,1.4,2.8,1.4
	C-60.9,396.3-59.7,395.4-59,393.4z"/>
<path class="st3" d="M-56.6,384.5l5-0.1v10.9c0,0.3,0.1,0.5,0.2,0.6c0.2,0.2,0.5,0.3,0.8,0.3h1.4v1h-7.2v-1h1.4
	c0.4,0,0.7-0.1,0.9-0.3c0.2-0.2,0.3-0.5,0.3-0.8v-8c0-0.5-0.1-0.9-0.4-1.1c-0.3-0.3-0.7-0.4-1.3-0.4h-1L-56.6,384.5L-56.6,384.5z
	 M-53.1,376.9c0.4,0,0.8,0.2,1.1,0.5c0.3,0.3,0.5,0.7,0.5,1.1s-0.1,0.8-0.4,1.1c-0.3,0.3-0.7,0.4-1.1,0.4s-0.8-0.2-1.1-0.5
	c-0.3-0.3-0.5-0.7-0.5-1.1c0-0.4,0.2-0.8,0.5-1.1C-53.8,377.1-53.5,376.9-53.1,376.9z"/>
<path class="st3" d="M-35.8,390.9h-9.1c0,1.9,0.4,3.3,1.1,4.1c0.8,0.9,1.8,1.3,3,1.3c1.8,0,3.2-1,4.3-3l0.9,0.4
	c-1.3,2.6-3.2,3.8-5.7,3.8c-1.7,0-3.1-0.6-4.3-1.8c-1.2-1.2-1.7-2.8-1.7-4.7c0-2.1,0.6-3.7,1.7-5c1.1-1.3,2.5-1.9,4.2-1.9
	c1.2,0,2.3,0.3,3.2,0.9s1.6,1.5,2,2.7C-36,388.6-35.8,389.6-35.8,390.9z M-44.8,389.9h5.5c0.3,0,0.6-0.1,0.8-0.3s0.3-0.6,0.3-1.1
	c0-1-0.3-1.8-0.9-2.5c-0.6-0.7-1.3-1-2.2-1s-1.7,0.4-2.4,1.3C-44.5,387-44.8,388.3-44.8,389.9z"/>
<path class="st3" d="M-33.8,384.5l4.2-0.3c0.2,0.8,0.3,1.7,0.4,2.8c0.6-0.9,1.2-1.6,2-2.1s1.6-0.7,2.6-0.7c0.8,0,1.5,0.2,2.1,0.5
	c0.6,0.3,1,0.8,1.4,1.6c0.3,0.7,0.5,1.5,0.5,2.4v6.2c0,0.5,0.1,0.8,0.3,1c0.2,0.2,0.6,0.3,1,0.3h0.9v1h-6.7v-1h0.6
	c0.6,0,1-0.1,1.2-0.3c0.2-0.2,0.4-0.5,0.4-0.9v-5.4c0-1.2-0.2-2.1-0.5-2.6c-0.5-0.8-1.3-1.2-2.3-1.2c-1,0-1.9,0.4-2.5,1.2
	c-0.6,0.8-1,1.9-1,3.2v4.7c0,0.5,0.1,0.8,0.3,1c0.2,0.2,0.6,0.3,1,0.3h0.9v1h-6.7v-1h0.9c0.4,0,0.8-0.1,1-0.3
	c0.2-0.2,0.3-0.4,0.3-0.7V387c0-0.5-0.1-1-0.4-1.2c-0.3-0.3-0.7-0.4-1.3-0.4h-0.6V384.5z"/>
<path class="st3" d="M-13.6,379.3h0.9v5.2h4.1v1.2h-4.1v8.1c0,0.7,0.2,1.2,0.5,1.6c0.3,0.4,0.8,0.6,1.3,0.6c0.6,0,1.1-0.3,1.6-0.9
	c0.4-0.6,0.7-1.5,0.8-2.8h0.9c-0.1,1.7-0.4,2.9-1.1,3.7c-0.7,0.8-1.6,1.2-2.8,1.2c-1,0-1.9-0.3-2.5-0.9s-0.9-1.3-0.9-2.2v-8.5h-2.2
	v-0.9c1-0.2,1.8-0.6,2.3-1.3C-14.1,382.5-13.6,381.1-13.6,379.3z"/>
<path class="st3" d="M-6.4,384.5l5-0.1v10.9c0,0.3,0.1,0.5,0.2,0.6c0.2,0.2,0.5,0.3,0.8,0.3H1v1h-7.2v-1h1.3c0.4,0,0.7-0.1,0.9-0.3
	c0.2-0.2,0.3-0.5,0.3-0.8v-8c0-0.5-0.1-0.9-0.4-1.1c-0.3-0.3-0.7-0.4-1.3-0.4h-1C-6.4,385.6-6.4,384.5-6.4,384.5z M-2.9,376.9
	c0.4,0,0.8,0.2,1.1,0.5c0.3,0.3,0.5,0.7,0.5,1.1s-0.1,0.8-0.4,1.1s-0.7,0.4-1.1,0.4s-0.8-0.2-1.1-0.5c-0.3-0.3-0.5-0.7-0.5-1.1
	c0-0.4,0.2-0.8,0.5-1.1C-3.6,377.1-3.3,376.9-2.9,376.9z"/>
<path class="st3" d="M6.9,384.5H10v1.2H6.8v9.2c0,0.4,0.1,0.7,0.3,0.9c0.3,0.2,0.6,0.3,1.1,0.3H10v1H2.2v-1h1.1c0.5,0,0.8-0.1,1-0.2
	c0.2-0.1,0.3-0.4,0.3-0.8v-9.5H2.4v-1.2h2.2v-1c0-2.2,0.5-3.9,1.4-5.1c0.9-1.2,2.1-1.8,3.4-1.8c1,0,1.8,0.2,2.4,0.7s0.9,1.1,0.9,1.9
	c0,0.5-0.1,0.9-0.4,1.2c-0.3,0.3-0.6,0.5-1,0.5s-0.7-0.1-0.9-0.4c-0.2-0.2-0.4-0.5-0.4-0.9s0.2-0.8,0.5-1c0.3-0.2,0.4-0.4,0.4-0.5
	c0-0.2-0.1-0.3-0.3-0.4c-0.2-0.1-0.5-0.2-0.9-0.2c-0.8,0-1.4,0.3-1.9,1c-0.5,0.7-0.8,1.7-0.8,3L6.9,384.5L6.9,384.5z"/>
<path class="st3" d="M11.5,384.5l5-0.1v10.9c0,0.3,0.1,0.5,0.2,0.6c0.2,0.2,0.5,0.3,0.8,0.3h1.4v1h-7.2v-1H13c0.4,0,0.7-0.1,0.9-0.3
	c0.2-0.2,0.3-0.5,0.3-0.8v-8c0-0.5-0.1-0.9-0.4-1.1c-0.3-0.3-0.7-0.4-1.3-0.4h-1C11.5,385.6,11.5,384.5,11.5,384.5z M15,376.9
	c0.4,0,0.8,0.2,1.1,0.5c0.3,0.3,0.5,0.7,0.5,1.1s-0.1,0.8-0.4,1.1s-0.7,0.4-1.1,0.4s-0.8-0.2-1.1-0.5c-0.3-0.3-0.5-0.7-0.5-1.1
	c0-0.4,0.2-0.8,0.5-1.1C14.3,377.1,14.6,376.9,15,376.9z"/>
<path class="st3" d="M30.1,393.4l0.9,0.3c-0.7,2.6-2.3,3.9-4.6,3.9c-1.8,0-3.2-0.6-4.3-1.7c-1.1-1.2-1.7-2.7-1.7-4.6
	c0-2.2,0.6-4,1.8-5.2s2.7-1.8,4.3-1.8c1.2,0,2.3,0.3,3.1,1c0.8,0.7,1.2,1.4,1.2,2.3c0,0.5-0.2,0.9-0.5,1.2c-0.3,0.3-0.7,0.5-1.1,0.5
	s-0.7-0.1-1-0.4c-0.3-0.3-0.4-0.6-0.4-1c0-0.4,0.2-0.8,0.5-1.1c0.1-0.2,0.2-0.3,0.2-0.4c0-0.3-0.2-0.5-0.5-0.8
	c-0.4-0.2-0.8-0.4-1.4-0.4c-1.1,0-1.9,0.4-2.5,1.2c-0.8,1.2-1.2,2.7-1.2,4.6c0,1.8,0.4,3.2,1.1,4.1s1.6,1.4,2.8,1.4
	C28.3,396.3,29.4,395.4,30.1,393.4z"/>
<path class="st3" d="M41.2,384.5l3.6-0.2c0.2,0.9,0.3,1.8,0.4,2.7c0.7-1,1.4-1.7,2.1-2.1c0.7-0.4,1.4-0.6,2.3-0.6
	c0.9,0,1.6,0.2,2.2,0.7c0.6,0.5,1,1.2,1.3,2.2c0.6-1,1.3-1.7,2-2.2s1.5-0.7,2.4-0.7c1.2,0,2,0.3,2.6,1c0.7,0.9,1.1,2.1,1.1,3.5v6.2
	c0,0.4,0.1,0.6,0.3,0.8c0.3,0.2,0.6,0.3,1.1,0.3h0.6v1h-6.4v-1h0.6c0.5,0,0.9-0.1,1.1-0.3c0.2-0.2,0.3-0.5,0.3-0.8v-6.3
	c0-0.9-0.2-1.7-0.7-2.2s-1.1-0.8-1.8-0.8c-0.6,0-1.1,0.2-1.5,0.5c-0.5,0.3-0.8,0.7-1.1,1.3c-0.4,0.8-0.6,1.5-0.6,2v5.5
	c0,0.4,0.1,0.6,0.3,0.8c0.2,0.2,0.5,0.3,0.9,0.3h0.9v1h-6.5v-1h0.7c0.5,0,0.8-0.1,1-0.3c0.2-0.2,0.3-0.4,0.3-0.7v-5.8
	c0-1.2-0.2-2.1-0.7-2.7s-1-0.8-1.8-0.8c-1,0-1.7,0.3-2.2,1c-0.7,0.9-1.1,2-1.1,3.2v5c0,0.4,0.1,0.7,0.3,0.8c0.2,0.2,0.6,0.3,1.1,0.3
	h0.6v1h-6.4v-1h1c0.4,0,0.6-0.1,0.8-0.3c0.2-0.2,0.3-0.4,0.3-0.7v-8.3c0-0.5-0.1-0.8-0.4-1c-0.3-0.2-0.7-0.4-1.4-0.4v-0.9H41.2z"/>
<path class="st3" d="M76.9,390.9h-9.1c0,1.9,0.4,3.3,1.1,4.1c0.8,0.9,1.8,1.3,3,1.3c1.8,0,3.2-1,4.3-3l0.9,0.4
	c-1.3,2.6-3.2,3.8-5.7,3.8c-1.7,0-3.1-0.6-4.3-1.8c-1.2-1.2-1.7-2.8-1.7-4.7c0-2.1,0.6-3.7,1.7-5c1.1-1.3,2.5-1.9,4.2-1.9
	c1.2,0,2.3,0.3,3.2,0.9s1.6,1.5,2,2.7C76.7,388.6,76.9,389.6,76.9,390.9z M67.8,389.9h5.5c0.3,0,0.6-0.1,0.8-0.3s0.3-0.6,0.3-1.1
	c0-1-0.3-1.8-0.9-2.5c-0.6-0.7-1.3-1-2.2-1s-1.7,0.4-2.4,1.3C68.2,387,67.9,388.3,67.8,389.9z"/>
<path class="st3" d="M82.2,379.3h0.9v5.2h4.1v1.2h-4.1v8.1c0,0.7,0.2,1.2,0.5,1.6c0.3,0.4,0.8,0.6,1.3,0.6c0.6,0,1.1-0.3,1.6-0.9
	c0.4-0.6,0.7-1.5,0.8-2.8h0.9c-0.1,1.7-0.4,2.9-1.1,3.7c-0.7,0.8-1.6,1.2-2.8,1.2c-1,0-1.9-0.3-2.5-0.9s-0.9-1.3-0.9-2.2v-8.5h-2.2
	v-0.9c1-0.2,1.8-0.6,2.3-1.3C81.7,382.5,82.1,381.1,82.2,379.3z"/>
<path class="st3" d="M89.3,377.1l4.8-0.2v9.8c0.7-0.9,1.4-1.5,2.1-1.9c0.7-0.4,1.6-0.6,2.4-0.6c0.8,0,1.5,0.2,2.2,0.6
	c0.5,0.3,0.9,0.8,1.3,1.6c0.4,0.8,0.5,1.7,0.5,2.7v6c0,0.4,0.1,0.7,0.3,0.8c0.2,0.2,0.5,0.3,0.9,0.3h1.1v1h-6.8v-1h0.8
	c0.6,0,1-0.1,1.2-0.3c0.2-0.2,0.3-0.5,0.3-0.8v-6c0-1.1-0.3-1.9-0.8-2.5s-1.2-0.9-2-0.9c-0.6,0-1.2,0.2-1.7,0.5
	c-0.5,0.3-1,0.8-1.4,1.5c-0.4,0.7-0.6,1.4-0.6,2.2v5.1c0,0.5,0.1,0.8,0.3,1c0.2,0.2,0.5,0.3,0.9,0.3h1.1v1h-6.7v-1h0.8
	c0.5,0,0.9-0.1,1.1-0.3c0.2-0.2,0.3-0.5,0.3-0.9v-15.3c0-0.5-0.1-0.9-0.4-1.2c-0.3-0.3-0.7-0.4-1.2-0.4h-0.9L89.3,377.1L89.3,377.1z
	"/>
<path class="st3" d="M129.1,377.1l4.9-0.2v17.3c0,0.7,0.1,1.2,0.4,1.4c0.3,0.3,0.6,0.4,1.2,0.4h0.9v1h-4.3l-0.3-2.6
	c-0.5,0.9-1.1,1.6-1.8,2.1s-1.5,0.7-2.3,0.7c-1.4,0-2.7-0.6-3.7-1.8c-1-1.2-1.5-2.8-1.5-4.8c0-2.1,0.6-3.9,1.9-5.1
	c1-1,2.2-1.5,3.5-1.5c0.8,0,1.5,0.2,2.2,0.6c0.6,0.4,1.2,1,1.7,1.8v-7.1c0-0.4-0.1-0.7-0.4-0.9c-0.3-0.2-0.7-0.3-1.4-0.3h-0.9
	L129.1,377.1L129.1,377.1z M128.3,385.2c-1,0-1.7,0.4-2.3,1.2c-0.6,0.8-0.9,2.2-0.9,4.1c0,2.1,0.3,3.5,0.9,4.4
	c0.6,0.9,1.3,1.3,2.3,1.3s1.8-0.5,2.5-1.4c0.7-0.9,1-2.3,1-4.1c0-1.7-0.4-3.1-1.1-4C130,385.6,129.2,385.2,128.3,385.2z"/>
<path class="st3" d="M167.7,382.6l-1.5,1.1c-0.8-1.1-1.8-1.9-3-2.4c-1.2-0.6-2.4-0.8-3.8-0.8c-1.5,0-2.9,0.4-4.2,1.1s-2.3,1.7-3,2.9
	c-0.7,1.2-1.1,2.6-1.1,4.1c0,2.3,0.8,4.2,2.4,5.8c1.6,1.5,3.6,2.3,6,2.3c2.7,0,4.9-1,6.7-3.1l1.5,1.1c-0.9,1.2-2.1,2.1-3.5,2.8
	c-1.4,0.7-3,1-4.7,1c-3.3,0-5.9-1.1-7.8-3.3c-1.6-1.9-2.4-4.1-2.4-6.8c0-2.8,1-5.1,2.9-7c1.9-1.9,4.4-2.8,7.3-2.8
	c1.8,0,3.4,0.4,4.8,1.1C165.6,380.4,166.8,381.3,167.7,382.6z"/>
<path class="st3" d="M181.9,378.6c2.9,0,5.3,1,7.2,2.9c1.9,1.9,2.9,4.3,2.9,7.1s-1,5.1-2.9,7.1s-4.3,2.9-7.1,2.9
	c-2.8,0-5.2-1-7.1-2.9s-2.9-4.3-2.9-7c0-1.8,0.4-3.5,1.3-5.1s2.1-2.8,3.6-3.7C178.4,379,180.1,378.6,181.9,378.6z M181.9,380.4
	c-1.4,0-2.7,0.4-4,1.1c-1.3,0.7-2.2,1.7-2.9,3c-0.7,1.3-1.1,2.6-1.1,4.1c0,2.3,0.8,4.2,2.3,5.7c1.6,1.6,3.4,2.3,5.6,2.3
	c1.5,0,2.8-0.4,4.1-1.1c1.3-0.7,2.2-1.7,2.9-2.9c0.7-1.2,1.1-2.6,1.1-4.1s-0.4-2.9-1.1-4.1c-0.7-1.2-1.7-2.2-3-2.9
	C184.7,380.8,183.4,380.4,181.9,380.4z"/>
<path class="st3" d="M197.1,398v-19h0.4l12.6,14.5v-14.4h1.9v19h-0.4l-12.5-14.4V398H197.1z"/>
<path class="st3" d="M218,398v-19h0.4l12.6,14.6v-14.5h1.9v19h-0.4L220,383.7V398H218z"/>
<path class="st3" d="M238.8,379.1h10.9v1.9h-9v5.9h8.9v1.9h-8.9v7.5h8.9v1.7h-10.8V379.1z"/>
<path class="st3" d="M271.9,382.6l-1.5,1.1c-0.8-1.1-1.8-1.9-3-2.4c-1.2-0.6-2.4-0.8-3.8-0.8c-1.5,0-2.9,0.4-4.2,1.1
	c-1.3,0.7-2.3,1.7-3,2.9c-0.7,1.2-1.1,2.6-1.1,4.1c0,2.3,0.8,4.2,2.4,5.8c1.6,1.5,3.6,2.3,6,2.3c2.7,0,4.9-1,6.7-3.1l1.5,1.1
	c-0.9,1.2-2.1,2.1-3.5,2.8c-1.4,0.7-3,1-4.7,1c-3.3,0-5.9-1.1-7.8-3.3c-1.6-1.9-2.4-4.1-2.4-6.8c0-2.8,1-5.1,2.9-7
	c1.9-1.9,4.4-2.8,7.3-2.8c1.8,0,3.4,0.4,4.8,1.1C269.8,380.4,271,381.3,271.9,382.6z"/>
<path class="st3" d="M275.2,380.9V379h10.4v1.9h-4.2V398h-1.9v-17.1H275.2z"/>
<path class="st3" d="M289.3,379.1h1.9v19h-1.9V379.1z"/>
<path class="st3" d="M305.9,378.6c2.9,0,5.3,1,7.2,2.9c1.9,1.9,2.9,4.3,2.9,7.1s-1,5.1-2.9,7.1s-4.3,2.9-7.1,2.9
	c-2.8,0-5.2-1-7.1-2.9s-2.9-4.3-2.9-7c0-1.8,0.4-3.5,1.3-5.1s2.1-2.8,3.6-3.7C302.5,379,304.2,378.6,305.9,378.6z M306,380.4
	c-1.4,0-2.7,0.4-4,1.1c-1.3,0.7-2.2,1.7-2.9,3c-0.7,1.3-1.1,2.6-1.1,4.1c0,2.3,0.8,4.2,2.3,5.7c1.6,1.6,3.4,2.3,5.6,2.3
	c1.5,0,2.8-0.4,4.1-1.1c1.3-0.7,2.2-1.7,2.9-2.9c0.7-1.2,1.1-2.6,1.1-4.1s-0.4-2.9-1.1-4.1c-0.7-1.2-1.7-2.2-3-2.9
	C308.8,380.8,307.4,380.4,306,380.4z"/>
<path class="st3" d="M321.2,398v-19h0.4l12.6,14.5v-14.4h1.9v19h-0.4l-12.5-14.4V398H321.2z"/>
</svg>
