<?xml version="1.0" encoding="UTF-8" standalone="no"?>
<!-- Generator: Adobe Illustrator 14.0.0, SVG Export Plug-In  -->

<svg
   xmlns:dc="http://purl.org/dc/elements/1.1/"
   xmlns:cc="http://creativecommons.org/ns#"
   xmlns:rdf="http://www.w3.org/1999/02/22-rdf-syntax-ns#"
   xmlns:svg="http://www.w3.org/2000/svg"
   xmlns="http://www.w3.org/2000/svg"
   xmlns:sodipodi="http://sodipodi.sourceforge.net/DTD/sodipodi-0.dtd"
   xmlns:inkscape="http://www.inkscape.org/namespaces/inkscape"
   version="1.1"
   x="0px"
   y="0px"
   width="433px"
   height="64px"
   viewBox="0 -7.5 433 64"
   enable-background="new 0 -7.5 433 64"
   xml:space="preserve"
   id="svg3453"
   inkscape:version="0.48.3.1 r9886"
   sodipodi:docname="CNX_BioMaj_Career.svg"><metadata
   id="metadata3495"><rdf:RDF><cc:Work
       rdf:about=""><dc:format>image/svg+xml</dc:format><dc:type
         rdf:resource="http://purl.org/dc/dcmitype/StillImage" /></cc:Work></rdf:RDF></metadata><sodipodi:namedview
   pagecolor="#ffffff"
   bordercolor="#666666"
   borderopacity="1"
   objecttolerance="10"
   gridtolerance="10"
   guidetolerance="10"
   inkscape:pageopacity="0"
   inkscape:pageshadow="2"
   inkscape:window-width="1615"
   inkscape:window-height="1026"
   id="namedview3493"
   showgrid="false"
   showguides="true"
   inkscape:guide-bbox="true"
   inkscape:zoom="1.4254587"
   inkscape:cx="216.5"
   inkscape:cy="32"
   inkscape:window-x="1425"
   inkscape:window-y="24"
   inkscape:window-maximized="1"
   inkscape:current-layer="svg3453"><sodipodi:guide
     orientation="1,0"
     position="351.46581,165.56074"
     id="guide3497" /><sodipodi:guide
     orientation="1,0"
     position="11.224457,-108.0354"
     id="guide3519" /><sodipodi:guide
     orientation="1,0"
     position="338.8383,-236.41513"
     id="guide3521" /></sodipodi:namedview>
<defs
   id="defs3455">
</defs>

















<g
   id="g3499"
   transform="matrix(0.81263771,0,0,0.81263771,0,10.43608)"><rect
     id="rect3457"
     height="45"
     width="182"
     y="10.7"
     x="0"
     style="fill:#010101" /><rect
     id="rect3459"
     height="45"
     width="259.20001"
     y="10.7"
     x="173.3"
     style="fill:#005273" /><path
     id="path3461"
     d="m 209.5,26.6 -1.8,1.4 c -1,-1.3 -2.2,-2.3 -3.6,-3 -1.4,-0.7 -3,-1 -4.7,-1 -1.9,0 -3.6,0.4 -5.2,1.3 -1.6,0.9 -2.8,2.1 -3.7,3.6 -0.9,1.5 -1.3,3.2 -1.3,5.1 0,2.8 1,5.2 2.9,7.1 1.9,1.9 4.4,2.8 7.4,2.8 3.3,0 6,-1.3 8.2,-3.8 l 1.8,1.4 c -1.2,1.5 -2.6,2.6 -4.3,3.4 -1.7,0.8 -3.7,1.2 -5.8,1.2 -4.1,0 -7.3,-1.4 -9.6,-4.1 -2,-2.3 -3,-5.1 -3,-8.3 0,-3.4 1.2,-6.3 3.6,-8.6 2.4,-2.3 5.4,-3.5 9,-3.5 2.2,0 4.1,0.4 5.9,1.3 1.6,1 3.1,2.2 4.2,3.7 z"
     inkscape:connector-curvature="0"
     style="fill:#ffffff" /><path
     id="path3463"
     d="m 226.8,21.7 c 3.5,0 6.5,1.2 8.8,3.5 2.4,2.4 3.6,5.2 3.6,8.7 0,3.4 -1.2,6.3 -3.6,8.7 -2.4,2.4 -5.3,3.6 -8.7,3.6 -3.5,0 -6.4,-1.2 -8.7,-3.5 -2.4,-2.4 -3.6,-5.2 -3.6,-8.6 0,-2.2 0.5,-4.3 1.6,-6.2 1.1,-1.9 2.6,-3.4 4.4,-4.5 2.1,-1.1 4.1,-1.7 6.2,-1.7 z M 227,24 c -1.7,0 -3.4,0.4 -4.9,1.3 -1.5,0.9 -2.7,2.1 -3.6,3.6 -0.9,1.5 -1.3,3.2 -1.3,5.1 0,2.8 1,5.1 2.9,7 1.9,1.9 4.2,2.9 6.9,2.9 1.8,0 3.5,-0.4 5,-1.3 1.5,-0.9 2.7,-2.1 3.6,-3.6 0.9,-1.5 1.3,-3.2 1.3,-5.1 0,-1.8 -0.4,-3.5 -1.3,-5 -0.9,-1.5 -2.1,-2.7 -3.6,-3.6 -1.6,-0.9 -3.3,-1.3 -5,-1.3 z"
     inkscape:connector-curvature="0"
     style="fill:#ffffff" /><path
     id="path3465"
     d="M 245.6,45.6 V 22.3 h 0.5 l 15.5,17.8 V 22.3 h 2.3 v 23.3 h -0.5 L 248,28 v 17.6 h -2.4 z"
     inkscape:connector-curvature="0"
     style="fill:#ffffff" /><path
     id="path3467"
     d="M 271.2,45.6 V 22.3 h 0.5 l 15.5,17.8 V 22.3 h 2.3 V 45.6 H 289 L 273.6,28 v 17.6 h -2.4 z"
     inkscape:connector-curvature="0"
     style="fill:#ffffff" /><path
     id="path3469"
     d="M 296.7,22.3 H 310 v 2.3 h -11 v 7.3 h 11 v 2.3 h -10.9 v 9.1 H 310 v 2.3 H 296.8 V 22.3 z"
     inkscape:connector-curvature="0"
     style="fill:#ffffff" /><path
     id="path3471"
     d="m 337.4,26.6 -1.8,1.4 c -1,-1.3 -2.2,-2.3 -3.6,-3 -1.4,-0.7 -3,-1 -4.7,-1 -1.9,0 -3.6,0.4 -5.2,1.3 -1.6,0.9 -2.8,2.1 -3.7,3.6 -0.9,1.5 -1.3,3.2 -1.3,5.1 0,2.8 1,5.2 2.9,7.1 1.9,1.9 4.4,2.8 7.4,2.8 3.3,0 6,-1.3 8.2,-3.8 l 1.8,1.4 c -1.2,1.5 -2.6,2.6 -4.3,3.4 -1.7,0.8 -3.7,1.2 -5.8,1.2 -4.1,0 -7.3,-1.4 -9.6,-4.1 -2,-2.3 -3,-5.1 -3,-8.3 0,-3.4 1.2,-6.3 3.6,-8.6 2.4,-2.3 5.4,-3.5 9,-3.5 2.2,0 4.1,0.4 5.9,1.3 1.6,1 3.1,2.2 4.2,3.7 z"
     inkscape:connector-curvature="0"
     style="fill:#ffffff" /><path
     id="path3473"
     d="m 341.4,24.6 v -2.3 h 12.8 v 2.3 H 349 v 21 h -2.4 v -21 h -5.2 z"
     inkscape:connector-curvature="0"
     style="fill:#ffffff" /><path
     id="path3475"
     d="m 358.8,22.3 h 2.3 v 23.3 h -2.3 V 22.3 z"
     inkscape:connector-curvature="0"
     style="fill:#ffffff" /><path
     id="path3477"
     d="m 379.1,21.7 c 3.5,0 6.5,1.2 8.8,3.5 2.4,2.4 3.6,5.2 3.6,8.7 0,3.4 -1.2,6.3 -3.6,8.7 -2.4,2.4 -5.3,3.6 -8.7,3.6 -3.5,0 -6.4,-1.2 -8.7,-3.5 -2.4,-2.4 -3.6,-5.2 -3.6,-8.6 0,-2.2 0.5,-4.3 1.6,-6.2 1.1,-1.9 2.6,-3.4 4.4,-4.5 2,-1.1 4,-1.7 6.2,-1.7 z m 0.1,2.3 c -1.7,0 -3.4,0.4 -4.9,1.3 -1.5,0.9 -2.7,2.1 -3.6,3.6 -0.9,1.5 -1.3,3.2 -1.3,5.1 0,2.8 1,5.1 2.9,7 1.9,1.9 4.2,2.9 6.9,2.9 1.8,0 3.5,-0.4 5,-1.3 1.5,-0.9 2.7,-2.1 3.6,-3.6 0.9,-1.5 1.3,-3.2 1.3,-5.1 0,-1.8 -0.4,-3.5 -1.3,-5 -0.9,-1.5 -2.1,-2.7 -3.6,-3.6 -1.6,-0.9 -3.2,-1.3 -5,-1.3 z"
     inkscape:connector-curvature="0"
     style="fill:#ffffff" /><path
     id="path3479"
     d="M 397.8,45.6 V 22.3 h 0.5 l 15.5,17.8 V 22.3 h 2.3 v 23.3 h -0.5 L 400.2,28 v 17.6 h -2.4 z"
     inkscape:connector-curvature="0"
     style="fill:#ffffff" /><path
     id="path3481"
     d="m 33.7,38.9 1.7,0.5 c -1.3,4.9 -4.3,7.4 -8.9,7.4 -3.4,0 -6.1,-1.1 -8.2,-3.3 -2.1,-2.2 -3.2,-5.2 -3.2,-8.9 0,-4.3 1.2,-7.6 3.5,-9.9 2.3,-2.4 5.1,-3.5 8.3,-3.5 2.4,0 4.3,0.7 5.9,2 1.6,1.3 2.3,2.8 2.3,4.4 0,1 -0.3,1.8 -0.9,2.4 -0.6,0.6 -1.3,0.9 -2.1,0.9 -0.8,0 -1.4,-0.3 -2,-0.8 -0.5,-0.5 -0.8,-1.2 -0.8,-1.9 0,-0.8 0.3,-1.5 0.9,-2.2 0.3,-0.3 0.4,-0.6 0.4,-0.8 0,-0.5 -0.3,-1 -1,-1.5 C 29,23.2 28,23 26.9,23 c -2.1,0 -3.7,0.8 -4.8,2.3 -1.5,2.2 -2.3,5.1 -2.3,8.8 0,3.5 0.7,6.1 2.1,7.9 1.4,1.8 3.1,2.7 5.3,2.7 2.9,-0.1 5.1,-2 6.5,-5.8 z"
     inkscape:connector-curvature="0"
     style="fill:#ffffff" /><path
     id="path3483"
     d="m 64.3,43.4 0.9,1.4 c -1.3,1.3 -2.7,1.9 -4.2,1.9 -1.2,0 -2.2,-0.3 -3,-1 -0.8,-0.7 -1.5,-1.8 -2.1,-3.4 -1.6,1.7 -3.1,2.9 -4.3,3.5 -1.2,0.6 -2.7,0.9 -4.5,0.9 -2.5,0 -4.4,-0.5 -5.7,-1.6 -1.3,-1.1 -1.9,-2.4 -1.9,-4.1 0,-2.5 1.5,-4.6 4.4,-6.3 2.9,-1.7 6.9,-2.8 11.8,-3.3 v -3.7 c 0,-1.3 -0.5,-2.4 -1.6,-3.4 -1.1,-1 -2.4,-1.4 -4,-1.4 -1.5,0 -2.8,0.3 -3.9,0.9 -0.8,0.5 -1.2,0.9 -1.2,1.4 0,0.3 0.2,0.7 0.6,1.2 0.5,0.7 0.7,1.3 0.7,1.8 0,0.8 -0.2,1.4 -0.7,1.9 -0.5,0.5 -1.2,0.7 -2,0.7 -0.9,0 -1.6,-0.3 -2.2,-0.9 -0.6,-0.6 -0.9,-1.3 -0.9,-2.2 0,-1.7 1,-3.3 2.9,-4.7 1.9,-1.4 4.4,-2.1 7.6,-2.1 2.9,0 5.1,0.6 6.6,1.9 1.5,1.3 2.3,2.8 2.3,4.6 v 13.2 c 0,1.2 0.2,2 0.6,2.6 0.4,0.6 0.9,0.9 1.5,0.9 0.8,0.1 1.5,-0.1 2.3,-0.7 z M 55.8,33.2 c -4.4,0.6 -7.5,1.6 -9.3,2.9 -1.4,1 -2,2.5 -2,4.4 0,1.3 0.4,2.4 1.1,3.1 0.7,0.7 1.6,1.1 2.8,1.1 2,0 3.8,-0.8 5.3,-2.3 1.5,-1.5 2.2,-3.5 2.2,-5.8 v -3.4 z"
     inkscape:connector-curvature="0"
     style="fill:#ffffff" /><path
     id="path3485"
     d="m 67.7,49.9 c 0,0 -0.3,-2.5 1.3,-3.4 1.6,-0.8 1.8,-1 3,-1 1.2,0 3.9,0 3.9,0 0,0 0.4,-1 0.8,-1 0.5,0 -15.1,-15 -15.1,-15 0,0 -0.2,0.7 -1.3,0.7 -1.1,0 -3.6,-1 -3.6,-3.9 0,-2.9 2.3,-3.6 3.7,-3.6 1.5,0 1.8,0.6 1.8,0.6 L 76.7,10.6 c 0,0 -0.6,-1.5 -1.5,-2.7 C 74.4,6.9 73.9,6 75,5.3 76.1,4.6 76.7,3.2 76.7,3.2 L 75.4,1.3 75.2,0 h 1.5 L 78.1,2.4 80,1.3 c 0,0 1.1,-0.4 1.9,0.2 0.8,0.6 2.5,3.1 2.5,3.1 L 82.1,7 82.6,8.1 c 0,0 2.2,-1.6 3.7,-1.6 1.6,0 5.1,0.7 8.1,3 3,2.3 4.1,3.9 4.1,3.9 L 80.4,26.5 c 0,0 -2.1,-1.2 -2.8,-4.4 -0.8,-3.1 -1.1,-7.6 -0.7,-8.3 0.5,-0.7 -13.4,10.8 -13.4,10.8 0,0 0.3,0.5 0,1.9 -0.3,1.3 -0.5,1.9 -0.5,1.9 l 16.1,15.1 c 0,0 1.5,0.7 1.9,1.3 0.5,0.6 1.3,1 1.3,1 l 4.6,-0.2 c 0,0 1.6,0.4 2.4,1.2 0.8,0.8 1,3.1 1,3.1 H 67.7 z"
     inkscape:connector-curvature="0"
     style="fill:#8190a7" /><path
     id="path3487"
     d="M 108.3,34.1 H 91 c 0.1,3.7 0.8,6.3 2.1,7.8 1.5,1.7 3.4,2.6 5.7,2.6 3.4,0 6.1,-1.9 8.1,-5.8 l 1.7,0.7 c -2.5,4.9 -6.2,7.3 -10.9,7.3 -3.2,0 -6,-1.2 -8.2,-3.5 -2.2,-2.3 -3.3,-5.3 -3.3,-9 0,-3.9 1.1,-7.1 3.3,-9.5 2.2,-2.4 4.9,-3.6 8.1,-3.6 2.3,0 4.4,0.6 6.1,1.8 1.7,1.2 3,2.9 3.9,5.2 0.3,1.6 0.7,3.6 0.7,6 z M 91,32.3 h 10.5 c 0.6,0 1.1,-0.2 1.4,-0.6 0.3,-0.4 0.5,-1.1 0.5,-2.2 0,-1.9 -0.6,-3.5 -1.8,-4.8 -1.2,-1.3 -2.6,-2 -4.2,-2 -1.8,0 -3.3,0.8 -4.6,2.4 -1.1,1.6 -1.8,4 -1.8,7.2 z"
     inkscape:connector-curvature="0"
     style="fill:#ffffff" /><path
     id="path3489"
     d="m 134.8,34.1 h -17.3 c 0.1,3.7 0.8,6.3 2.1,7.8 1.5,1.7 3.4,2.6 5.7,2.6 3.4,0 6.1,-1.9 8.1,-5.8 l 1.7,0.7 c -2.5,4.9 -6.2,7.3 -10.9,7.3 -3.2,0 -6,-1.2 -8.2,-3.5 -2.2,-2.3 -3.3,-5.3 -3.3,-9 0,-3.9 1.1,-7.1 3.3,-9.5 2.2,-2.4 4.9,-3.6 8.1,-3.6 2.3,0 4.4,0.6 6.1,1.8 1.7,1.2 3,2.9 3.9,5.2 0.3,1.6 0.6,3.6 0.7,6 z m -17.4,-1.8 h 10.5 c 0.6,0 1.1,-0.2 1.4,-0.6 0.3,-0.4 0.5,-1.1 0.5,-2.2 0,-1.9 -0.6,-3.5 -1.8,-4.8 -1.2,-1.3 -2.6,-2 -4.2,-2 -1.8,0 -3.3,0.8 -4.6,2.4 -1.1,1.6 -1.7,4 -1.8,7.2 z"
     inkscape:connector-curvature="0"
     style="fill:#ffffff" /><path
     id="path3491"
     d="m 138.1,21.9 8.7,-0.4 v 9.8 c 0.9,-3.2 2,-5.7 3.4,-7.3 1.3,-1.7 2.9,-2.5 4.9,-2.5 1.3,0 2.4,0.4 3.1,1.2 0.8,0.8 1.2,1.9 1.2,3.2 0,1.1 -0.3,1.9 -0.8,2.5 -0.5,0.6 -1.2,0.9 -2,0.9 -0.8,0 -1.4,-0.3 -1.9,-0.8 -0.5,-0.5 -0.7,-1.2 -0.7,-2.1 0,-0.6 0.1,-1.1 0.4,-1.6 0.3,-0.4 0.4,-0.7 0.4,-0.8 0,-0.3 -0.2,-0.4 -0.5,-0.4 -0.7,0 -1.5,0.4 -2.4,1.2 -1.2,1.2 -2.2,2.7 -2.9,4.8 -1,3.1 -1.5,5.6 -1.5,7.5 v 5.2 c 0,0.6 0.2,1 0.6,1.3 0.4,0.3 1.1,0.5 2.1,0.5 h 3.1 V 46 h -15 v -1.9 h 2.4 c 0.8,0 1.4,-0.2 1.8,-0.5 0.4,-0.3 0.6,-0.7 0.6,-1.1 V 27.1 c 0,-1.2 -0.2,-2 -0.7,-2.6 -0.5,-0.5 -1.2,-0.8 -2.1,-0.8 h -2.1 v -1.8 z"
     inkscape:connector-curvature="0"
     style="fill:#ffffff" /></g>
</svg>