<?xml version="1.0" encoding="UTF-8" standalone="no"?>
<!-- Generator: Adobe Illustrator 14.0.0, SVG Export Plug-In  -->

<svg
   xmlns:dc="http://purl.org/dc/elements/1.1/"
   xmlns:cc="http://creativecommons.org/ns#"
   xmlns:rdf="http://www.w3.org/1999/02/22-rdf-syntax-ns#"
   xmlns:svg="http://www.w3.org/2000/svg"
   xmlns="http://www.w3.org/2000/svg"
   xmlns:sodipodi="http://sodipodi.sourceforge.net/DTD/sodipodi-0.dtd"
   xmlns:inkscape="http://www.inkscape.org/namespaces/inkscape"
   version="1.1"
   x="0px"
   y="0px"
   width="433px"
   height="64px"
   viewBox="0 -19.1 433 64"
   enable-background="new 0 -19.1 433 64"
   xml:space="preserve"
   id="svg3809"
   inkscape:version="0.48.3.1 r9886"
   sodipodi:docname="CNX_BioMaj_Everyday.svg"><metadata
   id="metadata3875"><rdf:RDF><cc:Work
       rdf:about=""><dc:format>image/svg+xml</dc:format><dc:type
         rdf:resource="http://purl.org/dc/dcmitype/StillImage" /></cc:Work></rdf:RDF></metadata><sodipodi:namedview
   pagecolor="#ffffff"
   bordercolor="#666666"
   borderopacity="1"
   objecttolerance="10"
   gridtolerance="10"
   guidetolerance="10"
   inkscape:pageopacity="0"
   inkscape:pageshadow="2"
   inkscape:window-width="1615"
   inkscape:window-height="1026"
   id="namedview3873"
   showgrid="false"
   showguides="true"
   inkscape:guide-bbox="true"
   inkscape:zoom="1.4254587"
   inkscape:cx="216.5"
   inkscape:cy="168.82214"
   inkscape:window-x="1425"
   inkscape:window-y="24"
   inkscape:window-maximized="1"
   inkscape:current-layer="svg3809"><sodipodi:guide
     orientation="1,0"
     position="351.46581,471.4272"
     id="guide3877" /></sodipodi:namedview>
<defs
   id="defs3811">
</defs>





























<g
   id="g3882"
   transform="matrix(0.81244985,0,0,0.81244985,0,10)"><rect
     id="rect3813"
     height="45"
     width="186"
     x="0"
     y="0"
     style="fill:#010101" /><g
     id="g3879"><rect
       x="186"
       width="246.60001"
       height="45"
       id="rect3815"
       y="0"
       style="fill:#602e1a" /></g><path
     id="path3817"
     d="m 68.9,25.2 h -13 c 0.1,2.8 0.6,4.7 1.5,5.8 1.1,1.3 2.5,1.9 4.2,1.9 2.5,0 4.6,-1.4 6.1,-4.3 l 1.3,0.5 c -1.9,3.7 -4.6,5.5 -8.2,5.5 -2.4,0 -4.5,-0.9 -6.1,-2.6 -1.7,-1.8 -2.5,-4 -2.5,-6.7 0,-2.9 0.8,-5.3 2.4,-7.1 1.6,-1.8 3.6,-2.7 6,-2.7 1.8,0 3.3,0.5 4.5,1.4 1.3,0.9 2.2,2.2 2.9,3.9 0.6,1.1 0.9,2.6 0.9,4.4 z"
     inkscape:connector-curvature="0"
     style="fill:#cfb7a1" /><path
     id="path3819"
     d="m 218.2,15.5 -1.8,1.4 c -1,-1.3 -2.2,-2.3 -3.5,-2.9 -1.4,-0.7 -2.9,-1 -4.5,-1 -1.8,0 -3.5,0.4 -5,1.3 -1.5,0.9 -2.7,2 -3.6,3.5 -0.8,1.5 -1.3,3.1 -1.3,4.9 0,2.8 0.9,5.1 2.8,6.9 1.9,1.8 4.3,2.8 7.2,2.8 3.2,0 5.8,-1.2 8,-3.7 l 1.8,1.4 c -1.1,1.4 -2.5,2.5 -4.2,3.3 -1.7,0.8 -3.6,1.2 -5.7,1.2 -4,0 -7.1,-1.3 -9.4,-4 -1.9,-2.2 -2.9,-4.9 -2.9,-8.1 0,-3.3 1.2,-6.1 3.5,-8.4 2.3,-2.3 5.2,-3.4 8.7,-3.4 2.1,0 4,0.4 5.7,1.3 1.7,0.8 3.1,2 4.2,3.5 z"
     inkscape:connector-curvature="0"
     style="fill:#ffffff" /><path
     id="path3821"
     d="m 235.1,10.7 c 3.4,0 6.3,1.1 8.6,3.4 2.3,2.3 3.5,5.1 3.5,8.4 0,3.3 -1.2,6.1 -3.5,8.4 -2.3,2.3 -5.1,3.5 -8.4,3.5 -3.4,0 -6.2,-1.1 -8.5,-3.4 -2.3,-2.3 -3.5,-5.1 -3.5,-8.3 0,-2.2 0.5,-4.2 1.6,-6 1.1,-1.9 2.5,-3.3 4.3,-4.4 1.8,-1.1 3.8,-1.6 5.9,-1.6 z m 0.1,2.2 c -1.7,0 -3.3,0.4 -4.8,1.3 -1.5,0.9 -2.7,2 -3.5,3.5 -0.8,1.5 -1.3,3.1 -1.3,4.9 0,2.7 0.9,5 2.8,6.8 1.9,1.9 4.1,2.8 6.7,2.8 1.8,0 3.4,-0.4 4.9,-1.3 1.5,-0.9 2.7,-2 3.5,-3.5 0.8,-1.5 1.3,-3.1 1.3,-4.9 0,-1.8 -0.4,-3.4 -1.3,-4.9 -0.8,-1.5 -2,-2.6 -3.5,-3.5 -1.5,-0.7 -3.1,-1.2 -4.8,-1.2 z"
     inkscape:connector-curvature="0"
     style="fill:#ffffff" /><path
     id="path3823"
     d="M 253.3,33.9 V 11.3 h 0.5 l 15.1,17.3 V 11.3 h 2.2 v 22.6 h -0.5 L 255.7,16.8 v 17.1 h -2.4 z"
     inkscape:connector-curvature="0"
     style="fill:#ffffff" /><path
     id="path3825"
     d="M 278.2,33.9 V 11.3 h 0.5 l 15.1,17.3 V 11.3 h 2.2 v 22.6 h -0.5 L 280.6,16.8 v 17.1 h -2.4 z"
     inkscape:connector-curvature="0"
     style="fill:#ffffff" /><path
     id="path3827"
     d="m 303,11.3 h 13 v 2.2 h -10.7 v 7.1 h 10.6 v 2.2 h -10.6 v 8.9 h 10.6 v 2.2 H 303 V 11.3 z"
     inkscape:connector-curvature="0"
     style="fill:#ffffff" /><path
     id="path3829"
     d="m 342.6,15.5 -1.8,1.4 c -1,-1.3 -2.2,-2.3 -3.5,-2.9 -1.4,-0.7 -2.9,-1 -4.5,-1 -1.8,0 -3.5,0.4 -5,1.3 -1.5,0.9 -2.7,2 -3.6,3.5 -0.8,1.5 -1.3,3.1 -1.3,4.9 0,2.8 0.9,5.1 2.8,6.9 1.9,1.8 4.3,2.8 7.2,2.8 3.2,0 5.8,-1.2 8,-3.7 l 1.8,1.4 c -1.1,1.4 -2.5,2.5 -4.2,3.3 -1.7,0.8 -3.6,1.2 -5.7,1.2 -4,0 -7.1,-1.3 -9.4,-4 -1.9,-2.2 -2.9,-4.9 -2.9,-8.1 0,-3.3 1.2,-6.1 3.5,-8.4 2.3,-2.3 5.2,-3.4 8.7,-3.4 2.1,0 4,0.4 5.7,1.3 1.7,0.8 3.1,2 4.2,3.5 z"
     inkscape:connector-curvature="0"
     style="fill:#ffffff" /><path
     id="path3831"
     d="m 346.4,13.5 v -2.2 h 12.4 v 2.2 h -5 v 20.4 h -2.3 V 13.5 h -5.1 z"
     inkscape:connector-curvature="0"
     style="fill:#ffffff" /><path
     id="path3833"
     d="m 363.3,11.3 h 2.3 v 22.6 h -2.3 V 11.3 z"
     inkscape:connector-curvature="0"
     style="fill:#ffffff" /><path
     id="path3835"
     d="m 383.1,10.7 c 3.4,0 6.3,1.1 8.6,3.4 2.3,2.3 3.5,5.1 3.5,8.4 0,3.3 -1.2,6.1 -3.5,8.4 -2.3,2.3 -5.1,3.5 -8.4,3.5 -3.4,0 -6.2,-1.1 -8.5,-3.4 -2.3,-2.3 -3.5,-5.1 -3.5,-8.3 0,-2.2 0.5,-4.2 1.6,-6 1.1,-1.8 2.5,-3.3 4.3,-4.4 1.9,-1 3.8,-1.6 5.9,-1.6 z m 0.1,2.2 c -1.7,0 -3.3,0.4 -4.8,1.3 -1.5,0.9 -2.7,2 -3.5,3.5 -0.8,1.5 -1.3,3.1 -1.3,4.9 0,2.7 0.9,5 2.8,6.8 1.9,1.9 4.1,2.8 6.7,2.8 1.8,0 3.4,-0.4 4.9,-1.3 1.5,-0.9 2.7,-2 3.5,-3.5 0.8,-1.5 1.3,-3.1 1.3,-4.9 0,-1.8 -0.4,-3.4 -1.3,-4.9 -0.8,-1.5 -2,-2.6 -3.5,-3.5 -1.4,-0.7 -3.1,-1.2 -4.8,-1.2 z"
     inkscape:connector-curvature="0"
     style="fill:#ffffff" /><path
     id="path3837"
     d="M 401.3,33.9 V 11.3 h 0.5 l 15.1,17.3 V 11.3 h 2.2 v 22.6 h -0.5 L 403.7,16.8 v 17.1 h -2.4 z"
     inkscape:connector-curvature="0"
     style="fill:#ffffff" /><line
     id="line3839"
     y2="21.6"
     x2="70.599998"
     y1="16.1"
     x1="83.699997"
     style="fill:none;stroke:#cfb7a1" /><line
     id="line3841"
     y2="18"
     x2="68.699997"
     y1="11.9"
     x1="75.900002"
     style="fill:none;stroke:#602e1a" /><line
     id="line3843"
     y2="17.9"
     x2="53.099998"
     y1="7.8000002"
     x1="41.700001"
     style="fill:none;stroke:#cfb7a1" /><line
     id="line3845"
     y2="15"
     x2="56.200001"
     y1="6.6999998"
     x1="51.400002"
     style="fill:none;stroke:#602e1a" /><line
     id="line3847"
     y2="16"
     x2="66.199997"
     y1="4.0999999"
     x1="72.599998"
     style="fill:none;stroke:#cfb7a1" /><line
     id="line3849"
     y2="14"
     x2="62.900002"
     y1="4.6999998"
     x1="64.800003"
     style="fill:none;stroke:#602e1a" /><line
     id="line3851"
     y2="13.7"
     x2="59.200001"
     y1="0.30000001"
     x1="58"
     style="fill:none;stroke:#cfb7a1" /><line
     id="line3853"
     y2="20.700001"
     x2="51.700001"
     y1="17.200001"
     x1="42.799999"
     style="fill:none;stroke:#602e1a" /><line
     id="line3855"
     y2="20.299999"
     x2="36.599998"
     y1="22.799999"
     x1="50.5"
     style="fill:none;stroke:#cfb7a1" /><path
     id="path3857"
     d="m 28.2,25 h -13 c 0.1,2.8 0.6,4.7 1.5,5.8 1.1,1.3 2.5,1.9 4.2,1.9 2.5,0 4.6,-1.4 6.1,-4.3 l 1.3,0.5 c -1.9,3.7 -4.6,5.5 -8.2,5.5 -2.4,0 -4.5,-0.9 -6.1,-2.6 -1.7,-1.8 -2.5,-4 -2.5,-6.7 0,-2.9 0.8,-5.3 2.4,-7.1 1.6,-1.8 3.6,-2.7 6,-2.7 1.8,0 3.3,0.5 4.5,1.4 1.3,0.9 2.2,2.2 2.9,3.9 0.6,1.1 0.9,2.6 0.9,4.4 z m -13,-1.4 h 7.9 c 0.5,0 0.8,-0.2 1.1,-0.5 0.3,-0.3 0.4,-0.9 0.4,-1.6 0,-1.4 -0.4,-2.6 -1.3,-3.6 -0.9,-1 -1.9,-1.5 -3.1,-1.5 -1.3,0 -2.5,0.6 -3.4,1.8 -1.1,1.2 -1.6,3 -1.6,5.4 z"
     inkscape:connector-curvature="0"
     style="fill:#ffffff" /><path
     id="path3859"
     d="m 30.2,15.8 h 8.9 v 1.3 c -1.2,0 -1.9,0.1 -2.3,0.3 -0.3,0.2 -0.5,0.5 -0.5,0.8 0,0.3 0.1,0.6 0.2,0.9 l 4.8,10.7 4.4,-10.4 c 0.1,-0.2 0.1,-0.4 0.1,-0.5 0,-0.9 -0.9,-1.5 -2.8,-1.8 v -1.3 h 7.5 v 1.3 c -0.8,0.1 -1.4,0.3 -1.8,0.6 -0.5,0.3 -0.8,0.8 -1,1.4 L 41,34.5 H 40 L 32.9,18.7 c -0.3,-0.6 -0.6,-1 -0.9,-1.2 -0.4,-0.2 -0.9,-0.3 -1.7,-0.4 v -1.3 z"
     inkscape:connector-curvature="0"
     style="fill:#ffffff" /><path
     id="path3861"
     d="m 69.3,25 h -13 c 0.1,2.8 0.6,4.7 1.5,5.8 1.1,1.3 2.5,1.9 4.2,1.9 2.5,0 4.6,-1.4 6.1,-4.3 l 1.3,0.5 c -1.9,3.7 -4.6,5.5 -8.2,5.5 -2.4,0 -4.5,-0.9 -6.1,-2.6 -1.7,-1.8 -2.5,-4 -2.5,-6.7 0,-2.9 0.8,-5.3 2.4,-7.1 1.6,-1.8 3.6,-2.7 6,-2.7 1.8,0 3.3,0.5 4.5,1.4 1.3,0.9 2.2,2.2 2.9,3.9 0.6,1.1 0.9,2.6 0.9,4.4 z m -13,-1.4 h 7.9 c 0.5,0 0.8,-0.2 1.1,-0.5 0.3,-0.3 0.4,-0.9 0.4,-1.6 0,-1.4 -0.4,-2.6 -1.3,-3.6 -0.9,-1 -1.9,-1.5 -3.1,-1.5 -1.3,0 -2.5,0.6 -3.4,1.8 -1.1,1.2 -1.6,3 -1.6,5.4 z"
     inkscape:connector-curvature="0"
     style="fill:#ffffff" /><path
     id="path3863"
     d="m 71.8,15.8 6.5,-0.3 v 7.3 c 0.7,-2.4 1.5,-4.2 2.5,-5.5 1,-1.3 2.2,-1.9 3.6,-1.9 1,0 1.8,0.3 2.4,0.9 0.6,0.6 0.9,1.4 0.9,2.4 0,0.8 -0.2,1.4 -0.6,1.9 -0.4,0.5 -0.9,0.7 -1.5,0.7 -0.6,0 -1,-0.2 -1.4,-0.6 -0.4,-0.4 -0.5,-0.9 -0.5,-1.6 0,-0.4 0.1,-0.8 0.3,-1.2 0.2,-0.3 0.3,-0.5 0.3,-0.6 0,-0.2 -0.1,-0.3 -0.4,-0.3 -0.5,0 -1.1,0.3 -1.8,0.9 -0.9,0.9 -1.6,2.1 -2.1,3.6 -0.8,2.3 -1.2,4.2 -1.2,5.6 V 31 c 0,0.4 0.2,0.8 0.5,1 0.3,0.2 0.8,0.3 1.6,0.3 h 2.3 v 1.5 H 71.9 v -1.5 h 1.8 c 0.6,0 1.1,-0.1 1.4,-0.4 0.3,-0.3 0.5,-0.5 0.5,-0.9 V 19.7 c 0,-0.9 -0.2,-1.5 -0.6,-1.9 -0.4,-0.4 -0.9,-0.6 -1.6,-0.6 h -1.6 v -1.4 z"
     inkscape:connector-curvature="0"
     style="fill:#ffffff" /><path
     id="path3865"
     d="M 89.3,15.8 H 98 v 1.3 h -0.8 c -0.8,0 -1.3,0.1 -1.6,0.3 -0.3,0.2 -0.4,0.5 -0.4,0.9 0,0.2 0,0.3 0.1,0.5 l 5.1,10.9 3.8,-9 c 0.3,-0.6 0.4,-1.3 0.4,-1.9 0,-0.5 -0.2,-0.8 -0.6,-1.1 -0.4,-0.3 -1.1,-0.4 -2.2,-0.5 v -1.3 h 7.5 v 1.3 c -1.5,0.1 -2.4,0.8 -2.9,2 l -6.7,15.6 c -1.1,2.7 -2.3,4.5 -3.4,5.5 -1.2,1 -2.4,1.5 -3.7,1.5 -1,0 -1.7,-0.3 -2.3,-0.8 -0.6,-0.5 -0.9,-1.2 -0.9,-2 0,-0.6 0.2,-1.1 0.5,-1.4 0.4,-0.4 0.8,-0.6 1.4,-0.6 0.5,0 0.9,0.2 1.2,0.5 0.3,0.3 0.5,0.7 0.5,1.2 0,0.1 0,0.3 -0.1,0.6 -0.1,0.2 -0.1,0.3 -0.1,0.4 0,0.3 0.2,0.5 0.6,0.5 0.4,0 0.9,-0.2 1.4,-0.5 0.5,-0.3 1,-0.8 1.5,-1.5 0.5,-0.7 1.3,-2.2 2.4,-4.5 L 91.8,19 C 91.6,18.5 91.2,18.1 90.9,17.8 90.5,17.5 90,17.4 89.3,17.3 v -1.5 z"
     inkscape:connector-curvature="0"
     style="fill:#ffffff" /><path
     id="path3867"
     d="M 121.2,5.3 128.3,5 v 24.8 c 0,1 0.2,1.7 0.6,2.1 0.4,0.4 0.9,0.6 1.7,0.6 h 1.3 V 34 h -6.2 l -0.5,-3.7 c -0.7,1.3 -1.6,2.3 -2.6,3 -1,0.7 -2.1,1 -3.3,1 -2.1,0 -3.8,-0.9 -5.3,-2.6 -1.5,-1.7 -2.2,-4 -2.2,-6.8 0,-3.1 0.9,-5.5 2.8,-7.4 1.5,-1.4 3.1,-2.1 5,-2.1 1.2,0 2.2,0.3 3.1,0.9 0.9,0.6 1.7,1.5 2.4,2.6 V 8.5 c 0,-0.5 -0.2,-1 -0.6,-1.3 -0.4,-0.3 -1.1,-0.5 -2,-0.5 h -1.3 V 5.3 z m -1.1,11.6 c -1.4,0 -2.5,0.6 -3.3,1.7 -0.8,1.1 -1.2,3.1 -1.2,5.8 0,3 0.4,5 1.3,6.2 0.8,1.2 1.9,1.8 3.2,1.8 1.4,0 2.6,-0.7 3.6,-2 1,-1.3 1.5,-3.3 1.5,-5.9 0,-2.5 -0.5,-4.4 -1.6,-5.8 -1,-1.2 -2.1,-1.8 -3.5,-1.8 z"
     inkscape:connector-curvature="0"
     style="fill:#ffffff" /><path
     id="path3869"
     d="m 152.9,32 0.7,1.1 c -0.9,1 -2,1.5 -3.1,1.5 -0.9,0 -1.6,-0.2 -2.2,-0.7 -0.6,-0.5 -1.1,-1.3 -1.6,-2.5 -1.2,1.3 -2.3,2.2 -3.2,2.6 -0.9,0.4 -2,0.6 -3.3,0.6 -1.9,0 -3.3,-0.4 -4.2,-1.2 -1,-0.8 -1.5,-1.8 -1.5,-3.1 0,-1.9 1.1,-3.4 3.3,-4.7 2.2,-1.2 5.2,-2.1 8.8,-2.5 v -2.7 c 0,-1 -0.4,-1.8 -1.2,-2.5 -0.8,-0.7 -1.8,-1 -3,-1 -1.1,0 -2.1,0.2 -2.9,0.7 -0.6,0.3 -0.9,0.7 -0.9,1 0,0.2 0.2,0.5 0.5,0.9 0.4,0.5 0.6,1 0.6,1.4 0,0.6 -0.2,1.1 -0.6,1.4 -0.4,0.4 -0.9,0.6 -1.5,0.6 -0.6,0 -1.2,-0.2 -1.6,-0.7 -0.4,-0.4 -0.6,-1 -0.6,-1.7 0,-1.3 0.7,-2.4 2.2,-3.5 1.5,-1.1 3.3,-1.6 5.7,-1.6 2.2,0 3.8,0.5 4.9,1.4 1.1,0.9 1.7,2.1 1.7,3.4 V 30 c 0,0.9 0.1,1.5 0.4,1.9 0.3,0.4 0.7,0.6 1.1,0.6 0.4,0.1 0.9,-0.1 1.5,-0.5 z m -6.4,-7.7 c -3.3,0.5 -5.6,1.2 -7,2.2 -1,0.8 -1.5,1.9 -1.5,3.3 0,1 0.3,1.8 0.8,2.3 0.5,0.5 1.2,0.8 2.1,0.8 1.5,0 2.8,-0.6 4,-1.7 1.1,-1.2 1.7,-2.6 1.7,-4.3 v -2.6 z"
     inkscape:connector-curvature="0"
     style="fill:#ffffff" /><path
     id="path3871"
     d="m 155.3,15.8 h 8.7 v 1.3 h -0.8 c -0.8,0 -1.3,0.1 -1.6,0.3 -0.3,0.2 -0.4,0.5 -0.4,0.9 0,0.2 0,0.3 0.1,0.5 l 5.1,10.9 3.8,-9 c 0.3,-0.6 0.4,-1.3 0.4,-1.9 0,-0.5 -0.2,-0.8 -0.6,-1.1 -0.4,-0.3 -1.1,-0.4 -2.2,-0.5 v -1.3 h 7.5 v 1.3 c -1.5,0.1 -2.4,0.8 -2.9,2 l -6.7,15.6 c -1.1,2.7 -2.3,4.5 -3.4,5.5 -1.2,1 -2.4,1.5 -3.7,1.5 -1,0 -1.7,-0.3 -2.3,-0.8 -0.6,-0.5 -0.9,-1.2 -0.9,-2 0,-0.6 0.2,-1.1 0.5,-1.4 0.4,-0.4 0.8,-0.6 1.4,-0.6 0.5,0 0.9,0.2 1.2,0.5 0.3,0.3 0.5,0.7 0.5,1.2 0,0.1 0,0.3 -0.1,0.6 -0.1,0.2 -0.1,0.3 -0.1,0.4 0,0.3 0.2,0.5 0.6,0.5 0.4,0 0.9,-0.2 1.4,-0.5 0.5,-0.3 1,-0.8 1.5,-1.5 0.5,-0.7 1.3,-2.2 2.4,-4.5 L 157.8,19 c -0.2,-0.5 -0.6,-0.9 -0.9,-1.2 -0.4,-0.3 -0.9,-0.4 -1.6,-0.5 v -1.5 z"
     inkscape:connector-curvature="0"
     style="fill:#ffffff" /></g>
</svg>