<?xml version="1.0" encoding="utf-8"?>
<!-- Generator: Adobe Illustrator 19.1.0, SVG Export Plug-In . SVG Version: 6.00 Build 0)  -->
<svg version="1.1"
	 id="svg3225" xmlns:sodipodi="http://sodipodi.sourceforge.net/DTD/sodipodi-0.dtd" xmlns:svg="http://www.w3.org/2000/svg" xmlns:inkscape="http://www.inkscape.org/namespaces/inkscape" xmlns:rdf="http://www.w3.org/1999/02/22-rdf-syntax-ns#" xmlns:dc="http://purl.org/dc/elements/1.1/" xmlns:cc="http://creativecommons.org/ns#" inkscape:version="0.48.3.1 r9886" sodipodi:docname="CNX_BioNonMaj_Experiment.svg"
	 xmlns="http://www.w3.org/2000/svg" xmlns:xlink="http://www.w3.org/1999/xlink" x="0px" y="0px" viewBox="-89 389.5 350.6 36.5"
	 style="enable-background:new -89 389.5 350.6 36.5;" xml:space="preserve">
<style type="text/css">
	.st0{fill:#010101;}
	.st1{fill:#FFFFFF;}
	.st2{fill:#D66C29;}
	.st3{fill:#FAA51A;}
</style>
<sodipodi:namedview  showgrid="false" borderopacity="1" pagecolor="#ffffff" guidetolerance="10" inkscape:cy="26.679404" gridtolerance="10" bordercolor="#666666" showguides="true" inkscape:cx="222.88472" id="namedview3273" inkscape:zoom="1.8794886" objecttolerance="10" inkscape:guide-bbox="true" inkscape:window-x="0" inkscape:pageopacity="0" inkscape:window-y="303" inkscape:window-maximized="1" inkscape:current-layer="svg3225" inkscape:pageshadow="2" inkscape:window-width="1360" inkscape:window-height="744">
	<sodipodi:guide  position="350.63982,132.43049" id="guide3301" orientation="1,0"></sodipodi:guide>
	<sodipodi:guide  position="459.69953,36.180055" id="guide3539" orientation="0,1"></sodipodi:guide>
</sodipodi:namedview>
<g id="g6240" transform="matrix(0.81156496,0,0,0.81156496,-0.3620263,24.528037)">
	<g id="g6172">
		<rect id="rect6118" x="-109.7" y="449.7" class="st0" width="224.6" height="45"/>
		<path id="path6120" inkscape:connector-curvature="0" class="st1" d="M-83.5,475.9h-13c0.1,2.8,0.6,4.7,1.6,5.9
			c1.1,1.3,2.5,1.9,4.3,1.9c2.5,0,4.6-1.4,6.1-4.3l1.3,0.5c-1.9,3.7-4.6,5.5-8.2,5.5c-2.4,0-4.5-0.9-6.2-2.6c-1.7-1.8-2.5-4-2.5-6.8
			c0-3,0.8-5.3,2.5-7.2c1.6-1.8,3.7-2.7,6.1-2.7c1.8,0,3.3,0.5,4.6,1.4c1.3,0.9,2.2,2.2,2.9,3.9C-83.7,472.6-83.5,474.1-83.5,475.9z
			 M-96.5,474.5h7.9c0.5,0,0.8-0.2,1.1-0.5s0.4-0.9,0.4-1.6c0-1.4-0.4-2.6-1.3-3.6c-0.9-1-1.9-1.5-3.1-1.5c-1.3,0-2.5,0.6-3.4,1.8
			C-96,470.3-96.5,472.1-96.5,474.5z"/>
		<path id="path6122" inkscape:connector-curvature="0" class="st1" d="M-81,466.7h8.8v1.3c-1.4,0.1-2.1,0.3-2.1,0.8
			c0,0.2,0.1,0.5,0.3,0.8l3.1,4.2l3.1-3.9c0.2-0.3,0.3-0.6,0.3-0.8c0-0.6-0.8-0.9-2.4-1.1v-1.3h7.7v1.3c-1.8,0.3-3.3,1.1-4.2,2.3
			l-3.6,4.5l5.6,7.3c0.4,0.5,0.8,0.8,1.2,1c0.4,0.2,1.1,0.3,1.9,0.3v1.5h-9.3v-1.5h0.7c0.7,0,1.2-0.1,1.5-0.2
			c0.2-0.1,0.3-0.2,0.3-0.4c0-0.1-0.1-0.4-0.4-0.7l-3.6-4.8l-2.9,3.8c-0.4,0.5-0.6,1-0.6,1.3s0.1,0.6,0.4,0.7c0.4,0.2,1.1,0.4,2,0.4
			v1.5h-7.9v-1.5c1-0.1,1.7-0.3,2.2-0.6c0.9-0.5,1.6-1.2,2.3-2.1l3.6-4.6l-5.4-6.9c-0.6-0.8-1.5-1.2-2.8-1.2v-1.4H-81z"/>
		<path id="path6124" inkscape:connector-curvature="0" class="st1" d="M-53.5,466.3c0.3,1.4,0.5,2.7,0.5,3.9c0.9-1.4,1.8-2.4,2.8-3
			c1-0.6,2.1-0.9,3.2-0.9c1.2,0,2.4,0.4,3.6,1.1c1.2,0.7,2.1,1.9,2.8,3.4c0.7,1.5,1.1,3.1,1.1,5c0,3-0.9,5.4-2.6,7.3
			c-1.4,1.6-3.2,2.3-5.2,2.3c-1.1,0-2.2-0.3-3.1-0.9c-0.9-0.6-1.7-1.5-2.4-2.6v7.4c0,0.6,0.1,1,0.4,1.2c0.4,0.3,0.8,0.5,1.5,0.5h1.3
			v1.4h-9.7V491h1.3c0.6,0,1.1-0.1,1.4-0.4c0.3-0.2,0.5-0.6,0.5-1v-19.1c0-0.9-0.2-1.5-0.6-1.9c-0.4-0.4-1.3-0.6-2.6-0.6v-1.3
			C-59.3,466.7-53.5,466.3-53.5,466.3z M-47.8,468.1c-1.4,0-2.6,0.7-3.6,2c-1,1.4-1.5,3.3-1.5,5.9s0.5,4.5,1.4,5.8
			c0.9,1.3,2.1,1.9,3.6,1.9c1.4,0,2.4-0.5,3.2-1.6c0.9-1.4,1.4-3.4,1.4-6.1c0-2.8-0.4-4.8-1.3-6C-45.4,468.7-46.5,468.1-47.8,468.1z
			"/>
		<path id="path6126" inkscape:connector-curvature="0" class="st1" d="M-19.3,475.9h-13c0.1,2.8,0.6,4.7,1.6,5.9
			c1.1,1.3,2.5,1.9,4.3,1.9c2.5,0,4.6-1.4,6.1-4.3l1.3,0.5c-1.9,3.7-4.6,5.5-8.2,5.5c-2.4,0-4.5-0.9-6.2-2.6c-1.7-1.8-2.5-4-2.5-6.8
			c0-3,0.8-5.3,2.5-7.2c1.6-1.8,3.7-2.7,6.1-2.7c1.8,0,3.3,0.5,4.6,1.4c1.3,0.9,2.2,2.2,2.9,3.9C-19.5,472.6-19.3,474.1-19.3,475.9z
			 M-32.3,474.5h7.9c0.5,0,0.8-0.2,1.1-0.5c0.3-0.3,0.4-0.9,0.4-1.6c0-1.4-0.4-2.6-1.3-3.6s-1.9-1.5-3.1-1.5c-1.3,0-2.5,0.6-3.4,1.8
			C-31.8,470.3-32.3,472.1-32.3,474.5z"/>
		<path id="path6128" inkscape:connector-curvature="0" class="st1" d="M-16.8,466.7l6.6-0.3v7.3c0.7-2.4,1.5-4.3,2.5-5.5
			c1-1.2,2.2-1.9,3.7-1.9c1,0,1.8,0.3,2.4,0.9c0.6,0.6,0.9,1.4,0.9,2.4c0,0.8-0.2,1.5-0.6,1.9s-0.9,0.7-1.5,0.7s-1.1-0.2-1.4-0.6
			c-0.4-0.4-0.5-0.9-0.5-1.6c0-0.4,0.1-0.8,0.3-1.2c0.2-0.3,0.3-0.5,0.3-0.6c0-0.2-0.1-0.3-0.4-0.3c-0.5,0-1.1,0.3-1.8,0.9
			c-0.9,0.9-1.7,2.1-2.2,3.6c-0.8,2.4-1.2,4.2-1.2,5.7v3.9c0,0.4,0.2,0.8,0.5,1s0.8,0.4,1.6,0.4h2.3v1.5h-11.3v-1.5h1.8
			c0.6,0,1.1-0.1,1.4-0.4c0.3-0.2,0.5-0.5,0.5-0.9v-11.5c0-0.9-0.2-1.5-0.6-1.9c-0.4-0.4-0.9-0.6-1.6-0.6h-1.6L-16.8,466.7
			L-16.8,466.7z"/>
		<path id="path6130" inkscape:connector-curvature="0" class="st1" d="M13.4,466.7l5.2-0.3c0.3,1.4,0.5,2.6,0.6,3.9
			c1-1.4,2-2.4,3-3c1-0.6,2.1-0.9,3.3-0.9c1.3,0,2.3,0.3,3.1,1c0.8,0.7,1.4,1.7,1.9,3.2c0.9-1.4,1.8-2.5,2.9-3.2
			c1.1-0.7,2.2-1,3.5-1c1.7,0,2.9,0.5,3.7,1.5c1.1,1.3,1.6,3,1.6,5v9c0,0.5,0.1,0.9,0.4,1.1c0.4,0.3,0.9,0.4,1.6,0.4h0.9v1.5h-9.2
			v-1.5h0.9c0.8,0,1.3-0.1,1.6-0.4s0.5-0.6,0.5-1.2v-9.1c0-1.3-0.3-2.4-1-3.1c-0.7-0.7-1.5-1.1-2.6-1.1c-0.8,0-1.6,0.2-2.2,0.7
			c-0.7,0.4-1.2,1.1-1.6,1.9c-0.6,1.2-0.8,2.1-0.8,2.9v7.8c0,0.5,0.1,0.9,0.4,1.2c0.3,0.3,0.7,0.4,1.3,0.4h1.2v1.5h-9.3v-1.5h1.1
			c0.7,0,1.2-0.1,1.5-0.4s0.5-0.6,0.5-1v-8.4c0-1.8-0.3-3.1-0.9-3.9c-0.6-0.8-1.5-1.2-2.5-1.2c-1.4,0-2.4,0.5-3.2,1.4
			c-1,1.3-1.6,2.9-1.6,4.6v7.3c0,0.6,0.1,0.9,0.4,1.1c0.4,0.3,0.9,0.4,1.6,0.4h0.9v1.5h-9.2v-1.5h1.4c0.5,0,0.9-0.1,1.2-0.4
			c0.3-0.3,0.4-0.6,0.4-1v-11.8c0-0.7-0.2-1.2-0.5-1.5c-0.3-0.3-1-0.5-2-0.6C13.4,468,13.4,466.7,13.4,466.7z"/>
		<path id="path6132" inkscape:connector-curvature="0" class="st1" d="M64.8,475.9h-13c0.1,2.8,0.6,4.7,1.6,5.9
			c1.1,1.3,2.5,1.9,4.3,1.9c2.5,0,4.6-1.4,6.1-4.3l1.3,0.5c-1.9,3.7-4.6,5.5-8.2,5.5c-2.4,0-4.5-0.9-6.2-2.6c-1.7-1.8-2.5-4-2.5-6.8
			c0-3,0.8-5.3,2.5-7.2c1.6-1.8,3.7-2.7,6.1-2.7c1.8,0,3.3,0.5,4.6,1.4s2.2,2.2,2.9,3.9C64.5,472.6,64.8,474.1,64.8,475.9
			L64.8,475.9z M51.7,474.5h7.9c0.5,0,0.8-0.2,1.1-0.5s0.4-0.9,0.4-1.6c0-1.4-0.4-2.6-1.3-3.6c-0.9-1-1.9-1.5-3.1-1.5
			c-1.3,0-2.5,0.6-3.4,1.8C52.3,470.3,51.8,472.1,51.7,474.5L51.7,474.5z"/>
		<path id="path6134" inkscape:connector-curvature="0" class="st1" d="M67.6,466.7l6-0.4c0.2,1.1,0.4,2.5,0.5,4
			c0.8-1.3,1.8-2.3,2.9-3c1.1-0.7,2.4-1,3.8-1c1.2,0,2.2,0.2,3,0.7s1.5,1.2,2,2.2s0.7,2.2,0.7,3.4v8.9c0,0.7,0.1,1.1,0.4,1.4
			c0.3,0.3,0.8,0.4,1.5,0.4h1.3v1.5h-9.6v-1.5H81c0.9,0,1.5-0.1,1.8-0.4c0.3-0.3,0.5-0.7,0.5-1.2v-7.8c0-1.7-0.3-3-0.8-3.8
			c-0.7-1.2-1.8-1.8-3.3-1.8s-2.7,0.6-3.7,1.8c-1,1.2-1.5,2.7-1.5,4.6v6.7c0,0.7,0.2,1.1,0.5,1.4c0.3,0.3,0.8,0.4,1.5,0.4h1.3v1.5
			h-9.6v-1.5H69c0.6,0,1.1-0.1,1.4-0.4c0.3-0.3,0.5-0.6,0.5-1v-11.5c0-0.8-0.2-1.4-0.6-1.8c-0.4-0.4-1-0.6-1.8-0.6h-0.9L67.6,466.7
			L67.6,466.7z"/>
		<path id="path6136" inkscape:connector-curvature="0" class="st1" d="M96.7,459.2H98v7.5h5.9v1.8H98v11.7c0,1,0.2,1.8,0.7,2.3
			s1.1,0.8,1.8,0.8c0.9,0,1.6-0.4,2.3-1.2c0.6-0.8,1-2.2,1.1-4h1.3c-0.1,2.4-0.6,4.2-1.7,5.4c-1,1.2-2.4,1.8-4,1.8
			c-1.5,0-2.7-0.4-3.5-1.2c-0.8-0.8-1.3-1.9-1.3-3.2v-12.4h-3.2v-1.4c1.4-0.2,2.5-0.8,3.3-1.8C96,463.8,96.7,461.8,96.7,459.2
			L96.7,459.2z"/>
		<path id="path6138" inkscape:connector-curvature="0" class="st2" d="M1.5,463.7c0,0,0.8,0.5,0.9,1.3c0.1,0.7,0,9.2,0,9.2l-5.5,11
			c0,0-1.6,4.7,0.7,5.5c2.3,0.8,13.2,0.4,14.4,0c1.2-0.4,2.6-2.1,1.6-4.4c-1-2.3-6.1-12-6.1-12v-8.6c0,0,0.1-1.5,0.5-1.8
			C8.6,463.4,1.5,463.7,1.5,463.7z"/>
		<path id="path6140" inkscape:connector-curvature="0" class="st3" d="M-3.5,488.6c0,0,0.1-5.1,4-8.4c3.9-3.3,2.5-6.7,2.5-6.7
			s1.6,3.3-0.4,7.9C0.5,486-3.5,488.6-3.5,488.6z"/>
		
			<circle id="circle6142" sodipodi:cx="117.6" sodipodi:rx="1" sodipodi:ry="1" sodipodi:cy="6.0999999" class="st3" cx="7.9" cy="455.8" r="1">
		</circle>
		
			<circle id="circle6144" sodipodi:cx="112.6" sodipodi:rx="2.8" sodipodi:ry="2.8" sodipodi:cy="6.0999999" class="st2" cx="2.9" cy="455.8" r="2.8">
		</circle>
		
			<circle id="circle6146" sodipodi:cx="111.4" sodipodi:rx="1.2" sodipodi:ry="1.2" sodipodi:cy="7" class="st3" cx="1.7" cy="456.7" r="1.2">
		</circle>
		
			<circle id="circle6148" sodipodi:cx="114.7" sodipodi:rx="1" sodipodi:ry="1" sodipodi:cy="10.9" class="st3" cx="5" cy="460.6" r="1">
		</circle>
		<rect id="rect6150" x="114.9" y="449.7" class="st2" width="207.9" height="45"/>
		<path id="path6152" inkscape:connector-curvature="0" class="st1" d="M126.5,465.2h2v20.2h-2V465.2z"/>
		<path id="path6154" inkscape:connector-curvature="0" class="st1" d="M134.6,485.4v-20.2h0.4l13.4,15.5v-15.5h2v20.2h-0.5
			l-13.3-15.3v15.3H134.6z"/>
		<path id="path6156" inkscape:connector-curvature="0" class="st1" d="M179.5,459.1l12.2,26.1h-2.8l-4.1-8.6h-11.2l-4.1,8.6h-2.9
			l12.3-26.1H179.5z M179.2,464.6l-4.5,9.4h8.9L179.2,464.6z"/>
		<path id="path6158" inkscape:connector-curvature="0" class="st1" d="M221.8,463.9l-2.1,1.6c-1.1-1.5-2.5-2.6-4.1-3.4
			c-1.6-0.8-3.3-1.1-5.2-1.1c-2.1,0-4,0.5-5.8,1.5s-3.1,2.3-4.1,4s-1.5,3.6-1.5,5.7c0,3.2,1.1,5.8,3.3,8c2.2,2.2,4.9,3.2,8.3,3.2
			c3.7,0,6.7-1.4,9.2-4.3l2.1,1.6c-1.3,1.7-2.9,2.9-4.9,3.8c-1.9,0.9-4.1,1.4-6.5,1.4c-4.6,0-8.2-1.5-10.8-4.6
			c-2.2-2.6-3.3-5.7-3.3-9.3c0-3.8,1.3-7,4-9.6s6-3.9,10.1-3.9c2.4,0,4.6,0.5,6.6,1.4C219,460.8,220.6,462.2,221.8,463.9
			L221.8,463.9z"/>
		<path id="path6160" inkscape:connector-curvature="0" class="st1" d="M226.3,461.6v-2.5h14.3v2.6h-5.8v23.5h-2.7v-23.6H226.3z"/>
		<path id="path6162" inkscape:connector-curvature="0" class="st1" d="M245.8,459.1h2.6v26.1h-2.6V459.1z"/>
		<path id="path6164" inkscape:connector-curvature="0" class="st1" d="M268.6,458.4c4,0,7.3,1.3,9.9,4c2.7,2.6,4,5.9,4,9.7
			c0,3.8-1.3,7.1-4,9.7c-2.7,2.7-5.9,4-9.7,4c-3.9,0-7.1-1.3-9.8-4c-2.7-2.6-4-5.9-4-9.6c0-2.5,0.6-4.8,1.8-7c1.2-2.2,2.9-3.8,5-5
			C263.9,459,266.2,458.4,268.6,458.4L268.6,458.4z M268.7,461c-1.9,0-3.8,0.5-5.5,1.5s-3.1,2.4-4.1,4.1c-1,1.7-1.5,3.6-1.5,5.7
			c0,3.1,1.1,5.7,3.2,7.9c2.2,2.1,4.7,3.2,7.8,3.2c2,0,3.9-0.5,5.6-1.5s3.1-2.3,4-4c1-1.7,1.4-3.6,1.4-5.7c0-2.1-0.5-3.9-1.4-5.6
			c-0.9-1.7-2.3-3-4.1-4C272.6,461.5,270.7,461,268.7,461z"/>
		<path id="path6166" inkscape:connector-curvature="0" class="st1" d="M289.6,485.2v-26.1h0.6l17.4,20v-20h2.6v26.1h-0.6
			l-17.3-19.8v19.8H289.6z"/>
	</g>
</g>
</svg>
