<?xml version="1.0" encoding="utf-8"?>
<!-- Generator: Adobe Illustrator 19.1.0, SVG Export Plug-In . SVG Version: 6.00 Build 0)  -->
<svg version="1.1"
	 id="svg3225" xmlns:sodipodi="http://sodipodi.sourceforge.net/DTD/sodipodi-0.dtd" xmlns:svg="http://www.w3.org/2000/svg" xmlns:inkscape="http://www.inkscape.org/namespaces/inkscape" xmlns:rdf="http://www.w3.org/1999/02/22-rdf-syntax-ns#" xmlns:dc="http://purl.org/dc/elements/1.1/" xmlns:cc="http://creativecommons.org/ns#" inkscape:version="0.48.3.1 r9886" sodipodi:docname="CNX_BioNonMaj_Evolution.svg"
	 xmlns="http://www.w3.org/2000/svg" xmlns:xlink="http://www.w3.org/1999/xlink" x="0px" y="0px" viewBox="-89 380.4 350.6 45"
	 style="enable-background:new -89 380.4 350.6 45;" xml:space="preserve">
<style type="text/css">
	.st0{fill:#010101;}
	.st1{fill:#517542;}
	.st2{fill:#75B152;}
	.st3{fill:#FFFFFF;}
</style>
<sodipodi:namedview  showgrid="false" borderopacity="1" pagecolor="#ffffff" guidetolerance="10" inkscape:cy="32" gridtolerance="10" bordercolor="#666666" showguides="true" inkscape:cx="216.5" id="namedview3273" inkscape:zoom="1.3289991" objecttolerance="10" inkscape:guide-bbox="true" inkscape:window-x="0" inkscape:pageopacity="0" inkscape:window-y="303" inkscape:window-maximized="1" inkscape:current-layer="svg3225" inkscape:pageshadow="2" inkscape:window-width="1360" inkscape:window-height="744">
	<sodipodi:guide  position="350.63982,132.43049" id="guide3301" orientation="1,0"></sodipodi:guide>
	<sodipodi:guide  position="102.33265,36.117406" id="guide3105" orientation="0,1"></sodipodi:guide>
</sodipodi:namedview>
<g id="g3431" transform="matrix(0.70791733,0,0,0.68917527,-0.1332186,15.442966)">
	<rect id="rect3387" x="-125.7" y="543.1" class="st0" width="220.7" height="51.7"/>
	<rect id="rect3389" x="95" y="543.1" class="st1" width="274.8" height="51.7"/>
	<path id="path3391" inkscape:connector-curvature="0" class="st2" d="M-89.5,588.7c0,0,6.9-22.6-3-59
		C-74.7,562-86,581.7-89.5,588.7z"/>
	<path id="path3393" inkscape:connector-curvature="0" class="st1" d="M-80.6,566.9c0,0,0.8-28.1,13.5-32.3
		C-74.5,546.6-76.4,553.1-80.6,566.9z"/>
	<path id="path3395" inkscape:connector-curvature="0" class="st3" d="M-94.7,573.9h-17.1c0.1,3.6,0.8,6.2,2,7.7
		c1.5,1.7,3.3,2.5,5.6,2.5c3.3,0,6-1.9,8-5.7l1.7,0.7c-2.5,4.8-6.1,7.2-10.8,7.2c-3.2,0-5.9-1.2-8.1-3.5c-2.2-2.3-3.3-5.3-3.3-8.9
		c0-3.9,1.1-7,3.2-9.4c2.1-2.4,4.8-3.6,7.9-3.6c2.3,0,4.3,0.6,6,1.8c1.7,1.2,2.9,2.9,3.8,5.1C-95.1,569.5-94.8,571.5-94.7,573.9z
		 M-111.8,572.1h10.3c0.6,0,1.1-0.2,1.4-0.6c0.3-0.4,0.5-1.1,0.5-2.1c0-1.9-0.6-3.5-1.7-4.8c-1.2-1.3-2.5-2-4.1-2
		c-1.8,0-3.3,0.8-4.5,2.4C-111.1,566.6-111.8,568.9-111.8,572.1z"/>
	<path id="path3397" inkscape:connector-curvature="0" class="st3" d="M-65,561.1c3.2,0,5.9,1.2,8.1,3.5s3.3,5.4,3.3,9.2
		c0,2.6-0.5,4.8-1.5,6.7c-1,1.8-2.4,3.3-4.2,4.4s-3.8,1.6-5.8,1.6c-3.1,0-5.7-1.2-7.9-3.5s-3.2-5.4-3.2-9.1c0-3.8,1.1-6.8,3.2-9.1
		C-70.8,562.2-68.2,561.1-65,561.1z M-65,562.9c-1.9,0-3.5,0.9-4.7,2.6c-1.2,1.7-1.8,4.4-1.8,8.2c0,3.8,0.6,6.6,1.8,8.3
		c1.2,1.8,2.8,2.6,4.7,2.6c2,0,3.6-0.9,4.8-2.6c1.2-1.7,1.8-4.6,1.8-8.6c0-3.7-0.6-6.4-1.8-8C-61.4,563.7-63,562.9-65,562.9z"/>
	<path id="path3399" inkscape:connector-curvature="0" class="st3" d="M-41.2,547.5v34.6c0,0.5,0.1,0.8,0.4,1.1
		c0.4,0.3,0.9,0.5,1.6,0.5h2.5v1.9h-13.5v-1.9h2.4c0.8,0,1.4-0.2,1.7-0.6c0.4-0.4,0.6-0.9,0.6-1.6v-29c0-0.8-0.2-1.5-0.7-1.9
		c-0.6-0.5-1.4-0.8-2.3-0.8h-2.1V548C-50.6,548-41.2,547.5-41.2,547.5z"/>
	<path id="path3401" inkscape:connector-curvature="0" class="st3" d="M-25.6,561.4v15.8c0,1.9,0.5,3.4,1.5,4.5
		c1,1.1,2.2,1.6,3.8,1.6c1.9,0,3.5-0.8,4.8-2.3c1.3-1.5,2-3.5,2-5.8v-8.9c0-0.8-0.3-1.4-0.9-1.9c-0.6-0.5-1.7-0.7-3.4-0.8v-1.8
		l8.4-0.4v19.6c0,0.9,0.3,1.6,0.8,2.1c0.5,0.5,1.2,0.7,2.1,0.7H-5v1.7l-8,0.2l-0.5-4.7c-1.4,1.7-2.9,2.9-4.3,3.8
		c-1.4,0.9-2.9,1.3-4.4,1.3c-2.2,0-4-0.7-5.4-2.2c-1.5-1.4-2.2-3.8-2.2-7.3v-10.4c0-0.9-0.4-1.6-1.1-2.1c-0.5-0.3-1.6-0.5-3.1-0.6
		v-1.8C-34,561.8-25.6,561.4-25.6,561.4z"/>
	<path id="path3403" inkscape:connector-curvature="0" class="st3" d="M4.4,552.1h1.7v9.7h7.7v2.3H6.1v15.3c0,1.3,0.3,2.3,0.9,3
		c0.6,0.7,1.4,1.1,2.4,1.1c1.2,0,2.1-0.5,3-1.6c0.8-1.1,1.3-2.8,1.4-5.3h1.7c-0.1,3.2-0.8,5.5-2.2,7.1s-3.1,2.3-5.2,2.3
		c-2,0-3.5-0.5-4.6-1.6c-1.1-1.1-1.7-2.5-1.7-4.2v-16h-4.2v-1.8C-0.4,562,1,561.2,2,560C3.5,558.1,4.3,555.5,4.4,552.1z"/>
	<path id="path3405" inkscape:connector-curvature="0" class="st3" d="M18,561.8l9.5-0.3V582c0,0.6,0.1,1,0.4,1.2
		c0.4,0.3,0.9,0.5,1.5,0.5H32v1.9H18.5v-1.9H21c0.7,0,1.3-0.2,1.6-0.5c0.3-0.4,0.5-0.9,0.5-1.6v-15c0-1-0.3-1.7-0.8-2.2
		c-0.5-0.5-1.4-0.7-2.4-0.7h-2L18,561.8L18,561.8z M24.6,547.5c0.8,0,1.4,0.3,2,0.9c0.6,0.6,0.9,1.3,0.9,2c0,0.8-0.3,1.4-0.8,2
		c-0.6,0.6-1.2,0.8-2,0.8s-1.5-0.3-2-0.9c-0.6-0.6-0.9-1.2-0.9-2c0-0.8,0.3-1.4,0.9-2C23.2,547.8,23.8,547.5,24.6,547.5z"/>
	<path id="path3407" inkscape:connector-curvature="0" class="st3" d="M46.1,561.1c3.2,0,5.9,1.2,8.1,3.5c2.2,2.3,3.3,5.4,3.3,9.2
		c0,2.6-0.5,4.8-1.5,6.7c-1,1.8-2.4,3.3-4.2,4.4c-1.8,1.1-3.8,1.6-5.8,1.6c-3.1,0-5.7-1.2-7.9-3.5s-3.2-5.4-3.2-9.1
		c0-3.8,1.1-6.8,3.2-9.1C40.3,562.2,42.9,561.1,46.1,561.1L46.1,561.1z M46.1,562.9c-1.9,0-3.5,0.9-4.7,2.6
		c-1.2,1.7-1.8,4.4-1.8,8.2c0,3.8,0.6,6.6,1.8,8.3c1.2,1.8,2.8,2.6,4.7,2.6c2,0,3.6-0.9,4.8-2.6c1.2-1.7,1.8-4.6,1.8-8.6
		c0-3.7-0.6-6.4-1.8-8C49.7,563.7,48.1,562.9,46.1,562.9z"/>
	<path id="path3409" inkscape:connector-curvature="0" class="st3" d="M60.9,561.8l7.9-0.5c0.3,1.5,0.6,3.2,0.7,5.2
		c1.1-1.7,2.3-3,3.8-3.9c1.5-0.9,3.1-1.3,4.9-1.3c1.6,0,2.9,0.3,4,0.9c1.1,0.6,1.9,1.6,2.6,2.9c0.6,1.3,1,2.8,1,4.5v11.6
		c0,0.9,0.2,1.5,0.6,1.8c0.4,0.4,1,0.5,2,0.5H90v1.9H77.4v-1.9h1.2c1.1,0,1.9-0.2,2.3-0.5c0.4-0.4,0.7-0.9,0.7-1.6v-10.2
		c0-2.2-0.3-3.9-1-4.9c-1-1.5-2.4-2.3-4.3-2.3c-1.9,0-3.5,0.8-4.8,2.3c-1.3,1.5-1.9,3.6-1.9,6v8.8c0,0.9,0.2,1.5,0.6,1.8
		c0.4,0.4,1.1,0.5,2,0.5h1.7v1.9H61.2v-1.9h1.7c0.8,0,1.5-0.2,1.9-0.5c0.4-0.3,0.6-0.8,0.6-1.3v-15.4c0-1-0.3-1.8-0.8-2.3
		s-1.3-0.8-2.4-0.8h-1.2L60.9,561.8L60.9,561.8z"/>
	<path id="path3411" inkscape:connector-curvature="0" class="st3" d="M109,562.5h2.3v23.1H109V562.5z"/>
	<path id="path3413" inkscape:connector-curvature="0" class="st3" d="M118.2,585.7v-23.1h0.5l15.4,17.7v-17.7h2.3v23.1h-0.5
		l-15.3-17.5v17.5H118.2z"/>
	<path id="path3415" inkscape:connector-curvature="0" class="st3" d="M188.4,552.6l15.4,33h-3.6l-5.2-10.9h-14.2l-5.1,10.9H172
		l15.6-33H188.4z M188,559.7l-5.7,12h11.3C193.6,571.6,188,559.7,188,559.7z"/>
	<path id="path3417" inkscape:connector-curvature="0" class="st3" d="M242,558.8l-2.6,2c-1.4-1.9-3.2-3.3-5.2-4.3
		c-2-1-4.2-1.4-6.6-1.4c-2.6,0-5.1,0.6-7.3,1.9c-2.2,1.3-4,3-5.2,5.1c-1.2,2.1-1.9,4.5-1.9,7.2c0,4,1.4,7.4,4.1,10.1
		c2.8,2.7,6.2,4,10.5,4c4.6,0,8.5-1.8,11.6-5.4l2.6,2c-1.6,2.1-3.7,3.7-6.2,4.9c-2.5,1.1-5.2,1.7-8.3,1.7c-5.8,0-10.3-1.9-13.7-5.8
		c-2.8-3.2-4.2-7.2-4.2-11.8c0-4.8,1.7-8.9,5.1-12.2c3.4-3.3,7.6-5,12.7-5c3.1,0,5.9,0.6,8.4,1.8C238.4,554.9,240.4,556.6,242,558.8
		z"/>
	<path id="path3419" inkscape:connector-curvature="0" class="st3" d="M247.6,555.9v-3.2h18.1v3.2h-7.4v29.8H255v-29.8H247.6z"/>
	<path id="path3421" inkscape:connector-curvature="0" class="st3" d="M272.3,552.6h3.3v33h-3.3V552.6z"/>
	<path id="path3423" inkscape:connector-curvature="0" class="st3" d="M301.2,551.8c5,0,9.2,1.7,12.6,5c3.4,3.3,5.1,7.4,5.1,12.3
		c0,4.8-1.7,8.9-5,12.3c-3.4,3.4-7.5,5.1-12.3,5.1c-4.9,0-9-1.7-12.4-5c-3.4-3.4-5.1-7.4-5.1-12.2c0-3.2,0.8-6.1,2.3-8.8
		c1.5-2.7,3.6-4.8,6.3-6.4C295.3,552.6,298.1,551.8,301.2,551.8z M301.4,555c-2.4,0-4.8,0.6-7,1.9c-2.2,1.3-3.9,3-5.1,5.1
		c-1.2,2.2-1.8,4.6-1.8,7.2c0,3.9,1.4,7.2,4.1,9.9c2.7,2.7,6,4.1,9.8,4.1c2.6,0,4.9-0.6,7.1-1.9c2.2-1.2,3.9-2.9,5.1-5.1
		c1.2-2.2,1.8-4.6,1.8-7.2c0-2.6-0.6-5-1.8-7.1c-1.2-2.1-2.9-3.8-5.2-5.1C306.2,555.6,303.9,555,301.4,555z"/>
	<path id="path3425" inkscape:connector-curvature="0" class="st3" d="M327.8,585.7v-33h0.7l22,25.3v-25.3h3.3v33H353l-21.8-25v25
		H327.8z"/>
</g>
</svg>
