<?xml version="1.0" encoding="UTF-8" standalone="no"?>
<!-- Generator: Adobe Illustrator 14.0.0, SVG Export Plug-In  -->

<svg
   xmlns:dc="http://purl.org/dc/elements/1.1/"
   xmlns:cc="http://creativecommons.org/ns#"
   xmlns:rdf="http://www.w3.org/1999/02/22-rdf-syntax-ns#"
   xmlns:svg="http://www.w3.org/2000/svg"
   xmlns="http://www.w3.org/2000/svg"
   xmlns:sodipodi="http://sodipodi.sourceforge.net/DTD/sodipodi-0.dtd"
   xmlns:inkscape="http://www.inkscape.org/namespaces/inkscape"
   version="1.1"
   x="0px"
   y="0px"
   width="389px"
   height="52px"
   viewBox="0 0 389 52"
   enable-background="new 0 0 389 52"
   xml:space="preserve"
   id="svg3067"
   inkscape:version="0.48.3.1 r9886"
   sodipodi:docname="CNX_BioMaj_Art.svg"><metadata
   id="metadata3109"><rdf:RDF><cc:Work
       rdf:about=""><dc:format>image/svg+xml</dc:format><dc:type
         rdf:resource="http://purl.org/dc/dcmitype/StillImage" /></cc:Work></rdf:RDF></metadata><sodipodi:namedview
   pagecolor="#ffffff"
   bordercolor="#666666"
   borderopacity="1"
   objecttolerance="10"
   gridtolerance="10"
   guidetolerance="10"
   inkscape:pageopacity="0"
   inkscape:pageshadow="2"
   inkscape:window-width="1615"
   inkscape:window-height="1026"
   id="namedview3107"
   showgrid="false"
   inkscape:zoom="2.9048843"
   inkscape:cx="194.5"
   inkscape:cy="26"
   inkscape:window-x="1425"
   inkscape:window-y="24"
   inkscape:window-maximized="1"
   inkscape:current-layer="svg3067" />
<defs
   id="defs3069">
</defs>

















<g
   id="g3111"
   transform="matrix(0.91044035,0,0,0.91044035,0,5.999773)"><rect
     id="rect3071"
     height="45.812"
     width="388.22198"
     y="5.507"
     x="0"
     style="fill:#010101" /><rect
     id="rect3073"
     height="42"
     width="151.235"
     y="5.507"
     x="0"
     style="fill:#010101" /><rect
     id="rect3075"
     height="45.000999"
     width="44.452"
     transform="matrix(0.995,0.0997,-0.0997,0.995,3.0623,-7.0361)"
     y="4.6079998"
     x="49.674999"
     style="fill:#517542" /><rect
     id="rect3077"
     height="47.904999"
     width="41.897999"
     transform="matrix(0.9994,-0.0337,0.0337,0.9994,-0.7929,3.9004)"
     y="1.518"
     x="94.348"
     style="fill:#d66c29" /><rect
     id="rect3079"
     height="46"
     width="42"
     transform="matrix(0.9906,-0.137,0.137,0.9906,-3.2529,4.0381)"
     y="2.6589999"
     x="6.7199998"
     style="fill:#005273" /><path
     id="path3081"
     d="m 35.243,37.87 0.791,1.23 c -1.069,1.099 -2.256,1.648 -3.56,1.648 -0.996,0 -1.834,-0.271 -2.516,-0.813 -0.681,-0.542 -1.278,-1.494 -1.791,-2.856 -1.392,1.465 -2.615,2.443 -3.669,2.933 -1.055,0.491 -2.322,0.736 -3.801,0.736 -2.109,0 -3.713,-0.454 -4.812,-1.362 -1.099,-0.908 -1.648,-2.073 -1.648,-3.494 0,-2.139 1.256,-3.915 3.768,-5.329 2.512,-1.413 5.856,-2.354 10.031,-2.823 v -3.12 c 0,-1.113 -0.447,-2.065 -1.34,-2.856 -0.893,-0.791 -2.029,-1.187 -3.406,-1.187 -1.274,0 -2.373,0.264 -3.296,0.791 -0.659,0.396 -0.989,0.784 -0.989,1.165 0,0.22 0.176,0.564 0.527,1.033 0.425,0.586 0.637,1.106 0.637,1.56 0,0.659 -0.212,1.198 -0.637,1.615 -0.425,0.418 -0.981,0.626 -1.67,0.626 -0.732,0 -1.344,-0.249 -1.835,-0.747 -0.491,-0.498 -0.736,-1.135 -0.736,-1.912 0,-1.45 0.816,-2.776 2.45,-3.977 1.634,-1.201 3.776,-1.802 6.427,-1.802 2.446,0 4.314,0.527 5.603,1.582 1.289,1.069 1.934,2.366 1.934,3.889 v 11.25 c 0,0.996 0.161,1.729 0.483,2.197 0.322,0.483 0.74,0.725 1.252,0.725 0.572,10e-4 1.173,-0.233 1.803,-0.702 z m -7.207,-8.679 c -3.721,0.513 -6.357,1.348 -7.91,2.505 -1.157,0.879 -1.736,2.124 -1.736,3.735 0,1.128 0.3,2.011 0.901,2.647 0.601,0.638 1.384,0.956 2.351,0.956 1.729,0 3.226,-0.655 4.493,-1.967 1.267,-1.311 1.901,-2.955 1.901,-4.933 v -2.943 z"
     inkscape:connector-curvature="0"
     style="fill:#ffffff" /><path
     id="path3083"
     d="m 63.192,19.545 7.405,-0.374 v 8.328 c 0.791,-2.739 1.743,-4.812 2.856,-6.218 1.113,-1.406 2.49,-2.109 4.131,-2.109 1.113,0 2.003,0.341 2.669,1.021 0.667,0.682 1,1.593 1,2.736 0,0.923 -0.224,1.641 -0.67,2.153 -0.447,0.513 -1.007,0.769 -1.681,0.769 -0.659,0 -1.19,-0.22 -1.593,-0.659 -0.403,-0.439 -0.604,-1.033 -0.604,-1.78 0,-0.483 0.117,-0.938 0.352,-1.362 0.22,-0.381 0.33,-0.608 0.33,-0.681 0,-0.22 -0.139,-0.33 -0.417,-0.33 -0.601,0 -1.282,0.352 -2.043,1.055 -1.055,0.981 -1.868,2.329 -2.439,4.043 -0.879,2.666 -1.318,4.797 -1.318,6.394 v 4.417 c 0,0.498 0.176,0.879 0.527,1.143 0.351,0.264 0.952,0.396 1.802,0.396 h 2.615 v 1.648 h -12.79 v -1.648 h 2.043 c 0.688,0 1.208,-0.135 1.56,-0.407 0.352,-0.271 0.527,-0.597 0.527,-0.978 V 23.983 c 0,-0.996 -0.212,-1.725 -0.637,-2.186 -0.425,-0.462 -1.033,-0.692 -1.824,-0.692 h -1.802 v -1.56 z"
     inkscape:connector-curvature="0"
     style="fill:#ffffff" /><path
     id="path3085"
     d="m 113.927,11.151 h 1.472 v 8.394 h 6.658 v 2.021 h -6.658 v 13.206 c 0,1.143 0.271,2.018 0.813,2.626 0.542,0.608 1.23,0.912 2.065,0.912 0.996,0 1.846,-0.461 2.549,-1.384 0.703,-0.923 1.113,-2.446 1.23,-4.57 h 1.472 c -0.088,2.739 -0.71,4.772 -1.868,6.098 -1.158,1.326 -2.659,1.988 -4.504,1.988 -1.699,0 -3.029,-0.465 -3.988,-1.396 -0.96,-0.93 -1.439,-2.149 -1.439,-3.658 V 21.566 h -3.582 v -1.538 c 1.632,-0.278 2.875,-0.959 3.728,-2.043 1.265,-1.626 1.949,-3.904 2.052,-6.834 z"
     inkscape:connector-curvature="0"
     style="fill:#ffffff" /><path
     id="path3087"
     d="m 175.061,22.077 -1.784,1.369 c -0.984,-1.281 -2.167,-2.253 -3.545,-2.915 -1.379,-0.661 -2.895,-0.992 -4.545,-0.992 -1.805,0 -3.476,0.433 -5.014,1.299 -1.538,0.867 -2.73,2.03 -3.576,3.492 -0.846,1.461 -1.269,3.104 -1.269,4.93 0,2.758 0.946,5.06 2.838,6.906 1.892,1.846 4.278,2.769 7.16,2.769 3.168,0 5.819,-1.241 7.952,-3.722 l 1.784,1.354 c -1.128,1.436 -2.536,2.545 -4.222,3.33 -1.687,0.784 -3.571,1.177 -5.653,1.177 -3.958,0 -7.08,-1.318 -9.367,-3.953 -1.917,-2.225 -2.876,-4.912 -2.876,-8.06 0,-3.312 1.162,-6.099 3.484,-8.359 2.323,-2.261 5.232,-3.392 8.729,-3.392 2.112,0 4.019,0.418 5.722,1.253 1.7,0.835 3.094,2.007 4.182,3.514 z"
     inkscape:connector-curvature="0"
     style="fill:#ffffff" /><path
     id="path3089"
     d="m 191.947,17.309 c 3.427,0 6.295,1.144 8.604,3.43 2.309,2.287 3.463,5.102 3.463,8.444 0,3.312 -1.152,6.122 -3.456,8.429 -2.303,2.307 -5.112,3.461 -8.426,3.461 -3.355,0 -6.187,-1.148 -8.496,-3.445 -2.309,-2.297 -3.463,-5.076 -3.463,-8.337 0,-2.173 0.526,-4.188 1.578,-6.044 1.052,-1.856 2.485,-3.309 4.301,-4.36 1.816,-1.053 3.781,-1.578 5.895,-1.578 z m 0.1,2.199 c -1.674,0 -3.261,0.437 -4.76,1.309 -1.5,0.873 -2.67,2.047 -3.513,3.525 -0.842,1.478 -1.263,3.125 -1.263,4.941 0,2.688 0.932,4.959 2.796,6.812 1.864,1.853 4.111,2.778 6.74,2.778 1.756,0 3.381,-0.426 4.875,-1.277 1.495,-0.852 2.66,-2.017 3.497,-3.494 0.837,-1.478 1.256,-3.12 1.256,-4.926 0,-1.795 -0.418,-3.42 -1.256,-4.872 -0.837,-1.452 -2.016,-2.614 -3.535,-3.487 -1.52,-0.872 -3.132,-1.309 -4.837,-1.309 z"
     inkscape:connector-curvature="0"
     style="fill:#ffffff" /><path
     id="path3091"
     d="M 210.141,40.503 V 17.878 h 0.492 l 15.058,17.343 V 17.878 h 2.23 v 22.625 h -0.508 L 212.478,23.371 v 17.132 h -2.337 z"
     inkscape:connector-curvature="0"
     style="fill:#ffffff" /><path
     id="path3093"
     d="M 235.018,40.503 V 17.878 h 0.492 l 15.058,17.343 V 17.878 h 2.23 V 40.503 H 252.29 L 237.355,23.371 v 17.132 h -2.337 z"
     inkscape:connector-curvature="0"
     style="fill:#ffffff" /><path
     id="path3095"
     d="m 259.895,17.878 h 12.966 v 2.215 h -10.705 v 7.09 h 10.613 v 2.215 h -10.613 v 8.89 h 10.613 v 2.215 H 259.895 V 17.878 z"
     inkscape:connector-curvature="0"
     style="fill:#ffffff" /><path
     id="path3097"
     d="m 299.415,22.077 -1.784,1.369 c -0.984,-1.281 -2.167,-2.253 -3.545,-2.915 -1.379,-0.661 -2.895,-0.992 -4.545,-0.992 -1.805,0 -3.476,0.433 -5.014,1.299 -1.538,0.867 -2.73,2.03 -3.576,3.492 -0.846,1.461 -1.269,3.104 -1.269,4.93 0,2.758 0.946,5.06 2.838,6.906 1.892,1.846 4.278,2.769 7.16,2.769 3.168,0 5.819,-1.241 7.952,-3.722 l 1.784,1.354 c -1.129,1.436 -2.536,2.545 -4.222,3.33 -1.687,0.784 -3.571,1.177 -5.653,1.177 -3.958,0 -7.08,-1.318 -9.367,-3.953 -1.917,-2.225 -2.876,-4.912 -2.876,-8.06 0,-3.312 1.162,-6.099 3.484,-8.359 2.323,-2.261 5.232,-3.392 8.729,-3.392 2.112,0 4.019,0.418 5.722,1.253 1.7,0.835 3.094,2.007 4.182,3.514 z"
     inkscape:connector-curvature="0"
     style="fill:#ffffff" /><path
     id="path3099"
     d="m 303.282,20.093 v -2.215 h 12.396 v 2.215 h -5.045 v 20.41 h -2.307 v -20.41 h -5.044 z"
     inkscape:connector-curvature="0"
     style="fill:#ffffff" /><path
     id="path3101"
     d="m 320.19,17.878 h 2.262 V 40.503 H 320.19 V 17.878 z"
     inkscape:connector-curvature="0"
     style="fill:#ffffff" /><path
     id="path3103"
     d="m 339.984,17.309 c 3.427,0 6.295,1.144 8.604,3.43 2.309,2.287 3.463,5.102 3.463,8.444 0,3.312 -1.151,6.122 -3.456,8.429 -2.303,2.307 -5.111,3.461 -8.426,3.461 -3.355,0 -6.188,-1.148 -8.496,-3.445 -2.308,-2.297 -3.463,-5.076 -3.463,-8.337 0,-2.173 0.526,-4.188 1.578,-6.044 1.052,-1.856 2.485,-3.309 4.301,-4.36 1.816,-1.053 3.781,-1.578 5.895,-1.578 z m 0.101,2.199 c -1.675,0 -3.262,0.437 -4.761,1.309 -1.5,0.873 -2.671,2.047 -3.513,3.525 -0.842,1.478 -1.264,3.125 -1.264,4.941 0,2.688 0.933,4.959 2.797,6.812 1.863,1.853 4.11,2.778 6.74,2.778 1.756,0 3.381,-0.426 4.875,-1.277 1.494,-0.852 2.66,-2.017 3.497,-3.494 0.837,-1.478 1.256,-3.12 1.256,-4.926 0,-1.795 -0.419,-3.42 -1.256,-4.872 -0.837,-1.452 -2.016,-2.614 -3.535,-3.487 -1.52,-0.872 -3.131,-1.309 -4.836,-1.309 z"
     inkscape:connector-curvature="0"
     style="fill:#ffffff" /><path
     id="path3105"
     d="M 358.179,40.503 V 17.878 h 0.492 l 15.058,17.343 V 17.878 h 2.23 v 22.625 h -0.508 L 360.516,23.371 v 17.132 h -2.337 z"
     inkscape:connector-curvature="0"
     style="fill:#ffffff" /></g>
</svg>