<?xml version="1.0" encoding="utf-8"?>
<!-- Generator: Adobe Illustrator 14.0.0, SVG Export Plug-In  -->
<!DOCTYPE svg PUBLIC "-//W3C//DTD SVG 1.1//EN" "http://www.w3.org/Graphics/SVG/1.1/DTD/svg11.dtd" [
	<!ENTITY ns_flows "http://ns.adobe.com/Flows/1.0/">
]>
<svg version="1.1"
	 xmlns="http://www.w3.org/2000/svg" xmlns:xlink="http://www.w3.org/1999/xlink" xmlns:a="http://ns.adobe.com/AdobeSVGViewerExtensions/3.0/"
	 x="0px" y="0px" width="495px" height="65px" viewBox="0 -0.5 495 65" enable-background="new 0 -0.5 495 65" xml:space="preserve"
	>
<defs>
</defs>
<rect y="10.883" fill="#010101" width="189.288" height="53.457"/>
<path fill="#FFFFFF" d="M37.192,42.085l1.818,0.531c-1.455,5.352-4.661,8.026-9.621,8.026c-3.635,0-6.609-1.203-8.921-3.607
	c-2.312-2.405-3.468-5.603-3.468-9.593c0-4.624,1.268-8.208,3.803-10.753c2.535-2.545,5.519-3.817,8.949-3.817
	c2.573,0,4.698,0.709,6.376,2.125c1.678,1.417,2.517,2.992,2.517,4.726c0,1.044-0.312,1.907-0.937,2.587
	c-0.625,0.681-1.366,1.021-2.223,1.021c-0.839,0-1.548-0.288-2.125-0.864c-0.578-0.576-0.867-1.273-0.867-2.091
	c0-0.817,0.317-1.597,0.951-2.341c0.298-0.353,0.447-0.632,0.447-0.836c0-0.539-0.363-1.064-1.09-1.575
	c-0.727-0.511-1.716-0.766-2.964-0.766c-2.275,0-4,0.829-5.174,2.486c-1.678,2.402-2.517,5.568-2.517,9.497
	c0,3.743,0.746,6.578,2.237,8.506c1.492,1.927,3.393,2.891,5.705,2.891C33.277,48.237,35.645,46.187,37.192,42.085z"/>
<path fill="#FFFFFF" d="M70.276,46.979l1.007,1.566c-1.361,1.398-2.872,2.098-4.531,2.098c-1.268,0-2.335-0.346-3.202-1.035
	c-0.867-0.689-1.627-1.901-2.279-3.636c-1.771,1.865-3.328,3.109-4.67,3.733c-1.342,0.625-2.955,0.938-4.838,0.938
	c-2.685,0-4.726-0.578-6.125-1.734c-1.398-1.155-2.097-2.638-2.097-4.446c0-2.722,1.598-4.982,4.796-6.782
	c3.197-1.799,7.453-2.996,12.767-3.594v-3.971c0-1.417-0.569-2.629-1.706-3.635c-1.137-1.007-2.583-1.51-4.334-1.51
	c-1.622,0-3.021,0.335-4.195,1.007c-0.839,0.503-1.259,0.998-1.259,1.482c0,0.28,0.224,0.718,0.671,1.314
	c0.541,0.746,0.811,1.408,0.811,1.986c0,0.839-0.271,1.524-0.811,2.055c-0.541,0.531-1.25,0.797-2.125,0.797
	c-0.933,0-1.711-0.317-2.335-0.951c-0.625-0.633-0.937-1.444-0.937-2.433c0-1.846,1.039-3.533,3.118-5.062
	c2.079-1.529,4.805-2.293,8.18-2.293c3.113,0,5.49,0.671,7.131,2.014c1.64,1.361,2.461,3.011,2.461,4.95v14.318
	c0,1.269,0.205,2.2,0.615,2.797c0.41,0.615,0.941,0.923,1.594,0.923C68.71,47.874,69.474,47.576,70.276,46.979z M61.103,35.933
	c-4.736,0.652-8.092,1.715-10.068,3.188c-1.473,1.119-2.209,2.704-2.209,4.755c0,1.436,0.382,2.559,1.146,3.369
	c0.764,0.812,1.762,1.217,2.992,1.217c2.2,0,4.106-0.834,5.719-2.503c1.612-1.668,2.419-3.762,2.419-6.278V35.933z"/>
<path fill="#8190A7" d="M73.966,54.013c0,0-0.294-2.744,1.406-3.661c1.7-0.915,1.961-1.046,3.269-1.046c1.308,0,4.186,0,4.186,0
	s0.393-1.047,0.916-1.047c0.522,0-16.348-16.216-16.348-16.216s-0.262,0.784-1.439,0.784c-1.176,0-3.923-1.046-3.923-4.186
	c0-3.139,2.485-3.924,4.054-3.924c1.569,0,1.963,0.655,1.963,0.655l15.706-13.733c0,0-0.665-1.569-1.582-2.877
	c-0.915-1.309-1.439-2.224-0.261-3.008c1.178-0.785,1.843-2.224,1.843-2.224l-1.45-2.093L82.172,0h1.582l1.558,2.615l1.962-1.178
	c0,0,1.176-0.392,2.092,0.262c0.917,0.652,2.747,3.399,2.747,3.399l-2.485,2.486l0.523,1.177c0,0,2.354-1.702,4.055-1.702
	c1.7,0,5.493,0.786,8.762,3.271c3.27,2.486,4.447,4.184,4.447,4.184L87.797,28.641c0,0-2.224-1.309-3.075-4.708
	c-0.85-3.4-1.242-8.239-0.719-9.025c0.523-0.783-14.462,11.713-14.462,11.713s0.286,0.582-0.015,2.02
	c-0.302,1.438-0.564,2.093-0.564,2.093l17.395,16.348c0,0,1.569,0.786,2.092,1.439c0.524,0.654,1.439,1.044,1.439,1.044l4.969-0.261
	c0,0,1.701,0.393,2.617,1.308c0.916,0.916,1.047,3.4,1.047,3.4H73.966z"/>
<rect x="189.288" y="10.883" fill="#005273" width="304.828" height="53.457"/>
<path fill="#FFFFFF" d="M222.81,26.878l-2.271,1.742c-1.253-1.631-2.757-2.868-4.512-3.71c-1.755-0.842-3.684-1.263-5.785-1.263
	c-2.297,0-4.424,0.552-6.382,1.654c-1.958,1.103-3.475,2.584-4.552,4.444s-1.615,3.952-1.615,6.274c0,3.511,1.204,6.44,3.612,8.79
	c2.408,2.35,5.445,3.523,9.113,3.523c4.033,0,7.406-1.579,10.121-4.737l2.271,1.723c-1.436,1.827-3.227,3.24-5.374,4.238
	c-2.147,0.999-4.545,1.498-7.194,1.498c-5.038,0-9.012-1.677-11.922-5.031c-2.44-2.832-3.661-6.251-3.661-10.258
	c0-4.215,1.478-7.762,4.434-10.64c2.956-2.877,6.659-4.316,11.109-4.316c2.688,0,5.116,0.532,7.283,1.596
	C219.651,23.468,221.426,24.959,222.81,26.878z"/>
<path fill="#FFFFFF" d="M244.303,20.809c4.361,0,8.012,1.456,10.949,4.366c2.939,2.91,4.408,6.493,4.408,10.747
	c0,4.216-1.467,7.791-4.398,10.728s-6.506,4.405-10.724,4.405c-4.271,0-7.875-1.462-10.813-4.386
	c-2.938-2.923-4.408-6.46-4.408-10.61c0-2.766,0.669-5.331,2.008-7.693c1.339-2.362,3.164-4.212,5.475-5.55
	S241.612,20.809,244.303,20.809z M244.43,23.608c-2.131,0-4.151,0.555-6.059,1.666c-1.909,1.11-3.399,2.606-4.471,4.486
	c-1.072,1.881-1.608,3.977-1.608,6.289c0,3.423,1.187,6.312,3.559,8.67c2.373,2.357,5.232,3.536,8.579,3.536
	c2.235,0,4.304-0.542,6.205-1.626c1.902-1.084,3.387-2.566,4.451-4.447c1.066-1.881,1.6-3.971,1.6-6.27
	c0-2.286-0.533-4.353-1.6-6.201c-1.064-1.848-2.564-3.327-4.5-4.438C248.652,24.164,246.6,23.608,244.43,23.608z"/>
<path fill="#FFFFFF" d="M267.459,50.33V21.534h0.627l19.165,22.074V21.534h2.839V50.33h-0.646l-19.009-21.806V50.33H267.459z"/>
<path fill="#FFFFFF" d="M299.122,50.33V21.534h0.627l19.165,22.074V21.534h2.839V50.33h-0.646l-19.009-21.806V50.33H299.122z"/>
<path fill="#FFFFFF" d="M330.784,21.534h16.503v2.819h-13.625v9.024h13.508v2.819h-13.508v11.314h13.508v2.819h-16.386V21.534z"/>
<path fill="#FFFFFF" d="M381.083,26.878l-2.271,1.742c-1.253-1.631-2.757-2.868-4.513-3.71c-1.755-0.842-3.684-1.263-5.784-1.263
	c-2.298,0-4.425,0.552-6.382,1.654c-1.958,1.103-3.475,2.584-4.552,4.444c-1.076,1.86-1.615,3.952-1.615,6.274
	c0,3.511,1.204,6.44,3.612,8.79c2.407,2.35,5.445,3.523,9.112,3.523c4.033,0,7.406-1.579,10.121-4.737l2.271,1.723
	c-1.436,1.827-3.227,3.24-5.373,4.238c-2.147,0.999-4.545,1.498-7.194,1.498c-5.038,0-9.012-1.677-11.922-5.031
	c-2.44-2.832-3.661-6.251-3.661-10.258c0-4.215,1.479-7.762,4.435-10.64c2.955-2.877,6.658-4.316,11.109-4.316
	c2.688,0,5.115,0.532,7.282,1.596C377.925,23.468,379.7,24.959,381.083,26.878z"/>
<path fill="#FFFFFF" d="M386.006,24.353v-2.819h15.778v2.819h-6.421V50.33h-2.937V24.353H386.006z"/>
<path fill="#FFFFFF" d="M407.527,21.534h2.878V50.33h-2.878V21.534z"/>
<path fill="#FFFFFF" d="M432.72,20.809c4.362,0,8.012,1.456,10.95,4.366s4.408,6.493,4.408,10.747c0,4.216-1.467,7.791-4.398,10.728
	s-6.507,4.405-10.725,4.405c-4.271,0-7.875-1.462-10.813-4.386c-2.938-2.923-4.407-6.46-4.407-10.61c0-2.766,0.67-5.331,2.008-7.693
	c1.339-2.362,3.164-4.212,5.476-5.55S430.029,20.809,432.72,20.809z M432.848,23.608c-2.131,0-4.15,0.555-6.059,1.666
	c-1.909,1.11-3.399,2.606-4.471,4.486c-1.072,1.881-1.608,3.977-1.608,6.289c0,3.423,1.187,6.312,3.559,8.67
	c2.373,2.357,5.232,3.536,8.579,3.536c2.234,0,4.304-0.542,6.205-1.626c1.902-1.084,3.386-2.566,4.451-4.447s1.599-3.971,1.599-6.27
	c0-2.286-0.533-4.353-1.599-6.201s-2.565-3.327-4.5-4.438S435.018,23.608,432.848,23.608z"/>
<path fill="#FFFFFF" d="M455.876,50.33V21.534h0.627l19.165,22.074V21.534h2.839V50.33h-0.646l-19.009-21.806V50.33H455.876z"/>
<path fill="#FFFFFF" d="M117.938,36.939H99.172c0.093,3.989,0.839,6.805,2.237,8.445c1.604,1.846,3.645,2.769,6.125,2.769
	c3.654,0,6.59-2.078,8.809-6.236l1.818,0.783c-2.723,5.295-6.656,7.942-11.802,7.942c-3.505,0-6.456-1.268-8.851-3.804
	c-2.396-2.535-3.594-5.779-3.594-9.732c0-4.25,1.179-7.686,3.538-10.305c2.358-2.619,5.262-3.929,8.711-3.929
	c2.535,0,4.726,0.653,6.572,1.958c1.846,1.305,3.234,3.179,4.167,5.622C117.555,32.167,117.9,34.329,117.938,36.939z M99.172,34.953
	h11.354c0.671,0,1.193-0.228,1.566-0.685s0.56-1.235,0.56-2.335c0-2.051-0.639-3.794-1.916-5.229s-2.782-2.153-4.516-2.153
	c-1.939,0-3.584,0.867-4.936,2.601C99.932,28.885,99.228,31.486,99.172,34.953z"/>
<path fill="#FFFFFF" d="M146.575,36.939h-18.766c0.093,3.989,0.839,6.805,2.237,8.445c1.604,1.846,3.645,2.769,6.125,2.769
	c3.654,0,6.59-2.078,8.809-6.236l1.818,0.783c-2.723,5.295-6.656,7.942-11.802,7.942c-3.505,0-6.456-1.268-8.851-3.804
	c-2.396-2.535-3.594-5.779-3.594-9.732c0-4.25,1.179-7.686,3.538-10.305c2.358-2.619,5.262-3.929,8.711-3.929
	c2.535,0,4.726,0.653,6.572,1.958c1.846,1.305,3.234,3.179,4.167,5.622C146.192,32.167,146.537,34.329,146.575,36.939z
	 M127.809,34.953h11.354c0.671,0,1.193-0.228,1.566-0.685s0.56-1.235,0.56-2.335c0-2.051-0.639-3.794-1.916-5.229
	s-2.782-2.153-4.516-2.153c-1.939,0-3.584,0.867-4.936,2.601C128.569,28.885,127.865,31.486,127.809,34.953z"/>
<path fill="#FFFFFF" d="M150.21,23.655l9.425-0.476v10.599c1.007-3.486,2.218-6.125,3.635-7.914c1.417-1.79,3.169-2.685,5.258-2.685
	c1.417,0,2.549,0.434,3.398,1.3c0.848,0.867,1.272,2.028,1.272,3.482c0,1.175-0.285,2.088-0.853,2.741
	c-0.569,0.653-1.282,0.979-2.14,0.979c-0.839,0-1.515-0.28-2.027-0.839c-0.513-0.559-0.769-1.314-0.769-2.265
	c0-0.615,0.149-1.193,0.447-1.734c0.28-0.484,0.42-0.773,0.42-0.867c0-0.28-0.178-0.419-0.532-0.419
	c-0.765,0-1.631,0.447-2.601,1.342c-1.342,1.249-2.377,2.964-3.104,5.146c-1.119,3.394-1.678,6.106-1.678,8.139v5.621
	c0,0.634,0.224,1.118,0.671,1.454c0.448,0.335,1.212,0.503,2.293,0.503h3.328v2.098h-16.276v-2.098h2.601
	c0.876,0,1.539-0.172,1.986-0.518c0.447-0.345,0.671-0.759,0.671-1.244V29.304c0-1.268-0.271-2.195-0.811-2.783
	c-0.541-0.587-1.314-0.881-2.321-0.881h-2.293V23.655z"/>
</svg>
