<?xml version="1.0" encoding="utf-8"?>
<!-- Generator: Adobe Illustrator 14.0.0, SVG Export Plug-In  -->
<!DOCTYPE svg PUBLIC "-//W3C//DTD SVG 1.1//EN" "http://www.w3.org/Graphics/SVG/1.1/DTD/svg11.dtd" [
	<!ENTITY ns_flows "http://ns.adobe.com/Flows/1.0/">
]>
<svg version="1.1"
	 xmlns="http://www.w3.org/2000/svg" xmlns:xlink="http://www.w3.org/1999/xlink" xmlns:a="http://ns.adobe.com/AdobeSVGViewerExtensions/3.0/"
	 x="0px" y="0px" width="495px" height="63px" viewBox="-0.587 -0.5 495 63" enable-background="new -0.587 -0.5 495 63"
	 xml:space="preserve">
<defs>
</defs>
<rect y="8.363" fill="#010101" width="207.394" height="53.63"/>
<path fill="#FFFFFF" d="M25.712,42.226l1.824,0.533c-1.459,5.368-4.676,8.052-9.651,8.052c-3.647,0-6.631-1.206-8.95-3.619
	s-3.479-5.62-3.479-9.623c0-4.639,1.272-8.235,3.816-10.788c2.543-2.553,5.536-3.83,8.978-3.83c2.581,0,4.713,0.711,6.397,2.132
	c1.683,1.422,2.525,3.002,2.525,4.742c0,1.048-0.313,1.913-0.94,2.595c-0.627,0.683-1.37,1.024-2.23,1.024
	c-0.842,0-1.553-0.289-2.132-0.866c-0.58-0.578-0.87-1.277-0.87-2.098c0-0.82,0.318-1.603,0.954-2.349
	c0.299-0.354,0.449-0.634,0.449-0.839c0-0.541-0.365-1.067-1.094-1.58s-1.721-0.769-2.974-0.769c-2.282,0-4.012,0.832-5.19,2.494
	c-1.683,2.41-2.525,5.586-2.525,9.528c0,3.755,0.748,6.6,2.245,8.533c1.496,1.934,3.404,2.9,5.723,2.9
	C21.785,48.398,24.16,46.341,25.712,42.226z"/>
<path fill="#FFFFFF" d="M58.903,47.136l1.01,1.571c-1.366,1.402-2.881,2.104-4.545,2.104c-1.272,0-2.343-0.346-3.212-1.038
	c-0.87-0.691-1.632-1.907-2.287-3.647c-1.777,1.871-3.339,3.119-4.686,3.746c-1.347,0.626-2.965,0.939-4.854,0.939
	c-2.693,0-4.742-0.579-6.145-1.739c-1.403-1.159-2.104-2.646-2.104-4.461c0-2.73,1.604-4.998,4.812-6.804
	c3.208-1.805,7.477-3.006,12.808-3.605v-3.984c0-1.421-0.571-2.638-1.711-3.647c-1.141-1.01-2.591-1.515-4.349-1.515
	c-1.627,0-3.03,0.337-4.208,1.01c-0.842,0.505-1.263,1-1.263,1.487c0,0.281,0.225,0.72,0.673,1.319
	c0.542,0.748,0.814,1.412,0.814,1.992c0,0.842-0.271,1.529-0.814,2.062c-0.542,0.532-1.253,0.8-2.132,0.8
	c-0.936,0-1.716-0.318-2.343-0.954s-0.939-1.45-0.939-2.441c0-1.852,1.042-3.544,3.128-5.079c2.085-1.533,4.821-2.301,8.207-2.301
	c3.124,0,5.508,0.674,7.155,2.021c1.646,1.365,2.469,3.021,2.469,4.966v14.365c0,1.272,0.206,2.207,0.617,2.806
	c0.412,0.617,0.944,0.926,1.6,0.926C57.333,48.033,58.099,47.734,58.903,47.136z M49.701,36.053
	c-4.751,0.655-8.118,1.722-10.1,3.199c-1.478,1.122-2.217,2.712-2.217,4.77c0,1.44,0.383,2.567,1.15,3.381s1.768,1.22,3.002,1.22
	c2.207,0,4.119-0.836,5.737-2.511c1.618-1.674,2.427-3.773,2.427-6.299V36.053z"/>
<path fill="#8190A7" d="M62.703,54.189c0,0-0.295-2.753,1.411-3.673c1.706-0.918,1.968-1.049,3.28-1.049c1.312,0,4.199,0,4.199,0
	s0.394-1.052,0.918-1.052c0.524,0-16.401-16.269-16.401-16.269s-0.263,0.788-1.444,0.788c-1.18,0-3.936-1.05-3.936-4.2
	s2.493-3.937,4.067-3.937c1.575,0,1.969,0.657,1.969,0.657l15.757-13.778c0,0-0.667-1.575-1.587-2.887
	c-0.917-1.312-1.443-2.229-0.262-3.018c1.182-0.787,1.849-2.231,1.849-2.231l-1.455-2.099L70.936,0h1.587l1.562,2.625l1.969-1.181
	c0,0,1.18-0.394,2.099,0.262c0.92,0.656,2.756,3.412,2.756,3.412L78.416,7.61l0.525,1.181c0,0,2.362-1.707,4.068-1.707
	c1.705,0,5.511,0.788,8.791,3.281c3.281,2.495,4.461,4.2,4.461,4.2L76.579,28.735c0,0-2.23-1.313-3.084-4.724
	c-0.853-3.412-1.246-8.268-0.722-9.053C73.298,14.17,58.264,26.71,58.264,26.71s0.287,0.581-0.015,2.025
	c-0.303,1.444-0.565,2.1-0.565,2.1l17.451,16.401c0,0,1.574,0.788,2.099,1.444c0.526,0.656,1.443,1.048,1.443,1.048l4.986-0.263
	c0,0,1.706,0.395,2.625,1.312c0.918,0.919,1.05,3.411,1.05,3.411H62.703z"/>
<rect x="193.113" y="8.363" fill="#005273" width="302.609" height="53.63"/>
<path fill="#FFFFFF" d="M203.511,25.955h2.566v25.68h-2.566V25.955z"/>
<path fill="#FFFFFF" d="M215.553,51.635v-25.68h0.559l17.091,19.685V25.955h2.531v25.68h-0.576l-16.951-19.446v19.446H215.553z"/>
<path fill="#FFFFFF" d="M281.134,14.949l17.108,36.686h-3.959l-5.771-12.07h-15.804l-5.715,12.07h-4.091l17.333-36.686H281.134z
	 M280.671,22.743l-6.286,13.279h12.542L280.671,22.743z"/>
<path fill="#FFFFFF" d="M343.203,21.757l-2.893,2.22c-1.597-2.079-3.513-3.654-5.749-4.726c-2.236-1.073-4.692-1.609-7.369-1.609
	c-2.927,0-5.637,0.703-8.131,2.107c-2.493,1.405-4.426,3.292-5.798,5.661c-1.372,2.37-2.058,5.034-2.058,7.994
	c0,4.473,1.534,8.205,4.602,11.197c3.067,2.993,6.937,4.489,11.609,4.489c5.137,0,9.435-2.012,12.894-6.035l2.893,2.194
	c-1.829,2.328-4.111,4.128-6.846,5.399c-2.735,1.272-5.79,1.908-9.165,1.908c-6.418,0-11.48-2.137-15.188-6.409
	c-3.109-3.608-4.663-7.964-4.663-13.068c0-5.371,1.883-9.889,5.648-13.555c3.766-3.666,8.483-5.499,14.153-5.499
	c3.425,0,6.517,0.678,9.277,2.033C339.18,17.414,341.44,19.313,343.203,21.757z"/>
<path fill="#FFFFFF" d="M352.027,18.54v-3.591h20.101v3.591h-8.18v33.095h-3.741V18.54H352.027z"/>
<path fill="#FFFFFF" d="M381.999,14.949h3.666v36.686h-3.666V14.949z"/>
<path fill="#FFFFFF" d="M416.647,14.026c5.556,0,10.206,1.854,13.949,5.562c3.743,3.708,5.615,8.272,5.615,13.692
	c0,5.37-1.868,9.926-5.603,13.667c-3.735,3.741-8.289,5.611-13.663,5.611c-5.44,0-10.032-1.862-13.775-5.587
	c-3.743-3.724-5.615-8.229-5.615-13.518c0-3.524,0.853-6.791,2.559-9.8c1.705-3.009,4.029-5.366,6.975-7.071
	C410.033,14.878,413.22,14.026,416.647,14.026z M416.81,17.592c-2.715,0-5.288,0.708-7.719,2.122
	c-2.432,1.415-4.33,3.319-5.696,5.715c-1.365,2.396-2.048,5.066-2.048,8.012c0,4.359,1.511,8.041,4.533,11.045
	c3.022,3.003,6.666,4.505,10.93,4.505c2.847,0,5.482-0.69,7.905-2.071s4.312-3.27,5.67-5.666c1.357-2.396,2.036-5.059,2.036-7.987
	c0-2.912-0.679-5.545-2.036-7.899s-3.268-4.238-5.732-5.653S419.573,17.592,416.81,17.592z"/>
<path fill="#FFFFFF" d="M448.702,51.635V14.949h0.798l24.416,28.122V14.949h3.616v36.686h-0.823l-24.216-27.779v27.779H448.702z"/>
<path fill="#FFFFFF" d="M106.719,37.063H87.894c0.093,4.003,0.841,6.827,2.244,8.473c1.608,1.852,3.657,2.777,6.145,2.777
	c3.666,0,6.612-2.085,8.838-6.256l1.824,0.785c-2.731,5.312-6.678,7.968-11.84,7.968c-3.517,0-6.477-1.271-8.88-3.815
	c-2.404-2.543-3.605-5.798-3.605-9.764c0-4.265,1.183-7.711,3.549-10.339c2.366-2.628,5.279-3.942,8.74-3.942
	c2.543,0,4.741,0.655,6.593,1.964c1.852,1.31,3.245,3.189,4.18,5.639C106.336,32.275,106.682,34.444,106.719,37.063z M87.894,35.071
	h11.391c0.673,0,1.197-0.229,1.571-0.688c0.374-0.458,0.561-1.239,0.561-2.343c0-2.058-0.641-3.806-1.922-5.247
	s-2.792-2.161-4.531-2.161c-1.945,0-3.596,0.87-4.952,2.609C88.655,28.983,87.949,31.592,87.894,35.071z"/>
<path fill="#FFFFFF" d="M135.449,37.063h-18.826c0.093,4.003,0.841,6.827,2.244,8.473c1.608,1.852,3.657,2.777,6.145,2.777
	c3.666,0,6.612-2.085,8.838-6.256l1.824,0.785c-2.731,5.312-6.678,7.968-11.84,7.968c-3.517,0-6.477-1.271-8.88-3.815
	c-2.404-2.543-3.605-5.798-3.605-9.764c0-4.265,1.183-7.711,3.549-10.339c2.366-2.628,5.279-3.942,8.74-3.942
	c2.543,0,4.741,0.655,6.593,1.964c1.852,1.31,3.245,3.189,4.18,5.639C135.066,32.275,135.412,34.444,135.449,37.063z
	 M116.624,35.071h11.391c0.673,0,1.197-0.229,1.571-0.688c0.374-0.458,0.561-1.239,0.561-2.343c0-2.058-0.641-3.806-1.922-5.247
	s-2.792-2.161-4.531-2.161c-1.945,0-3.596,0.87-4.952,2.609C117.385,28.983,116.679,31.592,116.624,35.071z"/>
<path fill="#FFFFFF" d="M139.097,23.736l9.455-0.477v10.633c1.01-3.498,2.226-6.145,3.647-7.94c1.421-1.796,3.18-2.693,5.274-2.693
	c1.421,0,2.558,0.435,3.409,1.304c0.851,0.87,1.276,2.034,1.276,3.493c0,1.179-0.285,2.095-0.855,2.75
	c-0.571,0.655-1.287,0.982-2.146,0.982c-0.842,0-1.52-0.281-2.034-0.842c-0.515-0.561-0.771-1.319-0.771-2.273
	c0-0.617,0.149-1.197,0.449-1.739c0.281-0.486,0.421-0.776,0.421-0.87c0-0.281-0.178-0.421-0.533-0.421
	c-0.767,0-1.637,0.449-2.609,1.347c-1.347,1.253-2.385,2.974-3.114,5.163c-1.123,3.404-1.684,6.126-1.684,8.164v5.64
	c0,0.636,0.225,1.122,0.673,1.459s1.216,0.505,2.301,0.505h3.338v2.104h-16.329v-2.104h2.609c0.879,0,1.543-0.173,1.992-0.519
	c0.449-0.346,0.673-0.762,0.673-1.249v-16.75c0-1.271-0.271-2.202-0.813-2.792c-0.543-0.589-1.319-0.884-2.329-0.884h-2.301V23.736z
	"/>
<path fill="#FFFFFF" d="M168.191,40.121c1.16,3.236,2.492,5.477,3.998,6.72c1.505,1.244,3.362,1.866,5.569,1.866
	c2.039,0,3.605-0.444,4.699-1.333s1.642-2.016,1.642-3.381c0-0.785-0.202-1.473-0.604-2.062c-0.403-0.589-0.961-1.028-1.673-1.318
	c-0.712-0.29-2.558-0.716-5.538-1.276c-2.849-0.562-4.834-1.15-5.958-1.768s-1.999-1.469-2.625-2.553
	c-0.627-1.086-0.941-2.264-0.941-3.536c0-1.926,0.646-3.675,1.939-5.247c1.667-2.001,3.999-3.002,6.997-3.002
	c2.285,0,4.402,0.72,6.35,2.161l1.855-1.964h1.152l0.73,9.371h-1.88c-0.825-2.656-1.939-4.568-3.345-5.738
	c-1.405-1.168-3.139-1.753-5.201-1.753c-1.78,0-3.177,0.435-4.188,1.305c-1.012,0.87-1.518,1.932-1.518,3.185
	c0,1.104,0.468,2.02,1.405,2.75c0.918,0.749,2.717,1.338,5.396,1.77c3.11,0.526,5.134,0.967,6.071,1.324
	c1.535,0.561,2.724,1.426,3.567,2.594c0.842,1.169,1.264,2.594,1.264,4.276c0,2.318-0.913,4.281-2.739,5.889
	c-1.827,1.608-4.144,2.411-6.953,2.411c-2.604,0-5.02-0.859-7.249-2.581l-2.051,2.357h-1.489l-0.562-10.466H168.191z"/>
</svg>
