<?xml version="1.0" encoding="utf-8"?>
<!-- Generator: Adobe Illustrator 14.0.0, SVG Export Plug-In  -->
<!DOCTYPE svg PUBLIC "-//W3C//DTD SVG 1.1//EN" "http://www.w3.org/Graphics/SVG/1.1/DTD/svg11.dtd" [
	<!ENTITY ns_flows "http://ns.adobe.com/Flows/1.0/">
]>
<svg version="1.1"
	 xmlns="http://www.w3.org/2000/svg" xmlns:xlink="http://www.w3.org/1999/xlink" xmlns:a="http://ns.adobe.com/AdobeSVGViewerExtensions/3.0/"
	 x="0px" y="0px" width="495px" height="66px" viewBox="0 -0.5 495 66" enable-background="new 0 -0.5 495 66" xml:space="preserve"
	>
<defs>
</defs>
<rect y="13.531" fill="#010101" width="220.956" height="51.787"/>
<rect x="220.956" y="13.531" fill="#517542" width="275.044" height="51.787"/>
<path fill="#75B152" d="M36.217,59.103c0,0,6.88-22.582-3.045-59.103C51.077,32.411,39.719,52.16,36.217,59.103z"/>
<path fill="#517542" d="M45.118,37.368c0,0,0.771-28.085,13.465-32.319C51.272,16.977,49.35,23.518,45.118,37.368z"/>
<path fill="#FFFFFF" d="M31.033,44.322H13.92c0.084,3.639,0.765,6.206,2.04,7.701c1.462,1.684,3.324,2.525,5.585,2.525
	c3.332,0,6.01-1.896,8.034-5.688l1.658,0.714c-2.483,4.829-6.07,7.243-10.763,7.243c-3.197,0-5.887-1.156-8.072-3.468
	c-2.185-2.312-3.277-5.271-3.277-8.876c0-3.876,1.075-7.009,3.226-9.397s4.799-3.583,7.945-3.583c2.312,0,4.31,0.595,5.993,1.785
	c1.683,1.19,2.95,2.899,3.8,5.127C30.685,39.97,30.999,41.941,31.033,44.322z M13.92,42.511h10.354c0.612,0,1.088-0.208,1.428-0.625
	c0.34-0.416,0.51-1.126,0.51-2.129c0-1.87-0.583-3.46-1.747-4.77c-1.165-1.309-2.538-1.964-4.119-1.964
	c-1.769,0-3.269,0.791-4.501,2.372C14.613,36.977,13.971,39.349,13.92,42.511z"/>
<path fill="#FFFFFF" d="M60.755,31.493c3.213,0,5.913,1.161,8.097,3.481c2.185,2.321,3.277,5.377,3.277,9.169
	c0,2.618-0.489,4.85-1.466,6.694c-0.978,1.845-2.372,3.303-4.183,4.374c-1.811,1.071-3.762,1.606-5.853,1.606
	c-3.095,0-5.717-1.173-7.868-3.52c-2.151-2.346-3.226-5.39-3.226-9.13c0-3.758,1.08-6.81,3.239-9.156
	C54.932,32.666,57.593,31.493,60.755,31.493z M60.755,33.304c-1.904,0-3.469,0.862-4.693,2.588c-1.224,1.727-1.836,4.45-1.836,8.174
	c0,3.792,0.607,6.563,1.823,8.314c1.215,1.752,2.784,2.627,4.706,2.627c1.989,0,3.6-0.875,4.833-2.627
	c1.232-1.751,1.849-4.616,1.849-8.595c0-3.689-0.608-6.358-1.823-8.008C64.398,34.128,62.778,33.304,60.755,33.304z"/>
<path fill="#FFFFFF" d="M84.626,17.95v34.634c0,0.477,0.145,0.842,0.434,1.097c0.425,0.34,0.944,0.51,1.556,0.51h2.525v1.913H75.599
	V54.19h2.397c0.782,0,1.365-0.187,1.747-0.561c0.383-0.374,0.574-0.901,0.574-1.581V22.974c0-0.85-0.229-1.47-0.688-1.862
	c-0.629-0.544-1.403-0.816-2.321-0.816h-2.142v-1.913L84.626,17.95z"/>
<path fill="#FFFFFF" d="M100.235,31.773V47.61c0,1.938,0.488,3.436,1.463,4.489c0.975,1.055,2.235,1.581,3.779,1.581
	c1.9,0,3.516-0.77,4.848-2.308c1.332-1.539,1.998-3.465,1.998-5.777v-8.951c0-0.816-0.293-1.449-0.88-1.9
	c-0.587-0.45-1.713-0.701-3.379-0.752v-1.785l8.391-0.434v19.613c0,0.901,0.255,1.594,0.765,2.078s1.224,0.727,2.142,0.727h1.505
	v1.709l-8.034,0.179l-0.51-4.692c-1.426,1.683-2.861,2.949-4.304,3.8c-1.443,0.851-2.902,1.275-4.379,1.275
	c-2.156,0-3.964-0.723-5.424-2.168c-1.477-1.429-2.215-3.852-2.215-7.269v-10.38c0-0.918-0.366-1.615-1.097-2.092
	c-0.51-0.34-1.556-0.526-3.137-0.561v-1.785L100.235,31.773z"/>
<path fill="#FFFFFF" d="M130.253,22.464h1.708v9.743h7.728v2.346h-7.728v15.328c0,1.326,0.314,2.342,0.944,3.048
	c0.629,0.705,1.428,1.058,2.397,1.058c1.156,0,2.143-0.535,2.958-1.606c0.816-1.071,1.292-2.839,1.428-5.305h1.709
	c-0.102,3.18-0.825,5.539-2.168,7.077c-1.343,1.539-3.086,2.309-5.228,2.309c-1.973,0-3.516-0.54-4.629-1.62
	c-1.114-1.079-1.67-2.495-1.67-4.246V34.553h-4.157v-1.785c1.895-0.322,3.336-1.113,4.326-2.372
	C129.339,28.509,130.133,25.865,130.253,22.464z"/>
<path fill="#FFFFFF" d="M143.82,32.207l9.513-0.281v20.556c0,0.561,0.136,0.96,0.408,1.198c0.391,0.34,0.884,0.51,1.479,0.51h2.703
	v1.913h-13.593V54.19h2.525c0.748,0,1.296-0.183,1.645-0.548c0.348-0.365,0.523-0.896,0.523-1.594V37.001
	c0-0.952-0.272-1.67-0.816-2.154c-0.544-0.485-1.352-0.728-2.423-0.728h-1.964V32.207z M150.452,17.95
	c0.765,0,1.437,0.289,2.015,0.867c0.578,0.578,0.867,1.258,0.867,2.04c0,0.765-0.281,1.428-0.842,1.989s-1.233,0.842-2.015,0.842
	c-0.782,0-1.458-0.285-2.028-0.854c-0.57-0.569-0.854-1.237-0.854-2.002s0.289-1.437,0.867-2.015S149.703,17.95,150.452,17.95z"/>
<path fill="#FFFFFF" d="M172.002,31.493c3.213,0,5.913,1.161,8.097,3.481c2.185,2.321,3.277,5.377,3.277,9.169
	c0,2.618-0.489,4.85-1.466,6.694c-0.978,1.845-2.372,3.303-4.183,4.374c-1.811,1.071-3.762,1.606-5.853,1.606
	c-3.095,0-5.717-1.173-7.868-3.52c-2.151-2.346-3.226-5.39-3.226-9.13c0-3.758,1.08-6.81,3.239-9.156
	C166.179,32.666,168.84,31.493,172.002,31.493z M172.002,33.304c-1.904,0-3.469,0.862-4.693,2.588
	c-1.224,1.727-1.836,4.45-1.836,8.174c0,3.792,0.607,6.563,1.823,8.314c1.215,1.752,2.784,2.627,4.706,2.627
	c1.989,0,3.6-0.875,4.833-2.627c1.232-1.751,1.849-4.616,1.849-8.595c0-3.689-0.608-6.358-1.823-8.008
	C175.645,34.128,174.025,33.304,172.002,33.304z"/>
<path fill="#FFFFFF" d="M186.846,32.207l7.931-0.485c0.323,1.497,0.562,3.248,0.714,5.253c1.071-1.734,2.333-3.035,3.787-3.901
	c1.454-0.867,3.099-1.301,4.935-1.301c1.581,0,2.908,0.311,3.979,0.931c1.071,0.621,1.93,1.603,2.576,2.945
	c0.646,1.344,0.969,2.849,0.969,4.515v11.629c0,0.867,0.195,1.484,0.587,1.85c0.391,0.365,1.045,0.548,1.964,0.548h1.683v1.913
	h-12.599V54.19h1.199c1.123,0,1.904-0.178,2.347-0.535c0.442-0.357,0.663-0.893,0.663-1.606V41.821c0-2.227-0.34-3.876-1.021-4.947
	c-0.952-1.53-2.397-2.296-4.335-2.296c-1.921,0-3.524,0.774-4.808,2.321s-1.925,3.562-1.925,6.044v8.85
	c0,0.867,0.2,1.484,0.599,1.85s1.059,0.548,1.977,0.548h1.658v1.913h-12.649V54.19h1.658c0.833,0,1.466-0.17,1.9-0.51
	s0.65-0.765,0.65-1.275v-15.43c0-1.02-0.277-1.793-0.829-2.32c-0.553-0.527-1.348-0.791-2.384-0.791h-1.224V32.207z"/>
<path fill="#FFFFFF" d="M252.076,34.715l-2.07,1.589c-1.143-1.487-2.515-2.615-4.116-3.383c-1.601-0.768-3.359-1.151-5.275-1.151
	c-2.095,0-4.035,0.503-5.82,1.509c-1.786,1.006-3.169,2.356-4.151,4.053c-0.982,1.695-1.473,3.603-1.473,5.722
	c0,3.201,1.098,5.873,3.294,8.016c2.196,2.142,4.966,3.213,8.311,3.213c3.678,0,6.754-1.439,9.23-4.32l2.07,1.571
	c-1.311,1.666-2.943,2.955-4.901,3.865c-1.958,0.91-4.145,1.365-6.561,1.365c-4.594,0-8.218-1.528-10.873-4.588
	c-2.226-2.582-3.338-5.7-3.338-9.354c0-3.844,1.348-7.078,4.044-9.703c2.696-2.624,6.072-3.937,10.131-3.937
	c2.452,0,4.665,0.485,6.641,1.455C249.195,31.606,250.814,32.966,252.076,34.715z"/>
<path fill="#FFFFFF" d="M271.676,29.181c3.978,0,7.307,1.328,9.986,3.981c2.679,2.654,4.02,5.921,4.02,9.801
	c0,3.845-1.337,7.105-4.011,9.783s-5.934,4.017-9.78,4.017c-3.895,0-7.182-1.332-9.861-3.999c-2.68-2.665-4.02-5.891-4.02-9.676
	c0-2.522,0.61-4.861,1.831-7.016s2.885-3.842,4.993-5.062C266.941,29.791,269.223,29.181,271.676,29.181z M271.792,31.734
	c-1.943,0-3.785,0.506-5.525,1.519s-3.1,2.376-4.077,4.091c-0.978,1.716-1.466,3.627-1.466,5.735c0,3.121,1.081,5.756,3.245,7.906
	c2.163,2.15,4.771,3.225,7.823,3.225c2.038,0,3.925-0.494,5.659-1.482c1.734-0.989,3.088-2.341,4.059-4.056
	c0.972-1.716,1.458-3.621,1.458-5.718c0-2.084-0.486-3.97-1.458-5.654c-0.971-1.686-2.339-3.034-4.104-4.047
	C275.643,32.24,273.771,31.734,271.792,31.734z"/>
<path fill="#FFFFFF" d="M292.794,56.103V29.841h0.571l17.478,20.13v-20.13h2.588v26.261h-0.589l-17.335-19.886v19.886H292.794z"/>
<path fill="#FFFFFF" d="M321.669,56.103V29.841h0.571l17.478,20.13v-20.13h2.588v26.261h-0.589l-17.335-19.886v19.886H321.669z"/>
<path fill="#FFFFFF" d="M350.544,29.841h15.049v2.571h-12.425v8.23h12.318v2.57h-12.318v10.319h12.318v2.57h-14.942V29.841z"/>
<path fill="#FFFFFF" d="M396.413,34.715l-2.07,1.589c-1.143-1.487-2.515-2.615-4.115-3.383s-3.359-1.151-5.275-1.151
	c-2.095,0-4.035,0.503-5.82,1.509s-3.169,2.356-4.15,4.053c-0.982,1.695-1.473,3.603-1.473,5.722c0,3.201,1.098,5.873,3.294,8.016
	c2.195,2.142,4.966,3.213,8.31,3.213c3.678,0,6.755-1.439,9.23-4.32l2.07,1.571c-1.31,1.666-2.942,2.955-4.9,3.865
	s-4.145,1.365-6.561,1.365c-4.595,0-8.219-1.528-10.872-4.588c-2.226-2.582-3.339-5.7-3.339-9.354c0-3.844,1.348-7.078,4.044-9.703
	c2.695-2.624,6.072-3.937,10.131-3.937c2.452,0,4.666,0.485,6.642,1.455C393.533,31.606,395.151,32.966,396.413,34.715z"/>
<path fill="#FFFFFF" d="M400.901,32.412v-2.571h14.39v2.571h-5.855v23.69h-2.679v-23.69H400.901z"/>
<path fill="#FFFFFF" d="M420.528,29.841h2.625v26.261h-2.625V29.841z"/>
<path fill="#FFFFFF" d="M443.503,29.181c3.978,0,7.307,1.328,9.986,3.981c2.679,2.654,4.02,5.921,4.02,9.801
	c0,3.845-1.337,7.105-4.011,9.783s-5.934,4.017-9.78,4.017c-3.895,0-7.182-1.332-9.861-3.999c-2.68-2.665-4.02-5.891-4.02-9.676
	c0-2.522,0.61-4.861,1.831-7.016s2.885-3.842,4.993-5.062C438.769,29.791,441.05,29.181,443.503,29.181z M443.619,31.734
	c-1.943,0-3.785,0.506-5.525,1.519s-3.1,2.376-4.077,4.091c-0.978,1.716-1.466,3.627-1.466,5.735c0,3.121,1.081,5.756,3.245,7.906
	c2.163,2.15,4.771,3.225,7.823,3.225c2.038,0,3.925-0.494,5.659-1.482c1.734-0.989,3.088-2.341,4.059-4.056
	c0.972-1.716,1.458-3.621,1.458-5.718c0-2.084-0.486-3.97-1.458-5.654c-0.971-1.686-2.339-3.034-4.104-4.047
	C447.47,32.24,445.598,31.734,443.619,31.734z"/>
<path fill="#FFFFFF" d="M464.621,56.103V29.841h0.571l17.478,20.13v-20.13h2.588v26.261h-0.589l-17.335-19.886v19.886H464.621z"/>
</svg>
