<?xml version="1.0" encoding="UTF-8" standalone="no"?>
<!-- Generator: Adobe Illustrator 14.0.0, SVG Export Plug-In  -->

<svg
   xmlns:dc="http://purl.org/dc/elements/1.1/"
   xmlns:cc="http://creativecommons.org/ns#"
   xmlns:rdf="http://www.w3.org/1999/02/22-rdf-syntax-ns#"
   xmlns:svg="http://www.w3.org/2000/svg"
   xmlns="http://www.w3.org/2000/svg"
   xmlns:sodipodi="http://sodipodi.sourceforge.net/DTD/sodipodi-0.dtd"
   xmlns:inkscape="http://www.inkscape.org/namespaces/inkscape"
   version="1.1"
   x="0px"
   y="0px"
   width="433px"
   height="64px"
   viewBox="0 -3.5 433 64"
   enable-background="new 0 -3.5 433 64"
   xml:space="preserve"
   id="svg3225"
   inkscape:version="0.48.3.1 r9886"
   sodipodi:docname="CNX_BioNonMaj_Evolution.svg"><metadata
   id="metadata3275"><rdf:RDF><cc:Work
       rdf:about=""><dc:format>image/svg+xml</dc:format><dc:type
         rdf:resource="http://purl.org/dc/dcmitype/StillImage" /></cc:Work></rdf:RDF></metadata><sodipodi:namedview
   pagecolor="#ffffff"
   bordercolor="#666666"
   borderopacity="1"
   objecttolerance="10"
   gridtolerance="10"
   guidetolerance="10"
   inkscape:pageopacity="0"
   inkscape:pageshadow="2"
   inkscape:window-width="1360"
   inkscape:window-height="744"
   id="namedview3273"
   showgrid="false"
   showguides="true"
   inkscape:guide-bbox="true"
   inkscape:zoom="1.3289991"
   inkscape:cx="216.5"
   inkscape:cy="32"
   inkscape:window-x="0"
   inkscape:window-y="303"
   inkscape:window-maximized="1"
   inkscape:current-layer="svg3225"><sodipodi:guide
     orientation="1,0"
     position="350.63982,132.43049"
     id="guide3301" /><sodipodi:guide
     orientation="0,1"
     position="102.33265,36.117406"
     id="guide3105" /></sodipodi:namedview>
<defs
   id="defs3227">
</defs>






















<g
   id="g3431"
   transform="matrix(0.70791733,0,0,0.68917527,-0.1332186,15.442966)"><rect
     style="fill:#010101"
     x="0"
     id="rect3387"
     height="51.734001"
     width="220.733"
     y="13.514" /><rect
     style="fill:#517542"
     id="rect3389"
     height="51.734001"
     width="274.767"
     y="13.514"
     x="220.733" /><path
     style="fill:#75b152"
     inkscape:connector-curvature="0"
     id="path3391"
     d="m 36.181,59.043 c 0,0 6.873,-22.56 -3.043,-59.043 17.887,32.378 6.541,52.107 3.043,59.043 z" /><path
     style="fill:#517542"
     inkscape:connector-curvature="0"
     id="path3393"
     d="m 45.073,37.33 c 0,0 0.77,-28.057 13.452,-32.286 C 51.22,16.959 49.3,23.494 45.073,37.33 z" /><path
     style="fill:#ffffff"
     inkscape:connector-curvature="0"
     id="path3395"
     d="M 31.001,44.275 H 13.906 c 0.085,3.635 0.765,6.199 2.038,7.694 1.461,1.682 3.321,2.522 5.58,2.522 3.329,0 6.004,-1.895 8.025,-5.682 l 1.656,0.713 c -2.48,4.824 -6.064,7.236 -10.752,7.236 -3.193,0 -5.881,-1.155 -8.063,-3.466 -2.183,-2.31 -3.274,-5.265 -3.274,-8.866 0,-3.872 1.074,-7.002 3.223,-9.389 2.148,-2.386 4.794,-3.58 7.937,-3.58 2.31,0 4.306,0.595 5.987,1.784 1.682,1.189 2.947,2.896 3.796,5.121 0.594,1.565 0.908,3.535 0.942,5.913 z M 13.906,42.466 H 24.25 c 0.611,0 1.087,-0.207 1.427,-0.624 0.339,-0.416 0.509,-1.125 0.509,-2.127 0,-1.868 -0.582,-3.456 -1.745,-4.765 -1.164,-1.308 -2.535,-1.962 -4.115,-1.962 -1.767,0 -3.266,0.79 -4.497,2.369 -1.231,1.581 -1.872,3.95 -1.923,7.109 z" /><path
     style="fill:#ffffff"
     inkscape:connector-curvature="0"
     id="path3397"
     d="m 60.694,31.458 c 3.21,0 5.907,1.16 8.089,3.478 2.182,2.318 3.274,5.372 3.274,9.159 0,2.616 -0.489,4.846 -1.465,6.688 -0.976,1.842 -2.369,3.299 -4.178,4.369 -1.809,1.07 -3.758,1.605 -5.847,1.605 -3.091,0 -5.711,-1.173 -7.86,-3.517 -2.149,-2.344 -3.223,-5.384 -3.223,-9.121 0,-3.754 1.079,-6.803 3.236,-9.146 2.156,-2.342 4.815,-3.515 7.974,-3.515 z m 0,1.81 c -1.902,0 -3.465,0.862 -4.688,2.586 -1.223,1.725 -1.834,4.446 -1.834,8.166 0,3.788 0.607,6.557 1.822,8.306 1.214,1.75 2.781,2.624 4.701,2.624 1.987,0 3.596,-0.874 4.828,-2.624 1.231,-1.749 1.847,-4.611 1.847,-8.586 0,-3.686 -0.607,-6.353 -1.822,-8 -1.215,-1.647 -2.833,-2.472 -4.854,-2.472 z" /><path
     style="fill:#ffffff"
     inkscape:connector-curvature="0"
     id="path3399"
     d="m 84.541,17.93 v 34.599 c 0,0.476 0.144,0.841 0.433,1.096 0.424,0.34 0.943,0.509 1.554,0.509 h 2.522 v 1.911 H 75.522 v -1.911 h 2.395 c 0.781,0 1.363,-0.187 1.745,-0.561 0.382,-0.373 0.573,-0.899 0.573,-1.579 V 22.949 c 0,-0.849 -0.229,-1.469 -0.688,-1.86 -0.628,-0.543 -1.401,-0.815 -2.318,-0.815 h -2.14 v -1.911 l 9.452,-0.433 z" /><path
     style="fill:#ffffff"
     inkscape:connector-curvature="0"
     id="path3401"
     d="m 100.133,31.739 v 15.822 c 0,1.937 0.487,3.432 1.462,4.484 0.975,1.054 2.233,1.58 3.775,1.58 1.898,0 3.513,-0.769 4.843,-2.307 1.331,-1.537 1.996,-3.46 1.996,-5.771 v -8.942 c 0,-0.815 -0.293,-1.448 -0.879,-1.898 -0.586,-0.45 -1.711,-0.7 -3.376,-0.752 v -1.783 l 8.382,-0.433 v 19.592 c 0,0.901 0.255,1.593 0.764,2.077 0.51,0.483 1.223,0.726 2.14,0.726 h 1.503 v 1.707 l -8.025,0.179 -0.51,-4.688 c -1.425,1.682 -2.858,2.947 -4.299,3.797 -1.441,0.85 -2.9,1.273 -4.375,1.273 -2.154,0 -3.96,-0.722 -5.418,-2.165 -1.476,-1.427 -2.213,-3.848 -2.213,-7.262 v -10.37 c 0,-0.917 -0.366,-1.613 -1.096,-2.09 -0.51,-0.339 -1.554,-0.525 -3.134,-0.561 v -1.783 l 8.46,-0.432 z" /><path
     style="fill:#ffffff"
     inkscape:connector-curvature="0"
     id="path3403"
     d="m 130.121,22.439 h 1.707 v 9.732 h 7.72 v 2.344 h -7.72 v 15.312 c 0,1.325 0.314,2.34 0.943,3.045 0.628,0.705 1.427,1.058 2.395,1.058 1.155,0 2.14,-0.535 2.955,-1.605 0.815,-1.07 1.291,-2.837 1.427,-5.3 h 1.707 c -0.102,3.177 -0.824,5.533 -2.166,7.07 -1.342,1.537 -3.083,2.306 -5.223,2.306 -1.97,0 -3.512,-0.539 -4.624,-1.617 -1.113,-1.079 -1.669,-2.493 -1.669,-4.242 V 34.516 h -4.153 v -1.783 c 1.893,-0.322 3.333,-1.112 4.322,-2.369 1.466,-1.886 2.26,-4.527 2.379,-7.925 z" /><path
     style="fill:#ffffff"
     inkscape:connector-curvature="0"
     id="path3405"
     d="m 143.676,32.172 9.503,-0.28 v 20.535 c 0,0.561 0.136,0.96 0.408,1.198 0.391,0.34 0.883,0.509 1.478,0.509 h 2.701 v 1.911 h -13.58 v -1.911 h 2.522 c 0.747,0 1.295,-0.182 1.644,-0.548 0.348,-0.364 0.522,-0.896 0.522,-1.592 V 36.962 c 0,-0.951 -0.272,-1.669 -0.815,-2.153 -0.544,-0.483 -1.351,-0.726 -2.42,-0.726 h -1.962 V 32.172 z M 150.3,17.93 c 0.765,0 1.435,0.289 2.013,0.866 0.578,0.577 0.866,1.257 0.866,2.038 0,0.764 -0.28,1.427 -0.84,1.987 -0.561,0.561 -1.232,0.841 -2.013,0.841 -0.781,0 -1.457,-0.284 -2.025,-0.854 -0.569,-0.569 -0.854,-1.236 -0.854,-2 0,-0.765 0.289,-1.435 0.866,-2.013 0.577,-0.576 1.239,-0.865 1.987,-0.865 z" /><path
     style="fill:#ffffff"
     inkscape:connector-curvature="0"
     id="path3407"
     d="m 171.829,31.458 c 3.21,0 5.907,1.16 8.089,3.478 2.182,2.318 3.274,5.372 3.274,9.159 0,2.616 -0.489,4.846 -1.465,6.688 -0.976,1.842 -2.369,3.299 -4.178,4.369 -1.809,1.07 -3.758,1.605 -5.847,1.605 -3.091,0 -5.711,-1.173 -7.86,-3.517 -2.149,-2.344 -3.223,-5.384 -3.223,-9.121 0,-3.754 1.079,-6.803 3.236,-9.146 2.156,-2.342 4.814,-3.515 7.974,-3.515 z m 0,1.81 c -1.902,0 -3.465,0.862 -4.688,2.586 -1.223,1.725 -1.834,4.446 -1.834,8.166 0,3.788 0.607,6.557 1.822,8.306 1.214,1.75 2.781,2.624 4.701,2.624 1.987,0 3.596,-0.874 4.828,-2.624 1.231,-1.749 1.847,-4.611 1.847,-8.586 0,-3.686 -0.607,-6.353 -1.822,-8 -1.215,-1.647 -2.833,-2.472 -4.854,-2.472 z" /><path
     style="fill:#ffffff"
     inkscape:connector-curvature="0"
     id="path3409"
     d="m 186.657,32.172 7.924,-0.484 c 0.322,1.495 0.561,3.245 0.713,5.249 1.07,-1.732 2.331,-3.032 3.783,-3.898 1.452,-0.866 3.096,-1.299 4.93,-1.299 1.58,0 2.904,0.31 3.975,0.93 1.07,0.62 1.927,1.602 2.573,2.942 0.645,1.342 0.968,2.846 0.968,4.51 V 51.74 c 0,0.866 0.195,1.482 0.586,1.847 0.39,0.366 1.044,0.548 1.961,0.548 h 1.682 v 1.911 h -12.586 v -1.911 h 1.197 c 1.121,0 1.902,-0.178 2.344,-0.535 0.441,-0.356 0.662,-0.892 0.662,-1.604 V 41.777 c 0,-2.225 -0.34,-3.873 -1.019,-4.942 -0.951,-1.529 -2.395,-2.293 -4.331,-2.293 -1.92,0 -3.521,0.772 -4.803,2.318 -1.283,1.546 -1.923,3.559 -1.923,6.038 v 8.841 c 0,0.866 0.199,1.482 0.599,1.847 0.399,0.366 1.057,0.548 1.975,0.548 h 1.656 v 1.911 h -12.637 v -1.911 h 1.656 c 0.832,0 1.465,-0.169 1.898,-0.509 0.433,-0.34 0.649,-0.765 0.649,-1.274 V 36.937 c 0,-1.02 -0.276,-1.792 -0.828,-2.318 -0.552,-0.526 -1.346,-0.79 -2.382,-0.79 h -1.223 v -1.657 z" /><path
     style="fill:#ffffff"
     inkscape:connector-curvature="0"
     id="path3411"
     d="m 234.733,32.923 h 2.311 v 23.121 h -2.311 V 32.923 z" /><path
     style="fill:#ffffff"
     inkscape:connector-curvature="0"
     id="path3413"
     d="M 243.966,56.044 V 32.923 h 0.503 l 15.388,17.724 V 32.923 h 2.279 v 23.121 h -0.519 L 246.355,38.536 v 17.508 h -2.389 z" /><path
     style="fill:#ffffff"
     inkscape:connector-curvature="0"
     id="path3415"
     d="m 314.135,23.014 15.403,33.03 h -3.565 l -5.195,-10.868 h -14.229 l -5.146,10.868 h -3.683 l 15.605,-33.03 h 0.81 z m -0.417,7.018 -5.66,11.956 h 11.292 l -5.632,-11.956 z" /><path
     style="fill:#ffffff"
     inkscape:connector-curvature="0"
     id="path3417"
     d="m 367.719,29.144 -2.604,1.998 c -1.438,-1.871 -3.162,-3.29 -5.176,-4.255 -2.014,-0.965 -4.226,-1.448 -6.635,-1.448 -2.635,0 -5.075,0.632 -7.32,1.897 -2.245,1.265 -3.985,2.964 -5.221,5.097 -1.235,2.133 -1.853,4.532 -1.853,7.196 0,4.027 1.381,7.388 4.143,10.082 2.763,2.694 6.246,4.042 10.453,4.042 4.625,0 8.495,-1.812 11.608,-5.435 l 2.604,1.977 c -1.646,2.096 -3.701,3.716 -6.163,4.861 -2.463,1.145 -5.214,1.718 -8.252,1.718 -5.778,0 -10.337,-1.924 -13.675,-5.771 -2.8,-3.249 -4.199,-7.171 -4.199,-11.767 0,-4.835 1.695,-8.903 5.086,-12.204 3.391,-3.301 7.638,-4.951 12.743,-4.951 3.083,0 5.867,0.61 8.353,1.83 2.485,1.222 4.521,2.932 6.108,5.133 z" /><path
     style="fill:#ffffff"
     inkscape:connector-curvature="0"
     id="path3419"
     d="m 373.364,26.247 v -3.233 h 18.098 v 3.233 h -7.365 v 29.797 h -3.368 V 26.247 h -7.365 z" /><path
     style="fill:#ffffff"
     inkscape:connector-curvature="0"
     id="path3421"
     d="m 398.051,23.014 h 3.301 v 33.03 h -3.301 v -33.03 z" /><path
     style="fill:#ffffff"
     inkscape:connector-curvature="0"
     id="path3423"
     d="m 426.946,22.183 c 5.003,0 9.189,1.669 12.56,5.007 3.371,3.338 5.056,7.447 5.056,12.327 0,4.836 -1.682,8.937 -5.044,12.305 -3.363,3.368 -7.463,5.053 -12.302,5.053 -4.897,0 -9.032,-1.677 -12.402,-5.03 -3.37,-3.353 -5.056,-7.409 -5.056,-12.17 0,-3.173 0.768,-6.115 2.303,-8.824 1.536,-2.709 3.629,-4.832 6.28,-6.366 2.651,-1.535 5.519,-2.302 8.605,-2.302 z m 0.147,3.211 c -2.444,0 -4.761,0.637 -6.95,1.91 -2.188,1.274 -3.898,2.989 -5.128,5.146 -1.229,2.157 -1.844,4.562 -1.844,7.214 0,3.925 1.36,7.239 4.082,9.943 2.721,2.704 6.001,4.057 9.84,4.057 2.563,0 4.937,-0.622 7.118,-1.865 2.181,-1.243 3.883,-2.943 5.104,-5.101 1.223,-2.158 1.833,-4.555 1.833,-7.191 0,-2.622 -0.61,-4.993 -1.833,-7.112 -1.222,-2.12 -2.942,-3.816 -5.161,-5.09 -2.218,-1.274 -4.573,-1.911 -7.061,-1.911 z" /><path
     style="fill:#ffffff"
     inkscape:connector-curvature="0"
     id="path3425"
     d="m 453.508,56.044 v -33.03 h 0.719 l 21.982,25.319 V 23.014 h 3.256 v 33.03 h -0.741 L 456.921,31.033 v 25.011 h -3.413 z" /></g></svg>