<?xml version="1.0" encoding="utf-8"?>
<!-- Generator: Adobe Illustrator 19.1.0, SVG Export Plug-In . SVG Version: 6.00 Build 0)  -->
<svg version="1.1"
	 id="svg3225" xmlns:sodipodi="http://sodipodi.sourceforge.net/DTD/sodipodi-0.dtd" xmlns:svg="http://www.w3.org/2000/svg" xmlns:inkscape="http://www.inkscape.org/namespaces/inkscape" xmlns:rdf="http://www.w3.org/1999/02/22-rdf-syntax-ns#" xmlns:dc="http://purl.org/dc/elements/1.1/" xmlns:cc="http://creativecommons.org/ns#" inkscape:version="0.48.3.1 r9886" sodipodi:docname="CNX_BioNonMaj_Action.svg"
	 xmlns="http://www.w3.org/2000/svg" xmlns:xlink="http://www.w3.org/1999/xlink" x="0px" y="0px" viewBox="-89 389.2 350.6 36.5"
	 style="enable-background:new -89 389.2 350.6 36.5;" xml:space="preserve">
<style type="text/css">
	.st0{fill:#010101;}
	.st1{fill:#602E1A;}
	.st2{fill:#FFFFFF;}
	.st3{fill:#602E1A;stroke:#CFB7A1;}
	.st4{fill:none;stroke:#CFB7A1;}
</style>
<sodipodi:namedview  showgrid="false" borderopacity="1" pagecolor="#ffffff" guidetolerance="10" inkscape:cy="26.679404" gridtolerance="10" bordercolor="#666666" showguides="true" inkscape:cx="222.88472" id="namedview3273" inkscape:zoom="1.8794886" objecttolerance="10" inkscape:guide-bbox="true" inkscape:window-x="0" inkscape:pageopacity="0" inkscape:window-y="303" inkscape:window-maximized="1" inkscape:current-layer="svg3225" inkscape:pageshadow="2" inkscape:window-width="1360" inkscape:window-height="744">
	<sodipodi:guide  position="350.63982,132.43049" id="guide3301" orientation="1,0"></sodipodi:guide>
	<sodipodi:guide  position="459.69953,36.180055" id="guide3539" orientation="0,1"></sodipodi:guide>
</sodipodi:namedview>
<g id="g3814" transform="matrix(0.81003826,0,0,0.81003826,0.29827335,24.201773)">
	<rect id="rect3756" x="-109.9" y="450.6" class="st0" width="186" height="45"/>
	<rect id="rect3758" x="71.9" y="450.6" class="st1" width="250.7" height="45"/>
	<path id="path3760" inkscape:connector-curvature="0" class="st2" d="M150.6,457.5l14.3,30.6h-3.3l-4.8-10.1h-13.2l-4.8,10.1h-3.4
		l14.5-30.6H150.6z M150.2,464l-5.2,11.1h10.5L150.2,464L150.2,464z"/>
	<path id="path3762" inkscape:connector-curvature="0" class="st2" d="M200.2,463.1l-2.4,1.9c-1.3-1.7-2.9-3-4.8-3.9
		s-3.9-1.3-6.1-1.3c-2.4,0-4.7,0.6-6.8,1.8c-2.1,1.2-3.7,2.7-4.8,4.7c-1.1,2-1.7,4.2-1.7,6.7c0,3.7,1.3,6.8,3.8,9.3s5.8,3.7,9.7,3.7
		c4.3,0,7.9-1.7,10.8-5l2.4,1.8c-1.5,1.9-3.4,3.4-5.7,4.5c-2.3,1.1-4.8,1.6-7.6,1.6c-5.4,0-9.6-1.8-12.7-5.3
		c-2.6-3-3.9-6.6-3.9-10.9c0-4.5,1.6-8.2,4.7-11.3c3.1-3.1,7.1-4.6,11.8-4.6c2.9,0,5.4,0.6,7.7,1.7
		C196.8,459.5,198.7,461.1,200.2,463.1z"/>
	<path id="path3764" inkscape:connector-curvature="0" class="st2" d="M205.4,460.5v-3h16.8v3h-6.8v27.6h-3.1v-27.6H205.4z"/>
	<path id="path3766" inkscape:connector-curvature="0" class="st2" d="M228.3,457.5h3.1v30.6h-3.1V457.5z"/>
	<path id="path3768" inkscape:connector-curvature="0" class="st2" d="M255,456.7c4.6,0,8.5,1.5,11.6,4.6c3.1,3.1,4.7,6.9,4.7,11.4
		s-1.6,8.3-4.7,11.4s-6.9,4.7-11.4,4.7c-4.5,0-8.4-1.6-11.5-4.7s-4.7-6.9-4.7-11.3c0-2.9,0.7-5.7,2.1-8.2s3.4-4.5,5.8-5.9
		C249.5,457.4,252.2,456.7,255,456.7z M255.2,459.7c-2.3,0-4.4,0.6-6.4,1.8c-2,1.2-3.6,2.8-4.7,4.8s-1.7,4.2-1.7,6.7
		c0,3.6,1.3,6.7,3.8,9.2s5.6,3.8,9.1,3.8c2.4,0,4.6-0.6,6.6-1.7c2-1.2,3.6-2.7,4.7-4.7s1.7-4.2,1.7-6.7c0-2.4-0.6-4.6-1.7-6.6
		s-2.7-3.5-4.8-4.7C259.7,460.3,257.5,459.7,255.2,459.7z"/>
	<path id="path3770" inkscape:connector-curvature="0" class="st2" d="M279.6,488.1v-30.6h0.7l20.4,23.4v-23.4h3v30.6H303
		l-20.2-23.2v23.2H279.6z"/>
	<path id="path3772" inkscape:connector-curvature="0" class="st2" d="M89.3,464.3h2.3v23.3h-2.3V464.3z"/>
	<path id="path3774" inkscape:connector-curvature="0" class="st2" d="M98.6,487.6v-23.3h0.5l15.5,17.8v-17.8h2.3v23.3h-0.5L101,470
		v17.6H98.6z"/>
	<path id="path3776" inkscape:connector-curvature="0" class="st2" d="M-87.4,456.7v14c0.8-1.1,1.7-2,2.6-2.5c1-0.6,2-0.8,3.2-0.8
		c2.2,0,4.1,0.9,5.6,2.6c1.5,1.7,2.3,4,2.3,6.8c0,3.1-0.8,5.5-2.5,7.4c-1.6,1.9-3.7,2.8-6.1,2.8c-1.2,0-2.2-0.2-3.1-0.7
		c-0.9-0.5-1.9-1.2-2.9-2.3c-0.8,1.2-1.5,2.2-2.2,3l-0.8-0.3c0.4-1.5,0.6-3.1,0.6-4.8v-21.2c0-0.7-0.2-1.2-0.7-1.5
		c-0.5-0.5-1.2-0.6-2-0.6h-0.8V457L-87.4,456.7z M-82.3,469.2c-1.5,0-2.7,0.7-3.7,2c-1,1.3-1.4,3.5-1.4,6.5c0,2.9,0.5,5,1.4,6.2
		c0.9,1.2,2.2,1.9,3.7,1.9c1.4,0,2.5-0.6,3.3-1.8c1-1.6,1.6-3.8,1.6-6.6c0-2.8-0.5-4.9-1.4-6.2C-79.8,469.8-81,469.2-82.3,469.2z"/>
	<path id="path3778" inkscape:connector-curvature="0" class="st2" d="M-68.7,467.9l7.5-0.2v16.2c0,0.4,0.1,0.8,0.3,0.9
		c0.3,0.3,0.7,0.4,1.2,0.4h2.1v1.5h-10.7v-1.5h2c0.6,0,1-0.1,1.3-0.4c0.3-0.3,0.4-0.7,0.4-1.3v-11.8c0-0.7-0.2-1.3-0.6-1.7
		c-0.4-0.4-1.1-0.6-1.9-0.6h-1.5L-68.7,467.9L-68.7,467.9z M-63.4,456.7c0.6,0,1.1,0.2,1.6,0.7s0.7,1,0.7,1.6s-0.2,1.1-0.7,1.6
		c-0.4,0.4-1,0.7-1.6,0.7s-1.1-0.2-1.6-0.7c-0.4-0.4-0.7-1-0.7-1.6s0.2-1.1,0.7-1.6S-64,456.7-63.4,456.7z"/>
	<path id="path3780" inkscape:connector-curvature="0" class="st2" d="M-19.2,456.7V484c0,0.4,0.1,0.7,0.3,0.9
		c0.3,0.3,0.7,0.4,1.2,0.4h2v1.5h-10.6v-1.5h1.9c0.6,0,1.1-0.1,1.4-0.4c0.3-0.3,0.5-0.7,0.5-1.2v-23c0-0.7-0.2-1.2-0.5-1.5
		c-0.6-0.4-1.2-0.6-2-0.6h-1.7V457L-19.2,456.7z"/>
	<path id="path3782" inkscape:connector-curvature="0" class="st2" d="M-2.4,467.4c2.5,0,4.7,0.9,6.4,2.7c1.7,1.8,2.6,4.2,2.6,7.2
		c0,2.1-0.4,3.8-1.2,5.3c-0.8,1.5-1.9,2.6-3.3,3.4c-1.4,0.8-3,1.3-4.6,1.3c-2.4,0-4.5-0.9-6.2-2.8c-1.7-1.8-2.5-4.2-2.5-7.2
		s0.8-5.4,2.6-7.2C-7,468.3-4.9,467.4-2.4,467.4z M-2.4,468.8c-1.5,0-2.7,0.7-3.7,2c-1,1.4-1.4,3.5-1.4,6.4c0,3,0.5,5.2,1.4,6.5
		c1,1.4,2.2,2.1,3.7,2.1c1.6,0,2.8-0.7,3.8-2.1s1.5-3.6,1.5-6.8c0-2.9-0.5-5-1.4-6.3C0.4,469.4-0.8,468.8-2.4,468.8z"/>
	<path id="path3784" inkscape:connector-curvature="0" class="st2" d="M25.7,469c1.3-1.4,2.6-2,3.7-2c0.7,0,1.2,0.2,1.7,0.6
		c0.4,0.4,0.7,1,0.7,1.6c0,0.5-0.2,0.9-0.5,1.2c-0.3,0.3-0.7,0.5-1.1,0.5c-0.8,0-1.3-0.5-1.5-1.4c-0.1-0.4-0.3-0.6-0.5-0.6
		c-0.5,0-1,0.3-1.5,0.9c0.6,0.8,1,1.5,1.2,2.1c0.2,0.6,0.3,1.2,0.3,1.9c0,1.2-0.3,2.2-0.8,3.1c-0.6,0.9-1.5,1.7-2.8,2.4
		c-1.3,0.7-2.6,1-3.7,1h-2.2c-1.6,0-2.6,0.2-3.1,0.5c-0.5,0.3-0.8,0.8-0.8,1.5c0,0.5,0.2,0.9,0.6,1.2c0.4,0.3,1.2,0.4,2.3,0.4l5-0.1
		c2.5,0,4.3,0.4,5.4,1.3c1.1,0.8,1.7,2,1.7,3.4c0,1.6-0.6,3-1.9,4.1c-1.8,1.6-4.4,2.3-7.9,2.3c-2.9,0-5-0.5-6.4-1.6
		c-1.1-0.8-1.6-1.8-1.6-2.8c0-0.8,0.4-1.5,1.1-2.2s1.9-1.1,3.5-1.5c-1.3-0.3-2.3-0.8-3-1.4s-1-1.4-1-2.3s0.3-1.6,0.8-2.2
		c0.5-0.6,1.5-1.2,2.8-1.6c-1.1-0.6-2-1.4-2.6-2.3c-0.6-0.9-0.9-1.9-0.9-3.1c0-1.8,0.7-3.3,2.1-4.6c1.4-1.2,3.3-1.8,5.6-1.8
		c0.9,0,1.8,0.1,2.7,0.4C24.1,468,24.9,468.4,25.7,469z M21.6,486.8c-2.5,0-4.2,0.3-5.3,1c-1.1,0.7-1.6,1.5-1.6,2.5
		c0,0.9,0.4,1.6,1.2,2.1c1,0.7,2.5,1,4.5,1c2.3,0,4-0.4,5.2-1.1c1.2-0.8,1.7-1.6,1.7-2.6c0-0.5-0.2-1.1-0.5-1.5
		c-0.4-0.5-0.9-0.8-1.7-1.1C24.3,486.9,23.2,486.8,21.6,486.8L21.6,486.8z M20.5,468.7c-1.2,0-2.2,0.4-3,1.3s-1.2,2.1-1.2,3.7
		c0,1.7,0.4,3,1.2,3.9c0.8,0.9,1.8,1.4,3,1.4s2.2-0.5,3-1.4s1.2-2.2,1.2-3.9c0-1.6-0.4-2.8-1.2-3.7
		C22.6,469.1,21.6,468.7,20.5,468.7z"/>
	<path id="path3786" inkscape:connector-curvature="0" class="st2" d="M35,467.9h9v1.4h-0.8c-0.8,0-1.3,0.1-1.6,0.3
		s-0.4,0.5-0.4,0.9c0,0.2,0,0.3,0.1,0.5l5.2,11.3l3.9-9.4c0.3-0.7,0.4-1.3,0.4-2c0-0.5-0.2-0.9-0.6-1.2c-0.4-0.3-1.2-0.5-2.3-0.5
		v-1.4h7.8v1.4c-1.5,0.1-2.5,0.8-3.1,2l-7,16.2c-1.2,2.8-2.4,4.6-3.6,5.7c-1.2,1-2.5,1.6-3.9,1.6c-1,0-1.8-0.3-2.4-0.8
		c-0.6-0.5-0.9-1.2-0.9-2c0-0.6,0.2-1.1,0.6-1.5c0.4-0.4,0.8-0.6,1.4-0.6c0.5,0,0.9,0.2,1.3,0.5c0.3,0.3,0.5,0.7,0.5,1.2
		c0,0.1,0,0.3-0.1,0.6c-0.1,0.2-0.1,0.3-0.1,0.4c0,0.3,0.2,0.5,0.6,0.5c0.4,0,0.9-0.2,1.5-0.5c0.6-0.3,1.1-0.8,1.6-1.5
		c0.5-0.7,1.3-2.3,2.5-4.7L37.5,471c-0.3-0.5-0.6-0.9-1-1.2c-0.4-0.3-0.9-0.4-1.7-0.5v-1.4H35z"/>
	
		<circle id="circle3788" sodipodi:cx="68.300003" sodipodi:rx="15.3" sodipodi:ry="15.3" sodipodi:cy="24.6" class="st3" cx="-41.6" cy="475.2" r="15.3">
	</circle>
	<path id="path3790" inkscape:connector-curvature="0" class="st4" d="M-45.6,460.6c0,0-5.1,7-3.8,16.7c1.4,11.2,8.3,13.2,8.3,13.2"
		/>
	<path id="path3792" inkscape:connector-curvature="0" class="st4" d="M-50,462.3c0,0,6.7,1.4,13.5,9.9c8.5,10.6,4.1,15.1,4.1,15.1"
		/>
	<path id="path3794" inkscape:connector-curvature="0" class="st4" d="M-51.7,486.7c0,0-2.7-3.6-2.7-9.9c0-8.3,7.4-13.8,7.4-13.8
		s8-0.1,14.4,4.8c7.6,5.7,4.9,13.7,4.9,13.7"/>
	<path id="path3796" inkscape:connector-curvature="0" class="st4" d="M-56.9,474c0,0,0-5.8,9.9-11.6c5.1-3,6.4-2.4,6.4-2.4"/>
	<path id="path3798" inkscape:connector-curvature="0" class="st4" d="M-47,463.5c0,0,0.8,4,4.5,12.9c3.5,8.4,6.5,12.9,6.5,12.9"/>
	<path id="path3800" inkscape:connector-curvature="0" class="st4" d="M-53.2,465.2c0,0,9.8-5.8,17.2-2.9c6.6,2.6,8,5.9,8,5.9"/>
	<path id="path3802" inkscape:connector-curvature="0" class="st4" d="M-53.5,465.6c0,0-1.3,6.5,8.5,2.7c8.9-3.5,5-8.4,5-8.4"/>
	<path id="path3804" inkscape:connector-curvature="0" class="st4" d="M-56.9,474.4c0,0,1.7,6.7,15.8,0.4c11.7-5.2,9-11.7,9-11.7"/>
	<path id="path3806" inkscape:connector-curvature="0" class="st4" d="M-55,482.6c0,0,3.7,4.8,15.8,0c12.9-5.2,12-12.6,12-12.6"/>
	<path id="path3808" inkscape:connector-curvature="0" class="st4" d="M-47.2,489.4c0,0,4.4,0.7,10.3-1.5c6.7-2.5,9.4-6.9,9.4-6.9"
		/>
</g>
</svg>
