<?xml version="1.0" encoding="utf-8"?>
<!-- Generator: Adobe Illustrator 14.0.0, SVG Export Plug-In  -->
<!DOCTYPE svg PUBLIC "-//W3C//DTD SVG 1.1//EN" "http://www.w3.org/Graphics/SVG/1.1/DTD/svg11.dtd" [
	<!ENTITY ns_flows "http://ns.adobe.com/Flows/1.0/">
]>
<svg version="1.1"
	 xmlns="http://www.w3.org/2000/svg" xmlns:xlink="http://www.w3.org/1999/xlink" xmlns:a="http://ns.adobe.com/AdobeSVGViewerExtensions/3.0/"
	 x="0px" y="0px" width="496px" height="66px" viewBox="0 -0.5 496 66" enable-background="new 0 -0.5 496 66" xml:space="preserve"
	>
<defs>
</defs>
<rect y="13.514" fill="#010101" width="220.733" height="51.734"/>
<rect x="220.733" y="13.514" fill="#517542" width="274.767" height="51.734"/>
<path fill="#75B152" d="M36.181,59.043c0,0,6.873-22.56-3.043-59.043C51.025,32.378,39.679,52.107,36.181,59.043z"/>
<path fill="#517542" d="M45.073,37.33c0,0,0.77-28.057,13.452-32.286C51.22,16.959,49.3,23.494,45.073,37.33z"/>
<path fill="#FFFFFF" d="M31.001,44.275H13.906c0.085,3.635,0.765,6.199,2.038,7.694c1.461,1.682,3.321,2.522,5.58,2.522
	c3.329,0,6.004-1.895,8.025-5.682l1.656,0.713c-2.48,4.824-6.064,7.236-10.752,7.236c-3.193,0-5.881-1.155-8.063-3.466
	c-2.183-2.31-3.274-5.265-3.274-8.866c0-3.872,1.074-7.002,3.223-9.389c2.148-2.386,4.794-3.58,7.937-3.58
	c2.31,0,4.306,0.595,5.987,1.784c1.682,1.189,2.947,2.896,3.796,5.121C30.653,39.927,30.967,41.897,31.001,44.275z M13.906,42.466
	H24.25c0.611,0,1.087-0.207,1.427-0.624c0.339-0.416,0.509-1.125,0.509-2.127c0-1.868-0.582-3.456-1.745-4.765
	c-1.164-1.308-2.535-1.962-4.115-1.962c-1.767,0-3.266,0.79-4.497,2.369C14.598,36.938,13.957,39.307,13.906,42.466z"/>
<path fill="#FFFFFF" d="M60.694,31.458c3.21,0,5.907,1.16,8.089,3.478c2.182,2.318,3.274,5.372,3.274,9.159
	c0,2.616-0.489,4.846-1.465,6.688s-2.369,3.299-4.178,4.369s-3.758,1.605-5.847,1.605c-3.091,0-5.711-1.173-7.86-3.517
	c-2.149-2.344-3.223-5.384-3.223-9.121c0-3.754,1.079-6.803,3.236-9.146C54.876,32.631,57.535,31.458,60.694,31.458z M60.694,33.268
	c-1.902,0-3.465,0.862-4.688,2.586c-1.223,1.725-1.834,4.446-1.834,8.166c0,3.788,0.607,6.557,1.822,8.306
	c1.214,1.75,2.781,2.624,4.701,2.624c1.987,0,3.596-0.874,4.828-2.624c1.231-1.749,1.847-4.611,1.847-8.586
	c0-3.686-0.607-6.353-1.822-8S62.715,33.268,60.694,33.268z"/>
<path fill="#FFFFFF" d="M84.541,17.93v34.599c0,0.476,0.144,0.841,0.433,1.096c0.424,0.34,0.943,0.509,1.554,0.509h2.522v1.911
	H75.522v-1.911h2.395c0.781,0,1.363-0.187,1.745-0.561c0.382-0.373,0.573-0.899,0.573-1.579V22.949c0-0.849-0.229-1.469-0.688-1.86
	c-0.628-0.543-1.401-0.815-2.318-0.815h-2.14v-1.911L84.541,17.93z"/>
<path fill="#FFFFFF" d="M100.133,31.739v15.822c0,1.937,0.487,3.432,1.462,4.484c0.975,1.054,2.233,1.58,3.775,1.58
	c1.898,0,3.513-0.769,4.843-2.307c1.331-1.537,1.996-3.46,1.996-5.771v-8.942c0-0.815-0.293-1.448-0.879-1.898
	s-1.711-0.7-3.376-0.752v-1.783l8.382-0.433v19.592c0,0.901,0.255,1.593,0.764,2.077c0.51,0.483,1.223,0.726,2.14,0.726h1.503v1.707
	l-8.025,0.179l-0.51-4.688c-1.425,1.682-2.858,2.947-4.299,3.797s-2.9,1.273-4.375,1.273c-2.154,0-3.96-0.722-5.418-2.165
	c-1.476-1.427-2.213-3.848-2.213-7.262V36.605c0-0.917-0.366-1.613-1.096-2.09c-0.51-0.339-1.554-0.525-3.134-0.561v-1.783
	L100.133,31.739z"/>
<path fill="#FFFFFF" d="M130.121,22.439h1.707v9.732h7.72v2.344h-7.72v15.312c0,1.325,0.314,2.34,0.943,3.045
	c0.628,0.705,1.427,1.058,2.395,1.058c1.155,0,2.14-0.535,2.955-1.605c0.815-1.07,1.291-2.837,1.427-5.3h1.707
	c-0.102,3.177-0.824,5.533-2.166,7.07s-3.083,2.306-5.223,2.306c-1.97,0-3.512-0.539-4.624-1.617
	c-1.113-1.079-1.669-2.493-1.669-4.242V34.516h-4.153v-1.783c1.893-0.322,3.333-1.112,4.322-2.369
	C129.208,28.478,130.002,25.837,130.121,22.439z"/>
<path fill="#FFFFFF" d="M143.676,32.172l9.503-0.28v20.535c0,0.561,0.136,0.96,0.408,1.198c0.391,0.34,0.883,0.509,1.478,0.509
	h2.701v1.911h-13.58v-1.911h2.522c0.747,0,1.295-0.182,1.644-0.548c0.348-0.364,0.522-0.896,0.522-1.592V36.962
	c0-0.951-0.272-1.669-0.815-2.153c-0.544-0.483-1.351-0.726-2.42-0.726h-1.962V32.172z M150.3,17.93
	c0.765,0,1.435,0.289,2.013,0.866s0.866,1.257,0.866,2.038c0,0.764-0.28,1.427-0.84,1.987c-0.561,0.561-1.232,0.841-2.013,0.841
	s-1.457-0.284-2.025-0.854c-0.569-0.569-0.854-1.236-0.854-2c0-0.765,0.289-1.435,0.866-2.013
	C148.89,18.219,149.552,17.93,150.3,17.93z"/>
<path fill="#FFFFFF" d="M171.829,31.458c3.21,0,5.907,1.16,8.089,3.478c2.182,2.318,3.274,5.372,3.274,9.159
	c0,2.616-0.489,4.846-1.465,6.688s-2.369,3.299-4.178,4.369s-3.758,1.605-5.847,1.605c-3.091,0-5.711-1.173-7.86-3.517
	c-2.149-2.344-3.223-5.384-3.223-9.121c0-3.754,1.079-6.803,3.236-9.146C166.011,32.631,168.669,31.458,171.829,31.458z
	 M171.829,33.268c-1.902,0-3.465,0.862-4.688,2.586c-1.223,1.725-1.834,4.446-1.834,8.166c0,3.788,0.607,6.557,1.822,8.306
	c1.214,1.75,2.781,2.624,4.701,2.624c1.987,0,3.596-0.874,4.828-2.624c1.231-1.749,1.847-4.611,1.847-8.586
	c0-3.686-0.607-6.353-1.822-8S173.85,33.268,171.829,33.268z"/>
<path fill="#FFFFFF" d="M186.657,32.172l7.924-0.484c0.322,1.495,0.561,3.245,0.713,5.249c1.07-1.732,2.331-3.032,3.783-3.898
	s3.096-1.299,4.93-1.299c1.58,0,2.904,0.31,3.975,0.93c1.07,0.62,1.927,1.602,2.573,2.942c0.645,1.342,0.968,2.846,0.968,4.51
	v11.618c0,0.866,0.195,1.482,0.586,1.847c0.39,0.366,1.044,0.548,1.961,0.548h1.682v1.911h-12.586v-1.911h1.197
	c1.121,0,1.902-0.178,2.344-0.535c0.441-0.356,0.662-0.892,0.662-1.604V41.777c0-2.225-0.34-3.873-1.019-4.942
	c-0.951-1.529-2.395-2.293-4.331-2.293c-1.92,0-3.521,0.772-4.803,2.318c-1.283,1.546-1.923,3.559-1.923,6.038v8.841
	c0,0.866,0.199,1.482,0.599,1.847c0.399,0.366,1.057,0.548,1.975,0.548h1.656v1.911h-12.637v-1.911h1.656
	c0.832,0,1.465-0.169,1.898-0.509c0.433-0.34,0.649-0.765,0.649-1.274V36.937c0-1.02-0.276-1.792-0.828-2.318
	c-0.552-0.526-1.346-0.79-2.382-0.79h-1.223V32.172z"/>
<path fill="#FFFFFF" d="M234.733,32.923h2.311v23.121h-2.311V32.923z"/>
<path fill="#FFFFFF" d="M243.966,56.044V32.923h0.503l15.388,17.724V32.923h2.279v23.121h-0.519l-15.262-17.508v17.508H243.966z"/>
<path fill="#FFFFFF" d="M314.135,23.014l15.403,33.03h-3.565l-5.195-10.868h-14.229l-5.146,10.868h-3.683l15.605-33.03H314.135z
	 M313.718,30.032l-5.66,11.956h11.292L313.718,30.032z"/>
<path fill="#FFFFFF" d="M367.719,29.144l-2.604,1.998c-1.438-1.871-3.162-3.29-5.176-4.255s-4.226-1.448-6.635-1.448
	c-2.635,0-5.075,0.632-7.32,1.897s-3.985,2.964-5.221,5.097c-1.235,2.133-1.853,4.532-1.853,7.196c0,4.027,1.381,7.388,4.143,10.082
	c2.763,2.694,6.246,4.042,10.453,4.042c4.625,0,8.495-1.812,11.608-5.435l2.604,1.977c-1.646,2.096-3.701,3.716-6.163,4.861
	c-2.463,1.145-5.214,1.718-8.252,1.718c-5.778,0-10.337-1.924-13.675-5.771c-2.8-3.249-4.199-7.171-4.199-11.767
	c0-4.835,1.695-8.903,5.086-12.204s7.638-4.951,12.743-4.951c3.083,0,5.867,0.61,8.353,1.83
	C364.096,25.233,366.132,26.943,367.719,29.144z"/>
<path fill="#FFFFFF" d="M373.364,26.247v-3.233h18.098v3.233h-7.365v29.797h-3.368V26.247H373.364z"/>
<path fill="#FFFFFF" d="M398.051,23.014h3.301v33.03h-3.301V23.014z"/>
<path fill="#FFFFFF" d="M426.946,22.183c5.003,0,9.189,1.669,12.56,5.007c3.371,3.338,5.056,7.447,5.056,12.327
	c0,4.836-1.682,8.937-5.044,12.305c-3.363,3.368-7.463,5.053-12.302,5.053c-4.897,0-9.032-1.677-12.402-5.03
	c-3.37-3.353-5.056-7.409-5.056-12.17c0-3.173,0.768-6.115,2.303-8.824c1.536-2.709,3.629-4.832,6.28-6.366
	C420.992,22.95,423.86,22.183,426.946,22.183z M427.093,25.394c-2.444,0-4.761,0.637-6.95,1.91
	c-2.188,1.274-3.898,2.989-5.128,5.146c-1.229,2.157-1.844,4.562-1.844,7.214c0,3.925,1.36,7.239,4.082,9.943
	c2.721,2.704,6.001,4.057,9.84,4.057c2.563,0,4.937-0.622,7.118-1.865s3.883-2.943,5.104-5.101c1.223-2.158,1.833-4.555,1.833-7.191
	c0-2.622-0.61-4.993-1.833-7.112c-1.222-2.12-2.942-3.816-5.161-5.09C431.936,26.031,429.581,25.394,427.093,25.394z"/>
<path fill="#FFFFFF" d="M453.508,56.044v-33.03h0.719l21.982,25.319V23.014h3.256v33.03h-0.741l-21.803-25.011v25.011H453.508z"/>
</svg>
