<?xml version="1.0" encoding="utf-8"?>
<!-- Generator: Adobe Illustrator 14.0.0, SVG Export Plug-In  -->
<!DOCTYPE svg PUBLIC "-//W3C//DTD SVG 1.1//EN" "http://www.w3.org/Graphics/SVG/1.1/DTD/svg11.dtd" [
	<!ENTITY ns_flows "http://ns.adobe.com/Flows/1.0/">
]>
<svg version="1.1"
	 xmlns="http://www.w3.org/2000/svg" xmlns:xlink="http://www.w3.org/1999/xlink" xmlns:a="http://ns.adobe.com/AdobeSVGViewerExtensions/3.0/"
	 x="0px" y="0px" width="495px" height="53px" viewBox="-0.75 -0.605 495 53" enable-background="new -0.75 -0.605 495 53"
	 xml:space="preserve">
<defs>
</defs>
<rect fill="#010101" width="200.389" height="52.113"/>
<path fill="#CFB7A1" d="M72.505,28.451H57.87c0.073,3.111,0.654,5.308,1.745,6.587c1.25,1.439,2.842,2.159,4.776,2.159
	c2.85,0,5.14-1.621,6.871-4.863l1.417,0.61c-2.123,4.13-5.191,6.194-9.204,6.194c-2.734,0-5.035-0.989-6.903-2.967
	c-1.868-1.977-2.803-4.508-2.803-7.59c0-3.314,0.92-5.994,2.759-8.037s4.104-3.064,6.794-3.064c1.978,0,3.686,0.509,5.125,1.527
	c1.44,1.018,2.523,2.479,3.25,4.383C72.207,24.729,72.476,26.416,72.505,28.451z"/>
<rect x="200.389" fill="#602E1A" width="293.861" height="52.113"/>
<path fill="#FFFFFF" d="M235.554,16.835l-2.214,1.699c-1.222-1.59-2.688-2.796-4.399-3.617c-1.711-0.821-3.591-1.231-5.64-1.231
	c-2.239,0-4.313,0.538-6.222,1.613c-1.908,1.075-3.387,2.519-4.437,4.332s-1.574,3.852-1.574,6.117c0,3.422,1.173,6.278,3.521,8.568
	c2.347,2.29,5.309,3.436,8.884,3.436c3.931,0,7.22-1.54,9.867-4.619l2.214,1.68c-1.4,1.781-3.146,3.158-5.239,4.132
	c-2.093,0.974-4.431,1.46-7.014,1.46c-4.911,0-8.785-1.635-11.623-4.904c-2.379-2.762-3.569-6.095-3.569-10
	c0-4.11,1.441-7.568,4.323-10.373c2.882-2.806,6.492-4.208,10.831-4.208c2.621,0,4.987,0.519,7.1,1.555
	C232.475,13.511,234.206,14.965,235.554,16.835z"/>
<path fill="#FFFFFF" d="M256.508,10.919c4.252,0,7.809,1.418,10.674,4.256s4.297,6.33,4.297,10.478c0,4.109-1.43,7.596-4.287,10.458
	s-6.344,4.294-10.455,4.294c-4.164,0-7.678-1.425-10.542-4.274c-2.864-2.851-4.296-6.298-4.296-10.345
	c0-2.697,0.652-5.197,1.957-7.5c1.305-2.303,3.084-4.106,5.338-5.411C251.445,11.571,253.885,10.919,256.508,10.919z
	 M256.631,13.648c-2.076,0-4.047,0.541-5.906,1.624c-1.861,1.083-3.314,2.541-4.359,4.374c-1.044,1.834-1.567,3.877-1.567,6.13
	c0,3.337,1.156,6.154,3.469,8.453c2.312,2.298,5.102,3.446,8.363,3.446c2.18,0,4.195-0.528,6.051-1.585
	c1.854-1.057,3.299-2.502,4.338-4.336c1.039-1.833,1.559-3.87,1.559-6.111c0-2.229-0.52-4.243-1.559-6.045s-2.5-3.244-4.387-4.326
	S258.746,13.648,256.631,13.648z"/>
<path fill="#FFFFFF" d="M279.082,39.698V11.625h0.61l18.684,21.52v-21.52h2.768v28.073h-0.63L281.982,18.44v21.258H279.082z"/>
<path fill="#FFFFFF" d="M309.949,39.698V11.625h0.61l18.684,21.52v-21.52h2.768v28.073h-0.63L312.85,18.44v21.258H309.949z"/>
<path fill="#FFFFFF" d="M340.817,11.625h16.088v2.748h-13.283v8.798h13.169v2.749h-13.169v11.03h13.169v2.748h-15.974V11.625z"/>
<path fill="#FFFFFF" d="M389.852,16.835l-2.214,1.699c-1.221-1.59-2.688-2.796-4.398-3.617c-1.712-0.821-3.591-1.231-5.64-1.231
	c-2.239,0-4.313,0.538-6.222,1.613s-3.388,2.519-4.437,4.332c-1.05,1.813-1.575,3.852-1.575,6.117c0,3.422,1.174,6.278,3.521,8.568
	s5.309,3.436,8.884,3.436c3.932,0,7.22-1.54,9.866-4.619l2.214,1.68c-1.399,1.781-3.146,3.158-5.238,4.132s-4.431,1.46-7.014,1.46
	c-4.911,0-8.785-1.635-11.622-4.904c-2.38-2.762-3.569-6.095-3.569-10c0-4.11,1.441-7.568,4.323-10.373
	c2.882-2.806,6.491-4.208,10.83-4.208c2.621,0,4.987,0.519,7.1,1.555C386.772,13.511,388.503,14.965,389.852,16.835z"/>
<path fill="#FFFFFF" d="M394.65,14.373v-2.748h15.382v2.748h-6.26v25.325h-2.862V14.373H394.65z"/>
<path fill="#FFFFFF" d="M415.632,11.625h2.805v28.073h-2.805V11.625z"/>
<path fill="#FFFFFF" d="M440.191,10.919c4.252,0,7.81,1.418,10.675,4.256c2.864,2.837,4.297,6.33,4.297,10.478
	c0,4.109-1.43,7.596-4.288,10.458c-2.857,2.862-6.343,4.294-10.455,4.294c-4.163,0-7.677-1.425-10.541-4.274
	c-2.865-2.851-4.297-6.298-4.297-10.345c0-2.697,0.652-5.197,1.957-7.5s3.084-4.106,5.338-5.411
	C435.13,11.571,437.568,10.919,440.191,10.919z M440.315,13.648c-2.077,0-4.047,0.541-5.907,1.624s-3.313,2.541-4.358,4.374
	c-1.045,1.834-1.567,3.877-1.567,6.13c0,3.337,1.156,6.154,3.47,8.453c2.312,2.298,5.101,3.446,8.363,3.446
	c2.179,0,4.195-0.528,6.05-1.585c1.854-1.057,3.3-2.502,4.339-4.336c1.038-1.833,1.558-3.87,1.558-6.111
	c0-2.229-0.52-4.243-1.558-6.045c-1.039-1.802-2.501-3.244-4.387-4.326C444.431,14.189,442.431,13.648,440.315,13.648z"/>
<path fill="#FFFFFF" d="M462.767,39.698V11.625h0.61l18.684,21.52v-21.52h2.768v28.073h-0.63L465.667,18.44v21.258H462.767z"/>
<line fill="none" stroke="#CFB7A1" x1="89.125" y1="18.182" x2="74.45" y2="24.375"/>
<line fill="none" stroke="#602E1A" x1="80.434" y1="13.461" x2="72.229" y2="20.417"/>
<line fill="none" stroke="#CFB7A1" x1="41.809" y1="8.852" x2="54.681" y2="20.264"/>
<line fill="none" stroke="#602E1A" x1="52.753" y1="7.662" x2="58.194" y2="16.939"/>
<line fill="none" stroke="#CFB7A1" x1="76.699" y1="4.725" x2="69.475" y2="18.059"/>
<line fill="none" stroke="#602E1A" x1="67.884" y1="5.371" x2="65.705" y2="15.903"/>
<line fill="none" stroke="#CFB7A1" x1="60.177" y1="0.462" x2="61.51" y2="15.532"/>
<line fill="none" stroke="#602E1A" x1="43.071" y1="19.5" x2="53.092" y2="23.398"/>
<line fill="none" stroke="#CFB7A1" x1="51.735" y1="25.756" x2="36.048" y2="22.995"/>
<path fill="#FFFFFF" d="M26.599,28.262H11.964c0.073,3.111,0.654,5.308,1.745,6.587c1.25,1.439,2.843,2.159,4.777,2.159
	c2.85,0,5.14-1.621,6.87-4.864l1.418,0.611c-2.123,4.129-5.191,6.193-9.204,6.193c-2.734,0-5.035-0.988-6.903-2.966
	c-1.869-1.978-2.803-4.507-2.803-7.59c0-3.315,0.919-5.994,2.759-8.038c1.839-2.043,4.104-3.064,6.794-3.064
	c1.978,0,3.686,0.509,5.125,1.527c1.439,1.018,2.522,2.479,3.25,4.384C26.301,24.539,26.57,26.226,26.599,28.262z M11.964,26.713
	h8.855c0.523,0,0.931-0.178,1.222-0.534c0.291-0.356,0.436-0.963,0.436-1.821c0-1.6-0.498-2.959-1.494-4.079
	c-0.996-1.119-2.17-1.679-3.522-1.679c-1.512,0-2.795,0.676-3.85,2.028C12.556,21.98,12.007,24.009,11.964,26.713z"/>
<path fill="#FFFFFF" d="M28.867,17.901h10.055v1.483c-1.338,0.029-2.192,0.149-2.563,0.36c-0.371,0.211-0.556,0.513-0.556,0.905
	c0,0.32,0.073,0.64,0.219,0.959l5.419,12.062l4.931-11.695c0.072-0.203,0.109-0.407,0.109-0.609c0-1.06-1.044-1.721-3.131-1.982
	v-1.483h8.463v1.483c-0.858,0.087-1.542,0.32-2.05,0.698c-0.509,0.378-0.902,0.887-1.178,1.527l-7.488,17.339h-1.179l-8.041-17.819
	c-0.291-0.64-0.644-1.086-1.058-1.341c-0.414-0.254-1.065-0.389-1.952-0.403V17.901z"/>
<path fill="#FFFFFF" d="M72.925,28.262H58.29c0.073,3.111,0.654,5.308,1.745,6.587c1.25,1.439,2.843,2.159,4.777,2.159
	c2.85,0,5.14-1.621,6.87-4.864l1.418,0.611c-2.123,4.129-5.191,6.193-9.204,6.193c-2.734,0-5.035-0.988-6.903-2.966
	c-1.869-1.978-2.803-4.507-2.803-7.59c0-3.315,0.919-5.994,2.759-8.038c1.839-2.043,4.104-3.064,6.794-3.064
	c1.978,0,3.686,0.509,5.125,1.527c1.439,1.018,2.522,2.479,3.25,4.384C72.627,24.539,72.896,26.226,72.925,28.262z M58.29,26.713
	h8.855c0.523,0,0.931-0.178,1.222-0.534c0.291-0.356,0.436-0.963,0.436-1.821c0-1.6-0.498-2.959-1.494-4.079
	c-0.996-1.119-2.17-1.679-3.522-1.679c-1.512,0-2.795,0.676-3.85,2.028C58.882,21.98,58.333,24.009,58.29,26.713z"/>
<path fill="#FFFFFF" d="M75.761,17.901l7.35-0.371v8.267c0.785-2.719,1.73-4.777,2.835-6.173c1.105-1.396,2.472-2.094,4.101-2.094
	c1.104,0,1.988,0.338,2.65,1.014s0.992,1.582,0.992,2.715c0,0.917-0.222,1.629-0.665,2.138c-0.444,0.51-1,0.764-1.668,0.764
	c-0.654,0-1.182-0.218-1.582-0.654s-0.6-1.025-0.6-1.767c0-0.48,0.116-0.93,0.349-1.352c0.218-0.378,0.327-0.604,0.327-0.676
	c0-0.218-0.139-0.327-0.415-0.327c-0.596,0-1.272,0.349-2.028,1.047c-1.047,0.974-1.854,2.312-2.421,4.013
	c-0.873,2.646-1.309,4.763-1.309,6.348v4.384c0,0.494,0.175,0.872,0.524,1.134c0.349,0.262,0.945,0.393,1.788,0.393h2.596v1.636
	H75.892v-1.636h2.028c0.683,0,1.2-0.135,1.548-0.403c0.349-0.27,0.523-0.593,0.523-0.971V22.308c0-0.989-0.211-1.713-0.632-2.171
	c-0.422-0.458-1.025-0.687-1.81-0.687h-1.789V17.901z"/>
<path fill="#FFFFFF" d="M95.456,17.901h9.793v1.483h-0.916c-0.858,0-1.443,0.113-1.756,0.338c-0.313,0.226-0.469,0.549-0.469,0.971
	c0,0.189,0.043,0.378,0.131,0.567l5.693,12.28l4.23-10.186c0.305-0.728,0.458-1.439,0.458-2.138c0-0.538-0.211-0.956-0.632-1.254
	c-0.422-0.298-1.265-0.491-2.53-0.578v-1.483h8.506v1.483c-1.644,0.16-2.748,0.894-3.315,2.203l-7.561,17.591
	c-1.285,2.988-2.574,5.042-3.868,6.161c-1.309,1.135-2.712,1.701-4.209,1.701c-1.091,0-1.967-0.298-2.628-0.894
	c-0.662-0.597-0.992-1.331-0.992-2.203c0-0.654,0.203-1.192,0.61-1.614s0.917-0.633,1.527-0.633c0.553,0,1.018,0.182,1.396,0.546
	c0.378,0.363,0.567,0.8,0.567,1.309c0,0.16-0.029,0.378-0.087,0.654c-0.059,0.218-0.087,0.378-0.087,0.479
	c0,0.35,0.225,0.523,0.676,0.523c0.48,0,1.021-0.174,1.625-0.523c0.603-0.349,1.167-0.908,1.69-1.679
	c0.524-0.771,1.441-2.479,2.753-5.122L98.305,21.26c-0.275-0.581-0.62-1.014-1.033-1.297c-0.413-0.284-1.019-0.476-1.816-0.578
	V17.901z"/>
<path fill="#FFFFFF" d="M131.487,6.08l7.983-0.371v27.962c0,1.09,0.207,1.868,0.622,2.333c0.414,0.466,1.036,0.698,1.865,0.698
	h1.417v1.636h-6.979l-0.523-4.166c-0.829,1.483-1.799,2.6-2.912,3.348c-1.112,0.75-2.359,1.124-3.741,1.124
	c-2.327,0-4.308-0.975-5.943-2.923s-2.454-4.521-2.454-7.721c0-3.461,1.047-6.224,3.141-8.289c1.643-1.614,3.533-2.421,5.671-2.421
	c1.309,0,2.483,0.327,3.522,0.981s1.944,1.643,2.715,2.966V9.7c0-0.611-0.236-1.094-0.708-1.45
	c-0.473-0.356-1.211-0.535-2.214-0.535h-1.461V6.08z M130.222,19.101c-1.57,0-2.817,0.647-3.741,1.941
	c-0.923,1.295-1.385,3.476-1.385,6.543c0,3.33,0.472,5.675,1.417,7.034s2.16,2.039,3.643,2.039c1.585,0,2.941-0.76,4.068-2.278
	c1.126-1.52,1.69-3.741,1.69-6.664c0-2.762-0.604-4.936-1.811-6.521C133.058,19.799,131.763,19.101,130.222,19.101z"/>
<path fill="#FFFFFF" d="M167.148,36.092l0.785,1.221c-1.062,1.091-2.239,1.636-3.533,1.636c-0.989,0-1.821-0.269-2.498-0.807
	s-1.269-1.483-1.778-2.835c-1.381,1.454-2.595,2.424-3.642,2.911s-2.305,0.73-3.773,0.73c-2.094,0-3.686-0.45-4.776-1.352
	c-1.091-0.901-1.636-2.058-1.636-3.468c0-2.123,1.247-3.886,3.74-5.289s5.812-2.338,9.957-2.803v-3.098
	c0-1.105-0.443-2.05-1.33-2.835c-0.887-0.785-2.014-1.178-3.381-1.178c-1.265,0-2.355,0.262-3.271,0.785
	c-0.654,0.393-0.981,0.778-0.981,1.156c0,0.218,0.174,0.56,0.523,1.025c0.421,0.582,0.632,1.099,0.632,1.549
	c0,0.654-0.211,1.188-0.632,1.603c-0.422,0.415-0.975,0.622-1.658,0.622c-0.728,0-1.334-0.247-1.821-0.741
	c-0.487-0.494-0.73-1.127-0.73-1.897c0-1.44,0.81-2.756,2.432-3.948c1.621-1.192,3.748-1.789,6.38-1.789
	c2.428,0,4.282,0.523,5.562,1.57c1.279,1.062,1.919,2.348,1.919,3.861v11.167c0,0.989,0.16,1.716,0.48,2.181
	c0.319,0.48,0.734,0.72,1.243,0.72C165.926,36.789,166.522,36.557,167.148,36.092z M159.994,27.477
	c-3.693,0.509-6.311,1.338-7.852,2.486c-1.149,0.872-1.723,2.108-1.723,3.708c0,1.119,0.298,1.995,0.894,2.628
	c0.596,0.632,1.374,0.948,2.334,0.948c1.715,0,3.202-0.65,4.46-1.952c1.257-1.301,1.886-2.933,1.886-4.896V27.477z"/>
<path fill="#FFFFFF" d="M169.94,17.901h9.793v1.483h-0.916c-0.858,0-1.443,0.113-1.756,0.338c-0.313,0.226-0.469,0.549-0.469,0.971
	c0,0.189,0.043,0.378,0.131,0.567l5.693,12.28l4.23-10.186c0.305-0.728,0.458-1.439,0.458-2.138c0-0.538-0.211-0.956-0.632-1.254
	c-0.422-0.298-1.265-0.491-2.53-0.578v-1.483h8.506v1.483c-1.644,0.16-2.748,0.894-3.315,2.203l-7.561,17.591
	c-1.285,2.988-2.574,5.042-3.868,6.161c-1.309,1.135-2.712,1.701-4.209,1.701c-1.091,0-1.967-0.298-2.628-0.894
	c-0.662-0.597-0.992-1.331-0.992-2.203c0-0.654,0.203-1.192,0.61-1.614s0.917-0.633,1.527-0.633c0.553,0,1.018,0.182,1.396,0.546
	c0.378,0.363,0.567,0.8,0.567,1.309c0,0.16-0.029,0.378-0.087,0.654c-0.059,0.218-0.087,0.378-0.087,0.479
	c0,0.35,0.225,0.523,0.676,0.523c0.48,0,1.021-0.174,1.625-0.523c0.603-0.349,1.167-0.908,1.69-1.679
	c0.524-0.771,1.441-2.479,2.753-5.122l-7.756-16.624c-0.275-0.581-0.62-1.014-1.033-1.297c-0.413-0.284-1.019-0.476-1.816-0.578
	V17.901z"/>
</svg>
