<?xml version="1.0" encoding="utf-8"?>
<!-- Generator: Adobe Illustrator 14.0.0, SVG Export Plug-In  -->
<!DOCTYPE svg PUBLIC "-//W3C//DTD SVG 1.1//EN" "http://www.w3.org/Graphics/SVG/1.1/DTD/svg11.dtd" [
	<!ENTITY ns_flows "http://ns.adobe.com/Flows/1.0/">
]>
<svg version="1.1"
	 xmlns="http://www.w3.org/2000/svg" xmlns:xlink="http://www.w3.org/1999/xlink" xmlns:a="http://ns.adobe.com/AdobeSVGViewerExtensions/3.0/"
	 x="0px" y="0px" width="495px" height="65px" viewBox="-0.548 -0.5 495 65" enable-background="new -0.548 -0.5 495 65"
	 xml:space="preserve">
<defs>
</defs>
<rect fill="#010101" width="268.495" height="63.934"/>
<rect x="266.967" fill="#D66C29" width="228.484" height="63.934"/>
<path fill="#FFFFFF" d="M273.656,24.226h2.142v21.43h-2.142V24.226z"/>
<path fill="#FFFFFF" d="M282.213,45.656v-21.43h0.467l14.262,16.427V24.226h2.112v21.43h-0.48l-14.146-16.227v16.227H282.213z"/>
<path fill="#FFFFFF" d="M333.319,15.042l14.276,30.614h-3.304l-4.815-10.072h-13.188l-4.77,10.072h-3.413l14.465-30.614H333.319z
	 M332.932,21.546l-5.246,11.082h10.467L332.932,21.546z"/>
<path fill="#FFFFFF" d="M382.984,20.724l-2.414,1.853c-1.332-1.734-2.931-3.049-4.797-3.944c-1.866-0.895-3.916-1.343-6.15-1.343
	c-2.441,0-4.703,0.586-6.784,1.759s-3.694,2.747-4.839,4.724s-1.717,4.201-1.717,6.67c0,3.733,1.279,6.847,3.84,9.344
	c2.56,2.498,5.789,3.746,9.688,3.746c4.287,0,7.874-1.679,10.76-5.036l2.414,1.831c-1.526,1.943-3.431,3.444-5.713,4.506
	s-4.832,1.593-7.648,1.593c-5.355,0-9.58-1.783-12.674-5.349c-2.595-3.011-3.892-6.646-3.892-10.906
	c0-4.481,1.571-8.252,4.714-11.312c3.143-3.059,7.079-4.589,11.811-4.589c2.857,0,5.438,0.565,7.742,1.696
	C379.626,17.099,381.513,18.684,382.984,20.724z"/>
<path fill="#FFFFFF" d="M388.215,18.039v-2.997h16.774v2.997h-6.826v27.617h-3.122V18.039H388.215z"/>
<path fill="#FFFFFF" d="M411.096,15.042h3.06v30.614h-3.06V15.042z"/>
<path fill="#FFFFFF" d="M437.878,14.272c4.637,0,8.518,1.547,11.642,4.641c3.123,3.094,4.686,6.903,4.686,11.426
	c0,4.481-1.559,8.283-4.676,11.404c-3.116,3.122-6.917,4.684-11.401,4.684c-4.54,0-8.372-1.555-11.495-4.662
	c-3.124-3.108-4.687-6.868-4.687-11.28c0-2.941,0.712-5.667,2.135-8.179c1.423-2.511,3.363-4.478,5.82-5.9
	C432.36,14.983,435.018,14.272,437.878,14.272z M438.014,17.248c-2.266,0-4.413,0.59-6.441,1.771
	c-2.029,1.181-3.613,2.771-4.753,4.77c-1.14,2-1.709,4.228-1.709,6.686c0,3.638,1.261,6.71,3.783,9.216
	c2.521,2.507,5.562,3.76,9.12,3.76c2.376,0,4.575-0.576,6.598-1.729c2.021-1.152,3.599-2.729,4.731-4.729
	c1.133-1.999,1.699-4.221,1.699-6.665c0-2.43-0.566-4.627-1.699-6.592s-2.728-3.537-4.784-4.718
	C442.502,17.838,440.321,17.248,438.014,17.248z"/>
<path fill="#FFFFFF" d="M462.498,45.656V15.042h0.666l20.375,23.468V15.042h3.018v30.614h-0.687l-20.209-23.182v23.182H462.498z"/>
<path fill="#FFFFFF" d="M29.354,34.889H13.395c0.079,3.395,0.713,5.788,1.903,7.184c1.363,1.57,3.1,2.354,5.208,2.354
	c3.108,0,5.605-1.768,7.493-5.304l1.546,0.666c-2.315,4.504-5.661,6.755-10.037,6.755c-2.981,0-5.491-1.078-7.528-3.234
	s-3.056-4.916-3.056-8.277c0-3.616,1.002-6.537,3.009-8.765c2.006-2.228,4.475-3.342,7.409-3.342c2.156,0,4.02,0.555,5.589,1.665
	c1.57,1.11,2.751,2.704,3.544,4.781C29.029,30.83,29.323,32.669,29.354,34.889z M13.395,33.201h9.657
	c0.571,0,1.014-0.195,1.332-0.583s0.476-1.05,0.476-1.986c0-1.744-0.543-3.227-1.629-4.448c-1.086-1.221-2.367-1.832-3.841-1.832
	c-1.649,0-3.048,0.737-4.198,2.212C14.041,28.039,13.442,30.251,13.395,33.201z"/>
<path fill="#FFFFFF" d="M32.352,23.591h10.751v1.641c-1.742,0.063-2.613,0.373-2.613,0.926c0,0.253,0.143,0.578,0.428,0.974
	l3.84,5.095l3.768-4.711c0.27-0.349,0.404-0.682,0.404-0.999c0-0.682-0.959-1.11-2.878-1.285v-1.641h9.395v1.641
	c-2.258,0.367-3.988,1.316-5.188,2.848l-4.385,5.476l6.885,8.921c0.459,0.587,0.959,1.003,1.499,1.249
	c0.539,0.246,1.332,0.368,2.378,0.368v1.784H45.243v-1.784h0.809c0.84,0,1.458-0.087,1.855-0.262c0.253-0.126,0.38-0.285,0.38-0.476
	c0-0.174-0.151-0.467-0.452-0.88l-4.461-5.903l-3.589,4.605c-0.508,0.648-0.761,1.169-0.761,1.564s0.174,0.695,0.523,0.9
	c0.489,0.285,1.318,0.435,2.485,0.45v1.784h-9.681v-1.784c1.173-0.11,2.077-0.356,2.711-0.737c1.047-0.649,1.99-1.498,2.831-2.545
	l4.428-5.612l-6.544-8.468c-0.729-0.951-1.872-1.451-3.425-1.499V23.591z"/>
<path fill="#FFFFFF" d="M66.029,23.187c0.35,1.665,0.557,3.267,0.621,4.805c1.092-1.744,2.24-2.981,3.444-3.71
	c1.203-0.729,2.518-1.094,3.942-1.094c1.52,0,2.973,0.468,4.358,1.403c1.386,0.936,2.51,2.307,3.373,4.115
	c0.863,1.808,1.294,3.846,1.294,6.113c0,3.631-1.06,6.588-3.178,8.871c-1.755,1.903-3.857,2.854-6.308,2.854
	c-1.392,0-2.649-0.356-3.771-1.07c-1.123-0.714-2.118-1.775-2.988-3.188v9.015c0,0.697,0.167,1.189,0.5,1.475
	c0.428,0.381,1.023,0.571,1.784,0.571h1.641v1.688H58.824v-1.688h1.642c0.761,0,1.332-0.151,1.712-0.452
	c0.38-0.302,0.571-0.698,0.571-1.189V28.253c0-1.094-0.262-1.867-0.785-2.319c-0.523-0.452-1.57-0.702-3.14-0.749v-1.594
	L66.029,23.187z M72.939,25.352c-1.725,0-3.185,0.833-4.379,2.498c-1.195,1.665-1.792,4.075-1.792,7.231
	c0,3.187,0.578,5.541,1.732,7.063c1.155,1.522,2.627,2.283,4.416,2.283c1.677,0,2.967-0.649,3.869-1.95
	c1.155-1.712,1.733-4.218,1.733-7.516c0-3.457-0.523-5.923-1.567-7.397C75.907,26.089,74.569,25.352,72.939,25.352z"/>
<path fill="#FFFFFF" d="M107.845,34.889H91.885c0.079,3.395,0.713,5.788,1.903,7.184c1.363,1.57,3.1,2.354,5.208,2.354
	c3.108,0,5.605-1.768,7.493-5.304l1.546,0.666c-2.315,4.504-5.661,6.755-10.037,6.755c-2.981,0-5.491-1.078-7.528-3.234
	s-3.056-4.916-3.056-8.277c0-3.616,1.002-6.537,3.009-8.765c2.006-2.228,4.475-3.342,7.409-3.342c2.156,0,4.02,0.555,5.589,1.665
	c1.57,1.11,2.751,2.704,3.544,4.781C107.52,30.83,107.813,32.669,107.845,34.889z M91.885,33.201h9.657
	c0.571,0,1.014-0.195,1.332-0.583s0.476-1.05,0.476-1.986c0-1.744-0.543-3.227-1.629-4.448c-1.086-1.221-2.367-1.832-3.841-1.832
	c-1.649,0-3.048,0.737-4.198,2.212C92.531,28.039,91.933,30.251,91.885,33.201z"/>
<path fill="#FFFFFF" d="M110.937,23.591l8.016-0.404v9.015c0.856-2.965,1.887-5.209,3.092-6.731
	c1.205-1.522,2.696-2.283,4.472-2.283c1.205,0,2.168,0.369,2.89,1.106c0.721,0.737,1.082,1.725,1.082,2.961
	c0,0.999-0.242,1.776-0.726,2.331c-0.484,0.555-1.09,0.832-1.819,0.832c-0.714,0-1.289-0.238-1.725-0.713s-0.654-1.118-0.654-1.927
	c0-0.523,0.126-1.014,0.38-1.475c0.238-0.412,0.357-0.658,0.357-0.737c0-0.238-0.151-0.356-0.452-0.356
	c-0.65,0-1.388,0.38-2.212,1.142c-1.142,1.062-2.022,2.521-2.64,4.376c-0.951,2.886-1.427,5.193-1.427,6.921v4.78
	c0,0.54,0.19,0.952,0.571,1.237c0.381,0.285,1.031,0.428,1.951,0.428h2.83v1.784H111.08v-1.784h2.212
	c0.745,0,1.309-0.146,1.689-0.439c0.38-0.294,0.571-0.646,0.571-1.059v-14.2c0-1.078-0.23-1.867-0.69-2.367
	s-1.118-0.749-1.974-0.749h-1.95V23.591z"/>
<path fill="#FFFFFF" d="M147.828,23.591l6.375-0.404c0.349,1.658,0.579,3.236,0.689,4.735c1.207-1.736,2.414-2.959,3.621-3.67
	c1.207-0.71,2.533-1.065,3.979-1.065c1.54,0,2.811,0.403,3.812,1.208s1.771,2.116,2.311,3.932c1.061-1.722,2.24-3.008,3.539-3.861
	c1.298-0.853,2.715-1.279,4.25-1.279c2.027,0,3.547,0.603,4.56,1.808c1.298,1.586,1.948,3.631,1.948,6.137v11.06
	c0,0.666,0.167,1.118,0.499,1.355c0.444,0.365,1.102,0.547,1.975,0.547h1.118v1.784h-11.203v-1.784h1.118
	c0.952,0,1.618-0.158,1.998-0.476s0.571-0.794,0.571-1.43V31.114c0-1.651-0.403-2.929-1.21-3.834
	c-0.807-0.905-1.867-1.357-3.179-1.357c-0.997,0-1.898,0.266-2.705,0.798c-0.807,0.532-1.44,1.29-1.898,2.274
	c-0.68,1.414-1.02,2.612-1.02,3.597v9.598c0,0.651,0.174,1.132,0.523,1.441s0.888,0.464,1.618,0.464h1.522v1.784h-11.369v-1.784
	h1.284c0.809,0,1.411-0.158,1.808-0.476c0.396-0.316,0.595-0.721,0.595-1.213V32.13c0-2.172-0.384-3.75-1.153-4.733
	c-0.77-0.983-1.804-1.475-3.104-1.475c-1.681,0-2.973,0.571-3.877,1.712c-1.285,1.618-1.927,3.505-1.927,5.661v8.896
	c0,0.682,0.151,1.149,0.452,1.403c0.428,0.333,1.094,0.499,1.998,0.499h1.142v1.784h-11.227v-1.784h1.688
	c0.634,0,1.122-0.158,1.463-0.476c0.341-0.316,0.511-0.721,0.511-1.213V27.801c0-0.809-0.206-1.411-0.618-1.808
	c-0.413-0.396-1.237-0.65-2.474-0.761V23.591z"/>
<path fill="#FFFFFF" d="M210.667,34.889h-15.959c0.079,3.395,0.713,5.788,1.903,7.184c1.363,1.57,3.1,2.354,5.208,2.354
	c3.108,0,5.605-1.768,7.493-5.304l1.546,0.666c-2.315,4.504-5.661,6.755-10.037,6.755c-2.981,0-5.491-1.078-7.528-3.234
	s-3.056-4.916-3.056-8.277c0-3.616,1.002-6.537,3.009-8.765c2.006-2.228,4.475-3.342,7.409-3.342c2.156,0,4.02,0.555,5.589,1.665
	c1.57,1.11,2.751,2.704,3.544,4.781C210.342,30.83,210.635,32.669,210.667,34.889z M194.708,33.201h9.657
	c0.571,0,1.014-0.195,1.332-0.583s0.476-1.05,0.476-1.986c0-1.744-0.543-3.227-1.629-4.448c-1.086-1.221-2.367-1.832-3.841-1.832
	c-1.649,0-3.048,0.737-4.198,2.212C195.354,28.039,194.755,30.251,194.708,33.201z"/>
<path fill="#FFFFFF" d="M214.116,23.591l7.397-0.452c0.301,1.396,0.523,3.029,0.666,4.899c0.999-1.617,2.176-2.83,3.532-3.639
	c1.355-0.809,2.89-1.213,4.602-1.213c1.475,0,2.711,0.29,3.71,0.868c0.999,0.579,1.8,1.495,2.402,2.747
	c0.603,1.253,0.904,2.656,0.904,4.21v10.846c0,0.809,0.182,1.384,0.547,1.725c0.364,0.341,0.975,0.511,1.831,0.511h1.57v1.784
	h-11.75v-1.784h1.118c1.047,0,1.776-0.166,2.188-0.499c0.412-0.333,0.618-0.833,0.618-1.499v-9.537c0-2.077-0.317-3.616-0.951-4.615
	c-0.888-1.427-2.236-2.141-4.043-2.141c-1.792,0-3.287,0.722-4.483,2.165c-1.198,1.443-1.796,3.322-1.796,5.638v8.253
	c0,0.809,0.186,1.384,0.559,1.725c0.372,0.341,0.987,0.511,1.843,0.511h1.546v1.784H214.33v-1.784h1.546
	c0.777,0,1.368-0.158,1.772-0.476c0.404-0.316,0.606-0.713,0.606-1.189v-14.39c0-0.951-0.258-1.672-0.773-2.164
	s-1.257-0.737-2.224-0.737h-1.142V23.591z"/>
<path fill="#FFFFFF" d="M249.747,14.505h1.594v9.086h7.205v2.188h-7.205v14.294c0,1.237,0.293,2.185,0.879,2.843
	s1.332,0.986,2.236,0.986c1.078,0,1.998-0.499,2.758-1.498c0.762-0.999,1.205-2.647,1.332-4.947h1.594
	c-0.094,2.966-0.77,5.165-2.021,6.601s-2.877,2.152-4.875,2.152c-1.84,0-3.279-0.503-4.316-1.511
	c-1.04-1.007-1.559-2.326-1.559-3.96V25.78h-3.877v-1.665c1.767-0.301,3.112-1.039,4.035-2.212
	C248.895,20.143,249.635,17.677,249.747,14.505z"/>
<path fill="#D66C29" d="M134.729,20.092c0,0,1.046,0.694,1.221,1.621c0.174,0.927,0,11.861,0,11.861l-7.149,14.198
	c0,0-2.006,6.062,0.958,7.066c2.965,1.005,17.09,0.58,18.659,0c1.57-0.579,3.401-2.664,2.092-5.676
	c-1.307-3.012-7.847-15.589-7.847-15.589V22.413c0,0,0.175-1.976,0.698-2.321C143.885,19.743,134.729,20.092,134.729,20.092z"/>
<path fill="#FAA51A" d="M128.263,52.385c0,0,0.075-6.635,5.154-10.92c5.081-4.286,3.196-8.636,3.196-8.636s2.079,4.225-0.555,10.196
	C133.425,48.992,128.263,52.385,128.263,52.385z"/>
<circle fill="#FAA51A" cx="143.046" cy="9.862" r="1.274"/>
<circle fill="#D66C29" cx="136.511" cy="9.862" r="3.664"/>
<circle fill="#FAA51A" cx="135.02" cy="11.05" r="1.556"/>
<circle fill="#FAA51A" cx="139.245" cy="16.169" r="1.354"/>
</svg>
