<?xml version="1.0" encoding="utf-8"?>
<!-- Generator: Adobe Illustrator 19.1.0, SVG Export Plug-In . SVG Version: 6.00 Build 0)  -->
<svg version="1.1"
	 id="svg3453" xmlns:sodipodi="http://sodipodi.sourceforge.net/DTD/sodipodi-0.dtd" xmlns:svg="http://www.w3.org/2000/svg" xmlns:inkscape="http://www.inkscape.org/namespaces/inkscape" xmlns:rdf="http://www.w3.org/1999/02/22-rdf-syntax-ns#" xmlns:dc="http://purl.org/dc/elements/1.1/" xmlns:cc="http://creativecommons.org/ns#" inkscape:version="0.48.3.1 r9886" sodipodi:docname="CNX_BioMaj_Career.svg"
	 xmlns="http://www.w3.org/2000/svg" xmlns:xlink="http://www.w3.org/1999/xlink" x="0px" y="0px" viewBox="-89 375.4 351.5 45.3"
	 style="enable-background:new -89 375.4 351.5 45.3;" xml:space="preserve">
<style type="text/css">
	.st0{fill:#010101;}
	.st1{fill:#005273;}
	.st2{fill:#FFFFFF;}
	.st3{fill:#8190A7;}
</style>
<sodipodi:namedview  showgrid="false" borderopacity="1" pagecolor="#ffffff" guidetolerance="10" inkscape:cy="32" gridtolerance="10" bordercolor="#666666" showguides="true" inkscape:cx="216.5" id="namedview3493" inkscape:zoom="1.4254587" objecttolerance="10" inkscape:guide-bbox="true" inkscape:window-x="1425" inkscape:pageopacity="0" inkscape:window-y="24" inkscape:window-maximized="1" inkscape:current-layer="svg3453" inkscape:pageshadow="2" inkscape:window-width="1615" inkscape:window-height="1026">
	<sodipodi:guide  position="351.46581,165.56074" id="guide3497" orientation="1,0"></sodipodi:guide>
	<sodipodi:guide  position="11.224457,-108.0354" id="guide3519" orientation="1,0"></sodipodi:guide>
	<sodipodi:guide  position="338.8383,-236.41513" id="guide3521" orientation="1,0"></sodipodi:guide>
</sodipodi:namedview>
<g id="g3499" transform="matrix(0.81263771,0,0,0.81263771,0,10.43608)">
	<rect id="rect3457" x="-109.5" y="459.9" class="st0" width="182" height="45"/>
	<rect id="rect3459" x="63.8" y="459.9" class="st1" width="259.2" height="45"/>
	<path id="path3461" inkscape:connector-curvature="0" class="st2" d="M100,475.8l-1.8,1.4c-1-1.3-2.2-2.3-3.6-3c-1.4-0.7-3-1-4.7-1
		c-1.9,0-3.6,0.4-5.2,1.3c-1.6,0.9-2.8,2.1-3.7,3.6s-1.3,3.2-1.3,5.1c0,2.8,1,5.2,2.9,7.1s4.4,2.8,7.4,2.8c3.3,0,6-1.3,8.2-3.8
		l1.8,1.4c-1.2,1.5-2.6,2.6-4.3,3.4c-1.7,0.8-3.7,1.2-5.8,1.2c-4.1,0-7.3-1.4-9.6-4.1c-2-2.3-3-5.1-3-8.3c0-3.4,1.2-6.3,3.6-8.6
		c2.4-2.3,5.4-3.5,9-3.5c2.2,0,4.1,0.4,5.9,1.3C97.4,473.1,98.9,474.3,100,475.8L100,475.8z"/>
	<path id="path3463" inkscape:connector-curvature="0" class="st2" d="M117.3,470.9c3.5,0,6.5,1.2,8.8,3.5c2.4,2.4,3.6,5.2,3.6,8.7
		c0,3.4-1.2,6.3-3.6,8.7c-2.4,2.4-5.3,3.6-8.7,3.6c-3.5,0-6.4-1.2-8.7-3.5c-2.4-2.4-3.6-5.2-3.6-8.6c0-2.2,0.5-4.3,1.6-6.2
		s2.6-3.4,4.4-4.5C113.2,471.5,115.2,470.9,117.3,470.9z M117.5,473.2c-1.7,0-3.4,0.4-4.9,1.3c-1.5,0.9-2.7,2.1-3.6,3.6
		c-0.9,1.5-1.3,3.2-1.3,5.1c0,2.8,1,5.1,2.9,7s4.2,2.9,6.9,2.9c1.8,0,3.5-0.4,5-1.3s2.7-2.1,3.6-3.6c0.9-1.5,1.3-3.2,1.3-5.1
		c0-1.8-0.4-3.5-1.3-5c-0.9-1.5-2.1-2.7-3.6-3.6C120.9,473.6,119.2,473.2,117.5,473.2L117.5,473.2z"/>
	<path id="path3465" inkscape:connector-curvature="0" class="st2" d="M136.1,494.8v-23.3h0.5l15.5,17.8v-17.8h2.3v23.3h-0.5
		l-15.4-17.6v17.6H136.1z"/>
	<path id="path3467" inkscape:connector-curvature="0" class="st2" d="M161.7,494.8v-23.3h0.5l15.5,17.8v-17.8h2.3v23.3h-0.5
		l-15.4-17.6v17.6H161.7z"/>
	<path id="path3469" inkscape:connector-curvature="0" class="st2" d="M187.2,471.5h13.3v2.3h-11v7.3h11v2.3h-10.9v9.1h10.9v2.3
		h-13.2L187.2,471.5L187.2,471.5z"/>
	<path id="path3471" inkscape:connector-curvature="0" class="st2" d="M227.9,475.8l-1.8,1.4c-1-1.3-2.2-2.3-3.6-3
		c-1.4-0.7-3-1-4.7-1c-1.9,0-3.6,0.4-5.2,1.3c-1.6,0.9-2.8,2.1-3.7,3.6c-0.9,1.5-1.3,3.2-1.3,5.1c0,2.8,1,5.2,2.9,7.1
		s4.4,2.8,7.4,2.8c3.3,0,6-1.3,8.2-3.8l1.8,1.4c-1.2,1.5-2.6,2.6-4.3,3.4c-1.7,0.8-3.7,1.2-5.8,1.2c-4.1,0-7.3-1.4-9.6-4.1
		c-2-2.3-3-5.1-3-8.3c0-3.4,1.2-6.3,3.6-8.6c2.4-2.3,5.4-3.5,9-3.5c2.2,0,4.1,0.4,5.9,1.3C225.3,473.1,226.8,474.3,227.9,475.8z"/>
	<path id="path3473" inkscape:connector-curvature="0" class="st2" d="M231.9,473.8v-2.3h12.8v2.3h-5.2v21h-2.4v-21
		C237.1,473.8,231.9,473.8,231.9,473.8z"/>
	<path id="path3475" inkscape:connector-curvature="0" class="st2" d="M249.3,471.5h2.3v23.3h-2.3V471.5z"/>
	<path id="path3477" inkscape:connector-curvature="0" class="st2" d="M269.6,470.9c3.5,0,6.5,1.2,8.8,3.5c2.4,2.4,3.6,5.2,3.6,8.7
		c0,3.4-1.2,6.3-3.6,8.7s-5.3,3.6-8.7,3.6c-3.5,0-6.4-1.2-8.7-3.5c-2.4-2.4-3.6-5.2-3.6-8.6c0-2.2,0.5-4.3,1.6-6.2s2.6-3.4,4.4-4.5
		C265.4,471.5,267.4,470.9,269.6,470.9L269.6,470.9z M269.7,473.2c-1.7,0-3.4,0.4-4.9,1.3c-1.5,0.9-2.7,2.1-3.6,3.6
		s-1.3,3.2-1.3,5.1c0,2.8,1,5.1,2.9,7s4.2,2.9,6.9,2.9c1.8,0,3.5-0.4,5-1.3s2.7-2.1,3.6-3.6s1.3-3.2,1.3-5.1c0-1.8-0.4-3.5-1.3-5
		c-0.9-1.5-2.1-2.7-3.6-3.6C273.1,473.6,271.5,473.2,269.7,473.2z"/>
	<path id="path3479" inkscape:connector-curvature="0" class="st2" d="M288.3,494.8v-23.3h0.5l15.5,17.8v-17.8h2.3v23.3h-0.5
		l-15.4-17.6v17.6H288.3L288.3,494.8z"/>
	<path id="path3481" inkscape:connector-curvature="0" class="st2" d="M-75.8,488.1l1.7,0.5c-1.3,4.9-4.3,7.4-8.9,7.4
		c-3.4,0-6.1-1.1-8.2-3.3s-3.2-5.2-3.2-8.9c0-4.3,1.2-7.6,3.5-9.9c2.3-2.4,5.1-3.5,8.3-3.5c2.4,0,4.3,0.7,5.9,2s2.3,2.8,2.3,4.4
		c0,1-0.3,1.8-0.9,2.4s-1.3,0.9-2.1,0.9c-0.8,0-1.4-0.3-2-0.8c-0.5-0.5-0.8-1.2-0.8-1.9c0-0.8,0.3-1.5,0.9-2.2
		c0.3-0.3,0.4-0.6,0.4-0.8c0-0.5-0.3-1-1-1.5c-0.6-0.5-1.6-0.7-2.7-0.7c-2.1,0-3.7,0.8-4.8,2.3c-1.5,2.2-2.3,5.1-2.3,8.8
		c0,3.5,0.7,6.1,2.1,7.9c1.4,1.8,3.1,2.7,5.3,2.7C-79.4,493.8-77.2,491.9-75.8,488.1z"/>
	<path id="path3483" inkscape:connector-curvature="0" class="st2" d="M-45.2,492.6l0.9,1.4c-1.3,1.3-2.7,1.9-4.2,1.9
		c-1.2,0-2.2-0.3-3-1c-0.8-0.7-1.5-1.8-2.1-3.4c-1.6,1.7-3.1,2.9-4.3,3.5c-1.2,0.6-2.7,0.9-4.5,0.9c-2.5,0-4.4-0.5-5.7-1.6
		c-1.3-1.1-1.9-2.4-1.9-4.1c0-2.5,1.5-4.6,4.4-6.3s6.9-2.8,11.8-3.3v-3.7c0-1.3-0.5-2.4-1.6-3.4s-2.4-1.4-4-1.4
		c-1.5,0-2.8,0.3-3.9,0.9c-0.8,0.5-1.2,0.9-1.2,1.4c0,0.3,0.2,0.7,0.6,1.2c0.5,0.7,0.7,1.3,0.7,1.8c0,0.8-0.2,1.4-0.7,1.9
		s-1.2,0.7-2,0.7c-0.9,0-1.6-0.3-2.2-0.9c-0.6-0.6-0.9-1.3-0.9-2.2c0-1.7,1-3.3,2.9-4.7c1.9-1.4,4.4-2.1,7.6-2.1
		c2.9,0,5.1,0.6,6.6,1.9c1.5,1.3,2.3,2.8,2.3,4.6v13.2c0,1.2,0.2,2,0.6,2.6c0.4,0.6,0.9,0.9,1.5,0.9
		C-46.7,493.4-46,493.2-45.2,492.6z M-53.7,482.4c-4.4,0.6-7.5,1.6-9.3,2.9c-1.4,1-2,2.5-2,4.4c0,1.3,0.4,2.4,1.1,3.1
		c0.7,0.7,1.6,1.1,2.8,1.1c2,0,3.8-0.8,5.3-2.3c1.5-1.5,2.2-3.5,2.2-5.8L-53.7,482.4L-53.7,482.4z"/>
	<path id="path3485" inkscape:connector-curvature="0" class="st3" d="M-41.8,499.1c0,0-0.3-2.5,1.3-3.4c1.6-0.8,1.8-1,3-1
		c1.2,0,3.9,0,3.9,0s0.4-1,0.8-1c0.5,0-15.1-15-15.1-15s-0.2,0.7-1.3,0.7s-3.6-1-3.6-3.9c0-2.9,2.3-3.6,3.7-3.6
		c1.5,0,1.8,0.6,1.8,0.6l14.5-12.7c0,0-0.6-1.5-1.5-2.7c-0.8-1-1.3-1.9-0.2-2.6c1.1-0.7,1.7-2.1,1.7-2.1l-1.3-1.9l-0.2-1.3h1.5
		l1.4,2.4l1.9-1.1c0,0,1.1-0.4,1.9,0.2c0.8,0.6,2.5,3.1,2.5,3.1l-2.3,2.4l0.5,1.1c0,0,2.2-1.6,3.7-1.6c1.6,0,5.1,0.7,8.1,3
		c3,2.3,4.1,3.9,4.1,3.9l-18.1,13.1c0,0-2.1-1.2-2.8-4.4c-0.8-3.1-1.1-7.6-0.7-8.3c0.5-0.7-13.4,10.8-13.4,10.8s0.3,0.5,0,1.9
		c-0.3,1.3-0.5,1.9-0.5,1.9l16.1,15.1c0,0,1.5,0.7,1.9,1.3c0.5,0.6,1.3,1,1.3,1l4.6-0.2c0,0,1.6,0.4,2.4,1.2c0.8,0.8,1,3.1,1,3.1
		S-41.8,499.1-41.8,499.1z"/>
	<path id="path3487" inkscape:connector-curvature="0" class="st2" d="M-1.2,483.3h-17.3c0.1,3.7,0.8,6.3,2.1,7.8
		c1.5,1.7,3.4,2.6,5.7,2.6c3.4,0,6.1-1.9,8.1-5.8l1.7,0.7c-2.5,4.9-6.2,7.3-10.9,7.3c-3.2,0-6-1.2-8.2-3.5c-2.2-2.3-3.3-5.3-3.3-9
		c0-3.9,1.1-7.1,3.3-9.5c2.2-2.4,4.9-3.6,8.1-3.6c2.3,0,4.4,0.6,6.1,1.8c1.7,1.2,3,2.9,3.9,5.2C-1.6,478.9-1.2,480.9-1.2,483.3
		L-1.2,483.3z M-18.5,481.5H-8c0.6,0,1.1-0.2,1.4-0.6c0.3-0.4,0.5-1.1,0.5-2.2c0-1.9-0.6-3.5-1.8-4.8c-1.2-1.3-2.6-2-4.2-2
		c-1.8,0-3.3,0.8-4.6,2.4C-17.8,475.9-18.5,478.3-18.5,481.5z"/>
	<path id="path3489" inkscape:connector-curvature="0" class="st2" d="M25.3,483.3H8c0.1,3.7,0.8,6.3,2.1,7.8
		c1.5,1.7,3.4,2.6,5.7,2.6c3.4,0,6.1-1.9,8.1-5.8l1.7,0.7c-2.5,4.9-6.2,7.3-10.9,7.3c-3.2,0-6-1.2-8.2-3.5c-2.2-2.3-3.3-5.3-3.3-9
		c0-3.9,1.1-7.1,3.3-9.5c2.2-2.4,4.9-3.6,8.1-3.6c2.3,0,4.4,0.6,6.1,1.8c1.7,1.2,3,2.9,3.9,5.2C24.9,478.9,25.2,480.9,25.3,483.3
		L25.3,483.3z M7.9,481.5h10.5c0.6,0,1.1-0.2,1.4-0.6c0.3-0.4,0.5-1.1,0.5-2.2c0-1.9-0.6-3.5-1.8-4.8c-1.2-1.3-2.6-2-4.2-2
		c-1.8,0-3.3,0.8-4.6,2.4C8.6,475.9,8,478.3,7.9,481.5z"/>
	<path id="path3491" inkscape:connector-curvature="0" class="st2" d="M28.6,471.1l8.7-0.4v9.8c0.9-3.2,2-5.7,3.4-7.3
		c1.3-1.7,2.9-2.5,4.9-2.5c1.3,0,2.4,0.4,3.1,1.2c0.8,0.8,1.2,1.9,1.2,3.2c0,1.1-0.3,1.9-0.8,2.5c-0.5,0.6-1.2,0.9-2,0.9
		s-1.4-0.3-1.9-0.8s-0.7-1.2-0.7-2.1c0-0.6,0.1-1.1,0.4-1.6c0.3-0.4,0.4-0.7,0.4-0.8c0-0.3-0.2-0.4-0.5-0.4c-0.7,0-1.5,0.4-2.4,1.2
		c-1.2,1.2-2.2,2.7-2.9,4.8c-1,3.1-1.5,5.6-1.5,7.5v5.2c0,0.6,0.2,1,0.6,1.3c0.4,0.3,1.1,0.5,2.1,0.5h3.1v1.9h-15v-1.9h2.4
		c0.8,0,1.4-0.2,1.8-0.5c0.4-0.3,0.6-0.7,0.6-1.1v-15.4c0-1.2-0.2-2-0.7-2.6c-0.5-0.5-1.2-0.8-2.1-0.8h-2.1v-1.8H28.6z"/>
</g>
</svg>
