<?xml version="1.0" encoding="utf-8"?>
<!-- Generator: Adobe Illustrator 19.1.0, SVG Export Plug-In . SVG Version: 6.00 Build 0)  -->
<svg version="1.1"
	 id="svg3453" xmlns:sodipodi="http://sodipodi.sourceforge.net/DTD/sodipodi-0.dtd" xmlns:svg="http://www.w3.org/2000/svg" xmlns:inkscape="http://www.inkscape.org/namespaces/inkscape" xmlns:rdf="http://www.w3.org/1999/02/22-rdf-syntax-ns#" xmlns:dc="http://purl.org/dc/elements/1.1/" xmlns:cc="http://creativecommons.org/ns#" inkscape:version="0.48.3.1 r9886" sodipodi:docname="CNX_Bio_Art.svg"
	 xmlns="http://www.w3.org/2000/svg" xmlns:xlink="http://www.w3.org/1999/xlink" x="0px" y="0px"
	 viewBox="-225.1 638.8 351.5 45.3" style="enable-background:new -225.1 638.8 351.5 45.3;" xml:space="preserve">
<style type="text/css">
	.st0{fill:#010101;}
	.st1{fill:#517542;}
	.st2{fill:#D66C29;}
	.st3{fill:#005273;}
	.st4{fill:#FFFFFF;}
</style>
<sodipodi:namedview  showgrid="false" borderopacity="1" pagecolor="#ffffff" guidetolerance="10" inkscape:cy="32" gridtolerance="10" bordercolor="#666666" showguides="true" inkscape:cx="216.5" id="namedview3493" inkscape:zoom="1.4254587" objecttolerance="10" inkscape:guide-bbox="true" inkscape:window-x="1360" inkscape:pageopacity="0" inkscape:window-y="24" inkscape:window-maximized="1" inkscape:current-layer="svg3453" inkscape:pageshadow="2" inkscape:window-width="1680" inkscape:window-height="1026">
	<sodipodi:guide  position="351.46581,165.56074" id="guide3497" orientation="1,0"></sodipodi:guide>
	<sodipodi:guide  position="11.224457,-108.0354" id="guide3519" orientation="1,0"></sodipodi:guide>
	<sodipodi:guide  position="338.8383,-236.41513" id="guide3521" orientation="1,0"></sodipodi:guide>
</sodipodi:namedview>
<g id="g3111" transform="matrix(0.90530679,0,0,0.87523458,0.0058111,10.124833)">
	<rect id="rect3071" x="-248.6" y="724.9" class="st0" width="388.2" height="45.8"/>
	<rect id="rect3073" x="-248.6" y="724.9" class="st0" width="151.2" height="42"/>
	<polygon id="rect3075" class="st1" points="-196.6,721.9 -152.3,726.4 -156.8,771.1 -201.1,766.7 	"/>
	<polygon id="rect3077" class="st2" points="-155.1,721.7 -113.2,720.3 -111.6,768.1 -153.4,769.5 	"/>
	<polygon id="rect3079" class="st3" points="-244.8,725.2 -203.2,719.4 -196.9,765 -238.5,770.7 	"/>
	<path id="path3081" inkscape:connector-curvature="0" class="st4" d="M-213.4,757.3l0.8,1.2c-1.1,1.1-2.3,1.6-3.6,1.6
		c-1,0-1.8-0.3-2.5-0.8s-1.3-1.5-1.8-2.9c-1.4,1.5-2.6,2.4-3.7,2.9c-1.1,0.5-2.3,0.7-3.8,0.7c-2.1,0-3.7-0.5-4.8-1.4
		c-1.1-0.9-1.6-2.1-1.6-3.5c0-2.1,1.3-3.9,3.8-5.3c2.5-1.4,5.9-2.4,10-2.8v-3.1c0-1.1-0.4-2.1-1.3-2.9c-0.9-0.8-2-1.2-3.4-1.2
		c-1.3,0-2.4,0.3-3.3,0.8c-0.7,0.4-1,0.8-1,1.2c0,0.2,0.2,0.6,0.5,1c0.4,0.6,0.6,1.1,0.6,1.6c0,0.7-0.2,1.2-0.6,1.6
		c-0.4,0.4-1,0.6-1.7,0.6s-1.3-0.2-1.8-0.7s-0.7-1.1-0.7-1.9c0-1.5,0.8-2.8,2.4-4c1.6-1.2,3.8-1.8,6.4-1.8c2.4,0,4.3,0.5,5.6,1.6
		c1.3,1.1,1.9,2.4,1.9,3.9v11.2c0,1,0.2,1.7,0.5,2.2s0.7,0.7,1.3,0.7C-214.6,758-214,757.8-213.4,757.3z M-220.6,748.6
		c-3.7,0.5-6.4,1.3-7.9,2.5c-1.2,0.9-1.7,2.1-1.7,3.7c0,1.1,0.3,2,0.9,2.6c0.6,0.6,1.4,1,2.4,1c1.7,0,3.2-0.7,4.5-2s1.9-3,1.9-4.9
		C-220.6,751.6-220.6,748.6-220.6,748.6z"/>
	<path id="path3083" inkscape:connector-curvature="0" class="st4" d="M-185.4,739l7.4-0.4v8.3c0.8-2.7,1.7-4.8,2.9-6.2
		c1.1-1.4,2.5-2.1,4.1-2.1c1.1,0,2,0.3,2.7,1c0.7,0.7,1,1.6,1,2.7c0,0.9-0.2,1.6-0.7,2.2c-0.4,0.5-1,0.8-1.7,0.8s-1.2-0.2-1.6-0.7
		c-0.4-0.5-0.6-1-0.6-1.8c0-0.5,0.1-0.9,0.4-1.4c0.2-0.4,0.3-0.6,0.3-0.7c0-0.2-0.1-0.3-0.4-0.3c-0.6,0-1.3,0.4-2,1.1
		c-1.1,1-1.9,2.3-2.4,4c-0.9,2.7-1.3,4.8-1.3,6.4v4.4c0,0.5,0.2,0.9,0.5,1.1c0.4,0.3,1,0.4,1.8,0.4h2.6v1.6h-12.9v-1.6h2
		c0.7,0,1.2-0.1,1.6-0.4s0.5-0.6,0.5-1v-13c0-1-0.2-1.7-0.6-2.2c-0.4-0.5-1-0.7-1.8-0.7h-1.8V739L-185.4,739z"/>
	<path id="path3085" inkscape:connector-curvature="0" class="st4" d="M-134.7,730.6h1.5v8.4h6.7v2h-6.7v13.2c0,1.1,0.3,2,0.8,2.6
		c0.5,0.6,1.2,0.9,2.1,0.9c1,0,1.8-0.5,2.5-1.4c0.7-0.9,1.1-2.4,1.2-4.6h1.5c-0.1,2.7-0.7,4.8-1.9,6.1c-1.2,1.3-2.7,2-4.5,2
		c-1.7,0-3-0.5-4-1.4c-1-0.9-1.4-2.1-1.4-3.7v-13.8h-3.6v-1.5c1.6-0.3,2.9-1,3.7-2C-135.5,735.8-134.8,733.5-134.7,730.6
		L-134.7,730.6z"/>
	<path id="path3087" inkscape:connector-curvature="0" class="st4" d="M-73.5,741.5l-1.8,1.4c-1-1.3-2.2-2.3-3.5-2.9
		c-1.4-0.7-2.9-1-4.5-1c-1.8,0-3.5,0.4-5,1.3c-1.5,0.9-2.7,2-3.6,3.5c-0.8,1.5-1.3,3.1-1.3,4.9c0,2.8,0.9,5.1,2.8,6.9
		c1.9,1.8,4.3,2.8,7.2,2.8c3.2,0,5.8-1.2,8-3.7l1.8,1.4c-1.1,1.4-2.5,2.5-4.2,3.3s-3.6,1.2-5.7,1.2c-4,0-7.1-1.3-9.4-4
		c-1.9-2.2-2.9-4.9-2.9-8.1c0-3.3,1.2-6.1,3.5-8.4c2.3-2.3,5.2-3.4,8.7-3.4c2.1,0,4,0.4,5.7,1.3C-76,738.8-74.6,740-73.5,741.5
		L-73.5,741.5z"/>
	<path id="path3089" inkscape:connector-curvature="0" class="st4" d="M-56.7,736.7c3.4,0,6.3,1.1,8.6,3.4c2.3,2.3,3.5,5.1,3.5,8.4
		s-1.2,6.1-3.5,8.4s-5.1,3.5-8.4,3.5c-3.4,0-6.2-1.1-8.5-3.4c-2.3-2.3-3.5-5.1-3.5-8.3c0-2.2,0.5-4.2,1.6-6c1.1-1.9,2.5-3.3,4.3-4.4
		C-60.7,737.3-58.8,736.7-56.7,736.7L-56.7,736.7z M-56.6,738.9c-1.7,0-3.3,0.4-4.8,1.3c-1.5,0.9-2.7,2-3.5,3.5s-1.3,3.1-1.3,4.9
		c0,2.7,0.9,5,2.8,6.8c1.9,1.8,4.1,2.8,6.7,2.8c1.8,0,3.4-0.4,4.9-1.3c1.5-0.9,2.7-2,3.5-3.5s1.3-3.1,1.3-4.9s-0.4-3.4-1.3-4.9
		c-0.8-1.5-2-2.6-3.5-3.5C-53.2,739.4-54.9,738.9-56.6,738.9z"/>
	<path id="path3091" inkscape:connector-curvature="0" class="st4" d="M-38.5,759.9v-22.6h0.5l15.1,17.3v-17.3h2.2v22.6h-0.5
		l-14.9-17.1v17.1H-38.5L-38.5,759.9z"/>
	<path id="path3093" inkscape:connector-curvature="0" class="st4" d="M-13.6,759.9v-22.6h0.5L2,754.6v-17.3h2.2v22.6H3.7l-15-17.1
		v17.1H-13.6L-13.6,759.9z"/>
	<path id="path3095" inkscape:connector-curvature="0" class="st4" d="M11.3,737.3h13v2.2H13.6v7.1h10.6v2.2H13.6v8.9h10.6v2.2H11.3
		L11.3,737.3L11.3,737.3z"/>
	<path id="path3097" inkscape:connector-curvature="0" class="st4" d="M50.8,741.5l-1.8,1.4c-1-1.3-2.2-2.3-3.5-2.9
		c-1.4-0.7-2.9-1-4.5-1c-1.8,0-3.5,0.4-5,1.3c-1.5,0.9-2.7,2-3.6,3.5c-0.8,1.5-1.3,3.1-1.3,4.9c0,2.8,0.9,5.1,2.8,6.9
		c1.9,1.8,4.3,2.8,7.2,2.8c3.2,0,5.8-1.2,8-3.7l1.8,1.4c-1.1,1.4-2.5,2.5-4.2,3.3c-1.7,0.8-3.6,1.2-5.7,1.2c-4,0-7.1-1.3-9.4-4
		c-1.9-2.2-2.9-4.9-2.9-8.1c0-3.3,1.2-6.1,3.5-8.4s5.2-3.4,8.7-3.4c2.1,0,4,0.4,5.7,1.3C48.3,738.8,49.7,740,50.8,741.5L50.8,741.5z
		"/>
	<path id="path3099" inkscape:connector-curvature="0" class="st4" d="M54.7,739.5v-2.2h12.4v2.2h-5v20.4h-2.4v-20.4H54.7
		L54.7,739.5z"/>
	<path id="path3101" inkscape:connector-curvature="0" class="st4" d="M71.6,737.3h2.3v22.6h-2.3V737.3z"/>
	<path id="path3103" inkscape:connector-curvature="0" class="st4" d="M91.4,736.7c3.4,0,6.3,1.1,8.6,3.4s3.5,5.1,3.5,8.4
		s-1.2,6.1-3.5,8.4s-5.1,3.5-8.4,3.5c-3.4,0-6.2-1.1-8.5-3.4s-3.5-5.1-3.5-8.3c0-2.2,0.5-4.2,1.6-6c1.1-1.9,2.5-3.3,4.3-4.4
		C87.3,737.3,89.3,736.7,91.4,736.7z M91.5,738.9c-1.7,0-3.3,0.4-4.8,1.3c-1.5,0.9-2.7,2-3.5,3.5s-1.3,3.1-1.3,4.9
		c0,2.7,0.9,5,2.8,6.8c1.9,1.9,4.1,2.8,6.7,2.8c1.8,0,3.4-0.4,4.9-1.3c1.5-0.9,2.7-2,3.5-3.5s1.3-3.1,1.3-4.9s-0.4-3.4-1.3-4.9
		s-2-2.6-3.5-3.5C94.8,739.4,93.2,738.9,91.5,738.9z"/>
	<path id="path3105" inkscape:connector-curvature="0" class="st4" d="M109.6,759.9v-22.6h0.5l15.1,17.3v-17.3h2.2v22.6h-0.5
		L112,742.8v17.1H109.6z"/>
</g>
</svg>
