<?xml version="1.0" encoding="UTF-8" standalone="no"?>
<!-- Generator: Adobe Illustrator 14.0.0, SVG Export Plug-In  -->

<svg
   xmlns:dc="http://purl.org/dc/elements/1.1/"
   xmlns:cc="http://creativecommons.org/ns#"
   xmlns:rdf="http://www.w3.org/1999/02/22-rdf-syntax-ns#"
   xmlns:svg="http://www.w3.org/2000/svg"
   xmlns="http://www.w3.org/2000/svg"
   xmlns:sodipodi="http://sodipodi.sourceforge.net/DTD/sodipodi-0.dtd"
   xmlns:inkscape="http://www.inkscape.org/namespaces/inkscape"
   version="1.1"
   x="0px"
   y="0px"
   width="540"
   height="67.5"
   viewBox="-0.75 -0.605 540 67.5"
   enable-background="new -0.75 -0.605 495 53"
   xml:space="preserve"
   id="svg5113"
   inkscape:version="0.48.3.1 r9886"
   sodipodi:docname="CNX_BioMaj_Everyday.svg"><metadata
   id="metadata5179"><rdf:RDF><cc:Work
       rdf:about=""><dc:format>image/svg+xml</dc:format><dc:type
         rdf:resource="http://purl.org/dc/dcmitype/StillImage" /></cc:Work></rdf:RDF></metadata><sodipodi:namedview
   pagecolor="#ffffff"
   bordercolor="#666666"
   borderopacity="1"
   objecttolerance="10"
   gridtolerance="10"
   guidetolerance="10"
   inkscape:pageopacity="0"
   inkscape:pageshadow="2"
   inkscape:window-width="1366"
   inkscape:window-height="744"
   id="namedview5177"
   showgrid="false"
   units="in"
   inkscape:zoom="0.58989899"
   inkscape:cx="247.5"
   inkscape:cy="26.5"
   inkscape:window-x="0"
   inkscape:window-y="24"
   inkscape:window-maximized="1"
   inkscape:current-layer="svg5113" />
<defs
   id="defs5115">
</defs>





























<g
   id="g5181"
   transform="matrix(0.80121396,0,0,0.80496603,0,12.991797)"><rect
     style="fill:#010101"
     y="14.5"
     x="0"
     id="rect5117"
     height="52.112999"
     width="200.38901" /><path
     style="fill:#cfb7a1"
     inkscape:connector-curvature="0"
     id="path5119"
     d="M 72.505,42.951 H 57.87 c 0.073,3.111 0.654,5.308 1.745,6.587 1.25,1.439 2.842,2.159 4.776,2.159 2.85,0 5.14,-1.621 6.871,-4.863 l 1.417,0.61 c -2.123,4.13 -5.191,6.194 -9.204,6.194 -2.734,0 -5.035,-0.989 -6.903,-2.967 -1.868,-1.977 -2.803,-4.508 -2.803,-7.59 0,-3.314 0.92,-5.994 2.759,-8.037 1.839,-2.043 4.104,-3.064 6.794,-3.064 1.978,0 3.686,0.509 5.125,1.527 1.44,1.018 2.523,2.479 3.25,4.383 0.51,1.339 0.779,3.026 0.808,5.061 z" /><rect
     style="fill:#602e1a"
     y="14.5"
     id="rect5121"
     height="52.112999"
     width="293.86099"
     x="200.38901" /><path
     style="fill:#ffffff"
     inkscape:connector-curvature="0"
     id="path5123"
     d="m 235.554,31.335 -2.214,1.699 c -1.222,-1.59 -2.688,-2.796 -4.399,-3.617 -1.711,-0.821 -3.591,-1.231 -5.64,-1.231 -2.239,0 -4.313,0.538 -6.222,1.613 -1.908,1.075 -3.387,2.519 -4.437,4.332 -1.05,1.813 -1.574,3.852 -1.574,6.117 0,3.422 1.173,6.278 3.521,8.568 2.347,2.29 5.309,3.436 8.884,3.436 3.931,0 7.22,-1.54 9.867,-4.619 l 2.214,1.68 c -1.4,1.781 -3.146,3.158 -5.239,4.132 -2.093,0.974 -4.431,1.46 -7.014,1.46 -4.911,0 -8.785,-1.635 -11.623,-4.904 -2.379,-2.762 -3.569,-6.095 -3.569,-10 0,-4.11 1.441,-7.568 4.323,-10.373 2.882,-2.806 6.492,-4.208 10.831,-4.208 2.621,0 4.987,0.519 7.1,1.555 2.112,1.036 3.843,2.49 5.191,4.36 z" /><path
     style="fill:#ffffff"
     inkscape:connector-curvature="0"
     id="path5125"
     d="m 256.508,25.419 c 4.252,0 7.809,1.418 10.674,4.256 2.865,2.838 4.297,6.33 4.297,10.478 0,4.109 -1.43,7.596 -4.287,10.458 -2.857,2.862 -6.344,4.294 -10.455,4.294 -4.164,0 -7.678,-1.425 -10.542,-4.274 -2.864,-2.851 -4.296,-6.298 -4.296,-10.345 0,-2.697 0.652,-5.197 1.957,-7.5 1.305,-2.303 3.084,-4.106 5.338,-5.411 2.251,-1.304 4.691,-1.956 7.314,-1.956 z m 0.123,2.729 c -2.076,0 -4.047,0.541 -5.906,1.624 -1.861,1.083 -3.314,2.541 -4.359,4.374 -1.044,1.834 -1.567,3.877 -1.567,6.13 0,3.337 1.156,6.154 3.469,8.453 2.312,2.298 5.102,3.446 8.363,3.446 2.18,0 4.195,-0.528 6.051,-1.585 1.854,-1.057 3.299,-2.502 4.338,-4.336 1.039,-1.833 1.559,-3.87 1.559,-6.111 0,-2.229 -0.52,-4.243 -1.559,-6.045 -1.039,-1.802 -2.5,-3.244 -4.387,-4.326 -1.887,-1.082 -3.887,-1.624 -6.002,-1.624 z" /><path
     style="fill:#ffffff"
     inkscape:connector-curvature="0"
     id="path5127"
     d="M 279.082,54.198 V 26.125 h 0.61 l 18.684,21.52 v -21.52 h 2.768 v 28.073 h -0.63 L 281.982,32.94 v 21.258 h -2.9 z" /><path
     style="fill:#ffffff"
     inkscape:connector-curvature="0"
     id="path5129"
     d="M 309.949,54.198 V 26.125 h 0.61 l 18.684,21.52 v -21.52 h 2.768 v 28.073 h -0.63 L 312.85,32.94 v 21.258 h -2.901 z" /><path
     style="fill:#ffffff"
     inkscape:connector-curvature="0"
     id="path5131"
     d="m 340.817,26.125 h 16.088 v 2.748 h -13.283 v 8.798 h 13.169 v 2.749 h -13.169 v 11.03 h 13.169 v 2.748 H 340.817 V 26.125 z" /><path
     style="fill:#ffffff"
     inkscape:connector-curvature="0"
     id="path5133"
     d="m 389.852,31.335 -2.214,1.699 c -1.221,-1.59 -2.688,-2.796 -4.398,-3.617 -1.712,-0.821 -3.591,-1.231 -5.64,-1.231 -2.239,0 -4.313,0.538 -6.222,1.613 -1.909,1.075 -3.388,2.519 -4.437,4.332 -1.05,1.813 -1.575,3.852 -1.575,6.117 0,3.422 1.174,6.278 3.521,8.568 2.347,2.29 5.309,3.436 8.884,3.436 3.932,0 7.22,-1.54 9.866,-4.619 l 2.214,1.68 c -1.399,1.781 -3.146,3.158 -5.238,4.132 -2.092,0.974 -4.431,1.46 -7.014,1.46 -4.911,0 -8.785,-1.635 -11.622,-4.904 -2.38,-2.762 -3.569,-6.095 -3.569,-10 0,-4.11 1.441,-7.568 4.323,-10.373 2.882,-2.806 6.491,-4.208 10.83,-4.208 2.621,0 4.987,0.519 7.1,1.555 2.111,1.036 3.842,2.49 5.191,4.36 z" /><path
     style="fill:#ffffff"
     inkscape:connector-curvature="0"
     id="path5135"
     d="m 394.65,28.873 v -2.748 h 15.382 v 2.748 h -6.26 V 54.198 H 400.91 V 28.873 h -6.26 z" /><path
     style="fill:#ffffff"
     inkscape:connector-curvature="0"
     id="path5137"
     d="m 415.632,26.125 h 2.805 v 28.073 h -2.805 V 26.125 z" /><path
     style="fill:#ffffff"
     inkscape:connector-curvature="0"
     id="path5139"
     d="m 440.191,25.419 c 4.252,0 7.81,1.418 10.675,4.256 2.864,2.837 4.297,6.33 4.297,10.478 0,4.109 -1.43,7.596 -4.288,10.458 -2.857,2.862 -6.343,4.294 -10.455,4.294 -4.163,0 -7.677,-1.425 -10.541,-4.274 -2.865,-2.851 -4.297,-6.298 -4.297,-10.345 0,-2.697 0.652,-5.197 1.957,-7.5 1.305,-2.303 3.084,-4.106 5.338,-5.411 2.253,-1.304 4.691,-1.956 7.314,-1.956 z m 0.124,2.729 c -2.077,0 -4.047,0.541 -5.907,1.624 -1.86,1.083 -3.313,2.541 -4.358,4.374 -1.045,1.834 -1.567,3.877 -1.567,6.13 0,3.337 1.156,6.154 3.47,8.453 2.312,2.298 5.101,3.446 8.363,3.446 2.179,0 4.195,-0.528 6.05,-1.585 1.854,-1.057 3.3,-2.502 4.339,-4.336 1.038,-1.833 1.558,-3.87 1.558,-6.111 0,-2.229 -0.52,-4.243 -1.558,-6.045 -1.039,-1.802 -2.501,-3.244 -4.387,-4.326 -1.887,-1.083 -3.887,-1.624 -6.003,-1.624 z" /><path
     style="fill:#ffffff"
     inkscape:connector-curvature="0"
     id="path5141"
     d="M 462.767,54.198 V 26.125 h 0.61 l 18.684,21.52 v -21.52 h 2.768 v 28.073 h -0.63 L 465.667,32.94 v 21.258 h -2.9 z" /><line
     style="fill:none;stroke:#cfb7a1"
     id="line5143"
     y2="38.875"
     x2="74.449997"
     y1="32.682129"
     x1="89.125" /><line
     style="fill:none;stroke:#602e1a"
     id="line5145"
     y2="34.916992"
     x2="72.228996"
     y1="27.960938"
     x1="80.433998" /><line
     style="fill:none;stroke:#cfb7a1"
     id="line5147"
     y2="34.76416"
     x2="54.681"
     y1="23.352051"
     x1="41.808998" /><line
     style="fill:none;stroke:#602e1a"
     id="line5149"
     y2="31.438965"
     x2="58.194"
     y1="22.162109"
     x1="52.752998" /><line
     style="fill:none;stroke:#cfb7a1"
     id="line5151"
     y2="32.559082"
     x2="69.474998"
     y1="19.225098"
     x1="76.698997" /><line
     style="fill:none;stroke:#602e1a"
     id="line5153"
     y2="30.402832"
     x2="65.705002"
     y1="19.871094"
     x1="67.884003" /><line
     style="fill:none;stroke:#cfb7a1"
     id="line5155"
     y2="30.032227"
     x2="61.509998"
     y1="14.961914"
     x1="60.176998" /><line
     style="fill:none;stroke:#602e1a"
     id="line5157"
     y2="37.897949"
     x2="53.091999"
     y1="34"
     x1="43.070999" /><line
     style="fill:none;stroke:#cfb7a1"
     id="line5159"
     y2="37.495117"
     x2="36.048"
     y1="40.255859"
     x1="51.735001" /><path
     style="fill:#ffffff"
     inkscape:connector-curvature="0"
     id="path5161"
     d="M 26.599,42.762 H 11.964 c 0.073,3.111 0.654,5.308 1.745,6.587 1.25,1.439 2.843,2.159 4.777,2.159 2.85,0 5.14,-1.621 6.87,-4.864 l 1.418,0.611 c -2.123,4.129 -5.191,6.193 -9.204,6.193 -2.734,0 -5.035,-0.988 -6.903,-2.966 -1.869,-1.978 -2.803,-4.507 -2.803,-7.59 0,-3.315 0.919,-5.994 2.759,-8.038 1.839,-2.043 4.104,-3.064 6.794,-3.064 1.978,0 3.686,0.509 5.125,1.527 1.439,1.018 2.522,2.479 3.25,4.384 0.509,1.338 0.778,3.025 0.807,5.061 z M 11.964,41.213 h 8.855 c 0.523,0 0.931,-0.178 1.222,-0.534 0.291,-0.356 0.436,-0.963 0.436,-1.821 0,-1.6 -0.498,-2.959 -1.494,-4.079 -0.996,-1.119 -2.17,-1.679 -3.522,-1.679 -1.512,0 -2.795,0.676 -3.85,2.028 -1.055,1.352 -1.604,3.381 -1.647,6.085 z" /><path
     style="fill:#ffffff"
     inkscape:connector-curvature="0"
     id="path5163"
     d="m 28.867,32.401 h 10.055 v 1.483 c -1.338,0.029 -2.192,0.149 -2.563,0.36 -0.371,0.211 -0.556,0.513 -0.556,0.905 0,0.32 0.073,0.64 0.219,0.959 l 5.419,12.062 4.931,-11.695 c 0.072,-0.203 0.109,-0.407 0.109,-0.609 0,-1.06 -1.044,-1.721 -3.131,-1.982 v -1.483 h 8.463 v 1.483 c -0.858,0.087 -1.542,0.32 -2.05,0.698 -0.509,0.378 -0.902,0.887 -1.178,1.527 L 41.097,53.448 H 39.918 L 31.877,35.629 c -0.291,-0.64 -0.644,-1.086 -1.058,-1.341 -0.414,-0.254 -1.065,-0.389 -1.952,-0.403 v -1.484 z" /><path
     style="fill:#ffffff"
     inkscape:connector-curvature="0"
     id="path5165"
     d="M 72.925,42.762 H 58.29 c 0.073,3.111 0.654,5.308 1.745,6.587 1.25,1.439 2.843,2.159 4.777,2.159 2.85,0 5.14,-1.621 6.87,-4.864 l 1.418,0.611 c -2.123,4.129 -5.191,6.193 -9.204,6.193 -2.734,0 -5.035,-0.988 -6.903,-2.966 -1.869,-1.978 -2.803,-4.507 -2.803,-7.59 0,-3.315 0.919,-5.994 2.759,-8.038 1.839,-2.043 4.104,-3.064 6.794,-3.064 1.978,0 3.686,0.509 5.125,1.527 1.439,1.018 2.522,2.479 3.25,4.384 0.509,1.338 0.778,3.025 0.807,5.061 z M 58.29,41.213 h 8.855 c 0.523,0 0.931,-0.178 1.222,-0.534 0.291,-0.356 0.436,-0.963 0.436,-1.821 0,-1.6 -0.498,-2.959 -1.494,-4.079 -0.996,-1.119 -2.17,-1.679 -3.522,-1.679 -1.512,0 -2.795,0.676 -3.85,2.028 -1.055,1.352 -1.604,3.381 -1.647,6.085 z" /><path
     style="fill:#ffffff"
     inkscape:connector-curvature="0"
     id="path5167"
     d="m 75.761,32.401 7.35,-0.371 v 8.267 c 0.785,-2.719 1.73,-4.777 2.835,-6.173 1.105,-1.396 2.472,-2.094 4.101,-2.094 1.104,0 1.988,0.338 2.65,1.014 0.662,0.676 0.992,1.582 0.992,2.715 0,0.917 -0.222,1.629 -0.665,2.138 -0.444,0.51 -1,0.764 -1.668,0.764 -0.654,0 -1.182,-0.218 -1.582,-0.654 -0.4,-0.436 -0.6,-1.025 -0.6,-1.767 0,-0.48 0.116,-0.93 0.349,-1.352 0.218,-0.378 0.327,-0.604 0.327,-0.676 0,-0.218 -0.139,-0.327 -0.415,-0.327 -0.596,0 -1.272,0.349 -2.028,1.047 -1.047,0.974 -1.854,2.312 -2.421,4.013 -0.873,2.646 -1.309,4.763 -1.309,6.348 v 4.384 c 0,0.494 0.175,0.872 0.524,1.134 0.349,0.262 0.945,0.393 1.788,0.393 h 2.596 V 52.84 H 75.892 v -1.636 h 2.028 c 0.683,0 1.2,-0.135 1.548,-0.403 0.349,-0.27 0.523,-0.593 0.523,-0.971 V 36.808 c 0,-0.989 -0.211,-1.713 -0.632,-2.171 -0.422,-0.458 -1.025,-0.687 -1.81,-0.687 H 75.76 v -1.549 z" /><path
     style="fill:#ffffff"
     inkscape:connector-curvature="0"
     id="path5169"
     d="m 95.456,32.401 h 9.793 v 1.483 h -0.916 c -0.858,0 -1.443,0.113 -1.756,0.338 -0.313,0.226 -0.469,0.549 -0.469,0.971 0,0.189 0.043,0.378 0.131,0.567 l 5.693,12.28 4.23,-10.186 c 0.305,-0.728 0.458,-1.439 0.458,-2.138 0,-0.538 -0.211,-0.956 -0.632,-1.254 -0.422,-0.298 -1.265,-0.491 -2.53,-0.578 v -1.483 h 8.506 v 1.483 c -1.644,0.16 -2.748,0.894 -3.315,2.203 l -7.561,17.591 c -1.285,2.988 -2.574,5.042 -3.868,6.161 -1.309,1.135 -2.712,1.701 -4.209,1.701 -1.091,0 -1.967,-0.298 -2.628,-0.894 -0.662,-0.597 -0.992,-1.331 -0.992,-2.203 0,-0.654 0.203,-1.192 0.61,-1.614 0.407,-0.422 0.917,-0.633 1.527,-0.633 0.553,0 1.018,0.182 1.396,0.546 0.378,0.363 0.567,0.8 0.567,1.309 0,0.16 -0.029,0.378 -0.087,0.654 -0.059,0.218 -0.087,0.378 -0.087,0.479 0,0.35 0.225,0.523 0.676,0.523 0.48,0 1.021,-0.174 1.625,-0.523 0.603,-0.349 1.167,-0.908 1.69,-1.679 0.524,-0.771 1.441,-2.479 2.753,-5.122 L 98.305,35.76 c -0.275,-0.581 -0.62,-1.014 -1.033,-1.297 -0.413,-0.284 -1.019,-0.476 -1.816,-0.578 v -1.484 z" /><path
     style="fill:#ffffff"
     inkscape:connector-curvature="0"
     id="path5171"
     d="m 131.487,20.58 7.983,-0.371 v 27.962 c 0,1.09 0.207,1.868 0.622,2.333 0.414,0.466 1.036,0.698 1.865,0.698 h 1.417 v 1.636 h -6.979 l -0.523,-4.166 c -0.829,1.483 -1.799,2.6 -2.912,3.348 -1.112,0.75 -2.359,1.124 -3.741,1.124 -2.327,0 -4.308,-0.975 -5.943,-2.923 -1.635,-1.948 -2.454,-4.521 -2.454,-7.721 0,-3.461 1.047,-6.224 3.141,-8.289 1.643,-1.614 3.533,-2.421 5.671,-2.421 1.309,0 2.483,0.327 3.522,0.981 1.039,0.654 1.944,1.643 2.715,2.966 V 24.2 c 0,-0.611 -0.236,-1.094 -0.708,-1.45 -0.473,-0.356 -1.211,-0.535 -2.214,-0.535 h -1.461 V 20.58 z m -1.265,13.021 c -1.57,0 -2.817,0.647 -3.741,1.941 -0.923,1.295 -1.385,3.476 -1.385,6.543 0,3.33 0.472,5.675 1.417,7.034 0.945,1.359 2.16,2.039 3.643,2.039 1.585,0 2.941,-0.76 4.068,-2.278 1.126,-1.52 1.69,-3.741 1.69,-6.664 0,-2.762 -0.604,-4.936 -1.811,-6.521 -1.045,-1.396 -2.34,-2.094 -3.881,-2.094 z" /><path
     style="fill:#ffffff"
     inkscape:connector-curvature="0"
     id="path5173"
     d="m 167.148,50.592 0.785,1.221 c -1.062,1.091 -2.239,1.636 -3.533,1.636 -0.989,0 -1.821,-0.269 -2.498,-0.807 -0.677,-0.538 -1.269,-1.483 -1.778,-2.835 -1.381,1.454 -2.595,2.424 -3.642,2.911 -1.047,0.487 -2.305,0.73 -3.773,0.73 -2.094,0 -3.686,-0.45 -4.776,-1.352 -1.091,-0.901 -1.636,-2.058 -1.636,-3.468 0,-2.123 1.247,-3.886 3.74,-5.289 2.493,-1.403 5.812,-2.338 9.957,-2.803 v -3.098 c 0,-1.105 -0.443,-2.05 -1.33,-2.835 -0.887,-0.785 -2.014,-1.178 -3.381,-1.178 -1.265,0 -2.355,0.262 -3.271,0.785 -0.654,0.393 -0.981,0.778 -0.981,1.156 0,0.218 0.174,0.56 0.523,1.025 0.421,0.582 0.632,1.099 0.632,1.549 0,0.654 -0.211,1.188 -0.632,1.603 -0.422,0.415 -0.975,0.622 -1.658,0.622 -0.728,0 -1.334,-0.247 -1.821,-0.741 -0.487,-0.494 -0.73,-1.127 -0.73,-1.897 0,-1.44 0.81,-2.756 2.432,-3.948 1.621,-1.192 3.748,-1.789 6.38,-1.789 2.428,0 4.282,0.523 5.562,1.57 1.279,1.062 1.919,2.348 1.919,3.861 v 11.167 c 0,0.989 0.16,1.716 0.48,2.181 0.319,0.48 0.734,0.72 1.243,0.72 0.565,0 1.161,-0.232 1.787,-0.697 z m -7.154,-8.615 c -3.693,0.509 -6.311,1.338 -7.852,2.486 -1.149,0.872 -1.723,2.108 -1.723,3.708 0,1.119 0.298,1.995 0.894,2.628 0.596,0.632 1.374,0.948 2.334,0.948 1.715,0 3.202,-0.65 4.46,-1.952 1.257,-1.301 1.886,-2.933 1.886,-4.896 v -2.922 z" /><path
     style="fill:#ffffff"
     inkscape:connector-curvature="0"
     id="path5175"
     d="m 169.94,32.401 h 9.793 v 1.483 h -0.916 c -0.858,0 -1.443,0.113 -1.756,0.338 -0.313,0.226 -0.469,0.549 -0.469,0.971 0,0.189 0.043,0.378 0.131,0.567 l 5.693,12.28 4.23,-10.186 c 0.305,-0.728 0.458,-1.439 0.458,-2.138 0,-0.538 -0.211,-0.956 -0.632,-1.254 -0.422,-0.298 -1.265,-0.491 -2.53,-0.578 v -1.483 h 8.506 v 1.483 c -1.644,0.16 -2.748,0.894 -3.315,2.203 l -7.561,17.591 c -1.285,2.988 -2.574,5.042 -3.868,6.161 -1.309,1.135 -2.712,1.701 -4.209,1.701 -1.091,0 -1.967,-0.298 -2.628,-0.894 -0.662,-0.597 -0.992,-1.331 -0.992,-2.203 0,-0.654 0.203,-1.192 0.61,-1.614 0.407,-0.422 0.917,-0.633 1.527,-0.633 0.553,0 1.018,0.182 1.396,0.546 0.378,0.363 0.567,0.8 0.567,1.309 0,0.16 -0.029,0.378 -0.087,0.654 -0.059,0.218 -0.087,0.378 -0.087,0.479 0,0.35 0.225,0.523 0.676,0.523 0.48,0 1.021,-0.174 1.625,-0.523 0.603,-0.349 1.167,-0.908 1.69,-1.679 0.524,-0.771 1.441,-2.479 2.753,-5.122 l -7.756,-16.624 c -0.275,-0.581 -0.62,-1.014 -1.033,-1.297 -0.413,-0.284 -1.019,-0.476 -1.816,-0.578 v -1.483 z" /></g>
</svg>