<?xml version="1.0" encoding="UTF-8" standalone="no"?>
<!-- Generator: Adobe Illustrator 14.0.0, SVG Export Plug-In  -->

<svg
   xmlns:dc="http://purl.org/dc/elements/1.1/"
   xmlns:cc="http://creativecommons.org/ns#"
   xmlns:rdf="http://www.w3.org/1999/02/22-rdf-syntax-ns#"
   xmlns:svg="http://www.w3.org/2000/svg"
   xmlns="http://www.w3.org/2000/svg"
   xmlns:sodipodi="http://sodipodi.sourceforge.net/DTD/sodipodi-0.dtd"
   xmlns:inkscape="http://www.inkscape.org/namespaces/inkscape"
   version="1.1"
   x="0px"
   y="0px"
   width="433px"
   height="64px"
   viewBox="0 -3.5 433 64"
   enable-background="new 0 -3.5 433 64"
   xml:space="preserve"
   id="svg3225"
   inkscape:version="0.48.3.1 r9886"
   sodipodi:docname="CNX_BioNonMaj_Experiment.svg"><metadata
   id="metadata3275"><rdf:RDF><cc:Work
       rdf:about=""><dc:format>image/svg+xml</dc:format><dc:type
         rdf:resource="http://purl.org/dc/dcmitype/StillImage" /><dc:title></dc:title></cc:Work></rdf:RDF></metadata><sodipodi:namedview
   pagecolor="#ffffff"
   bordercolor="#666666"
   borderopacity="1"
   objecttolerance="10"
   gridtolerance="10"
   guidetolerance="10"
   inkscape:pageopacity="0"
   inkscape:pageshadow="2"
   inkscape:window-width="1360"
   inkscape:window-height="744"
   id="namedview3273"
   showgrid="false"
   showguides="true"
   inkscape:guide-bbox="true"
   inkscape:zoom="1.8794886"
   inkscape:cx="222.88472"
   inkscape:cy="26.679404"
   inkscape:window-x="0"
   inkscape:window-y="303"
   inkscape:window-maximized="1"
   inkscape:current-layer="svg3225"><sodipodi:guide
     orientation="1,0"
     position="350.63982,132.43049"
     id="guide3301" /><sodipodi:guide
     orientation="0,1"
     position="459.69953,36.180055"
     id="guide3539" /></sodipodi:namedview>
<defs
   id="defs3227">
</defs>






















<g
   id="g6240"
   transform="matrix(0.81156496,0,0,0.81156496,-0.3620263,24.528037)"><g
     id="g6172"><rect
       style="fill:#010101"
       y="0"
       x="0"
       width="224.60001"
       height="45"
       id="rect6118" /><path
       style="fill:#ffffff"
       inkscape:connector-curvature="0"
       d="m 26.2,26.2 h -13 c 0.1,2.8 0.6,4.7 1.6,5.9 1.1,1.3 2.5,1.9 4.3,1.9 2.5,0 4.6,-1.4 6.1,-4.3 l 1.3,0.5 c -1.9,3.7 -4.6,5.5 -8.2,5.5 -2.4,0 -4.5,-0.9 -6.2,-2.6 -1.7,-1.8 -2.5,-4 -2.5,-6.8 0,-3 0.8,-5.3 2.5,-7.2 1.6,-1.8 3.7,-2.7 6.1,-2.7 1.8,0 3.3,0.5 4.6,1.4 1.3,0.9 2.2,2.2 2.9,3.9 0.3,1.2 0.5,2.7 0.5,4.5 z m -13,-1.4 h 7.9 c 0.5,0 0.8,-0.2 1.1,-0.5 0.3,-0.3 0.4,-0.9 0.4,-1.6 0,-1.4 -0.4,-2.6 -1.3,-3.6 -0.9,-1 -1.9,-1.5 -3.1,-1.5 -1.3,0 -2.5,0.6 -3.4,1.8 -1.1,1.2 -1.6,3 -1.6,5.4 z"
       id="path6120" /><path
       style="fill:#ffffff"
       inkscape:connector-curvature="0"
       d="m 28.7,17 h 8.8 v 1.3 c -1.4,0.1 -2.1,0.3 -2.1,0.8 0,0.2 0.1,0.5 0.3,0.8 l 3.1,4.2 3.1,-3.9 c 0.2,-0.3 0.3,-0.6 0.3,-0.8 0,-0.6 -0.8,-0.9 -2.4,-1.1 V 17 h 7.7 v 1.3 c -1.8,0.3 -3.3,1.1 -4.2,2.3 l -3.6,4.5 5.6,7.3 c 0.4,0.5 0.8,0.8 1.2,1 0.4,0.2 1.1,0.3 1.9,0.3 v 1.5 h -9.3 v -1.5 h 0.7 c 0.7,0 1.2,-0.1 1.5,-0.2 0.2,-0.1 0.3,-0.2 0.3,-0.4 0,-0.1 -0.1,-0.4 -0.4,-0.7 l -3.6,-4.8 -2.9,3.8 c -0.4,0.5 -0.6,1 -0.6,1.3 0,0.3 0.1,0.6 0.4,0.7 0.4,0.2 1.1,0.4 2,0.4 v 1.5 h -7.9 v -1.5 c 1,-0.1 1.7,-0.3 2.2,-0.6 0.9,-0.5 1.6,-1.2 2.3,-2.1 l 3.6,-4.6 -5.4,-6.9 C 30.7,18.8 29.8,18.4 28.5,18.4 V 17 z"
       id="path6122" /><path
       style="fill:#ffffff"
       inkscape:connector-curvature="0"
       d="m 56.2,16.6 c 0.3,1.4 0.5,2.7 0.5,3.9 0.9,-1.4 1.8,-2.4 2.8,-3 1,-0.6 2.1,-0.9 3.2,-0.9 1.2,0 2.4,0.4 3.6,1.1 1.2,0.7 2.1,1.9 2.8,3.4 0.7,1.5 1.1,3.1 1.1,5 0,3 -0.9,5.4 -2.6,7.3 -1.4,1.6 -3.2,2.3 -5.2,2.3 -1.1,0 -2.2,-0.3 -3.1,-0.9 -0.9,-0.6 -1.7,-1.5 -2.4,-2.6 v 7.4 c 0,0.6 0.1,1 0.4,1.2 0.4,0.3 0.8,0.5 1.5,0.5 h 1.3 v 1.4 h -9.7 v -1.4 h 1.3 c 0.6,0 1.1,-0.1 1.4,-0.4 0.3,-0.2 0.5,-0.6 0.5,-1 V 20.8 c 0,-0.9 -0.2,-1.5 -0.6,-1.9 -0.4,-0.4 -1.3,-0.6 -2.6,-0.6 V 17 l 5.8,-0.4 z m 5.7,1.8 c -1.4,0 -2.6,0.7 -3.6,2 -1,1.4 -1.5,3.3 -1.5,5.9 0,2.6 0.5,4.5 1.4,5.8 0.9,1.3 2.1,1.9 3.6,1.9 1.4,0 2.4,-0.5 3.2,-1.6 0.9,-1.4 1.4,-3.4 1.4,-6.1 0,-2.8 -0.4,-4.8 -1.3,-6 -0.8,-1.3 -1.9,-1.9 -3.2,-1.9 z"
       id="path6124" /><path
       style="fill:#ffffff"
       inkscape:connector-curvature="0"
       d="m 90.4,26.2 h -13 c 0.1,2.8 0.6,4.7 1.6,5.9 1.1,1.3 2.5,1.9 4.3,1.9 2.5,0 4.6,-1.4 6.1,-4.3 l 1.3,0.5 c -1.9,3.7 -4.6,5.5 -8.2,5.5 -2.4,0 -4.5,-0.9 -6.2,-2.6 -1.7,-1.8 -2.5,-4 -2.5,-6.8 0,-3 0.8,-5.3 2.5,-7.2 1.6,-1.8 3.7,-2.7 6.1,-2.7 1.8,0 3.3,0.5 4.6,1.4 1.3,0.9 2.2,2.2 2.9,3.9 0.3,1.2 0.5,2.7 0.5,4.5 z m -13,-1.4 h 7.9 c 0.5,0 0.8,-0.2 1.1,-0.5 0.3,-0.3 0.4,-0.9 0.4,-1.6 0,-1.4 -0.4,-2.6 -1.3,-3.6 -0.9,-1 -1.9,-1.5 -3.1,-1.5 -1.3,0 -2.5,0.6 -3.4,1.8 -1.1,1.2 -1.6,3 -1.6,5.4 z"
       id="path6126" /><path
       style="fill:#ffffff"
       inkscape:connector-curvature="0"
       d="m 92.9,17 6.6,-0.3 V 24 c 0.7,-2.4 1.5,-4.3 2.5,-5.5 1,-1.2 2.2,-1.9 3.7,-1.9 1,0 1.8,0.3 2.4,0.9 0.6,0.6 0.9,1.4 0.9,2.4 0,0.8 -0.2,1.5 -0.6,1.9 -0.4,0.4 -0.9,0.7 -1.5,0.7 -0.6,0 -1.1,-0.2 -1.4,-0.6 -0.4,-0.4 -0.5,-0.9 -0.5,-1.6 0,-0.4 0.1,-0.8 0.3,-1.2 0.2,-0.3 0.3,-0.5 0.3,-0.6 0,-0.2 -0.1,-0.3 -0.4,-0.3 -0.5,0 -1.1,0.3 -1.8,0.9 -0.9,0.9 -1.7,2.1 -2.2,3.6 -0.8,2.4 -1.2,4.2 -1.2,5.7 v 3.9 c 0,0.4 0.2,0.8 0.5,1 0.3,0.2 0.8,0.4 1.6,0.4 h 2.3 v 1.5 H 93.1 v -1.5 h 1.8 c 0.6,0 1.1,-0.1 1.4,-0.4 0.3,-0.2 0.5,-0.5 0.5,-0.9 V 20.9 C 96.8,20 96.6,19.4 96.2,19 95.8,18.6 95.3,18.4 94.6,18.4 H 93 V 17 z"
       id="path6128" /><path
       style="fill:#ffffff"
       inkscape:connector-curvature="0"
       d="m 123.1,17 5.2,-0.3 c 0.3,1.4 0.5,2.6 0.6,3.9 1,-1.4 2,-2.4 3,-3 1,-0.6 2.1,-0.9 3.3,-0.9 1.3,0 2.3,0.3 3.1,1 0.8,0.7 1.4,1.7 1.9,3.2 0.9,-1.4 1.8,-2.5 2.9,-3.2 1.1,-0.7 2.2,-1 3.5,-1 1.7,0 2.9,0.5 3.7,1.5 1.1,1.3 1.6,3 1.6,5 v 9 c 0,0.5 0.1,0.9 0.4,1.1 0.4,0.3 0.9,0.4 1.6,0.4 h 0.9 v 1.5 h -9.2 v -1.5 h 0.9 c 0.8,0 1.3,-0.1 1.6,-0.4 0.3,-0.3 0.5,-0.6 0.5,-1.2 V 23 c 0,-1.3 -0.3,-2.4 -1,-3.1 -0.7,-0.7 -1.5,-1.1 -2.6,-1.1 -0.8,0 -1.6,0.2 -2.2,0.7 -0.7,0.4 -1.2,1.1 -1.6,1.9 -0.6,1.2 -0.8,2.1 -0.8,2.9 v 7.8 c 0,0.5 0.1,0.9 0.4,1.2 0.3,0.3 0.7,0.4 1.3,0.4 h 1.2 v 1.5 H 134 v -1.5 h 1.1 c 0.7,0 1.2,-0.1 1.5,-0.4 0.3,-0.3 0.5,-0.6 0.5,-1 v -8.4 c 0,-1.8 -0.3,-3.1 -0.9,-3.9 -0.6,-0.8 -1.5,-1.2 -2.5,-1.2 -1.4,0 -2.4,0.5 -3.2,1.4 -1,1.3 -1.6,2.9 -1.6,4.6 v 7.3 c 0,0.6 0.1,0.9 0.4,1.1 0.4,0.3 0.9,0.4 1.6,0.4 h 0.9 v 1.5 h -9.2 v -1.5 h 1.4 c 0.5,0 0.9,-0.1 1.2,-0.4 0.3,-0.3 0.4,-0.6 0.4,-1 V 20.4 c 0,-0.7 -0.2,-1.2 -0.5,-1.5 -0.3,-0.3 -1,-0.5 -2,-0.6 V 17 z"
       id="path6130" /><path
       style="fill:#ffffff"
       inkscape:connector-curvature="0"
       d="m 174.5,26.2 h -13 c 0.1,2.8 0.6,4.7 1.6,5.9 1.1,1.3 2.5,1.9 4.3,1.9 2.5,0 4.6,-1.4 6.1,-4.3 l 1.3,0.5 c -1.9,3.7 -4.6,5.5 -8.2,5.5 -2.4,0 -4.5,-0.9 -6.2,-2.6 -1.7,-1.8 -2.5,-4 -2.5,-6.8 0,-3 0.8,-5.3 2.5,-7.2 1.6,-1.8 3.7,-2.7 6.1,-2.7 1.8,0 3.3,0.5 4.6,1.4 1.3,0.9 2.2,2.2 2.9,3.9 0.2,1.2 0.5,2.7 0.5,4.5 z m -13.1,-1.4 h 7.9 c 0.5,0 0.8,-0.2 1.1,-0.5 0.3,-0.3 0.4,-0.9 0.4,-1.6 0,-1.4 -0.4,-2.6 -1.3,-3.6 -0.9,-1 -1.9,-1.5 -3.1,-1.5 -1.3,0 -2.5,0.6 -3.4,1.8 -1,1.2 -1.5,3 -1.6,5.4 z"
       id="path6132" /><path
       style="fill:#ffffff"
       inkscape:connector-curvature="0"
       d="m 177.3,17 6,-0.4 c 0.2,1.1 0.4,2.5 0.5,4 0.8,-1.3 1.8,-2.3 2.9,-3 1.1,-0.7 2.4,-1 3.8,-1 1.2,0 2.2,0.2 3,0.7 0.8,0.5 1.5,1.2 2,2.2 0.5,1 0.7,2.2 0.7,3.4 v 8.9 c 0,0.7 0.1,1.1 0.4,1.4 0.3,0.3 0.8,0.4 1.5,0.4 h 1.3 v 1.5 h -9.6 v -1.5 h 0.9 c 0.9,0 1.5,-0.1 1.8,-0.4 0.3,-0.3 0.5,-0.7 0.5,-1.2 v -7.8 c 0,-1.7 -0.3,-3 -0.8,-3.8 -0.7,-1.2 -1.8,-1.8 -3.3,-1.8 -1.5,0 -2.7,0.6 -3.7,1.8 -1,1.2 -1.5,2.7 -1.5,4.6 v 6.7 c 0,0.7 0.2,1.1 0.5,1.4 0.3,0.3 0.8,0.4 1.5,0.4 H 187 V 35 h -9.6 v -1.5 h 1.3 c 0.6,0 1.1,-0.1 1.4,-0.4 0.3,-0.3 0.5,-0.6 0.5,-1 V 20.6 c 0,-0.8 -0.2,-1.4 -0.6,-1.8 -0.4,-0.4 -1,-0.6 -1.8,-0.6 h -0.9 V 17 z"
       id="path6134" /><path
       style="fill:#ffffff"
       inkscape:connector-curvature="0"
       d="m 206.4,9.5 h 1.3 V 17 h 5.9 v 1.8 h -5.9 v 11.7 c 0,1 0.2,1.8 0.7,2.3 0.5,0.5 1.1,0.8 1.8,0.8 0.9,0 1.6,-0.4 2.3,-1.2 0.6,-0.8 1,-2.2 1.1,-4 h 1.3 c -0.1,2.4 -0.6,4.2 -1.7,5.4 -1,1.2 -2.4,1.8 -4,1.8 -1.5,0 -2.7,-0.4 -3.5,-1.2 -0.8,-0.8 -1.3,-1.9 -1.3,-3.2 V 18.8 h -3.2 v -1.4 c 1.4,-0.2 2.5,-0.8 3.3,-1.8 1.2,-1.5 1.9,-3.5 1.9,-6.1 z"
       id="path6136" /><path
       style="fill:#d66c29"
       inkscape:connector-curvature="0"
       d="m 111.2,14 c 0,0 0.8,0.5 0.9,1.3 0.1,0.7 0,9.2 0,9.2 l -5.5,11 c 0,0 -1.6,4.7 0.7,5.5 2.3,0.8 13.2,0.4 14.4,0 1.2,-0.4 2.6,-2.1 1.6,-4.4 -1,-2.3 -6.1,-12 -6.1,-12 V 16 c 0,0 0.1,-1.5 0.5,-1.8 0.6,-0.5 -6.5,-0.2 -6.5,-0.2 z"
       id="path6138" /><path
       style="fill:#faa51a"
       inkscape:connector-curvature="0"
       d="m 106.2,38.9 c 0,0 0.1,-5.1 4,-8.4 3.9,-3.3 2.5,-6.7 2.5,-6.7 0,0 1.6,3.3 -0.4,7.9 -2.1,4.6 -6.1,7.2 -6.1,7.2 z"
       id="path6140" /><circle
       style="fill:#faa51a"
       sodipodi:ry="1"
       sodipodi:rx="1"
       sodipodi:cy="6.0999999"
       sodipodi:cx="117.6"
       d="m 118.6,6.0999999 c 0,0.5522848 -0.44772,1 -1,1 -0.55229,0 -1,-0.4477152 -1,-1 0,-0.5522847 0.44771,-1 1,-1 0.55228,0 1,0.4477153 1,1 z"
       cx="117.6"
       cy="6.0999999"
       r="1"
       id="circle6142" /><circle
       style="fill:#d66c29"
       sodipodi:ry="2.8"
       sodipodi:rx="2.8"
       sodipodi:cy="6.0999999"
       sodipodi:cx="112.6"
       d="m 115.4,6.0999999 c 0,1.5463973 -1.2536,2.8 -2.8,2.8 -1.5464,0 -2.8,-1.2536027 -2.8,-2.8 C 109.8,4.5536026 111.0536,3.3 112.6,3.3 c 1.5464,0 2.8,1.2536026 2.8,2.7999999 z"
       cx="112.6"
       cy="6.0999999"
       r="2.8"
       id="circle6144" /><circle
       style="fill:#faa51a"
       sodipodi:ry="1.2"
       sodipodi:rx="1.2"
       sodipodi:cy="7"
       sodipodi:cx="111.4"
       d="m 112.6,7 c 0,0.6627417 -0.53726,1.2 -1.2,1.2 -0.66274,0 -1.2,-0.5372583 -1.2,-1.2 0,-0.6627417 0.53726,-1.2 1.2,-1.2 0.66274,0 1.2,0.5372583 1.2,1.2 z"
       cx="111.4"
       cy="7"
       r="1.2"
       id="circle6146" /><circle
       style="fill:#faa51a"
       sodipodi:ry="1"
       sodipodi:rx="1"
       sodipodi:cy="10.9"
       sodipodi:cx="114.7"
       d="m 115.7,10.9 c 0,0.552284 -0.44772,1 -1,1 -0.55229,0 -1,-0.447716 -1,-1 0,-0.552285 0.44771,-1.0000004 1,-1.0000004 0.55228,0 1,0.4477154 1,1.0000004 z"
       cx="114.7"
       cy="10.9"
       r="1"
       id="circle6148" /><rect
       style="fill:#d66c29"
       y="0"
       x="224.60001"
       width="207.89999"
       height="45"
       id="rect6150" /><path
       style="fill:#ffffff"
       inkscape:connector-curvature="0"
       d="m 236.2,15.5 h 2 v 20.2 h -2 V 15.5 z"
       id="path6152" /><path
       style="fill:#ffffff"
       inkscape:connector-curvature="0"
       d="M 244.3,35.7 V 15.5 h 0.4 L 258.1,31 V 15.5 h 2 v 20.2 h -0.5 L 246.3,20.4 v 15.3 h -2 z"
       id="path6154" /><path
       style="fill:#ffffff"
       inkscape:connector-curvature="0"
       d="m 289.2,9.4 12.2,26.1 h -2.8 l -4.1,-8.6 h -11.2 l -4.1,8.6 h -2.9 L 288.6,9.4 h 0.6 z m -0.3,5.5 -4.5,9.4 h 8.9 l -4.4,-9.4 z"
       id="path6156" /><path
       style="fill:#ffffff"
       inkscape:connector-curvature="0"
       d="m 331.5,14.2 -2.1,1.6 c -1.1,-1.5 -2.5,-2.6 -4.1,-3.4 -1.6,-0.8 -3.3,-1.1 -5.2,-1.1 -2.1,0 -4,0.5 -5.8,1.5 -1.8,1 -3.1,2.3 -4.1,4 -1,1.7 -1.5,3.6 -1.5,5.7 0,3.2 1.1,5.8 3.3,8 2.2,2.2 4.9,3.2 8.3,3.2 3.7,0 6.7,-1.4 9.2,-4.3 l 2.1,1.6 c -1.3,1.7 -2.9,2.9 -4.9,3.8 -1.9,0.9 -4.1,1.4 -6.5,1.4 -4.6,0 -8.2,-1.5 -10.8,-4.6 -2.2,-2.6 -3.3,-5.7 -3.3,-9.3 0,-3.8 1.3,-7 4,-9.6 2.7,-2.6 6,-3.9 10.1,-3.9 2.4,0 4.6,0.5 6.6,1.4 1.9,0.9 3.5,2.3 4.7,4 z"
       id="path6158" /><path
       style="fill:#ffffff"
       inkscape:connector-curvature="0"
       d="M 336,11.9 V 9.4 h 14.3 V 12 h -5.8 v 23.5 h -2.7 V 11.9 H 336 z"
       id="path6160" /><path
       style="fill:#ffffff"
       inkscape:connector-curvature="0"
       d="m 355.5,9.4 h 2.6 v 26.1 h -2.6 V 9.4 z"
       id="path6162" /><path
       style="fill:#ffffff"
       inkscape:connector-curvature="0"
       d="m 378.3,8.7 c 4,0 7.3,1.3 9.9,4 2.7,2.6 4,5.9 4,9.7 0,3.8 -1.3,7.1 -4,9.7 -2.7,2.7 -5.9,4 -9.7,4 -3.9,0 -7.1,-1.3 -9.8,-4 -2.7,-2.6 -4,-5.9 -4,-9.6 0,-2.5 0.6,-4.8 1.8,-7 1.2,-2.2 2.9,-3.8 5,-5 2.1,-1.2 4.4,-1.8 6.8,-1.8 z m 0.1,2.6 c -1.9,0 -3.8,0.5 -5.5,1.5 -1.7,1 -3.1,2.4 -4.1,4.1 -1,1.7 -1.5,3.6 -1.5,5.7 0,3.1 1.1,5.7 3.2,7.9 2.2,2.1 4.7,3.2 7.8,3.2 2,0 3.9,-0.5 5.6,-1.5 1.7,-1 3.1,-2.3 4,-4 1,-1.7 1.4,-3.6 1.4,-5.7 0,-2.1 -0.5,-3.9 -1.4,-5.6 -0.9,-1.7 -2.3,-3 -4.1,-4 -1.5,-1.1 -3.4,-1.6 -5.4,-1.6 z"
       id="path6164" /><path
       style="fill:#ffffff"
       inkscape:connector-curvature="0"
       d="M 399.3,35.5 V 9.4 h 0.6 l 17.4,20 v -20 h 2.6 v 26.1 h -0.6 L 402,15.7 v 19.8 h -2.7 z"
       id="path6166" /></g></g></svg>