<?xml version="1.0" encoding="UTF-8" standalone="no"?>
<!-- Generator: Adobe Illustrator 14.0.0, SVG Export Plug-In  -->

<svg
   xmlns:dc="http://purl.org/dc/elements/1.1/"
   xmlns:cc="http://creativecommons.org/ns#"
   xmlns:rdf="http://www.w3.org/1999/02/22-rdf-syntax-ns#"
   xmlns:svg="http://www.w3.org/2000/svg"
   xmlns="http://www.w3.org/2000/svg"
   xmlns:sodipodi="http://sodipodi.sourceforge.net/DTD/sodipodi-0.dtd"
   xmlns:inkscape="http://www.inkscape.org/namespaces/inkscape"
   version="1.1"
   x="0px"
   y="0px"
   width="540"
   height="67.5"
   viewBox="-0.671 -0.5 540 67.5"
   enable-background="new -0.671 -0.5 495 67"
   xml:space="preserve"
   id="svg4397"
   inkscape:version="0.48.3.1 r9886"
   sodipodi:docname="CNX_Bio_Art.svg"><metadata
   id="metadata4439"><rdf:RDF><cc:Work
       rdf:about=""><dc:format>image/svg+xml</dc:format><dc:type
         rdf:resource="http://purl.org/dc/dcmitype/StillImage" /></cc:Work></rdf:RDF></metadata><sodipodi:namedview
   pagecolor="#ffffff"
   bordercolor="#666666"
   borderopacity="1"
   objecttolerance="10"
   gridtolerance="10"
   guidetolerance="10"
   inkscape:pageopacity="0"
   inkscape:pageshadow="2"
   inkscape:window-width="1366"
   inkscape:window-height="744"
   id="namedview4437"
   showgrid="false"
   inkscape:zoom="0.58989899"
   inkscape:cx="247.5"
   inkscape:cy="33.5"
   inkscape:window-x="0"
   inkscape:window-y="24"
   inkscape:window-maximized="1"
   inkscape:current-layer="svg4397"
   units="in" />
<defs
   id="defs4399">
</defs>

















<g
   id="g4441"
   transform="matrix(0.79811839,0,0,0.76913224,0,9.7575)"><rect
     id="rect4401"
     height="58.549"
     width="496.16699"
     y="7.0380001"
     x="0"
     style="fill:#010101" /><rect
     id="rect4403"
     height="53.679001"
     width="193.287"
     y="7.0380001"
     x="0"
     style="fill:#010101" /><rect
     id="rect4405"
     height="57.513"
     width="56.812"
     transform="matrix(0.995,0.0997,-0.0997,0.995,3.9135,-8.992)"
     y="5.8899999"
     x="63.487"
     style="fill:#517542" /><rect
     id="rect4407"
     height="61.226002"
     width="53.548"
     transform="matrix(0.9994,-0.0337,0.0337,0.9994,-1.0134,4.9847)"
     y="1.9400001"
     x="120.582"
     style="fill:#d66c29" /><rect
     id="rect4409"
     height="58.790001"
     width="53.679001"
     transform="matrix(0.9906,-0.1369,0.1369,0.9906,-4.1569,5.1603)"
     y="3.3989999"
     x="8.5880003"
     style="fill:#005273" /><path
     id="path4411"
     d="m 45.043,48.398 1.011,1.572 c -1.367,1.404 -2.883,2.106 -4.549,2.106 -1.273,0 -2.345,-0.347 -3.215,-1.039 -0.87,-0.692 -1.634,-1.909 -2.289,-3.65 -1.779,1.872 -3.342,3.122 -4.69,3.749 -1.348,0.627 -2.967,0.94 -4.858,0.94 -2.696,0 -4.746,-0.58 -6.15,-1.741 -1.404,-1.16 -2.106,-2.648 -2.106,-4.465 0,-2.733 1.605,-5.003 4.816,-6.811 3.21,-1.806 7.484,-3.008 12.819,-3.607 v -3.988 c 0,-1.422 -0.571,-2.64 -1.713,-3.65 -1.142,-1.011 -2.593,-1.517 -4.353,-1.517 -1.629,0 -3.033,0.337 -4.212,1.011 -0.842,0.506 -1.264,1.002 -1.264,1.489 0,0.281 0.225,0.721 0.674,1.32 0.543,0.749 0.814,1.414 0.814,1.994 0,0.842 -0.271,1.53 -0.814,2.064 -0.543,0.534 -1.254,0.8 -2.134,0.8 -0.936,0 -1.718,-0.318 -2.345,-0.955 -0.627,-0.636 -0.941,-1.451 -0.941,-2.443 0,-1.853 1.043,-3.547 3.131,-5.083 2.087,-1.535 4.825,-2.303 8.214,-2.303 3.126,0 5.514,0.674 7.161,2.021 1.647,1.367 2.471,3.024 2.471,4.971 v 14.378 c 0,1.273 0.206,2.209 0.618,2.808 0.412,0.618 0.945,0.927 1.601,0.927 0.73,10e-4 1.498,-0.298 2.303,-0.898 z M 35.832,37.307 c -4.755,0.654 -8.125,1.723 -10.109,3.201 -1.479,1.123 -2.218,2.715 -2.218,4.773 0,1.442 0.383,2.569 1.151,3.384 0.767,0.814 1.769,1.222 3.004,1.222 2.209,0 4.124,-0.838 5.743,-2.513 1.619,-1.676 2.429,-3.777 2.429,-6.305 v -3.762 z"
     inkscape:connector-curvature="0"
     style="fill:#ffffff" /><path
     id="path4413"
     d="M 80.764,24.978 90.227,24.5 v 10.643 c 1.011,-3.5 2.228,-6.15 3.651,-7.947 1.422,-1.797 3.183,-2.696 5.279,-2.696 1.423,0 2.56,0.436 3.412,1.306 0.852,0.87 1.278,2.036 1.278,3.496 0,1.179 -0.286,2.097 -0.856,2.752 -0.571,0.656 -1.288,0.983 -2.148,0.983 -0.842,0 -1.521,-0.281 -2.036,-0.842 -0.515,-0.562 -0.772,-1.32 -0.772,-2.275 0,-0.618 0.149,-1.198 0.449,-1.741 0.281,-0.486 0.421,-0.776 0.421,-0.871 0,-0.281 -0.178,-0.421 -0.534,-0.421 -0.768,0 -1.639,0.449 -2.612,1.348 -1.348,1.255 -2.387,2.977 -3.117,5.167 -1.123,3.408 -1.685,6.131 -1.685,8.171 v 5.645 c 0,0.637 0.225,1.124 0.674,1.461 0.449,0.337 1.217,0.505 2.303,0.505 h 3.342 V 51.29 H 80.932 v -2.106 h 2.611 c 0.88,0 1.545,-0.173 1.994,-0.52 0.449,-0.346 0.674,-0.763 0.674,-1.249 V 30.65 c 0,-1.272 -0.271,-2.204 -0.814,-2.794 -0.543,-0.59 -1.32,-0.885 -2.331,-0.885 h -2.303 v -1.993 z"
     inkscape:connector-curvature="0"
     style="fill:#ffffff" /><path
     id="path4415"
     d="m 145.605,14.25 h 1.881 v 10.728 h 8.509 v 2.583 h -8.509 v 16.877 c 0,1.461 0.346,2.58 1.039,3.356 0.692,0.777 1.573,1.165 2.64,1.165 1.273,0 2.359,-0.59 3.258,-1.769 0.898,-1.18 1.422,-3.127 1.572,-5.842 h 1.882 c -0.112,3.501 -0.908,6.099 -2.387,7.793 -1.479,1.694 -3.398,2.542 -5.757,2.542 -2.172,0 -3.871,-0.595 -5.097,-1.783 -1.227,-1.189 -1.839,-2.748 -1.839,-4.676 V 27.562 h -4.578 v -1.966 c 2.086,-0.355 3.674,-1.226 4.764,-2.611 1.616,-2.079 2.49,-4.99 2.622,-8.735 z"
     inkscape:connector-curvature="0"
     style="fill:#ffffff" /><path
     id="path4417"
     d="m 223.737,28.215 -2.28,1.75 c -1.258,-1.638 -2.769,-2.88 -4.531,-3.725 -1.763,-0.845 -3.699,-1.268 -5.809,-1.268 -2.307,0 -4.443,0.554 -6.409,1.661 -1.966,1.108 -3.489,2.595 -4.57,4.462 -1.081,1.867 -1.622,3.968 -1.622,6.3 0,3.526 1.209,6.468 3.627,8.827 2.417,2.358 5.468,3.538 9.15,3.538 4.049,0 7.437,-1.586 10.163,-4.757 l 2.28,1.729 c -1.442,1.835 -3.241,3.253 -5.396,4.256 -2.156,1.002 -4.564,1.504 -7.224,1.504 -5.059,0 -9.049,-1.684 -11.972,-5.052 -2.451,-2.844 -3.676,-6.277 -3.676,-10.301 0,-4.233 1.484,-7.794 4.452,-10.684 2.968,-2.89 6.687,-4.334 11.156,-4.334 2.7,0 5.137,0.534 7.312,1.602 2.177,1.069 3.96,2.566 5.349,4.492 z"
     inkscape:connector-curvature="0"
     style="fill:#ffffff" /><path
     id="path4419"
     d="m 245.319,22.121 c 4.379,0 8.045,1.461 10.996,4.384 2.949,2.922 4.426,6.52 4.426,10.792 0,4.233 -1.473,7.823 -4.416,10.772 -2.945,2.948 -6.533,4.423 -10.77,4.423 -4.288,0 -7.908,-1.468 -10.858,-4.403 -2.95,-2.936 -4.426,-6.487 -4.426,-10.655 0,-2.777 0.672,-5.353 2.017,-7.725 1.344,-2.372 3.176,-4.229 5.498,-5.573 2.32,-1.343 4.831,-2.015 7.533,-2.015 z m 0.128,2.811 c -2.14,0 -4.167,0.558 -6.084,1.672 -1.917,1.115 -3.413,2.617 -4.489,4.505 -1.076,1.889 -1.614,3.994 -1.614,6.314 0,3.438 1.191,6.339 3.573,8.706 2.382,2.367 5.254,3.551 8.614,3.551 2.245,0 4.321,-0.544 6.231,-1.633 1.91,-1.088 3.4,-2.577 4.469,-4.466 1.07,-1.889 1.605,-3.986 1.605,-6.295 0,-2.295 -0.535,-4.371 -1.605,-6.227 -1.068,-1.856 -2.576,-3.341 -4.518,-4.456 -1.943,-1.113 -4.003,-1.671 -6.182,-1.671 z"
     inkscape:connector-curvature="0"
     style="fill:#ffffff" /><path
     id="path4421"
     d="M 268.572,51.765 V 22.849 h 0.629 l 19.245,22.165 V 22.849 h 2.851 v 28.916 h -0.648 L 271.56,29.869 v 21.896 h -2.988 z"
     inkscape:connector-curvature="0"
     style="fill:#ffffff" /><path
     id="path4423"
     d="M 300.366,51.765 V 22.849 h 0.629 L 320.24,45.014 V 22.849 h 2.851 v 28.916 h -0.648 L 303.355,29.869 v 21.896 h -2.989 z"
     inkscape:connector-curvature="0"
     style="fill:#ffffff" /><path
     id="path4425"
     d="m 332.16,22.849 h 16.571 v 2.831 h -13.682 v 9.062 h 13.564 v 2.831 h -13.564 v 11.361 h 13.564 v 2.831 H 332.16 V 22.849 z"
     inkscape:connector-curvature="0"
     style="fill:#ffffff" /><path
     id="path4427"
     d="m 382.668,28.215 -2.28,1.75 c -1.258,-1.638 -2.769,-2.88 -4.53,-3.725 -1.764,-0.845 -3.699,-1.268 -5.81,-1.268 -2.307,0 -4.442,0.554 -6.408,1.661 -1.966,1.108 -3.489,2.595 -4.57,4.462 -1.081,1.867 -1.622,3.968 -1.622,6.3 0,3.526 1.209,6.468 3.627,8.827 2.418,2.358 5.468,3.538 9.15,3.538 4.05,0 7.438,-1.586 10.163,-4.757 l 2.28,1.729 c -1.441,1.835 -3.24,3.253 -5.396,4.256 -2.156,1.002 -4.564,1.504 -7.225,1.504 -5.059,0 -9.049,-1.684 -11.971,-5.052 -2.451,-2.844 -3.677,-6.277 -3.677,-10.301 0,-4.233 1.484,-7.794 4.453,-10.684 2.968,-2.89 6.687,-4.334 11.155,-4.334 2.699,0 5.137,0.534 7.312,1.602 2.179,1.069 3.961,2.566 5.349,4.492 z"
     inkscape:connector-curvature="0"
     style="fill:#ffffff" /><path
     id="path4429"
     d="m 387.61,25.679 v -2.831 h 15.844 v 2.831 h -6.447 v 26.085 h -2.948 V 25.679 h -6.449 z"
     inkscape:connector-curvature="0"
     style="fill:#ffffff" /><path
     id="path4431"
     d="m 409.221,22.849 h 2.89 v 28.916 h -2.89 V 22.849 z"
     inkscape:connector-curvature="0"
     style="fill:#ffffff" /><path
     id="path4433"
     d="m 434.519,22.121 c 4.379,0 8.045,1.461 10.995,4.384 2.95,2.923 4.426,6.52 4.426,10.792 0,4.233 -1.472,7.823 -4.416,10.772 -2.944,2.948 -6.533,4.423 -10.77,4.423 -4.288,0 -7.907,-1.468 -10.857,-4.403 -2.951,-2.936 -4.426,-6.487 -4.426,-10.655 0,-2.777 0.672,-5.353 2.016,-7.725 1.345,-2.372 3.177,-4.229 5.498,-5.573 2.321,-1.343 4.832,-2.015 7.534,-2.015 z m 0.128,2.811 c -2.14,0 -4.168,0.558 -6.084,1.672 -1.917,1.115 -3.413,2.617 -4.489,4.505 -1.077,1.889 -1.615,3.994 -1.615,6.314 0,3.438 1.191,6.339 3.574,8.706 2.382,2.367 5.253,3.551 8.614,3.551 2.244,0 4.321,-0.544 6.231,-1.633 1.909,-1.088 3.399,-2.577 4.469,-4.466 1.07,-1.889 1.605,-3.986 1.605,-6.295 0,-2.295 -0.535,-4.371 -1.605,-6.227 -1.069,-1.856 -2.576,-3.341 -4.519,-4.456 -1.942,-1.113 -4.002,-1.671 -6.181,-1.671 z"
     inkscape:connector-curvature="0"
     style="fill:#ffffff" /><path
     id="path4435"
     d="M 457.772,51.765 V 22.849 h 0.629 l 19.245,22.165 V 22.849 h 2.851 v 28.916 h -0.648 L 460.76,29.869 v 21.896 h -2.988 z"
     inkscape:connector-curvature="0"
     style="fill:#ffffff" /></g>
</svg>