<?xml version="1.0" encoding="UTF-8" standalone="no"?>
<!-- Generator: Adobe Illustrator 14.0.0, SVG Export Plug-In  -->

<svg
   xmlns:dc="http://purl.org/dc/elements/1.1/"
   xmlns:cc="http://creativecommons.org/ns#"
   xmlns:rdf="http://www.w3.org/1999/02/22-rdf-syntax-ns#"
   xmlns:svg="http://www.w3.org/2000/svg"
   xmlns="http://www.w3.org/2000/svg"
   xmlns:sodipodi="http://sodipodi.sourceforge.net/DTD/sodipodi-0.dtd"
   xmlns:inkscape="http://www.inkscape.org/namespaces/inkscape"
   version="1.1"
   x="0px"
   y="0px"
   width="433px"
   height="64px"
   viewBox="0 -3.5 433 64"
   enable-background="new 0 -3.5 433 64"
   xml:space="preserve"
   id="svg3225"
   inkscape:version="0.48.3.1 r9886"
   sodipodi:docname="CNX_BioNonMaj_Career.svg"><metadata
   id="metadata3275"><rdf:RDF><cc:Work
       rdf:about=""><dc:format>image/svg+xml</dc:format><dc:type
         rdf:resource="http://purl.org/dc/dcmitype/StillImage" /><dc:title></dc:title></cc:Work></rdf:RDF></metadata><sodipodi:namedview
   pagecolor="#ffffff"
   bordercolor="#666666"
   borderopacity="1"
   objecttolerance="10"
   gridtolerance="10"
   guidetolerance="10"
   inkscape:pageopacity="0"
   inkscape:pageshadow="2"
   inkscape:window-width="1360"
   inkscape:window-height="744"
   id="namedview3273"
   showgrid="false"
   showguides="true"
   inkscape:guide-bbox="true"
   inkscape:zoom="1.8794886"
   inkscape:cx="222.88472"
   inkscape:cy="26.679404"
   inkscape:window-x="0"
   inkscape:window-y="303"
   inkscape:window-maximized="1"
   inkscape:current-layer="svg3225"><sodipodi:guide
     orientation="1,0"
     position="350.63982,132.43049"
     id="guide3301" /><sodipodi:guide
     orientation="0,1"
     position="459.69953,36.180055"
     id="guide3539" /></sodipodi:namedview>
<defs
   id="defs3227">
</defs>






















<g
   id="g4126"
   transform="matrix(0.80996658,0,0,0.80996658,0.24827455,15.567761)"><rect
     style="fill:#010101"
     x="0"
     id="rect4069"
     height="45"
     width="186"
     y="10.7" /><rect
     style="fill:#005273"
     id="rect4071"
     height="45"
     width="246.60001"
     y="10.7"
     x="186" /><path
     style="fill:#ffffff"
     inkscape:connector-curvature="0"
     id="path4073"
     d="m 261.5,17.6 14.3,30.6 h -3.3 l -4.8,-10.1 h -13.2 l -4.8,10.1 h -3.4 l 14.5,-30.6 h 0.7 z m -0.4,6.5 -5.2,11.1 h 10.5 l -5.3,-11.1 z" /><path
     style="fill:#ffffff"
     inkscape:connector-curvature="0"
     id="path4075"
     d="m 311.1,23.3 -2.4,1.9 c -1.3,-1.7 -2.9,-3 -4.8,-3.9 C 302,20.4 300,20 297.8,20 c -2.4,0 -4.7,0.6 -6.8,1.8 -2.1,1.2 -3.7,2.7 -4.8,4.7 -1.1,2 -1.7,4.2 -1.7,6.7 0,3.7 1.3,6.8 3.8,9.3 2.6,2.5 5.8,3.7 9.7,3.7 4.3,0 7.9,-1.7 10.7,-5 l 2.4,1.8 c -1.5,1.9 -3.4,3.4 -5.7,4.5 -2.3,1.1 -4.8,1.6 -7.6,1.6 -5.4,0 -9.6,-1.8 -12.7,-5.3 -2.6,-3 -3.9,-6.6 -3.9,-10.9 0,-4.5 1.6,-8.2 4.7,-11.3 3.1,-3.1 7.1,-4.6 11.8,-4.6 2.9,0 5.4,0.6 7.7,1.7 2.3,1 4.2,2.5 5.7,4.6 z" /><path
     style="fill:#ffffff"
     inkscape:connector-curvature="0"
     id="path4077"
     d="m 316.3,20.6 v -3 h 16.8 v 3 h -6.8 v 27.6 h -3.1 V 20.6 h -6.9 z" /><path
     style="fill:#ffffff"
     inkscape:connector-curvature="0"
     id="path4079"
     d="m 339.2,17.6 h 3.1 v 30.6 h -3.1 V 17.6 z" /><path
     style="fill:#ffffff"
     inkscape:connector-curvature="0"
     id="path4081"
     d="m 365.9,16.8 c 4.6,0 8.5,1.5 11.6,4.6 3.1,3.1 4.7,6.9 4.7,11.4 0,4.5 -1.6,8.3 -4.7,11.4 -3.1,3.1 -6.9,4.7 -11.4,4.7 -4.5,0 -8.4,-1.6 -11.5,-4.7 -3.1,-3.1 -4.7,-6.9 -4.7,-11.3 0,-2.9 0.7,-5.7 2.1,-8.2 1.4,-2.5 3.4,-4.5 5.8,-5.9 2.6,-1.3 5.3,-2 8.1,-2 z m 0.2,3 c -2.3,0 -4.4,0.6 -6.4,1.8 -2,1.2 -3.6,2.8 -4.7,4.8 -1.1,2 -1.7,4.2 -1.7,6.7 0,3.6 1.3,6.7 3.8,9.2 2.5,2.5 5.6,3.8 9.1,3.8 2.4,0 4.6,-0.6 6.6,-1.7 2,-1.2 3.6,-2.7 4.7,-4.7 1.1,-2 1.7,-4.2 1.7,-6.7 0,-2.4 -0.6,-4.6 -1.7,-6.6 -1.1,-2 -2.7,-3.5 -4.8,-4.7 -2.1,-1.3 -4.3,-1.9 -6.6,-1.9 z" /><path
     style="fill:#ffffff"
     inkscape:connector-curvature="0"
     id="path4083"
     d="M 390.5,48.2 V 17.6 h 0.7 L 411.5,41 V 17.6 h 3 v 30.6 h -0.7 L 393.7,25 v 23.2 h -3.2 z" /><path
     style="fill:#ffffff"
     inkscape:connector-curvature="0"
     id="path4085"
     d="m 27.7,38.9 1.7,0.5 c -1.3,4.9 -4.3,7.4 -8.9,7.4 -3.4,0 -6.1,-1.1 -8.2,-3.3 C 10.1,41.2 9,38.3 9,34.6 c 0,-4.3 1.2,-7.6 3.5,-9.9 2.3,-2.4 5.1,-3.5 8.3,-3.5 2.4,0 4.3,0.7 5.9,2 1.6,1.3 2.3,2.8 2.3,4.4 0,1 -0.3,1.8 -0.9,2.4 -0.6,0.6 -1.3,0.9 -2.1,0.9 -0.8,0 -1.4,-0.3 -2,-0.8 -0.5,-0.5 -0.8,-1.2 -0.8,-1.9 0,-0.8 0.3,-1.5 0.9,-2.2 0.3,-0.3 0.4,-0.6 0.4,-0.8 0,-0.5 -0.3,-1 -1,-1.5 C 22.9,23.2 22,23 20.9,23 c -2.1,0 -3.7,0.8 -4.8,2.3 -1.5,2.2 -2.3,5.1 -2.3,8.8 0,3.5 0.7,6.1 2.1,7.9 1.4,1.8 3.1,2.7 5.3,2.7 2.9,-0.1 5,-2 6.5,-5.8 z" /><path
     style="fill:#ffffff"
     inkscape:connector-curvature="0"
     id="path4087"
     d="m 58.3,43.4 0.9,1.4 c -1.3,1.3 -2.7,1.9 -4.2,1.9 -1.2,0 -2.2,-0.3 -3,-1 -0.8,-0.7 -1.5,-1.8 -2.1,-3.4 -1.6,1.7 -3.1,2.9 -4.3,3.5 -1.2,0.6 -2.7,0.9 -4.5,0.9 -2.5,0 -4.4,-0.5 -5.7,-1.6 -1.3,-1.1 -1.9,-2.4 -1.9,-4.1 0,-2.5 1.5,-4.6 4.4,-6.3 2.9,-1.7 6.9,-2.8 11.8,-3.3 v -3.7 c 0,-1.3 -0.5,-2.4 -1.6,-3.4 -1.1,-1 -2.4,-1.4 -4,-1.4 -1.5,0 -2.8,0.3 -3.9,0.9 -0.8,0.5 -1.2,0.9 -1.2,1.4 0,0.3 0.2,0.7 0.6,1.2 0.5,0.7 0.7,1.3 0.7,1.8 0,0.8 -0.2,1.4 -0.7,1.9 -0.5,0.5 -1.2,0.7 -2,0.7 -0.9,0 -1.6,-0.3 -2.2,-0.9 -0.6,-0.6 -0.9,-1.3 -0.9,-2.2 0,-1.7 1,-3.3 2.9,-4.7 1.9,-1.4 4.4,-2.1 7.6,-2.1 2.9,0 5.1,0.6 6.6,1.9 1.5,1.3 2.3,2.8 2.3,4.6 v 13.2 c 0,1.2 0.2,2 0.6,2.6 0.4,0.6 0.9,0.9 1.5,0.9 0.8,0.1 1.5,-0.1 2.3,-0.7 z M 49.8,33.2 c -4.4,0.6 -7.5,1.6 -9.3,2.9 -1.4,1 -2,2.5 -2,4.4 0,1.3 0.4,2.4 1.1,3.1 0.7,0.7 1.6,1.1 2.8,1.1 2,0 3.8,-0.8 5.3,-2.3 1.5,-1.5 2.2,-3.5 2.2,-5.8 v -3.4 z" /><path
     style="fill:#8190a7"
     inkscape:connector-curvature="0"
     id="path4089"
     d="m 61.7,49.9 c 0,0 -0.3,-2.5 1.3,-3.4 1.6,-0.8 1.8,-1 3,-1 1.2,0 3.9,0 3.9,0 0,0 0.4,-1 0.8,-1 0.5,0 -15.1,-15 -15.1,-15 0,0 -0.2,0.7 -1.3,0.7 -1.1,0 -3.6,-1 -3.6,-3.9 0,-2.9 2.3,-3.6 3.7,-3.6 1.5,0 1.8,0.6 1.8,0.6 L 70.7,10.6 c 0,0 -0.6,-1.5 -1.5,-2.7 C 68.4,6.9 67.9,6 69,5.3 70.1,4.6 70.7,3.2 70.7,3.2 L 69.4,1.3 69.2,0 h 1.5 L 72.1,2.4 74,1.3 c 0,0 1.1,-0.4 1.9,0.2 0.8,0.6 2.5,3.1 2.5,3.1 L 76.1,7 76.6,8.1 c 0,0 2.2,-1.6 3.7,-1.6 1.6,0 5.1,0.7 8.1,3 3,2.3 4.1,3.9 4.1,3.9 L 74.4,26.5 c 0,0 -2.1,-1.2 -2.8,-4.4 -0.8,-3.1 -1.1,-7.6 -0.7,-8.3 0.4,-0.7 -13.3,10.8 -13.3,10.8 0,0 0.3,0.5 0,1.9 -0.3,1.3 -0.5,1.9 -0.5,1.9 l 16.1,15.1 c 0,0 1.5,0.7 1.9,1.3 0.5,0.6 1.3,1 1.3,1 L 81,45.6 c 0,0 1.6,0.4 2.4,1.2 0.8,0.8 1,3.1 1,3.1 H 61.7 z" /><path
     style="fill:#ffffff"
     inkscape:connector-curvature="0"
     id="path4091"
     d="M 102.3,34.1 H 85 c 0.1,3.7 0.8,6.3 2.1,7.8 1.5,1.7 3.4,2.6 5.7,2.6 3.4,0 6.1,-1.9 8.1,-5.8 l 1.7,0.7 c -2.5,4.9 -6.2,7.3 -10.9,7.3 -3.2,0 -6,-1.2 -8.2,-3.5 -2.2,-2.3 -3.3,-5.3 -3.3,-9 0,-3.9 1.1,-7.1 3.3,-9.5 2.2,-2.4 4.9,-3.6 8.1,-3.6 2.3,0 4.4,0.6 6.1,1.8 1.7,1.2 3,2.9 3.9,5.2 0.3,1.6 0.7,3.6 0.7,6 z M 85,32.3 h 10.5 c 0.6,0 1.1,-0.2 1.4,-0.6 0.3,-0.4 0.5,-1.1 0.5,-2.2 0,-1.9 -0.6,-3.5 -1.8,-4.8 -1.2,-1.3 -2.6,-2 -4.2,-2 -1.8,0 -3.3,0.8 -4.6,2.4 -1.1,1.6 -1.8,4 -1.8,7.2 z" /><path
     style="fill:#ffffff"
     inkscape:connector-curvature="0"
     id="path4093"
     d="m 128.8,34.1 h -17.3 c 0.1,3.7 0.8,6.3 2.1,7.8 1.5,1.7 3.4,2.6 5.7,2.6 3.4,0 6.1,-1.9 8.1,-5.8 l 1.7,0.7 c -2.5,4.9 -6.2,7.3 -10.9,7.3 -3.2,0 -6,-1.2 -8.2,-3.5 -2.2,-2.3 -3.3,-5.3 -3.3,-9 0,-3.9 1.1,-7.1 3.3,-9.5 2.2,-2.4 4.9,-3.6 8.1,-3.6 2.3,0 4.4,0.6 6.1,1.8 1.7,1.2 3,2.9 3.9,5.2 0.3,1.6 0.6,3.6 0.7,6 z m -17.4,-1.8 h 10.5 c 0.6,0 1.1,-0.2 1.4,-0.6 0.3,-0.4 0.5,-1.1 0.5,-2.2 0,-1.9 -0.6,-3.5 -1.8,-4.8 -1.2,-1.3 -2.6,-2 -4.2,-2 -1.8,0 -3.3,0.8 -4.6,2.4 -1.1,1.6 -1.7,4 -1.8,7.2 z" /><path
     style="fill:#ffffff"
     inkscape:connector-curvature="0"
     id="path4095"
     d="m 132.1,21.9 8.7,-0.4 v 9.8 c 0.9,-3.2 2,-5.7 3.4,-7.3 1.3,-1.7 2.9,-2.5 4.9,-2.5 1.3,0 2.4,0.4 3.1,1.2 0.8,0.8 1.2,1.9 1.2,3.2 0,1.1 -0.3,1.9 -0.8,2.5 -0.5,0.6 -1.2,0.9 -2,0.9 -0.8,0 -1.4,-0.3 -1.9,-0.8 -0.5,-0.5 -0.7,-1.2 -0.7,-2.1 0,-0.6 0.1,-1.1 0.4,-1.6 0.3,-0.4 0.4,-0.7 0.4,-0.8 0,-0.3 -0.2,-0.4 -0.5,-0.4 -0.7,0 -1.5,0.4 -2.4,1.2 -1.2,1.2 -2.2,2.7 -2.9,4.8 -1,3.1 -1.5,5.6 -1.5,7.5 v 5.2 c 0,0.6 0.2,1 0.6,1.3 0.4,0.3 1.1,0.5 2.1,0.5 h 3.1 V 46 h -15 v -1.9 h 2.4 c 0.8,0 1.4,-0.2 1.8,-0.5 0.4,-0.3 0.6,-0.7 0.6,-1.1 V 27.1 c 0,-1.2 -0.2,-2 -0.7,-2.6 -0.5,-0.5 -1.2,-0.8 -2.1,-0.8 h -2.1 v -1.8 z" /><path
     style="fill:#ffffff"
     inkscape:connector-curvature="0"
     id="path4097"
     d="m 158.9,37 c 1.1,3 2.3,5 3.7,6.2 1.4,1.1 3.1,1.7 5.1,1.7 1.9,0 3.3,-0.4 4.3,-1.2 1,-0.8 1.5,-1.9 1.5,-3.1 0,-0.7 -0.2,-1.4 -0.6,-1.9 -0.4,-0.5 -0.9,-0.9 -1.5,-1.2 -0.6,-0.3 -2.4,-0.7 -5.1,-1.2 -2.6,-0.5 -4.5,-1.1 -5.5,-1.6 -1,-0.6 -1.8,-1.4 -2.4,-2.4 -0.6,-1 -0.9,-2.1 -0.9,-3.3 0,-1.8 0.6,-3.4 1.8,-4.8 1.5,-1.8 3.7,-2.8 6.4,-2.8 2.1,0 4.1,0.7 5.8,2 l 1.7,-1.8 h 1.1 l 0.7,8.6 h -1.7 c -0.8,-2.4 -1.8,-4.2 -3.1,-5.3 -1.3,-1.1 -2.9,-1.6 -4.8,-1.6 -1.6,0 -2.9,0.4 -3.9,1.2 -0.9,0.8 -1.4,1.8 -1.4,2.9 0,1 0.4,1.9 1.3,2.5 0.8,0.7 2.5,1.2 5,1.6 2.9,0.5 4.7,0.9 5.6,1.2 1.4,0.5 2.5,1.3 3.3,2.4 0.8,1.1 1.2,2.4 1.2,3.9 0,2.1 -0.8,3.9 -2.5,5.4 -1.7,1.5 -3.8,2.2 -6.4,2.2 -2.4,0 -4.6,-0.8 -6.7,-2.4 l -1.9,2.2 h -1.4 l -0.5,-9.6 h 1.8 z" /><path
     style="fill:#ffffff"
     inkscape:connector-curvature="0"
     id="path4099"
     d="m 200.4,24.4 h 2.3 v 23.3 h -2.3 V 24.4 z" /><path
     style="fill:#ffffff"
     inkscape:connector-curvature="0"
     id="path4101"
     d="M 209.7,47.7 V 24.4 h 0.5 l 15.5,17.8 V 24.4 h 2.3 v 23.3 h -0.5 L 212.1,30.1 v 17.6 h -2.4 z" /></g></svg>