<?xml version="1.0" encoding="UTF-8" standalone="no"?>
<!-- Generator: Adobe Illustrator 14.0.0, SVG Export Plug-In  -->

<svg
   xmlns:dc="http://purl.org/dc/elements/1.1/"
   xmlns:cc="http://creativecommons.org/ns#"
   xmlns:rdf="http://www.w3.org/1999/02/22-rdf-syntax-ns#"
   xmlns:svg="http://www.w3.org/2000/svg"
   xmlns="http://www.w3.org/2000/svg"
   xmlns:sodipodi="http://sodipodi.sourceforge.net/DTD/sodipodi-0.dtd"
   xmlns:inkscape="http://www.inkscape.org/namespaces/inkscape"
   version="1.1"
   x="0px"
   y="0px"
   width="433px"
   height="64px"
   viewBox="0 -3.5 433 64"
   enable-background="new 0 -3.5 433 64"
   xml:space="preserve"
   id="svg3225"
   inkscape:version="0.48.3.1 r9886"
   sodipodi:docname="CNX_BioMaj_Evolution.svg"><metadata
   id="metadata3275"><rdf:RDF><cc:Work
       rdf:about=""><dc:format>image/svg+xml</dc:format><dc:type
         rdf:resource="http://purl.org/dc/dcmitype/StillImage" /></cc:Work></rdf:RDF></metadata><sodipodi:namedview
   pagecolor="#ffffff"
   bordercolor="#666666"
   borderopacity="1"
   objecttolerance="10"
   gridtolerance="10"
   guidetolerance="10"
   inkscape:pageopacity="0"
   inkscape:pageshadow="2"
   inkscape:window-width="1615"
   inkscape:window-height="1026"
   id="namedview3273"
   showgrid="false"
   showguides="true"
   inkscape:guide-bbox="true"
   inkscape:zoom="1.3289991"
   inkscape:cx="216.5"
   inkscape:cy="32"
   inkscape:window-x="1425"
   inkscape:window-y="24"
   inkscape:window-maximized="1"
   inkscape:current-layer="svg3225"><sodipodi:guide
     orientation="1,0"
     position="350.63982,132.43049"
     id="guide3301" /></sodipodi:namedview>
<defs
   id="defs3227">
</defs>





















<g
   id="g3277"
   transform="matrix(0.81054049,0,0,0.81054049,0,12.937854)"><rect
     id="rect3229"
     height="45"
     width="193.60001"
     y="14.4"
     x="0"
     style="fill:#010101" /><rect
     id="rect3231"
     height="45"
     width="239"
     y="14.4"
     x="193.60001"
     style="fill:#517542" /><path
     id="path3233"
     d="M 31,51.4 C 31,51.4 37,31.8 28.4,0 43.9,28.2 34.1,45.3 31,51.4 z"
     inkscape:connector-curvature="0"
     style="fill:#75b152" /><path
     id="path3235"
     d="m 38.8,32.5 c 0,0 0.7,-24.4 11.7,-28.1 -6.4,10.4 -8.1,16 -11.7,28.1 z"
     inkscape:connector-curvature="0"
     style="fill:#517542" /><path
     id="path3237"
     d="M 26.5,41.1 H 11.6 c 0.1,3.2 0.7,5.4 1.8,6.7 1.3,1.5 2.9,2.2 4.9,2.2 2.9,0 5.2,-1.6 7,-4.9 l 1.4,0.6 c -2.2,4.2 -5.3,6.3 -9.4,6.3 -2.8,0 -5.1,-1 -7,-3 -1.9,-2 -2.8,-4.6 -2.8,-7.7 0,-3.4 0.9,-6.1 2.8,-8.2 1.9,-2.1 4.2,-3.1 6.9,-3.1 2,0 3.7,0.5 5.2,1.6 1.5,1 2.6,2.5 3.3,4.5 0.5,1.2 0.8,3 0.8,5 z M 11.6,39.6 h 9 c 0.5,0 0.9,-0.2 1.2,-0.5 0.3,-0.4 0.4,-1 0.4,-1.9 0,-1.6 -0.5,-3 -1.5,-4.1 -1,-1.1 -2.2,-1.7 -3.6,-1.7 -1.5,0 -2.8,0.7 -3.9,2.1 -1,1.2 -1.5,3.3 -1.6,6.1 z"
     inkscape:connector-curvature="0"
     style="fill:#ffffff" /><path
     id="path3239"
     d="m 52.3,30 c 2.8,0 5.1,1 7,3 1.9,2 2.8,4.7 2.8,8 0,2.3 -0.4,4.2 -1.3,5.8 -0.9,1.6 -2.1,2.9 -3.6,3.8 -1.5,0.9 -3.2,1.4 -5,1.4 -2.7,0 -5,-1 -6.8,-3.1 -1.9,-2 -2.8,-4.7 -2.8,-7.9 0,-3.3 0.9,-5.9 2.8,-8 1.9,-2 4.2,-3 6.9,-3 z m 0,1.6 c -1.7,0 -3,0.8 -4.1,2.2 -1.1,1.5 -1.6,3.9 -1.6,7.1 0,3.3 0.5,5.7 1.6,7.2 1.1,1.5 2.4,2.3 4.1,2.3 1.7,0 3.1,-0.8 4.2,-2.3 1.1,-1.5 1.6,-4 1.6,-7.5 0,-3.2 -0.5,-5.5 -1.6,-7 -1,-1.3 -2.4,-2 -4.2,-2 z"
     inkscape:connector-curvature="0"
     style="fill:#ffffff" /><path
     id="path3241"
     d="m 73.1,18.2 v 30.1 c 0,0.4 0.1,0.7 0.4,1 0.4,0.3 0.8,0.4 1.4,0.4 H 77 v 1.7 H 65.2 v -1.7 h 2.1 c 0.7,0 1.2,-0.2 1.5,-0.5 0.3,-0.3 0.5,-0.8 0.5,-1.4 V 22.6 c 0,-0.7 -0.2,-1.3 -0.6,-1.6 -0.5,-0.5 -1.2,-0.7 -2,-0.7 h -1.9 v -1.7 l 8.3,-0.4 z"
     inkscape:connector-curvature="0"
     style="fill:#ffffff" /><path
     id="path3243"
     d="M 86.6,30.2 V 44 c 0,1.7 0.4,3 1.3,3.9 0.8,0.9 1.9,1.4 3.3,1.4 1.7,0 3.1,-0.7 4.2,-2 1.2,-1.3 1.7,-3 1.7,-5 v -7.8 c 0,-0.7 -0.3,-1.3 -0.8,-1.7 -0.5,-0.4 -1.5,-0.6 -2.9,-0.7 v -1.6 l 7.3,-0.4 v 17 c 0,0.8 0.2,1.4 0.7,1.8 0.4,0.4 1.1,0.6 1.9,0.6 h 1.3 V 51 l -7,0.2 -0.4,-4.1 c -1.2,1.5 -2.5,2.6 -3.7,3.3 -1.2,0.7 -2.5,1.1 -3.8,1.1 -1.9,0 -3.4,-0.6 -4.7,-1.9 -1.3,-1.2 -1.9,-3.3 -1.9,-6.3 v -9 c 0,-0.8 -0.3,-1.4 -1,-1.8 C 81.7,32.2 80.7,32 79.4,32 v -1.6 l 7.2,-0.2 z"
     inkscape:connector-curvature="0"
     style="fill:#ffffff" /><path
     id="path3245"
     d="m 112.7,22.1 h 1.5 v 8.5 h 6.7 v 2 h -6.7 V 46 c 0,1.2 0.3,2 0.8,2.6 0.5,0.6 1.2,0.9 2.1,0.9 1,0 1.9,-0.5 2.6,-1.4 0.7,-0.9 1.1,-2.5 1.2,-4.6 h 1.5 c -0.1,2.8 -0.7,4.8 -1.9,6.1 -1.2,1.3 -2.7,2 -4.5,2 -1.7,0 -3.1,-0.5 -4,-1.4 -1,-0.9 -1.5,-2.2 -1.5,-3.7 V 32.6 h -3.6 V 31 c 1.6,-0.3 2.9,-1 3.8,-2.1 1.2,-1.5 1.9,-3.8 2,-6.8 z"
     inkscape:connector-curvature="0"
     style="fill:#ffffff" /><path
     id="path3247"
     d="m 124.5,30.6 8.3,-0.2 v 17.9 c 0,0.5 0.1,0.8 0.4,1 0.3,0.3 0.8,0.4 1.3,0.4 h 2.3 v 1.7 H 125 v -1.7 h 2.2 c 0.6,0 1.1,-0.2 1.4,-0.5 0.3,-0.3 0.5,-0.8 0.5,-1.4 v -13 c 0,-0.8 -0.2,-1.5 -0.7,-1.9 -0.5,-0.4 -1.2,-0.6 -2.1,-0.6 h -1.7 v -1.7 z m 5.8,-12.4 c 0.7,0 1.2,0.3 1.8,0.8 0.5,0.5 0.8,1.1 0.8,1.8 0,0.7 -0.2,1.2 -0.7,1.7 -0.5,0.5 -1.1,0.7 -1.8,0.7 -0.7,0 -1.3,-0.2 -1.8,-0.7 -0.5,-0.5 -0.7,-1.1 -0.7,-1.7 0,-0.7 0.3,-1.2 0.8,-1.8 0.5,-0.6 0.9,-0.8 1.6,-0.8 z"
     inkscape:connector-curvature="0"
     style="fill:#ffffff" /><path
     id="path3249"
     d="m 149,30 c 2.8,0 5.1,1 7,3 1.9,2 2.8,4.7 2.8,8 0,2.3 -0.4,4.2 -1.3,5.8 -0.9,1.6 -2.1,2.9 -3.6,3.8 -1.6,0.9 -3.3,1.4 -5.1,1.4 -2.7,0 -5,-1 -6.8,-3.1 -1.9,-2 -2.8,-4.7 -2.8,-7.9 0,-3.3 0.9,-5.9 2.8,-8 2,-2 4.3,-3 7,-3 z m 0,1.6 c -1.7,0 -3,0.8 -4.1,2.2 -1.1,1.5 -1.6,3.9 -1.6,7.1 0,3.3 0.5,5.7 1.6,7.2 1.1,1.5 2.4,2.3 4.1,2.3 1.7,0 3.1,-0.8 4.2,-2.3 1.1,-1.5 1.6,-4 1.6,-7.5 0,-3.2 -0.5,-5.5 -1.6,-7 -1,-1.3 -2.4,-2 -4.2,-2 z"
     inkscape:connector-curvature="0"
     style="fill:#ffffff" /><path
     id="path3251"
     d="m 161.9,30.6 6.9,-0.4 c 0.3,1.3 0.5,2.8 0.6,4.6 0.9,-1.5 2,-2.6 3.3,-3.4 1.3,-0.8 2.7,-1.1 4.3,-1.1 1.4,0 2.5,0.3 3.5,0.8 0.9,0.5 1.7,1.4 2.2,2.6 0.6,1.2 0.8,2.5 0.8,3.9 v 10.1 c 0,0.8 0.2,1.3 0.5,1.6 0.3,0.3 0.9,0.5 1.7,0.5 h 1.5 v 1.7 h -10.9 v -1.7 h 1 c 1,0 1.7,-0.2 2,-0.5 0.4,-0.3 0.6,-0.8 0.6,-1.4 V 39 c 0,-1.9 -0.3,-3.4 -0.9,-4.3 -0.8,-1.3 -2.1,-2 -3.8,-2 -1.7,0 -3.1,0.7 -4.2,2 -1.1,1.3 -1.7,3.1 -1.7,5.3 v 7.7 c 0,0.8 0.2,1.3 0.5,1.6 0.3,0.3 0.9,0.5 1.7,0.5 h 1.4 v 1.7 h -11 v -1.7 h 1.4 c 0.7,0 1.3,-0.1 1.7,-0.4 0.4,-0.3 0.6,-0.7 0.6,-1.1 V 34.7 c 0,-0.9 -0.2,-1.6 -0.7,-2 -0.5,-0.5 -1.2,-0.7 -2.1,-0.7 h -1.1 v -1.4 z"
     inkscape:connector-curvature="0"
     style="fill:#ffffff" /><path
     id="path3253"
     d="m 220.6,32.8 -1.8,1.4 c -1,-1.3 -2.2,-2.3 -3.6,-2.9 -1.4,-0.6 -2.9,-1 -4.6,-1 -1.8,0 -3.5,0.4 -5.1,1.3 -1.6,0.9 -2.8,2 -3.6,3.5 -0.8,1.5 -1.3,3.1 -1.3,5 0,2.8 1,5.1 2.9,7 1.9,1.9 4.3,2.8 7.2,2.8 3.2,0 5.9,-1.3 8,-3.8 l 1.8,1.4 c -1.1,1.4 -2.6,2.6 -4.3,3.4 -1.7,0.8 -3.6,1.2 -5.7,1.2 -4,0 -7.1,-1.3 -9.4,-4 -1.9,-2.2 -2.9,-5 -2.9,-8.1 0,-3.3 1.2,-6.2 3.5,-8.4 2.3,-2.3 5.3,-3.4 8.8,-3.4 2.1,0 4.1,0.4 5.8,1.3 1.8,0.6 3.2,1.8 4.3,3.3 z"
     inkscape:connector-curvature="0"
     style="fill:#ffffff" /><path
     id="path3255"
     d="m 237.6,28 c 3.5,0 6.3,1.2 8.7,3.5 2.3,2.3 3.5,5.1 3.5,8.5 0,3.3 -1.2,6.2 -3.5,8.5 -2.3,2.3 -5.2,3.5 -8.5,3.5 -3.4,0 -6.2,-1.2 -8.6,-3.5 -2.3,-2.3 -3.5,-5.1 -3.5,-8.4 0,-2.2 0.5,-4.2 1.6,-6.1 1.1,-1.9 2.5,-3.3 4.3,-4.4 1.9,-1.1 3.9,-1.6 6,-1.6 z m 0.1,2.2 c -1.7,0 -3.3,0.4 -4.8,1.3 -1.5,0.9 -2.7,2.1 -3.5,3.6 -0.8,1.5 -1.3,3.2 -1.3,5 0,2.7 0.9,5 2.8,6.9 1.9,1.9 4.1,2.8 6.8,2.8 1.8,0 3.4,-0.4 4.9,-1.3 1.5,-0.9 2.7,-2 3.5,-3.5 0.8,-1.5 1.3,-3.1 1.3,-5 0,-1.8 -0.4,-3.4 -1.3,-4.9 -0.8,-1.5 -2,-2.6 -3.6,-3.5 -1.4,-1 -3.1,-1.4 -4.8,-1.4 z"
     inkscape:connector-curvature="0"
     style="fill:#ffffff" /><path
     id="path3257"
     d="M 256,51.4 V 28.5 h 0.5 L 271.7,46 V 28.5 h 2.2 v 22.8 h -0.5 L 258.3,34 V 51.3 H 256 z"
     inkscape:connector-curvature="0"
     style="fill:#ffffff" /><path
     id="path3259"
     d="M 281.1,51.4 V 28.5 h 0.5 L 296.7,46 V 28.5 h 2.2 v 22.8 h -0.5 L 283.3,34 v 17.3 h -2.2 z"
     inkscape:connector-curvature="0"
     style="fill:#ffffff" /><path
     id="path3261"
     d="m 306.2,28.5 h 13.1 v 2.2 h -10.8 v 7.2 h 10.7 v 2.2 h -10.7 v 9 h 10.7 v 2.2 h -13 V 28.5 z"
     inkscape:connector-curvature="0"
     style="fill:#ffffff" /><path
     id="path3263"
     d="m 346,32.8 -1.8,1.4 c -1,-1.3 -2.2,-2.3 -3.6,-2.9 -1.4,-0.6 -2.9,-1 -4.6,-1 -1.8,0 -3.5,0.4 -5.1,1.3 -1.6,0.9 -2.8,2 -3.6,3.5 -0.8,1.5 -1.3,3.1 -1.3,5 0,2.8 1,5.1 2.9,7 1.9,1.9 4.3,2.8 7.2,2.8 3.2,0 5.9,-1.3 8,-3.8 l 1.8,1.4 c -1.1,1.4 -2.6,2.6 -4.3,3.4 -1.7,0.8 -3.6,1.2 -5.7,1.2 -4,0 -7.1,-1.3 -9.4,-4 -1.9,-2.2 -2.9,-5 -2.9,-8.1 0,-3.3 1.2,-6.2 3.5,-8.4 2.3,-2.3 5.3,-3.4 8.8,-3.4 2.1,0 4.1,0.4 5.8,1.3 1.8,0.6 3.2,1.8 4.3,3.3 z"
     inkscape:connector-curvature="0"
     style="fill:#ffffff" /><path
     id="path3265"
     d="m 349.9,30.8 v -2.2 h 12.5 v 2.2 h -5.1 V 51.4 H 355 V 30.8 h -5.1 z"
     inkscape:connector-curvature="0"
     style="fill:#ffffff" /><path
     id="path3267"
     d="m 367,28.5 h 2.3 V 51.3 H 367 V 28.5 z"
     inkscape:connector-curvature="0"
     style="fill:#ffffff" /><path
     id="path3269"
     d="m 386.9,28 c 3.5,0 6.3,1.2 8.7,3.5 2.3,2.3 3.5,5.1 3.5,8.5 0,3.3 -1.2,6.2 -3.5,8.5 -2.3,2.3 -5.2,3.5 -8.5,3.5 -3.4,0 -6.2,-1.2 -8.6,-3.5 -2.3,-2.3 -3.5,-5.1 -3.5,-8.4 0,-2.2 0.5,-4.2 1.6,-6.1 1.1,-1.9 2.5,-3.3 4.3,-4.4 1.9,-1.1 3.9,-1.6 6,-1.6 z m 0.1,2.2 c -1.7,0 -3.3,0.4 -4.8,1.3 -1.5,0.9 -2.7,2.1 -3.5,3.6 -0.8,1.5 -1.3,3.2 -1.3,5 0,2.7 0.9,5 2.8,6.9 1.9,1.9 4.1,2.8 6.8,2.8 1.8,0 3.4,-0.4 4.9,-1.3 1.5,-0.9 2.7,-2 3.5,-3.5 0.8,-1.5 1.3,-3.1 1.3,-5 0,-1.8 -0.4,-3.4 -1.3,-4.9 -0.8,-1.5 -2,-2.6 -3.6,-3.5 -1.6,-0.9 -3,-1.4 -4.8,-1.4 z"
     inkscape:connector-curvature="0"
     style="fill:#ffffff" /><path
     id="path3271"
     d="M 405.3,51.4 V 28.5 h 0.5 L 421,46 V 28.5 h 2.2 v 22.8 h -0.5 L 407.6,34 v 17.3 h -2.3 z"
     inkscape:connector-curvature="0"
     style="fill:#ffffff" /></g>
</svg>