<?xml version="1.0" encoding="utf-8"?>
<!-- Generator: Adobe Illustrator 14.0.0, SVG Export Plug-In  -->
<!DOCTYPE svg PUBLIC "-//W3C//DTD SVG 1.1//EN" "http://www.w3.org/Graphics/SVG/1.1/DTD/svg11.dtd" [
	<!ENTITY ns_flows "http://ns.adobe.com/Flows/1.0/">
]>
<svg version="1.1"
	 xmlns="http://www.w3.org/2000/svg" xmlns:xlink="http://www.w3.org/1999/xlink" xmlns:a="http://ns.adobe.com/AdobeSVGViewerExtensions/3.0/"
	 x="0px" y="0px" width="495px" height="65px" viewBox="-0.744 -0.5 495 65" enable-background="new -0.744 -0.5 495 65"
	 xml:space="preserve">
<defs>
</defs>
<rect fill="#010101" width="302.402" height="63.744"/>
<path fill="#F99C1C" d="M251.821,25.127l0.01,0.01c-0.126,0.193-0.25,0.385-0.369,0.581c-0.026,0.039-0.05,0.074-0.074,0.114
	c-0.628,1.024-1.14,2.091-1.541,3.179l0.065-0.018c-0.961,2.718-1.269,5.698-0.778,8.707l-0.029,0.029
	c0.127,0.685,0.299,1.359,0.507,2.026c0.255,0.889,0.573,1.744,0.95,2.56l0.038-0.062c1.311,2.686,3.31,5.073,5.938,6.859
	l0.015-0.015c0.226,0.152,0.455,0.304,0.69,0.447c1.026,0.629,2.09,1.142,3.178,1.542l-1.061-4.032l4.822-1.269l-3.221-1.159
	l-0.016,0.016c-1.74-0.95-3.205-2.336-4.254-4.005l-1.18-2.508l-0.022,0.003c-0.552-1.883-0.615-3.875-0.189-5.779l1.006-2.803
	l-0.013-0.015c1.366-2.502,3.629-4.44,6.355-5.383l3.505-3.545l-2.949-2.913C258.716,18.53,254.562,21.092,251.821,25.127z"/>
<path fill="#D66C29" d="M274.956,20.698c-0.224-0.154-0.452-0.304-0.691-0.449c-1.023-0.631-2.088-1.141-3.179-1.54l1.064,4.032
	l-4.823,1.267l3.222,1.159l0.014-0.015c1.726,0.943,3.18,2.31,4.226,3.958l1.266,2.688h0.021c0.57,1.95,0.614,4.022,0.136,5.991
	l-0.902,2.505l0.018,0.015c-1.368,2.502-3.633,4.44-6.358,5.38l-3.505,3.547l2.947,2.912c4.362-0.812,8.396-3.255,11.139-7.09
	l0.009,0.001c0.031-0.046,0.06-0.09,0.089-0.138c0.049-0.068,0.1-0.135,0.148-0.204l-0.009-0.01
	c0.118-0.184,0.237-0.367,0.347-0.554c0.032-0.048,0.065-0.094,0.095-0.143c0.63-1.025,1.142-2.09,1.539-3.179l-0.086,0.023
	c0.957-2.746,1.246-5.755,0.723-8.791l0,0c0-0.003-0.003-0.006-0.003-0.008c-0.017-0.102-0.029-0.203-0.05-0.305l-0.013,0.001
	c-0.047-0.222-0.095-0.445-0.149-0.667c-0.011-0.044-0.018-0.092-0.028-0.136c-0.281-1.171-0.673-2.289-1.159-3.338l-0.032,0.056
	c-1.308-2.737-3.327-5.172-5.998-6.987L274.956,20.698z"/>
<rect x="302.402" fill="#D66C29" width="192.854" height="63.744"/>
<path fill="#FFFFFF" d="M325.502,30.606l-1.444,1.108c-0.797-1.038-1.754-1.824-2.87-2.359c-1.116-0.535-2.343-0.803-3.679-0.803
	c-1.461,0-2.813,0.351-4.059,1.052c-1.245,0.702-2.21,1.644-2.895,2.826c-0.685,1.184-1.027,2.514-1.027,3.99
	c0,2.232,0.766,4.096,2.297,5.59s3.464,2.242,5.796,2.242c2.564,0,4.71-1.006,6.437-3.014l1.444,1.096
	c-0.913,1.162-2.053,2.061-3.418,2.695s-2.891,0.953-4.575,0.953c-3.204,0-5.731-1.066-7.582-3.201
	c-1.552-1.801-2.328-3.975-2.328-6.523c0-2.681,0.94-4.936,2.82-6.766s4.234-2.745,7.065-2.745c1.709,0,3.253,0.338,4.631,1.015
	C323.493,28.438,324.622,29.386,325.502,30.606z"/>
<path fill="#FFFFFF" d="M339.171,26.747c2.773,0,5.095,0.925,6.964,2.776c1.868,1.851,2.803,4.129,2.803,6.834
	c0,2.682-0.933,4.955-2.797,6.822c-1.864,1.869-4.138,2.803-6.82,2.803c-2.716,0-5.009-0.93-6.877-2.789
	c-1.869-1.859-2.804-4.109-2.804-6.748c0-1.76,0.426-3.391,1.277-4.893s2.012-2.679,3.481-3.53
	C335.869,27.172,337.459,26.747,339.171,26.747z M339.251,28.527c-1.354,0-2.639,0.353-3.853,1.059s-2.162,1.657-2.844,2.853
	s-1.022,2.53-1.022,4c0,2.176,0.755,4.014,2.264,5.514c1.509,1.498,3.327,2.248,5.455,2.248c1.422,0,2.737-0.344,3.947-1.033
	c1.209-0.689,2.153-1.633,2.83-2.828c0.678-1.197,1.017-2.525,1.017-3.988c0-1.453-0.339-2.768-1.017-3.943
	c-0.677-1.176-1.631-2.116-2.861-2.822S340.632,28.527,339.251,28.527z"/>
<path fill="#FFFFFF" d="M353.898,45.521V27.207h0.398l12.188,14.039V27.207h1.805v18.314h-0.41l-12.089-13.868v13.868H353.898z"/>
<path fill="#FFFFFF" d="M374.035,45.521V27.207h0.398l12.188,14.039V27.207h1.805v18.314h-0.41l-12.089-13.868v13.868H374.035z"/>
<path fill="#FFFFFF" d="M394.171,27.207h10.495V29h-8.665v5.739h8.591v1.792h-8.591v7.197h8.591v1.793h-10.421V27.207z"/>
<path fill="#FFFFFF" d="M426.16,30.606l-1.444,1.108c-0.797-1.038-1.754-1.824-2.87-2.359c-1.116-0.535-2.343-0.803-3.679-0.803
	c-1.461,0-2.813,0.351-4.059,1.052c-1.245,0.702-2.21,1.644-2.895,2.826c-0.685,1.184-1.027,2.514-1.027,3.99
	c0,2.232,0.766,4.096,2.297,5.59s3.464,2.242,5.796,2.242c2.564,0,4.71-1.006,6.437-3.014l1.444,1.096
	c-0.913,1.162-2.053,2.061-3.418,2.695s-2.891,0.953-4.575,0.953c-3.204,0-5.731-1.066-7.582-3.201
	c-1.552-1.801-2.328-3.975-2.328-6.523c0-2.681,0.94-4.936,2.82-6.766s4.234-2.745,7.065-2.745c1.709,0,3.253,0.338,4.631,1.015
	C424.151,28.438,425.28,29.386,426.16,30.606z"/>
<path fill="#FFFFFF" d="M429.29,29v-1.793h10.034V29h-4.083v16.521h-1.868V29H429.29z"/>
<path fill="#FFFFFF" d="M442.978,27.207h1.83v18.314h-1.83V27.207z"/>
<path fill="#FFFFFF" d="M459,26.747c2.773,0,5.095,0.925,6.964,2.776c1.868,1.851,2.803,4.129,2.803,6.834
	c0,2.682-0.933,4.955-2.797,6.822c-1.864,1.869-4.138,2.803-6.82,2.803c-2.716,0-5.009-0.93-6.877-2.789
	c-1.869-1.859-2.804-4.109-2.804-6.748c0-1.76,0.426-3.391,1.277-4.893s2.012-2.679,3.481-3.53
	C455.698,27.172,457.288,26.747,459,26.747z M459.08,28.527c-1.354,0-2.639,0.353-3.853,1.059s-2.162,1.657-2.844,2.853
	s-1.022,2.53-1.022,4c0,2.176,0.755,4.014,2.264,5.514c1.509,1.498,3.327,2.248,5.455,2.248c1.422,0,2.737-0.344,3.947-1.033
	c1.209-0.689,2.153-1.633,2.83-2.828c0.678-1.197,1.017-2.525,1.017-3.988c0-1.453-0.339-2.768-1.017-3.943
	c-0.677-1.176-1.631-2.116-2.861-2.822S460.461,28.527,459.08,28.527z"/>
<path fill="#FFFFFF" d="M473.727,45.521V27.207h0.398l12.188,14.039V27.207h1.805v18.314h-0.41l-12.089-13.868v13.868H473.727z"/>
<path fill="#FFFFFF" d="M10.034,39.463c0.735,2.053,1.58,3.473,2.534,4.26c0.955,0.789,2.131,1.184,3.531,1.184
	c1.292,0,2.285-0.281,2.979-0.846c0.693-0.562,1.041-1.277,1.041-2.143c0-0.498-0.128-0.934-0.383-1.307
	c-0.255-0.375-0.609-0.652-1.061-0.836c-0.451-0.184-1.622-0.455-3.51-0.811c-1.806-0.355-3.065-0.729-3.777-1.119
	c-0.712-0.393-1.267-0.932-1.665-1.619s-0.596-1.435-0.596-2.241c0-1.221,0.41-2.33,1.229-3.326
	c1.057-1.269,2.535-1.903,4.435-1.903c1.449,0,2.791,0.457,4.025,1.37l1.176-1.245h0.73l0.463,5.94h-1.191
	c-0.523-1.684-1.23-2.896-2.121-3.637c-0.891-0.741-1.99-1.112-3.297-1.112c-1.129,0-2.014,0.276-2.655,0.827
	c-0.642,0.551-0.962,1.225-0.962,2.019c0,0.7,0.296,1.281,0.891,1.744c0.582,0.475,1.723,0.848,3.421,1.121
	c1.972,0.334,3.255,0.613,3.849,0.84c0.973,0.355,1.727,0.904,2.261,1.645s0.801,1.645,0.801,2.711c0,1.469-0.579,2.713-1.737,3.732
	s-2.626,1.529-4.407,1.529c-1.65,0-3.183-0.545-4.595-1.637l-1.3,1.494H9.199l-0.356-6.635H10.034z"/>
<path fill="#FFFFFF" d="M37.62,40.797l1.156,0.338c-0.925,3.404-2.964,5.105-6.119,5.105c-2.312,0-4.204-0.766-5.673-2.295
	c-1.471-1.529-2.206-3.562-2.206-6.1c0-2.941,0.806-5.221,2.419-6.839c1.612-1.619,3.509-2.428,5.691-2.428
	c1.636,0,2.988,0.451,4.055,1.352c1.067,0.901,1.601,1.903,1.601,3.006c0,0.664-0.199,1.212-0.596,1.645
	c-0.397,0.433-0.869,0.649-1.414,0.649c-0.534,0-0.984-0.184-1.352-0.549c-0.368-0.367-0.552-0.811-0.552-1.33
	c0-0.52,0.202-1.017,0.605-1.489c0.189-0.225,0.285-0.402,0.285-0.532c0-0.342-0.231-0.676-0.694-1.001
	c-0.462-0.325-1.091-0.487-1.885-0.487c-1.447,0-2.543,0.527-3.291,1.581c-1.067,1.528-1.601,3.541-1.601,6.041
	c0,2.379,0.474,4.184,1.423,5.408c0.949,1.227,2.158,1.84,3.628,1.84C35.129,44.711,36.635,43.406,37.62,40.797z"/>
<path fill="#FFFFFF" d="M40.732,29.077l6.634-0.196v14.336c0,0.391,0.095,0.67,0.285,0.836c0.273,0.236,0.617,0.355,1.032,0.355
	h1.885v1.334h-9.48v-1.334h1.761c0.522,0,0.904-0.127,1.147-0.383c0.243-0.254,0.365-0.625,0.365-1.111V32.42
	c0-0.664-0.19-1.165-0.569-1.503s-0.943-0.507-1.689-0.507h-1.37V29.077z M45.356,19.134c0.534,0,1.002,0.202,1.405,0.604
	c0.403,0.403,0.604,0.878,0.604,1.423c0,0.534-0.195,0.996-0.587,1.388c-0.391,0.391-0.86,0.587-1.405,0.587
	c-0.545,0-1.017-0.199-1.414-0.596c-0.397-0.397-0.596-0.862-0.596-1.396s0.201-1.002,0.604-1.405
	C44.372,19.336,44.835,19.134,45.356,19.134z"/>
<path fill="#FFFFFF" d="M68.158,37.525H56.224c0.059,2.537,0.534,4.328,1.423,5.371c1.02,1.174,2.318,1.76,3.895,1.76
	c2.324,0,4.191-1.322,5.603-3.965l1.156,0.498c-1.731,3.367-4.233,5.051-7.506,5.051c-2.229,0-4.105-0.807-5.629-2.42
	c-1.524-1.611-2.286-3.676-2.286-6.189c0-2.703,0.75-4.888,2.25-6.554c1.5-1.666,3.346-2.499,5.54-2.499
	c1.612,0,3.006,0.415,4.18,1.245c1.174,0.83,2.057,2.022,2.65,3.575C67.915,34.489,68.134,35.865,68.158,37.525z M56.224,36.262
	h7.221c0.427,0,0.758-0.145,0.996-0.436s0.356-0.785,0.356-1.485c0-1.304-0.406-2.413-1.218-3.326
	c-0.812-0.913-1.77-1.37-2.873-1.37c-1.233,0-2.28,0.551-3.139,1.654C56.707,32.402,56.259,34.057,56.224,36.262z"/>
<path fill="#FFFFFF" d="M70.736,29.077l5.532-0.338c0.225,1.043,0.391,2.265,0.498,3.664c0.747-1.209,1.627-2.117,2.641-2.721
	s2.161-0.907,3.441-0.907c1.103,0,2.028,0.217,2.774,0.649c0.747,0.433,1.346,1.118,1.796,2.054
	c0.451,0.937,0.676,1.986,0.676,3.147v8.111c0,0.604,0.136,1.035,0.409,1.289c0.273,0.256,0.729,0.383,1.37,0.383h1.174v1.334
	h-8.786v-1.334h0.836c0.783,0,1.328-0.125,1.636-0.373c0.308-0.25,0.462-0.623,0.462-1.121v-7.133c0-1.553-0.237-2.703-0.711-3.45
	c-0.664-1.067-1.672-1.601-3.023-1.601c-1.34,0-2.458,0.54-3.353,1.619c-0.896,1.079-1.343,2.484-1.343,4.215v6.172
	c0,0.604,0.139,1.035,0.418,1.289c0.278,0.256,0.738,0.383,1.378,0.383h1.156v1.334h-8.822v-1.334h1.156
	c0.581,0,1.022-0.119,1.325-0.355c0.302-0.238,0.453-0.535,0.453-0.891v-10.76c0-0.711-0.193-1.251-0.578-1.619
	c-0.386-0.367-0.94-0.551-1.663-0.551h-0.854V29.077z"/>
<path fill="#FFFFFF" d="M97.38,22.282h1.191v6.794h5.389v1.636h-5.389v10.689c0,0.924,0.219,1.633,0.658,2.125
	c0.438,0.492,0.996,0.738,1.672,0.738c0.806,0,1.494-0.373,2.063-1.121c0.569-0.746,0.901-1.98,0.996-3.699h1.191
	c-0.071,2.217-0.575,3.863-1.512,4.936c-0.937,1.074-2.152,1.609-3.646,1.609c-1.375,0-2.452-0.375-3.228-1.129
	c-0.777-0.752-1.165-1.74-1.165-2.961V30.713h-2.899v-1.245c1.321-0.225,2.327-0.776,3.017-1.654
	C96.743,26.498,97.296,24.654,97.38,22.282z"/>
<path fill="#FFFFFF" d="M106.842,29.077l6.634-0.196v14.336c0,0.391,0.095,0.67,0.285,0.836c0.273,0.236,0.617,0.355,1.032,0.355
	h1.885v1.334h-9.48v-1.334h1.761c0.522,0,0.904-0.127,1.147-0.383c0.243-0.254,0.365-0.625,0.365-1.111V32.42
	c0-0.664-0.19-1.165-0.569-1.503s-0.943-0.507-1.689-0.507h-1.37V29.077z M111.466,19.134c0.534,0,1.002,0.202,1.405,0.604
	c0.403,0.403,0.604,0.878,0.604,1.423c0,0.534-0.195,0.996-0.587,1.388c-0.391,0.391-0.86,0.587-1.405,0.587
	c-0.545,0-1.017-0.199-1.414-0.596c-0.397-0.397-0.596-0.862-0.596-1.396s0.201-1.002,0.604-1.405
	C110.481,19.336,110.944,19.134,111.466,19.134z"/>
<path fill="#FFFFFF" d="M124.325,29.077h4.162v1.547h-4.162v12.165c0,0.559,0.13,0.949,0.391,1.174
	c0.355,0.297,0.854,0.445,1.494,0.445h2.276v1.334h-10.209v-1.334h1.405c0.628,0,1.067-0.107,1.316-0.32s0.374-0.545,0.374-0.996
	V30.624h-2.881v-1.547h2.881v-1.263c0-2.935,0.609-5.174,1.829-6.718c1.219-1.544,2.728-2.317,4.528-2.317
	c1.337,0,2.382,0.327,3.134,0.979c0.751,0.652,1.127,1.506,1.127,2.561c0,0.688-0.181,1.23-0.542,1.627
	c-0.362,0.397-0.821,0.596-1.378,0.596c-0.498,0-0.91-0.16-1.236-0.48c-0.326-0.32-0.489-0.723-0.489-1.209
	c0-0.557,0.213-1.014,0.64-1.37c0.344-0.285,0.516-0.498,0.516-0.64c0-0.202-0.133-0.385-0.398-0.551
	c-0.266-0.166-0.665-0.249-1.197-0.249c-1.004,0-1.853,0.447-2.543,1.343c-0.691,0.895-1.037,2.226-1.037,3.993V29.077z"/>
<path fill="#FFFFFF" d="M130.443,29.077l6.634-0.196v14.336c0,0.391,0.095,0.67,0.285,0.836c0.273,0.236,0.617,0.355,1.032,0.355
	h1.885v1.334h-9.48v-1.334h1.761c0.522,0,0.904-0.127,1.147-0.383c0.243-0.254,0.365-0.625,0.365-1.111V32.42
	c0-0.664-0.19-1.165-0.569-1.503s-0.943-0.507-1.689-0.507h-1.37V29.077z M135.067,19.134c0.534,0,1.002,0.202,1.405,0.604
	c0.403,0.403,0.604,0.878,0.604,1.423c0,0.534-0.195,0.996-0.587,1.388c-0.391,0.391-0.86,0.587-1.405,0.587
	c-0.545,0-1.017-0.199-1.414-0.596c-0.397-0.397-0.596-0.862-0.596-1.396s0.201-1.002,0.604-1.405
	C134.083,19.336,134.546,19.134,135.067,19.134z"/>
<path fill="#FFFFFF" d="M154.97,40.797l1.156,0.338c-0.925,3.404-2.964,5.105-6.119,5.105c-2.312,0-4.204-0.766-5.673-2.295
	c-1.471-1.529-2.206-3.562-2.206-6.1c0-2.941,0.806-5.221,2.419-6.839c1.612-1.619,3.509-2.428,5.691-2.428
	c1.636,0,2.988,0.451,4.055,1.352c1.067,0.901,1.601,1.903,1.601,3.006c0,0.664-0.199,1.212-0.596,1.645
	c-0.397,0.433-0.869,0.649-1.414,0.649c-0.534,0-0.984-0.184-1.352-0.549c-0.368-0.367-0.552-0.811-0.552-1.33
	c0-0.52,0.202-1.017,0.605-1.489c0.189-0.225,0.285-0.402,0.285-0.532c0-0.342-0.231-0.676-0.694-1.001
	c-0.462-0.325-1.091-0.487-1.885-0.487c-1.447,0-2.543,0.527-3.291,1.581c-1.067,1.528-1.601,3.541-1.601,6.041
	c0,2.379,0.474,4.184,1.423,5.408c0.949,1.227,2.158,1.84,3.628,1.84C152.479,44.711,153.985,43.406,154.97,40.797z"/>
<path fill="#FFFFFF" d="M169.554,29.077l4.767-0.303c0.261,1.24,0.433,2.42,0.516,3.541c0.903-1.298,1.805-2.213,2.708-2.744
	c0.902-0.531,1.894-0.797,2.975-0.797c1.152,0,2.102,0.301,2.85,0.904c0.749,0.603,1.324,1.583,1.728,2.94
	c0.793-1.288,1.675-2.25,2.646-2.888c0.971-0.637,2.03-0.957,3.179-0.957c1.515,0,2.652,0.451,3.41,1.352
	c0.971,1.186,1.456,2.715,1.456,4.589v8.27c0,0.498,0.125,0.836,0.374,1.014c0.332,0.273,0.824,0.41,1.477,0.41h0.836v1.334h-8.377
	v-1.334h0.836c0.711,0,1.209-0.119,1.494-0.355c0.285-0.238,0.427-0.594,0.427-1.07v-8.281c0-1.234-0.302-2.189-0.905-2.867
	c-0.603-0.677-1.396-1.015-2.377-1.015c-0.745,0-1.419,0.199-2.022,0.597c-0.604,0.398-1.077,0.965-1.42,1.701
	c-0.508,1.057-0.763,1.953-0.763,2.689v7.176c0,0.488,0.13,0.848,0.392,1.078c0.26,0.232,0.664,0.348,1.209,0.348h1.139v1.334
	h-8.502v-1.334h0.96c0.605,0,1.055-0.119,1.352-0.355c0.296-0.238,0.444-0.541,0.444-0.908v-7.684c0-1.623-0.288-2.803-0.862-3.539
	c-0.575-0.735-1.349-1.103-2.321-1.103c-1.257,0-2.223,0.427-2.899,1.281c-0.96,1.209-1.441,2.621-1.441,4.234v6.65
	c0,0.51,0.113,0.861,0.338,1.051c0.32,0.248,0.818,0.373,1.494,0.373h0.854v1.334h-8.395v-1.334h1.263
	c0.474,0,0.839-0.119,1.094-0.355c0.255-0.238,0.382-0.541,0.382-0.908v-10.92c0-0.605-0.154-1.055-0.462-1.352
	c-0.308-0.296-0.925-0.486-1.85-0.569V29.077z"/>
<path fill="#FFFFFF" d="M216.544,37.525H204.61c0.059,2.537,0.534,4.328,1.423,5.371c1.02,1.174,2.318,1.76,3.895,1.76
	c2.324,0,4.191-1.322,5.603-3.965l1.156,0.498c-1.731,3.367-4.233,5.051-7.506,5.051c-2.229,0-4.105-0.807-5.629-2.42
	c-1.524-1.611-2.286-3.676-2.286-6.189c0-2.703,0.75-4.888,2.25-6.554c1.5-1.666,3.346-2.499,5.54-2.499
	c1.612,0,3.006,0.415,4.18,1.245c1.174,0.83,2.057,2.022,2.65,3.575C216.301,34.489,216.52,35.865,216.544,37.525z M204.61,36.262
	h7.221c0.427,0,0.758-0.145,0.996-0.436s0.356-0.785,0.356-1.485c0-1.304-0.406-2.413-1.218-3.326
	c-0.812-0.913-1.77-1.37-2.873-1.37c-1.233,0-2.28,0.551-3.139,1.654C205.093,32.402,204.646,34.057,204.61,36.262z"/>
<path fill="#FFFFFF" d="M223.517,22.282h1.191v6.794h5.389v1.636h-5.389v10.689c0,0.924,0.219,1.633,0.658,2.125
	c0.438,0.492,0.996,0.738,1.672,0.738c0.806,0,1.494-0.373,2.063-1.121c0.569-0.746,0.901-1.98,0.996-3.699h1.191
	c-0.071,2.217-0.575,3.863-1.512,4.936c-0.937,1.074-2.152,1.609-3.646,1.609c-1.375,0-2.452-0.375-3.228-1.129
	c-0.777-0.752-1.165-1.74-1.165-2.961V30.713h-2.899v-1.245c1.321-0.225,2.327-0.776,3.017-1.654
	C222.879,26.498,223.433,24.654,223.517,22.282z"/>
<path fill="#FFFFFF" d="M232.871,19.437l6.314-0.302v12.841c0.877-1.138,1.82-1.989,2.828-2.552
	c1.008-0.563,2.075-0.845,3.201-0.845c1.067,0,2.028,0.255,2.881,0.765c0.664,0.403,1.23,1.109,1.698,2.117
	c0.469,1.008,0.703,2.199,0.703,3.575v7.914c0,0.51,0.13,0.881,0.392,1.111c0.26,0.232,0.669,0.348,1.227,0.348h1.423v1.334h-9
	v-1.334h0.996c0.759,0,1.283-0.121,1.574-0.365c0.29-0.242,0.436-0.607,0.436-1.094v-7.914c0-1.388-0.335-2.47-1.005-3.247
	c-0.67-0.776-1.527-1.165-2.57-1.165c-0.818,0-1.577,0.219-2.277,0.658c-0.7,0.439-1.292,1.106-1.778,2.001
	c-0.486,0.895-0.729,1.84-0.729,2.836v6.652c0,0.594,0.125,1.014,0.374,1.264c0.249,0.248,0.658,0.373,1.227,0.373h1.423v1.334
	h-8.804v-1.334h0.996c0.676,0,1.156-0.135,1.44-0.4c0.285-0.268,0.427-0.68,0.427-1.236V22.887c0-0.711-0.187-1.242-0.56-1.592
	s-0.916-0.525-1.627-0.525h-1.209V19.437z"/>
<path fill="#FFFFFF" d="M285.232,19.437l6.51-0.302v22.801c0,0.889,0.169,1.523,0.507,1.902c0.338,0.381,0.845,0.57,1.521,0.57
	h1.156v1.334h-5.691l-0.427-3.398c-0.676,1.211-1.468,2.121-2.375,2.73c-0.906,0.611-1.924,0.916-3.05,0.916
	c-1.897,0-3.513-0.793-4.847-2.383c-1.334-1.588-2.001-3.688-2.001-6.297c0-2.821,0.854-5.074,2.562-6.758
	c1.34-1.316,2.881-1.974,4.624-1.974c1.067,0,2.024,0.267,2.872,0.8s1.586,1.34,2.215,2.419v-9.409c0-0.498-0.193-0.892-0.578-1.183
	c-0.386-0.29-0.987-0.436-1.806-0.436h-1.191V19.437z M284.201,30.055c-1.281,0-2.298,0.528-3.051,1.583s-1.129,2.834-1.129,5.335
	c0,2.717,0.385,4.629,1.156,5.736c0.771,1.109,1.761,1.664,2.97,1.664c1.292,0,2.398-0.621,3.317-1.859s1.378-3.051,1.378-5.434
	c0-2.253-0.492-4.025-1.476-5.318C286.513,30.624,285.458,30.055,284.201,30.055z"/>
</svg>
