<?xml version="1.0" encoding="UTF-8" standalone="no"?>
<!-- Generator: Adobe Illustrator 14.0.0, SVG Export Plug-In  -->

<svg
   xmlns:dc="http://purl.org/dc/elements/1.1/"
   xmlns:cc="http://creativecommons.org/ns#"
   xmlns:rdf="http://www.w3.org/1999/02/22-rdf-syntax-ns#"
   xmlns:svg="http://www.w3.org/2000/svg"
   xmlns="http://www.w3.org/2000/svg"
   xmlns:sodipodi="http://sodipodi.sourceforge.net/DTD/sodipodi-0.dtd"
   xmlns:inkscape="http://www.inkscape.org/namespaces/inkscape"
   version="1.1"
   x="0px"
   y="0px"
   width="397px"
   height="119px"
   viewBox="-14.1 -4.4 397 119"
   enable-background="new -14.1 -4.4 397 119"
   xml:space="preserve"
   id="svg2"
   inkscape:version="0.48.3.1 r9886"
   sodipodi:docname="CNX_BioMaj_Link.svg"><metadata
   id="metadata44"><rdf:RDF><cc:Work
       rdf:about=""><dc:format>image/svg+xml</dc:format><dc:type
         rdf:resource="http://purl.org/dc/dcmitype/StillImage" /></cc:Work></rdf:RDF></metadata><sodipodi:namedview
   pagecolor="#ffffff"
   bordercolor="#666666"
   borderopacity="1"
   objecttolerance="10"
   gridtolerance="10"
   guidetolerance="10"
   inkscape:pageopacity="0"
   inkscape:pageshadow="2"
   inkscape:window-width="640"
   inkscape:window-height="480"
   id="namedview42"
   showgrid="false"
   inkscape:zoom="0.73551637"
   inkscape:cx="198.5"
   inkscape:cy="59.5"
   inkscape:window-x="65"
   inkscape:window-y="24"
   inkscape:window-maximized="0"
   inkscape:current-layer="svg2" />
<defs
   id="defs4">
</defs>

















<g
   id="g3021"
   transform="matrix(0.69286263,0,0,0.69286263,-8.565311,-1.682426)"><path
     id="path6"
     d="m 0,45.5 h 3.2 v 29.2 h 12.4 v 3.1 H 0 V 45.5 z"
     inkscape:connector-curvature="0"
     style="fill:#517542" /><path
     id="path8"
     d="m 20.3,45.5 h 3.2 V 77.8 H 20.3 V 45.5 z"
     inkscape:connector-curvature="0"
     style="fill:#517542" /><path
     id="path10"
     d="M 31,77.9 V 45.5 h 0.7 L 53.2,70.3 V 45.5 h 3.2 V 77.8 H 55.7 L 34.3,53.4 V 77.9 H 31 z"
     inkscape:connector-curvature="0"
     style="fill:#517542" /><path
     id="path12"
     d="m 64.2,45.5 h 3.3 V 57.6 L 80.4,45.5 h 4.3 L 69.3,60 86,77.9 H 81.7 L 67.5,62.8 V 77.9 H 64.2 V 45.5 z"
     inkscape:connector-curvature="0"
     style="fill:#517542" /><path
     id="path14"
     d="m 100.1,48.7 v -3.2 h 17.7 v 3.2 h -7.2 v 29.2 h -3.3 V 48.7 h -7.2 z"
     inkscape:connector-curvature="0"
     style="fill:#77787b" /><path
     id="path16"
     d="m 144,48.2 -4.7,-0.4 c 0,0 21.1,-28.7 48.7,-42 27.6,-13.3 44.4,-4.5 18.3,34.8 -2.4,3.6 18.8,-34.3 7.4,-36.4 -3.1,-0.9 -18,-9.5 -69.7,44 z"
     inkscape:connector-curvature="0"
     style="fill:#517542" /><path
     id="path18"
     d="m 130.6,75 c 0,0 -2.4,-0.7 -2.9,0.2 -3.2,5.5 -9.1,15.5 -7.2,23.3 1.5,6.5 12.8,15.2 39.9,-3.8 28.2,-19.7 -24.8,20 -35.1,6.2 -6,-8 4.1,-21.3 5.2,-23.7 1.1,-2.4 0.1,-2.2 0.1,-2.2 z"
     inkscape:connector-curvature="0" /><path
     id="path20"
     d="m 172.8,47.4 h 12.1 v 1.4 H 182 c -0.5,0 -0.8,0.1 -1,0.4 -0.2,0.3 -0.3,0.7 -0.3,1.2 v 22.4 c 0,0.5 0.1,0.9 0.4,1.1 0.3,0.2 0.8,0.3 1.7,0.3 h 3.7 c 1.9,0 3.5,-0.7 4.8,-2.1 1.2,-1.4 2.1,-3.9 2.7,-7.3 h 1.2 l -0.6,10.9 h -21.7 v -1.4 h 2.1 c 0.7,0 1.2,-0.1 1.5,-0.5 0.3,-0.3 0.4,-0.8 0.4,-1.4 V 50.3 c 0,-0.5 -0.1,-0.8 -0.4,-1.1 -0.2,-0.2 -0.6,-0.4 -1.1,-0.4 h -2.6 v -1.4 z"
     inkscape:connector-curvature="0" /><path
     id="path22"
     d="m 198,47.4 h 20.6 l 0.5,9.6 h -1.2 c -0.5,-3 -1.2,-5.1 -2.2,-6.3 -1,-1.2 -2.3,-1.8 -4,-1.8 h -5.1 c -0.4,0 -0.7,0.1 -0.9,0.4 -0.2,0.2 -0.3,0.6 -0.3,1.1 v 10.1 h 2.2 c 1.2,0 2.2,-0.5 2.9,-1.4 0.7,-0.9 1.1,-2.4 1.2,-4.3 h 1.2 v 13.1 h -1.2 c -0.1,-2.2 -0.5,-3.7 -1.2,-4.7 -0.8,-0.9 -1.8,-1.4 -3.1,-1.4 h -2 v 11.3 c 0,0.4 0.1,0.7 0.4,0.9 0.3,0.2 0.7,0.3 1.3,0.3 h 4 c 4.4,0 6.9,-3 7.5,-9.1 h 1.3 l -0.4,10.6 H 198 v -1.4 h 1.8 c 0.7,0 1.2,-0.1 1.5,-0.4 0.3,-0.3 0.4,-0.6 0.4,-1.1 V 50.4 c 0,-0.5 -0.1,-0.9 -0.4,-1.1 -0.2,-0.2 -0.6,-0.4 -1.2,-0.4 H 198 v -1.5 z"
     inkscape:connector-curvature="0" /><path
     id="path24"
     d="m 234.2,46.8 h 1.2 l 9.3,25.9 c 0.4,1 1.1,1.6 2.3,1.6 h 0.8 v 1.4 h -10.4 v -1.4 h 0.8 c 1.1,0 1.8,-0.1 2.3,-0.4 0.3,-0.2 0.5,-0.5 0.5,-0.8 0,-0.2 0,-0.4 -0.1,-0.7 l -2.2,-6 h -10.3 l -1.2,3.4 c -0.3,0.9 -0.5,1.6 -0.5,2.2 0,0.6 0.3,1.2 0.8,1.6 0.5,0.4 1.3,0.7 2.3,0.7 h 0.9 v 1.4 h -9.4 v -1.4 c 1,0 1.8,-0.2 2.4,-0.7 0.6,-0.5 1.1,-1.4 1.6,-2.7 l 8.9,-24.1 z m -0.5,5.5 -4.7,12.6 h 9.2 l -4.5,-12.6 z"
     inkscape:connector-curvature="0" /><path
     id="path26"
     d="M 248.6,47.4 H 262 c 2.6,0 4.6,0.6 6.1,1.9 1.5,1.3 2.2,3 2.2,5.1 0,1.3 -0.3,2.4 -0.9,3.3 -0.6,1 -1.4,1.8 -2.5,2.3 -1.1,0.5 -2.8,1 -5.1,1.3 1.7,0.5 2.8,1 3.5,1.5 0.6,0.5 1.1,1.1 1.5,1.9 0.4,0.8 0.8,2.3 1.3,4.6 0.4,1.7 0.7,2.8 1.1,3.4 0.3,0.5 0.6,0.7 1,0.7 0.4,0 0.7,-0.3 1,-0.9 0.3,-0.6 0.5,-1.6 0.6,-3.1 h 1.2 c -0.2,4.3 -1.7,6.5 -4.4,6.5 -0.9,0 -1.6,-0.2 -2.2,-0.7 -0.6,-0.5 -1.1,-1.2 -1.4,-2.1 -0.2,-0.7 -0.5,-2.5 -0.8,-5.4 -0.2,-1.7 -0.5,-2.9 -0.8,-3.6 -0.3,-0.7 -1,-1.3 -1.8,-1.7 -0.8,-0.4 -1.8,-0.7 -2.9,-0.7 h -2.1 V 73 c 0,0.5 0.1,0.8 0.3,1 0.3,0.2 0.7,0.4 1.3,0.4 h 2.5 v 1.4 h -12.1 v -1.4 h 2.5 c 0.6,0 1,-0.1 1.2,-0.4 0.3,-0.2 0.4,-0.6 0.4,-1 V 50.3 c 0,-0.5 -0.1,-0.8 -0.4,-1.1 -0.3,-0.2 -0.7,-0.4 -1.2,-0.4 h -2.5 v -1.4 z m 7.9,13.1 h 3.1 c 2.1,0 3.7,-0.4 4.8,-1.3 1.2,-0.8 1.8,-2.4 1.8,-4.5 0,-1.5 -0.2,-2.7 -0.7,-3.5 -0.4,-0.9 -1,-1.5 -1.7,-1.8 -0.7,-0.3 -2.1,-0.5 -4.2,-0.5 -1.4,0 -2.2,0.1 -2.6,0.3 -0.3,0.2 -0.5,0.6 -0.5,1.1 v 10.2 z"
     inkscape:connector-curvature="0" /><path
     id="path28"
     d="m 275.1,47.4 h 6.2 L 297,69.7 V 53.6 c 0,-1.6 -0.3,-2.8 -1,-3.6 -0.6,-0.7 -1.5,-1.1 -2.8,-1.1 v -1.4 h 9.1 v 1.4 c -0.9,0 -1.6,0.1 -2.1,0.4 -0.5,0.3 -0.9,0.8 -1.2,1.5 -0.3,0.7 -0.5,1.6 -0.5,2.4 v 22.5 h -1.7 L 280.6,52.5 v 17.1 c 0,1.5 0.4,2.7 1.1,3.5 0.7,0.8 1.8,1.2 3.3,1.2 v 1.4 h -9.9 v -1.4 c 1.2,-0.1 2.2,-0.5 3,-1.3 0.7,-0.8 1.1,-1.9 1.1,-3.1 V 50.8 l -0.3,-0.4 c -0.6,-0.7 -1,-1.1 -1.2,-1.2 -0.3,-0.2 -0.8,-0.3 -1.3,-0.3 h -1.2 v -1.5 z"
     inkscape:connector-curvature="0" /><path
     id="path30"
     d="m 304.3,47.4 h 12 v 1.4 h -2.1 c -0.9,0 -1.5,0.1 -1.7,0.4 -0.2,0.2 -0.4,0.8 -0.4,1.6 v 21.5 c 0,0.9 0.1,1.4 0.3,1.6 0.3,0.3 0.8,0.4 1.5,0.4 h 2.3 v 1.4 h -12 v -1.4 h 2.3 c 0.8,0 1.3,-0.1 1.5,-0.4 0.2,-0.3 0.4,-0.8 0.4,-1.7 V 50.8 c 0,-0.8 -0.1,-1.3 -0.3,-1.5 -0.3,-0.3 -0.9,-0.4 -1.8,-0.4 h -2 v -1.5 z"
     inkscape:connector-curvature="0" /><path
     id="path32"
     d="m 319.1,47.4 h 6.2 L 341,69.7 V 53.6 c 0,-1.6 -0.3,-2.8 -1,-3.6 -0.6,-0.7 -1.5,-1.1 -2.8,-1.1 v -1.4 h 9.1 v 1.4 c -0.9,0 -1.6,0.1 -2.1,0.4 -0.5,0.3 -0.9,0.8 -1.2,1.5 -0.3,0.7 -0.5,1.6 -0.5,2.4 v 22.5 h -1.7 L 324.6,52.5 v 17.1 c 0,1.5 0.4,2.7 1.1,3.5 0.7,0.8 1.8,1.2 3.3,1.2 v 1.4 h -9.9 v -1.4 c 1.2,-0.1 2.2,-0.5 3,-1.3 0.7,-0.8 1.1,-1.9 1.1,-3.1 V 50.8 l -0.3,-0.4 c -0.6,-0.7 -1,-1.1 -1.2,-1.2 -0.3,-0.2 -0.8,-0.3 -1.3,-0.3 h -1.2 v -1.5 z"
     inkscape:connector-curvature="0" /><path
     id="path34"
     d="m 367.2,49.7 1.4,-2.8 h 1.2 l 0.7,11.3 h -1.1 c -0.9,-3.3 -1.9,-5.6 -3.1,-7.1 -1.5,-1.8 -3.3,-2.8 -5.2,-2.8 -1.5,0 -2.9,0.5 -4.1,1.4 -1.2,0.9 -2.1,2.3 -2.7,4.2 -0.6,1.9 -1,4.5 -1,7.9 0,3.3 0.3,5.8 1,7.7 0.6,1.9 1.5,3.2 2.6,4.1 1.1,0.9 2.4,1.3 4,1.3 2,0 3.6,-0.6 4.7,-1.9 1.1,-1.3 1.7,-2.9 1.7,-4.8 v -2.7 c 0,-0.4 -0.2,-0.7 -0.4,-1 -0.3,-0.2 -0.8,-0.3 -1.5,-0.3 h -2.2 V 62.9 H 374 v 1.3 h -1.5 c -0.7,0 -1.1,0.1 -1.4,0.4 -0.3,0.3 -0.4,0.6 -0.4,1.1 v 10.8 h -1.2 c -0.4,-1.7 -0.9,-3.3 -1.3,-4.8 -0.9,1.6 -1.9,2.7 -3.1,3.5 -1.2,0.8 -2.6,1.2 -4.1,1.2 -2.2,0 -4.2,-0.6 -6.1,-1.8 -1.9,-1.2 -3.3,-3 -4.4,-5.2 -1.1,-2.2 -1.6,-4.7 -1.6,-7.6 0,-2.8 0.5,-5.4 1.6,-7.6 1.1,-2.2 2.6,-4 4.5,-5.3 1.9,-1.3 3.8,-2 5.7,-2 1.1,0 2.2,0.2 3.2,0.6 0.9,0.4 2.1,1.1 3.3,2.2 z"
     inkscape:connector-curvature="0" /><path
     id="path36"
     d="m 124.4,61.8 c 0,-2.6 0.6,-4.9 1.8,-7.1 1.2,-2.1 2.9,-3.8 5,-5 2.1,-1.2 4.4,-1.9 6.8,-1.9 1.8,0 3.5,0.3 5.2,1 l 2.3,-2.5 c -2.3,-1.1 -4.8,-1.6 -7.7,-1.6 -3,0 -5.8,0.8 -8.4,2.3 -2.6,1.5 -4.6,3.6 -6.1,6.2 -1.5,2.7 -2.3,5.5 -2.3,8.6 0,3.2 0.8,6 2.3,8.6 l 2.4,-2.6 c -0.9,-1.8 -1.3,-3.8 -1.3,-6 z"
     inkscape:connector-curvature="0"
     style="fill:#595959" /><path
     id="path38"
     d="m 150.7,50.3 -2.2,2.4 c 0.5,0.6 1,1.3 1.5,2 1.2,2.1 1.8,4.4 1.8,7 0,2.6 -0.6,4.9 -1.8,7 -1.2,2.1 -2.9,3.8 -5,5 -2.1,1.2 -4.5,1.8 -7,1.8 -3.1,0 -5.8,-0.9 -8.1,-2.7 l -2.2,2.4 c 3,2.3 6.4,3.4 10.4,3.4 4.7,0 8.7,-1.6 12,-4.9 3.3,-3.3 4.9,-7.3 4.9,-12 0.1,-4.5 -1.4,-8.3 -4.3,-11.4 z"
     inkscape:connector-curvature="0"
     style="fill:#595959" /><polygon
     id="polygon40"
     points="144.3,62.1 144.3,96.4 152.2,88.5 157.6,103.7 161.5,102.2 155.8,87.5 166.7,88.2 "
     style="stroke:#517542" /></g>
</svg>