<?xml version="1.0" encoding="utf-8"?>
<!-- Generator: Adobe Illustrator 14.0.0, SVG Export Plug-In  -->
<!DOCTYPE svg PUBLIC "-//W3C//DTD SVG 1.1//EN" "http://www.w3.org/Graphics/SVG/1.1/DTD/svg11.dtd" [
	<!ENTITY ns_flows "http://ns.adobe.com/Flows/1.0/">
]>
<svg version="1.1"
	 xmlns="http://www.w3.org/2000/svg" xmlns:xlink="http://www.w3.org/1999/xlink" xmlns:a="http://ns.adobe.com/AdobeSVGViewerExtensions/3.0/"
	 x="0px" y="0px" width="495px" height="55px" viewBox="0 -0.287 495 55" enable-background="new 0 -0.287 495 55"
	 xml:space="preserve">
<defs>
</defs>
<rect y="0.452" fill="#010101" width="173.146" height="52.193"/>
<rect x="173.146" y="0.452" fill="#602E1A" width="321.854" height="52.193"/>
<text transform="matrix(0.7 0 0 0.7 200.6934 42.6982)" fill="#FFFFFF" font-family="'CenturyGothic'" font-size="49.7072" letter-spacing="1.429">in</text>
<text transform="matrix(1 0 0 1 237.7788 42.6982)" fill="#FFFFFF" font-family="'CenturyGothic'" font-size="49.7072" letter-spacing="2"> ACTION</text>
<text transform="matrix(1 0 0 1 4.6602 40.6865)" fill="#FFFFFF" font-family="'Century'" font-size="44.7364" letter-spacing="2">bi  logy</text>
<circle fill="#602E1A" stroke="#CFB7A1" cx="62.234" cy="28.099" r="16.633"/>
<path fill="none" stroke="#CFB7A1" d="M57.921,12.209c0,0-5.497,7.603-4.175,18.15c1.527,12.183,9.057,14.36,9.057,14.36"/>
<path fill="none" stroke="#CFB7A1" d="M53.183,14.143c0,0,7.33,1.546,14.716,10.719c9.266,11.506,4.445,16.442,4.445,16.442"/>
<path fill="none" stroke="#CFB7A1" d="M51.329,40.656c0,0-2.978-3.882-2.978-10.805c0-9.061,8.035-14.961,8.035-14.961
	s8.659-0.107,15.688,5.187c8.247,6.211,5.319,14.877,5.319,14.877"/>
<path fill="none" stroke="#CFB7A1" d="M45.652,26.791c0,0-0.003-6.307,10.734-12.648c5.538-3.272,7.004-2.639,7.004-2.639"/>
<path fill="none" stroke="#CFB7A1" d="M56.386,15.417c0,0,0.882,4.371,4.896,14.078c3.766,9.111,7.057,14.079,7.057,14.079"/>
<path fill="none" stroke="#CFB7A1" d="M49.624,17.253c0,0,10.665-6.253,18.715-3.11c7.196,2.807,8.735,6.437,8.735,6.437"/>
<path fill="none" stroke="#CFB7A1" d="M49.3,17.64c0,0-1.458,7.12,9.232,2.939c9.679-3.785,5.396-9.124,5.396-9.124"/>
<path fill="none" stroke="#CFB7A1" d="M45.602,27.305c0,0,1.833,7.331,17.201,0.469c12.735-5.686,9.756-12.715,9.756-12.715"/>
<path fill="none" stroke="#CFB7A1" d="M47.697,36.186c0,0,4.054,5.268,17.175,0c13.995-5.616,13.025-13.693,13.025-13.693"/>
<path fill="none" stroke="#CFB7A1" d="M56.129,43.574c0,0,4.839,0.745,11.2-1.655c7.335-2.77,10.209-7.495,10.209-7.495"/>
</svg>
