<?xml version="1.0" encoding="UTF-8" standalone="no"?>
<!-- Generator: Adobe Illustrator 14.0.0, SVG Export Plug-In  -->

<svg
   xmlns:dc="http://purl.org/dc/elements/1.1/"
   xmlns:cc="http://creativecommons.org/ns#"
   xmlns:rdf="http://www.w3.org/1999/02/22-rdf-syntax-ns#"
   xmlns:svg="http://www.w3.org/2000/svg"
   xmlns="http://www.w3.org/2000/svg"
   xmlns:sodipodi="http://sodipodi.sourceforge.net/DTD/sodipodi-0.dtd"
   xmlns:inkscape="http://www.inkscape.org/namespaces/inkscape"
   version="1.1"
   x="0px"
   y="0px"
   width="540"
   height="67.5"
   viewBox="0 -0.5 540 67.5"
   enable-background="new 0 -0.5 495 66"
   xml:space="preserve"
   id="svg4754"
   inkscape:version="0.48.3.1 r9886"
   sodipodi:docname="CNX_BioMaj_Evolution.svg"><metadata
   id="metadata4804"><rdf:RDF><cc:Work
       rdf:about=""><dc:format>image/svg+xml</dc:format><dc:type
         rdf:resource="http://purl.org/dc/dcmitype/StillImage" /></cc:Work></rdf:RDF></metadata><sodipodi:namedview
   pagecolor="#ffffff"
   bordercolor="#666666"
   borderopacity="1"
   objecttolerance="10"
   gridtolerance="10"
   guidetolerance="10"
   inkscape:pageopacity="0"
   inkscape:pageshadow="2"
   inkscape:window-width="1366"
   inkscape:window-height="744"
   id="namedview4802"
   showgrid="false"
   inkscape:zoom="0.58989899"
   inkscape:cx="247.5"
   inkscape:cy="33"
   inkscape:window-x="0"
   inkscape:window-y="24"
   inkscape:window-maximized="1"
   inkscape:current-layer="svg4754"
   units="in" />
<defs
   id="defs4756">
</defs>





















<g
   id="g4806"
   transform="matrix(0.7983871,0,0,0.79237509,0,13.061644)"><rect
     id="rect4758"
     height="51.786999"
     width="220.95599"
     y="13.531"
     x="0"
     style="fill:#010101" /><rect
     id="rect4760"
     height="51.786999"
     width="275.04401"
     y="13.531"
     x="220.95599"
     style="fill:#517542" /><path
     id="path4762"
     d="m 36.217,59.103 c 0,0 6.88,-22.582 -3.045,-59.103 17.905,32.411 6.547,52.16 3.045,59.103 z"
     inkscape:connector-curvature="0"
     style="fill:#75b152" /><path
     id="path4764"
     d="m 45.118,37.368 c 0,0 0.771,-28.085 13.465,-32.319 -7.311,11.928 -9.233,18.469 -13.465,32.319 z"
     inkscape:connector-curvature="0"
     style="fill:#517542" /><path
     id="path4766"
     d="M 31.033,44.322 H 13.92 c 0.084,3.639 0.765,6.206 2.04,7.701 1.462,1.684 3.324,2.525 5.585,2.525 3.332,0 6.01,-1.896 8.034,-5.688 l 1.658,0.714 c -2.483,4.829 -6.07,7.243 -10.763,7.243 -3.197,0 -5.887,-1.156 -8.072,-3.468 -2.185,-2.312 -3.277,-5.271 -3.277,-8.876 0,-3.876 1.075,-7.009 3.226,-9.397 2.151,-2.388 4.799,-3.583 7.945,-3.583 2.312,0 4.31,0.595 5.993,1.785 1.683,1.19 2.95,2.899 3.8,5.127 0.596,1.565 0.91,3.536 0.944,5.917 z M 13.92,42.511 h 10.354 c 0.612,0 1.088,-0.208 1.428,-0.625 0.34,-0.416 0.51,-1.126 0.51,-2.129 0,-1.87 -0.583,-3.46 -1.747,-4.77 -1.165,-1.309 -2.538,-1.964 -4.119,-1.964 -1.769,0 -3.269,0.791 -4.501,2.372 -1.232,1.582 -1.874,3.954 -1.925,7.116 z"
     inkscape:connector-curvature="0"
     style="fill:#ffffff" /><path
     id="path4768"
     d="m 60.755,31.493 c 3.213,0 5.913,1.161 8.097,3.481 2.185,2.321 3.277,5.377 3.277,9.169 0,2.618 -0.489,4.85 -1.466,6.694 -0.978,1.845 -2.372,3.303 -4.183,4.374 -1.811,1.071 -3.762,1.606 -5.853,1.606 -3.095,0 -5.717,-1.173 -7.868,-3.52 -2.151,-2.346 -3.226,-5.39 -3.226,-9.13 0,-3.758 1.08,-6.81 3.239,-9.156 2.16,-2.345 4.821,-3.518 7.983,-3.518 z m 0,1.811 c -1.904,0 -3.469,0.862 -4.693,2.588 -1.224,1.727 -1.836,4.45 -1.836,8.174 0,3.792 0.607,6.563 1.823,8.314 1.215,1.752 2.784,2.627 4.706,2.627 1.989,0 3.6,-0.875 4.833,-2.627 1.232,-1.751 1.849,-4.616 1.849,-8.595 0,-3.689 -0.608,-6.358 -1.823,-8.008 -1.216,-1.649 -2.836,-2.473 -4.859,-2.473 z"
     inkscape:connector-curvature="0"
     style="fill:#ffffff" /><path
     id="path4770"
     d="m 84.626,17.95 v 34.634 c 0,0.477 0.145,0.842 0.434,1.097 0.425,0.34 0.944,0.51 1.556,0.51 h 2.525 v 1.913 H 75.599 V 54.19 h 2.397 c 0.782,0 1.365,-0.187 1.747,-0.561 0.383,-0.374 0.574,-0.901 0.574,-1.581 V 22.974 c 0,-0.85 -0.229,-1.47 -0.688,-1.862 C 79,20.568 78.226,20.296 77.308,20.296 h -2.142 v -1.913 l 9.46,-0.433 z"
     inkscape:connector-curvature="0"
     style="fill:#ffffff" /><path
     id="path4772"
     d="M 100.235,31.773 V 47.61 c 0,1.938 0.488,3.436 1.463,4.489 0.975,1.055 2.235,1.581 3.779,1.581 1.9,0 3.516,-0.77 4.848,-2.308 1.332,-1.539 1.998,-3.465 1.998,-5.777 v -8.951 c 0,-0.816 -0.293,-1.449 -0.88,-1.9 -0.587,-0.45 -1.713,-0.701 -3.379,-0.752 v -1.785 l 8.391,-0.434 v 19.613 c 0,0.901 0.255,1.594 0.765,2.078 0.51,0.484 1.224,0.727 2.142,0.727 h 1.505 V 55.9 l -8.034,0.179 -0.51,-4.692 c -1.426,1.683 -2.861,2.949 -4.304,3.8 -1.443,0.851 -2.902,1.275 -4.379,1.275 -2.156,0 -3.964,-0.723 -5.424,-2.168 -1.477,-1.429 -2.215,-3.852 -2.215,-7.269 v -10.38 c 0,-0.918 -0.366,-1.615 -1.097,-2.092 -0.51,-0.34 -1.556,-0.526 -3.137,-0.561 v -1.785 l 8.468,-0.434 z"
     inkscape:connector-curvature="0"
     style="fill:#ffffff" /><path
     id="path4774"
     d="m 130.253,22.464 h 1.708 v 9.743 h 7.728 v 2.346 h -7.728 v 15.328 c 0,1.326 0.314,2.342 0.944,3.048 0.629,0.705 1.428,1.058 2.397,1.058 1.156,0 2.143,-0.535 2.958,-1.606 0.816,-1.071 1.292,-2.839 1.428,-5.305 h 1.709 c -0.102,3.18 -0.825,5.539 -2.168,7.077 -1.343,1.539 -3.086,2.309 -5.228,2.309 -1.973,0 -3.516,-0.54 -4.629,-1.62 -1.114,-1.079 -1.67,-2.495 -1.67,-4.246 V 34.553 h -4.157 v -1.785 c 1.895,-0.322 3.336,-1.113 4.326,-2.372 1.468,-1.887 2.262,-4.531 2.382,-7.932 z"
     inkscape:connector-curvature="0"
     style="fill:#ffffff" /><path
     id="path4776"
     d="m 143.82,32.207 9.513,-0.281 v 20.556 c 0,0.561 0.136,0.96 0.408,1.198 0.391,0.34 0.884,0.51 1.479,0.51 h 2.703 v 1.913 H 144.33 V 54.19 h 2.525 c 0.748,0 1.296,-0.183 1.645,-0.548 0.348,-0.365 0.523,-0.896 0.523,-1.594 V 37.001 c 0,-0.952 -0.272,-1.67 -0.816,-2.154 -0.544,-0.485 -1.352,-0.728 -2.423,-0.728 h -1.964 v -1.912 z m 6.632,-14.257 c 0.765,0 1.437,0.289 2.015,0.867 0.578,0.578 0.867,1.258 0.867,2.04 0,0.765 -0.281,1.428 -0.842,1.989 -0.561,0.561 -1.233,0.842 -2.015,0.842 -0.782,0 -1.458,-0.285 -2.028,-0.854 -0.57,-0.569 -0.854,-1.237 -0.854,-2.002 0,-0.765 0.289,-1.437 0.867,-2.015 0.578,-0.578 1.241,-0.867 1.99,-0.867 z"
     inkscape:connector-curvature="0"
     style="fill:#ffffff" /><path
     id="path4778"
     d="m 172.002,31.493 c 3.213,0 5.913,1.161 8.097,3.481 2.185,2.321 3.277,5.377 3.277,9.169 0,2.618 -0.489,4.85 -1.466,6.694 -0.978,1.845 -2.372,3.303 -4.183,4.374 -1.811,1.071 -3.762,1.606 -5.853,1.606 -3.095,0 -5.717,-1.173 -7.868,-3.52 -2.151,-2.346 -3.226,-5.39 -3.226,-9.13 0,-3.758 1.08,-6.81 3.239,-9.156 2.16,-2.345 4.821,-3.518 7.983,-3.518 z m 0,1.811 c -1.904,0 -3.469,0.862 -4.693,2.588 -1.224,1.727 -1.836,4.45 -1.836,8.174 0,3.792 0.607,6.563 1.823,8.314 1.215,1.752 2.784,2.627 4.706,2.627 1.989,0 3.6,-0.875 4.833,-2.627 1.232,-1.751 1.849,-4.616 1.849,-8.595 0,-3.689 -0.608,-6.358 -1.823,-8.008 -1.216,-1.649 -2.836,-2.473 -4.859,-2.473 z"
     inkscape:connector-curvature="0"
     style="fill:#ffffff" /><path
     id="path4780"
     d="m 186.846,32.207 7.931,-0.485 c 0.323,1.497 0.562,3.248 0.714,5.253 1.071,-1.734 2.333,-3.035 3.787,-3.901 1.454,-0.867 3.099,-1.301 4.935,-1.301 1.581,0 2.908,0.311 3.979,0.931 1.071,0.621 1.93,1.603 2.576,2.945 0.646,1.344 0.969,2.849 0.969,4.515 v 11.629 c 0,0.867 0.195,1.484 0.587,1.85 0.391,0.365 1.045,0.548 1.964,0.548 h 1.683 v 1.913 H 203.372 V 54.19 h 1.199 c 1.123,0 1.904,-0.178 2.347,-0.535 0.442,-0.357 0.663,-0.893 0.663,-1.606 V 41.821 c 0,-2.227 -0.34,-3.876 -1.021,-4.947 -0.952,-1.53 -2.397,-2.296 -4.335,-2.296 -1.921,0 -3.524,0.774 -4.808,2.321 -1.284,1.547 -1.925,3.562 -1.925,6.044 v 8.85 c 0,0.867 0.2,1.484 0.599,1.85 0.399,0.366 1.059,0.548 1.977,0.548 h 1.658 v 1.913 H 187.077 V 54.19 h 1.658 c 0.833,0 1.466,-0.17 1.9,-0.51 0.434,-0.34 0.65,-0.765 0.65,-1.275 v -15.43 c 0,-1.02 -0.277,-1.793 -0.829,-2.32 -0.553,-0.527 -1.348,-0.791 -2.384,-0.791 h -1.224 v -1.657 z"
     inkscape:connector-curvature="0"
     style="fill:#ffffff" /><path
     id="path4782"
     d="m 252.076,34.715 -2.07,1.589 c -1.143,-1.487 -2.515,-2.615 -4.116,-3.383 -1.601,-0.768 -3.359,-1.151 -5.275,-1.151 -2.095,0 -4.035,0.503 -5.82,1.509 -1.786,1.006 -3.169,2.356 -4.151,4.053 -0.982,1.695 -1.473,3.603 -1.473,5.722 0,3.201 1.098,5.873 3.294,8.016 2.196,2.142 4.966,3.213 8.311,3.213 3.678,0 6.754,-1.439 9.23,-4.32 l 2.07,1.571 c -1.311,1.666 -2.943,2.955 -4.901,3.865 -1.958,0.91 -4.145,1.365 -6.561,1.365 -4.594,0 -8.218,-1.528 -10.873,-4.588 -2.226,-2.582 -3.338,-5.7 -3.338,-9.354 0,-3.844 1.348,-7.078 4.044,-9.703 2.696,-2.624 6.072,-3.937 10.131,-3.937 2.452,0 4.665,0.485 6.641,1.455 1.976,0.969 3.595,2.329 4.857,4.078 z"
     inkscape:connector-curvature="0"
     style="fill:#ffffff" /><path
     id="path4784"
     d="m 271.676,29.181 c 3.978,0 7.307,1.328 9.986,3.981 2.679,2.654 4.02,5.921 4.02,9.801 0,3.845 -1.337,7.105 -4.011,9.783 -2.674,2.678 -5.934,4.017 -9.78,4.017 -3.895,0 -7.182,-1.332 -9.861,-3.999 -2.68,-2.665 -4.02,-5.891 -4.02,-9.676 0,-2.522 0.61,-4.861 1.831,-7.016 1.221,-2.155 2.885,-3.842 4.993,-5.062 2.107,-1.219 4.389,-1.829 6.842,-1.829 z m 0.116,2.553 c -1.943,0 -3.785,0.506 -5.525,1.519 -1.74,1.013 -3.1,2.376 -4.077,4.091 -0.978,1.716 -1.466,3.627 -1.466,5.735 0,3.121 1.081,5.756 3.245,7.906 2.163,2.15 4.771,3.225 7.823,3.225 2.038,0 3.925,-0.494 5.659,-1.482 1.734,-0.989 3.088,-2.341 4.059,-4.056 0.972,-1.716 1.458,-3.621 1.458,-5.718 0,-2.084 -0.486,-3.97 -1.458,-5.654 -0.971,-1.686 -2.339,-3.034 -4.104,-4.047 -1.763,-1.013 -3.635,-1.519 -5.614,-1.519 z"
     inkscape:connector-curvature="0"
     style="fill:#ffffff" /><path
     id="path4786"
     d="M 292.794,56.103 V 29.841 h 0.571 l 17.478,20.13 v -20.13 h 2.588 v 26.261 h -0.589 L 295.507,36.216 v 19.886 h -2.713 z"
     inkscape:connector-curvature="0"
     style="fill:#ffffff" /><path
     id="path4788"
     d="M 321.669,56.103 V 29.841 h 0.571 l 17.478,20.13 v -20.13 h 2.588 v 26.261 h -0.589 L 324.382,36.216 v 19.886 h -2.713 z"
     inkscape:connector-curvature="0"
     style="fill:#ffffff" /><path
     id="path4790"
     d="m 350.544,29.841 h 15.049 v 2.571 h -12.425 v 8.23 h 12.318 v 2.57 h -12.318 v 10.319 h 12.318 v 2.57 h -14.942 v -26.26 z"
     inkscape:connector-curvature="0"
     style="fill:#ffffff" /><path
     id="path4792"
     d="m 396.413,34.715 -2.07,1.589 c -1.143,-1.487 -2.515,-2.615 -4.115,-3.383 -1.6,-0.768 -3.359,-1.151 -5.275,-1.151 -2.095,0 -4.035,0.503 -5.82,1.509 -1.785,1.006 -3.169,2.356 -4.15,4.053 -0.982,1.695 -1.473,3.603 -1.473,5.722 0,3.201 1.098,5.873 3.294,8.016 2.195,2.142 4.966,3.213 8.31,3.213 3.678,0 6.755,-1.439 9.23,-4.32 l 2.07,1.571 c -1.31,1.666 -2.942,2.955 -4.9,3.865 -1.958,0.91 -4.145,1.365 -6.561,1.365 -4.595,0 -8.219,-1.528 -10.872,-4.588 -2.226,-2.582 -3.339,-5.7 -3.339,-9.354 0,-3.844 1.348,-7.078 4.044,-9.703 2.695,-2.624 6.072,-3.937 10.131,-3.937 2.452,0 4.666,0.485 6.642,1.455 1.974,0.969 3.592,2.329 4.854,4.078 z"
     inkscape:connector-curvature="0"
     style="fill:#ffffff" /><path
     id="path4794"
     d="m 400.901,32.412 v -2.571 h 14.39 v 2.571 h -5.855 v 23.69 h -2.679 v -23.69 h -5.856 z"
     inkscape:connector-curvature="0"
     style="fill:#ffffff" /><path
     id="path4796"
     d="m 420.528,29.841 h 2.625 v 26.261 h -2.625 V 29.841 z"
     inkscape:connector-curvature="0"
     style="fill:#ffffff" /><path
     id="path4798"
     d="m 443.503,29.181 c 3.978,0 7.307,1.328 9.986,3.981 2.679,2.654 4.02,5.921 4.02,9.801 0,3.845 -1.337,7.105 -4.011,9.783 -2.674,2.678 -5.934,4.017 -9.78,4.017 -3.895,0 -7.182,-1.332 -9.861,-3.999 -2.68,-2.665 -4.02,-5.891 -4.02,-9.676 0,-2.522 0.61,-4.861 1.831,-7.016 1.221,-2.155 2.885,-3.842 4.993,-5.062 2.108,-1.219 4.389,-1.829 6.842,-1.829 z m 0.116,2.553 c -1.943,0 -3.785,0.506 -5.525,1.519 -1.74,1.013 -3.1,2.376 -4.077,4.091 -0.978,1.716 -1.466,3.627 -1.466,5.735 0,3.121 1.081,5.756 3.245,7.906 2.163,2.15 4.771,3.225 7.823,3.225 2.038,0 3.925,-0.494 5.659,-1.482 1.734,-0.989 3.088,-2.341 4.059,-4.056 0.972,-1.716 1.458,-3.621 1.458,-5.718 0,-2.084 -0.486,-3.97 -1.458,-5.654 -0.971,-1.686 -2.339,-3.034 -4.104,-4.047 -1.763,-1.013 -3.635,-1.519 -5.614,-1.519 z"
     inkscape:connector-curvature="0"
     style="fill:#ffffff" /><path
     id="path4800"
     d="M 464.621,56.103 V 29.841 h 0.571 l 17.478,20.13 v -20.13 h 2.588 v 26.261 h -0.589 L 467.334,36.216 v 19.886 h -2.713 z"
     inkscape:connector-curvature="0"
     style="fill:#ffffff" /></g>
</svg>