<?xml version="1.0" encoding="utf-8"?>
<!-- Generator: Adobe Illustrator 19.1.0, SVG Export Plug-In . SVG Version: 6.00 Build 0)  -->
<svg version="1.1"
	 id="svg3225" xmlns:sodipodi="http://sodipodi.sourceforge.net/DTD/sodipodi-0.dtd" xmlns:svg="http://www.w3.org/2000/svg" xmlns:inkscape="http://www.inkscape.org/namespaces/inkscape" xmlns:rdf="http://www.w3.org/1999/02/22-rdf-syntax-ns#" xmlns:dc="http://purl.org/dc/elements/1.1/" xmlns:cc="http://creativecommons.org/ns#" inkscape:version="0.48.3.1 r9886" sodipodi:docname="CNX_BioNonMaj_Career.svg"
	 xmlns="http://www.w3.org/2000/svg" xmlns:xlink="http://www.w3.org/1999/xlink" x="0px" y="0px" viewBox="-89 380.6 350.6 45.1"
	 style="enable-background:new -89 380.6 350.6 45.1;" xml:space="preserve">
<style type="text/css">
	.st0{fill:#010101;}
	.st1{fill:#005273;}
	.st2{fill:#FFFFFF;}
	.st3{fill:#8190A7;}
</style>
<sodipodi:namedview  showgrid="false" borderopacity="1" pagecolor="#ffffff" guidetolerance="10" inkscape:cy="26.679404" gridtolerance="10" bordercolor="#666666" showguides="true" inkscape:cx="222.88472" id="namedview3273" inkscape:zoom="1.8794886" objecttolerance="10" inkscape:guide-bbox="true" inkscape:window-x="0" inkscape:pageopacity="0" inkscape:window-y="303" inkscape:window-maximized="1" inkscape:current-layer="svg3225" inkscape:pageshadow="2" inkscape:window-width="1360" inkscape:window-height="744">
	<sodipodi:guide  position="350.63982,132.43049" id="guide3301" orientation="1,0"></sodipodi:guide>
	<sodipodi:guide  position="459.69953,36.180055" id="guide3539" orientation="0,1"></sodipodi:guide>
</sodipodi:namedview>
<g id="g4126" transform="matrix(0.80996658,0,0,0.80996658,0.24827455,15.567761)">
	<rect id="rect4069" x="-109.9" y="461.3" class="st0" width="186" height="45"/>
	<rect id="rect4071" x="76.1" y="461.3" class="st1" width="246.6" height="45"/>
	<path id="path4073" inkscape:connector-curvature="0" class="st2" d="M151.6,468.2l14.3,30.6h-3.3l-4.8-10.1h-13.2l-4.8,10.1h-3.4
		l14.5-30.6H151.6L151.6,468.2z M151.2,474.7l-5.2,11.1h10.5L151.2,474.7L151.2,474.7z"/>
	<path id="path4075" inkscape:connector-curvature="0" class="st2" d="M201.2,473.9l-2.4,1.9c-1.3-1.7-2.9-3-4.8-3.9
		c-1.9-0.9-3.9-1.3-6.1-1.3c-2.4,0-4.7,0.6-6.8,1.8c-2.1,1.2-3.7,2.7-4.8,4.7c-1.1,2-1.7,4.2-1.7,6.7c0,3.7,1.3,6.8,3.8,9.3
		c2.6,2.5,5.8,3.7,9.7,3.7c4.3,0,7.9-1.7,10.7-5l2.4,1.8c-1.5,1.9-3.4,3.4-5.7,4.5c-2.3,1.1-4.8,1.6-7.6,1.6
		c-5.4,0-9.6-1.8-12.7-5.3c-2.6-3-3.9-6.6-3.9-10.9c0-4.5,1.6-8.2,4.7-11.3c3.1-3.1,7.1-4.6,11.8-4.6c2.9,0,5.4,0.6,7.7,1.7
		C197.8,470.3,199.7,471.8,201.2,473.9z"/>
	<path id="path4077" inkscape:connector-curvature="0" class="st2" d="M206.4,471.2v-3h16.8v3h-6.8v27.6h-3.1v-27.6H206.4z"/>
	<path id="path4079" inkscape:connector-curvature="0" class="st2" d="M229.3,468.2h3.1v30.6h-3.1V468.2z"/>
	<path id="path4081" inkscape:connector-curvature="0" class="st2" d="M256,467.4c4.6,0,8.5,1.5,11.6,4.6s4.7,6.9,4.7,11.4
		s-1.6,8.3-4.7,11.4s-6.9,4.7-11.4,4.7c-4.5,0-8.4-1.6-11.5-4.7s-4.7-6.9-4.7-11.3c0-2.9,0.7-5.7,2.1-8.2s3.4-4.5,5.8-5.9
		C250.5,468.1,253.2,467.4,256,467.4z M256.2,470.4c-2.3,0-4.4,0.6-6.4,1.8c-2,1.2-3.6,2.8-4.7,4.8s-1.7,4.2-1.7,6.7
		c0,3.6,1.3,6.7,3.8,9.2s5.6,3.8,9.1,3.8c2.4,0,4.6-0.6,6.6-1.7c2-1.2,3.6-2.7,4.7-4.7s1.7-4.2,1.7-6.7c0-2.4-0.6-4.6-1.7-6.6
		s-2.7-3.5-4.8-4.7C260.7,471,258.5,470.4,256.2,470.4z"/>
	<path id="path4083" inkscape:connector-curvature="0" class="st2" d="M280.6,498.8v-30.6h0.7l20.3,23.4v-23.4h3v30.6h-0.7
		l-20.1-23.2v23.2H280.6z"/>
	<path id="path4085" inkscape:connector-curvature="0" class="st2" d="M-82.2,489.5l1.7,0.5c-1.3,4.9-4.3,7.4-8.9,7.4
		c-3.4,0-6.1-1.1-8.2-3.3c-2.2-2.3-3.3-5.2-3.3-8.9c0-4.3,1.2-7.6,3.5-9.9c2.3-2.4,5.1-3.5,8.3-3.5c2.4,0,4.3,0.7,5.9,2
		c1.6,1.3,2.3,2.8,2.3,4.4c0,1-0.3,1.8-0.9,2.4c-0.6,0.6-1.3,0.9-2.1,0.9s-1.4-0.3-2-0.8c-0.5-0.5-0.8-1.2-0.8-1.9
		c0-0.8,0.3-1.5,0.9-2.2c0.3-0.3,0.4-0.6,0.4-0.8c0-0.5-0.3-1-1-1.5c-0.6-0.5-1.5-0.7-2.6-0.7c-2.1,0-3.7,0.8-4.8,2.3
		c-1.5,2.2-2.3,5.1-2.3,8.8c0,3.5,0.7,6.1,2.1,7.9c1.4,1.8,3.1,2.7,5.3,2.7C-85.8,495.2-83.7,493.3-82.2,489.5z"/>
	<path id="path4087" inkscape:connector-curvature="0" class="st2" d="M-51.6,494l0.9,1.4c-1.3,1.3-2.7,1.9-4.2,1.9
		c-1.2,0-2.2-0.3-3-1c-0.8-0.7-1.5-1.8-2.1-3.4c-1.6,1.7-3.1,2.9-4.3,3.5c-1.2,0.6-2.7,0.9-4.5,0.9c-2.5,0-4.4-0.5-5.7-1.6
		c-1.3-1.1-1.9-2.4-1.9-4.1c0-2.5,1.5-4.6,4.4-6.3c2.9-1.7,6.9-2.8,11.8-3.3v-3.7c0-1.3-0.5-2.4-1.6-3.4s-2.4-1.4-4-1.4
		c-1.5,0-2.8,0.3-3.9,0.9c-0.8,0.5-1.2,0.9-1.2,1.4c0,0.3,0.2,0.7,0.6,1.2c0.5,0.7,0.7,1.3,0.7,1.8c0,0.8-0.2,1.4-0.7,1.9
		s-1.2,0.7-2,0.7c-0.9,0-1.6-0.3-2.2-0.9s-0.9-1.3-0.9-2.2c0-1.7,1-3.3,2.9-4.7s4.4-2.1,7.6-2.1c2.9,0,5.1,0.6,6.6,1.9
		c1.5,1.3,2.3,2.8,2.3,4.6v13.2c0,1.2,0.2,2,0.6,2.6c0.4,0.6,0.9,0.9,1.5,0.9C-53.1,494.8-52.4,494.6-51.6,494z M-60.1,483.8
		c-4.4,0.6-7.5,1.6-9.3,2.9c-1.4,1-2,2.5-2,4.4c0,1.3,0.4,2.4,1.1,3.1c0.7,0.7,1.6,1.1,2.8,1.1c2,0,3.8-0.8,5.3-2.3s2.2-3.5,2.2-5.8
		L-60.1,483.8L-60.1,483.8z"/>
	<path id="path4089" inkscape:connector-curvature="0" class="st3" d="M-48.2,500.5c0,0-0.3-2.5,1.3-3.4c1.6-0.8,1.8-1,3-1
		c1.2,0,3.9,0,3.9,0s0.4-1,0.8-1c0.5,0-15.1-15-15.1-15s-0.2,0.7-1.3,0.7s-3.6-1-3.6-3.9s2.3-3.6,3.7-3.6c1.5,0,1.8,0.6,1.8,0.6
		l14.5-12.7c0,0-0.6-1.5-1.5-2.7c-0.8-1-1.3-1.9-0.2-2.6c1.1-0.7,1.7-2.1,1.7-2.1l-1.3-1.9l-0.2-1.3h1.5l1.4,2.4l1.9-1.1
		c0,0,1.1-0.4,1.9,0.2s2.5,3.1,2.5,3.1l-2.3,2.4l0.5,1.1c0,0,2.2-1.6,3.7-1.6c1.6,0,5.1,0.7,8.1,3s4.1,3.9,4.1,3.9l-18.1,13.1
		c0,0-2.1-1.2-2.8-4.4c-0.8-3.1-1.1-7.6-0.7-8.3c0.4-0.7-13.3,10.8-13.3,10.8s0.3,0.5,0,1.9c-0.3,1.3-0.5,1.9-0.5,1.9l16.1,15.1
		c0,0,1.5,0.7,1.9,1.3c0.5,0.6,1.3,1,1.3,1l4.6-0.2c0,0,1.6,0.4,2.4,1.2c0.8,0.8,1,3.1,1,3.1S-48.2,500.5-48.2,500.5z"/>
	<path id="path4091" inkscape:connector-curvature="0" class="st2" d="M-7.6,484.7h-17.3c0.1,3.7,0.8,6.3,2.1,7.8
		c1.5,1.7,3.4,2.6,5.7,2.6c3.4,0,6.1-1.9,8.1-5.8l1.7,0.7c-2.5,4.9-6.2,7.3-10.9,7.3c-3.2,0-6-1.2-8.2-3.5s-3.3-5.3-3.3-9
		c0-3.9,1.1-7.1,3.3-9.5c2.2-2.4,4.9-3.6,8.1-3.6c2.3,0,4.4,0.6,6.1,1.8s3,2.9,3.9,5.2C-8,480.3-7.6,482.3-7.6,484.7L-7.6,484.7z
		 M-24.9,482.9h10.5c0.6,0,1.1-0.2,1.4-0.6c0.3-0.4,0.5-1.1,0.5-2.2c0-1.9-0.6-3.5-1.8-4.8c-1.2-1.3-2.6-2-4.2-2
		c-1.8,0-3.3,0.8-4.6,2.4C-24.2,477.3-24.9,479.7-24.9,482.9z"/>
	<path id="path4093" inkscape:connector-curvature="0" class="st2" d="M18.9,484.7H1.6c0.1,3.7,0.8,6.3,2.1,7.8
		c1.5,1.7,3.4,2.6,5.7,2.6c3.4,0,6.1-1.9,8.1-5.8l1.7,0.7c-2.5,4.9-6.2,7.3-10.9,7.3c-3.2,0-6-1.2-8.2-3.5s-3.3-5.3-3.3-9
		c0-3.9,1.1-7.1,3.3-9.5c2.2-2.4,4.9-3.6,8.1-3.6c2.3,0,4.4,0.6,6.1,1.8s3,2.9,3.9,5.2C18.5,480.3,18.8,482.3,18.9,484.7L18.9,484.7
		z M1.5,482.9H12c0.6,0,1.1-0.2,1.4-0.6c0.3-0.4,0.5-1.1,0.5-2.2c0-1.9-0.6-3.5-1.8-4.8c-1.2-1.3-2.6-2-4.2-2
		c-1.8,0-3.3,0.8-4.6,2.4C2.2,477.3,1.6,479.7,1.5,482.9z"/>
	<path id="path4095" inkscape:connector-curvature="0" class="st2" d="M22.2,472.5l8.7-0.4v9.8c0.9-3.2,2-5.7,3.4-7.3
		c1.3-1.7,2.9-2.5,4.9-2.5c1.3,0,2.4,0.4,3.1,1.2c0.8,0.8,1.2,1.9,1.2,3.2c0,1.1-0.3,1.9-0.8,2.5s-1.2,0.9-2,0.9
		c-0.8,0-1.4-0.3-1.9-0.8s-0.7-1.2-0.7-2.1c0-0.6,0.1-1.1,0.4-1.6c0.3-0.4,0.4-0.7,0.4-0.8c0-0.3-0.2-0.4-0.5-0.4
		c-0.7,0-1.5,0.4-2.4,1.2c-1.2,1.2-2.2,2.7-2.9,4.8c-1,3.1-1.5,5.6-1.5,7.5v5.2c0,0.6,0.2,1,0.6,1.3c0.4,0.3,1.1,0.5,2.1,0.5h3.1
		v1.9h-15v-1.9h2.4c0.8,0,1.4-0.2,1.8-0.5c0.4-0.3,0.6-0.7,0.6-1.1v-15.4c0-1.2-0.2-2-0.7-2.6c-0.5-0.5-1.2-0.8-2.1-0.8h-2.1v-1.8
		H22.2z"/>
	<path id="path4097" inkscape:connector-curvature="0" class="st2" d="M49,487.6c1.1,3,2.3,5,3.7,6.2c1.4,1.1,3.1,1.7,5.1,1.7
		c1.9,0,3.3-0.4,4.3-1.2c1-0.8,1.5-1.9,1.5-3.1c0-0.7-0.2-1.4-0.6-1.9c-0.4-0.5-0.9-0.9-1.5-1.2c-0.6-0.3-2.4-0.7-5.1-1.2
		c-2.6-0.5-4.5-1.1-5.5-1.6c-1-0.6-1.8-1.4-2.4-2.4c-0.6-1-0.9-2.1-0.9-3.3c0-1.8,0.6-3.4,1.8-4.8c1.5-1.8,3.7-2.8,6.4-2.8
		c2.1,0,4.1,0.7,5.8,2l1.7-1.8h1.1l0.7,8.6h-1.7c-0.8-2.4-1.8-4.2-3.1-5.3s-2.9-1.6-4.8-1.6c-1.6,0-2.9,0.4-3.9,1.2
		c-0.9,0.8-1.4,1.8-1.4,2.9c0,1,0.4,1.9,1.3,2.5c0.8,0.7,2.5,1.2,5,1.6c2.9,0.5,4.7,0.9,5.6,1.2c1.4,0.5,2.5,1.3,3.3,2.4
		c0.8,1.1,1.2,2.4,1.2,3.9c0,2.1-0.8,3.9-2.5,5.4c-1.7,1.5-3.8,2.2-6.4,2.2c-2.4,0-4.6-0.8-6.7-2.4l-1.9,2.2h-1.4l-0.5-9.6H49
		L49,487.6z"/>
	<path id="path4099" inkscape:connector-curvature="0" class="st2" d="M90.5,475h2.3v23.3h-2.3V475z"/>
	<path id="path4101" inkscape:connector-curvature="0" class="st2" d="M99.8,498.3V475h0.5l15.5,17.8V475h2.3v23.3h-0.5l-15.4-17.6
		v17.6H99.8L99.8,498.3z"/>
</g>
</svg>
