<?xml version="1.0" encoding="UTF-8" standalone="no"?>
<!-- Generator: Adobe Illustrator 14.0.0, SVG Export Plug-In  -->

<svg
   xmlns:dc="http://purl.org/dc/elements/1.1/"
   xmlns:cc="http://creativecommons.org/ns#"
   xmlns:rdf="http://www.w3.org/1999/02/22-rdf-syntax-ns#"
   xmlns:svg="http://www.w3.org/2000/svg"
   xmlns="http://www.w3.org/2000/svg"
   xmlns:sodipodi="http://sodipodi.sourceforge.net/DTD/sodipodi-0.dtd"
   xmlns:inkscape="http://www.inkscape.org/namespaces/inkscape"
   version="1.1"
   x="0px"
   y="0px"
   width="433px"
   height="64px"
   viewBox="0 -3.5 433 64"
   enable-background="new 0 -3.5 433 64"
   xml:space="preserve"
   id="svg3225"
   inkscape:version="0.48.3.1 r9886"
   sodipodi:docname="CNX_BioNonMaj_Action.svg"><metadata
   id="metadata3275"><rdf:RDF><cc:Work
       rdf:about=""><dc:format>image/svg+xml</dc:format><dc:type
         rdf:resource="http://purl.org/dc/dcmitype/StillImage" /><dc:title></dc:title></cc:Work></rdf:RDF></metadata><sodipodi:namedview
   pagecolor="#ffffff"
   bordercolor="#666666"
   borderopacity="1"
   objecttolerance="10"
   gridtolerance="10"
   guidetolerance="10"
   inkscape:pageopacity="0"
   inkscape:pageshadow="2"
   inkscape:window-width="1360"
   inkscape:window-height="744"
   id="namedview3273"
   showgrid="false"
   showguides="true"
   inkscape:guide-bbox="true"
   inkscape:zoom="1.8794886"
   inkscape:cx="222.88472"
   inkscape:cy="26.679404"
   inkscape:window-x="0"
   inkscape:window-y="303"
   inkscape:window-maximized="1"
   inkscape:current-layer="svg3225"><sodipodi:guide
     orientation="1,0"
     position="350.63982,132.43049"
     id="guide3301" /><sodipodi:guide
     orientation="0,1"
     position="459.69953,36.180055"
     id="guide3539" /></sodipodi:namedview>
<defs
   id="defs3227">
</defs>






















<g
   id="g3814"
   transform="matrix(0.81003826,0,0,0.81003826,0.29827335,24.201773)"><rect
     style="fill:#010101"
     y="0"
     x="0"
     id="rect3756"
     height="45"
     width="186" /><rect
     style="fill:#602e1a"
     y="0"
     id="rect3758"
     height="45"
     width="250.7"
     x="181.8" /><path
     style="fill:#ffffff"
     inkscape:connector-curvature="0"
     id="path3760"
     d="m 260.5,6.9 14.3,30.6 h -3.3 l -4.8,-10.1 h -13.2 l -4.8,10.1 h -3.4 L 259.8,6.9 h 0.7 z m -0.4,6.5 -5.2,11.1 h 10.5 l -5.3,-11.1 z" /><path
     style="fill:#ffffff"
     inkscape:connector-curvature="0"
     id="path3762"
     d="m 310.1,12.5 -2.4,1.9 c -1.3,-1.7 -2.9,-3 -4.8,-3.9 -1.9,-0.9 -3.9,-1.3 -6.1,-1.3 -2.4,0 -4.7,0.6 -6.8,1.8 -2.1,1.2 -3.7,2.7 -4.8,4.7 -1.1,2 -1.7,4.2 -1.7,6.7 0,3.7 1.3,6.8 3.8,9.3 2.5,2.5 5.8,3.7 9.7,3.7 4.3,0 7.9,-1.7 10.8,-5 l 2.4,1.8 c -1.5,1.9 -3.4,3.4 -5.7,4.5 -2.3,1.1 -4.8,1.6 -7.6,1.6 -5.4,0 -9.6,-1.8 -12.7,-5.3 -2.6,-3 -3.9,-6.6 -3.9,-10.9 0,-4.5 1.6,-8.2 4.7,-11.3 3.1,-3.1 7.1,-4.6 11.8,-4.6 2.9,0 5.4,0.6 7.7,1.7 2.2,1 4.1,2.6 5.6,4.6 z" /><path
     style="fill:#ffffff"
     inkscape:connector-curvature="0"
     id="path3764"
     d="m 315.3,9.9 v -3 h 16.8 v 3 h -6.8 v 27.6 h -3.1 V 9.9 h -6.9 z" /><path
     style="fill:#ffffff"
     inkscape:connector-curvature="0"
     id="path3766"
     d="m 338.2,6.9 h 3.1 v 30.6 h -3.1 V 6.9 z" /><path
     style="fill:#ffffff"
     inkscape:connector-curvature="0"
     id="path3768"
     d="m 364.9,6.1 c 4.6,0 8.5,1.5 11.6,4.6 3.1,3.1 4.7,6.9 4.7,11.4 0,4.5 -1.6,8.3 -4.7,11.4 -3.1,3.1 -6.9,4.7 -11.4,4.7 -4.5,0 -8.4,-1.6 -11.5,-4.7 -3.1,-3.1 -4.7,-6.9 -4.7,-11.3 0,-2.9 0.7,-5.7 2.1,-8.2 1.4,-2.5 3.4,-4.5 5.8,-5.9 2.6,-1.3 5.3,-2 8.1,-2 z m 0.2,3 c -2.3,0 -4.4,0.6 -6.4,1.8 -2,1.2 -3.6,2.8 -4.7,4.8 -1.1,2 -1.7,4.2 -1.7,6.7 0,3.6 1.3,6.7 3.8,9.2 2.5,2.5 5.6,3.8 9.1,3.8 2.4,0 4.6,-0.6 6.6,-1.7 2,-1.2 3.6,-2.7 4.7,-4.7 1.1,-2 1.7,-4.2 1.7,-6.7 0,-2.4 -0.6,-4.6 -1.7,-6.6 -1.1,-2 -2.7,-3.5 -4.8,-4.7 -2.1,-1.3 -4.3,-1.9 -6.6,-1.9 z" /><path
     style="fill:#ffffff"
     inkscape:connector-curvature="0"
     id="path3770"
     d="M 389.5,37.5 V 6.9 h 0.7 l 20.4,23.4 V 6.9 h 3 v 30.6 h -0.7 L 392.7,14.3 v 23.2 h -3.2 z" /><path
     style="fill:#ffffff"
     inkscape:connector-curvature="0"
     id="path3772"
     d="m 199.2,13.7 h 2.3 V 37 h -2.3 V 13.7 z" /><path
     style="fill:#ffffff"
     inkscape:connector-curvature="0"
     id="path3774"
     d="M 208.5,37 V 13.7 h 0.5 l 15.5,17.8 V 13.7 h 2.3 V 37 h -0.5 L 210.9,19.4 V 37 h -2.4 z" /><path
     style="fill:#ffffff"
     inkscape:connector-curvature="0"
     id="path3776"
     d="m 22.5,6.1 v 14 c 0.8,-1.1 1.7,-2 2.6,-2.5 1,-0.6 2,-0.8 3.2,-0.8 2.2,0 4.1,0.9 5.6,2.6 1.5,1.7 2.3,4 2.3,6.8 0,3.1 -0.8,5.5 -2.5,7.4 -1.6,1.9 -3.7,2.8 -6.1,2.8 -1.2,0 -2.2,-0.2 -3.1,-0.7 -0.9,-0.5 -1.9,-1.2 -2.9,-2.3 -0.8,1.2 -1.5,2.2 -2.2,3 L 18.6,36.1 C 19,34.6 19.2,33 19.2,31.3 V 10.1 C 19.2,9.4 19,8.9 18.5,8.6 18,8.1 17.3,8 16.5,8 H 15.7 V 6.4 l 6.8,-0.3 z m 5.1,12.5 c -1.5,0 -2.7,0.7 -3.7,2 -1,1.3 -1.4,3.5 -1.4,6.5 0,2.9 0.5,5 1.4,6.2 0.9,1.2 2.2,1.9 3.7,1.9 1.4,0 2.5,-0.6 3.3,-1.8 1,-1.6 1.6,-3.8 1.6,-6.6 0,-2.8 -0.5,-4.9 -1.4,-6.2 -1,-1.4 -2.2,-2 -3.5,-2 z" /><path
     style="fill:#ffffff"
     inkscape:connector-curvature="0"
     id="path3778"
     d="m 41.2,17.3 7.5,-0.2 v 16.2 c 0,0.4 0.1,0.8 0.3,0.9 0.3,0.3 0.7,0.4 1.2,0.4 h 2.1 v 1.5 H 41.6 v -1.5 h 2 c 0.6,0 1,-0.1 1.3,-0.4 0.3,-0.3 0.4,-0.7 0.4,-1.3 V 21.1 c 0,-0.7 -0.2,-1.3 -0.6,-1.7 C 44.3,19 43.6,18.8 42.8,18.8 H 41.3 V 17.3 z M 46.5,6.1 c 0.6,0 1.1,0.2 1.6,0.7 0.5,0.5 0.7,1 0.7,1.6 0,0.6 -0.2,1.1 -0.7,1.6 -0.4,0.4 -1,0.7 -1.6,0.7 -0.6,0 -1.1,-0.2 -1.6,-0.7 -0.4,-0.4 -0.7,-1 -0.7,-1.6 0,-0.6 0.2,-1.1 0.7,-1.6 0.5,-0.5 1,-0.7 1.6,-0.7 z" /><path
     style="fill:#ffffff"
     inkscape:connector-curvature="0"
     id="path3780"
     d="m 90.7,6.1 v 27.3 c 0,0.4 0.1,0.7 0.3,0.9 0.3,0.3 0.7,0.4 1.2,0.4 h 2 v 1.5 H 83.6 v -1.5 h 1.9 c 0.6,0 1.1,-0.1 1.4,-0.4 0.3,-0.3 0.5,-0.7 0.5,-1.2 v -23 C 87.4,9.4 87.2,8.9 86.9,8.6 86.3,8.2 85.7,8 84.9,8 H 83.2 V 6.4 l 7.5,-0.3 z" /><path
     style="fill:#ffffff"
     inkscape:connector-curvature="0"
     id="path3782"
     d="m 107.5,16.8 c 2.5,0 4.7,0.9 6.4,2.7 1.7,1.8 2.6,4.2 2.6,7.2 0,2.1 -0.4,3.8 -1.2,5.3 -0.8,1.5 -1.9,2.6 -3.3,3.4 -1.4,0.8 -3,1.3 -4.6,1.3 -2.4,0 -4.5,-0.9 -6.2,-2.8 -1.7,-1.8 -2.5,-4.2 -2.5,-7.2 0,-3 0.8,-5.4 2.6,-7.2 1.6,-1.8 3.7,-2.7 6.2,-2.7 z m 0,1.4 c -1.5,0 -2.7,0.7 -3.7,2 -1,1.4 -1.4,3.5 -1.4,6.4 0,3 0.5,5.2 1.4,6.5 1,1.4 2.2,2.1 3.7,2.1 1.6,0 2.8,-0.7 3.8,-2.1 1,-1.4 1.5,-3.6 1.5,-6.8 0,-2.9 -0.5,-5 -1.4,-6.3 -1.1,-1.2 -2.3,-1.8 -3.9,-1.8 z" /><path
     style="fill:#ffffff"
     inkscape:connector-curvature="0"
     id="path3784"
     d="m 135.6,18.4 c 1.3,-1.4 2.6,-2 3.7,-2 0.7,0 1.2,0.2 1.7,0.6 0.4,0.4 0.7,1 0.7,1.6 0,0.5 -0.2,0.9 -0.5,1.2 -0.3,0.3 -0.7,0.5 -1.1,0.5 -0.8,0 -1.3,-0.5 -1.5,-1.4 -0.1,-0.4 -0.3,-0.6 -0.5,-0.6 -0.5,0 -1,0.3 -1.5,0.9 0.6,0.8 1,1.5 1.2,2.1 0.2,0.6 0.3,1.2 0.3,1.9 0,1.2 -0.3,2.2 -0.8,3.1 -0.6,0.9 -1.5,1.7 -2.8,2.4 -1.3,0.7 -2.6,1 -3.7,1 h -2.2 c -1.6,0 -2.6,0.2 -3.1,0.5 -0.5,0.3 -0.8,0.8 -0.8,1.5 0,0.5 0.2,0.9 0.6,1.2 0.4,0.3 1.2,0.4 2.3,0.4 l 5,-0.1 c 2.5,0 4.3,0.4 5.4,1.3 1.1,0.8 1.7,2 1.7,3.4 0,1.6 -0.6,3 -1.9,4.1 -1.8,1.6 -4.4,2.3 -7.9,2.3 -2.9,0 -5,-0.5 -6.4,-1.6 -1.1,-0.8 -1.6,-1.8 -1.6,-2.8 0,-0.8 0.4,-1.5 1.1,-2.2 0.7,-0.7 1.9,-1.1 3.5,-1.5 -1.3,-0.3 -2.3,-0.8 -3,-1.4 -0.7,-0.6 -1,-1.4 -1,-2.3 0,-0.9 0.3,-1.6 0.8,-2.2 0.5,-0.6 1.5,-1.2 2.8,-1.6 -1.1,-0.6 -2,-1.4 -2.6,-2.3 -0.6,-0.9 -0.9,-1.9 -0.9,-3.1 0,-1.8 0.7,-3.3 2.1,-4.6 1.4,-1.2 3.3,-1.8 5.6,-1.8 0.9,0 1.8,0.1 2.7,0.4 1,0.1 1.8,0.5 2.6,1.1 z m -4.1,17.8 c -2.5,0 -4.2,0.3 -5.3,1 -1.1,0.7 -1.6,1.5 -1.6,2.5 0,0.9 0.4,1.6 1.2,2.1 1,0.7 2.5,1 4.5,1 2.3,0 4,-0.4 5.2,-1.1 1.2,-0.8 1.7,-1.6 1.7,-2.6 0,-0.5 -0.2,-1.1 -0.5,-1.5 -0.4,-0.5 -0.9,-0.8 -1.7,-1.1 -0.8,-0.2 -1.9,-0.3 -3.5,-0.3 z m -1.1,-18.1 c -1.2,0 -2.2,0.4 -3,1.3 -0.8,0.9 -1.2,2.1 -1.2,3.7 0,1.7 0.4,3 1.2,3.9 0.8,0.9 1.8,1.4 3,1.4 1.2,0 2.2,-0.5 3,-1.4 0.8,-0.9 1.2,-2.2 1.2,-3.9 0,-1.6 -0.4,-2.8 -1.2,-3.7 -0.9,-0.9 -1.9,-1.3 -3,-1.3 z" /><path
     style="fill:#ffffff"
     inkscape:connector-curvature="0"
     id="path3786"
     d="m 144.9,17.3 h 9 v 1.4 h -0.8 c -0.8,0 -1.3,0.1 -1.6,0.3 -0.3,0.2 -0.4,0.5 -0.4,0.9 0,0.2 0,0.3 0.1,0.5 l 5.2,11.3 3.9,-9.4 c 0.3,-0.7 0.4,-1.3 0.4,-2 0,-0.5 -0.2,-0.9 -0.6,-1.2 -0.4,-0.3 -1.2,-0.5 -2.3,-0.5 v -1.4 h 7.8 v 1.4 c -1.5,0.1 -2.5,0.8 -3.1,2 l -7,16.2 c -1.2,2.8 -2.4,4.6 -3.6,5.7 -1.2,1 -2.5,1.6 -3.9,1.6 -1,0 -1.8,-0.3 -2.4,-0.8 -0.6,-0.5 -0.9,-1.2 -0.9,-2 0,-0.6 0.2,-1.1 0.6,-1.5 0.4,-0.4 0.8,-0.6 1.4,-0.6 0.5,0 0.9,0.2 1.3,0.5 0.3,0.3 0.5,0.7 0.5,1.2 0,0.1 0,0.3 -0.1,0.6 -0.1,0.2 -0.1,0.3 -0.1,0.4 0,0.3 0.2,0.5 0.6,0.5 0.4,0 0.9,-0.2 1.5,-0.5 0.6,-0.3 1.1,-0.8 1.6,-1.5 0.5,-0.7 1.3,-2.3 2.5,-4.7 l -7.1,-15.3 c -0.3,-0.5 -0.6,-0.9 -1,-1.2 -0.4,-0.3 -0.9,-0.4 -1.7,-0.5 v -1.4 z" /><circle
     style="fill:#602e1a;stroke:#cfb7a1"
     sodipodi:ry="15.3"
     sodipodi:rx="15.3"
     sodipodi:cy="24.6"
     sodipodi:cx="68.300003"
     d="m 83.600003,24.6 c 0,8.449957 -6.850043,15.300001 -15.3,15.300001 -8.449957,0 -15.3,-6.850044 -15.3,-15.300001 0,-8.449956 6.850043,-15.2999998 15.3,-15.2999998 8.449957,0 15.3,6.8500438 15.3,15.2999998 z"
     id="circle3788"
     r="15.3"
     cy="24.6"
     cx="68.300003" /><path
     style="fill:none;stroke:#cfb7a1"
     inkscape:connector-curvature="0"
     id="path3790"
     d="m 64.3,10 c 0,0 -5.1,7 -3.8,16.7 1.4,11.2 8.3,13.2 8.3,13.2" /><path
     style="fill:none;stroke:#cfb7a1"
     inkscape:connector-curvature="0"
     id="path3792"
     d="m 59.9,11.7 c 0,0 6.7,1.4 13.5,9.9 8.5,10.6 4.1,15.1 4.1,15.1" /><path
     style="fill:none;stroke:#cfb7a1"
     inkscape:connector-curvature="0"
     id="path3794"
     d="m 58.2,36.1 c 0,0 -2.7,-3.6 -2.7,-9.9 0,-8.3 7.4,-13.8 7.4,-13.8 0,0 8,-0.1 14.4,4.8 7.6,5.7 4.9,13.7 4.9,13.7" /><path
     style="fill:none;stroke:#cfb7a1"
     inkscape:connector-curvature="0"
     id="path3796"
     d="m 53,23.4 c 0,0 0,-5.8 9.9,-11.6 5.1,-3 6.4,-2.4 6.4,-2.4" /><path
     style="fill:none;stroke:#cfb7a1"
     inkscape:connector-curvature="0"
     id="path3798"
     d="m 62.9,12.9 c 0,0 0.8,4 4.5,12.9 3.5,8.4 6.5,12.9 6.5,12.9" /><path
     style="fill:none;stroke:#cfb7a1"
     inkscape:connector-curvature="0"
     id="path3800"
     d="m 56.7,14.6 c 0,0 9.8,-5.8 17.2,-2.9 6.6,2.6 8,5.9 8,5.9" /><path
     style="fill:none;stroke:#cfb7a1"
     inkscape:connector-curvature="0"
     id="path3802"
     d="m 56.4,15 c 0,0 -1.3,6.5 8.5,2.7 8.9,-3.5 5,-8.4 5,-8.4" /><path
     style="fill:none;stroke:#cfb7a1"
     inkscape:connector-curvature="0"
     id="path3804"
     d="m 53,23.8 c 0,0 1.7,6.7 15.8,0.4 11.7,-5.2 9,-11.7 9,-11.7" /><path
     style="fill:none;stroke:#cfb7a1"
     inkscape:connector-curvature="0"
     id="path3806"
     d="m 54.9,32 c 0,0 3.7,4.8 15.8,0 12.9,-5.2 12,-12.6 12,-12.6" /><path
     style="fill:none;stroke:#cfb7a1"
     inkscape:connector-curvature="0"
     id="path3808"
     d="m 62.7,38.8 c 0,0 4.4,0.7 10.3,-1.5 6.7,-2.5 9.4,-6.9 9.4,-6.9" /></g></svg>