<?xml version="1.0" encoding="UTF-8" standalone="no"?>
<!-- Generator: Adobe Illustrator 14.0.0, SVG Export Plug-In  -->

<svg
   xmlns:dc="http://purl.org/dc/elements/1.1/"
   xmlns:cc="http://creativecommons.org/ns#"
   xmlns:rdf="http://www.w3.org/1999/02/22-rdf-syntax-ns#"
   xmlns:svg="http://www.w3.org/2000/svg"
   xmlns="http://www.w3.org/2000/svg"
   xmlns:sodipodi="http://sodipodi.sourceforge.net/DTD/sodipodi-0.dtd"
   xmlns:inkscape="http://www.inkscape.org/namespaces/inkscape"
   version="1.1"
   x="0px"
   y="0px"
   width="540"
   height="67.5"
   viewBox="-0.744 -0.5 540 67.5"
   enable-background="new -0.744 -0.5 495 65"
   xml:space="preserve"
   id="svg3798"
   inkscape:version="0.48.3.1 r9886"
   sodipodi:docname="CNX_BioMaj_Scienctific.svg"><metadata
   id="metadata3862"><rdf:RDF><cc:Work
       rdf:about=""><dc:format>image/svg+xml</dc:format><dc:type
         rdf:resource="http://purl.org/dc/dcmitype/StillImage" /><dc:title></dc:title></cc:Work></rdf:RDF></metadata><sodipodi:namedview
   pagecolor="#ffffff"
   bordercolor="#666666"
   borderopacity="1"
   objecttolerance="10"
   gridtolerance="10"
   guidetolerance="10"
   inkscape:pageopacity="0"
   inkscape:pageshadow="2"
   inkscape:window-width="1366"
   inkscape:window-height="744"
   id="namedview3860"
   showgrid="false"
   units="in"
   inkscape:zoom="2.4262626"
   inkscape:cx="247.5"
   inkscape:cy="32.5"
   inkscape:window-x="0"
   inkscape:window-y="24"
   inkscape:window-maximized="1"
   inkscape:current-layer="svg3798" />
<defs
   id="defs3800">
</defs>




























<g
   id="g3864"
   transform="matrix(0.79958646,0,0,0.80602572,0,12.849632)"><rect
     style="fill:#010101"
     y="2.5"
     x="0"
     id="rect3802"
     height="63.743999"
     width="302.40201" /><path
     style="fill:#f99c1c"
     inkscape:connector-curvature="0"
     id="path3804"
     d="m 251.821,27.627 0.01,0.01 c -0.126,0.193 -0.25,0.385 -0.369,0.581 -0.026,0.039 -0.05,0.074 -0.074,0.114 -0.628,1.024 -1.14,2.091 -1.541,3.179 l 0.065,-0.018 c -0.961,2.718 -1.269,5.698 -0.778,8.707 l -0.029,0.029 c 0.127,0.685 0.299,1.359 0.507,2.026 0.255,0.889 0.573,1.744 0.95,2.56 l 0.038,-0.062 c 1.311,2.686 3.31,5.073 5.938,6.859 l 0.015,-0.015 c 0.226,0.152 0.455,0.304 0.69,0.447 1.026,0.629 2.09,1.142 3.178,1.542 l -1.061,-4.032 4.822,-1.269 -3.221,-1.159 -0.016,0.016 c -1.74,-0.95 -3.205,-2.336 -4.254,-4.005 l -1.18,-2.508 -0.022,0 c -0.552,-1.883 -0.615,-3.875 -0.189,-5.779 l 1.006,-2.803 -0.013,-0.015 c 1.366,-2.502 3.629,-4.44 6.355,-5.383 l 3.505,-3.545 -2.949,-2.913 c -4.488,0.836 -8.642,3.398 -11.383,7.433 z" /><path
     style="fill:#d66c29"
     inkscape:connector-curvature="0"
     id="path3806"
     d="m 274.956,23.198 c -0.224,-0.154 -0.452,-0.304 -0.691,-0.449 -1.023,-0.631 -2.088,-1.141 -3.179,-1.54 l 1.064,4.032 -4.823,1.267 3.222,1.159 0.014,-0.015 c 1.726,0.943 3.18,2.31 4.226,3.958 l 1.266,2.688 h 0.021 c 0.57,1.95 0.614,4.022 0.136,5.991 l -0.902,2.505 0.018,0.015 c -1.368,2.502 -3.633,4.44 -6.358,5.38 l -3.505,3.547 2.947,2.912 c 4.362,-0.812 8.396,-3.255 11.139,-7.09 l 0.009,0 c 0.031,-0.046 0.06,-0.09 0.089,-0.138 0.049,-0.068 0.1,-0.135 0.148,-0.204 l -0.009,-0.01 c 0.118,-0.184 0.237,-0.367 0.347,-0.554 0.032,-0.048 0.065,-0.094 0.095,-0.143 0.63,-1.025 1.142,-2.09 1.539,-3.179 l -0.086,0.023 c 0.957,-2.746 1.246,-5.755 0.723,-8.791 l 0,0 c 0,0 -0.003,-0.01 -0.003,-0.01 -0.017,-0.102 -0.029,-0.203 -0.05,-0.305 l -0.013,0 c -0.047,-0.222 -0.095,-0.445 -0.149,-0.667 -0.011,-0.044 -0.018,-0.092 -0.028,-0.136 -0.281,-1.171 -0.673,-2.289 -1.159,-3.338 l -0.032,0.056 c -1.308,-2.737 -3.327,-5.172 -5.998,-6.987 l -0.018,0.019 z" /><rect
     style="fill:#d66c29"
     y="2.5"
     id="rect3808"
     height="63.743999"
     width="192.854"
     x="302.40201" /><path
     style="fill:#ffffff"
     inkscape:connector-curvature="0"
     id="path3810"
     d="m 325.502,33.106 -1.444,1.108 c -0.797,-1.038 -1.754,-1.824 -2.87,-2.359 -1.116,-0.535 -2.343,-0.803 -3.679,-0.803 -1.461,0 -2.813,0.351 -4.059,1.052 -1.245,0.702 -2.21,1.644 -2.895,2.826 -0.685,1.184 -1.027,2.514 -1.027,3.99 0,2.232 0.766,4.096 2.297,5.59 1.531,1.494 3.464,2.242 5.796,2.242 2.564,0 4.71,-1.006 6.437,-3.014 l 1.444,1.096 c -0.913,1.162 -2.053,2.061 -3.418,2.695 -1.365,0.634 -2.891,0.953 -4.575,0.953 -3.204,0 -5.731,-1.066 -7.582,-3.201 -1.552,-1.801 -2.328,-3.975 -2.328,-6.523 0,-2.681 0.94,-4.936 2.82,-6.766 1.88,-1.83 4.234,-2.745 7.065,-2.745 1.709,0 3.253,0.338 4.631,1.015 1.378,0.676 2.507,1.624 3.387,2.844 z" /><path
     style="fill:#ffffff"
     inkscape:connector-curvature="0"
     id="path3812"
     d="m 339.171,29.247 c 2.773,0 5.095,0.925 6.964,2.776 1.868,1.851 2.803,4.129 2.803,6.834 0,2.682 -0.933,4.955 -2.797,6.822 -1.864,1.869 -4.138,2.803 -6.82,2.803 -2.716,0 -5.009,-0.93 -6.877,-2.789 -1.869,-1.859 -2.804,-4.109 -2.804,-6.748 0,-1.76 0.426,-3.391 1.277,-4.893 0.851,-1.502 2.012,-2.679 3.481,-3.53 1.471,-0.85 3.061,-1.275 4.773,-1.275 z m 0.08,1.78 c -1.354,0 -2.639,0.353 -3.853,1.059 -1.214,0.706 -2.162,1.657 -2.844,2.853 -0.682,1.196 -1.022,2.53 -1.022,4 0,2.176 0.755,4.014 2.264,5.514 1.509,1.498 3.327,2.248 5.455,2.248 1.422,0 2.737,-0.344 3.947,-1.033 1.209,-0.689 2.153,-1.633 2.83,-2.828 0.678,-1.197 1.017,-2.525 1.017,-3.988 0,-1.453 -0.339,-2.768 -1.017,-3.943 -0.677,-1.176 -1.631,-2.116 -2.861,-2.822 -1.23,-0.706 -2.535,-1.06 -3.916,-1.06 z" /><path
     style="fill:#ffffff"
     inkscape:connector-curvature="0"
     id="path3814"
     d="M 353.898,48.021 V 29.707 h 0.398 l 12.188,14.039 V 29.707 h 1.805 v 18.314 h -0.41 L 355.79,34.153 v 13.868 h -1.892 z" /><path
     style="fill:#ffffff"
     inkscape:connector-curvature="0"
     id="path3816"
     d="M 374.035,48.021 V 29.707 h 0.398 l 12.188,14.039 V 29.707 h 1.805 v 18.314 h -0.41 L 375.927,34.153 v 13.868 h -1.892 z" /><path
     style="fill:#ffffff"
     inkscape:connector-curvature="0"
     id="path3818"
     d="m 394.171,29.707 h 10.495 V 31.5 h -8.665 v 5.739 h 8.591 v 1.792 h -8.591 v 7.197 h 8.591 v 1.793 H 394.171 V 29.707 z" /><path
     style="fill:#ffffff"
     inkscape:connector-curvature="0"
     id="path3820"
     d="m 426.16,33.106 -1.444,1.108 c -0.797,-1.038 -1.754,-1.824 -2.87,-2.359 -1.116,-0.535 -2.343,-0.803 -3.679,-0.803 -1.461,0 -2.813,0.351 -4.059,1.052 -1.245,0.702 -2.21,1.644 -2.895,2.826 -0.685,1.184 -1.027,2.514 -1.027,3.99 0,2.232 0.766,4.096 2.297,5.59 1.531,1.494 3.464,2.242 5.796,2.242 2.564,0 4.71,-1.006 6.437,-3.014 l 1.444,1.096 c -0.913,1.162 -2.053,2.061 -3.418,2.695 -1.365,0.634 -2.891,0.953 -4.575,0.953 -3.204,0 -5.731,-1.066 -7.582,-3.201 -1.552,-1.801 -2.328,-3.975 -2.328,-6.523 0,-2.681 0.94,-4.936 2.82,-6.766 1.88,-1.83 4.234,-2.745 7.065,-2.745 1.709,0 3.253,0.338 4.631,1.015 1.378,0.676 2.507,1.624 3.387,2.844 z" /><path
     style="fill:#ffffff"
     inkscape:connector-curvature="0"
     id="path3822"
     d="m 429.29,31.5 v -1.793 h 10.034 V 31.5 h -4.083 v 16.521 h -1.868 V 31.5 h -4.083 z" /><path
     style="fill:#ffffff"
     inkscape:connector-curvature="0"
     id="path3824"
     d="m 442.978,29.707 h 1.83 v 18.314 h -1.83 V 29.707 z" /><path
     style="fill:#ffffff"
     inkscape:connector-curvature="0"
     id="path3826"
     d="m 459,29.247 c 2.773,0 5.095,0.925 6.964,2.776 1.868,1.851 2.803,4.129 2.803,6.834 0,2.682 -0.933,4.955 -2.797,6.822 -1.864,1.869 -4.138,2.803 -6.82,2.803 -2.716,0 -5.009,-0.93 -6.877,-2.789 -1.869,-1.859 -2.804,-4.109 -2.804,-6.748 0,-1.76 0.426,-3.391 1.277,-4.893 0.851,-1.502 2.012,-2.679 3.481,-3.53 1.471,-0.85 3.061,-1.275 4.773,-1.275 z m 0.08,1.78 c -1.354,0 -2.639,0.353 -3.853,1.059 -1.214,0.706 -2.162,1.657 -2.844,2.853 -0.682,1.196 -1.022,2.53 -1.022,4 0,2.176 0.755,4.014 2.264,5.514 1.509,1.498 3.327,2.248 5.455,2.248 1.422,0 2.737,-0.344 3.947,-1.033 1.209,-0.689 2.153,-1.633 2.83,-2.828 0.678,-1.197 1.017,-2.525 1.017,-3.988 0,-1.453 -0.339,-2.768 -1.017,-3.943 -0.677,-1.176 -1.631,-2.116 -2.861,-2.822 -1.23,-0.706 -2.535,-1.06 -3.916,-1.06 z" /><path
     style="fill:#ffffff"
     inkscape:connector-curvature="0"
     id="path3828"
     d="M 473.727,48.021 V 29.707 h 0.398 l 12.188,14.039 V 29.707 h 1.805 v 18.314 h -0.41 L 475.619,34.153 v 13.868 h -1.892 z" /><path
     style="fill:#ffffff"
     inkscape:connector-curvature="0"
     id="path3830"
     d="m 10.034,41.963 c 0.735,2.053 1.58,3.473 2.534,4.26 0.955,0.789 2.131,1.184 3.531,1.184 1.292,0 2.285,-0.281 2.979,-0.846 0.693,-0.562 1.041,-1.277 1.041,-2.143 0,-0.498 -0.128,-0.934 -0.383,-1.307 C 19.481,42.736 19.127,42.459 18.675,42.275 18.224,42.091 17.053,41.82 15.165,41.464 13.359,41.109 12.1,40.735 11.388,40.345 10.676,39.952 10.121,39.413 9.723,38.726 9.325,38.039 9.127,37.291 9.127,36.485 c 0,-1.221 0.41,-2.33 1.229,-3.326 1.057,-1.269 2.535,-1.903 4.435,-1.903 1.449,0 2.791,0.457 4.025,1.37 l 1.176,-1.245 h 0.73 l 0.463,5.94 h -1.191 c -0.523,-1.684 -1.23,-2.896 -2.121,-3.637 -0.891,-0.741 -1.99,-1.112 -3.297,-1.112 -1.129,0 -2.014,0.276 -2.655,0.827 -0.642,0.551 -0.962,1.225 -0.962,2.019 0,0.7 0.296,1.281 0.891,1.744 0.582,0.475 1.723,0.848 3.421,1.121 1.972,0.334 3.255,0.613 3.849,0.84 0.973,0.355 1.727,0.904 2.261,1.645 0.534,0.741 0.801,1.645 0.801,2.711 0,1.469 -0.579,2.713 -1.737,3.732 -1.158,1.019 -2.626,1.529 -4.407,1.529 -1.65,0 -3.183,-0.545 -4.595,-1.637 l -1.3,1.494 H 9.199 L 8.843,41.962 h 1.191 z" /><path
     style="fill:#ffffff"
     inkscape:connector-curvature="0"
     id="path3832"
     d="m 37.62,43.297 1.156,0.338 c -0.925,3.404 -2.964,5.105 -6.119,5.105 -2.312,0 -4.204,-0.766 -5.673,-2.295 -1.471,-1.529 -2.206,-3.562 -2.206,-6.1 0,-2.941 0.806,-5.221 2.419,-6.839 1.612,-1.619 3.509,-2.428 5.691,-2.428 1.636,0 2.988,0.451 4.055,1.352 1.067,0.901 1.601,1.903 1.601,3.006 0,0.664 -0.199,1.212 -0.596,1.645 -0.397,0.433 -0.869,0.649 -1.414,0.649 -0.534,0 -0.984,-0.184 -1.352,-0.549 -0.368,-0.367 -0.552,-0.811 -0.552,-1.33 0,-0.52 0.202,-1.017 0.605,-1.489 0.189,-0.225 0.285,-0.402 0.285,-0.532 0,-0.342 -0.231,-0.676 -0.694,-1.001 -0.462,-0.325 -1.091,-0.487 -1.885,-0.487 -1.447,0 -2.543,0.527 -3.291,1.581 -1.067,1.528 -1.601,3.541 -1.601,6.041 0,2.379 0.474,4.184 1.423,5.408 0.949,1.227 2.158,1.84 3.628,1.84 2.029,0 3.535,-1.306 4.52,-3.915 z" /><path
     style="fill:#ffffff"
     inkscape:connector-curvature="0"
     id="path3834"
     d="m 40.732,31.577 6.634,-0.196 v 14.336 c 0,0.391 0.095,0.67 0.285,0.836 0.273,0.236 0.617,0.355 1.032,0.355 h 1.885 v 1.334 h -9.48 v -1.334 h 1.761 c 0.522,0 0.904,-0.127 1.147,-0.383 0.243,-0.254 0.365,-0.625 0.365,-1.111 V 34.92 c 0,-0.664 -0.19,-1.165 -0.569,-1.503 -0.379,-0.338 -0.943,-0.507 -1.689,-0.507 h -1.37 v -1.333 z m 4.624,-9.943 c 0.534,0 1.002,0.202 1.405,0.604 0.403,0.403 0.604,0.878 0.604,1.423 0,0.534 -0.195,0.996 -0.587,1.388 -0.391,0.391 -0.86,0.587 -1.405,0.587 -0.545,0 -1.017,-0.199 -1.414,-0.596 -0.397,-0.397 -0.596,-0.862 -0.596,-1.396 0,-0.534 0.201,-1.002 0.604,-1.405 0.405,-0.403 0.868,-0.605 1.389,-0.605 z" /><path
     style="fill:#ffffff"
     inkscape:connector-curvature="0"
     id="path3836"
     d="M 68.158,40.025 H 56.224 c 0.059,2.537 0.534,4.328 1.423,5.371 1.02,1.174 2.318,1.76 3.895,1.76 2.324,0 4.191,-1.322 5.603,-3.965 l 1.156,0.498 c -1.731,3.367 -4.233,5.051 -7.506,5.051 -2.229,0 -4.105,-0.807 -5.629,-2.42 -1.524,-1.611 -2.286,-3.676 -2.286,-6.189 0,-2.703 0.75,-4.888 2.25,-6.554 1.5,-1.666 3.346,-2.499 5.54,-2.499 1.612,0 3.006,0.415 4.18,1.245 1.174,0.83 2.057,2.022 2.65,3.575 0.415,1.091 0.634,2.467 0.658,4.127 z M 56.224,38.762 h 7.221 c 0.427,0 0.758,-0.145 0.996,-0.436 0.238,-0.291 0.356,-0.785 0.356,-1.485 0,-1.304 -0.406,-2.413 -1.218,-3.326 -0.812,-0.913 -1.77,-1.37 -2.873,-1.37 -1.233,0 -2.28,0.551 -3.139,1.654 -0.86,1.103 -1.308,2.758 -1.343,4.963 z" /><path
     style="fill:#ffffff"
     inkscape:connector-curvature="0"
     id="path3838"
     d="m 70.736,31.577 5.532,-0.338 c 0.225,1.043 0.391,2.265 0.498,3.664 0.747,-1.209 1.627,-2.117 2.641,-2.721 1.014,-0.604 2.161,-0.907 3.441,-0.907 1.103,0 2.028,0.217 2.774,0.649 0.747,0.433 1.346,1.118 1.796,2.054 0.451,0.937 0.676,1.986 0.676,3.147 v 8.111 c 0,0.604 0.136,1.035 0.409,1.289 0.273,0.256 0.729,0.383 1.37,0.383 h 1.174 v 1.334 h -8.786 v -1.334 h 0.836 c 0.783,0 1.328,-0.125 1.636,-0.373 0.308,-0.25 0.462,-0.623 0.462,-1.121 v -7.133 c 0,-1.553 -0.237,-2.703 -0.711,-3.45 -0.664,-1.067 -1.672,-1.601 -3.023,-1.601 -1.34,0 -2.458,0.54 -3.353,1.619 -0.896,1.079 -1.343,2.484 -1.343,4.215 v 6.172 c 0,0.604 0.139,1.035 0.418,1.289 0.278,0.256 0.738,0.383 1.378,0.383 h 1.156 v 1.334 h -8.822 v -1.334 h 1.156 c 0.581,0 1.022,-0.119 1.325,-0.355 0.302,-0.238 0.453,-0.535 0.453,-0.891 v -10.76 c 0,-0.711 -0.193,-1.251 -0.578,-1.619 -0.386,-0.367 -0.94,-0.551 -1.663,-0.551 h -0.854 v -1.155 z" /><path
     style="fill:#ffffff"
     inkscape:connector-curvature="0"
     id="path3840"
     d="m 97.38,24.782 h 1.191 v 6.794 h 5.389 v 1.636 h -5.389 v 10.689 c 0,0.924 0.219,1.633 0.658,2.125 0.438,0.492 0.996,0.738 1.672,0.738 0.806,0 1.494,-0.373 2.063,-1.121 0.569,-0.746 0.901,-1.98 0.996,-3.699 h 1.191 c -0.071,2.217 -0.575,3.863 -1.512,4.936 -0.937,1.074 -2.152,1.609 -3.646,1.609 -1.375,0 -2.452,-0.375 -3.228,-1.129 C 95.988,46.608 95.6,45.62 95.6,44.399 V 33.213 h -2.899 v -1.245 c 1.321,-0.225 2.327,-0.776 3.017,-1.654 1.025,-1.316 1.578,-3.16 1.662,-5.532 z" /><path
     style="fill:#ffffff"
     inkscape:connector-curvature="0"
     id="path3842"
     d="m 106.842,31.577 6.634,-0.196 v 14.336 c 0,0.391 0.095,0.67 0.285,0.836 0.273,0.236 0.617,0.355 1.032,0.355 h 1.885 v 1.334 h -9.48 v -1.334 h 1.761 c 0.522,0 0.904,-0.127 1.147,-0.383 0.243,-0.254 0.365,-0.625 0.365,-1.111 V 34.92 c 0,-0.664 -0.19,-1.165 -0.569,-1.503 -0.379,-0.338 -0.943,-0.507 -1.689,-0.507 h -1.37 v -1.333 z m 4.624,-9.943 c 0.534,0 1.002,0.202 1.405,0.604 0.403,0.403 0.604,0.878 0.604,1.423 0,0.534 -0.195,0.996 -0.587,1.388 -0.391,0.391 -0.86,0.587 -1.405,0.587 -0.545,0 -1.017,-0.199 -1.414,-0.596 -0.397,-0.397 -0.596,-0.862 -0.596,-1.396 0,-0.534 0.201,-1.002 0.604,-1.405 0.404,-0.403 0.867,-0.605 1.389,-0.605 z" /><path
     style="fill:#ffffff"
     inkscape:connector-curvature="0"
     id="path3844"
     d="m 124.325,31.577 h 4.162 v 1.547 h -4.162 v 12.165 c 0,0.559 0.13,0.949 0.391,1.174 0.355,0.297 0.854,0.445 1.494,0.445 h 2.276 v 1.334 h -10.209 v -1.334 h 1.405 c 0.628,0 1.067,-0.107 1.316,-0.32 0.249,-0.213 0.374,-0.545 0.374,-0.996 V 33.124 h -2.881 v -1.547 h 2.881 v -1.263 c 0,-2.935 0.609,-5.174 1.829,-6.718 1.219,-1.544 2.728,-2.317 4.528,-2.317 1.337,0 2.382,0.327 3.134,0.979 0.751,0.652 1.127,1.506 1.127,2.561 0,0.688 -0.181,1.23 -0.542,1.627 -0.362,0.397 -0.821,0.596 -1.378,0.596 -0.498,0 -0.91,-0.16 -1.236,-0.48 -0.326,-0.32 -0.489,-0.723 -0.489,-1.209 0,-0.557 0.213,-1.014 0.64,-1.37 0.344,-0.285 0.516,-0.498 0.516,-0.64 0,-0.202 -0.133,-0.385 -0.398,-0.551 -0.266,-0.166 -0.665,-0.249 -1.197,-0.249 -1.004,0 -1.853,0.447 -2.543,1.343 -0.691,0.895 -1.037,2.226 -1.037,3.993 v 3.698 z" /><path
     style="fill:#ffffff"
     inkscape:connector-curvature="0"
     id="path3846"
     d="m 130.443,31.577 6.634,-0.196 v 14.336 c 0,0.391 0.095,0.67 0.285,0.836 0.273,0.236 0.617,0.355 1.032,0.355 h 1.885 v 1.334 h -9.48 v -1.334 h 1.761 c 0.522,0 0.904,-0.127 1.147,-0.383 0.243,-0.254 0.365,-0.625 0.365,-1.111 V 34.92 c 0,-0.664 -0.19,-1.165 -0.569,-1.503 -0.379,-0.338 -0.943,-0.507 -1.689,-0.507 h -1.37 v -1.333 z m 4.624,-9.943 c 0.534,0 1.002,0.202 1.405,0.604 0.403,0.403 0.604,0.878 0.604,1.423 0,0.534 -0.195,0.996 -0.587,1.388 -0.391,0.391 -0.86,0.587 -1.405,0.587 -0.545,0 -1.017,-0.199 -1.414,-0.596 -0.397,-0.397 -0.596,-0.862 -0.596,-1.396 0,-0.534 0.201,-1.002 0.604,-1.405 0.405,-0.403 0.868,-0.605 1.389,-0.605 z" /><path
     style="fill:#ffffff"
     inkscape:connector-curvature="0"
     id="path3848"
     d="m 154.97,43.297 1.156,0.338 c -0.925,3.404 -2.964,5.105 -6.119,5.105 -2.312,0 -4.204,-0.766 -5.673,-2.295 -1.471,-1.529 -2.206,-3.562 -2.206,-6.1 0,-2.941 0.806,-5.221 2.419,-6.839 1.612,-1.619 3.509,-2.428 5.691,-2.428 1.636,0 2.988,0.451 4.055,1.352 1.067,0.901 1.601,1.903 1.601,3.006 0,0.664 -0.199,1.212 -0.596,1.645 -0.397,0.433 -0.869,0.649 -1.414,0.649 -0.534,0 -0.984,-0.184 -1.352,-0.549 -0.368,-0.367 -0.552,-0.811 -0.552,-1.33 0,-0.52 0.202,-1.017 0.605,-1.489 0.189,-0.225 0.285,-0.402 0.285,-0.532 0,-0.342 -0.231,-0.676 -0.694,-1.001 -0.462,-0.325 -1.091,-0.487 -1.885,-0.487 -1.447,0 -2.543,0.527 -3.291,1.581 -1.067,1.528 -1.601,3.541 -1.601,6.041 0,2.379 0.474,4.184 1.423,5.408 0.949,1.227 2.158,1.84 3.628,1.84 2.029,0 3.535,-1.306 4.52,-3.915 z" /><path
     style="fill:#ffffff"
     inkscape:connector-curvature="0"
     id="path3850"
     d="m 169.554,31.577 4.767,-0.303 c 0.261,1.24 0.433,2.42 0.516,3.541 0.903,-1.298 1.805,-2.213 2.708,-2.744 0.902,-0.531 1.894,-0.797 2.975,-0.797 1.152,0 2.102,0.301 2.85,0.904 0.749,0.603 1.324,1.583 1.728,2.94 0.793,-1.288 1.675,-2.25 2.646,-2.888 0.971,-0.637 2.03,-0.957 3.179,-0.957 1.515,0 2.652,0.451 3.41,1.352 0.971,1.186 1.456,2.715 1.456,4.589 v 8.27 c 0,0.498 0.125,0.836 0.374,1.014 0.332,0.273 0.824,0.41 1.477,0.41 h 0.836 v 1.334 h -8.377 v -1.334 h 0.836 c 0.711,0 1.209,-0.119 1.494,-0.355 0.285,-0.238 0.427,-0.594 0.427,-1.07 v -8.281 c 0,-1.234 -0.302,-2.189 -0.905,-2.867 -0.603,-0.677 -1.396,-1.015 -2.377,-1.015 -0.745,0 -1.419,0.199 -2.022,0.597 -0.604,0.398 -1.077,0.965 -1.42,1.701 -0.508,1.057 -0.763,1.953 -0.763,2.689 v 7.176 c 0,0.488 0.13,0.848 0.392,1.078 0.26,0.232 0.664,0.348 1.209,0.348 h 1.139 v 1.334 h -8.502 v -1.334 h 0.96 c 0.605,0 1.055,-0.119 1.352,-0.355 0.296,-0.238 0.444,-0.541 0.444,-0.908 v -7.684 c 0,-1.623 -0.288,-2.803 -0.862,-3.539 -0.575,-0.735 -1.349,-1.103 -2.321,-1.103 -1.257,0 -2.223,0.427 -2.899,1.281 -0.96,1.209 -1.441,2.621 -1.441,4.234 v 6.65 c 0,0.51 0.113,0.861 0.338,1.051 0.32,0.248 0.818,0.373 1.494,0.373 h 0.854 v 1.334 h -8.395 v -1.334 h 1.263 c 0.474,0 0.839,-0.119 1.094,-0.355 0.255,-0.238 0.382,-0.541 0.382,-0.908 v -10.92 c 0,-0.605 -0.154,-1.055 -0.462,-1.352 -0.308,-0.296 -0.925,-0.486 -1.85,-0.569 v -1.228 z" /><path
     style="fill:#ffffff"
     inkscape:connector-curvature="0"
     id="path3852"
     d="M 216.544,40.025 H 204.61 c 0.059,2.537 0.534,4.328 1.423,5.371 1.02,1.174 2.318,1.76 3.895,1.76 2.324,0 4.191,-1.322 5.603,-3.965 l 1.156,0.498 c -1.731,3.367 -4.233,5.051 -7.506,5.051 -2.229,0 -4.105,-0.807 -5.629,-2.42 -1.524,-1.611 -2.286,-3.676 -2.286,-6.189 0,-2.703 0.75,-4.888 2.25,-6.554 1.5,-1.666 3.346,-2.499 5.54,-2.499 1.612,0 3.006,0.415 4.18,1.245 1.174,0.83 2.057,2.022 2.65,3.575 0.415,1.091 0.634,2.467 0.658,4.127 z M 204.61,38.762 h 7.221 c 0.427,0 0.758,-0.145 0.996,-0.436 0.238,-0.291 0.356,-0.785 0.356,-1.485 0,-1.304 -0.406,-2.413 -1.218,-3.326 -0.812,-0.913 -1.77,-1.37 -2.873,-1.37 -1.233,0 -2.28,0.551 -3.139,1.654 -0.86,1.103 -1.307,2.758 -1.343,4.963 z" /><path
     style="fill:#ffffff"
     inkscape:connector-curvature="0"
     id="path3854"
     d="m 223.517,24.782 h 1.191 v 6.794 h 5.389 v 1.636 h -5.389 v 10.689 c 0,0.924 0.219,1.633 0.658,2.125 0.438,0.492 0.996,0.738 1.672,0.738 0.806,0 1.494,-0.373 2.063,-1.121 0.569,-0.746 0.901,-1.98 0.996,-3.699 h 1.191 c -0.071,2.217 -0.575,3.863 -1.512,4.936 -0.937,1.074 -2.152,1.609 -3.646,1.609 -1.375,0 -2.452,-0.375 -3.228,-1.129 -0.777,-0.752 -1.165,-1.74 -1.165,-2.961 V 33.213 h -2.899 v -1.245 c 1.321,-0.225 2.327,-0.776 3.017,-1.654 1.024,-1.316 1.578,-3.16 1.662,-5.532 z" /><path
     style="fill:#ffffff"
     inkscape:connector-curvature="0"
     id="path3856"
     d="m 232.871,21.937 6.314,-0.302 v 12.841 c 0.877,-1.138 1.82,-1.989 2.828,-2.552 1.008,-0.563 2.075,-0.845 3.201,-0.845 1.067,0 2.028,0.255 2.881,0.765 0.664,0.403 1.23,1.109 1.698,2.117 0.469,1.008 0.703,2.199 0.703,3.575 v 7.914 c 0,0.51 0.13,0.881 0.392,1.111 0.26,0.232 0.669,0.348 1.227,0.348 h 1.423 v 1.334 h -9 v -1.334 h 0.996 c 0.759,0 1.283,-0.121 1.574,-0.365 0.29,-0.242 0.436,-0.607 0.436,-1.094 v -7.914 c 0,-1.388 -0.335,-2.47 -1.005,-3.247 -0.67,-0.776 -1.527,-1.165 -2.57,-1.165 -0.818,0 -1.577,0.219 -2.277,0.658 -0.7,0.439 -1.292,1.106 -1.778,2.001 -0.486,0.895 -0.729,1.84 -0.729,2.836 v 6.652 c 0,0.594 0.125,1.014 0.374,1.264 0.249,0.248 0.658,0.373 1.227,0.373 h 1.423 v 1.334 h -8.804 v -1.334 h 0.996 c 0.676,0 1.156,-0.135 1.44,-0.4 0.285,-0.268 0.427,-0.68 0.427,-1.236 V 25.387 c 0,-0.711 -0.187,-1.242 -0.56,-1.592 -0.373,-0.35 -0.916,-0.525 -1.627,-0.525 h -1.209 v -1.333 z" /><path
     style="fill:#ffffff"
     inkscape:connector-curvature="0"
     id="path3858"
     d="m 285.232,21.937 6.51,-0.302 v 22.801 c 0,0.889 0.169,1.523 0.507,1.902 0.338,0.381 0.845,0.57 1.521,0.57 h 1.156 v 1.334 h -5.691 l -0.427,-3.398 c -0.676,1.211 -1.468,2.121 -2.375,2.73 -0.906,0.611 -1.924,0.916 -3.05,0.916 -1.897,0 -3.513,-0.793 -4.847,-2.383 -1.334,-1.588 -2.001,-3.688 -2.001,-6.297 0,-2.821 0.854,-5.074 2.562,-6.758 1.34,-1.316 2.881,-1.974 4.624,-1.974 1.067,0 2.024,0.267 2.872,0.8 0.848,0.533 1.586,1.34 2.215,2.419 v -9.409 c 0,-0.498 -0.193,-0.892 -0.578,-1.183 -0.386,-0.29 -0.987,-0.436 -1.806,-0.436 h -1.191 v -1.332 z m -1.031,10.618 c -1.281,0 -2.298,0.528 -3.051,1.583 -0.753,1.055 -1.129,2.834 -1.129,5.335 0,2.717 0.385,4.629 1.156,5.736 0.771,1.109 1.761,1.664 2.97,1.664 1.292,0 2.398,-0.621 3.317,-1.859 0.919,-1.238 1.378,-3.051 1.378,-5.434 0,-2.253 -0.492,-4.025 -1.476,-5.318 -0.853,-1.138 -1.908,-1.707 -3.165,-1.707 z" /></g>
</svg>