<?xml version="1.0" encoding="utf-8"?>
<!-- Generator: Adobe Illustrator 19.1.0, SVG Export Plug-In . SVG Version: 6.00 Build 0)  -->
<svg version="1.1"
	 id="svg3225" xmlns:sodipodi="http://sodipodi.sourceforge.net/DTD/sodipodi-0.dtd" xmlns:svg="http://www.w3.org/2000/svg" xmlns:inkscape="http://www.inkscape.org/namespaces/inkscape" xmlns:rdf="http://www.w3.org/1999/02/22-rdf-syntax-ns#" xmlns:dc="http://purl.org/dc/elements/1.1/" xmlns:cc="http://creativecommons.org/ns#" inkscape:version="0.48.3.1 r9886" sodipodi:docname="CNX_BioMaj_Evolution.svg"
	 xmlns="http://www.w3.org/2000/svg" xmlns:xlink="http://www.w3.org/1999/xlink" x="0px" y="0px" viewBox="-89 377.9 350.6 48.1"
	 style="enable-background:new -89 377.9 350.6 48.1;" xml:space="preserve">
<style type="text/css">
	.st0{fill:#010101;}
	.st1{fill:#517542;}
	.st2{fill:#75B152;}
	.st3{fill:#FFFFFF;}
</style>
<sodipodi:namedview  showgrid="false" borderopacity="1" pagecolor="#ffffff" guidetolerance="10" inkscape:cy="32" gridtolerance="10" bordercolor="#666666" showguides="true" inkscape:cx="216.5" id="namedview3273" inkscape:zoom="1.3289991" objecttolerance="10" inkscape:guide-bbox="true" inkscape:window-x="1425" inkscape:pageopacity="0" inkscape:window-y="24" inkscape:window-maximized="1" inkscape:current-layer="svg3225" inkscape:pageshadow="2" inkscape:window-width="1615" inkscape:window-height="1026">
	<sodipodi:guide  position="350.63982,132.43049" id="guide3301" orientation="1,0"></sodipodi:guide>
</sodipodi:namedview>
<g id="g3277" transform="matrix(0.81054049,0,0,0.81054049,0,12.937854)">
	<rect id="rect3229" x="-109.8" y="464.7" class="st0" width="193.6" height="45"/>
	<rect id="rect3231" x="83.8" y="464.7" class="st1" width="239" height="45"/>
	<path id="path3233" inkscape:connector-curvature="0" class="st2" d="M-78.8,501.7c0,0,6-19.6-2.6-51.4
		C-65.9,478.5-75.7,495.6-78.8,501.7z"/>
	<path id="path3235" inkscape:connector-curvature="0" class="st1" d="M-71,482.8c0,0,0.7-24.4,11.7-28.1
		C-65.7,465.1-67.4,470.7-71,482.8z"/>
	<path id="path3237" inkscape:connector-curvature="0" class="st3" d="M-83.3,491.4h-14.9c0.1,3.2,0.7,5.4,1.8,6.7
		c1.3,1.5,2.9,2.2,4.9,2.2c2.9,0,5.2-1.6,7-4.9l1.4,0.6c-2.2,4.2-5.3,6.3-9.4,6.3c-2.8,0-5.1-1-7-3s-2.8-4.6-2.8-7.7
		c0-3.4,0.9-6.1,2.8-8.2s4.2-3.1,6.9-3.1c2,0,3.7,0.5,5.2,1.6c1.5,1,2.6,2.5,3.3,4.5C-83.6,487.6-83.3,489.4-83.3,491.4z
		 M-98.2,489.9h9c0.5,0,0.9-0.2,1.2-0.5c0.3-0.4,0.4-1,0.4-1.9c0-1.6-0.5-3-1.5-4.1s-2.2-1.7-3.6-1.7c-1.5,0-2.8,0.7-3.9,2.1
		C-97.6,485-98.1,487.1-98.2,489.9z"/>
	<path id="path3239" inkscape:connector-curvature="0" class="st3" d="M-57.5,480.3c2.8,0,5.1,1,7,3c1.9,2,2.8,4.7,2.8,8
		c0,2.3-0.4,4.2-1.3,5.8c-0.9,1.6-2.1,2.9-3.6,3.8s-3.2,1.4-5,1.4c-2.7,0-5-1-6.8-3.1c-1.9-2-2.8-4.7-2.8-7.9c0-3.3,0.9-5.9,2.8-8
		C-62.5,481.3-60.2,480.3-57.5,480.3z M-57.5,481.9c-1.7,0-3,0.8-4.1,2.2c-1.1,1.5-1.6,3.9-1.6,7.1c0,3.3,0.5,5.7,1.6,7.2
		s2.4,2.3,4.1,2.3c1.7,0,3.1-0.8,4.2-2.3c1.1-1.5,1.6-4,1.6-7.5c0-3.2-0.5-5.5-1.6-7C-54.3,482.6-55.7,481.9-57.5,481.9z"/>
	<path id="path3241" inkscape:connector-curvature="0" class="st3" d="M-36.7,468.5v30.1c0,0.4,0.1,0.7,0.4,1
		c0.4,0.3,0.8,0.4,1.4,0.4h2.1v1.7h-11.8V500h2.1c0.7,0,1.2-0.2,1.5-0.5s0.5-0.8,0.5-1.4v-25.2c0-0.7-0.2-1.3-0.6-1.6
		c-0.5-0.5-1.2-0.7-2-0.7H-45v-1.7C-45,468.9-36.7,468.5-36.7,468.5z"/>
	<path id="path3243" inkscape:connector-curvature="0" class="st3" d="M-23.2,480.5v13.8c0,1.7,0.4,3,1.3,3.9
		c0.8,0.9,1.9,1.4,3.3,1.4c1.7,0,3.1-0.7,4.2-2c1.2-1.3,1.7-3,1.7-5v-7.8c0-0.7-0.3-1.3-0.8-1.7c-0.5-0.4-1.5-0.6-2.9-0.7v-1.6
		l7.3-0.4v17c0,0.8,0.2,1.4,0.7,1.8c0.4,0.4,1.1,0.6,1.9,0.6h1.3v1.5l-7,0.2l-0.4-4.1c-1.2,1.5-2.5,2.6-3.7,3.3
		c-1.2,0.7-2.5,1.1-3.8,1.1c-1.9,0-3.4-0.6-4.7-1.9c-1.3-1.2-1.9-3.3-1.9-6.3v-9c0-0.8-0.3-1.4-1-1.8c-0.4-0.3-1.4-0.5-2.7-0.5v-1.6
		C-30.4,480.7-23.2,480.5-23.2,480.5z"/>
	<path id="path3245" inkscape:connector-curvature="0" class="st3" d="M2.9,472.4h1.5v8.5h6.7v2H4.4v13.4c0,1.2,0.3,2,0.8,2.6
		s1.2,0.9,2.1,0.9c1,0,1.9-0.5,2.6-1.4c0.7-0.9,1.1-2.5,1.2-4.6h1.5c-0.1,2.8-0.7,4.8-1.9,6.1c-1.2,1.3-2.7,2-4.5,2
		c-1.7,0-3.1-0.5-4-1.4c-1-0.9-1.5-2.2-1.5-3.7v-13.9h-3.6v-1.6c1.6-0.3,2.9-1,3.8-2.1C2.1,477.7,2.8,475.4,2.9,472.4z"/>
	<path id="path3247" inkscape:connector-curvature="0" class="st3" d="M14.7,480.9l8.3-0.2v17.9c0,0.5,0.1,0.8,0.4,1
		c0.3,0.3,0.8,0.4,1.3,0.4H27v1.7H15.2V500h2.2c0.6,0,1.1-0.2,1.4-0.5c0.3-0.3,0.5-0.8,0.5-1.4v-13c0-0.8-0.2-1.5-0.7-1.9
		s-1.2-0.6-2.1-0.6h-1.7L14.7,480.9L14.7,480.9z M20.5,468.5c0.7,0,1.2,0.3,1.8,0.8c0.5,0.5,0.8,1.1,0.8,1.8c0,0.7-0.2,1.2-0.7,1.7
		c-0.5,0.5-1.1,0.7-1.8,0.7s-1.3-0.2-1.8-0.7s-0.7-1.1-0.7-1.7c0-0.7,0.3-1.2,0.8-1.8C19.4,468.7,19.8,468.5,20.5,468.5L20.5,468.5z
		"/>
	<path id="path3249" inkscape:connector-curvature="0" class="st3" d="M39.2,480.3c2.8,0,5.1,1,7,3s2.8,4.7,2.8,8
		c0,2.3-0.4,4.2-1.3,5.8c-0.9,1.6-2.1,2.9-3.6,3.8c-1.6,0.9-3.3,1.4-5.1,1.4c-2.7,0-5-1-6.8-3.1c-1.9-2-2.8-4.7-2.8-7.9
		c0-3.3,0.9-5.9,2.8-8C34.2,481.3,36.5,480.3,39.2,480.3L39.2,480.3z M39.2,481.9c-1.7,0-3,0.8-4.1,2.2c-1.1,1.5-1.6,3.9-1.6,7.1
		c0,3.3,0.5,5.7,1.6,7.2s2.4,2.3,4.1,2.3c1.7,0,3.1-0.8,4.2-2.3c1.1-1.5,1.6-4,1.6-7.5c0-3.2-0.5-5.5-1.6-7
		C42.4,482.6,41,481.9,39.2,481.9z"/>
	<path id="path3251" inkscape:connector-curvature="0" class="st3" d="M52.1,480.9l6.9-0.4c0.3,1.3,0.5,2.8,0.6,4.6
		c0.9-1.5,2-2.6,3.3-3.4c1.3-0.8,2.7-1.1,4.3-1.1c1.4,0,2.5,0.3,3.5,0.8c0.9,0.5,1.7,1.4,2.2,2.6c0.6,1.2,0.8,2.5,0.8,3.9V498
		c0,0.8,0.2,1.3,0.5,1.6c0.3,0.3,0.9,0.5,1.7,0.5h1.5v1.7H66.5v-1.7h1c1,0,1.7-0.2,2-0.5c0.4-0.3,0.6-0.8,0.6-1.4v-8.9
		c0-1.9-0.3-3.4-0.9-4.3c-0.8-1.3-2.1-2-3.8-2c-1.7,0-3.1,0.7-4.2,2c-1.1,1.3-1.7,3.1-1.7,5.3v7.7c0,0.8,0.2,1.3,0.5,1.6
		c0.3,0.3,0.9,0.5,1.7,0.5h1.4v1.7h-11v-1.7h1.4c0.7,0,1.3-0.1,1.7-0.4c0.4-0.3,0.6-0.7,0.6-1.1V485c0-0.9-0.2-1.6-0.7-2
		c-0.5-0.5-1.2-0.7-2.1-0.7h-1.1v-1.4H52.1z"/>
	<path id="path3253" inkscape:connector-curvature="0" class="st3" d="M110.8,483.1l-1.8,1.4c-1-1.3-2.2-2.3-3.6-2.9
		c-1.4-0.6-2.9-1-4.6-1c-1.8,0-3.5,0.4-5.1,1.3s-2.8,2-3.6,3.5s-1.3,3.1-1.3,5c0,2.8,1,5.1,2.9,7s4.3,2.8,7.2,2.8
		c3.2,0,5.9-1.3,8-3.8l1.8,1.4c-1.1,1.4-2.6,2.6-4.3,3.4c-1.7,0.8-3.6,1.2-5.7,1.2c-4,0-7.1-1.3-9.4-4c-1.9-2.2-2.9-5-2.9-8.1
		c0-3.3,1.2-6.2,3.5-8.4c2.3-2.3,5.3-3.4,8.8-3.4c2.1,0,4.1,0.4,5.8,1.3C108.3,480.4,109.7,481.6,110.8,483.1L110.8,483.1z"/>
	<path id="path3255" inkscape:connector-curvature="0" class="st3" d="M127.8,478.3c3.5,0,6.3,1.2,8.7,3.5c2.3,2.3,3.5,5.1,3.5,8.5
		c0,3.3-1.2,6.2-3.5,8.5c-2.3,2.3-5.2,3.5-8.5,3.5c-3.4,0-6.2-1.2-8.6-3.5c-2.3-2.3-3.5-5.1-3.5-8.4c0-2.2,0.5-4.2,1.6-6.1
		s2.5-3.3,4.3-4.4C123.7,478.8,125.7,478.3,127.8,478.3z M127.9,480.5c-1.7,0-3.3,0.4-4.8,1.3s-2.7,2.1-3.5,3.6s-1.3,3.2-1.3,5
		c0,2.7,0.9,5,2.8,6.9c1.9,1.9,4.1,2.8,6.8,2.8c1.8,0,3.4-0.4,4.9-1.3s2.7-2,3.5-3.5s1.3-3.1,1.3-5c0-1.8-0.4-3.4-1.3-4.9
		c-0.8-1.5-2-2.6-3.6-3.5C131.3,480.9,129.6,480.5,127.9,480.5L127.9,480.5z"/>
	<path id="path3257" inkscape:connector-curvature="0" class="st3" d="M146.2,501.7v-22.9h0.5l15.2,17.5v-17.5h2.2v22.8h-0.5
		l-15.1-17.3v17.3h-2.3V501.7z"/>
	<path id="path3259" inkscape:connector-curvature="0" class="st3" d="M171.3,501.7v-22.9h0.5l15.1,17.5v-17.5h2.2v22.8h-0.5
		l-15.1-17.3v17.3h-2.2L171.3,501.7z"/>
	<path id="path3261" inkscape:connector-curvature="0" class="st3" d="M196.4,478.8h13.1v2.2h-10.8v7.2h10.7v2.2h-10.7v9h10.7v2.2
		h-13L196.4,478.8L196.4,478.8z"/>
	<path id="path3263" inkscape:connector-curvature="0" class="st3" d="M236.2,483.1l-1.8,1.4c-1-1.3-2.2-2.3-3.6-2.9
		c-1.4-0.6-2.9-1-4.6-1c-1.8,0-3.5,0.4-5.1,1.3c-1.6,0.9-2.8,2-3.6,3.5c-0.8,1.5-1.3,3.1-1.3,5c0,2.8,1,5.1,2.9,7
		c1.9,1.9,4.3,2.8,7.2,2.8c3.2,0,5.9-1.3,8-3.8l1.8,1.4c-1.1,1.4-2.6,2.6-4.3,3.4c-1.7,0.8-3.6,1.2-5.7,1.2c-4,0-7.1-1.3-9.4-4
		c-1.9-2.2-2.9-5-2.9-8.1c0-3.3,1.2-6.2,3.5-8.4c2.3-2.3,5.3-3.4,8.8-3.4c2.1,0,4.1,0.4,5.8,1.3
		C233.7,480.4,235.1,481.6,236.2,483.1L236.2,483.1z"/>
	<path id="path3265" inkscape:connector-curvature="0" class="st3" d="M240.1,481.1v-2.2h12.5v2.2h-5.1v20.6h-2.3v-20.6H240.1z"/>
	<path id="path3267" inkscape:connector-curvature="0" class="st3" d="M257.2,478.8h2.3v22.8h-2.3V478.8z"/>
	<path id="path3269" inkscape:connector-curvature="0" class="st3" d="M277.1,478.3c3.5,0,6.3,1.2,8.7,3.5c2.3,2.3,3.5,5.1,3.5,8.5
		c0,3.3-1.2,6.2-3.5,8.5c-2.3,2.3-5.2,3.5-8.5,3.5c-3.4,0-6.2-1.2-8.6-3.5c-2.3-2.3-3.5-5.1-3.5-8.4c0-2.2,0.5-4.2,1.6-6.1
		s2.5-3.3,4.3-4.4C273,478.8,275,478.3,277.1,478.3z M277.2,480.5c-1.7,0-3.3,0.4-4.8,1.3s-2.7,2.1-3.5,3.6s-1.3,3.2-1.3,5
		c0,2.7,0.9,5,2.8,6.9c1.9,1.9,4.1,2.8,6.8,2.8c1.8,0,3.4-0.4,4.9-1.3s2.7-2,3.5-3.5s1.3-3.1,1.3-5c0-1.8-0.4-3.4-1.3-4.9
		c-0.8-1.5-2-2.6-3.6-3.5S279,480.5,277.2,480.5z"/>
	<path id="path3271" inkscape:connector-curvature="0" class="st3" d="M295.5,501.7v-22.9h0.5l15.2,17.5v-17.5h2.2v22.8h-0.5
		l-15.1-17.3v17.3h-2.3L295.5,501.7z"/>
</g>
</svg>
