<?xml version="1.0" encoding="UTF-8" standalone="no"?>
<!-- Generator: Adobe Illustrator 14.0.0, SVG Export Plug-In  -->

<svg
   xmlns:dc="http://purl.org/dc/elements/1.1/"
   xmlns:cc="http://creativecommons.org/ns#"
   xmlns:rdf="http://www.w3.org/1999/02/22-rdf-syntax-ns#"
   xmlns:svg="http://www.w3.org/2000/svg"
   xmlns="http://www.w3.org/2000/svg"
   xmlns:sodipodi="http://sodipodi.sourceforge.net/DTD/sodipodi-0.dtd"
   xmlns:inkscape="http://www.inkscape.org/namespaces/inkscape"
   version="1.1"
   x="0px"
   y="0px"
   width="540"
   height="67.5"
   viewBox="0 -0.5 540 67.499999"
   enable-background="new 0 -0.5 495 65"
   xml:space="preserve"
   id="svg3092"
   inkscape:version="0.48.3.1 r9886"
   sodipodi:docname="CNX_BioMaj_Career.svg"><metadata
   id="metadata3134"><rdf:RDF><cc:Work
       rdf:about=""><dc:format>image/svg+xml</dc:format><dc:type
         rdf:resource="http://purl.org/dc/dcmitype/StillImage" /></cc:Work></rdf:RDF></metadata><sodipodi:namedview
   pagecolor="#ffffff"
   bordercolor="#666666"
   borderopacity="1"
   objecttolerance="10"
   gridtolerance="10"
   guidetolerance="10"
   inkscape:pageopacity="0"
   inkscape:pageshadow="2"
   inkscape:window-width="1366"
   inkscape:window-height="744"
   id="namedview3132"
   showgrid="false"
   units="in"
   inkscape:zoom="2.4262626"
   inkscape:cx="324.13243"
   inkscape:cy="29.64"
   inkscape:window-x="0"
   inkscape:window-y="24"
   inkscape:window-maximized="1"
   inkscape:current-layer="svg3092" />
<defs
   id="defs3094">
</defs>

















<g
   id="g3569"
   transform="matrix(0.80385342,0,0,0.80385342,0,15.12006)"><rect
     id="rect3096"
     height="53.457001"
     width="189.28799"
     y="10.883"
     x="0"
     style="fill:#010101" /><path
     id="path3098"
     d="m 37.192,42.085 1.818,0.531 c -1.455,5.352 -4.661,8.026 -9.621,8.026 -3.635,0 -6.609,-1.203 -8.921,-3.607 C 18.156,44.63 17,41.432 17,37.442 c 0,-4.624 1.268,-8.208 3.803,-10.753 2.535,-2.545 5.519,-3.817 8.949,-3.817 2.573,0 4.698,0.709 6.376,2.125 1.678,1.417 2.517,2.992 2.517,4.726 0,1.044 -0.312,1.907 -0.937,2.587 -0.625,0.681 -1.366,1.021 -2.223,1.021 -0.839,0 -1.548,-0.288 -2.125,-0.864 -0.578,-0.576 -0.867,-1.273 -0.867,-2.091 0,-0.817 0.317,-1.597 0.951,-2.341 0.298,-0.353 0.447,-0.632 0.447,-0.836 0,-0.539 -0.363,-1.064 -1.09,-1.575 -0.727,-0.511 -1.716,-0.766 -2.964,-0.766 -2.275,0 -4,0.829 -5.174,2.486 -1.678,2.402 -2.517,5.568 -2.517,9.497 0,3.743 0.746,6.578 2.237,8.506 1.492,1.927 3.393,2.891 5.705,2.891 3.189,-10e-4 5.557,-2.051 7.104,-6.153 z"
     inkscape:connector-curvature="0"
     style="fill:#ffffff" /><path
     id="path3100"
     d="m 70.276,46.979 1.007,1.566 c -1.361,1.398 -2.872,2.098 -4.531,2.098 -1.268,0 -2.335,-0.346 -3.202,-1.035 -0.867,-0.689 -1.627,-1.901 -2.279,-3.636 -1.771,1.865 -3.328,3.109 -4.67,3.733 -1.342,0.625 -2.955,0.938 -4.838,0.938 -2.685,0 -4.726,-0.578 -6.125,-1.734 -1.398,-1.155 -2.097,-2.638 -2.097,-4.446 0,-2.722 1.598,-4.982 4.796,-6.782 3.197,-1.799 7.453,-2.996 12.767,-3.594 v -3.971 c 0,-1.417 -0.569,-2.629 -1.706,-3.635 -1.137,-1.007 -2.583,-1.51 -4.334,-1.51 -1.622,0 -3.021,0.335 -4.195,1.007 -0.839,0.503 -1.259,0.998 -1.259,1.482 0,0.28 0.224,0.718 0.671,1.314 0.541,0.746 0.811,1.408 0.811,1.986 0,0.839 -0.271,1.524 -0.811,2.055 -0.541,0.531 -1.25,0.797 -2.125,0.797 -0.933,0 -1.711,-0.317 -2.335,-0.951 -0.625,-0.633 -0.937,-1.444 -0.937,-2.433 0,-1.846 1.039,-3.533 3.118,-5.062 2.079,-1.529 4.805,-2.293 8.18,-2.293 3.113,0 5.49,0.671 7.131,2.014 1.64,1.361 2.461,3.011 2.461,4.95 v 14.318 c 0,1.269 0.205,2.2 0.615,2.797 0.41,0.615 0.941,0.923 1.594,0.923 0.727,-10e-4 1.491,-0.299 2.293,-0.896 z M 61.103,35.933 c -4.736,0.652 -8.092,1.715 -10.068,3.188 -1.473,1.119 -2.209,2.704 -2.209,4.755 0,1.436 0.382,2.559 1.146,3.369 0.764,0.812 1.762,1.217 2.992,1.217 2.2,0 4.106,-0.834 5.719,-2.503 1.612,-1.668 2.419,-3.762 2.419,-6.278 v -3.748 z"
     inkscape:connector-curvature="0"
     style="fill:#ffffff" /><path
     id="path3102"
     d="m 73.966,54.013 c 0,0 -0.294,-2.744 1.406,-3.661 1.7,-0.915 1.961,-1.046 3.269,-1.046 1.308,0 4.186,0 4.186,0 0,0 0.393,-1.047 0.916,-1.047 0.522,0 -16.348,-16.216 -16.348,-16.216 0,0 -0.262,0.784 -1.439,0.784 -1.176,0 -3.923,-1.046 -3.923,-4.186 0,-3.139 2.485,-3.924 4.054,-3.924 1.569,0 1.963,0.655 1.963,0.655 L 83.756,11.639 c 0,0 -0.665,-1.569 -1.582,-2.877 C 81.259,7.453 80.735,6.538 81.913,5.754 83.091,4.969 83.756,3.53 83.756,3.53 L 82.306,1.437 82.172,0 h 1.582 l 1.558,2.615 1.962,-1.178 c 0,0 1.176,-0.392 2.092,0.262 0.917,0.652 2.747,3.399 2.747,3.399 l -2.485,2.486 0.523,1.177 c 0,0 2.354,-1.702 4.055,-1.702 1.7,0 5.493,0.786 8.762,3.271 3.27,2.486 4.447,4.184 4.447,4.184 L 87.797,28.641 c 0,0 -2.224,-1.309 -3.075,-4.708 -0.85,-3.4 -1.242,-8.239 -0.719,-9.025 0.523,-0.783 -14.462,11.713 -14.462,11.713 0,0 0.286,0.582 -0.015,2.02 -0.302,1.438 -0.564,2.093 -0.564,2.093 l 17.395,16.348 c 0,0 1.569,0.786 2.092,1.439 0.524,0.654 1.439,1.044 1.439,1.044 l 4.969,-0.261 c 0,0 1.701,0.393 2.617,1.308 0.916,0.916 1.047,3.4 1.047,3.4 H 73.966 z"
     inkscape:connector-curvature="0"
     style="fill:#8190a7" /><rect
     id="rect3104"
     height="53.457001"
     width="304.828"
     y="10.883"
     x="189.28799"
     style="fill:#005273" /><path
     id="path3106"
     d="m 222.81,26.878 -2.271,1.742 c -1.253,-1.631 -2.757,-2.868 -4.512,-3.71 -1.755,-0.842 -3.684,-1.263 -5.785,-1.263 -2.297,0 -4.424,0.552 -6.382,1.654 -1.958,1.103 -3.475,2.584 -4.552,4.444 -1.077,1.86 -1.615,3.952 -1.615,6.274 0,3.511 1.204,6.44 3.612,8.79 2.408,2.35 5.445,3.523 9.113,3.523 4.033,0 7.406,-1.579 10.121,-4.737 l 2.271,1.723 c -1.436,1.827 -3.227,3.24 -5.374,4.238 -2.147,0.999 -4.545,1.498 -7.194,1.498 -5.038,0 -9.012,-1.677 -11.922,-5.031 -2.44,-2.832 -3.661,-6.251 -3.661,-10.258 0,-4.215 1.478,-7.762 4.434,-10.64 2.956,-2.877 6.659,-4.316 11.109,-4.316 2.688,0 5.116,0.532 7.283,1.596 2.166,1.063 3.941,2.554 5.325,4.473 z"
     inkscape:connector-curvature="0"
     style="fill:#ffffff" /><path
     id="path3108"
     d="m 244.303,20.809 c 4.361,0 8.012,1.456 10.949,4.366 2.939,2.91 4.408,6.493 4.408,10.747 0,4.216 -1.467,7.791 -4.398,10.728 -2.931,2.937 -6.506,4.405 -10.724,4.405 -4.271,0 -7.875,-1.462 -10.813,-4.386 -2.938,-2.923 -4.408,-6.46 -4.408,-10.61 0,-2.766 0.669,-5.331 2.008,-7.693 1.339,-2.362 3.164,-4.212 5.475,-5.55 2.311,-1.338 4.812,-2.007 7.503,-2.007 z m 0.127,2.799 c -2.131,0 -4.151,0.555 -6.059,1.666 -1.909,1.11 -3.399,2.606 -4.471,4.486 -1.072,1.881 -1.608,3.977 -1.608,6.289 0,3.423 1.187,6.312 3.559,8.67 2.373,2.357 5.232,3.536 8.579,3.536 2.235,0 4.304,-0.542 6.205,-1.626 1.902,-1.084 3.387,-2.566 4.451,-4.447 1.066,-1.881 1.6,-3.971 1.6,-6.27 0,-2.286 -0.533,-4.353 -1.6,-6.201 -1.064,-1.848 -2.564,-3.327 -4.5,-4.438 -1.934,-1.109 -3.986,-1.665 -6.156,-1.665 z"
     inkscape:connector-curvature="0"
     style="fill:#ffffff" /><path
     id="path3110"
     d="M 267.459,50.33 V 21.534 h 0.627 l 19.165,22.074 V 21.534 h 2.839 V 50.33 h -0.646 L 270.435,28.524 V 50.33 h -2.976 z"
     inkscape:connector-curvature="0"
     style="fill:#ffffff" /><path
     id="path3112"
     d="M 299.122,50.33 V 21.534 h 0.627 l 19.165,22.074 V 21.534 h 2.839 V 50.33 h -0.646 L 302.098,28.524 V 50.33 h -2.976 z"
     inkscape:connector-curvature="0"
     style="fill:#ffffff" /><path
     id="path3114"
     d="m 330.784,21.534 h 16.503 v 2.819 h -13.625 v 9.024 h 13.508 v 2.819 H 333.662 V 47.51 h 13.508 v 2.819 H 330.784 V 21.534 z"
     inkscape:connector-curvature="0"
     style="fill:#ffffff" /><path
     id="path3116"
     d="m 381.083,26.878 -2.271,1.742 c -1.253,-1.631 -2.757,-2.868 -4.513,-3.71 -1.755,-0.842 -3.684,-1.263 -5.784,-1.263 -2.298,0 -4.425,0.552 -6.382,1.654 -1.958,1.103 -3.475,2.584 -4.552,4.444 -1.076,1.86 -1.615,3.952 -1.615,6.274 0,3.511 1.204,6.44 3.612,8.79 2.407,2.35 5.445,3.523 9.112,3.523 4.033,0 7.406,-1.579 10.121,-4.737 l 2.271,1.723 c -1.436,1.827 -3.227,3.24 -5.373,4.238 -2.147,0.999 -4.545,1.498 -7.194,1.498 -5.038,0 -9.012,-1.677 -11.922,-5.031 -2.44,-2.832 -3.661,-6.251 -3.661,-10.258 0,-4.215 1.479,-7.762 4.435,-10.64 2.955,-2.877 6.658,-4.316 11.109,-4.316 2.688,0 5.115,0.532 7.282,1.596 2.167,1.063 3.942,2.554 5.325,4.473 z"
     inkscape:connector-curvature="0"
     style="fill:#ffffff" /><path
     id="path3118"
     d="m 386.006,24.353 v -2.819 h 15.778 v 2.819 h -6.421 V 50.33 h -2.937 V 24.353 h -6.42 z"
     inkscape:connector-curvature="0"
     style="fill:#ffffff" /><path
     id="path3120"
     d="m 407.527,21.534 h 2.878 V 50.33 h -2.878 V 21.534 z"
     inkscape:connector-curvature="0"
     style="fill:#ffffff" /><path
     id="path3122"
     d="m 432.72,20.809 c 4.362,0 8.012,1.456 10.95,4.366 2.938,2.91 4.408,6.493 4.408,10.747 0,4.216 -1.467,7.791 -4.398,10.728 -2.931,2.937 -6.507,4.405 -10.725,4.405 -4.271,0 -7.875,-1.462 -10.813,-4.386 -2.938,-2.923 -4.407,-6.46 -4.407,-10.61 0,-2.766 0.67,-5.331 2.008,-7.693 1.339,-2.362 3.164,-4.212 5.476,-5.55 2.312,-1.338 4.81,-2.007 7.501,-2.007 z m 0.128,2.799 c -2.131,0 -4.15,0.555 -6.059,1.666 -1.909,1.11 -3.399,2.606 -4.471,4.486 -1.072,1.881 -1.608,3.977 -1.608,6.289 0,3.423 1.187,6.312 3.559,8.67 2.373,2.357 5.232,3.536 8.579,3.536 2.234,0 4.304,-0.542 6.205,-1.626 1.902,-1.084 3.386,-2.566 4.451,-4.447 1.065,-1.881 1.599,-3.971 1.599,-6.27 0,-2.286 -0.533,-4.353 -1.599,-6.201 -1.066,-1.848 -2.565,-3.327 -4.5,-4.438 -1.935,-1.111 -3.986,-1.665 -6.156,-1.665 z"
     inkscape:connector-curvature="0"
     style="fill:#ffffff" /><path
     id="path3124"
     d="M 455.876,50.33 V 21.534 h 0.627 l 19.165,22.074 V 21.534 h 2.839 V 50.33 h -0.646 L 458.852,28.524 V 50.33 h -2.976 z"
     inkscape:connector-curvature="0"
     style="fill:#ffffff" /><path
     id="path3126"
     d="M 117.938,36.939 H 99.172 c 0.093,3.989 0.839,6.805 2.237,8.445 1.604,1.846 3.645,2.769 6.125,2.769 3.654,0 6.59,-2.078 8.809,-6.236 l 1.818,0.783 c -2.723,5.295 -6.656,7.942 -11.802,7.942 -3.505,0 -6.456,-1.268 -8.851,-3.804 -2.396,-2.535 -3.594,-5.779 -3.594,-9.732 0,-4.25 1.179,-7.686 3.538,-10.305 2.358,-2.619 5.262,-3.929 8.711,-3.929 2.535,0 4.726,0.653 6.572,1.958 1.846,1.305 3.234,3.179 4.167,5.622 0.653,1.715 0.998,3.877 1.036,6.487 z M 99.172,34.953 h 11.354 c 0.671,0 1.193,-0.228 1.566,-0.685 0.373,-0.457 0.56,-1.235 0.56,-2.335 0,-2.051 -0.639,-3.794 -1.916,-5.229 -1.277,-1.435 -2.782,-2.153 -4.516,-2.153 -1.939,0 -3.584,0.867 -4.936,2.601 -1.352,1.733 -2.056,4.334 -2.112,7.801 z"
     inkscape:connector-curvature="0"
     style="fill:#ffffff" /><path
     id="path3128"
     d="m 146.575,36.939 h -18.766 c 0.093,3.989 0.839,6.805 2.237,8.445 1.604,1.846 3.645,2.769 6.125,2.769 3.654,0 6.59,-2.078 8.809,-6.236 l 1.818,0.783 c -2.723,5.295 -6.656,7.942 -11.802,7.942 -3.505,0 -6.456,-1.268 -8.851,-3.804 -2.396,-2.535 -3.594,-5.779 -3.594,-9.732 0,-4.25 1.179,-7.686 3.538,-10.305 2.358,-2.619 5.262,-3.929 8.711,-3.929 2.535,0 4.726,0.653 6.572,1.958 1.846,1.305 3.234,3.179 4.167,5.622 0.653,1.715 0.998,3.877 1.036,6.487 z m -18.766,-1.986 h 11.354 c 0.671,0 1.193,-0.228 1.566,-0.685 0.373,-0.457 0.56,-1.235 0.56,-2.335 0,-2.051 -0.639,-3.794 -1.916,-5.229 -1.277,-1.435 -2.782,-2.153 -4.516,-2.153 -1.939,0 -3.584,0.867 -4.936,2.601 -1.352,1.733 -2.056,4.334 -2.112,7.801 z"
     inkscape:connector-curvature="0"
     style="fill:#ffffff" /><path
     id="path3130"
     d="m 150.21,23.655 9.425,-0.476 v 10.599 c 1.007,-3.486 2.218,-6.125 3.635,-7.914 1.417,-1.79 3.169,-2.685 5.258,-2.685 1.417,0 2.549,0.434 3.398,1.3 0.848,0.867 1.272,2.028 1.272,3.482 0,1.175 -0.285,2.088 -0.853,2.741 -0.569,0.653 -1.282,0.979 -2.14,0.979 -0.839,0 -1.515,-0.28 -2.027,-0.839 -0.513,-0.559 -0.769,-1.314 -0.769,-2.265 0,-0.615 0.149,-1.193 0.447,-1.734 0.28,-0.484 0.42,-0.773 0.42,-0.867 0,-0.28 -0.178,-0.419 -0.532,-0.419 -0.765,0 -1.631,0.447 -2.601,1.342 -1.342,1.249 -2.377,2.964 -3.104,5.146 -1.119,3.394 -1.678,6.106 -1.678,8.139 v 5.621 c 0,0.634 0.224,1.118 0.671,1.454 0.448,0.335 1.212,0.503 2.293,0.503 h 3.328 v 2.098 h -16.276 v -2.098 h 2.601 c 0.876,0 1.539,-0.172 1.986,-0.518 0.447,-0.345 0.671,-0.759 0.671,-1.244 V 29.304 c 0,-1.268 -0.271,-2.195 -0.811,-2.783 -0.541,-0.587 -1.314,-0.881 -2.321,-0.881 h -2.293 v -1.985 z"
     inkscape:connector-curvature="0"
     style="fill:#ffffff" /></g>
</svg>