<?xml version="1.0" encoding="utf-8"?>
<!-- Generator: Adobe Illustrator 19.1.0, SVG Export Plug-In . SVG Version: 6.00 Build 0)  -->
<svg version="1.1"
	 id="svg3809" xmlns:sodipodi="http://sodipodi.sourceforge.net/DTD/sodipodi-0.dtd" xmlns:svg="http://www.w3.org/2000/svg" xmlns:inkscape="http://www.inkscape.org/namespaces/inkscape" xmlns:rdf="http://www.w3.org/1999/02/22-rdf-syntax-ns#" xmlns:dc="http://purl.org/dc/elements/1.1/" xmlns:cc="http://creativecommons.org/ns#" inkscape:version="0.48.3.1 r9886" sodipodi:docname="CNX_BioMaj_Everyday.svg"
	 xmlns="http://www.w3.org/2000/svg" xmlns:xlink="http://www.w3.org/1999/xlink" x="0px" y="0px" viewBox="-89 375 351.5 36.6"
	 style="enable-background:new -89 375 351.5 36.6;" xml:space="preserve">
<style type="text/css">
	.st0{fill:#010101;}
	.st1{fill:#602E1A;}
	.st2{fill:#CFB7A1;}
	.st3{fill:#FFFFFF;}
	.st4{fill:none;stroke:#CFB7A1;}
	.st5{fill:none;stroke:#602E1A;}
</style>
<sodipodi:namedview  showgrid="false" borderopacity="1" pagecolor="#ffffff" guidetolerance="10" inkscape:cy="168.82214" gridtolerance="10" bordercolor="#666666" showguides="true" inkscape:cx="216.5" id="namedview3873" inkscape:zoom="1.4254587" objecttolerance="10" inkscape:guide-bbox="true" inkscape:window-x="1425" inkscape:pageopacity="0" inkscape:window-y="24" inkscape:window-maximized="1" inkscape:current-layer="svg3809" inkscape:pageshadow="2" inkscape:window-width="1615" inkscape:window-height="1026">
	<sodipodi:guide  position="351.46581,471.4272" id="guide3877" orientation="1,0"></sodipodi:guide>
</sodipodi:namedview>
<g id="g3882" transform="matrix(0.81244985,0,0,0.81244985,0,10)">
	<rect id="rect3813" x="-109.5" y="449.3" class="st0" width="186" height="45"/>
	<g id="g3879">
		<rect id="rect3815" x="76.5" y="449.3" class="st1" width="246.6" height="45"/>
	</g>
	<path id="path3817" inkscape:connector-curvature="0" class="st2" d="M-40.6,474.5h-13c0.1,2.8,0.6,4.7,1.5,5.8
		c1.1,1.3,2.5,1.9,4.2,1.9c2.5,0,4.6-1.4,6.1-4.3l1.3,0.5c-1.9,3.7-4.6,5.5-8.2,5.5c-2.4,0-4.5-0.9-6.1-2.6c-1.7-1.8-2.5-4-2.5-6.7
		c0-2.9,0.8-5.3,2.4-7.1c1.6-1.8,3.6-2.7,6-2.7c1.8,0,3.3,0.5,4.5,1.4c1.3,0.9,2.2,2.2,2.9,3.9C-40.9,471.2-40.6,472.7-40.6,474.5z"
		/>
	<path id="path3819" inkscape:connector-curvature="0" class="st3" d="M108.7,464.8l-1.8,1.4c-1-1.3-2.2-2.3-3.5-2.9
		c-1.4-0.7-2.9-1-4.5-1c-1.8,0-3.5,0.4-5,1.3c-1.5,0.9-2.7,2-3.6,3.5c-0.8,1.5-1.3,3.1-1.3,4.9c0,2.8,0.9,5.1,2.8,6.9
		c1.9,1.8,4.3,2.8,7.2,2.8c3.2,0,5.8-1.2,8-3.7l1.8,1.4c-1.1,1.4-2.5,2.5-4.2,3.3s-3.6,1.2-5.7,1.2c-4,0-7.1-1.3-9.4-4
		c-1.9-2.2-2.9-4.9-2.9-8.1c0-3.3,1.2-6.1,3.5-8.4c2.3-2.3,5.2-3.4,8.7-3.4c2.1,0,4,0.4,5.7,1.3
		C106.2,462.1,107.6,463.3,108.7,464.8z"/>
	<path id="path3821" inkscape:connector-curvature="0" class="st3" d="M125.6,460c3.4,0,6.3,1.1,8.6,3.4c2.3,2.3,3.5,5.1,3.5,8.4
		s-1.2,6.1-3.5,8.4s-5.1,3.5-8.4,3.5c-3.4,0-6.2-1.1-8.5-3.4c-2.3-2.3-3.5-5.1-3.5-8.3c0-2.2,0.5-4.2,1.6-6c1.1-1.9,2.5-3.3,4.3-4.4
		C121.5,460.5,123.5,460,125.6,460L125.6,460z M125.7,462.2c-1.7,0-3.3,0.4-4.8,1.3c-1.5,0.9-2.7,2-3.5,3.5
		c-0.8,1.5-1.3,3.1-1.3,4.9c0,2.7,0.9,5,2.8,6.8c1.9,1.9,4.1,2.8,6.7,2.8c1.8,0,3.4-0.4,4.9-1.3s2.7-2,3.5-3.5s1.3-3.1,1.3-4.9
		s-0.4-3.4-1.3-4.9c-0.8-1.5-2-2.6-3.5-3.5C129,462.7,127.4,462.2,125.7,462.2L125.7,462.2z"/>
	<path id="path3823" inkscape:connector-curvature="0" class="st3" d="M143.8,483.2v-22.6h0.5l15.1,17.3v-17.3h2.2v22.6h-0.5
		l-14.9-17.1v17.1H143.8z"/>
	<path id="path3825" inkscape:connector-curvature="0" class="st3" d="M168.7,483.2v-22.6h0.5l15.1,17.3v-17.3h2.2v22.6H186
		l-14.9-17.1v17.1H168.7z"/>
	<path id="path3827" inkscape:connector-curvature="0" class="st3" d="M193.5,460.6h13v2.2h-10.7v7.1h10.6v2.2h-10.6v8.9h10.6v2.2
		h-12.9V460.6z"/>
	<path id="path3829" inkscape:connector-curvature="0" class="st3" d="M233.1,464.8l-1.8,1.4c-1-1.3-2.2-2.3-3.5-2.9
		c-1.4-0.7-2.9-1-4.5-1c-1.8,0-3.5,0.4-5,1.3c-1.5,0.9-2.7,2-3.6,3.5c-0.8,1.5-1.3,3.1-1.3,4.9c0,2.8,0.9,5.1,2.8,6.9
		c1.9,1.8,4.3,2.8,7.2,2.8c3.2,0,5.8-1.2,8-3.7l1.8,1.4c-1.1,1.4-2.5,2.5-4.2,3.3s-3.6,1.2-5.7,1.2c-4,0-7.1-1.3-9.4-4
		c-1.9-2.2-2.9-4.9-2.9-8.1c0-3.3,1.2-6.1,3.5-8.4c2.3-2.3,5.2-3.4,8.7-3.4c2.1,0,4,0.4,5.7,1.3C230.6,462.1,232,463.3,233.1,464.8
		L233.1,464.8z"/>
	<path id="path3831" inkscape:connector-curvature="0" class="st3" d="M236.9,462.8v-2.2h12.4v2.2h-5v20.4H242v-20.4H236.9z"/>
	<path id="path3833" inkscape:connector-curvature="0" class="st3" d="M253.8,460.6h2.3v22.6h-2.3V460.6z"/>
	<path id="path3835" inkscape:connector-curvature="0" class="st3" d="M273.6,460c3.4,0,6.3,1.1,8.6,3.4c2.3,2.3,3.5,5.1,3.5,8.4
		s-1.2,6.1-3.5,8.4s-5.1,3.5-8.4,3.5c-3.4,0-6.2-1.1-8.5-3.4s-3.5-5.1-3.5-8.3c0-2.2,0.5-4.2,1.6-6c1.1-1.8,2.5-3.3,4.3-4.4
		C269.6,460.6,271.5,460,273.6,460z M273.7,462.2c-1.7,0-3.3,0.4-4.8,1.3c-1.5,0.9-2.7,2-3.5,3.5s-1.3,3.1-1.3,4.9
		c0,2.7,0.9,5,2.8,6.8c1.9,1.9,4.1,2.8,6.7,2.8c1.8,0,3.4-0.4,4.9-1.3s2.7-2,3.5-3.5s1.3-3.1,1.3-4.9s-0.4-3.4-1.3-4.9
		c-0.8-1.5-2-2.6-3.5-3.5C277.1,462.7,275.4,462.2,273.7,462.2L273.7,462.2z"/>
	<path id="path3837" inkscape:connector-curvature="0" class="st3" d="M291.8,483.2v-22.6h0.5l15.1,17.3v-17.3h2.2v22.6h-0.5
		l-14.9-17.1v17.1H291.8L291.8,483.2z"/>
	<line id="line3839" class="st4" x1="-25.8" y1="465.4" x2="-38.9" y2="470.9"/>
	<line id="line3841" class="st5" x1="-33.6" y1="461.2" x2="-40.8" y2="467.3"/>
	<line id="line3843" class="st4" x1="-67.8" y1="457.1" x2="-56.4" y2="467.2"/>
	<line id="line3845" class="st5" x1="-58.1" y1="456" x2="-53.3" y2="464.3"/>
	<line id="line3847" class="st4" x1="-36.9" y1="453.4" x2="-43.3" y2="465.3"/>
	<line id="line3849" class="st5" x1="-44.7" y1="454" x2="-46.6" y2="463.3"/>
	<line id="line3851" class="st4" x1="-51.5" y1="449.6" x2="-50.3" y2="463"/>
	<line id="line3853" class="st5" x1="-66.7" y1="466.5" x2="-57.8" y2="470"/>
	<line id="line3855" class="st4" x1="-59" y1="472.1" x2="-72.9" y2="469.6"/>
	<path id="path3857" inkscape:connector-curvature="0" class="st3" d="M-81.3,474.3h-13c0.1,2.8,0.6,4.7,1.5,5.8
		c1.1,1.3,2.5,1.9,4.2,1.9c2.5,0,4.6-1.4,6.1-4.3l1.3,0.5c-1.9,3.7-4.6,5.5-8.2,5.5c-2.4,0-4.5-0.9-6.1-2.6c-1.7-1.8-2.5-4-2.5-6.7
		c0-2.9,0.8-5.3,2.4-7.1s3.6-2.7,6-2.7c1.8,0,3.3,0.5,4.5,1.4c1.3,0.9,2.2,2.2,2.9,3.9C-81.6,471-81.3,472.5-81.3,474.3z
		 M-94.3,472.9h7.9c0.5,0,0.8-0.2,1.1-0.5c0.3-0.3,0.4-0.9,0.4-1.6c0-1.4-0.4-2.6-1.3-3.6c-0.9-1-1.9-1.5-3.1-1.5
		c-1.3,0-2.5,0.6-3.4,1.8C-93.8,468.7-94.3,470.5-94.3,472.9z"/>
	<path id="path3859" inkscape:connector-curvature="0" class="st3" d="M-79.3,465.1h8.9v1.3c-1.2,0-1.9,0.1-2.3,0.3
		c-0.3,0.2-0.5,0.5-0.5,0.8c0,0.3,0.1,0.6,0.2,0.9l4.8,10.7l4.4-10.4c0.1-0.2,0.1-0.4,0.1-0.5c0-0.9-0.9-1.5-2.8-1.8v-1.3h7.5v1.3
		c-0.8,0.1-1.4,0.3-1.8,0.6c-0.5,0.3-0.8,0.8-1,1.4l-6.7,15.4h-1l-7.1-15.8c-0.3-0.6-0.6-1-0.9-1.2c-0.4-0.2-0.9-0.3-1.7-0.4
		L-79.3,465.1L-79.3,465.1z"/>
	<path id="path3861" inkscape:connector-curvature="0" class="st3" d="M-40.2,474.3h-13c0.1,2.8,0.6,4.7,1.5,5.8
		c1.1,1.3,2.5,1.9,4.2,1.9c2.5,0,4.6-1.4,6.1-4.3l1.3,0.5c-1.9,3.7-4.6,5.5-8.2,5.5c-2.4,0-4.5-0.9-6.1-2.6c-1.7-1.8-2.5-4-2.5-6.7
		c0-2.9,0.8-5.3,2.4-7.1c1.6-1.8,3.6-2.7,6-2.7c1.8,0,3.3,0.5,4.5,1.4c1.3,0.9,2.2,2.2,2.9,3.9C-40.5,471-40.2,472.5-40.2,474.3
		L-40.2,474.3z M-53.2,472.9h7.9c0.5,0,0.8-0.2,1.1-0.5c0.3-0.3,0.4-0.9,0.4-1.6c0-1.4-0.4-2.6-1.3-3.6s-1.9-1.5-3.1-1.5
		c-1.3,0-2.5,0.6-3.4,1.8C-52.7,468.7-53.2,470.5-53.2,472.9z"/>
	<path id="path3863" inkscape:connector-curvature="0" class="st3" d="M-37.7,465.1l6.5-0.3v7.3c0.7-2.4,1.5-4.2,2.5-5.5
		c1-1.3,2.2-1.9,3.6-1.9c1,0,1.8,0.3,2.4,0.9c0.6,0.6,0.9,1.4,0.9,2.4c0,0.8-0.2,1.4-0.6,1.9s-0.9,0.7-1.5,0.7s-1-0.2-1.4-0.6
		c-0.4-0.4-0.5-0.9-0.5-1.6c0-0.4,0.1-0.8,0.3-1.2c0.2-0.3,0.3-0.5,0.3-0.6c0-0.2-0.1-0.3-0.4-0.3c-0.5,0-1.1,0.3-1.8,0.9
		c-0.9,0.9-1.6,2.1-2.1,3.6c-0.8,2.3-1.2,4.2-1.2,5.6v3.9c0,0.4,0.2,0.8,0.5,1c0.3,0.2,0.8,0.3,1.6,0.3h2.3v1.5h-11.3v-1.5h1.8
		c0.6,0,1.1-0.1,1.4-0.4s0.5-0.5,0.5-0.9V469c0-0.9-0.2-1.5-0.6-1.9c-0.4-0.4-0.9-0.6-1.6-0.6h-1.6
		C-37.7,466.5-37.7,465.1-37.7,465.1z"/>
	<path id="path3865" inkscape:connector-curvature="0" class="st3" d="M-20.2,465.1h8.7v1.3h-0.8c-0.8,0-1.3,0.1-1.6,0.3
		c-0.3,0.2-0.4,0.5-0.4,0.9c0,0.2,0,0.3,0.1,0.5l5.1,10.9l3.8-9c0.3-0.6,0.4-1.3,0.4-1.9c0-0.5-0.2-0.8-0.6-1.1
		c-0.4-0.3-1.1-0.4-2.2-0.5v-1.3h7.5v1.3c-1.5,0.1-2.4,0.8-2.9,2l-6.7,15.6c-1.1,2.7-2.3,4.5-3.4,5.5c-1.2,1-2.4,1.5-3.7,1.5
		c-1,0-1.7-0.3-2.3-0.8c-0.6-0.5-0.9-1.2-0.9-2c0-0.6,0.2-1.1,0.5-1.4c0.4-0.4,0.8-0.6,1.4-0.6c0.5,0,0.9,0.2,1.2,0.5
		c0.3,0.3,0.5,0.7,0.5,1.2c0,0.1,0,0.3-0.1,0.6c-0.1,0.2-0.1,0.3-0.1,0.4c0,0.3,0.2,0.5,0.6,0.5s0.9-0.2,1.4-0.5
		c0.5-0.3,1-0.8,1.5-1.5c0.5-0.7,1.3-2.2,2.4-4.5l-6.9-14.7c-0.2-0.5-0.6-0.9-0.9-1.2c-0.4-0.3-0.9-0.4-1.6-0.5
		C-20.2,466.6-20.2,465.1-20.2,465.1z"/>
	<path id="path3867" inkscape:connector-curvature="0" class="st3" d="M11.7,454.6l7.1-0.3v24.8c0,1,0.2,1.7,0.6,2.1
		c0.4,0.4,0.9,0.6,1.7,0.6h1.3v1.5h-6.2l-0.5-3.7c-0.7,1.3-1.6,2.3-2.6,3c-1,0.7-2.1,1-3.3,1c-2.1,0-3.8-0.9-5.3-2.6
		c-1.5-1.7-2.2-4-2.2-6.8c0-3.1,0.9-5.5,2.8-7.4c1.5-1.4,3.1-2.1,5-2.1c1.2,0,2.2,0.3,3.1,0.9s1.7,1.5,2.4,2.6v-10.4
		c0-0.5-0.2-1-0.6-1.3c-0.4-0.3-1.1-0.5-2-0.5h-1.3L11.7,454.6L11.7,454.6z M10.6,466.2c-1.4,0-2.5,0.6-3.3,1.7s-1.2,3.1-1.2,5.8
		c0,3,0.4,5,1.3,6.2c0.8,1.2,1.9,1.8,3.2,1.8c1.4,0,2.6-0.7,3.6-2s1.5-3.3,1.5-5.9c0-2.5-0.5-4.4-1.6-5.8
		C13.1,466.8,12,466.2,10.6,466.2z"/>
	<path id="path3869" inkscape:connector-curvature="0" class="st3" d="M43.4,481.3l0.7,1.1c-0.9,1-2,1.5-3.1,1.5
		c-0.9,0-1.6-0.2-2.2-0.7c-0.6-0.5-1.1-1.3-1.6-2.5c-1.2,1.3-2.3,2.2-3.2,2.6s-2,0.6-3.3,0.6c-1.9,0-3.3-0.4-4.2-1.2
		c-1-0.8-1.5-1.8-1.5-3.1c0-1.9,1.1-3.4,3.3-4.7c2.2-1.2,5.2-2.1,8.8-2.5v-2.7c0-1-0.4-1.8-1.2-2.5s-1.8-1-3-1
		c-1.1,0-2.1,0.2-2.9,0.7c-0.6,0.3-0.9,0.7-0.9,1c0,0.2,0.2,0.5,0.5,0.9c0.4,0.5,0.6,1,0.6,1.4c0,0.6-0.2,1.1-0.6,1.4
		c-0.4,0.4-0.9,0.6-1.5,0.6s-1.2-0.2-1.6-0.7c-0.4-0.4-0.6-1-0.6-1.7c0-1.3,0.7-2.4,2.2-3.5c1.5-1.1,3.3-1.6,5.7-1.6
		c2.2,0,3.8,0.5,4.9,1.4c1.1,0.9,1.7,2.1,1.7,3.4v9.8c0,0.9,0.1,1.5,0.4,1.9c0.3,0.4,0.7,0.6,1.1,0.6
		C42.3,481.9,42.8,481.7,43.4,481.3L43.4,481.3z M37,473.6c-3.3,0.5-5.6,1.2-7,2.2c-1,0.8-1.5,1.9-1.5,3.3c0,1,0.3,1.8,0.8,2.3
		s1.2,0.8,2.1,0.8c1.5,0,2.8-0.6,4-1.7c1.1-1.2,1.7-2.6,1.7-4.3v-2.6H37z"/>
	<path id="path3871" inkscape:connector-curvature="0" class="st3" d="M45.8,465.1h8.7v1.3h-0.8c-0.8,0-1.3,0.1-1.6,0.3
		c-0.3,0.2-0.4,0.5-0.4,0.9c0,0.2,0,0.3,0.1,0.5l5.1,10.9l3.8-9c0.3-0.6,0.4-1.3,0.4-1.9c0-0.5-0.2-0.8-0.6-1.1
		c-0.4-0.3-1.1-0.4-2.2-0.5v-1.3h7.5v1.3c-1.5,0.1-2.4,0.8-2.9,2l-6.7,15.6c-1.1,2.7-2.3,4.5-3.4,5.5c-1.2,1-2.4,1.5-3.7,1.5
		c-1,0-1.7-0.3-2.3-0.8s-0.9-1.2-0.9-2c0-0.6,0.2-1.1,0.5-1.4c0.4-0.4,0.8-0.6,1.4-0.6c0.5,0,0.9,0.2,1.2,0.5
		c0.3,0.3,0.5,0.7,0.5,1.2c0,0.1,0,0.3-0.1,0.6c-0.1,0.2-0.1,0.3-0.1,0.4c0,0.3,0.2,0.5,0.6,0.5c0.4,0,0.9-0.2,1.4-0.5
		c0.5-0.3,1-0.8,1.5-1.5c0.5-0.7,1.3-2.2,2.4-4.5l-6.9-14.7c-0.2-0.5-0.6-0.9-0.9-1.2c-0.4-0.3-0.9-0.4-1.6-0.5
		C45.8,466.6,45.8,465.1,45.8,465.1z"/>
</g>
</svg>
