<?xml version="1.0" encoding="utf-8"?>
<!-- Generator: Adobe Illustrator 19.1.0, SVG Export Plug-In . SVG Version: 6.00 Build 0)  -->
<svg version="1.1"
	 id="svg3453" sodipodi:docname="CNX_Bio_Art.svg" inkscape:version="0.48.3.1 r9886" xmlns:cc="http://creativecommons.org/ns#" xmlns:sodipodi="http://sodipodi.sourceforge.net/DTD/sodipodi-0.dtd" xmlns:svg="http://www.w3.org/2000/svg" xmlns:rdf="http://www.w3.org/1999/02/22-rdf-syntax-ns#" xmlns:inkscape="http://www.inkscape.org/namespaces/inkscape" xmlns:dc="http://purl.org/dc/elements/1.1/"
	 xmlns="http://www.w3.org/2000/svg" xmlns:xlink="http://www.w3.org/1999/xlink" x="0px" y="0px" viewBox="-89 375.1 351.5 45.3"
	 style="enable-background:new -89 375.1 351.5 45.3;" xml:space="preserve">
<style type="text/css">
	.st0{fill:#010101;}
	.st1{fill:#517542;}
	.st2{fill:#D66C29;}
	.st3{fill:#005273;}
	.st4{fill:#FFFFFF;}
</style>
<sodipodi:namedview  inkscape:current-layer="svg3453" inkscape:window-maximized="1" inkscape:window-y="24" inkscape:window-x="1360" inkscape:guide-bbox="true" inkscape:window-height="1026" inkscape:window-width="1680" inkscape:pageshadow="2" inkscape:pageopacity="0" borderopacity="1" pagecolor="#ffffff" inkscape:cy="32" objecttolerance="10" gridtolerance="10" id="namedview3493" guidetolerance="10" inkscape:cx="216.5" inkscape:zoom="1.4254587" bordercolor="#666666" showguides="true" showgrid="false">
	<sodipodi:guide  position="351.46581,165.56074" id="guide3497" orientation="1,0"></sodipodi:guide>
	<sodipodi:guide  position="11.224457,-108.0354" id="guide3519" orientation="1,0"></sodipodi:guide>
	<sodipodi:guide  position="338.8383,-236.41513" id="guide3521" orientation="1,0"></sodipodi:guide>
</sodipodi:namedview>
<g id="g3111" transform="matrix(0.90530679,0,0,0.87523458,0.0058111,10.124833)">
	<rect id="rect3071" x="-98.3" y="422.5" class="st0" width="388.2" height="45.8"/>
	<rect id="rect3073" x="-98.3" y="422.5" class="st0" width="151.2" height="42"/>
	<polygon id="rect3075" class="st1" points="-46.3,419.5 -2,424 -6.5,468.7 -50.8,464.3 	"/>
	<polygon id="rect3077" class="st2" points="-4.8,419.3 37.1,417.9 38.7,465.7 -3.1,467.1 	"/>
	<polygon id="rect3079" class="st3" points="-94.5,422.8 -52.9,417 -46.6,462.6 -88.2,468.3 	"/>
	<path id="path3081" inkscape:connector-curvature="0" class="st4" d="M-63.1,454.9l0.8,1.2c-1.1,1.1-2.3,1.6-3.6,1.6
		c-1,0-1.8-0.3-2.5-0.8c-0.7-0.5-1.3-1.5-1.8-2.9c-1.4,1.5-2.6,2.4-3.7,2.9c-1.1,0.5-2.3,0.7-3.8,0.7c-2.1,0-3.7-0.5-4.8-1.4
		c-1.1-0.9-1.6-2.1-1.6-3.5c0-2.1,1.3-3.9,3.8-5.3c2.5-1.4,5.9-2.4,10-2.8v-3.1c0-1.1-0.4-2.1-1.3-2.9c-0.9-0.8-2-1.2-3.4-1.2
		c-1.3,0-2.4,0.3-3.3,0.8c-0.7,0.4-1,0.8-1,1.2c0,0.2,0.2,0.6,0.5,1c0.4,0.6,0.6,1.1,0.6,1.6c0,0.7-0.2,1.2-0.6,1.6
		c-0.4,0.4-1,0.6-1.7,0.6c-0.7,0-1.3-0.2-1.8-0.7c-0.5-0.5-0.7-1.1-0.7-1.9c0-1.5,0.8-2.8,2.4-4c1.6-1.2,3.8-1.8,6.4-1.8
		c2.4,0,4.3,0.5,5.6,1.6c1.3,1.1,1.9,2.4,1.9,3.9v11.2c0,1,0.2,1.7,0.5,2.2c0.3,0.5,0.7,0.7,1.3,0.7
		C-64.3,455.6-63.7,455.4-63.1,454.9z M-70.3,446.2c-3.7,0.5-6.4,1.3-7.9,2.5c-1.2,0.9-1.7,2.1-1.7,3.7c0,1.1,0.3,2,0.9,2.6
		c0.6,0.6,1.4,1,2.4,1c1.7,0,3.2-0.7,4.5-2c1.3-1.3,1.9-3,1.9-4.9C-70.3,449.2-70.3,446.2-70.3,446.2z"/>
	<path id="path3083" inkscape:connector-curvature="0" class="st4" d="M-35.1,436.6l7.4-0.4v8.3c0.8-2.7,1.7-4.8,2.9-6.2
		c1.1-1.4,2.5-2.1,4.1-2.1c1.1,0,2,0.3,2.7,1c0.7,0.7,1,1.6,1,2.7c0,0.9-0.2,1.6-0.7,2.2c-0.4,0.5-1,0.8-1.7,0.8
		c-0.7,0-1.2-0.2-1.6-0.7s-0.6-1-0.6-1.8c0-0.5,0.1-0.9,0.4-1.4c0.2-0.4,0.3-0.6,0.3-0.7c0-0.2-0.1-0.3-0.4-0.3
		c-0.6,0-1.3,0.4-2,1.1c-1.1,1-1.9,2.3-2.4,4c-0.9,2.7-1.3,4.8-1.3,6.4v4.4c0,0.5,0.2,0.9,0.5,1.1c0.4,0.3,1,0.4,1.8,0.4h2.6v1.6
		H-35v-1.6h2c0.7,0,1.2-0.1,1.6-0.4c0.4-0.3,0.5-0.6,0.5-1V441c0-1-0.2-1.7-0.6-2.2c-0.4-0.5-1-0.7-1.8-0.7h-1.8L-35.1,436.6
		L-35.1,436.6z"/>
	<path id="path3085" inkscape:connector-curvature="0" class="st4" d="M15.6,428.2h1.5v8.4h6.7v2h-6.7v13.2c0,1.1,0.3,2,0.8,2.6
		s1.2,0.9,2.1,0.9c1,0,1.8-0.5,2.5-1.4s1.1-2.4,1.2-4.6h1.5c-0.1,2.7-0.7,4.8-1.9,6.1c-1.2,1.3-2.7,2-4.5,2c-1.7,0-3-0.5-4-1.4
		c-1-0.9-1.4-2.1-1.4-3.7v-13.8H9.8v-1.5c1.6-0.3,2.9-1,3.7-2C14.8,433.4,15.5,431.1,15.6,428.2L15.6,428.2z"/>
	<path id="path3087" inkscape:connector-curvature="0" class="st4" d="M76.8,439.1l-1.8,1.4c-1-1.3-2.2-2.3-3.5-2.9
		c-1.4-0.7-2.9-1-4.5-1c-1.8,0-3.5,0.4-5,1.3c-1.5,0.9-2.7,2-3.6,3.5c-0.8,1.5-1.3,3.1-1.3,4.9c0,2.8,0.9,5.1,2.8,6.9
		s4.3,2.8,7.2,2.8c3.2,0,5.8-1.2,8-3.7l1.8,1.4c-1.1,1.4-2.5,2.5-4.2,3.3c-1.7,0.8-3.6,1.2-5.7,1.2c-4,0-7.1-1.3-9.4-4
		c-1.9-2.2-2.9-4.9-2.9-8.1c0-3.3,1.2-6.1,3.5-8.4c2.3-2.3,5.2-3.4,8.7-3.4c2.1,0,4,0.4,5.7,1.3C74.3,436.4,75.7,437.6,76.8,439.1
		L76.8,439.1z"/>
	<path id="path3089" inkscape:connector-curvature="0" class="st4" d="M93.6,434.3c3.4,0,6.3,1.1,8.6,3.4c2.3,2.3,3.5,5.1,3.5,8.4
		c0,3.3-1.2,6.1-3.5,8.4c-2.3,2.3-5.1,3.5-8.4,3.5c-3.4,0-6.2-1.1-8.5-3.4s-3.5-5.1-3.5-8.3c0-2.2,0.5-4.2,1.6-6
		c1.1-1.9,2.5-3.3,4.3-4.4C89.6,434.9,91.5,434.3,93.6,434.3L93.6,434.3z M93.7,436.5c-1.7,0-3.3,0.4-4.8,1.3
		c-1.5,0.9-2.7,2-3.5,3.5c-0.8,1.5-1.3,3.1-1.3,4.9c0,2.7,0.9,5,2.8,6.8s4.1,2.8,6.7,2.8c1.8,0,3.4-0.4,4.9-1.3
		c1.5-0.9,2.7-2,3.5-3.5c0.8-1.5,1.3-3.1,1.3-4.9c0-1.8-0.4-3.4-1.3-4.9c-0.8-1.5-2-2.6-3.5-3.5C97.1,437,95.4,436.5,93.7,436.5z"/>
	<path id="path3091" inkscape:connector-curvature="0" class="st4" d="M111.8,457.5v-22.6h0.5l15.1,17.3v-17.3h2.2v22.6h-0.5
		l-14.9-17.1v17.1H111.8L111.8,457.5z"/>
	<path id="path3093" inkscape:connector-curvature="0" class="st4" d="M136.7,457.5v-22.6h0.5l15.1,17.3v-17.3h2.2v22.6H154
		L139,440.4v17.1H136.7L136.7,457.5z"/>
	<path id="path3095" inkscape:connector-curvature="0" class="st4" d="M161.6,434.9h13v2.2h-10.7v7.1h10.6v2.2h-10.6v8.9h10.6v2.2
		h-12.9V434.9z"/>
	<path id="path3097" inkscape:connector-curvature="0" class="st4" d="M201.1,439.1l-1.8,1.4c-1-1.3-2.2-2.3-3.5-2.9
		c-1.4-0.7-2.9-1-4.5-1c-1.8,0-3.5,0.4-5,1.3c-1.5,0.9-2.7,2-3.6,3.5c-0.8,1.5-1.3,3.1-1.3,4.9c0,2.8,0.9,5.1,2.8,6.9
		s4.3,2.8,7.2,2.8c3.2,0,5.8-1.2,8-3.7l1.8,1.4c-1.1,1.4-2.5,2.5-4.2,3.3c-1.7,0.8-3.6,1.2-5.7,1.2c-4,0-7.1-1.3-9.4-4
		c-1.9-2.2-2.9-4.9-2.9-8.1c0-3.3,1.2-6.1,3.5-8.4c2.3-2.3,5.2-3.4,8.7-3.4c2.1,0,4,0.4,5.7,1.3C198.6,436.4,200,437.6,201.1,439.1
		L201.1,439.1z"/>
	<path id="path3099" inkscape:connector-curvature="0" class="st4" d="M205,437.1v-2.2h12.4v2.2h-5v20.4H210v-20.4H205L205,437.1z"
		/>
	<path id="path3101" inkscape:connector-curvature="0" class="st4" d="M221.9,434.9h2.3v22.6h-2.3V434.9z"/>
	<path id="path3103" inkscape:connector-curvature="0" class="st4" d="M241.7,434.3c3.4,0,6.3,1.1,8.6,3.4c2.3,2.3,3.5,5.1,3.5,8.4
		c0,3.3-1.2,6.1-3.5,8.4c-2.3,2.3-5.1,3.5-8.4,3.5c-3.4,0-6.2-1.1-8.5-3.4s-3.5-5.1-3.5-8.3c0-2.2,0.5-4.2,1.6-6
		c1.1-1.9,2.5-3.3,4.3-4.4C237.6,434.9,239.6,434.3,241.7,434.3z M241.8,436.5c-1.7,0-3.3,0.4-4.8,1.3c-1.5,0.9-2.7,2-3.5,3.5
		c-0.8,1.5-1.3,3.1-1.3,4.9c0,2.7,0.9,5,2.8,6.8c1.9,1.9,4.1,2.8,6.7,2.8c1.8,0,3.4-0.4,4.9-1.3c1.5-0.9,2.7-2,3.5-3.5
		c0.8-1.5,1.3-3.1,1.3-4.9c0-1.8-0.4-3.4-1.3-4.9s-2-2.6-3.5-3.5C245.1,437,243.5,436.5,241.8,436.5z"/>
	<path id="path3105" inkscape:connector-curvature="0" class="st4" d="M259.9,457.5v-22.6h0.5l15.1,17.3v-17.3h2.2v22.6h-0.5
		l-14.9-17.1v17.1H259.9z"/>
</g>
</svg>
