<?xml version="1.0" encoding="utf-8"?>
<!-- Generator: Adobe Illustrator 14.0.0, SVG Export Plug-In  -->
<!DOCTYPE svg PUBLIC "-//W3C//DTD SVG 1.1//EN" "http://www.w3.org/Graphics/SVG/1.1/DTD/svg11.dtd" [
	<!ENTITY ns_flows "http://ns.adobe.com/Flows/1.0/">
]>
<svg version="1.1"
	 xmlns="http://www.w3.org/2000/svg" xmlns:xlink="http://www.w3.org/1999/xlink" xmlns:a="http://ns.adobe.com/AdobeSVGViewerExtensions/3.0/"
	 x="0px" y="0px" width="495px" height="67px" viewBox="-0.671 -0.5 495 67" enable-background="new -0.671 -0.5 495 67"
	 xml:space="preserve">
<defs>
</defs>
<rect y="7.038" fill="#010101" width="496.167" height="58.549"/>
<rect y="7.038" fill="#010101" width="193.287" height="53.679"/>
<rect x="63.487" y="5.89" transform="matrix(0.995 0.0997 -0.0997 0.995 3.9135 -8.992)" fill="#517542" width="56.812" height="57.513"/>
<rect x="120.582" y="1.94" transform="matrix(0.9994 -0.0337 0.0337 0.9994 -1.0134 4.9847)" fill="#D66C29" width="53.548" height="61.226"/>
<rect x="8.588" y="3.399" transform="matrix(0.9906 -0.1369 0.1369 0.9906 -4.1569 5.1603)" fill="#005273" width="53.679" height="58.79"/>
<path fill="#FFFFFF" d="M45.043,48.398l1.011,1.572c-1.367,1.404-2.883,2.106-4.549,2.106c-1.273,0-2.345-0.347-3.215-1.039
	s-1.634-1.909-2.289-3.65c-1.779,1.872-3.342,3.122-4.69,3.749s-2.967,0.94-4.858,0.94c-2.696,0-4.746-0.58-6.15-1.741
	c-1.404-1.16-2.106-2.648-2.106-4.465c0-2.733,1.605-5.003,4.816-6.811c3.21-1.806,7.484-3.008,12.819-3.607v-3.988
	c0-1.422-0.571-2.64-1.713-3.65c-1.142-1.011-2.593-1.517-4.353-1.517c-1.629,0-3.033,0.337-4.212,1.011
	c-0.842,0.506-1.264,1.002-1.264,1.489c0,0.281,0.225,0.721,0.674,1.32c0.543,0.749,0.814,1.414,0.814,1.994
	c0,0.842-0.271,1.53-0.814,2.064s-1.254,0.8-2.134,0.8c-0.936,0-1.718-0.318-2.345-0.955c-0.627-0.636-0.941-1.451-0.941-2.443
	c0-1.853,1.043-3.547,3.131-5.083c2.087-1.535,4.825-2.303,8.214-2.303c3.126,0,5.514,0.674,7.161,2.021
	c1.647,1.367,2.471,3.024,2.471,4.971v14.378c0,1.273,0.206,2.209,0.618,2.808c0.412,0.618,0.945,0.927,1.601,0.927
	C43.47,49.297,44.238,48.998,45.043,48.398z M35.832,37.307c-4.755,0.654-8.125,1.723-10.109,3.201
	c-1.479,1.123-2.218,2.715-2.218,4.773c0,1.442,0.383,2.569,1.151,3.384c0.767,0.814,1.769,1.222,3.004,1.222
	c2.209,0,4.124-0.838,5.743-2.513c1.619-1.676,2.429-3.777,2.429-6.305V37.307z"/>
<path fill="#FFFFFF" d="M80.764,24.978l9.463-0.478v10.643c1.011-3.5,2.228-6.15,3.651-7.947c1.422-1.797,3.183-2.696,5.279-2.696
	c1.423,0,2.56,0.436,3.412,1.306c0.852,0.87,1.278,2.036,1.278,3.496c0,1.179-0.286,2.097-0.856,2.752
	c-0.571,0.656-1.288,0.983-2.148,0.983c-0.842,0-1.521-0.281-2.036-0.842c-0.515-0.562-0.772-1.32-0.772-2.275
	c0-0.618,0.149-1.198,0.449-1.741c0.281-0.486,0.421-0.776,0.421-0.871c0-0.281-0.178-0.421-0.534-0.421
	c-0.768,0-1.639,0.449-2.612,1.348c-1.348,1.255-2.387,2.977-3.117,5.167c-1.123,3.408-1.685,6.131-1.685,8.171v5.645
	c0,0.637,0.225,1.124,0.674,1.461s1.217,0.505,2.303,0.505h3.342v2.106H80.932v-2.106h2.611c0.88,0,1.545-0.173,1.994-0.52
	c0.449-0.346,0.674-0.763,0.674-1.249V30.65c0-1.272-0.271-2.204-0.814-2.794s-1.32-0.885-2.331-0.885h-2.303V24.978z"/>
<path fill="#FFFFFF" d="M145.605,14.25h1.881v10.728h8.509v2.583h-8.509v16.877c0,1.461,0.346,2.58,1.039,3.356
	c0.692,0.777,1.573,1.165,2.64,1.165c1.273,0,2.359-0.59,3.258-1.769c0.898-1.18,1.422-3.127,1.572-5.842h1.882
	c-0.112,3.501-0.908,6.099-2.387,7.793s-3.398,2.542-5.757,2.542c-2.172,0-3.871-0.595-5.097-1.783
	c-1.227-1.189-1.839-2.748-1.839-4.676V27.562h-4.578v-1.966c2.086-0.355,3.674-1.226,4.764-2.611
	C144.599,20.906,145.473,17.995,145.605,14.25z"/>
<path fill="#FFFFFF" d="M223.737,28.215l-2.28,1.75c-1.258-1.638-2.769-2.88-4.531-3.725c-1.763-0.845-3.699-1.268-5.809-1.268
	c-2.307,0-4.443,0.554-6.409,1.661c-1.966,1.108-3.489,2.595-4.57,4.462s-1.622,3.968-1.622,6.3c0,3.526,1.209,6.468,3.627,8.827
	c2.417,2.358,5.468,3.538,9.15,3.538c4.049,0,7.437-1.586,10.163-4.757l2.28,1.729c-1.442,1.835-3.241,3.253-5.396,4.256
	c-2.156,1.002-4.564,1.504-7.224,1.504c-5.059,0-9.049-1.684-11.972-5.052c-2.451-2.844-3.676-6.277-3.676-10.301
	c0-4.233,1.484-7.794,4.452-10.684s6.687-4.334,11.156-4.334c2.7,0,5.137,0.534,7.312,1.602
	C220.565,24.792,222.348,26.289,223.737,28.215z"/>
<path fill="#FFFFFF" d="M245.319,22.121c4.379,0,8.045,1.461,10.996,4.384c2.949,2.922,4.426,6.52,4.426,10.792
	c0,4.233-1.473,7.823-4.416,10.772c-2.945,2.948-6.533,4.423-10.77,4.423c-4.288,0-7.908-1.468-10.858-4.403
	c-2.95-2.936-4.426-6.487-4.426-10.655c0-2.777,0.672-5.353,2.017-7.725c1.344-2.372,3.176-4.229,5.498-5.573
	C240.106,22.793,242.617,22.121,245.319,22.121z M245.447,24.932c-2.14,0-4.167,0.558-6.084,1.672
	c-1.917,1.115-3.413,2.617-4.489,4.505c-1.076,1.889-1.614,3.994-1.614,6.314c0,3.438,1.191,6.339,3.573,8.706
	s5.254,3.551,8.614,3.551c2.245,0,4.321-0.544,6.231-1.633c1.91-1.088,3.4-2.577,4.469-4.466c1.07-1.889,1.605-3.986,1.605-6.295
	c0-2.295-0.535-4.371-1.605-6.227c-1.068-1.856-2.576-3.341-4.518-4.456C249.686,25.49,247.626,24.932,245.447,24.932z"/>
<path fill="#FFFFFF" d="M268.572,51.765V22.849h0.629l19.245,22.165V22.849h2.851v28.916h-0.648L271.56,29.869v21.896H268.572z"/>
<path fill="#FFFFFF" d="M300.366,51.765V22.849h0.629l19.245,22.165V22.849h2.851v28.916h-0.648l-19.088-21.896v21.896H300.366z"/>
<path fill="#FFFFFF" d="M332.16,22.849h16.571v2.831h-13.682v9.062h13.564v2.831h-13.564v11.361h13.564v2.831H332.16V22.849z"/>
<path fill="#FFFFFF" d="M382.668,28.215l-2.28,1.75c-1.258-1.638-2.769-2.88-4.53-3.725c-1.764-0.845-3.699-1.268-5.81-1.268
	c-2.307,0-4.442,0.554-6.408,1.661c-1.966,1.108-3.489,2.595-4.57,4.462s-1.622,3.968-1.622,6.3c0,3.526,1.209,6.468,3.627,8.827
	c2.418,2.358,5.468,3.538,9.15,3.538c4.05,0,7.438-1.586,10.163-4.757l2.28,1.729c-1.441,1.835-3.24,3.253-5.396,4.256
	c-2.156,1.002-4.564,1.504-7.225,1.504c-5.059,0-9.049-1.684-11.971-5.052c-2.451-2.844-3.677-6.277-3.677-10.301
	c0-4.233,1.484-7.794,4.453-10.684c2.968-2.89,6.687-4.334,11.155-4.334c2.699,0,5.137,0.534,7.312,1.602
	C379.498,24.792,381.28,26.289,382.668,28.215z"/>
<path fill="#FFFFFF" d="M387.61,25.679v-2.831h15.844v2.831h-6.447v26.085h-2.948V25.679H387.61z"/>
<path fill="#FFFFFF" d="M409.221,22.849h2.89v28.916h-2.89V22.849z"/>
<path fill="#FFFFFF" d="M434.519,22.121c4.379,0,8.045,1.461,10.995,4.384s4.426,6.52,4.426,10.792
	c0,4.233-1.472,7.823-4.416,10.772c-2.944,2.948-6.533,4.423-10.77,4.423c-4.288,0-7.907-1.468-10.857-4.403
	c-2.951-2.936-4.426-6.487-4.426-10.655c0-2.777,0.672-5.353,2.016-7.725c1.345-2.372,3.177-4.229,5.498-5.573
	C429.306,22.793,431.817,22.121,434.519,22.121z M434.647,24.932c-2.14,0-4.168,0.558-6.084,1.672
	c-1.917,1.115-3.413,2.617-4.489,4.505c-1.077,1.889-1.615,3.994-1.615,6.314c0,3.438,1.191,6.339,3.574,8.706
	c2.382,2.367,5.253,3.551,8.614,3.551c2.244,0,4.321-0.544,6.231-1.633c1.909-1.088,3.399-2.577,4.469-4.466
	c1.07-1.889,1.605-3.986,1.605-6.295c0-2.295-0.535-4.371-1.605-6.227c-1.069-1.856-2.576-3.341-4.519-4.456
	C438.886,25.49,436.826,24.932,434.647,24.932z"/>
<path fill="#FFFFFF" d="M457.772,51.765V22.849h0.629l19.245,22.165V22.849h2.851v28.916h-0.648L460.76,29.869v21.896H457.772z"/>
</svg>
