<?xml version="1.0" encoding="UTF-8" standalone="no"?>
<!-- Generator: Adobe Illustrator 14.0.0, SVG Export Plug-In  -->

<svg
   xmlns:dc="http://purl.org/dc/elements/1.1/"
   xmlns:cc="http://creativecommons.org/ns#"
   xmlns:rdf="http://www.w3.org/1999/02/22-rdf-syntax-ns#"
   xmlns:svg="http://www.w3.org/2000/svg"
   xmlns="http://www.w3.org/2000/svg"
   xmlns:sodipodi="http://sodipodi.sourceforge.net/DTD/sodipodi-0.dtd"
   xmlns:inkscape="http://www.inkscape.org/namespaces/inkscape"
   version="1.1"
   x="0px"
   y="0px"
   width="433px"
   height="64px"
   viewBox="-0.4 -17.9 433 64"
   enable-background="new -0.4 -17.9 433 64"
   xml:space="preserve"
   id="svg4366"
   inkscape:version="0.48.3.1 r9886"
   sodipodi:docname="CNX_BioMaj_Scienctific.svg"><metadata
   id="metadata4430"><rdf:RDF><cc:Work
       rdf:about=""><dc:format>image/svg+xml</dc:format><dc:type
         rdf:resource="http://purl.org/dc/dcmitype/StillImage" /></cc:Work></rdf:RDF></metadata><sodipodi:namedview
   pagecolor="#ffffff"
   bordercolor="#666666"
   borderopacity="1"
   objecttolerance="10"
   gridtolerance="10"
   guidetolerance="10"
   inkscape:pageopacity="0"
   inkscape:pageshadow="2"
   inkscape:window-width="1615"
   inkscape:window-height="1026"
   id="namedview4428"
   showgrid="false"
   showguides="true"
   inkscape:guide-bbox="true"
   inkscape:zoom="1.65"
   inkscape:cx="216.5"
   inkscape:cy="32"
   inkscape:window-x="1425"
   inkscape:window-y="24"
   inkscape:window-maximized="1"
   inkscape:current-layer="svg4366"><sodipodi:guide
     orientation="1,0"
     position="350.90909,31.515152"
     id="guide4432" /></sodipodi:namedview>
<defs
   id="defs4368">
</defs>




























<g
   id="g4434"
   transform="matrix(0.81098815,0,0,0.81098815,0,10)"><rect
     id="rect4370"
     height="45"
     width="236.39999"
     x="0"
     y="0"
     style="fill:#010101" /><path
     id="path4372"
     d="m 192.4,18.5 0,0 c -0.1,0.2 -0.2,0.3 -0.3,0.4 0,0 0,0.1 -0.1,0.1 -0.5,0.8 -0.9,1.6 -1.2,2.4 l 0,0 c -0.7,2 -1,4.3 -0.6,6.5 l 0,0 c 0.1,0.5 0.2,1 0.4,1.5 0.2,0.7 0.4,1.3 0.7,1.9 l 0,0 c 1,2 2.5,3.8 4.5,5.1 l 0,0 c 0.2,0.1 0.3,0.2 0.5,0.3 0.8,0.5 1.6,0.9 2.4,1.2 l -0.8,-3 3.6,-1 -2.4,-0.9 0,0 c -1.3,-0.7 -2.4,-1.8 -3.2,-3 l -0.9,-1.9 0,0 c -0.4,-1.4 -0.5,-2.9 -0.1,-4.3 l 0.8,-2.1 0,0 c 1,-1.9 2.7,-3.3 4.8,-4 l 2.6,-2.7 -2.2,-2.2 c -3.4,0.8 -6.5,2.7 -8.5,5.7 z"
     inkscape:connector-curvature="0"
     style="fill:#f99c1c" /><path
     id="path4374"
     d="m 209.7,15.2 c -0.2,-0.1 -0.3,-0.2 -0.5,-0.3 -0.8,-0.5 -1.6,-0.9 -2.4,-1.2 l 0.8,3 -3.6,1 2.4,0.9 0,0 c 1.3,0.7 2.4,1.7 3.2,3 l 1,2 0,0 c 0.4,1.5 0.5,3 0.1,4.5 l -0.7,1.9 0,0 c -1,1.9 -2.7,3.3 -4.8,4 l -2.6,2.7 2.2,2.2 c 3.3,-0.6 6.3,-2.4 8.4,-5.3 l 0,0 c 0,0 0,-0.1 0.1,-0.1 0,-0.1 0.1,-0.1 0.1,-0.2 l 0,0 c 0.1,-0.1 0.2,-0.3 0.3,-0.4 0,0 0,-0.1 0.1,-0.1 0.5,-0.8 0.9,-1.6 1.2,-2.4 l -0.1,0 c 0.7,-2.1 0.9,-4.3 0.5,-6.6 l 0,0 c 0,0 0,0 0,0 0,-0.1 0,-0.2 0,-0.2 l 0,0 c 0,-0.2 -0.1,-0.3 -0.1,-0.5 0,0 0,-0.1 0,-0.1 -0.2,-0.9 -0.5,-1.7 -0.9,-2.5 l 0,0 c -1.2,-2.1 -2.7,-3.9 -4.7,-5.3 l 0,0 z"
     inkscape:connector-curvature="0"
     style="fill:#d66c29" /><rect
     id="rect4376"
     height="45"
     width="199.8"
     x="232.39999"
     y="0"
     style="fill:#d66c29" /><path
     id="path4378"
     d="m 9.1,27.4 c 0.6,1.6 1.2,2.6 1.9,3.2 0.7,0.6 1.6,0.9 2.7,0.9 1,0 1.7,-0.2 2.3,-0.6 0.5,-0.4 0.8,-1 0.8,-1.6 0,-0.4 -0.1,-0.7 -0.3,-1 C 16.3,28 16,27.8 15.7,27.7 15.4,27.6 14.5,27.4 13,27.1 11.6,26.8 10.7,26.5 10.1,26.2 9.6,25.9 9.1,25.5 8.8,25 8.5,24.5 8.3,23.9 8.3,23.3 c 0,-0.9 0.3,-1.8 0.9,-2.5 0.8,-1 1.9,-1.4 3.4,-1.4 1.1,0 2.1,0.3 3.1,1 l 0.9,-0.9 h 0.6 l 0.4,4.5 h -0.9 c -0.4,-1.3 -0.9,-2.2 -1.6,-2.8 -0.7,-0.6 -1.5,-0.8 -2.5,-0.8 -0.9,0 -1.5,0.2 -2,0.6 -0.5,0.4 -0.7,0.9 -0.7,1.5 0,0.5 0.2,1 0.7,1.3 0.4,0.4 1.3,0.6 2.6,0.9 1.5,0.3 2.5,0.5 2.9,0.6 0.7,0.3 1.3,0.7 1.7,1.2 0.4,0.5 0.6,1.2 0.6,2.1 0,1.1 -0.4,2.1 -1.3,2.8 -0.9,0.8 -2,1.2 -3.3,1.2 -1.3,0 -2.4,-0.4 -3.5,-1.2 l -1,1.1 H 8.5 l -0.3,-5 h 0.9 z"
     inkscape:connector-curvature="0"
     style="fill:#ffffff" /><path
     id="path4380"
     d="m 30,28.4 0.9,0.3 c -0.7,2.6 -2.3,3.9 -4.6,3.9 -1.8,0 -3.2,-0.6 -4.3,-1.7 -1.1,-1.2 -1.7,-2.7 -1.7,-4.6 0,-2.2 0.6,-4 1.8,-5.2 1.2,-1.2 2.7,-1.8 4.3,-1.8 1.2,0 2.3,0.3 3.1,1 0.8,0.7 1.2,1.4 1.2,2.3 0,0.5 -0.2,0.9 -0.5,1.2 -0.3,0.3 -0.7,0.5 -1.1,0.5 -0.4,0 -0.7,-0.1 -1,-0.4 -0.3,-0.3 -0.4,-0.6 -0.4,-1 0,-0.4 0.2,-0.8 0.5,-1.1 0.1,-0.2 0.2,-0.3 0.2,-0.4 0,-0.3 -0.2,-0.5 -0.5,-0.8 -0.4,-0.2 -0.8,-0.4 -1.4,-0.4 -1.1,0 -1.9,0.4 -2.5,1.2 -0.8,1.2 -1.2,2.7 -1.2,4.6 0,1.8 0.4,3.2 1.1,4.1 0.7,0.9 1.6,1.4 2.8,1.4 1.4,-0.2 2.6,-1.1 3.3,-3.1 z"
     inkscape:connector-curvature="0"
     style="fill:#ffffff" /><path
     id="path4382"
     d="m 32.4,19.5 5,-0.1 v 10.9 c 0,0.3 0.1,0.5 0.2,0.6 0.2,0.2 0.5,0.3 0.8,0.3 h 1.4 v 1 h -7.2 v -1 H 34 c 0.4,0 0.7,-0.1 0.9,-0.3 0.2,-0.2 0.3,-0.5 0.3,-0.8 v -8 c 0,-0.5 -0.1,-0.9 -0.4,-1.1 -0.3,-0.3 -0.7,-0.4 -1.3,-0.4 h -1 v -1.1 z m 3.5,-7.6 c 0.4,0 0.8,0.2 1.1,0.5 0.3,0.3 0.5,0.7 0.5,1.1 0,0.4 -0.1,0.8 -0.4,1.1 -0.3,0.3 -0.7,0.4 -1.1,0.4 -0.4,0 -0.8,-0.2 -1.1,-0.5 -0.3,-0.3 -0.5,-0.7 -0.5,-1.1 0,-0.4 0.2,-0.8 0.5,-1.1 0.3,-0.2 0.6,-0.4 1,-0.4 z"
     inkscape:connector-curvature="0"
     style="fill:#ffffff" /><path
     id="path4384"
     d="m 53.2,25.9 h -9.1 c 0,1.9 0.4,3.3 1.1,4.1 0.8,0.9 1.8,1.3 3,1.3 1.8,0 3.2,-1 4.3,-3 l 0.9,0.4 c -1.3,2.6 -3.2,3.8 -5.7,3.8 -1.7,0 -3.1,-0.6 -4.3,-1.8 -1.2,-1.2 -1.7,-2.8 -1.7,-4.7 0,-2.1 0.6,-3.7 1.7,-5 1.1,-1.3 2.5,-1.9 4.2,-1.9 1.2,0 2.3,0.3 3.2,0.9 0.9,0.6 1.6,1.5 2,2.7 0.2,0.9 0.4,1.9 0.4,3.2 z m -9,-1 h 5.5 c 0.3,0 0.6,-0.1 0.8,-0.3 0.2,-0.2 0.3,-0.6 0.3,-1.1 0,-1 -0.3,-1.8 -0.9,-2.5 -0.6,-0.7 -1.3,-1 -2.2,-1 -0.9,0 -1.7,0.4 -2.4,1.3 -0.8,0.7 -1.1,2 -1.1,3.6 z"
     inkscape:connector-curvature="0"
     style="fill:#ffffff" /><path
     id="path4386"
     d="m 55.2,19.5 4.2,-0.3 c 0.2,0.8 0.3,1.7 0.4,2.8 0.6,-0.9 1.2,-1.6 2,-2.1 0.8,-0.5 1.6,-0.7 2.6,-0.7 0.8,0 1.5,0.2 2.1,0.5 0.6,0.3 1,0.8 1.4,1.6 0.3,0.7 0.5,1.5 0.5,2.4 v 6.2 c 0,0.5 0.1,0.8 0.3,1 0.2,0.2 0.6,0.3 1,0.3 h 0.9 v 1 h -6.7 v -1 h 0.6 c 0.6,0 1,-0.1 1.2,-0.3 0.2,-0.2 0.4,-0.5 0.4,-0.9 v -5.4 c 0,-1.2 -0.2,-2.1 -0.5,-2.6 -0.5,-0.8 -1.3,-1.2 -2.3,-1.2 -1,0 -1.9,0.4 -2.5,1.2 -0.6,0.8 -1,1.9 -1,3.2 v 4.7 c 0,0.5 0.1,0.8 0.3,1 0.2,0.2 0.6,0.3 1,0.3 H 62 v 1 h -6.7 v -1 h 0.9 c 0.4,0 0.8,-0.1 1,-0.3 0.2,-0.2 0.3,-0.4 0.3,-0.7 V 22 c 0,-0.5 -0.1,-1 -0.4,-1.2 -0.3,-0.3 -0.7,-0.4 -1.3,-0.4 h -0.6 v -0.9 z"
     inkscape:connector-curvature="0"
     style="fill:#ffffff" /><path
     id="path4388"
     d="m 75.4,14.3 h 0.9 v 5.2 h 4.1 v 1.2 h -4.1 v 8.1 c 0,0.7 0.2,1.2 0.5,1.6 0.3,0.4 0.8,0.6 1.3,0.6 0.6,0 1.1,-0.3 1.6,-0.9 0.4,-0.6 0.7,-1.5 0.8,-2.8 h 0.9 C 81.3,29 81,30.2 80.3,31 c -0.7,0.8 -1.6,1.2 -2.8,1.2 -1,0 -1.9,-0.3 -2.5,-0.9 -0.6,-0.6 -0.9,-1.3 -0.9,-2.2 v -8.5 h -2.2 v -0.9 c 1,-0.2 1.8,-0.6 2.3,-1.3 0.7,-0.9 1.2,-2.3 1.2,-4.1 z"
     inkscape:connector-curvature="0"
     style="fill:#ffffff" /><path
     id="path4390"
     d="m 82.6,19.5 5,-0.1 v 10.9 c 0,0.3 0.1,0.5 0.2,0.6 0.2,0.2 0.5,0.3 0.8,0.3 H 90 v 1 h -7.2 v -1 h 1.3 c 0.4,0 0.7,-0.1 0.9,-0.3 0.2,-0.2 0.3,-0.5 0.3,-0.8 v -8 c 0,-0.5 -0.1,-0.9 -0.4,-1.1 -0.3,-0.3 -0.7,-0.4 -1.3,-0.4 h -1 v -1.1 z m 3.5,-7.6 c 0.4,0 0.8,0.2 1.1,0.5 0.3,0.3 0.5,0.7 0.5,1.1 0,0.4 -0.1,0.8 -0.4,1.1 -0.3,0.3 -0.7,0.4 -1.1,0.4 -0.4,0 -0.8,-0.2 -1.1,-0.5 -0.3,-0.3 -0.5,-0.7 -0.5,-1.1 0,-0.4 0.2,-0.8 0.5,-1.1 0.3,-0.2 0.6,-0.4 1,-0.4 z"
     inkscape:connector-curvature="0"
     style="fill:#ffffff" /><path
     id="path4392"
     d="M 95.9,19.5 H 99 v 1.2 h -3.2 v 9.2 c 0,0.4 0.1,0.7 0.3,0.9 0.3,0.2 0.6,0.3 1.1,0.3 H 99 v 1 h -7.8 v -1 h 1.1 c 0.5,0 0.8,-0.1 1,-0.2 0.2,-0.1 0.3,-0.4 0.3,-0.8 v -9.5 h -2.2 v -1.2 h 2.2 v -1 c 0,-2.2 0.5,-3.9 1.4,-5.1 0.9,-1.2 2.1,-1.8 3.4,-1.8 1,0 1.8,0.2 2.4,0.7 0.6,0.5 0.9,1.1 0.9,1.9 0,0.5 -0.1,0.9 -0.4,1.2 -0.3,0.3 -0.6,0.5 -1,0.5 -0.4,0 -0.7,-0.1 -0.9,-0.4 -0.2,-0.2 -0.4,-0.5 -0.4,-0.9 0,-0.4 0.2,-0.8 0.5,-1 0.3,-0.2 0.4,-0.4 0.4,-0.5 0,-0.2 -0.1,-0.3 -0.3,-0.4 -0.2,-0.1 -0.5,-0.2 -0.9,-0.2 -0.8,0 -1.4,0.3 -1.9,1 -0.5,0.7 -0.8,1.7 -0.8,3 v 3.1 z"
     inkscape:connector-curvature="0"
     style="fill:#ffffff" /><path
     id="path4394"
     d="m 100.5,19.5 5,-0.1 v 10.9 c 0,0.3 0.1,0.5 0.2,0.6 0.2,0.2 0.5,0.3 0.8,0.3 h 1.4 v 1 h -7.2 v -1 h 1.3 c 0.4,0 0.7,-0.1 0.9,-0.3 0.2,-0.2 0.3,-0.5 0.3,-0.8 v -8 c 0,-0.5 -0.1,-0.9 -0.4,-1.1 -0.3,-0.3 -0.7,-0.4 -1.3,-0.4 h -1 v -1.1 z m 3.5,-7.6 c 0.4,0 0.8,0.2 1.1,0.5 0.3,0.3 0.5,0.7 0.5,1.1 0,0.4 -0.1,0.8 -0.4,1.1 -0.3,0.3 -0.7,0.4 -1.1,0.4 -0.4,0 -0.8,-0.2 -1.1,-0.5 -0.3,-0.3 -0.5,-0.7 -0.5,-1.1 0,-0.4 0.2,-0.8 0.5,-1.1 0.3,-0.2 0.6,-0.4 1,-0.4 z"
     inkscape:connector-curvature="0"
     style="fill:#ffffff" /><path
     id="path4396"
     d="m 119.1,28.4 0.9,0.3 c -0.7,2.6 -2.3,3.9 -4.6,3.9 -1.8,0 -3.2,-0.6 -4.3,-1.7 -1.1,-1.2 -1.7,-2.7 -1.7,-4.6 0,-2.2 0.6,-4 1.8,-5.2 1.2,-1.2 2.7,-1.8 4.3,-1.8 1.2,0 2.3,0.3 3.1,1 0.8,0.7 1.2,1.4 1.2,2.3 0,0.5 -0.2,0.9 -0.5,1.2 -0.3,0.3 -0.7,0.5 -1.1,0.5 -0.4,0 -0.7,-0.1 -1,-0.4 -0.3,-0.3 -0.4,-0.6 -0.4,-1 0,-0.4 0.2,-0.8 0.5,-1.1 0.1,-0.2 0.2,-0.3 0.2,-0.4 0,-0.3 -0.2,-0.5 -0.5,-0.8 -0.4,-0.2 -0.8,-0.4 -1.4,-0.4 -1.1,0 -1.9,0.4 -2.5,1.2 -0.8,1.2 -1.2,2.7 -1.2,4.6 0,1.8 0.4,3.2 1.1,4.1 0.7,0.9 1.6,1.4 2.8,1.4 1.5,-0.2 2.6,-1.1 3.3,-3.1 z"
     inkscape:connector-curvature="0"
     style="fill:#ffffff" /><path
     id="path4398"
     d="m 130.2,19.5 3.6,-0.2 c 0.2,0.9 0.3,1.8 0.4,2.7 0.7,-1 1.4,-1.7 2.1,-2.1 0.7,-0.4 1.4,-0.6 2.3,-0.6 0.9,0 1.6,0.2 2.2,0.7 0.6,0.5 1,1.2 1.3,2.2 0.6,-1 1.3,-1.7 2,-2.2 0.7,-0.5 1.5,-0.7 2.4,-0.7 1.2,0 2,0.3 2.6,1 0.7,0.9 1.1,2.1 1.1,3.5 V 30 c 0,0.4 0.1,0.6 0.3,0.8 0.3,0.2 0.6,0.3 1.1,0.3 h 0.6 v 1 h -6.4 v -1 h 0.6 c 0.5,0 0.9,-0.1 1.1,-0.3 0.2,-0.2 0.3,-0.5 0.3,-0.8 v -6.3 c 0,-0.9 -0.2,-1.7 -0.7,-2.2 -0.5,-0.5 -1.1,-0.8 -1.8,-0.8 -0.6,0 -1.1,0.2 -1.5,0.5 -0.5,0.3 -0.8,0.7 -1.1,1.3 -0.4,0.8 -0.6,1.5 -0.6,2 V 30 c 0,0.4 0.1,0.6 0.3,0.8 0.2,0.2 0.5,0.3 0.9,0.3 h 0.9 v 1 h -6.5 v -1 h 0.7 c 0.5,0 0.8,-0.1 1,-0.3 0.2,-0.2 0.3,-0.4 0.3,-0.7 v -5.8 c 0,-1.2 -0.2,-2.1 -0.7,-2.7 -0.5,-0.6 -1,-0.8 -1.8,-0.8 -1,0 -1.7,0.3 -2.2,1 -0.7,0.9 -1.1,2 -1.1,3.2 v 5 c 0,0.4 0.1,0.7 0.3,0.8 0.2,0.2 0.6,0.3 1.1,0.3 h 0.6 v 1 h -6.4 v -1 h 1 c 0.4,0 0.6,-0.1 0.8,-0.3 0.2,-0.2 0.3,-0.4 0.3,-0.7 v -8.3 c 0,-0.5 -0.1,-0.8 -0.4,-1 -0.3,-0.2 -0.7,-0.4 -1.4,-0.4 v -0.9 z"
     inkscape:connector-curvature="0"
     style="fill:#ffffff" /><path
     id="path4400"
     d="m 165.9,25.9 h -9.1 c 0,1.9 0.4,3.3 1.1,4.1 0.8,0.9 1.8,1.3 3,1.3 1.8,0 3.2,-1 4.3,-3 l 0.9,0.4 c -1.3,2.6 -3.2,3.8 -5.7,3.8 -1.7,0 -3.1,-0.6 -4.3,-1.8 -1.2,-1.2 -1.7,-2.8 -1.7,-4.7 0,-2.1 0.6,-3.7 1.7,-5 1.1,-1.3 2.5,-1.9 4.2,-1.9 1.2,0 2.3,0.3 3.2,0.9 0.9,0.6 1.6,1.5 2,2.7 0.2,0.9 0.4,1.9 0.4,3.2 z m -9.1,-1 h 5.5 c 0.3,0 0.6,-0.1 0.8,-0.3 0.2,-0.2 0.3,-0.6 0.3,-1.1 0,-1 -0.3,-1.8 -0.9,-2.5 -0.6,-0.7 -1.3,-1 -2.2,-1 -0.9,0 -1.7,0.4 -2.4,1.3 -0.7,0.7 -1,2 -1.1,3.6 z"
     inkscape:connector-curvature="0"
     style="fill:#ffffff" /><path
     id="path4402"
     d="m 171.2,14.3 h 0.9 v 5.2 h 4.1 v 1.2 h -4.1 v 8.1 c 0,0.7 0.2,1.2 0.5,1.6 0.3,0.4 0.8,0.6 1.3,0.6 0.6,0 1.1,-0.3 1.6,-0.9 0.4,-0.6 0.7,-1.5 0.8,-2.8 h 0.9 c -0.1,1.7 -0.4,2.9 -1.1,3.7 -0.7,0.8 -1.6,1.2 -2.8,1.2 -1,0 -1.9,-0.3 -2.5,-0.9 -0.6,-0.6 -0.9,-1.3 -0.9,-2.2 v -8.5 h -2.2 v -0.9 c 1,-0.2 1.8,-0.6 2.3,-1.3 0.7,-0.9 1.1,-2.3 1.2,-4.1 z"
     inkscape:connector-curvature="0"
     style="fill:#ffffff" /><path
     id="path4404"
     d="m 178.3,12.1 4.8,-0.2 v 9.8 c 0.7,-0.9 1.4,-1.5 2.1,-1.9 0.7,-0.4 1.6,-0.6 2.4,-0.6 0.8,0 1.5,0.2 2.2,0.6 0.5,0.3 0.9,0.8 1.3,1.6 0.4,0.8 0.5,1.7 0.5,2.7 v 6 c 0,0.4 0.1,0.7 0.3,0.8 0.2,0.2 0.5,0.3 0.9,0.3 h 1.1 v 1 h -6.8 v -1 h 0.8 c 0.6,0 1,-0.1 1.2,-0.3 0.2,-0.2 0.3,-0.5 0.3,-0.8 v -6 c 0,-1.1 -0.3,-1.9 -0.8,-2.5 -0.5,-0.6 -1.2,-0.9 -2,-0.9 -0.6,0 -1.2,0.2 -1.7,0.5 -0.5,0.3 -1,0.8 -1.4,1.5 -0.4,0.7 -0.6,1.4 -0.6,2.2 V 30 c 0,0.5 0.1,0.8 0.3,1 0.2,0.2 0.5,0.3 0.9,0.3 h 1.1 v 1 h -6.7 v -1 h 0.8 c 0.5,0 0.9,-0.1 1.1,-0.3 0.2,-0.2 0.3,-0.5 0.3,-0.9 V 14.8 c 0,-0.5 -0.1,-0.9 -0.4,-1.2 -0.3,-0.3 -0.7,-0.4 -1.2,-0.4 h -0.9 v -1.1 z"
     inkscape:connector-curvature="0"
     style="fill:#ffffff" /><path
     id="path4406"
     d="m 218.1,12.1 4.9,-0.2 v 17.3 c 0,0.7 0.1,1.2 0.4,1.4 0.3,0.3 0.6,0.4 1.2,0.4 h 0.9 v 1 h -4.3 l -0.3,-2.6 c -0.5,0.9 -1.1,1.6 -1.8,2.1 -0.7,0.5 -1.5,0.7 -2.3,0.7 -1.4,0 -2.7,-0.6 -3.7,-1.8 -1,-1.2 -1.5,-2.8 -1.5,-4.8 0,-2.1 0.6,-3.9 1.9,-5.1 1,-1 2.2,-1.5 3.5,-1.5 0.8,0 1.5,0.2 2.2,0.6 0.6,0.4 1.2,1 1.7,1.8 v -7.1 c 0,-0.4 -0.1,-0.7 -0.4,-0.9 -0.3,-0.2 -0.7,-0.3 -1.4,-0.3 h -0.9 v -1 z m -0.8,8.1 c -1,0 -1.7,0.4 -2.3,1.2 -0.6,0.8 -0.9,2.2 -0.9,4.1 0,2.1 0.3,3.5 0.9,4.4 0.6,0.9 1.3,1.3 2.3,1.3 1,0 1.8,-0.5 2.5,-1.4 0.7,-0.9 1,-2.3 1,-4.1 0,-1.7 -0.4,-3.1 -1.1,-4 -0.7,-1.1 -1.5,-1.5 -2.4,-1.5 z"
     inkscape:connector-curvature="0"
     style="fill:#ffffff" /><path
     id="path4408"
     d="m 256.7,17.6 -1.5,1.1 c -0.8,-1.1 -1.8,-1.9 -3,-2.4 -1.2,-0.6 -2.4,-0.8 -3.8,-0.8 -1.5,0 -2.9,0.4 -4.2,1.1 -1.3,0.7 -2.3,1.7 -3,2.9 -0.7,1.2 -1.1,2.6 -1.1,4.1 0,2.3 0.8,4.2 2.4,5.8 1.6,1.5 3.6,2.3 6,2.3 2.7,0 4.9,-1 6.7,-3.1 l 1.5,1.1 c -0.9,1.2 -2.1,2.1 -3.5,2.8 -1.4,0.7 -3,1 -4.7,1 -3.3,0 -5.9,-1.1 -7.8,-3.3 -1.6,-1.9 -2.4,-4.1 -2.4,-6.8 0,-2.8 1,-5.1 2.9,-7 1.9,-1.9 4.4,-2.8 7.3,-2.8 1.8,0 3.4,0.4 4.8,1.1 1.3,0.7 2.5,1.6 3.4,2.9 z"
     inkscape:connector-curvature="0"
     style="fill:#ffffff" /><path
     id="path4410"
     d="m 270.9,13.6 c 2.9,0 5.3,1 7.2,2.9 1.9,1.9 2.9,4.3 2.9,7.1 0,2.8 -1,5.1 -2.9,7.1 -1.9,2 -4.3,2.9 -7.1,2.9 -2.8,0 -5.2,-1 -7.1,-2.9 -1.9,-1.9 -2.9,-4.3 -2.9,-7 0,-1.8 0.4,-3.5 1.3,-5.1 0.9,-1.6 2.1,-2.8 3.6,-3.7 1.5,-0.9 3.2,-1.3 5,-1.3 z m 0,1.8 c -1.4,0 -2.7,0.4 -4,1.1 -1.3,0.7 -2.2,1.7 -2.9,3 -0.7,1.3 -1.1,2.6 -1.1,4.1 0,2.3 0.8,4.2 2.3,5.7 1.6,1.6 3.4,2.3 5.6,2.3 1.5,0 2.8,-0.4 4.1,-1.1 1.3,-0.7 2.2,-1.7 2.9,-2.9 0.7,-1.2 1.1,-2.6 1.1,-4.1 0,-1.5 -0.4,-2.9 -1.1,-4.1 -0.7,-1.2 -1.7,-2.2 -3,-2.9 -1.1,-0.7 -2.4,-1.1 -3.9,-1.1 z"
     inkscape:connector-curvature="0"
     style="fill:#ffffff" /><path
     id="path4412"
     d="M 286.1,33 V 14 h 0.4 l 12.6,14.5 V 14.1 h 1.9 v 19 h -0.4 L 288.1,18.7 V 33 h -2 z"
     inkscape:connector-curvature="0"
     style="fill:#ffffff" /><path
     id="path4414"
     d="M 307,33 V 14 h 0.4 L 320,28.6 V 14.1 h 1.9 v 19 h -0.4 L 309,18.7 V 33 h -2 z"
     inkscape:connector-curvature="0"
     style="fill:#ffffff" /><path
     id="path4416"
     d="m 327.8,14.1 h 10.9 V 16 h -9 v 5.9 h 8.9 v 1.9 h -8.9 v 7.5 h 8.9 V 33 H 327.8 V 14.1 z"
     inkscape:connector-curvature="0"
     style="fill:#ffffff" /><path
     id="path4418"
     d="m 360.9,17.6 -1.5,1.1 c -0.8,-1.1 -1.8,-1.9 -3,-2.4 -1.2,-0.6 -2.4,-0.8 -3.8,-0.8 -1.5,0 -2.9,0.4 -4.2,1.1 -1.3,0.7 -2.3,1.7 -3,2.9 -0.7,1.2 -1.1,2.6 -1.1,4.1 0,2.3 0.8,4.2 2.4,5.8 1.6,1.5 3.6,2.3 6,2.3 2.7,0 4.9,-1 6.7,-3.1 l 1.5,1.1 c -0.9,1.2 -2.1,2.1 -3.5,2.8 -1.4,0.7 -3,1 -4.7,1 -3.3,0 -5.9,-1.1 -7.8,-3.3 -1.6,-1.9 -2.4,-4.1 -2.4,-6.8 0,-2.8 1,-5.1 2.9,-7 1.9,-1.9 4.4,-2.8 7.3,-2.8 1.8,0 3.4,0.4 4.8,1.1 1.3,0.7 2.5,1.6 3.4,2.9 z"
     inkscape:connector-curvature="0"
     style="fill:#ffffff" /><path
     id="path4420"
     d="M 364.2,15.9 V 14 h 10.4 v 1.9 h -4.2 V 33 h -1.9 V 15.9 h -4.3 z"
     inkscape:connector-curvature="0"
     style="fill:#ffffff" /><path
     id="path4422"
     d="m 378.3,14.1 h 1.9 v 19 h -1.9 v -19 z"
     inkscape:connector-curvature="0"
     style="fill:#ffffff" /><path
     id="path4424"
     d="m 394.9,13.6 c 2.9,0 5.3,1 7.2,2.9 1.9,1.9 2.9,4.3 2.9,7.1 0,2.8 -1,5.1 -2.9,7.1 -1.9,2 -4.3,2.9 -7.1,2.9 -2.8,0 -5.2,-1 -7.1,-2.9 -1.9,-1.9 -2.9,-4.3 -2.9,-7 0,-1.8 0.4,-3.5 1.3,-5.1 0.9,-1.6 2.1,-2.8 3.6,-3.7 1.6,-0.9 3.3,-1.3 5,-1.3 z m 0.1,1.8 c -1.4,0 -2.7,0.4 -4,1.1 -1.3,0.7 -2.2,1.7 -2.9,3 -0.7,1.3 -1.1,2.6 -1.1,4.1 0,2.3 0.8,4.2 2.3,5.7 1.6,1.6 3.4,2.3 5.6,2.3 1.5,0 2.8,-0.4 4.1,-1.1 1.3,-0.7 2.2,-1.7 2.9,-2.9 0.7,-1.2 1.1,-2.6 1.1,-4.1 0,-1.5 -0.4,-2.9 -1.1,-4.1 -0.7,-1.2 -1.7,-2.2 -3,-2.9 -1.1,-0.7 -2.5,-1.1 -3.9,-1.1 z"
     inkscape:connector-curvature="0"
     style="fill:#ffffff" /><path
     id="path4426"
     d="M 410.2,33 V 14 h 0.4 l 12.6,14.5 V 14.1 h 1.9 v 19 h -0.4 L 412.2,18.7 V 33 h -2 z"
     inkscape:connector-curvature="0"
     style="fill:#ffffff" /></g>
</svg>