<?xml version="1.0" encoding="UTF-8" standalone="no"?>
<!-- Generator: Adobe Illustrator 14.0.0, SVG Export Plug-In  -->

<svg
   xmlns:dc="http://purl.org/dc/elements/1.1/"
   xmlns:cc="http://creativecommons.org/ns#"
   xmlns:rdf="http://www.w3.org/1999/02/22-rdf-syntax-ns#"
   xmlns:svg="http://www.w3.org/2000/svg"
   xmlns="http://www.w3.org/2000/svg"
   xmlns:sodipodi="http://sodipodi.sourceforge.net/DTD/sodipodi-0.dtd"
   xmlns:inkscape="http://www.inkscape.org/namespaces/inkscape"
   version="1.1"
   x="0px"
   y="0px"
   width="397px"
   height="119px"
   viewBox="-14.1 -4.4 397 119"
   enable-background="new -14.1 -4.4 397 119"
   xml:space="preserve"
   id="svg2"
   inkscape:version="0.48.3.1 r9886"
   sodipodi:docname="CNX_BioNonMaj_Concept.svg"><metadata
   id="metadata44"><rdf:RDF><cc:Work
       rdf:about=""><dc:format>image/svg+xml</dc:format><dc:type
         rdf:resource="http://purl.org/dc/dcmitype/StillImage" /><dc:title></dc:title></cc:Work></rdf:RDF></metadata><sodipodi:namedview
   pagecolor="#ffffff"
   bordercolor="#666666"
   borderopacity="1"
   objecttolerance="10"
   gridtolerance="10"
   guidetolerance="10"
   inkscape:pageopacity="0"
   inkscape:pageshadow="2"
   inkscape:window-width="1360"
   inkscape:window-height="744"
   id="namedview42"
   showgrid="false"
   showguides="true"
   inkscape:guide-bbox="true"
   inkscape:zoom="2"
   inkscape:cx="153.02486"
   inkscape:cy="43.769709"
   inkscape:window-x="0"
   inkscape:window-y="303"
   inkscape:window-maximized="1"
   inkscape:current-layer="svg2"><sodipodi:guide
     orientation="1,0"
     position="213.77647,139.36581"
     id="guide3021" /><sodipodi:guide
     orientation="0,1"
     position="144.29912,95.788303"
     id="guide3022" /><sodipodi:guide
     orientation="0,1"
     position="105.65491,32.888688"
     id="guide3024" /><sodipodi:guide
     orientation="1,0"
     position="3.2888688,90.855"
     id="guide3026" /></sodipodi:namedview>
<defs
   id="defs4">
</defs>


















<g
   transform="matrix(0.5631022,0,0,0.5631022,-10.811131,20.75126)"
   id="g3000"><path
     style="fill:#517542"
     inkscape:connector-curvature="0"
     id="path5047"
     d="m 28.1,50.1 -2.3,1.7 c -1.2,-1.6 -2.8,-2.9 -4.5,-3.7 -1.7,-0.8 -3.7,-1.3 -5.8,-1.3 -2.3,0 -4.4,0.5 -6.4,1.7 -2,1.2 -3.5,2.6 -4.5,4.4 -1,1.8 -1.6,4 -1.6,6.3 0,3.5 1.2,6.4 3.6,8.8 2.4,2.4 5.4,3.5 9.1,3.5 4,0 7.4,-1.6 10.1,-4.7 l 2.3,1.7 c -1.4,1.8 -3.2,3.2 -5.4,4.2 -2.2,1 -4.5,1.5 -7.2,1.5 -5,0 -9,-1.7 -11.9,-5 C 1.2,66.3 0,62.9 0,58.9 0,54.7 1.5,51.2 4.4,48.3 7.3,45.4 11.1,44 15.5,44 c 2.7,0 5.1,0.5 7.3,1.6 2.2,1.1 3.9,2.5 5.3,4.5 z" /><path
     style="fill:#517542"
     inkscape:connector-curvature="0"
     id="path5049"
     d="M 68.6,73.5 V 44.7 h 0.6 l 19.1,22 v -22 h 2.8 v 28.7 h -0.6 l -19,-21.8 v 21.8 h -2.9 z" /><path
     style="fill:#517542"
     inkscape:connector-curvature="0"
     id="path5051"
     d="m 125,50.1 -2.3,1.7 c -1.2,-1.6 -2.8,-2.9 -4.5,-3.7 -1.7,-0.8 -3.7,-1.3 -5.8,-1.3 -2.3,0 -4.4,0.5 -6.4,1.7 -2,1.2 -3.5,2.6 -4.5,4.4 -1,1.8 -1.6,3.9 -1.6,6.3 0,3.5 1.2,6.4 3.6,8.8 2.4,2.4 5.4,3.5 9.1,3.5 4,0 7.4,-1.6 10.1,-4.7 l 2.3,1.7 c -1.4,1.8 -3.2,3.2 -5.4,4.2 -2.2,1 -4.5,1.5 -7.2,1.5 -5,0 -9,-1.7 -11.9,-5 C 98.1,66.4 96.8,63 96.8,59 c 0,-4.2 1.5,-7.7 4.4,-10.6 2.9,-2.9 6.6,-4.3 11.1,-4.3 2.7,0 5.1,0.5 7.3,1.6 2.2,1.1 4,2.4 5.4,4.4 z" /><path
     style="fill:#517542"
     inkscape:connector-curvature="0"
     id="path5053"
     d="m 130.7,44.7 h 16.5 v 2.8 h -13.6 v 9 h 13.5 v 2.8 h -13.5 v 11.3 h 13.5 v 2.8 H 130.8 V 44.7 z" /><path
     style="fill:#517542"
     inkscape:connector-curvature="0"
     id="path5055"
     d="m 152.1,44.7 h 5.7 c 3.3,0 5.5,0.1 6.6,0.4 1.6,0.4 3,1.2 4,2.5 1,1.3 1.6,2.8 1.6,4.7 0,1.9 -0.5,3.5 -1.5,4.7 -1,1.2 -2.4,2.1 -4.2,2.5 -1.3,0.3 -3.7,0.5 -7.3,0.5 h -2 v 13.4 h -2.9 V 44.7 z m 2.9,2.8 v 9.7 l 4.9,0.1 c 2,0 3.4,-0.2 4.3,-0.5 0.9,-0.3 1.6,-0.9 2.1,-1.7 0.5,-0.8 0.8,-1.7 0.8,-2.7 0,-1 -0.3,-1.8 -0.8,-2.6 -0.5,-0.8 -1.2,-1.4 -2.1,-1.7 -0.9,-0.3 -2.2,-0.5 -4.2,-0.5 h -5 z" /><path
     style="fill:#517542"
     inkscape:connector-curvature="0"
     id="path5057"
     d="m 173,47.5 v -2.8 h 15.7 v 2.8 h -6.4 v 25.9 h -2.9 V 47.5 H 173 z" /><path
     style="fill:#77787b"
     inkscape:connector-curvature="0"
     id="path5059"
     d="m 196.6,56.5 6.2,-0.2 v 14.6 c 0,0.4 0.1,0.7 0.3,0.8 0.3,0.2 0.6,0.4 1,0.4 h 1.8 v 1.4 H 197 V 72 h 1.6 c 0.5,0 0.8,-0.1 1.1,-0.4 C 200,71.3 200,71 200,70.5 V 59.8 c 0,-0.7 -0.2,-1.2 -0.5,-1.5 -0.4,-0.3 -0.9,-0.5 -1.6,-0.5 h -1.3 v -1.3 z m 4.3,-10.1 c 0.5,0 0.9,0.2 1.3,0.6 0.4,0.4 0.6,0.9 0.6,1.4 0,0.5 -0.2,1 -0.5,1.4 -0.4,0.4 -0.8,0.6 -1.3,0.6 -0.5,0 -0.9,-0.2 -1.3,-0.6 -0.4,-0.4 -0.6,-0.9 -0.6,-1.4 0,-0.5 0.2,-1 0.6,-1.4 0.3,-0.4 0.7,-0.6 1.2,-0.6 z" /><path
     style="fill:#77787b"
     inkscape:connector-curvature="0"
     id="path5061"
     d="m 207.6,56.5 5.2,-0.3 c 0.2,1.1 0.4,2.3 0.5,3.7 0.7,-1.2 1.5,-2.1 2.5,-2.8 0.9,-0.6 2,-0.9 3.2,-0.9 1,0 1.9,0.2 2.6,0.7 0.7,0.4 1.3,1.1 1.7,2.1 0.4,1 0.6,2 0.6,3.2 v 8.2 c 0,0.6 0.1,1.1 0.4,1.3 0.3,0.2 0.7,0.4 1.3,0.4 h 1.1 v 1.4 h -8.2 V 72 h 0.8 c 0.7,0 1.2,-0.1 1.5,-0.4 0.3,-0.3 0.4,-0.6 0.4,-1.1 v -7.2 c 0,-1.6 -0.2,-2.7 -0.7,-3.5 -0.6,-1.1 -1.6,-1.6 -2.8,-1.6 -1.2,0 -2.3,0.5 -3.1,1.6 -0.8,1.1 -1.3,2.5 -1.3,4.3 v 6.3 c 0,0.6 0.1,1.1 0.4,1.3 0.3,0.3 0.7,0.4 1.3,0.4 h 1.1 v 1.4 h -8.2 V 72 h 1.1 c 0.5,0 1,-0.1 1.2,-0.4 0.3,-0.2 0.4,-0.5 0.4,-0.9 V 59.8 c 0,-0.7 -0.2,-1.3 -0.5,-1.6 -0.4,-0.4 -0.9,-0.6 -1.5,-0.6 h -0.8 v -1.1 z" /><path
     inkscape:connector-curvature="0"
     id="path5063"
     d="m 246.7,46.1 h 1.1 l 8.8,24.4 c 0.4,1 1.1,1.5 2.2,1.5 h 0.8 v 1.4 h -9.8 V 72 h 0.8 c 1,0 1.7,-0.1 2.2,-0.4 0.3,-0.2 0.4,-0.4 0.4,-0.8 0,-0.2 0,-0.4 -0.1,-0.7 l -2,-5.7 h -9.7 l -1.1,3.3 c -0.3,0.9 -0.4,1.6 -0.4,2.1 0,0.6 0.3,1.1 0.8,1.5 0.5,0.4 1.2,0.6 2.2,0.6 h 0.8 v 1.4 h -8.9 V 72 c 1,0 1.7,-0.2 2.3,-0.7 0.6,-0.5 1.1,-1.3 1.5,-2.6 l 8.1,-22.6 z m -0.5,5.1 -4.4,11.9 h 8.7 l -4.3,-11.9 z" /><path
     inkscape:connector-curvature="0"
     id="path5065"
     d="m 278.9,48.7 1.1,-2.6 h 1 l 0.4,10.8 h -1.1 c -0.7,-3 -1.6,-5.3 -2.8,-6.7 -1.4,-1.8 -3,-2.7 -4.9,-2.7 -2.1,0 -3.7,1 -5,3 -1.3,2 -1.9,5.4 -1.9,10.2 0,4 0.7,7.1 2.2,9.2 1.3,1.8 3,2.7 5.3,2.7 2,0 3.7,-0.7 5,-2.1 1.3,-1.4 2.2,-3.5 2.6,-6.3 h 1.2 c -0.3,3.2 -1.3,5.6 -3,7.3 -1.7,1.7 -3.7,2.6 -6.3,2.6 -2,0 -3.9,-0.6 -5.6,-1.7 -1.7,-1.1 -3.1,-2.7 -4.1,-4.8 -1,-2.1 -1.5,-4.4 -1.5,-6.9 0,-2.7 0.5,-5.2 1.6,-7.5 1.1,-2.3 2.4,-4.1 4.1,-5.3 1.6,-1.2 3.4,-1.8 5.3,-1.8 1.1,0 2.1,0.2 3.1,0.6 1.1,0.4 2.2,1.1 3.3,2 z" /><path
     inkscape:connector-curvature="0"
     id="path5067"
     d="m 285.3,46.7 h 19.9 l 0.5,10.1 h -1.1 c -0.8,-5.9 -2.7,-8.9 -5.9,-8.9 -0.6,0 -1.1,0.1 -1.3,0.4 -0.2,0.2 -0.4,0.6 -0.4,1.2 v 21.4 c 0,0.4 0.1,0.8 0.3,1 0.2,0.2 0.6,0.3 1.1,0.3 h 2.5 v 1.4 H 289.5 V 72 h 2.8 c 0.4,0 0.7,-0.1 0.9,-0.3 0.2,-0.2 0.3,-0.5 0.3,-0.8 V 49.2 c 0,-0.5 -0.1,-0.8 -0.4,-1 -0.3,-0.2 -0.7,-0.4 -1.2,-0.4 -1.6,0 -2.9,0.8 -4,2.5 -0.9,1.4 -1.5,3.5 -1.9,6.4 h -1.2 l 0.5,-10 z" /><path
     inkscape:connector-curvature="0"
     id="path5069"
     d="M 307.7,46.7 H 319 V 48 h -1.9 c -0.9,0 -1.4,0.1 -1.6,0.4 -0.2,0.2 -0.3,0.7 -0.3,1.5 v 20.2 c 0,0.8 0.1,1.3 0.3,1.5 0.3,0.3 0.7,0.4 1.4,0.4 h 2.2 v 1.4 H 307.8 V 72 h 2.1 c 0.8,0 1.2,-0.1 1.5,-0.4 0.2,-0.2 0.3,-0.8 0.3,-1.6 V 49.9 c 0,-0.8 -0.1,-1.2 -0.3,-1.4 -0.3,-0.3 -0.9,-0.4 -1.7,-0.4 h -1.9 v -1.4 z" /><path
     inkscape:connector-curvature="0"
     id="path5071"
     d="m 333.3,46.1 c 2.1,0 4,0.6 5.8,1.8 1.8,1.2 3.2,2.8 4.2,5 1,2.1 1.5,4.5 1.5,7.2 0,2.7 -0.5,5.1 -1.5,7.2 -1,2.1 -2.4,3.8 -4.2,5 -1.8,1.2 -3.7,1.8 -5.7,1.8 -2,0 -3.8,-0.6 -5.5,-1.8 -1.7,-1.2 -3.1,-2.9 -4.2,-5 -1,-2.2 -1.6,-4.6 -1.6,-7.3 0,-2.6 0.5,-5 1.5,-7.1 1,-2.1 2.4,-3.8 4.2,-5 1.8,-1.2 3.6,-1.8 5.5,-1.8 z m 0.2,1.4 c -2.2,0 -3.9,1 -5.2,2.9 -1.3,1.9 -2,5.1 -2,9.5 0,4.8 0.7,8.1 2.1,9.9 1.4,1.8 3.1,2.7 5.1,2.7 1.4,0 2.7,-0.4 3.7,-1.2 1.1,-0.8 1.9,-2.1 2.6,-4 0.6,-1.8 1,-4.2 1,-7.1 0,-3.2 -0.3,-5.7 -0.9,-7.5 -0.6,-1.8 -1.4,-3.1 -2.6,-4 -1.2,-0.8 -2.4,-1.2 -3.8,-1.2 z" /><path
     inkscape:connector-curvature="0"
     id="path5073"
     d="m 348.1,46.7 h 5.9 l 14.8,21 V 52.5 c 0,-1.5 -0.3,-2.7 -1,-3.4 -0.6,-0.7 -1.5,-1 -2.6,-1 v -1.4 h 8.6 V 48 c -0.9,0 -1.5,0.1 -2,0.4 -0.4,0.3 -0.8,0.7 -1.1,1.4 -0.3,0.7 -0.5,1.5 -0.5,2.3 v 21.2 h -1.6 L 353.3,51.4 v 16.1 c 0,1.5 0.3,2.5 1,3.3 0.7,0.8 1.7,1.1 3.1,1.1 v 1.4 h -9.3 V 72 c 1.2,0 2.1,-0.5 2.8,-1.3 0.7,-0.8 1,-1.8 1,-2.9 v -18 l -0.3,-0.3 c -0.6,-0.7 -0.9,-1 -1.2,-1.2 -0.3,-0.2 -0.7,-0.3 -1.2,-0.3 h -1.1 v -1.3 z" /><path
     style="fill:#517542"
     inkscape:connector-curvature="0"
     id="path5075"
     d="m 56.8,48.2 -4.7,-0.6 c 0,0 20.8,-28.6 48.4,-41.9 27.6,-13.3 44.4,-4.5 18.3,34.8 -2.4,3.6 18.8,-34.3 7.4,-36.4 -3,-0.8 -17.7,-9.4 -69.4,44.1 z" /><path
     style="fill:#517542"
     inkscape:connector-curvature="0"
     id="path5077"
     d="m 35.5,59.2 c 0,-2.3 0.5,-4.4 1.6,-6.3 1.1,-1.9 2.6,-3.4 4.5,-4.5 1.9,-1.1 3.9,-1.7 6,-1.7 2.2,0 4.2,0.6 6.1,1.7 0.6,0.3 1.2,0.8 1.7,1.2 l 2,-2.1 C 54.6,45.2 51.3,44 47.4,44 c -2.7,0 -5.2,0.7 -7.5,2 -2.3,1.3 -4.1,3.2 -5.5,5.5 -1.3,2.4 -2,4.9 -2,7.7 0,4 1.4,7.4 4,10.2 l 2,-2.1 c -1.8,-2.2 -2.9,-4.9 -2.9,-8.1 z" /><path
     inkscape:connector-curvature="0"
     id="path5079"
     d="m 39.4,98.7 c -6,-8 4.1,-21.3 5.2,-23.7 0.2,-0.3 0.2,-0.7 0.3,-1.1 -1.2,-0.2 -1.9,-0.6 -3,-1.1 L 43.8,72 c 0.3,0.1 0.3,-0.2 0.6,-0.1 -0.3,-1.1 0.3,1.4 0.3,1.4 0,0 -2.4,-1.6 -3.1,-0.4 -3.4,5.4 -8.9,15.6 -7,23.4 1.5,6.5 12.8,15.2 39.9,-3.8 28.1,-19.6 -24.8,20 -35.1,6.2 z" /><path
     style="fill:#517542"
     inkscape:connector-curvature="0"
     id="path5081"
     d="m 61.3,52.2 -2.2,2.3 c 0.5,1.4 0.8,2.9 0.8,4.5 0,2.3 -0.5,4.4 -1.6,6.3 -1.1,1.9 -2.5,3.4 -4.4,4.4 -1.9,1.1 -4,1.6 -6.2,1.6 -1.1,0 -2.2,-0.1 -3.2,-0.4 -0.3,-0.1 -0.6,-0.2 -0.9,-0.3 l -2.1,2.2 c 1,0.5 2.2,0.8 3.3,1 0.9,0.2 1.9,0.3 2.9,0.3 4.2,0 7.8,-1.5 10.7,-4.4 2.9,-2.9 4.4,-6.5 4.4,-10.7 0.1,-2.4 -0.5,-4.7 -1.5,-6.8 z" /><polygon
     style="stroke:#517542"
     id="polygon5083"
     points="70.2,103.7 64.6,89 75.4,89.7 53.1,63.7 53.1,98 60.9,90.1 66.4,105.3 " /></g></svg>