<?xml version="1.0" encoding="UTF-8" standalone="no"?>
<!-- Generator: Adobe Illustrator 14.0.0, SVG Export Plug-In  -->

<svg
   xmlns:dc="http://purl.org/dc/elements/1.1/"
   xmlns:cc="http://creativecommons.org/ns#"
   xmlns:rdf="http://www.w3.org/1999/02/22-rdf-syntax-ns#"
   xmlns:svg="http://www.w3.org/2000/svg"
   xmlns="http://www.w3.org/2000/svg"
   xmlns:sodipodi="http://sodipodi.sourceforge.net/DTD/sodipodi-0.dtd"
   xmlns:inkscape="http://www.inkscape.org/namespaces/inkscape"
   version="1.1"
   x="0px"
   y="0px"
   width="433px"
   height="64px"
   viewBox="0 -3.5 433 64"
   enable-background="new 0 -3.5 433 64"
   xml:space="preserve"
   id="svg3225"
   inkscape:version="0.48.3.1 r9886"
   sodipodi:docname="CNX_BioNonMaj_Evolution.svg"><metadata
   id="metadata3275"><rdf:RDF><cc:Work
       rdf:about=""><dc:format>image/svg+xml</dc:format><dc:type
         rdf:resource="http://purl.org/dc/dcmitype/StillImage" /><dc:title></dc:title></cc:Work></rdf:RDF></metadata><sodipodi:namedview
   pagecolor="#ffffff"
   bordercolor="#666666"
   borderopacity="1"
   objecttolerance="10"
   gridtolerance="10"
   guidetolerance="10"
   inkscape:pageopacity="0"
   inkscape:pageshadow="2"
   inkscape:window-width="1360"
   inkscape:window-height="744"
   id="namedview3273"
   showgrid="false"
   showguides="true"
   inkscape:guide-bbox="true"
   inkscape:zoom="1.8794886"
   inkscape:cx="216.5"
   inkscape:cy="32"
   inkscape:window-x="0"
   inkscape:window-y="303"
   inkscape:window-maximized="1"
   inkscape:current-layer="svg3225"><sodipodi:guide
     orientation="1,0"
     position="350.63982,132.43049"
     id="guide3301" /><sodipodi:guide
     orientation="0,1"
     position="459.69953,36.180055"
     id="guide3539" /></sodipodi:namedview>
<defs
   id="defs3227">
</defs>






















<g
   id="g3541"
   transform="matrix(0.80906148,0,0,0.80906148,0.63982,13.161694)"><path
     style="fill:#ffffff"
     inkscape:connector-curvature="0"
     id="path3488"
     d="M 261.5,21.4 275.8,52 h -3.3 L 267.7,41.9 H 254.5 L 249.7,52 h -3.4 l 14.5,-30.6 h 0.7 z m -0.4,6.5 -5.2,11.1 h 10.5 l -5.3,-11.1 z" /><path
     style="fill:#ffffff"
     inkscape:connector-curvature="0"
     id="path3490"
     d="m 311.1,27 -2.4,1.9 c -1.3,-1.7 -2.9,-3 -4.8,-3.9 -1.9,-0.9 -3.9,-1.3 -6.1,-1.3 -2.4,0 -4.7,0.6 -6.8,1.8 -2.1,1.2 -3.7,2.7 -4.8,4.7 -1.1,2 -1.7,4.2 -1.7,6.7 0,3.7 1.3,6.8 3.8,9.3 2.6,2.5 5.8,3.7 9.7,3.7 4.3,0 7.9,-1.7 10.7,-5 l 2.4,1.8 c -1.5,1.9 -3.4,3.4 -5.7,4.5 -2.3,1.1 -4.8,1.6 -7.6,1.6 -5.4,0 -9.6,-1.8 -12.7,-5.3 -2.6,-3 -3.9,-6.6 -3.9,-10.9 0,-4.5 1.6,-8.2 4.7,-11.3 3.1,-3.1 7.1,-4.6 11.8,-4.6 2.9,0 5.4,0.6 7.7,1.7 2.3,1 4.2,2.6 5.7,4.6 z" /><path
     style="fill:#ffffff"
     inkscape:connector-curvature="0"
     id="path3492"
     d="m 316.3,24.4 v -3 h 16.8 v 3 h -6.8 V 52 h -3.1 V 24.4 h -6.9 z" /><path
     style="fill:#ffffff"
     inkscape:connector-curvature="0"
     id="path3494"
     d="m 339.2,21.4 h 3.1 V 52 h -3.1 V 21.4 z" /><path
     style="fill:#ffffff"
     inkscape:connector-curvature="0"
     id="path3496"
     d="m 365.9,20.6 c 4.6,0 8.5,1.5 11.6,4.6 3.1,3.1 4.7,6.9 4.7,11.4 0,4.5 -1.6,8.3 -4.7,11.4 -3.1,3.1 -6.9,4.7 -11.4,4.7 -4.5,0 -8.4,-1.6 -11.5,-4.7 -3.1,-3.1 -4.7,-6.9 -4.7,-11.3 0,-2.9 0.7,-5.7 2.1,-8.2 1.4,-2.5 3.4,-4.5 5.8,-5.9 2.6,-1.3 5.3,-2 8.1,-2 z m 0.2,3 c -2.3,0 -4.4,0.6 -6.4,1.8 -2,1.2 -3.6,2.8 -4.7,4.8 -1.1,2 -1.7,4.2 -1.7,6.7 0,3.6 1.3,6.7 3.8,9.2 2.5,2.5 5.6,3.8 9.1,3.8 2.4,0 4.6,-0.6 6.6,-1.7 2,-1.2 3.6,-2.7 4.7,-4.7 1.1,-2 1.7,-4.2 1.7,-6.7 0,-2.4 -0.6,-4.6 -1.7,-6.6 -1.1,-2 -2.7,-3.5 -4.8,-4.7 -2.1,-1.3 -4.3,-1.9 -6.6,-1.9 z" /><path
     style="fill:#ffffff"
     inkscape:connector-curvature="0"
     id="path3498"
     d="M 390.5,51.9 V 21.4 h 0.7 l 20.4,23.4 V 21.4 h 3 V 52 h -0.7 L 393.7,28.8 V 52 h -3.2 z" /><rect
     style="fill:#010101"
     x="0"
     id="rect3500"
     height="45"
     width="204.5"
     y="14.4" /><rect
     style="fill:#517542"
     id="rect3502"
     height="45"
     width="230.10001"
     y="14.4"
     x="202.5" /><path
     style="fill:#75b152"
     inkscape:connector-curvature="0"
     id="path3504"
     d="M 37,51.4 C 37,51.4 43,31.8 34.4,0 49.9,28.2 40.1,45.3 37,51.4 z" /><path
     style="fill:#517542"
     inkscape:connector-curvature="0"
     id="path3506"
     d="m 44.8,32.5 c 0,0 0.7,-24.4 11.7,-28.1 -6.4,10.4 -8.1,16 -11.7,28.1 z" /><text
     style="font-size:45.38660049px;fill:#ffffff;font-family:Century"
     id="text3508"
     font-size="45.3866"
     transform="translate(11.5562,51.3647)">e</text>
<text
     style="font-size:45.38660049px;fill:#ffffff;font-family:Century"
     id="text3510"
     font-size="45.3866"
     transform="translate(47.0679,51.3638)">olution</text>
<text
     style="font-size:41.29899979px;letter-spacing:2;fill:#ffffff;font-family:CenturyGothic"
     id="text3512"
     letter-spacing="2"
     font-size="41.299"
     transform="translate(251.7549,51.478)">ACTION</text>
<text
     style="font-size:40.1896019px;letter-spacing:1.39999998;fill:#ffffff;font-family:CenturyGothic"
     id="text3514"
     letter-spacing="1.4"
     font-size="40.1896"
     transform="matrix(0.7,0,0,0.7,212.0303,51.3628)">in</text>
</g></svg>