<?xml version="1.0" encoding="utf-8"?>
<!-- Generator: Adobe Illustrator 14.0.0, SVG Export Plug-In  -->
<!DOCTYPE svg PUBLIC "-//W3C//DTD SVG 1.1//EN" "http://www.w3.org/Graphics/SVG/1.1/DTD/svg11.dtd" [
	<!ENTITY ns_flows "http://ns.adobe.com/Flows/1.0/">
]>
<svg version="1.1"
	 xmlns="http://www.w3.org/2000/svg" xmlns:xlink="http://www.w3.org/1999/xlink" xmlns:a="http://ns.adobe.com/AdobeSVGViewerExtensions/3.0/"
	 x="0px" y="0px" width="616px" height="43px" viewBox="-0.71 -0.509 616 43" enable-background="new -0.71 -0.509 616 43"
	 xml:space="preserve">
<defs>
</defs>
<rect x="392.79" y="0.341" fill="#010101" width="222.143" height="42"/>
<rect fill="#010101" width="183.615" height="42"/>
<rect x="183.615" y="0.341" fill="#602E1A" width="209.175" height="42"/>
<path fill="#CFB7A1" d="M66.886,22.992H55.091c0.059,2.508,0.527,4.277,1.406,5.309c1.008,1.16,2.291,1.74,3.85,1.74
	c2.297,0,4.143-1.307,5.537-3.92l1.143,0.492c-1.711,3.328-4.184,4.992-7.418,4.992c-2.203,0-4.058-0.797-5.563-2.391
	s-2.259-3.633-2.259-6.117c0-2.672,0.741-4.831,2.224-6.478s3.308-2.47,5.476-2.47c1.594,0,2.971,0.41,4.131,1.23
	s2.033,1.998,2.619,3.533C66.646,19.992,66.863,21.352,66.886,22.992z"/>
<line fill="none" stroke="#CFB7A1" x1="80.281" y1="14.716" x2="68.454" y2="19.707"/>
<line fill="none" stroke="#602E1A" x1="73.276" y1="10.911" x2="66.665" y2="16.517"/>
<line fill="none" stroke="#CFB7A1" x1="42.147" y1="7.196" x2="52.521" y2="16.394"/>
<line fill="none" stroke="#602E1A" x1="50.968" y1="6.237" x2="55.353" y2="13.714"/>
<line fill="none" stroke="#CFB7A1" x1="70.266" y1="3.87" x2="64.444" y2="14.616"/>
<line fill="none" stroke="#602E1A" x1="63.162" y1="4.391" x2="61.406" y2="12.879"/>
<line fill="none" stroke="#CFB7A1" x1="56.951" y1="0.435" x2="58.025" y2="12.58"/>
<line fill="none" stroke="#602E1A" x1="43.165" y1="15.778" x2="51.241" y2="18.92"/>
<line fill="none" stroke="#CFB7A1" x1="50.147" y1="20.819" x2="37.504" y2="18.595"/>
<path fill="#FFFFFF" d="M25.619,22.839H13.824c0.059,2.508,0.527,4.277,1.406,5.309c1.008,1.16,2.291,1.74,3.85,1.74
	c2.297,0,4.143-1.307,5.537-3.92l1.143,0.492c-1.711,3.328-4.184,4.992-7.418,4.992c-2.203,0-4.058-0.797-5.563-2.391
	s-2.259-3.633-2.259-6.117c0-2.672,0.741-4.831,2.224-6.478s3.308-2.47,5.476-2.47c1.594,0,2.971,0.41,4.131,1.23
	s2.033,1.998,2.619,3.533C25.378,19.839,25.595,21.198,25.619,22.839z M13.824,21.591h7.137c0.422,0,0.75-0.144,0.984-0.431
	s0.352-0.776,0.352-1.468c0-1.289-0.401-2.385-1.204-3.287s-1.749-1.354-2.839-1.354c-1.219,0-2.253,0.545-3.103,1.635
	S13.859,19.411,13.824,21.591z"/>
<path fill="#FFFFFF" d="M29.431,14.489h8.104v1.195c-1.078,0.023-1.767,0.12-2.065,0.29s-0.448,0.413-0.448,0.729
	c0,0.258,0.059,0.516,0.177,0.773l4.367,9.721l3.974-9.425c0.059-0.164,0.088-0.328,0.088-0.491c0-0.854-0.841-1.387-2.523-1.597
	v-1.195h6.82v1.195c-0.691,0.07-1.242,0.258-1.652,0.562s-0.727,0.715-0.949,1.23l-6.035,13.975h-0.95l-6.48-14.361
	c-0.234-0.516-0.519-0.876-0.853-1.081s-0.858-0.313-1.573-0.325V14.489z"/>
<path fill="#FFFFFF" d="M66.694,22.839H54.899c0.059,2.508,0.527,4.277,1.406,5.309c1.008,1.16,2.291,1.74,3.85,1.74
	c2.297,0,4.143-1.307,5.537-3.92l1.143,0.492c-1.711,3.328-4.184,4.992-7.418,4.992c-2.203,0-4.058-0.797-5.563-2.391
	s-2.259-3.633-2.259-6.117c0-2.672,0.741-4.831,2.224-6.478s3.308-2.47,5.476-2.47c1.594,0,2.971,0.41,4.131,1.23
	s2.033,1.998,2.619,3.533C66.454,19.839,66.67,21.198,66.694,22.839z M54.899,21.591h7.137c0.422,0,0.75-0.144,0.984-0.431
	s0.352-0.776,0.352-1.468c0-1.289-0.401-2.385-1.204-3.287s-1.749-1.354-2.839-1.354c-1.219,0-2.253,0.545-3.103,1.635
	S54.934,19.411,54.899,21.591z"/>
<path fill="#FFFFFF" d="M72.527,14.489l5.924-0.299v6.662c0.633-2.191,1.395-3.85,2.285-4.975s1.992-1.688,3.305-1.688
	c0.891,0,1.603,0.272,2.136,0.817s0.8,1.274,0.8,2.188c0,0.738-0.179,1.312-0.536,1.723s-0.806,0.615-1.345,0.615
	c-0.527,0-0.952-0.176-1.274-0.527s-0.483-0.826-0.483-1.424c0-0.387,0.094-0.75,0.281-1.09c0.176-0.305,0.264-0.486,0.264-0.545
	c0-0.176-0.111-0.264-0.334-0.264c-0.48,0-1.025,0.281-1.635,0.844c-0.844,0.785-1.494,1.863-1.951,3.234
	c-0.703,2.133-1.055,3.838-1.055,5.115v3.533c0,0.398,0.141,0.703,0.422,0.914s0.762,0.316,1.441,0.316h2.092v1.318h-10.23v-1.318
	h1.635c0.551,0,0.967-0.108,1.248-0.325s0.422-0.478,0.422-0.782V18.04c0-0.797-0.17-1.38-0.51-1.749s-0.826-0.554-1.459-0.554
	h-1.441V14.489z"/>
<path fill="#FFFFFF" d="M91.246,14.489h7.893v1.195H98.4c-0.691,0-1.163,0.091-1.415,0.272s-0.378,0.442-0.378,0.782
	c0,0.152,0.035,0.305,0.105,0.457l4.589,9.897l3.409-8.209c0.246-0.586,0.369-1.16,0.369-1.723c0-0.434-0.17-0.771-0.51-1.011
	s-1.02-0.396-2.039-0.466v-1.195h6.855v1.195c-1.324,0.129-2.215,0.721-2.672,1.775l-6.094,14.177
	c-1.035,2.408-2.074,4.063-3.117,4.965c-1.055,0.914-2.186,1.371-3.393,1.371c-0.879,0-1.585-0.24-2.118-0.721s-0.8-1.072-0.8-1.775
	c0-0.527,0.164-0.961,0.492-1.301s0.738-0.51,1.23-0.51c0.445,0,0.82,0.146,1.125,0.439s0.457,0.645,0.457,1.055
	c0,0.129-0.023,0.305-0.07,0.527c-0.047,0.176-0.07,0.305-0.07,0.387c0,0.281,0.182,0.422,0.545,0.422
	c0.387,0,0.823-0.141,1.31-0.422s0.94-0.732,1.362-1.354s1.162-1.997,2.219-4.127l-6.25-13.398c-0.222-0.469-0.5-0.817-0.833-1.046
	c-0.333-0.229-0.821-0.384-1.464-0.466V14.489z"/>
<path fill="#FFFFFF" d="M121.335,4.962l6.434-0.299v22.535c0,0.879,0.167,1.506,0.501,1.881s0.835,0.562,1.503,0.562h1.143v1.318
	h-5.625l-0.422-3.357c-0.668,1.195-1.45,2.095-2.347,2.698s-1.901,0.905-3.015,0.905c-1.875,0-3.472-0.785-4.79-2.355
	s-1.978-3.645-1.978-6.223c0-2.789,0.844-5.016,2.531-6.68c1.324-1.301,2.848-1.951,4.57-1.951c1.055,0,2.001,0.264,2.839,0.791
	s1.567,1.324,2.188,2.391V7.88c0-0.492-0.19-0.882-0.571-1.169s-0.976-0.431-1.784-0.431h-1.178V4.962z M120.315,15.456
	c-1.266,0-2.271,0.521-3.015,1.564s-1.116,2.801-1.116,5.273c0,2.684,0.381,4.573,1.143,5.669s1.74,1.644,2.936,1.644
	c1.277,0,2.37-0.612,3.278-1.837s1.362-3.015,1.362-5.37c0-2.227-0.486-3.979-1.459-5.256
	C122.601,16.019,121.558,15.456,120.315,15.456z"/>
<path fill="#FFFFFF" d="M152.451,29.149l0.633,0.984c-0.855,0.879-1.805,1.318-2.848,1.318c-0.797,0-1.468-0.217-2.013-0.65
	s-1.022-1.195-1.433-2.285c-1.113,1.172-2.092,1.954-2.936,2.347s-1.857,0.589-3.041,0.589c-1.688,0-2.971-0.363-3.85-1.09
	s-1.318-1.658-1.318-2.795c0-1.711,1.005-3.132,3.015-4.263s4.685-1.884,8.024-2.259V18.55c0-0.891-0.357-1.652-1.072-2.285
	s-1.623-0.949-2.725-0.949c-1.02,0-1.898,0.211-2.637,0.633c-0.527,0.316-0.791,0.627-0.791,0.932c0,0.176,0.141,0.451,0.422,0.826
	c0.34,0.469,0.51,0.885,0.51,1.248c0,0.527-0.17,0.958-0.51,1.292s-0.785,0.501-1.336,0.501c-0.586,0-1.075-0.199-1.468-0.598
	s-0.589-0.908-0.589-1.529c0-1.16,0.653-2.221,1.96-3.182s3.021-1.441,5.142-1.441c1.957,0,3.451,0.422,4.482,1.266
	c1.031,0.855,1.547,1.893,1.547,3.111v9c0,0.797,0.129,1.383,0.387,1.758c0.258,0.387,0.592,0.58,1.002,0.58
	C151.466,29.712,151.947,29.524,152.451,29.149z M146.685,22.206c-2.977,0.41-5.086,1.078-6.328,2.004
	c-0.926,0.703-1.389,1.699-1.389,2.988c0,0.902,0.24,1.608,0.721,2.118s1.107,0.765,1.881,0.765c1.383,0,2.581-0.524,3.595-1.573
	s1.521-2.364,1.521-3.946V22.206z"/>
<path fill="#FFFFFF" d="M154.858,14.489h7.893v1.195h-0.738c-0.691,0-1.163,0.091-1.415,0.272s-0.378,0.442-0.378,0.782
	c0,0.152,0.035,0.305,0.105,0.457l4.589,9.897l3.409-8.209c0.246-0.586,0.369-1.16,0.369-1.723c0-0.434-0.17-0.771-0.51-1.011
	s-1.02-0.396-2.039-0.466v-1.195h6.855v1.195c-1.324,0.129-2.215,0.721-2.672,1.775l-6.094,14.177
	c-1.035,2.408-2.074,4.063-3.117,4.965c-1.055,0.914-2.186,1.371-3.393,1.371c-0.879,0-1.585-0.24-2.118-0.721s-0.8-1.072-0.8-1.775
	c0-0.527,0.164-0.961,0.492-1.301s0.738-0.51,1.23-0.51c0.445,0,0.82,0.146,1.125,0.439s0.457,0.645,0.457,1.055
	c0,0.129-0.023,0.305-0.07,0.527c-0.047,0.176-0.07,0.305-0.07,0.387c0,0.281,0.182,0.422,0.545,0.422
	c0.387,0,0.823-0.141,1.31-0.422s0.94-0.732,1.362-1.354s1.162-1.997,2.219-4.127l-6.25-13.398c-0.222-0.469-0.5-0.817-0.833-1.046
	c-0.333-0.229-0.821-0.384-1.464-0.466V14.489z"/>
<path fill="#FFFFFF" d="M490.261,9.373c0,0.743-0.183,1.433-0.551,2.067c-0.367,0.637-0.871,1.141-1.512,1.512
	c-0.641,0.372-1.328,0.558-2.059,0.558c-0.732,0-1.418-0.185-2.059-0.555s-1.147-0.874-1.516-1.51
	c-0.369-0.639-0.554-1.321-0.554-2.05c0-0.735,0.185-1.426,0.554-2.07c0.368-0.645,0.872-1.151,1.512-1.519
	c0.64-0.369,1.327-0.551,2.062-0.551c0.734,0,1.42,0.183,2.055,0.548c0.636,0.367,1.139,0.872,1.51,1.517
	C490.077,7.963,490.261,8.648,490.261,9.373z M489.69,9.378c0-0.631-0.16-1.224-0.479-1.778c-0.317-0.557-0.75-0.994-1.296-1.312
	c-0.546-0.318-1.134-0.478-1.765-0.478c-0.634,0-1.229,0.16-1.783,0.478c-0.555,0.318-0.991,0.755-1.308,1.312
	c-0.316,0.555-0.476,1.151-0.476,1.789c0,0.634,0.159,1.226,0.476,1.776s0.753,0.985,1.31,1.303
	c0.557,0.319,1.151,0.478,1.781,0.478c0.626,0,1.215-0.16,1.765-0.481c0.55-0.319,0.983-0.754,1.3-1.303
	C489.53,10.615,489.69,10.02,489.69,9.378z M484.421,6.97h1.98c0.463,0,0.795,0.046,0.998,0.14c0.203,0.094,0.368,0.245,0.496,0.455
	s0.191,0.456,0.191,0.736c0,0.242-0.046,0.451-0.137,0.625c-0.069,0.13-0.222,0.272-0.456,0.426
	c0.213,0.105,0.357,0.227,0.431,0.366c0.073,0.138,0.109,0.376,0.109,0.712v0.536c0,0.253,0.057,0.463,0.168,0.632l0.08,0.126
	h-0.841c-0.055-0.197-0.092-0.431-0.115-0.702l-0.038-0.584c-0.014-0.214-0.047-0.365-0.102-0.453
	c-0.054-0.087-0.132-0.15-0.23-0.19c-0.1-0.038-0.298-0.057-0.594-0.057h-1.189v1.985h-0.752V6.97z M485.173,7.653V9.06h1.166
	c0.353,0,0.592-0.04,0.719-0.12c0.186-0.116,0.279-0.312,0.279-0.588c0-0.242-0.067-0.419-0.2-0.531
	c-0.133-0.111-0.384-0.168-0.752-0.168H485.173z"/>
<path fill="#FFFFFF" d="M212.733,15.258l-1.641,1.259c-0.905-1.179-1.993-2.072-3.261-2.681c-1.269-0.608-2.662-0.913-4.181-0.913
	c-1.66,0-3.197,0.398-4.612,1.195c-1.415,0.797-2.511,1.868-3.29,3.211c-0.778,1.344-1.167,2.855-1.167,4.534
	c0,2.538,0.87,4.655,2.61,6.352c1.74,1.698,3.935,2.547,6.585,2.547c2.914,0,5.352-1.141,7.314-3.424l1.641,1.245
	c-1.038,1.32-2.332,2.341-3.883,3.063c-1.552,0.721-3.285,1.082-5.199,1.082c-3.641,0-6.513-1.212-8.616-3.636
	c-1.764-2.046-2.646-4.518-2.646-7.413c0-3.046,1.068-5.609,3.205-7.689c2.136-2.08,4.812-3.119,8.028-3.119
	c1.943,0,3.697,0.384,5.263,1.153C210.45,12.794,211.733,13.871,212.733,15.258z"/>
<path fill="#FFFFFF" d="M226.816,10.872c3.152,0,5.79,1.052,7.914,3.155c2.123,2.103,3.185,4.692,3.185,7.767
	c0,3.047-1.06,5.631-3.178,7.753s-4.702,3.183-7.75,3.183c-3.086,0-5.691-1.056-7.814-3.169s-3.185-4.668-3.185-7.668
	c0-2,0.484-3.853,1.451-5.56s2.286-3.044,3.957-4.011S224.872,10.872,226.816,10.872z M226.909,12.895c-1.54,0-3,0.401-4.379,1.204
	s-2.456,1.883-3.231,3.242c-0.774,1.359-1.162,2.874-1.162,4.545c0,2.473,0.857,4.562,2.572,6.265s3.781,2.556,6.2,2.556
	c1.615,0,3.11-0.392,4.484-1.175c1.375-0.783,2.447-1.854,3.217-3.214s1.155-2.869,1.155-4.531c0-1.652-0.385-3.146-1.155-4.481
	c-0.77-1.336-1.854-2.405-3.252-3.207C229.959,13.296,228.477,12.895,226.909,12.895z"/>
<path fill="#FFFFFF" d="M242.103,32.206V11.396h0.453l13.851,15.952V11.396h2.051v20.811h-0.467l-13.737-15.758v15.758H242.103z"/>
<path fill="#FFFFFF" d="M263.536,32.206V11.396h0.453l13.851,15.952V11.396h2.051v20.811h-0.467l-13.737-15.758v15.758H263.536z"/>
<path fill="#FFFFFF" d="M284.969,11.396h11.926v2.037h-9.847v6.522h9.762v2.037h-9.762v8.177h9.762v2.037h-11.841V11.396z"/>
<path fill="#FFFFFF" d="M319.871,15.258l-1.641,1.259c-0.906-1.179-1.993-2.072-3.262-2.681s-2.662-0.913-4.18-0.913
	c-1.66,0-3.197,0.398-4.612,1.195c-1.415,0.797-2.512,1.868-3.289,3.211c-0.778,1.344-1.168,2.855-1.168,4.534
	c0,2.538,0.87,4.655,2.61,6.352c1.74,1.698,3.936,2.547,6.586,2.547c2.914,0,5.353-1.141,7.314-3.424l1.641,1.245
	c-1.037,1.32-2.332,2.341-3.884,3.063c-1.551,0.721-3.284,1.082-5.198,1.082c-3.642,0-6.513-1.212-8.616-3.636
	c-1.764-2.046-2.646-4.518-2.646-7.413c0-3.046,1.068-5.609,3.204-7.689c2.137-2.08,4.812-3.119,8.029-3.119
	c1.942,0,3.696,0.384,5.263,1.153C317.588,12.794,318.871,13.871,319.871,15.258z"/>
<path fill="#FFFFFF" d="M321.978,13.433v-2.037h11.402v2.037h-4.64v18.773h-2.122V13.433H321.978z"/>
<path fill="#FFFFFF" d="M336.083,11.396h2.079v20.811h-2.079V11.396z"/>
<path fill="#FFFFFF" d="M352.84,10.872c3.152,0,5.79,1.052,7.913,3.155c2.124,2.103,3.186,4.692,3.186,7.767
	c0,3.047-1.06,5.631-3.178,7.753c-2.119,2.122-4.703,3.183-7.751,3.183c-3.086,0-5.691-1.056-7.814-3.169s-3.186-4.668-3.186-7.668
	c0-2,0.484-3.853,1.451-5.56c0.968-1.707,2.286-3.044,3.957-4.011C349.088,11.355,350.896,10.872,352.84,10.872z M352.932,12.895
	c-1.539,0-2.999,0.401-4.378,1.204c-1.38,0.802-2.457,1.883-3.231,3.242c-0.774,1.359-1.162,2.874-1.162,4.545
	c0,2.473,0.857,4.562,2.572,6.265s3.781,2.556,6.199,2.556c1.615,0,3.11-0.392,4.485-1.175c1.374-0.783,2.446-1.854,3.216-3.214
	c0.771-1.359,1.155-2.869,1.155-4.531c0-1.652-0.385-3.146-1.155-4.481c-0.77-1.336-1.854-2.405-3.252-3.207
	C355.984,13.296,354.5,12.895,352.932,12.895z"/>
<path fill="#FFFFFF" d="M368.127,32.206V11.396h0.452l13.851,15.952V11.396h2.051v20.811h-0.467l-13.736-15.758v15.758H368.127z"/>
<path fill="#FFFFFF" d="M407.58,10.872v1.938c-0.727-0.311-1.349-0.467-1.867-0.467c-0.387,0-0.708,0.078-0.962,0.233
	c-0.255,0.156-0.415,0.335-0.481,0.538c-0.066,0.203-0.099,0.743-0.099,1.62l-0.002,2.08h3.213v1.711h-3.214l-0.012,13.681h-1.98
	V18.525h-2.023v-1.711h2.023v-2.405c0-1.104,0.102-1.891,0.305-2.362c0.202-0.472,0.547-0.851,1.032-1.139
	c0.485-0.288,1.073-0.432,1.762-0.432C405.915,10.476,406.683,10.608,407.58,10.872z"/>
<path fill="#FFFFFF" d="M417.625,16.417c2.371,0,4.336,0.858,5.896,2.575c1.417,1.565,2.126,3.419,2.126,5.56
	c0,2.15-0.749,4.03-2.247,5.638c-1.497,1.608-3.422,2.412-5.774,2.412c-2.362,0-4.292-0.804-5.79-2.412
	c-1.497-1.608-2.246-3.487-2.246-5.638c0-2.131,0.709-3.98,2.126-5.545C413.273,17.281,415.244,16.417,417.625,16.417z
	 M417.617,18.356c-1.646,0-3.062,0.608-4.245,1.825c-1.183,1.217-1.774,2.688-1.774,4.414c0,1.113,0.27,2.15,0.81,3.112
	c0.539,0.962,1.269,1.705,2.187,2.229s1.926,0.785,3.023,0.785c1.099,0,2.106-0.262,3.024-0.785s1.646-1.266,2.187-2.229
	c0.539-0.962,0.81-1.999,0.81-3.112c0-1.726-0.595-3.197-1.782-4.414C420.667,18.964,419.254,18.356,417.617,18.356z"/>
<path fill="#FFFFFF" d="M428.56,16.814h2.023v2.249c0.604-0.886,1.24-1.549,1.909-1.987c0.67-0.438,1.368-0.658,2.095-0.658
	c0.547,0,1.131,0.175,1.754,0.523l-1.033,1.669c-0.415-0.179-0.764-0.269-1.047-0.269c-0.66,0-1.297,0.271-1.909,0.813
	c-0.613,0.542-1.08,1.384-1.401,2.525c-0.245,0.877-0.367,2.65-0.367,5.319v5.206h-2.023V16.814z"/>
<path fill="#FFFFFF" d="M454.875,11.396l9.705,20.811h-2.247l-3.272-6.847h-8.966l-3.241,6.847h-2.32l9.832-20.811H454.875z
	 M454.612,15.817l-3.566,7.533h7.115L454.612,15.817z"/>
<path fill="#FFFFFF" d="M467.791,11.396h4.145c2.377,0,3.98,0.104,4.811,0.311c1.188,0.292,2.159,0.894,2.914,1.804
	c0.755,0.911,1.132,2.054,1.132,3.431c0,1.387-0.368,2.53-1.104,3.431c-0.735,0.9-1.75,1.506-3.042,1.818
	c-0.942,0.226-2.707,0.339-5.291,0.339h-1.485v9.677h-2.079V11.396z M469.87,13.433v7.06l3.522,0.042
	c1.425,0,2.467-0.129,3.127-0.388s1.179-0.678,1.557-1.257c0.377-0.579,0.565-1.226,0.565-1.941c0-0.696-0.188-1.334-0.565-1.913
	c-0.378-0.579-0.875-0.991-1.493-1.235c-0.617-0.245-1.629-0.367-3.034-0.367H469.87z"/>
<path fill="#FFFFFF" d="M517.031,15.258l-1.641,1.259c-0.906-1.179-1.993-2.072-3.262-2.681s-2.662-0.913-4.18-0.913
	c-1.66,0-3.197,0.398-4.612,1.195c-1.415,0.797-2.512,1.868-3.289,3.211c-0.778,1.344-1.168,2.855-1.168,4.534
	c0,2.538,0.87,4.655,2.61,6.352c1.74,1.698,3.936,2.547,6.586,2.547c2.914,0,5.353-1.141,7.314-3.424l1.641,1.245
	c-1.037,1.32-2.332,2.341-3.884,3.063c-1.551,0.721-3.284,1.082-5.198,1.082c-3.642,0-6.513-1.212-8.616-3.636
	c-1.764-2.046-2.646-4.518-2.646-7.413c0-3.046,1.068-5.609,3.204-7.689c2.137-2.08,4.812-3.119,8.029-3.119
	c1.942,0,3.696,0.384,5.263,1.153C514.749,12.794,516.031,13.871,517.031,15.258z"/>
<path fill="#FFFFFF" d="M528.166,16.417c2.371,0,4.336,0.858,5.896,2.575c1.417,1.565,2.126,3.419,2.126,5.56
	c0,2.15-0.749,4.03-2.247,5.638c-1.497,1.608-3.422,2.412-5.774,2.412c-2.362,0-4.292-0.804-5.79-2.412
	c-1.497-1.608-2.246-3.487-2.246-5.638c0-2.131,0.709-3.98,2.126-5.545C523.814,17.281,525.785,16.417,528.166,16.417z
	 M528.158,18.356c-1.646,0-3.062,0.608-4.245,1.825c-1.183,1.217-1.774,2.688-1.774,4.414c0,1.113,0.27,2.15,0.81,3.112
	c0.539,0.962,1.269,1.705,2.187,2.229s1.926,0.785,3.023,0.785c1.099,0,2.106-0.262,3.024-0.785s1.646-1.266,2.187-2.229
	c0.539-0.962,0.81-1.999,0.81-3.112c0-1.726-0.595-3.197-1.782-4.414C531.208,18.964,529.795,18.356,528.158,18.356z"/>
<path fill="#FFFFFF" d="M539.596,16.814h1.98V24c0,1.754,0.095,2.962,0.284,3.622c0.283,0.943,0.823,1.688,1.622,2.235
	c0.798,0.547,1.749,0.821,2.854,0.821s2.043-0.267,2.812-0.799s1.301-1.233,1.594-2.101c0.198-0.594,0.298-1.853,0.298-3.777v-7.187
	h2.023v7.555c0,2.122-0.248,3.721-0.743,4.796s-1.24,1.917-2.235,2.525c-0.995,0.608-2.242,0.913-3.742,0.913
	c-1.499,0-2.751-0.304-3.756-0.913c-1.004-0.608-1.754-1.457-2.249-2.546s-0.743-2.728-0.743-4.916V16.814z"/>
<path fill="#FFFFFF" d="M556.714,16.814h2.023v2.249c0.604-0.886,1.24-1.549,1.909-1.987c0.67-0.438,1.368-0.658,2.095-0.658
	c0.547,0,1.131,0.175,1.754,0.523l-1.033,1.669c-0.415-0.179-0.764-0.269-1.047-0.269c-0.66,0-1.297,0.271-1.909,0.813
	c-0.613,0.542-1.08,1.384-1.401,2.525c-0.245,0.877-0.367,2.65-0.367,5.319v5.206h-2.023V16.814z"/>
<path fill="#FFFFFF" d="M573.917,18.498l-1.273,1.315c-1.059-1.028-2.095-1.542-3.105-1.542c-0.644,0-1.194,0.212-1.653,0.637
	c-0.458,0.424-0.688,0.919-0.688,1.485c0,0.5,0.189,0.976,0.567,1.429c0.378,0.462,1.172,1.004,2.382,1.627
	c1.474,0.764,2.476,1.5,3.005,2.207c0.521,0.717,0.78,1.523,0.78,2.419c0,1.264-0.444,2.334-1.332,3.211
	c-0.889,0.877-1.998,1.315-3.33,1.315c-0.888,0-1.735-0.193-2.543-0.58c-0.808-0.386-1.477-0.919-2.005-1.599l1.245-1.415
	c1.011,1.141,2.084,1.712,3.219,1.712c0.794,0,1.47-0.255,2.027-0.764s0.837-1.108,0.837-1.796c0-0.566-0.185-1.07-0.553-1.514
	c-0.369-0.434-1.2-0.98-2.495-1.641c-1.39-0.716-2.335-1.424-2.836-2.122c-0.501-0.698-0.751-1.495-0.751-2.391
	c0-1.169,0.398-2.141,1.197-2.915c0.798-0.773,1.807-1.16,3.025-1.16C571.055,16.417,572.482,17.111,573.917,18.498z"/>
<path fill="#FFFFFF" d="M590.385,27.099l1.669,0.877c-0.547,1.075-1.18,1.943-1.897,2.603c-0.717,0.66-1.524,1.163-2.421,1.507
	c-0.897,0.344-1.912,0.516-3.045,0.516c-2.511,0-4.475-0.823-5.891-2.469c-1.416-1.646-2.124-3.506-2.124-5.581
	c0-1.952,0.6-3.692,1.799-5.22c1.52-1.943,3.554-2.915,6.103-2.915c2.624,0,4.72,0.996,6.287,2.985
	c1.113,1.405,1.68,3.16,1.699,5.263h-13.851c0.038,1.788,0.609,3.253,1.714,4.397c1.105,1.143,2.47,1.715,4.094,1.715
	c0.784,0,1.546-0.136,2.287-0.409s1.372-0.634,1.892-1.085C589.219,28.833,589.781,28.104,590.385,27.099z M590.385,22.954
	c-0.265-1.056-0.649-1.9-1.154-2.532c-0.506-0.632-1.174-1.141-2.005-1.528s-1.704-0.58-2.62-0.58c-1.511,0-2.81,0.486-3.896,1.457
	c-0.793,0.708-1.393,1.769-1.799,3.183H590.385z"/>
<path fill="#FFFFFF" d="M603.995,18.498l-1.273,1.315c-1.059-1.028-2.095-1.542-3.105-1.542c-0.644,0-1.194,0.212-1.653,0.637
	c-0.458,0.424-0.688,0.919-0.688,1.485c0,0.5,0.189,0.976,0.567,1.429c0.378,0.462,1.172,1.004,2.382,1.627
	c1.474,0.764,2.476,1.5,3.005,2.207c0.521,0.717,0.78,1.523,0.78,2.419c0,1.264-0.444,2.334-1.332,3.211
	c-0.889,0.877-1.998,1.315-3.33,1.315c-0.888,0-1.735-0.193-2.543-0.58c-0.808-0.386-1.477-0.919-2.005-1.599l1.245-1.415
	c1.011,1.141,2.084,1.712,3.219,1.712c0.794,0,1.47-0.255,2.027-0.764s0.837-1.108,0.837-1.796c0-0.566-0.185-1.07-0.553-1.514
	c-0.369-0.434-1.2-0.98-2.495-1.641c-1.39-0.716-2.335-1.424-2.836-2.122c-0.501-0.698-0.751-1.495-0.751-2.391
	c0-1.169,0.398-2.141,1.197-2.915c0.798-0.773,1.807-1.16,3.025-1.16C601.132,16.417,602.559,17.111,603.995,18.498z"/>
</svg>
