<?xml version="1.0" encoding="utf-8"?>
<!-- Generator: Adobe Illustrator 16.0.4, SVG Export Plug-In . SVG Version: 6.00 Build 0)  -->
<!DOCTYPE svg PUBLIC "-//W3C//DTD SVG 1.1//EN" "http://www.w3.org/Graphics/SVG/1.1/DTD/svg11.dtd">
<svg version="1.1"
	 id="svg3453" inkscape:version="0.48.3.1 r9886" sodipodi:docname="CNX_BioMaj_Career.svg" xmlns:dc="http://purl.org/dc/elements/1.1/" xmlns:cc="http://creativecommons.org/ns#" xmlns:rdf="http://www.w3.org/1999/02/22-rdf-syntax-ns#" xmlns:inkscape="http://www.inkscape.org/namespaces/inkscape" xmlns:svg="http://www.w3.org/2000/svg" xmlns:sodipodi="http://sodipodi.sourceforge.net/DTD/sodipodi-0.dtd"
	 xmlns="http://www.w3.org/2000/svg" xmlns:xlink="http://www.w3.org/1999/xlink" x="0px" y="0px" width="433px" height="64px"
	 viewBox="0 0 433 64" enable-background="new 0 0 433 64" xml:space="preserve">
<sodipodi:namedview  inkscape:window-x="1425" inkscape:pageshadow="2" inkscape:window-height="1026" inkscape:guide-bbox="true" inkscape:window-maximized="1" inkscape:window-width="1615" inkscape:current-layer="svg3453" inkscape:pageopacity="0" inkscape:window-y="24" borderopacity="1" id="namedview3493" inkscape:zoom="1.4254587" showguides="true" showgrid="false" gridtolerance="10" guidetolerance="10" pagecolor="#ffffff" objecttolerance="10" inkscape:cx="216.5" inkscape:cy="32" bordercolor="#666666">
	<sodipodi:guide  id="guide3497" position="351.46581,165.56074" orientation="1,0"></sodipodi:guide>
	<sodipodi:guide  id="guide3519" position="11.224457,-108.0354" orientation="1,0"></sodipodi:guide>
	<sodipodi:guide  id="guide3521" position="338.8383,-236.41513" orientation="1,0"></sodipodi:guide>
</sodipodi:namedview>
<path fill="#FFFFFF" d="M40.842,52.72c0.475,1.324,1.021,2.241,1.637,2.751c0.616,0.509,1.376,0.764,2.279,0.764
	c0.834,0,1.476-0.182,1.924-0.546c0.447-0.364,0.671-0.825,0.671-1.384c0-0.322-0.083-0.603-0.247-0.845
	c-0.166-0.242-0.394-0.421-0.685-0.539c-0.292-0.119-1.047-0.294-2.268-0.524c-1.166-0.229-1.979-0.471-2.438-0.723
	c-0.46-0.252-0.818-0.602-1.075-1.046c-0.256-0.443-0.385-0.927-0.385-1.447c0-0.788,0.265-1.505,0.794-2.147
	c0.683-0.819,1.637-1.229,2.864-1.229c0.936,0,1.802,0.295,2.599,0.885l0.76-0.805h0.472l0.299,3.837h-0.769
	c-0.338-1.087-0.794-1.87-1.37-2.349c-0.575-0.479-1.285-0.719-2.129-0.719c-0.729,0-1.3,0.178-1.715,0.534
	s-0.622,0.791-0.622,1.304c0,0.453,0.191,0.828,0.575,1.127c0.375,0.306,1.113,0.547,2.209,0.725
	c1.272,0.215,2.102,0.396,2.485,0.541c0.629,0.229,1.116,0.583,1.46,1.062c0.345,0.479,0.518,1.062,0.518,1.751
	c0,0.949-0.374,1.753-1.122,2.41c-0.747,0.659-1.696,0.988-2.846,0.988c-1.066,0-2.055-0.353-2.967-1.058l-0.84,0.964h-0.609
	l-0.23-4.283L40.842,52.72L40.842,52.72z"/>
<path fill="#FFFFFF" d="M58.657,53.582l0.746,0.218c-0.597,2.197-1.914,3.296-3.951,3.296c-1.493,0-2.715-0.494-3.664-1.482
	c-0.95-0.987-1.424-2.301-1.424-3.939c0-1.898,0.521-3.37,1.562-4.416c1.041-1.045,2.267-1.567,3.676-1.567
	c1.057,0,1.93,0.29,2.619,0.872c0.689,0.582,1.033,1.229,1.033,1.941c0,0.43-0.128,0.784-0.385,1.062
	c-0.256,0.279-0.561,0.42-0.913,0.42c-0.344,0-0.636-0.118-0.873-0.355c-0.236-0.237-0.355-0.522-0.355-0.858
	c0-0.335,0.13-0.655,0.391-0.962c0.122-0.145,0.183-0.259,0.183-0.343c0-0.221-0.149-0.437-0.448-0.646
	c-0.299-0.211-0.704-0.315-1.218-0.315c-0.934,0-1.643,0.341-2.125,1.021c-0.689,0.986-1.034,2.287-1.034,3.901
	c0,1.536,0.307,2.702,0.919,3.493s1.394,1.187,2.343,1.187C57.049,56.107,58.021,55.266,58.657,53.582z"/>
<path fill="#FFFFFF" d="M60.667,46.012l4.284-0.127v9.258c0,0.253,0.062,0.434,0.184,0.54c0.176,0.153,0.398,0.229,0.667,0.229
	h1.218v0.861h-6.123v-0.861h1.137c0.337,0,0.583-0.082,0.741-0.247c0.156-0.164,0.235-0.403,0.235-0.718V48.17
	c0-0.429-0.122-0.752-0.368-0.971c-0.245-0.218-0.609-0.326-1.091-0.326h-0.885L60.667,46.012L60.667,46.012z M63.654,39.592
	c0.344,0,0.646,0.13,0.907,0.391c0.261,0.26,0.391,0.566,0.391,0.918c0,0.345-0.126,0.644-0.378,0.896
	c-0.253,0.254-0.555,0.379-0.908,0.379c-0.352,0-0.657-0.129-0.913-0.385c-0.257-0.257-0.385-0.557-0.385-0.902
	c0-0.344,0.13-0.646,0.391-0.906C63.019,39.722,63.316,39.592,63.654,39.592z"/>
<path fill="#FFFFFF" d="M78.378,51.468h-7.707c0.039,1.639,0.344,2.795,0.918,3.469c0.659,0.758,1.497,1.137,2.516,1.137
	c1.501,0,2.707-0.854,3.618-2.562l0.747,0.321c-1.119,2.175-2.734,3.263-4.848,3.263c-1.439,0-2.651-0.521-3.636-1.562
	c-0.984-1.041-1.476-2.374-1.476-3.998c0-1.745,0.484-3.156,1.453-4.232c0.969-1.075,2.162-1.613,3.578-1.613
	c1.042,0,1.941,0.269,2.699,0.804c0.758,0.535,1.328,1.306,1.712,2.309C78.221,49.507,78.362,50.396,78.378,51.468z M70.671,50.652
	h4.663c0.276,0,0.49-0.095,0.643-0.281c0.152-0.188,0.229-0.508,0.229-0.96c0-0.842-0.263-1.558-0.787-2.147
	c-0.525-0.59-1.143-0.884-1.855-0.884c-0.796,0-1.473,0.355-2.027,1.067C70.982,48.16,70.694,49.229,70.671,50.652z"/>
<path fill="#FFFFFF" d="M80.044,46.012l3.572-0.218c0.146,0.673,0.252,1.462,0.321,2.366c0.482-0.781,1.051-1.367,1.707-1.757
	c0.654-0.391,1.395-0.586,2.222-0.586c0.711,0,1.309,0.14,1.792,0.419c0.482,0.28,0.869,0.722,1.16,1.327
	c0.291,0.605,0.437,1.283,0.437,2.033v5.237c0,0.391,0.088,0.669,0.264,0.833c0.177,0.165,0.471,0.247,0.885,0.247h0.758v0.861
	h-5.674v-0.861h0.54c0.506,0,0.857-0.08,1.057-0.241c0.2-0.161,0.299-0.403,0.299-0.725v-4.606c0-1.002-0.153-1.746-0.459-2.228
	c-0.429-0.689-1.08-1.034-1.952-1.034c-0.866,0-1.587,0.349-2.166,1.046c-0.579,0.696-0.867,1.604-0.867,2.722v3.986
	c0,0.39,0.09,0.667,0.27,0.833c0.181,0.163,0.477,0.246,0.891,0.246h0.747v0.862h-5.697v-0.862h0.747
	c0.375,0,0.661-0.076,0.855-0.229c0.196-0.153,0.293-0.345,0.293-0.574v-6.948c0-0.46-0.125-0.808-0.373-1.045
	c-0.25-0.238-0.607-0.356-1.074-0.356h-0.551L80.044,46.012L80.044,46.012z"/>
<path fill="#FFFFFF" d="M102.636,53.582l0.747,0.218c-0.598,2.197-1.914,3.296-3.951,3.296c-1.493,0-2.715-0.494-3.664-1.482
	c-0.95-0.987-1.424-2.301-1.424-3.939c0-1.898,0.521-3.37,1.562-4.416c1.042-1.045,2.267-1.567,3.676-1.567
	c1.057,0,1.93,0.29,2.619,0.872c0.689,0.582,1.034,1.229,1.034,1.941c0,0.43-0.129,0.784-0.385,1.062
	c-0.256,0.279-0.561,0.42-0.913,0.42c-0.344,0-0.636-0.118-0.873-0.355c-0.237-0.237-0.356-0.522-0.356-0.858
	c0-0.335,0.13-0.655,0.391-0.962c0.122-0.145,0.184-0.259,0.184-0.343c0-0.221-0.149-0.437-0.448-0.646
	c-0.299-0.211-0.704-0.315-1.218-0.315c-0.934,0-1.643,0.341-2.125,1.021c-0.689,0.986-1.033,2.287-1.033,3.901
	c0,1.536,0.307,2.702,0.919,3.493c0.612,0.791,1.393,1.187,2.343,1.187C101.029,56.107,102.001,55.266,102.636,53.582z"/>
<path fill="#FFFFFF" d="M114.95,51.468h-7.707c0.039,1.639,0.344,2.795,0.919,3.469c0.659,0.758,1.497,1.137,2.515,1.137
	c1.501,0,2.707-0.854,3.618-2.562l0.746,0.321c-1.118,2.175-2.733,3.263-4.847,3.263c-1.439,0-2.652-0.521-3.636-1.562
	c-0.984-1.041-1.476-2.374-1.476-3.998c0-1.745,0.484-3.156,1.453-4.232c0.969-1.075,2.162-1.613,3.578-1.613
	c1.041,0,1.941,0.269,2.699,0.804s1.329,1.306,1.712,2.309C114.792,49.507,114.934,50.396,114.95,51.468z M107.243,50.652h4.663
	c0.276,0,0.49-0.095,0.643-0.281c0.153-0.188,0.229-0.508,0.229-0.96c0-0.842-0.262-1.558-0.786-2.147
	c-0.525-0.59-1.143-0.884-1.855-0.884c-0.797,0-1.473,0.355-2.027,1.067C107.554,48.16,107.265,49.229,107.243,50.652z"/>
<path fill="#FFFFFF" d="M126.561,45.816c0.168,0.804,0.269,1.578,0.299,2.32c0.527-0.842,1.082-1.439,1.663-1.792
	c0.581-0.352,1.216-0.528,1.903-0.528c0.735,0,1.436,0.226,2.105,0.678c0.669,0.451,1.211,1.114,1.629,1.986
	c0.416,0.873,0.625,1.856,0.625,2.952c0,1.753-0.511,3.182-1.535,4.284c-0.848,0.919-1.863,1.379-3.046,1.379
	c-0.672,0-1.28-0.173-1.821-0.517c-0.541-0.345-1.023-0.858-1.443-1.539v4.353c0,0.338,0.081,0.574,0.242,0.712
	c0.207,0.184,0.494,0.276,0.861,0.276h0.793v0.815h-5.754v-0.815h0.792c0.368,0,0.643-0.072,0.828-0.218
	c0.184-0.145,0.276-0.337,0.276-0.574V48.263c0-0.528-0.126-0.901-0.379-1.119c-0.252-0.219-0.758-0.339-1.516-0.362v-0.769
	L126.561,45.816z M129.898,46.861c-0.833,0-1.539,0.402-2.115,1.206c-0.577,0.804-0.866,1.968-0.866,3.492
	c0,1.539,0.278,2.676,0.837,3.412c0.557,0.734,1.268,1.102,2.132,1.102c0.81,0,1.433-0.313,1.869-0.941
	c0.558-0.827,0.836-2.037,0.836-3.63c0-1.669-0.252-2.859-0.757-3.572C131.331,47.218,130.685,46.861,129.898,46.861z"/>
<path fill="#FFFFFF" d="M136.485,46.012l3.871-0.195v4.354c0.414-1.432,0.912-2.516,1.493-3.251s1.302-1.103,2.16-1.103
	c0.582,0,1.047,0.178,1.396,0.534c0.347,0.355,0.522,0.833,0.522,1.43c0,0.482-0.117,0.858-0.35,1.126
	c-0.234,0.269-0.526,0.402-0.878,0.402c-0.344,0-0.623-0.114-0.833-0.344c-0.212-0.23-0.316-0.54-0.316-0.931
	c0-0.253,0.061-0.49,0.183-0.713c0.115-0.198,0.172-0.317,0.172-0.355c0-0.114-0.073-0.173-0.218-0.173
	c-0.313,0-0.669,0.184-1.068,0.552c-0.551,0.513-0.976,1.218-1.275,2.113c-0.459,1.393-0.689,2.507-0.689,3.343v2.309
	c0,0.26,0.092,0.459,0.276,0.597c0.185,0.139,0.498,0.207,0.942,0.207h1.367v0.862h-6.685v-0.862h1.068
	c0.36,0,0.632-0.07,0.815-0.213c0.183-0.141,0.276-0.312,0.276-0.511v-6.857c0-0.521-0.111-0.901-0.333-1.143
	c-0.222-0.241-0.54-0.361-0.953-0.361h-0.942L136.485,46.012L136.485,46.012z"/>
<path fill="#FFFFFF" d="M168.393,50.582l0.747,0.218c-0.597,2.197-1.914,3.296-3.951,3.296c-1.493,0-2.714-0.494-3.664-1.482
	c-0.95-0.987-1.424-2.301-1.424-3.939c0-1.898,0.521-3.37,1.562-4.416c1.042-1.045,2.267-1.567,3.676-1.567
	c1.057,0,1.93,0.29,2.619,0.872s1.034,1.229,1.034,1.941c0,0.43-0.128,0.784-0.386,1.062c-0.256,0.279-0.561,0.42-0.912,0.42
	c-0.345,0-0.636-0.118-0.873-0.355c-0.236-0.237-0.356-0.522-0.356-0.858c0-0.335,0.13-0.655,0.391-0.962
	c0.123-0.145,0.184-0.259,0.184-0.343c0-0.221-0.149-0.437-0.448-0.646c-0.299-0.211-0.704-0.315-1.218-0.315
	c-0.934,0-1.642,0.341-2.125,1.021c-0.689,0.986-1.034,2.287-1.034,3.901c0,1.536,0.306,2.702,0.918,3.493
	c0.613,0.791,1.394,1.187,2.343,1.187C166.785,53.107,167.758,52.266,168.393,50.582z"/>
<path fill="#FFFFFF" d="M173.447,38.625h0.77v4.388h3.479v1.057h-3.479v6.903c0,0.598,0.142,1.055,0.424,1.372
	c0.284,0.317,0.644,0.477,1.08,0.477c0.521,0,0.965-0.241,1.332-0.724c0.368-0.481,0.582-1.278,0.644-2.389h0.769
	c-0.046,1.432-0.371,2.493-0.976,3.188c-0.605,0.692-1.39,1.04-2.355,1.04c-0.888,0-1.583-0.244-2.084-0.73
	c-0.501-0.485-0.752-1.123-0.752-1.911v-7.226h-1.873v-0.805c0.853-0.146,1.502-0.502,1.949-1.067
	C173.036,41.346,173.394,40.156,173.447,38.625z"/>
<path fill="#FFFFFF" d="M179.558,43.012l4.284-0.127v9.258c0,0.253,0.062,0.434,0.184,0.54c0.176,0.153,0.398,0.229,0.667,0.229
	h1.217v0.861h-6.122v-0.861h1.137c0.337,0,0.583-0.082,0.741-0.247c0.156-0.164,0.234-0.403,0.234-0.718V45.17
	c0-0.429-0.122-0.752-0.368-0.971c-0.245-0.218-0.608-0.326-1.091-0.326h-0.885L179.558,43.012L179.558,43.012z M182.545,36.592
	c0.344,0,0.646,0.13,0.906,0.391c0.26,0.26,0.391,0.566,0.391,0.918c0,0.345-0.126,0.644-0.378,0.896
	c-0.252,0.254-0.556,0.379-0.908,0.379c-0.351,0-0.657-0.129-0.912-0.385c-0.257-0.257-0.385-0.557-0.385-0.902
	c0-0.344,0.13-0.646,0.391-0.906C181.909,36.722,182.207,36.592,182.545,36.592z"/>
<path fill="#FFFFFF" d="M195.396,50.582l0.746,0.218c-0.598,2.197-1.914,3.296-3.951,3.296c-1.493,0-2.714-0.494-3.664-1.482
	c-0.949-0.987-1.424-2.301-1.424-3.939c0-1.898,0.521-3.37,1.562-4.416c1.041-1.045,2.267-1.567,3.675-1.567
	c1.057,0,1.93,0.29,2.619,0.872c0.689,0.582,1.034,1.229,1.034,1.941c0,0.43-0.129,0.784-0.385,1.062
	c-0.257,0.279-0.561,0.42-0.912,0.42c-0.345,0-0.636-0.118-0.873-0.355c-0.237-0.237-0.357-0.522-0.357-0.858
	c0-0.335,0.13-0.655,0.391-0.962c0.123-0.145,0.184-0.259,0.184-0.343c0-0.221-0.149-0.437-0.447-0.646
	c-0.299-0.211-0.705-0.315-1.218-0.315c-0.934,0-1.643,0.341-2.125,1.021c-0.689,0.986-1.034,2.287-1.034,3.901
	c0,1.536,0.307,2.702,0.919,3.493c0.612,0.791,1.394,1.187,2.343,1.187C193.789,53.107,194.761,52.266,195.396,50.582z"/>
<path fill="#FFFFFF" d="M207.71,48.468h-7.708c0.039,1.639,0.345,2.795,0.919,3.469c0.659,0.758,1.497,1.137,2.516,1.137
	c1.501,0,2.706-0.854,3.617-2.562l0.748,0.321c-1.119,2.175-2.734,3.263-4.849,3.263c-1.439,0-2.651-0.521-3.635-1.562
	c-0.984-1.041-1.476-2.374-1.476-3.998c0-1.745,0.483-3.156,1.452-4.232c0.969-1.075,2.162-1.613,3.578-1.613
	c1.042,0,1.941,0.269,2.698,0.804c0.759,0.535,1.329,1.306,1.713,2.309C207.553,46.507,207.694,47.396,207.71,48.468z
	 M200.002,47.652h4.663c0.276,0,0.49-0.095,0.644-0.281c0.152-0.188,0.229-0.508,0.229-0.96c0-0.842-0.263-1.558-0.786-2.147
	c-0.525-0.59-1.144-0.884-1.855-0.884c-0.797,0-1.473,0.355-2.026,1.067C200.314,45.16,200.026,46.229,200.002,47.652z"/>
<path fill="#FFFFFF" d="M210.673,52.72c0.475,1.324,1.02,2.241,1.637,2.751c0.616,0.509,1.377,0.764,2.28,0.764
	c0.834,0,1.476-0.182,1.924-0.546c0.447-0.364,0.671-0.825,0.671-1.384c0-0.322-0.082-0.603-0.246-0.845
	c-0.166-0.242-0.394-0.421-0.685-0.539c-0.292-0.119-1.048-0.294-2.268-0.524c-1.166-0.229-1.979-0.471-2.439-0.723
	s-0.818-0.602-1.074-1.046c-0.256-0.443-0.385-0.927-0.385-1.447c0-0.788,0.264-1.505,0.794-2.147
	c0.683-0.819,1.638-1.229,2.863-1.229c0.936,0,1.803,0.295,2.6,0.885l0.76-0.805h0.472l0.299,3.837h-0.769
	c-0.339-1.087-0.795-1.87-1.37-2.349s-1.285-0.719-2.129-0.719c-0.729,0-1.301,0.178-1.716,0.534
	c-0.414,0.356-0.621,0.791-0.621,1.304c0,0.453,0.191,0.828,0.574,1.127c0.376,0.306,1.113,0.547,2.21,0.725
	c1.273,0.215,2.102,0.396,2.485,0.541c0.629,0.229,1.115,0.583,1.459,1.062c0.346,0.479,0.518,1.062,0.518,1.751
	c0,0.949-0.373,1.753-1.121,2.41c-0.748,0.659-1.696,0.988-2.847,0.988c-1.065,0-2.055-0.353-2.967-1.058l-0.84,0.964h-0.609
	l-0.229-4.283L210.673,52.72L210.673,52.72z"/>
<path fill="#FFFFFF" d="M245.195,44.96l-1.182,0.906c-0.652-0.849-1.435-1.492-2.348-1.929c-0.913-0.439-1.915-0.658-3.01-0.658
	c-1.195,0-2.303,0.287-3.32,0.861c-1.019,0.574-1.807,1.344-2.367,2.312c-0.56,0.968-0.84,2.056-0.84,3.265
	c0,1.827,0.626,3.351,1.879,4.573c1.252,1.222,2.831,1.833,4.739,1.833c2.1,0,3.854-0.822,5.267-2.465l1.182,0.896
	c-0.748,0.949-1.68,1.686-2.796,2.205c-1.117,0.52-2.364,0.779-3.742,0.779c-2.622,0-4.688-0.872-6.202-2.617
	c-1.27-1.475-1.905-3.252-1.905-5.337c0-2.193,0.769-4.038,2.308-5.536c1.538-1.497,3.464-2.246,5.778-2.246
	c1.399,0,2.662,0.277,3.789,0.831C243.552,43.187,244.475,43.962,245.195,44.96z"/>
<path fill="#FFFFFF" d="M256.375,41.803c2.271,0,4.168,0.758,5.698,2.271c1.527,1.513,2.292,3.377,2.292,5.59
	c0,2.193-0.763,4.053-2.287,5.581c-1.525,1.528-3.385,2.291-5.579,2.291c-2.222,0-4.097-0.761-5.626-2.28
	c-1.528-1.521-2.293-3.361-2.293-5.521c0-1.439,0.348-2.773,1.045-4.002c0.696-1.229,1.646-2.19,2.848-2.888
	C253.675,42.15,254.976,41.803,256.375,41.803z M256.441,43.26c-1.108,0-2.159,0.288-3.152,0.866s-1.768,1.355-2.325,2.334
	c-0.559,0.979-0.836,2.069-0.836,3.271c0,1.78,0.617,3.284,1.851,4.51c1.233,1.227,2.722,1.841,4.463,1.841
	c1.162,0,2.238-0.282,3.229-0.848c0.989-0.564,1.761-1.335,2.315-2.313c0.554-0.979,0.831-2.064,0.831-3.262
	c0-1.188-0.277-2.265-0.831-3.226c-0.555-0.962-1.335-1.731-2.341-2.309C258.638,43.548,257.57,43.26,256.441,43.26z"/>
<path fill="#FFFFFF" d="M268.423,57.161V42.18h0.326l9.97,11.483V42.18h1.477v14.981h-0.336l-9.889-11.344v11.344H268.423z"/>
<path fill="#FFFFFF" d="M284.895,57.161V42.18h0.326l9.97,11.483V42.18h1.478v14.981h-0.336l-9.889-11.344v11.344H284.895z"/>
<path fill="#FFFFFF" d="M301.366,42.18h8.585v1.467h-7.088v4.694h7.027v1.468h-7.027v5.886h7.027v1.467h-8.524V42.18z"/>
<path fill="#FFFFFF" d="M327.533,44.96l-1.182,0.906c-0.651-0.849-1.434-1.492-2.348-1.929c-0.912-0.439-1.915-0.658-3.009-0.658
	c-1.194,0-2.302,0.287-3.32,0.861s-1.808,1.344-2.368,2.312c-0.56,0.968-0.84,2.056-0.84,3.265c0,1.827,0.627,3.351,1.88,4.573
	c1.252,1.222,2.831,1.833,4.74,1.833c2.098,0,3.854-0.822,5.265-2.465l1.182,0.896c-0.747,0.949-1.679,1.686-2.795,2.205
	c-1.117,0.52-2.365,0.779-3.742,0.779c-2.621,0-4.688-0.872-6.203-2.617c-1.27-1.475-1.904-3.252-1.904-5.337
	c0-2.193,0.769-4.038,2.308-5.536c1.537-1.497,3.464-2.246,5.778-2.246c1.398,0,2.662,0.277,3.788,0.831
	C325.891,43.187,326.813,43.962,327.533,44.96z"/>
<path fill="#FFFFFF" d="M330.094,43.646V42.18h8.209v1.467h-3.341v13.515h-1.527V43.646H330.094z"/>
<path fill="#FFFFFF" d="M341.29,42.18h1.497v14.981h-1.497V42.18z"/>
<path fill="#FFFFFF" d="M354.396,41.803c2.271,0,4.168,0.758,5.698,2.271c1.528,1.513,2.293,3.377,2.293,5.59
	c0,2.193-0.763,4.053-2.288,5.581s-3.385,2.291-5.579,2.291c-2.222,0-4.097-0.761-5.625-2.28c-1.529-1.521-2.294-3.361-2.294-5.521
	c0-1.439,0.349-2.773,1.045-4.002s1.646-2.19,2.849-2.888C351.695,42.15,352.996,41.803,354.396,41.803z M354.463,43.26
	c-1.108,0-2.16,0.288-3.152,0.866c-0.993,0.578-1.769,1.355-2.326,2.334s-0.836,2.069-0.836,3.271c0,1.78,0.617,3.284,1.851,4.51
	c1.234,1.227,2.723,1.841,4.463,1.841c1.162,0,2.239-0.282,3.229-0.848c0.989-0.564,1.761-1.335,2.315-2.313
	s0.832-2.064,0.832-3.262c0-1.188-0.277-2.265-0.832-3.226c-0.555-0.962-1.335-1.731-2.341-2.309
	C356.658,43.548,355.591,43.26,354.463,43.26z"/>
<path fill="#A5CF4C" d="M145.471,58.075l7.18-2.545c0.289-0.104,0.427-0.458,0.309-0.792s-0.448-0.522-0.737-0.419l-7.18,2.547
	c-0.289,0.101-0.429,0.455-0.311,0.79C144.85,57.988,145.182,58.178,145.471,58.075z"/>
<path fill="#A5CF4C" d="M154.117,45.312c-0.458,0.077-0.913,0.003-1.319-0.181c0.166,0.075,0.338,0.139,0.519,0.172
	c-0.189-0.034-0.37-0.101-0.543-0.184c-0.534-0.248-0.972-0.697-1.185-1.294c-0.421-1.188,0.2-2.495,1.388-2.915
	c0.702-0.248,1.441-0.128,2.019,0.254c0.044,0.028,0.089,0.059,0.131,0.093c0.069,0.051,0.132,0.108,0.194,0.171
	c0.037,0.035,0.074,0.069,0.109,0.106c0.066,0.072,0.124,0.151,0.179,0.233c0.024,0.033,0.051,0.064,0.072,0.1
	c0.075,0.122,0.141,0.25,0.193,0.389l1.837-3.195l-4.505-2.146l-4.189,10.723l2.955,1.41L154.117,45.312z M154.995,41.162
	c0.044,0.029,0.087,0.061,0.13,0.091C155.083,41.223,155.04,41.191,154.995,41.162z M155.325,41.43
	c0.035,0.033,0.071,0.066,0.104,0.103C155.396,41.496,155.36,41.463,155.325,41.43z M155.613,41.771
	c0.021,0.031,0.047,0.061,0.067,0.094C155.66,41.832,155.636,41.803,155.613,41.771z"/>
<path fill="#50B848" d="M155.224,43.389c0.057-0.27,0.05-0.559-0.048-0.837c-0.279-0.79-1.153-1.206-1.944-0.925
	c-0.791,0.279-1.205,1.152-0.926,1.943c0.281,0.791,1.153,1.207,1.943,0.928c0.198-0.07,0.37-0.178,0.515-0.309
	C154.996,43.977,155.155,43.693,155.224,43.389z"/>
<path fill="#50B848" d="M156.595,34.896l1.013-2.126l0.192,0.091c0.196,0.092,0.431,0.011,0.526-0.186
	c0.092-0.197,0.01-0.434-0.186-0.527l-2.079-0.989c-0.197-0.093-0.43-0.011-0.525,0.187c-0.093,0.196-0.011,0.432,0.187,0.524
	l0.191,0.091l-1.014,2.127L156.595,34.896z"/>
<rect x="148.754" y="48.995" transform="matrix(-0.9024 -0.4309 0.4309 -0.9024 264.0061 158.6789)" fill="#A5CF4C" width="2.436" height="0.896"/>
<path fill="#A5CF4C" d="M158.845,43.443c-0.583-1.646-1.753-3.119-2.911-4.01c0.32,1.121-0.256,2.31-1.345,2.745
	c0.568,0.52,1.043,1.155,1.356,2.043c1.351,3.806,1.05,7.254-3.883,9.002c-1.524,0.541-5.188,1.833-5.188,1.833l1.058,3.07
	c0,0,1.039-0.376,2.207-0.797c-0.021-0.33-0.04-0.625-0.05-0.847c-0.046-1.109,0.479-1.939,1.424-2.274c0,0,0.307-0.116,0.582-0.214
	c0.151-0.053,0.291-0.1,0.376-0.125c1.363-0.405,2.114,0.592,2.436,1.017c0.07,0.093,0.154,0.203,0.244,0.32
	C159.264,52.53,160.381,47.772,158.845,43.443z"/>
<path fill="#FFFFFF" d="M34.223,42.084c0,0.541-0.134,1.044-0.402,1.506c-0.268,0.464-0.636,0.832-1.103,1.102
	c-0.467,0.271-0.967,0.406-1.5,0.406c-0.534,0-1.034-0.135-1.501-0.404c-0.467-0.269-0.835-0.637-1.104-1.101
	c-0.27-0.465-0.404-0.963-0.404-1.495c0-0.535,0.135-1.039,0.404-1.509c0.269-0.471,0.636-0.839,1.102-1.107
	s0.967-0.401,1.503-0.401c0.536,0,1.035,0.133,1.499,0.4c0.463,0.268,0.831,0.635,1.101,1.105
	C34.087,41.055,34.223,41.555,34.223,42.084z M33.805,42.088c0-0.46-0.116-0.893-0.348-1.298s-0.547-0.724-0.946-0.956
	c-0.398-0.231-0.827-0.348-1.287-0.348c-0.462,0-0.896,0.115-1.3,0.348c-0.405,0.233-0.722,0.552-0.954,0.956
	c-0.231,0.405-0.347,0.84-0.347,1.305c0,0.463,0.115,0.894,0.347,1.296c0.23,0.4,0.549,0.717,0.955,0.949
	c0.406,0.232,0.838,0.349,1.297,0.349c0.457,0,0.886-0.116,1.287-0.35s0.717-0.551,0.947-0.95
	C33.689,42.988,33.805,42.555,33.805,42.088z M29.965,40.332h1.444c0.337,0,0.579,0.033,0.727,0.101
	c0.148,0.067,0.27,0.179,0.362,0.332c0.093,0.153,0.14,0.332,0.14,0.537c0,0.177-0.033,0.327-0.1,0.456
	c-0.051,0.096-0.163,0.197-0.333,0.311c0.156,0.077,0.26,0.166,0.314,0.267c0.053,0.101,0.081,0.274,0.081,0.519v0.393
	c0,0.184,0.041,0.336,0.122,0.459l0.058,0.092h-0.613c-0.04-0.143-0.067-0.313-0.083-0.51l-0.027-0.426
	c-0.01-0.156-0.035-0.267-0.074-0.33c-0.04-0.064-0.096-0.11-0.168-0.139c-0.073-0.027-0.217-0.042-0.434-0.042h-0.866v1.448h-0.548
	L29.965,40.332L29.965,40.332z M30.513,40.83v1.025h0.85c0.258,0,0.433-0.029,0.524-0.088c0.135-0.084,0.203-0.227,0.203-0.429
	c0-0.177-0.048-0.305-0.146-0.386c-0.097-0.082-0.279-0.123-0.547-0.123H30.513L30.513,40.83z"/>
<path fill="#FFFFFF" d="M13.03,43.77l6.303,13.516h-1.459l-2.125-4.447H9.925l-2.106,4.447H6.312l6.386-13.516H13.03z
	 M12.858,46.642l-2.316,4.893h4.622L12.858,46.642z"/>
<path fill="#FFFFFF" d="M20.007,43.77H22.7c1.543,0,2.585,0.066,3.124,0.201c0.771,0.19,1.403,0.581,1.893,1.172
	c0.49,0.592,0.735,1.334,0.735,2.229c0,0.9-0.239,1.644-0.717,2.229s-1.136,0.979-1.976,1.181c-0.612,0.148-1.758,0.221-3.437,0.221
	h-0.965v6.285h-1.351V43.77z M21.358,45.093v4.586l2.289,0.026c0.925,0,1.602-0.083,2.031-0.252
	c0.429-0.168,0.766-0.439,1.011-0.815s0.368-0.797,0.368-1.261c0-0.453-0.123-0.866-0.368-1.242
	c-0.246-0.376-0.569-0.644-0.97-0.802c-0.4-0.159-1.058-0.239-1.971-0.239L21.358,45.093L21.358,45.093z"/>
<path fill="#CFB7A1" d="M87.45,50.963h-9.816c0.048,2.087,0.438,3.56,1.169,4.418c0.839,0.966,1.907,1.448,3.204,1.448
	c1.912,0,3.448-1.088,4.608-3.262l0.951,0.409c-1.424,2.771-3.482,4.155-6.174,4.155c-1.833,0-3.377-0.664-4.63-1.991
	c-1.252-1.326-1.88-3.023-1.88-5.09c0-2.224,0.616-4.021,1.852-5.392c1.234-1.37,2.752-2.058,4.557-2.058
	c1.327,0,2.473,0.342,3.438,1.025c0.965,0.683,1.692,1.663,2.179,2.94C87.25,48.467,87.431,49.599,87.45,50.963z"/>
<path fill="#FFFFFF" d="M196.812,40.171l-1.484,1.139c-0.82-1.065-1.804-1.874-2.951-2.425s-2.409-0.825-3.783-0.825
	c-1.501,0-2.893,0.359-4.173,1.08c-1.28,0.722-2.272,1.689-2.976,2.906c-0.704,1.216-1.057,2.583-1.057,4.103
	c0,2.296,0.787,4.211,2.362,5.748c1.575,1.536,3.561,2.305,5.959,2.305c2.636,0,4.842-1.033,6.619-3.099l1.484,1.128
	c-0.939,1.195-2.109,2.119-3.515,2.772c-1.402,0.652-2.971,0.978-4.704,0.978c-3.294,0-5.892-1.096-7.796-3.289
	c-1.595-1.852-2.393-4.088-2.393-6.707c0-2.758,0.966-5.076,2.898-6.958c1.934-1.881,4.354-2.822,7.266-2.822
	c1.758,0,3.344,0.348,4.761,1.043C194.748,37.943,195.908,38.916,196.812,40.171z"/>
<path fill="#FFFFFF" d="M210.867,39.202c2.852,0,5.239,0.952,7.161,2.855c1.921,1.903,2.881,4.247,2.881,7.027
	c0,2.756-0.958,5.095-2.876,7.016c-1.917,1.92-4.254,2.88-7.013,2.88c-2.791,0-5.148-0.955-7.071-2.866
	c-1.921-1.913-2.882-4.225-2.882-6.939c0-1.809,0.438-3.484,1.313-5.03c0.876-1.544,2.069-2.754,3.58-3.629
	C207.474,39.641,209.107,39.202,210.867,39.202z M210.951,41.034c-1.394,0-2.715,0.363-3.961,1.09
	c-1.249,0.727-2.222,1.702-2.924,2.934c-0.701,1.23-1.052,2.601-1.052,4.111c0,2.238,0.777,4.128,2.327,5.669
	c1.55,1.543,3.422,2.312,5.61,2.312c1.461,0,2.813-0.354,4.057-1.062c1.244-0.709,2.214-1.68,2.909-2.908
	c0.697-1.23,1.045-2.597,1.045-4.099c0-1.494-0.348-2.848-1.045-4.057c-0.695-1.207-1.678-2.174-2.943-2.9
	C213.712,41.396,212.369,41.034,210.951,41.034z"/>
<path fill="#FFFFFF" d="M226.009,58.507V39.678h0.41l12.532,14.434V39.678h1.854v18.829h-0.424l-12.429-14.258v14.258H226.009z"/>
<path fill="#FFFFFF" d="M246.712,58.507V39.678h0.41l12.533,14.434V39.678h1.854v18.829h-0.422l-12.431-14.258v14.258H246.712z"/>
<path fill="#FFFFFF" d="M267.416,39.678h10.791v1.842h-8.909v5.9h8.834v1.845h-8.834v7.398h8.834v1.844h-10.716V39.678
	L267.416,39.678z"/>
<path fill="#FFFFFF" d="M300.307,43.171l-1.486,1.139c-0.817-1.065-1.803-1.874-2.95-2.425s-2.409-0.825-3.783-0.825
	c-1.5,0-2.893,0.359-4.171,1.08c-1.281,0.722-2.273,1.689-2.978,2.906c-0.705,1.216-1.056,2.583-1.056,4.103
	c0,2.296,0.786,4.211,2.361,5.748c1.574,1.536,3.559,2.305,5.957,2.305c2.639,0,4.844-1.033,6.619-3.099l1.484,1.128
	c-0.938,1.195-2.11,2.119-3.514,2.772c-1.405,0.652-2.972,0.978-4.705,0.978c-3.293,0-5.892-1.096-7.794-3.289
	c-1.596-1.852-2.395-4.088-2.395-6.707c0-2.758,0.967-5.076,2.9-6.958c1.932-1.881,4.353-2.822,7.264-2.822
	c1.758,0,3.345,0.348,4.764,1.043C298.242,40.943,299.401,41.916,300.307,43.171z"/>
<path fill="#FFFFFF" d="M303.524,41.52v-1.842h10.315v1.842h-4.199v16.987h-1.919V41.52H303.524L303.524,41.52z"/>
<path fill="#FFFFFF" d="M317.599,39.678h1.881v18.829h-1.881V39.678z"/>
<path fill="#FFFFFF" d="M334.07,39.202c2.852,0,5.239,0.952,7.16,2.855c1.922,1.903,2.883,4.247,2.883,7.027
	c0,2.756-0.959,5.095-2.877,7.016c-1.917,1.92-4.253,2.88-7.013,2.88c-2.792,0-5.147-0.955-7.068-2.866
	c-1.923-1.913-2.883-4.225-2.883-6.939c0-1.809,0.438-3.484,1.312-5.03c0.875-1.544,2.069-2.754,3.58-3.629
	C330.677,39.641,332.311,39.202,334.07,39.202z M334.152,41.034c-1.394,0-2.713,0.363-3.961,1.09
	c-1.249,0.727-2.224,1.702-2.923,2.934c-0.703,1.23-1.052,2.601-1.052,4.111c0,2.238,0.775,4.128,2.326,5.669
	c1.552,1.543,3.422,2.312,5.609,2.312c1.461,0,2.813-0.354,4.058-1.062c1.243-0.709,2.214-1.68,2.911-2.908
	c0.697-1.23,1.045-2.597,1.045-4.099c0-1.494-0.348-2.848-1.045-4.057c-0.697-1.207-1.679-2.174-2.943-2.9
	C336.916,41.396,335.571,41.034,334.152,41.034z"/>
<path fill="#FFFFFF" d="M349.21,58.507V39.678h0.41l12.534,14.434V39.678h1.854v18.829h-0.423l-12.431-14.258v14.258H349.21z"/>
<line fill="none" stroke="#CFB7A1" x1="98.598" y1="44.074" x2="88.755" y2="48.229"/>
<line fill="none" stroke="#602E1A" x1="92.768" y1="40.908" x2="87.265" y2="45.574"/>
<line fill="none" stroke="#CFB7A1" x1="66.861" y1="37.815" x2="75.495" y2="45.472"/>
<line fill="none" stroke="#602E1A" x1="74.202" y1="37.018" x2="77.851" y2="43.241"/>
<line fill="none" stroke="#CFB7A1" x1="90.263" y1="35.049" x2="85.417" y2="43.992"/>
<line fill="none" stroke="#602E1A" x1="84.351" y1="35.482" x2="82.889" y2="42.546"/>
<line fill="none" stroke="#CFB7A1" x1="79.182" y1="32.19" x2="80.075" y2="42.297"/>
<line fill="none" stroke="#602E1A" x1="67.708" y1="44.958" x2="74.43" y2="47.574"/>
<line fill="none" stroke="#CFB7A1" x1="73.519" y1="49.153" x2="62.997" y2="47.304"/>
<path fill="#FFFFFF" d="M56.659,50.835h-9.816c0.049,2.088,0.439,3.56,1.17,4.42c0.839,0.965,1.907,1.447,3.205,1.447
	c1.912,0,3.448-1.088,4.608-3.263l0.951,0.409c-1.424,2.771-3.482,4.155-6.174,4.155c-1.833,0-3.377-0.664-4.63-1.991
	c-1.252-1.326-1.88-3.023-1.88-5.09c0-2.224,0.617-4.021,1.851-5.392c1.234-1.371,2.753-2.055,4.558-2.055
	c1.326,0,2.472,0.341,3.438,1.023c0.966,0.682,1.692,1.663,2.18,2.94C56.459,48.339,56.64,49.47,56.659,50.835z M46.842,49.797
	h5.939c0.351,0,0.624-0.12,0.819-0.358c0.195-0.24,0.293-0.646,0.293-1.223c0-1.073-0.334-1.984-1.002-2.735
	c-0.669-0.751-1.456-1.128-2.363-1.128c-1.015,0-1.875,0.455-2.583,1.361C47.239,46.62,46.871,47.982,46.842,49.797z"/>
<path fill="#FFFFFF" d="M58.18,43.887h6.745v0.993c-0.897,0.021-1.471,0.101-1.719,0.242c-0.248,0.143-0.373,0.343-0.373,0.606
	c0,0.215,0.049,0.43,0.147,0.644l3.635,8.091l3.307-7.845c0.049-0.137,0.074-0.273,0.074-0.408c0-0.712-0.7-1.154-2.1-1.33v-0.993
	h5.675v0.993c-0.575,0.059-1.033,0.214-1.375,0.469c-0.341,0.252-0.604,0.595-0.79,1.023l-5.022,11.631h-0.791l-5.393-11.952
	c-0.194-0.43-0.432-0.729-0.71-0.9c-0.278-0.17-0.714-0.26-1.309-0.271v-0.993H58.18z"/>
<path fill="#FFFFFF" d="M87.731,50.835h-9.816c0.049,2.088,0.438,3.56,1.169,4.42c0.84,0.965,1.907,1.447,3.205,1.447
	c1.911,0,3.448-1.088,4.608-3.263l0.951,0.409c-1.424,2.771-3.482,4.155-6.173,4.155c-1.834,0-3.377-0.664-4.63-1.991
	c-1.252-1.326-1.88-3.023-1.88-5.09c0-2.224,0.617-4.021,1.852-5.392c1.233-1.371,2.752-2.055,4.557-2.055
	c1.326,0,2.472,0.341,3.438,1.023c0.965,0.682,1.692,1.663,2.18,2.94C87.531,48.339,87.712,49.47,87.731,50.835z M77.915,49.797
	h5.939c0.352,0,0.624-0.12,0.819-0.358c0.195-0.24,0.292-0.646,0.292-1.223c0-1.073-0.333-1.984-1.002-2.735
	c-0.668-0.751-1.455-1.128-2.363-1.128c-1.015,0-1.875,0.455-2.583,1.361C78.312,46.62,77.944,47.982,77.915,49.797z"/>
<path fill="#FFFFFF" d="M89.633,43.887l4.93-0.25v5.545c0.526-1.823,1.161-3.204,1.901-4.141s1.658-1.404,2.75-1.404
	c0.742,0,1.334,0.227,1.778,0.68c0.443,0.453,0.665,1.061,0.665,1.819c0,0.615-0.148,1.094-0.446,1.437
	c-0.297,0.341-0.67,0.512-1.119,0.512c-0.438,0-0.792-0.147-1.06-0.439c-0.269-0.292-0.402-0.687-0.402-1.185
	c0-0.324,0.078-0.625,0.233-0.908c0.147-0.254,0.22-0.403,0.22-0.454c0-0.146-0.093-0.219-0.278-0.219
	c-0.399,0-0.853,0.233-1.361,0.701c-0.702,0.653-1.243,1.552-1.624,2.692c-0.585,1.775-0.877,3.193-0.877,4.258v2.939
	c0,0.332,0.117,0.585,0.351,0.762c0.234,0.175,0.634,0.264,1.199,0.264h1.741v1.096h-8.514v-1.096h1.36
	c0.459,0,0.805-0.091,1.039-0.271c0.234-0.182,0.351-0.398,0.351-0.65v-8.731c0-0.664-0.141-1.149-0.424-1.456
	s-0.688-0.462-1.214-0.462h-1.201V43.887z"/>
<path fill="#FFFFFF" d="M102.844,43.887h6.568v0.993h-0.614c-0.575,0-0.968,0.076-1.177,0.228c-0.21,0.15-0.314,0.368-0.314,0.65
	c0,0.127,0.029,0.253,0.087,0.38l3.819,8.236l2.837-6.831c0.205-0.487,0.308-0.966,0.308-1.435c0-0.36-0.142-0.642-0.425-0.841
	c-0.283-0.2-0.849-0.33-1.697-0.388v-0.994h5.705v0.994c-1.101,0.107-1.843,0.6-2.224,1.477l-5.072,11.799
	c-0.861,2.005-1.726,3.382-2.594,4.132c-0.878,0.761-1.819,1.142-2.824,1.142c-0.731,0-1.319-0.2-1.763-0.6
	c-0.443-0.4-0.666-0.892-0.666-1.478c0-0.439,0.136-0.8,0.41-1.083c0.273-0.282,0.614-0.425,1.024-0.425
	c0.37,0,0.682,0.123,0.936,0.366c0.253,0.244,0.38,0.536,0.38,0.878c0,0.107-0.019,0.253-0.058,0.438
	c-0.039,0.146-0.058,0.254-0.058,0.322c0,0.234,0.151,0.352,0.453,0.352c0.323,0,0.685-0.117,1.091-0.352
	c0.405-0.234,0.782-0.609,1.133-1.127c0.352-0.519,0.968-1.662,1.847-3.435l-5.201-11.151c-0.185-0.39-0.417-0.68-0.693-0.87
	s-0.684-0.318-1.219-0.387v-0.992H102.844z"/>
<path fill="#FFFFFF" d="M127.01,35.957l5.355-0.248v18.755c0,0.731,0.139,1.253,0.417,1.564c0.278,0.312,0.695,0.468,1.251,0.468
	h0.951v1.097h-4.681l-0.351-2.795c-0.556,0.996-1.208,1.745-1.954,2.247c-0.747,0.501-1.582,0.753-2.508,0.753
	c-1.561,0-2.891-0.653-3.987-1.96s-1.646-3.033-1.646-5.179c0-2.321,0.702-4.175,2.106-5.56c1.102-1.082,2.37-1.623,3.804-1.623
	c0.878,0,1.665,0.219,2.362,0.658c0.697,0.438,1.304,1.102,1.821,1.988v-7.737c0-0.409-0.158-0.733-0.476-0.974
	c-0.317-0.238-0.812-0.358-1.484-0.358h-0.981L127.01,35.957L127.01,35.957z M126.163,44.691c-1.053,0-1.89,0.432-2.509,1.3
	c-0.62,0.869-0.929,2.332-0.929,4.39c0,2.233,0.317,3.806,0.951,4.718s1.449,1.368,2.443,1.368c1.063,0,1.973-0.509,2.729-1.527
	c0.755-1.021,1.133-2.51,1.133-4.472c0-1.853-0.404-3.311-1.214-4.374C128.064,45.16,127.196,44.691,126.163,44.691z"/>
<path fill="#FFFFFF" d="M150.93,56.087l0.527,0.819c-0.712,0.73-1.502,1.097-2.37,1.097c-0.663,0-1.222-0.181-1.675-0.542
	c-0.453-0.359-0.85-0.994-1.192-1.901c-0.926,0.976-1.741,1.626-2.443,1.954c-0.703,0.326-1.546,0.49-2.531,0.49
	c-1.405,0-2.472-0.303-3.204-0.908c-0.731-0.604-1.097-1.379-1.097-2.326c0-1.424,0.837-2.605,2.51-3.548
	c1.672-0.94,3.899-1.567,6.678-1.88v-2.076c0-0.742-0.297-1.373-0.892-1.901c-0.595-0.527-1.351-0.79-2.268-0.79
	c-0.849,0-1.58,0.177-2.195,0.526c-0.438,0.264-0.658,0.521-0.658,0.776c0,0.146,0.117,0.375,0.352,0.688
	c0.282,0.39,0.424,0.737,0.424,1.038c0,0.439-0.142,0.797-0.424,1.075c-0.284,0.279-0.654,0.418-1.113,0.418
	c-0.487,0-0.895-0.167-1.222-0.497c-0.327-0.333-0.49-0.756-0.49-1.273c0-0.966,0.543-1.849,1.631-2.647
	c1.088-0.8,2.515-1.2,4.279-1.2c1.629,0,2.872,0.351,3.73,1.054c0.858,0.711,1.287,1.575,1.287,2.589v7.49
	c0,0.663,0.107,1.15,0.322,1.463c0.215,0.321,0.493,0.482,0.834,0.482C150.111,56.555,150.511,56.398,150.93,56.087z
	 M146.132,50.309c-2.478,0.342-4.233,0.897-5.267,1.668c-0.771,0.585-1.156,1.413-1.156,2.487c0,0.749,0.199,1.338,0.6,1.763
	c0.401,0.424,0.921,0.637,1.566,0.637c1.151,0,2.148-0.438,2.992-1.311c0.844-0.872,1.266-1.966,1.266-3.282L146.132,50.309
	L146.132,50.309z"/>
<path fill="#FFFFFF" d="M152.803,43.887h6.569v0.993h-0.614c-0.575,0-0.968,0.076-1.178,0.228c-0.21,0.15-0.314,0.368-0.314,0.65
	c0,0.127,0.029,0.253,0.087,0.38l3.82,8.236l2.837-6.831c0.205-0.487,0.307-0.966,0.307-1.435c0-0.36-0.142-0.642-0.424-0.841
	c-0.284-0.2-0.85-0.33-1.697-0.388v-0.994h5.705v0.994c-1.103,0.107-1.844,0.6-2.224,1.477l-5.072,11.799
	c-0.861,2.005-1.726,3.382-2.594,4.132c-0.877,0.761-1.819,1.142-2.824,1.142c-0.731,0-1.319-0.2-1.763-0.6
	c-0.444-0.4-0.666-0.892-0.666-1.478c0-0.439,0.137-0.8,0.409-1.083c0.274-0.282,0.614-0.425,1.024-0.425
	c0.371,0,0.683,0.123,0.937,0.366c0.254,0.244,0.38,0.536,0.38,0.878c0,0.107-0.019,0.253-0.058,0.438
	c-0.039,0.146-0.059,0.254-0.059,0.322c0,0.234,0.152,0.352,0.454,0.352c0.322,0,0.685-0.117,1.091-0.352
	c0.405-0.234,0.782-0.609,1.133-1.127c0.351-0.519,0.966-1.662,1.846-3.435l-5.201-11.151c-0.185-0.39-0.416-0.68-0.693-0.87
	c-0.278-0.19-0.684-0.318-1.218-0.387L152.803,43.887L152.803,43.887z"/>
<path fill="#FFFFFF" d="M36.584,41.35c0,0.574-0.142,1.108-0.427,1.6c-0.284,0.492-0.675,0.882-1.169,1.171
	c-0.497,0.287-1.027,0.431-1.593,0.431c-0.566,0-1.098-0.144-1.593-0.429c-0.496-0.287-0.887-0.678-1.173-1.17
	c-0.285-0.494-0.429-1.022-0.429-1.586c0-0.569,0.144-1.104,0.429-1.603c0.286-0.5,0.676-0.891,1.17-1.175s1.026-0.427,1.596-0.427
	c0.569,0,1.099,0.142,1.591,0.425c0.491,0.283,0.881,0.674,1.168,1.174C36.44,40.259,36.584,40.789,36.584,41.35z M36.141,41.354
	c0-0.487-0.124-0.948-0.37-1.377c-0.247-0.43-0.581-0.768-1.003-1.014c-0.423-0.248-0.878-0.371-1.366-0.371
	c-0.49,0-0.95,0.123-1.379,0.371c-0.43,0.246-0.766,0.585-1.012,1.014c-0.245,0.429-0.368,0.892-0.368,1.385
	c0,0.491,0.122,0.949,0.368,1.376c0.245,0.425,0.583,0.76,1.014,1.008c0.431,0.247,0.89,0.37,1.377,0.37
	c0.485,0,0.94-0.124,1.366-0.372s0.761-0.585,1.005-1.01C36.018,42.311,36.141,41.851,36.141,41.354z M32.065,39.491h1.532
	c0.357,0,0.615,0.036,0.772,0.106c0.157,0.072,0.286,0.19,0.384,0.353c0.099,0.163,0.148,0.354,0.148,0.57
	c0,0.188-0.035,0.348-0.105,0.484c-0.055,0.101-0.173,0.21-0.354,0.329c0.166,0.082,0.276,0.176,0.333,0.283
	c0.056,0.108,0.086,0.291,0.086,0.551v0.416c0,0.195,0.042,0.357,0.13,0.487l0.061,0.099H34.4c-0.042-0.152-0.071-0.332-0.087-0.542
	l-0.029-0.453c-0.011-0.165-0.037-0.282-0.079-0.349c-0.042-0.068-0.102-0.117-0.178-0.147c-0.077-0.03-0.23-0.045-0.46-0.045
	h-0.919v1.536h-0.581L32.065,39.491L32.065,39.491z M32.646,40.02v1.09h0.902c0.273,0,0.459-0.032,0.557-0.094
	c0.143-0.088,0.215-0.241,0.215-0.454c0-0.188-0.052-0.326-0.154-0.412c-0.103-0.086-0.297-0.129-0.581-0.129L32.646,40.02
	L32.646,40.02z"/>
<path fill="#FFFFFF" d="M14.089,43.14l6.69,14.347H19.23l-2.256-4.721h-6.18l-2.236,4.721H6.959l6.779-14.347H14.089z
	 M13.907,46.188l-2.458,5.193h4.905L13.907,46.188z"/>
<path fill="#FFFFFF" d="M21.496,43.14h2.858c1.638,0,2.744,0.071,3.315,0.215c0.819,0.2,1.489,0.614,2.009,1.242
	s0.781,1.416,0.781,2.365c0,0.956-0.254,1.746-0.761,2.366s-1.206,1.039-2.097,1.253c-0.65,0.157-1.866,0.233-3.648,0.233H22.93
	v6.673h-1.434V43.14z M22.929,44.544v4.867l2.429,0.028c0.982,0,1.701-0.089,2.156-0.268c0.455-0.178,0.813-0.467,1.073-0.866
	c0.26-0.399,0.39-0.845,0.39-1.338c0-0.479-0.129-0.919-0.39-1.318c-0.26-0.399-0.603-0.684-1.028-0.852
	c-0.426-0.168-1.124-0.252-2.093-0.252h-2.536V44.544z"/>
<rect y="19" fill="#010101" width="169.646" height="45"/>
<rect x="169.246" y="19" fill="#939292" width="260.957" height="45"/>
<path fill="#010101" d="M222.418,39.242l-1.665,1.277c-0.919-1.197-2.021-2.104-3.31-2.721c-1.288-0.617-2.7-0.926-4.241-0.926
	c-1.686,0-3.244,0.404-4.68,1.213s-2.549,1.895-3.338,3.26c-0.789,1.363-1.184,2.896-1.184,4.6c0,2.574,0.883,4.725,2.648,6.445
	c1.765,1.723,3.993,2.584,6.683,2.584c2.957,0,5.433-1.158,7.422-3.473l1.665,1.264c-1.053,1.34-2.366,2.375-3.939,3.107
	c-1.575,0.732-3.333,1.098-5.275,1.098c-3.694,0-6.608-1.229-8.742-3.689c-1.79-2.076-2.685-4.584-2.685-7.521
	c0-3.09,1.084-5.691,3.251-7.801c2.168-2.111,4.884-3.167,8.147-3.167c1.972,0,3.751,0.39,5.34,1.171
	C220.104,36.742,221.402,37.836,222.418,39.242z"/>
<path fill="#010101" d="M238.18,34.792c3.198,0,5.875,1.067,8.029,3.2c2.154,2.135,3.232,4.762,3.232,7.883
	c0,3.09-1.075,5.713-3.227,7.865c-2.148,2.154-4.771,3.23-7.863,3.23c-3.133,0-5.774-1.072-7.931-3.215
	c-2.153-2.145-3.231-4.738-3.231-7.781c0-2.029,0.49-3.91,1.473-5.643s2.32-3.088,4.016-4.07
	C234.372,35.281,236.206,34.792,238.18,34.792z M238.271,36.846c-1.562,0-3.043,0.406-4.441,1.221
	c-1.4,0.814-2.493,1.91-3.279,3.289c-0.785,1.379-1.179,2.918-1.179,4.613c0,2.508,0.87,4.627,2.608,6.355
	c1.74,1.73,3.838,2.594,6.291,2.594c1.641,0,3.156-0.396,4.551-1.191c1.396-0.795,2.482-1.883,3.265-3.262
	c0.781-1.379,1.172-2.912,1.172-4.598c0-1.676-0.391-3.191-1.172-4.547c-0.78-1.355-1.881-2.439-3.3-3.254
	C241.369,37.252,239.863,36.846,238.271,36.846z"/>
<path fill="#010101" d="M255.16,56.439V35.322h0.459l14.055,16.188V35.322h2.081v21.117h-0.474l-13.939-15.99v15.99H255.16z"/>
<path fill="#010101" d="M278.379,56.439V35.322h0.459l14.055,16.188V35.322h2.082v21.117H294.5l-13.939-15.99v15.99H278.379z"/>
<path fill="#010101" d="M301.598,35.322H313.7v2.068h-9.991v6.617h9.905v2.066h-9.905v8.299h9.905v2.066h-12.017V35.322z"/>
<path fill="#010101" d="M338.481,39.242l-1.665,1.277c-0.92-1.197-2.021-2.104-3.31-2.721s-2.701-0.926-4.242-0.926
	c-1.685,0-3.243,0.404-4.68,1.213c-1.436,0.809-2.549,1.895-3.338,3.26c-0.79,1.363-1.186,2.896-1.186,4.6
	c0,2.574,0.884,4.725,2.648,6.445c1.765,1.723,3.993,2.584,6.683,2.584c2.957,0,5.433-1.158,7.423-3.473l1.665,1.264
	c-1.054,1.34-2.366,2.375-3.94,3.107s-3.333,1.098-5.275,1.098c-3.693,0-6.607-1.229-8.741-3.689
	c-1.79-2.076-2.686-4.584-2.686-7.521c0-3.09,1.084-5.691,3.251-7.801c2.168-2.111,4.884-3.167,8.147-3.167
	c1.971,0,3.751,0.39,5.34,1.171C336.166,36.742,337.467,37.836,338.481,39.242z"/>
<path fill="#010101" d="M342.091,37.391v-2.068h11.57v2.068h-4.708v19.049H346.8V37.391H342.091z"/>
<path fill="#010101" d="M357.874,35.322h2.11v21.117h-2.11V35.322z"/>
<path fill="#010101" d="M376.348,34.792c3.198,0,5.875,1.067,8.029,3.2c2.154,2.135,3.232,4.762,3.232,7.883
	c0,3.09-1.075,5.713-3.227,7.865c-2.148,2.154-4.771,3.23-7.864,3.23c-3.132,0-5.773-1.072-7.93-3.215
	c-2.154-2.145-3.23-4.738-3.23-7.781c0-2.029,0.489-3.91,1.472-5.643c0.981-1.732,2.32-3.088,4.016-4.07
	C372.54,35.281,374.374,34.792,376.348,34.792z M376.44,36.846c-1.562,0-3.043,0.406-4.442,1.221c-1.4,0.814-2.493,1.91-3.279,3.289
	c-0.785,1.379-1.179,2.918-1.179,4.613c0,2.508,0.87,4.627,2.609,6.355c1.739,1.73,3.837,2.594,6.291,2.594
	c1.64,0,3.155-0.396,4.551-1.191c1.395-0.795,2.481-1.883,3.264-3.262c0.781-1.379,1.172-2.912,1.172-4.598
	c0-1.676-0.391-3.191-1.172-4.547s-1.881-2.439-3.3-3.254C379.537,37.252,378.032,36.846,376.44,36.846z"/>
<path fill="#010101" d="M393.329,56.439V35.322h0.459l14.055,16.188V35.322h2.081v21.117h-0.474l-13.939-15.99v15.99H393.329z"/>
<path fill="#FFFFFF" d="M16.544,37.225h9.454v1.395c-1.258,0.027-2.062,0.141-2.409,0.34c-0.35,0.197-0.523,0.48-0.523,0.85
	c0,0.301,0.068,0.602,0.206,0.902l5.095,11.342l4.637-10.996c0.068-0.191,0.103-0.383,0.103-0.574c0-0.996-0.981-1.617-2.944-1.863
	v-1.395h7.957v1.395c-0.807,0.082-1.449,0.303-1.928,0.656c-0.479,0.355-0.849,0.834-1.109,1.436l-7.04,16.305h-1.108L19.374,40.26
	c-0.273-0.602-0.605-1.021-0.994-1.26c-0.391-0.24-1.002-0.367-1.836-0.381V37.225z"/>
<path fill="#FFFFFF" d="M39.574,37.225L47.223,37v16.527c0,0.451,0.109,0.773,0.328,0.965c0.314,0.273,0.711,0.41,1.189,0.41h2.174
	v1.537h-10.93v-1.537h2.03c0.602,0,1.042-0.146,1.322-0.441c0.28-0.293,0.421-0.721,0.421-1.281V41.078
	c0-0.766-0.219-1.342-0.656-1.732c-0.437-0.389-1.087-0.584-1.948-0.584h-1.579V37.225z M44.906,25.761
	c0.615,0,1.155,0.232,1.62,0.697c0.465,0.465,0.697,1.012,0.697,1.641c0,0.615-0.226,1.148-0.677,1.6
	c-0.451,0.452-0.991,0.677-1.62,0.677c-0.629,0-1.173-0.229-1.631-0.687s-0.687-0.995-0.687-1.61c0-0.615,0.232-1.155,0.697-1.62
	C43.77,25.994,44.305,25.761,44.906,25.761z"/>
<path fill="#FFFFFF" d="M55.488,49.201c0.848,2.365,1.821,4.002,2.922,4.912s2.458,1.363,4.071,1.363
	c1.49,0,2.636-0.324,3.435-0.973c0.801-0.65,1.2-1.475,1.2-2.473c0-0.572-0.147-1.076-0.441-1.506
	c-0.295-0.432-0.702-0.752-1.223-0.965c-0.521-0.211-1.87-0.521-4.048-0.932c-2.083-0.41-3.534-0.842-4.355-1.293
	c-0.82-0.451-1.461-1.072-1.919-1.865s-0.688-1.654-0.688-2.584c0-1.408,0.473-2.688,1.417-3.836
	c1.219-1.463,2.923-2.193,5.114-2.193c1.67,0,3.218,0.525,4.642,1.578L66.97,37h0.842l0.534,6.85h-1.374
	c-0.604-1.941-1.418-3.338-2.445-4.193c-1.027-0.855-2.295-1.281-3.801-1.281c-1.302,0-2.322,0.316-3.062,0.953
	c-0.739,0.637-1.109,1.412-1.109,2.328c0,0.807,0.342,1.477,1.027,2.01c0.671,0.547,1.986,0.979,3.944,1.295
	c2.273,0.383,3.753,0.707,4.438,0.967c1.122,0.41,1.991,1.041,2.607,1.895c0.616,0.855,0.924,1.896,0.924,3.125
	c0,1.695-0.667,3.129-2.002,4.305s-3.029,1.764-5.083,1.764c-1.902,0-3.669-0.629-5.298-1.887l-1.499,1.723h-1.088l-0.411-7.65
	H55.488L55.488,49.201z"/>
<path fill="#FFFFFF" d="M79.195,36.877v12.734c0,1.559,0.393,2.762,1.177,3.609c0.784,0.846,1.798,1.27,3.039,1.27
	c1.527,0,2.827-0.617,3.898-1.855c1.07-1.236,1.606-2.785,1.606-4.645v-7.197c0-0.656-0.236-1.166-0.707-1.529
	c-0.473-0.361-1.378-0.564-2.718-0.605v-1.436l6.747-0.348v15.77c0,0.725,0.205,1.283,0.615,1.672s0.984,0.584,1.723,0.584h1.21
	v1.373l-6.46,0.145l-0.41-3.773c-1.146,1.355-2.301,2.373-3.461,3.057c-1.16,0.684-2.334,1.025-3.521,1.025
	c-1.733,0-3.188-0.582-4.361-1.744c-1.188-1.146-1.781-3.096-1.781-5.844v-8.348c0-0.738-0.294-1.299-0.882-1.682
	c-0.41-0.273-1.251-0.424-2.522-0.451v-1.436L79.195,36.877z"/>
<path fill="#FFFFFF" d="M118.57,54.328l0.738,1.148c-0.998,1.025-2.105,1.537-3.322,1.537c-0.93,0-1.712-0.252-2.349-0.758
	c-0.635-0.506-1.192-1.396-1.671-2.666c-1.299,1.367-2.44,2.279-3.425,2.736c-0.985,0.459-2.167,0.688-3.548,0.688
	c-1.969,0-3.466-0.424-4.491-1.271c-1.025-0.846-1.538-1.934-1.538-3.26c0-1.996,1.172-3.654,3.517-4.973
	c2.345-1.32,5.466-2.199,9.362-2.635v-2.912c0-1.039-0.417-1.93-1.251-2.666c-0.834-0.738-1.894-1.107-3.179-1.107
	c-1.189,0-2.215,0.246-3.076,0.738c-0.615,0.369-0.923,0.73-0.923,1.086c0,0.205,0.164,0.527,0.492,0.965
	c0.396,0.547,0.595,1.031,0.595,1.455c0,0.615-0.198,1.119-0.595,1.508c-0.397,0.389-0.916,0.584-1.559,0.584
	c-0.684,0-1.255-0.232-1.713-0.697s-0.687-1.061-0.687-1.783c0-1.355,0.762-2.592,2.286-3.713s3.524-1.682,5.999-1.682
	c2.283,0,4.026,0.492,5.229,1.477c1.203,0.998,1.805,2.209,1.805,3.631v10.5c0,0.93,0.15,1.611,0.451,2.051
	c0.301,0.451,0.69,0.676,1.169,0.676C117.422,54.984,117.982,54.766,118.57,54.328z M111.844,46.229
	c-3.473,0.479-5.934,1.258-7.383,2.338c-1.08,0.82-1.62,1.982-1.62,3.486c0,1.053,0.28,1.875,0.841,2.471
	c0.561,0.594,1.292,0.893,2.194,0.893c1.613,0,3.011-0.613,4.193-1.836c1.182-1.223,1.774-2.758,1.774-4.604v-2.748H111.844z"/>
<path fill="#FFFFFF" d="M128.886,25.761v27.851c0,0.383,0.116,0.678,0.349,0.881c0.342,0.273,0.759,0.41,1.251,0.41h2.03v1.539
	h-10.89v-1.539h1.928c0.629,0,1.097-0.148,1.405-0.451c0.307-0.301,0.461-0.725,0.461-1.27V29.801c0-0.684-0.185-1.183-0.554-1.497
	c-0.506-0.438-1.128-0.656-1.866-0.656h-1.723v-1.539L128.886,25.761z"/>
<path fill="#005273" d="M160.927,45.539c-4.828-3.137-7.557-8.307-7.769-13.67c-2.157,1.324-4.06,3.131-5.503,5.414
	c-5.046,7.98-2.667,18.541,5.314,23.59c5.489,3.471,12.198,3.43,17.495,0.469c-0.542-0.268-1.077-0.562-1.599-0.893
	C163.586,57.109,160.777,51.359,160.927,45.539z"/>
<path fill="#D66C29" d="M169.646,31.076c5.296-2.96,12.006-3.002,17.495,0.469c0.06,0.039,0.113,0.084,0.173,0.122
	c0.15-5.82-2.659-11.571-7.938-14.908c-7.982-5.047-18.542-2.669-23.59,5.313c-1.922,3.04-2.76,6.455-2.628,9.795
	C158.048,28.868,164.273,28.429,169.646,31.076z"/>
<path fill="#005273" d="M160.927,45.539c0.077-2.98,0.916-5.979,2.625-8.682c1.575-2.492,3.689-4.438,6.095-5.781
	c-5.374-2.647-11.598-2.208-16.488,0.792C153.371,37.232,156.099,42.402,160.927,45.539z"/>
<path fill="#87776A" d="M160.927,45.539c0.077-2.98,0.916-5.979,2.625-8.682c1.575-2.492,3.689-4.438,6.095-5.781
	c-5.374-2.647-11.598-2.208-16.488,0.792C153.371,37.232,156.099,42.402,160.927,45.539z"/>
<path fill="#517542" d="M187.314,31.667c-0.077,2.981-0.916,5.979-2.625,8.681c-1.443,2.283-3.346,4.09-5.502,5.412
	c0.132,3.344-0.706,6.758-2.629,9.799c-1.576,2.492-3.69,4.438-6.095,5.783c7.742,3.814,17.274,1.254,21.991-6.205
	C197.462,47.215,195.15,36.758,187.314,31.667z"/>
<path fill="#005273" d="M176.559,55.559c1.923-3.041,2.761-6.455,2.629-9.799c-5.382,3.305-12.388,3.506-18.087-0.1
	c-0.06-0.037-0.113-0.082-0.173-0.121c-0.15,5.82,2.659,11.57,7.938,14.91c0.522,0.33,1.057,0.625,1.599,0.893
	C172.869,59.996,174.983,58.051,176.559,55.559z"/>
<path fill="#9CCC52" d="M176.559,55.559c1.923-3.041,2.761-6.455,2.629-9.799c-5.382,3.305-12.388,3.506-18.087-0.1
	c-0.06-0.037-0.113-0.082-0.173-0.121c-0.15,5.82,2.659,11.57,7.938,14.91c0.522,0.33,1.057,0.625,1.599,0.893
	C172.869,59.996,174.983,58.051,176.559,55.559z"/>
<path fill="#D66C29" d="M169.646,31.076c0.542,0.267,1.077,0.562,1.599,0.892c4.94,3.124,7.727,8.36,7.942,13.792
	c2.156-1.322,4.059-3.129,5.502-5.412c1.709-2.703,2.547-5.699,2.625-8.681c-0.06-0.038-0.113-0.083-0.173-0.122
	C181.652,28.074,174.942,28.116,169.646,31.076z"/>
<path fill="#CFB7A1" d="M169.646,31.076c0.542,0.267,1.077,0.562,1.599,0.892c4.94,3.124,7.727,8.36,7.942,13.792
	c2.156-1.322,4.059-3.129,5.502-5.412c1.709-2.703,2.547-5.699,2.625-8.681c-0.06-0.038-0.113-0.083-0.173-0.122
	C181.652,28.074,174.942,28.116,169.646,31.076z"/>
<path fill="#005273" d="M171.246,31.968c-0.522-0.331-1.057-0.625-1.599-0.892c-2.405,1.344-4.52,3.29-6.095,5.782
	c-1.709,2.703-2.547,5.701-2.625,8.682c0.06,0.037,0.113,0.084,0.173,0.121c5.699,3.604,12.705,3.402,18.087,0.1
	C178.973,40.33,176.186,35.092,171.246,31.968z"/>
<path fill="#D66C29" d="M171.246,31.968c-0.522-0.331-1.057-0.625-1.599-0.892c-2.405,1.344-4.52,3.29-6.095,5.782
	c-1.709,2.703-2.547,5.701-2.625,8.682c0.06,0.037,0.113,0.084,0.173,0.121c5.699,3.604,12.705,3.402,18.087,0.1
	C178.973,40.33,176.186,35.092,171.246,31.968z"/>
<path fill="#606161" d="M171.246,31.968c-0.522-0.331-1.057-0.625-1.599-0.892c-2.405,1.344-4.52,3.29-6.095,5.782
	c-1.709,2.703-2.547,5.701-2.625,8.682c0.06,0.037,0.113,0.084,0.173,0.121c5.699,3.604,12.705,3.402,18.087,0.1
	C178.973,40.33,176.186,35.092,171.246,31.968z"/>
</svg>
