<?xml version="1.0" encoding="utf-8"?>
<!-- Generator: Adobe Illustrator 14.0.0, SVG Export Plug-In  -->
<!DOCTYPE svg PUBLIC "-//W3C//DTD SVG 1.1//EN" "http://www.w3.org/Graphics/SVG/1.1/DTD/svg11.dtd" [
	<!ENTITY ns_flows "http://ns.adobe.com/Flows/1.0/">
]>
<svg version="1.1"
	 xmlns="http://www.w3.org/2000/svg" xmlns:xlink="http://www.w3.org/1999/xlink" xmlns:a="http://ns.adobe.com/AdobeSVGViewerExtensions/3.0/"
	 x="0px" y="0px" width="433px" height="52px" viewBox="0 -0.955 433 52" enable-background="new 0 -0.955 433 52"
	 xml:space="preserve">
<defs>
</defs>
<rect y="27.831" fill="#FCF9CE" width="432.202" height="23"/>
<rect y="1.891" fill="#010101" width="169.646" height="45"/>
<rect x="171.246" y="1.891" fill="#939292" width="260.957" height="45"/>
<path fill="#010101" d="M222.418,22.133l-1.665,1.277c-0.919-1.196-2.021-2.103-3.309-2.72s-2.701-0.926-4.242-0.926
	c-1.685,0-3.244,0.404-4.68,1.213c-1.436,0.809-2.549,1.895-3.338,3.259C204.395,25.6,204,27.134,204,28.837
	c0,2.574,0.883,4.723,2.648,6.445s3.993,2.584,6.683,2.584c2.957,0,5.432-1.158,7.422-3.474l1.665,1.264
	c-1.053,1.34-2.366,2.375-3.94,3.108c-1.574,0.732-3.333,1.098-5.275,1.098c-3.694,0-6.608-1.229-8.742-3.689
	c-1.79-2.077-2.685-4.584-2.685-7.522c0-3.091,1.084-5.692,3.251-7.802c2.168-2.11,4.884-3.166,8.147-3.166
	c1.971,0,3.751,0.39,5.34,1.17C220.103,19.633,221.403,20.727,222.418,22.133z"/>
<path fill="#010101" d="M238.18,17.683c3.198,0,5.875,1.067,8.029,3.201c2.154,2.134,3.232,4.761,3.232,7.881
	c0,3.091-1.075,5.713-3.226,7.867c-2.149,2.153-4.771,3.23-7.864,3.23c-3.132,0-5.774-1.072-7.93-3.216
	c-2.154-2.144-3.231-4.737-3.231-7.781c0-2.029,0.49-3.909,1.472-5.642c0.982-1.732,2.32-3.088,4.016-4.07
	C234.372,18.173,236.206,17.683,238.18,17.683z M238.272,19.736c-1.562,0-3.043,0.407-4.442,1.221
	c-1.4,0.814-2.493,1.911-3.279,3.29c-0.785,1.379-1.179,2.917-1.179,4.612c0,2.509,0.87,4.628,2.609,6.357
	c1.74,1.729,3.837,2.593,6.291,2.593c1.64,0,3.156-0.397,4.551-1.192s2.482-1.882,3.264-3.261c0.781-1.379,1.172-2.912,1.172-4.598
	c0-1.676-0.391-3.192-1.172-4.547c-0.781-1.355-1.881-2.439-3.3-3.254C241.369,20.143,239.864,19.736,238.272,19.736z"/>
<path fill="#010101" d="M255.16,39.331V18.214h0.459l14.055,16.187V18.214h2.081v21.117h-0.474l-13.939-15.99v15.99H255.16z"/>
<path fill="#010101" d="M278.379,39.331V18.214h0.459l14.055,16.187V18.214h2.081v21.117H294.5l-13.939-15.99v15.99H278.379z"/>
<path fill="#010101" d="M301.598,18.214h12.102v2.067h-9.991v6.618h9.905v2.067h-9.905v8.297h9.905v2.067h-12.016V18.214z"/>
<path fill="#010101" d="M338.481,22.133l-1.665,1.277c-0.919-1.196-2.021-2.103-3.309-2.72s-2.701-0.926-4.242-0.926
	c-1.685,0-3.244,0.404-4.68,1.213c-1.436,0.809-2.549,1.895-3.338,3.259c-0.79,1.364-1.185,2.897-1.185,4.601
	c0,2.574,0.883,4.723,2.648,6.445s3.993,2.584,6.683,2.584c2.957,0,5.432-1.158,7.422-3.474l1.665,1.264
	c-1.053,1.34-2.366,2.375-3.94,3.108c-1.574,0.732-3.333,1.098-5.275,1.098c-3.694,0-6.608-1.229-8.742-3.689
	c-1.79-2.077-2.685-4.584-2.685-7.522c0-3.091,1.084-5.692,3.251-7.802c2.168-2.11,4.884-3.166,8.147-3.166
	c1.971,0,3.751,0.39,5.34,1.17C336.166,19.633,337.467,20.727,338.481,22.133z"/>
<path fill="#010101" d="M342.091,20.281v-2.067h11.57v2.067h-4.708v19.05H346.8v-19.05H342.091z"/>
<path fill="#010101" d="M357.874,18.214h2.11v21.117h-2.11V18.214z"/>
<path fill="#010101" d="M376.348,17.683c3.198,0,5.875,1.067,8.029,3.201c2.154,2.134,3.232,4.761,3.232,7.881
	c0,3.091-1.075,5.713-3.226,7.867c-2.149,2.153-4.771,3.23-7.864,3.23c-3.132,0-5.774-1.072-7.93-3.216
	c-2.154-2.144-3.231-4.737-3.231-7.781c0-2.029,0.49-3.909,1.472-5.642c0.982-1.732,2.32-3.088,4.016-4.07
	C372.54,18.173,374.374,17.683,376.348,17.683z M376.44,19.736c-1.562,0-3.043,0.407-4.442,1.221c-1.4,0.814-2.493,1.911-3.279,3.29
	c-0.785,1.379-1.179,2.917-1.179,4.612c0,2.509,0.87,4.628,2.609,6.357c1.74,1.729,3.837,2.593,6.291,2.593
	c1.64,0,3.156-0.397,4.551-1.192s2.482-1.882,3.264-3.261c0.781-1.379,1.172-2.912,1.172-4.598c0-1.676-0.391-3.192-1.172-4.547
	c-0.781-1.355-1.881-2.439-3.3-3.254C379.537,20.143,378.032,19.736,376.44,19.736z"/>
<path fill="#010101" d="M393.329,39.331V18.214h0.459l14.055,16.187V18.214h2.081v21.117h-0.474l-13.939-15.99v15.99H393.329z"/>
<path fill="#FFFFFF" d="M16.544,20.116h9.454v1.395c-1.258,0.027-2.062,0.14-2.409,0.338c-0.35,0.198-0.523,0.482-0.523,0.851
	c0,0.301,0.068,0.602,0.206,0.902l5.095,11.341l4.637-10.996c0.068-0.191,0.103-0.382,0.103-0.573c0-0.997-0.981-1.618-2.944-1.863
	v-1.395h7.957v1.395c-0.807,0.082-1.449,0.301-1.928,0.656S35.343,23,35.083,23.602l-7.04,16.304h-1.108l-7.561-16.755
	c-0.273-0.602-0.605-1.022-0.994-1.261c-0.391-0.239-1.002-0.366-1.836-0.379V20.116z"/>
<path fill="#FFFFFF" d="M39.574,20.116l7.649-0.226v16.529c0,0.451,0.109,0.772,0.328,0.964c0.314,0.273,0.711,0.41,1.189,0.41
	h2.174v1.538H39.984v-1.538h2.03c0.602,0,1.042-0.147,1.322-0.441s0.421-0.721,0.421-1.282v-12.1c0-0.766-0.219-1.343-0.656-1.733
	s-1.087-0.584-1.948-0.584h-1.579V20.116z M44.906,8.652c0.615,0,1.155,0.232,1.62,0.697s0.697,1.012,0.697,1.641
	c0,0.615-0.226,1.148-0.677,1.6s-0.991,0.677-1.62,0.677s-1.173-0.229-1.631-0.687s-0.687-0.995-0.687-1.61s0.232-1.155,0.697-1.62
	S44.305,8.652,44.906,8.652z"/>
<path fill="#FFFFFF" d="M55.488,32.092c0.848,2.365,1.821,4.002,2.922,4.912s2.458,1.364,4.071,1.364
	c1.49,0,2.636-0.325,3.435-0.974c0.801-0.649,1.2-1.473,1.2-2.471c0-0.574-0.147-1.077-0.441-1.507
	c-0.295-0.431-0.702-0.752-1.223-0.964s-1.87-0.523-4.048-0.933c-2.083-0.41-3.534-0.841-4.355-1.292
	c-0.82-0.451-1.461-1.073-1.919-1.866s-0.688-1.654-0.688-2.584c0-1.408,0.473-2.687,1.417-3.835
	c1.219-1.463,2.923-2.194,5.114-2.194c1.67,0,3.218,0.526,4.642,1.579l1.355-1.436h0.842l0.534,6.85h-1.374
	c-0.604-1.941-1.418-3.339-2.445-4.194s-2.295-1.282-3.801-1.282c-1.302,0-2.322,0.318-3.062,0.954
	c-0.739,0.636-1.109,1.412-1.109,2.328c0,0.807,0.342,1.477,1.027,2.01c0.671,0.547,1.986,0.978,3.944,1.294
	c2.273,0.384,3.753,0.707,4.438,0.967c1.122,0.41,1.991,1.042,2.607,1.896s0.924,1.896,0.924,3.125c0,1.694-0.667,3.129-2.002,4.304
	c-1.335,1.175-3.029,1.763-5.083,1.763c-1.902,0-3.669-0.629-5.298-1.887l-1.499,1.723h-1.088l-0.411-7.649H55.488z"/>
<path fill="#FFFFFF" d="M79.195,19.767v12.735c0,1.559,0.393,2.762,1.177,3.609s1.798,1.271,3.039,1.271
	c1.527,0,2.827-0.619,3.898-1.856c1.07-1.237,1.606-2.786,1.606-4.645v-7.198c0-0.656-0.236-1.166-0.707-1.528
	c-0.473-0.362-1.378-0.564-2.718-0.605v-1.436l6.747-0.349v15.771c0,0.725,0.205,1.282,0.615,1.671s0.984,0.584,1.723,0.584h1.21
	v1.374l-6.46,0.144l-0.41-3.773c-1.146,1.354-2.301,2.372-3.461,3.056s-2.334,1.025-3.521,1.025c-1.733,0-3.188-0.581-4.361-1.743
	c-1.188-1.148-1.781-3.097-1.781-5.845v-8.347c0-0.738-0.294-1.299-0.882-1.682c-0.41-0.273-1.251-0.424-2.522-0.451v-1.436
	L79.195,19.767z"/>
<path fill="#FFFFFF" d="M118.57,37.219l0.738,1.148c-0.998,1.025-2.105,1.538-3.322,1.538c-0.93,0-1.712-0.253-2.349-0.759
	c-0.635-0.506-1.192-1.395-1.671-2.666c-1.299,1.367-2.44,2.28-3.425,2.738s-2.167,0.687-3.548,0.687
	c-1.969,0-3.466-0.424-4.491-1.271s-1.538-1.935-1.538-3.261c0-1.996,1.172-3.654,3.517-4.973s5.466-2.198,9.362-2.635v-2.912
	c0-1.039-0.417-1.928-1.251-2.666s-1.894-1.107-3.179-1.107c-1.189,0-2.215,0.246-3.076,0.738c-0.615,0.369-0.923,0.731-0.923,1.087
	c0,0.205,0.164,0.526,0.492,0.964c0.396,0.547,0.595,1.032,0.595,1.456c0,0.615-0.198,1.118-0.595,1.507s-0.916,0.584-1.559,0.584
	c-0.684,0-1.255-0.232-1.713-0.697s-0.687-1.06-0.687-1.784c0-1.354,0.762-2.591,2.286-3.712s3.524-1.682,5.999-1.682
	c2.283,0,4.026,0.492,5.229,1.477c1.203,0.998,1.805,2.208,1.805,3.63v10.5c0,0.93,0.15,1.613,0.451,2.051
	c0.301,0.451,0.69,0.677,1.169,0.677C117.422,37.875,117.982,37.657,118.57,37.219z M111.844,29.119
	c-3.473,0.479-5.934,1.258-7.383,2.338c-1.08,0.82-1.62,1.982-1.62,3.486c0,1.053,0.28,1.876,0.841,2.471s1.292,0.892,2.194,0.892
	c1.613,0,3.011-0.612,4.193-1.835s1.774-2.758,1.774-4.604V29.119z"/>
<path fill="#FFFFFF" d="M128.886,8.652v27.85c0,0.383,0.116,0.677,0.349,0.882c0.342,0.273,0.759,0.41,1.251,0.41h2.03v1.538h-10.89
	v-1.538h1.928c0.629,0,1.097-0.15,1.405-0.451c0.307-0.301,0.461-0.725,0.461-1.271V12.692c0-0.684-0.185-1.183-0.554-1.497
	c-0.506-0.438-1.128-0.656-1.866-0.656h-1.723V9L128.886,8.652z"/>
<path fill="#005273" d="M160.927,31.43c-4.828-3.137-7.557-8.306-7.769-13.67c-2.157,1.324-4.06,3.131-5.503,5.414
	c-5.046,7.981-2.667,18.542,5.314,23.59c5.489,3.47,12.198,3.429,17.495,0.469c-0.542-0.267-1.077-0.562-1.599-0.892
	C163.586,43,160.777,37.25,160.927,31.43z"/>
<path fill="#D66C29" d="M169.646,16.967c5.296-2.96,12.006-3.002,17.495,0.469c0.06,0.039,0.113,0.084,0.173,0.122
	c0.15-5.82-2.659-11.571-7.938-14.908c-7.982-5.047-18.542-2.669-23.59,5.313c-1.922,3.04-2.76,6.455-2.628,9.796
	C158.048,14.759,164.273,14.32,169.646,16.967z"/>
<path fill="#005273" d="M160.927,31.43c0.077-2.98,0.916-5.978,2.625-8.681c1.575-2.492,3.689-4.438,6.095-5.781
	c-5.374-2.647-11.598-2.208-16.488,0.792C153.371,23.124,156.099,28.293,160.927,31.43z"/>
<path fill="#87776A" d="M160.927,31.43c0.077-2.98,0.916-5.978,2.625-8.681c1.575-2.492,3.689-4.438,6.095-5.781
	c-5.374-2.647-11.598-2.208-16.488,0.792C153.371,23.124,156.099,28.293,160.927,31.43z"/>
<path fill="#517542" d="M187.314,17.558c-0.077,2.981-0.916,5.979-2.625,8.681c-1.443,2.282-3.346,4.089-5.502,5.412
	c0.132,3.343-0.706,6.757-2.629,9.798c-1.576,2.493-3.69,4.438-6.095,5.783c7.742,3.816,17.274,1.254,21.991-6.205
	C197.462,33.105,195.15,22.648,187.314,17.558z"/>
<path fill="#005273" d="M176.559,41.449c1.923-3.041,2.761-6.455,2.629-9.798c-5.382,3.304-12.388,3.505-18.087-0.099
	c-0.06-0.038-0.113-0.083-0.173-0.122c-0.15,5.821,2.659,11.571,7.938,14.91c0.522,0.331,1.057,0.625,1.599,0.892
	C172.869,45.887,174.983,43.942,176.559,41.449z"/>
<path fill="#9CCC52" d="M176.559,41.449c1.923-3.041,2.761-6.455,2.629-9.798c-5.382,3.304-12.388,3.505-18.087-0.099
	c-0.06-0.038-0.113-0.083-0.173-0.122c-0.15,5.821,2.659,11.571,7.938,14.91c0.522,0.331,1.057,0.625,1.599,0.892
	C172.869,45.887,174.983,43.942,176.559,41.449z"/>
<path fill="#D66C29" d="M169.646,16.967c0.542,0.267,1.077,0.562,1.599,0.892c4.94,3.124,7.727,8.361,7.942,13.792
	c2.156-1.323,4.059-3.13,5.502-5.412c1.709-2.703,2.547-5.7,2.625-8.681c-0.06-0.038-0.113-0.083-0.173-0.122
	C181.652,13.965,174.942,14.007,169.646,16.967z"/>
<path fill="#CFB7A1" d="M169.646,16.967c0.542,0.267,1.077,0.562,1.599,0.892c4.94,3.124,7.727,8.361,7.942,13.792
	c2.156-1.323,4.059-3.13,5.502-5.412c1.709-2.703,2.547-5.7,2.625-8.681c-0.06-0.038-0.113-0.083-0.173-0.122
	C181.652,13.965,174.942,14.007,169.646,16.967z"/>
<path fill="#005273" d="M171.246,17.859c-0.522-0.331-1.057-0.625-1.599-0.892c-2.405,1.343-4.52,3.29-6.095,5.781
	c-1.709,2.703-2.547,5.701-2.625,8.681c0.06,0.039,0.113,0.084,0.173,0.122c5.699,3.604,12.705,3.403,18.087,0.099
	C178.973,26.221,176.186,20.983,171.246,17.859z"/>
<path fill="#D66C29" d="M171.246,17.859c-0.522-0.331-1.057-0.625-1.599-0.892c-2.405,1.343-4.52,3.29-6.095,5.781
	c-1.709,2.703-2.547,5.701-2.625,8.681c0.06,0.039,0.113,0.084,0.173,0.122c5.699,3.604,12.705,3.403,18.087,0.099
	C178.973,26.221,176.186,20.983,171.246,17.859z"/>
<path fill="#606161" d="M171.246,17.859c-0.522-0.331-1.057-0.625-1.599-0.892c-2.405,1.343-4.52,3.29-6.095,5.781
	c-1.709,2.703-2.547,5.701-2.625,8.681c0.06,0.039,0.113,0.084,0.173,0.122c5.699,3.604,12.705,3.403,18.087,0.099
	C178.973,26.221,176.186,20.983,171.246,17.859z"/>
</svg>
