<svg id="Layer_1" data-name="Layer 1" xmlns="http://www.w3.org/2000/svg" xmlns:xlink="http://www.w3.org/1999/xlink" viewBox="0 0 110 62"><defs><style>.cls-1,.cls-12,.cls-14{fill:#d5ced1;}.cls-1,.cls-2,.cls-3{clip-rule:evenodd;}.cls-15,.cls-17,.cls-2{fill:#f6d727;}.cls-18,.cls-3,.cls-4{fill:none;}.cls-5{opacity:0.5;}.cls-10,.cls-11,.cls-6,.cls-7,.cls-8,.cls-9{fill:#354557;}.cls-7{opacity:0.3;}.cls-8{opacity:0.2;}.cls-9{opacity:0.1;}.cls-10{opacity:0.05;}.cls-11{opacity:0.6;}.cls-12,.cls-15{fill-rule:evenodd;}.cls-13{clip-path:url(#clip-path);}.cls-16{clip-path:url(#clip-path-2);}.cls-18{stroke:#fff;stroke-linecap:round;stroke-miterlimit:10;stroke-width:1.25px;}.cls-19{clip-path:url(#clip-path-3);}.cls-20{isolation:isolate;}.cls-21{clip-path:url(#clip-path-4);}.cls-22{clip-path:url(#clip-path-5);}.cls-23{clip-path:url(#clip-path-6);}.cls-24{fill:#e0bea0;}.cls-25{clip-path:url(#clip-path-7);}.cls-26{clip-path:url(#clip-path-8);}.cls-27{clip-path:url(#clip-path-9);}.cls-28{clip-path:url(#clip-path-10);}.cls-29{clip-path:url(#clip-path-11);}.cls-30{clip-path:url(#clip-path-12);}.cls-31{clip-path:url(#clip-path-13);}.cls-32{clip-path:url(#clip-path-14);}.cls-33{clip-path:url(#clip-path-15);}.cls-34{fill:#c94b2f;}.cls-35{clip-path:url(#clip-path-16);}.cls-36{fill:#a53b2c;}.cls-37{clip-path:url(#clip-path-17);}.cls-38{clip-path:url(#clip-path-18);}.cls-39{clip-path:url(#clip-path-19);}.cls-40{clip-path:url(#clip-path-20);}.cls-41{clip-path:url(#clip-path-21);}.cls-42{clip-path:url(#clip-path-22);}.cls-43{clip-path:url(#clip-path-23);}.cls-44{clip-path:url(#clip-path-24);}.cls-45{clip-path:url(#clip-path-25);}.cls-46{clip-path:url(#clip-path-26);}.cls-47{fill:#fefefe;}.cls-48{clip-path:url(#clip-path-27);}.cls-49{clip-path:url(#clip-path-28);}.cls-50{clip-path:url(#clip-path-29);}.cls-51{clip-path:url(#clip-path-30);}.cls-52{clip-path:url(#clip-path-31);}.cls-53{clip-path:url(#clip-path-32);}.cls-54{clip-path:url(#clip-path-33);}.cls-55{clip-path:url(#clip-path-34);}.cls-56{clip-path:url(#clip-path-35);}.cls-57{clip-path:url(#clip-path-36);}.cls-58{clip-path:url(#clip-path-37);}.cls-59{clip-path:url(#clip-path-38);}.cls-60{clip-path:url(#clip-path-39);}.cls-61{clip-path:url(#clip-path-40);}.cls-62{fill:#f6ddc1;}.cls-63{clip-path:url(#clip-path-41);}.cls-64{fill:#e5cdb7;}.cls-65{clip-path:url(#clip-path-42);}.cls-66{clip-path:url(#clip-path-43);}.cls-67{clip-path:url(#clip-path-44);}.cls-68{clip-path:url(#clip-path-45);}.cls-69{clip-path:url(#clip-path-46);}.cls-70{fill:#604137;}.cls-71{clip-path:url(#clip-path-47);}.cls-72{fill:#354456;}.cls-73{clip-path:url(#clip-path-48);}.cls-74{fill:#e5e5e4;}.cls-75{clip-path:url(#clip-path-49);}.cls-76{fill:#d7d7d7;}.cls-77{clip-path:url(#clip-path-50);}.cls-78{fill:#d5d5d5;}</style><clipPath id="clip-path"><path class="cls-1" d="M32.79,18.77v1.42H31.3a.71.71,0,0,1,0-1.42Zm0-1.82v1.41H30.43a.71.71,0,1,1,0-1.41Zm0-14.45v14H30.43a.7.7,0,0,1-.71-.7.68.68,0,0,1,.21-.5A6.72,6.72,0,0,1,32.75,2.5Z"/></clipPath><clipPath id="clip-path-2"><path class="cls-2" d="M32.71,18.77v1.42H34.2a.71.71,0,0,0,0-1.42Zm0-1.82v1.41h2.36a.71.71,0,1,0,0-1.41Zm0-14.45v14h2.36a.7.7,0,0,0,.71-.7.68.68,0,0,0-.21-.5A6.72,6.72,0,0,0,32.75,2.5Z"/></clipPath><clipPath id="clip-path-3"><path class="cls-3" d="M59.2,23.86,59.79,27a3.56,3.56,0,0,0,2.42,2.78l.86.26-.49-5.83-.49-.83a2.2,2.2,0,0,0-1.44-1l-.24,0A1.29,1.29,0,0,0,59.2,23.86Z"/></clipPath><clipPath id="clip-path-4"><rect class="cls-4" x="53.56" y="16.38" width="15.07" height="19.5"/></clipPath><clipPath id="clip-path-5"><rect class="cls-4" x="53.63" y="16.42" width="14.99" height="19.46"/></clipPath><clipPath id="clip-path-6"><rect class="cls-4" x="59.01" y="22.26" width="4.09" height="7.75"/></clipPath><clipPath id="clip-path-7"><path class="cls-3" d="M82.48,22.31A2.24,2.24,0,0,0,81,23.36l-.5.82L80,30l.88-.26A3.58,3.58,0,0,0,83.36,27L84,23.86a1.3,1.3,0,0,0-1.25-1.57Z"/></clipPath><clipPath id="clip-path-8"><rect class="cls-4" x="74.25" y="16.38" width="15.5" height="19.5"/></clipPath><clipPath id="clip-path-9"><rect class="cls-4" x="74.28" y="16.42" width="15.42" height="19.46"/></clipPath><clipPath id="clip-path-10"><rect class="cls-4" x="79.96" y="22.26" width="4.26" height="7.75"/></clipPath><clipPath id="clip-path-11"><path class="cls-3" d="M63.77,32v5.42a4.09,4.09,0,0,1-2.53,3.77L50.31,45.75a10,10,0,0,0-6.15,9v7.65H98.85V54.79a9.94,9.94,0,0,0-6.15-9L81.77,41.21a4.09,4.09,0,0,1-2.53-3.77V32Z"/></clipPath><clipPath id="clip-path-12"><rect class="cls-4" x="38.32" y="26.26" width="66.34" height="41.98"/></clipPath><clipPath id="clip-path-13"><rect class="cls-4" x="38.36" y="26.27" width="66.29" height="41.92"/></clipPath><clipPath id="clip-path-14"><rect class="cls-4" x="44.11" y="31.97" width="54.75" height="30.49"/></clipPath><clipPath id="clip-path-15"><path class="cls-3" d="M92.7,45.55,81.77,41a4.15,4.15,0,0,1-2.31-2.51,20.17,20.17,0,0,1-2.19,3c-.31.35-.63.71-1,1.07l-.49.17a5,5,0,0,0-3.1,3.22l-.23.74-1,3.11L70.3,45.93a5,5,0,0,0-3.1-3.22l-.49-.17-.16-.18c-.38-.41-.74-.82-1.08-1.22-.1-.11-.19-.22-.28-.34-.37-.46-.73-.92-1-1.4-.21-.31-.4-.63-.59-.95A4.12,4.12,0,0,1,61.24,41L50.31,45.55a10.07,10.07,0,0,0-6.15,9.27v7.61H98.85V54.82a10.07,10.07,0,0,0-6.15-9.27"/></clipPath><clipPath id="clip-path-16"><path class="cls-3" d="M79.55,38.3a21.53,21.53,0,0,1-3.25,4.24l-.49.17a5,5,0,0,0-3.1,3.22L71.5,49.78l2.25-3.49A2.88,2.88,0,0,1,76.3,45l4.16,5.83a18.5,18.5,0,0,0,1.47-7.69V41.05a7.69,7.69,0,0,1-2.38-2.75"/></clipPath><clipPath id="clip-path-17"><path class="cls-3" d="M76.36,42.5l-.5.17a5,5,0,0,0-3.12,3.19l-1.21,3.82,2.26-3.46a2.89,2.89,0,0,1,2.57-1.3l4.19,5.78A18,18,0,0,0,82,43.08V41a7.69,7.69,0,0,1-2.39-2.74A21.32,21.32,0,0,1,76.36,42.5Z"/></clipPath><clipPath id="clip-path-18"><rect class="cls-4" x="65.65" y="32.48" width="22.31" height="24.01"/></clipPath><clipPath id="clip-path-19"><rect class="cls-4" x="65.68" y="32.53" width="22.2" height="23.94"/></clipPath><clipPath id="clip-path-20"><rect class="cls-4" x="71.44" y="38.27" width="10.64" height="12.43"/></clipPath><clipPath id="clip-path-21"><path class="cls-3" d="M67.6,42.93l-.51-.17a26.37,26.37,0,0,1-2.6-3.18l-1.38,0a8.11,8.11,0,0,1-1.71,1.7v2.09a18.77,18.77,0,0,0,1.48,7.79l4.22-5.91a2.83,2.83,0,0,1,2.75,1.36L72,50.09l-1.22-3.9a5.06,5.06,0,0,0-3.13-3.26"/></clipPath><clipPath id="clip-path-22"><path class="cls-3" d="M61.45,41.05v2.08a18.66,18.66,0,0,0,1.48,7.73L67.12,45a2.85,2.85,0,0,1,2.74,1.35L72,49.83,70.74,46a5,5,0,0,0-3.12-3.24l-.5-.17a26.24,26.24,0,0,1-2.59-3.15l-1.37,0A7.88,7.88,0,0,1,61.45,41.05Z"/></clipPath><clipPath id="clip-path-23"><rect class="cls-4" x="55.52" y="33.42" width="22.31" height="23.33"/></clipPath><clipPath id="clip-path-24"><rect class="cls-4" x="55.6" y="33.5" width="22.2" height="23.23"/></clipPath><clipPath id="clip-path-25"><rect class="cls-4" x="61.4" y="39.29" width="10.64" height="11.58"/></clipPath><clipPath id="clip-path-26"><path class="cls-3" d="M80.58,48.57h0A18.58,18.58,0,0,0,82,41l-2.23-2.46a20.81,20.81,0,0,1-3.22,4.29l4,5.75Z"/></clipPath><clipPath id="clip-path-27"><path class="cls-3" d="M76.75,42.62,81,48.5h0a18.41,18.41,0,0,0,1.5-7.75l-2.36-2.53A21.63,21.63,0,0,1,76.75,42.62Z"/></clipPath><clipPath id="clip-path-28"><rect class="cls-4" x="70.76" y="32.31" width="17.71" height="22.14"/></clipPath><clipPath id="clip-path-29"><rect class="cls-4" x="70.8" y="32.35" width="17.68" height="22.03"/></clipPath><clipPath id="clip-path-30"><rect class="cls-4" x="76.72" y="38.18" width="5.88" height="10.39"/></clipPath><clipPath id="clip-path-31"><path class="cls-3" d="M62.82,48.57l4-5.75a20.81,20.81,0,0,1-3.22-4.29L61.4,41a18.41,18.41,0,0,0,1.42,7.58Z"/></clipPath><clipPath id="clip-path-32"><path class="cls-3" d="M61.45,40.75a19.58,19.58,0,0,0,1.4,7.75h0l4-5.88a21.45,21.45,0,0,1-3.17-4.4Z"/></clipPath><clipPath id="clip-path-33"><rect class="cls-4" x="55.86" y="32.31" width="16.52" height="22.14"/></clipPath><clipPath id="clip-path-34"><rect class="cls-4" x="55.92" y="32.35" width="16.43" height="22.03"/></clipPath><clipPath id="clip-path-35"><rect class="cls-4" x="61.4" y="38.18" width="5.45" height="10.39"/></clipPath><clipPath id="clip-path-36"><path class="cls-3" d="M64.15,32v4.88a7.65,7.65,0,0,0,.78,1l2,2a5.53,5.53,0,0,0,3.83,1.54h2A5.53,5.53,0,0,0,76.69,40l2-2a7.58,7.58,0,0,0,.77-1V32Z"/></clipPath><clipPath id="clip-path-37"><rect class="cls-4" x="58.33" y="26.18" width="26.99" height="21.2"/></clipPath><clipPath id="clip-path-38"><rect class="cls-4" x="58.39" y="26.18" width="26.87" height="21.19"/></clipPath><clipPath id="clip-path-39"><rect class="cls-4" x="64.12" y="31.97" width="15.41" height="9.62"/></clipPath><clipPath id="clip-path-40"><path class="cls-3" d="M72.79,38.94a5.55,5.55,0,0,0,3.83-1.52l2-2a7.08,7.08,0,0,0,1.88-4.06l.63-5.75a30.68,30.68,0,0,0,.19-3.45V16.33a8.79,8.79,0,0,0-8.78-8.8H71a8.8,8.8,0,0,0-8.79,8.8v5.85a33.24,33.24,0,0,0,.19,3.45L63,31.38a7.08,7.08,0,0,0,1.88,4.06l2,2a5.53,5.53,0,0,0,3.82,1.52Z"/></clipPath><clipPath id="clip-path-41"><path class="cls-3" d="M72,7.53H71a8.79,8.79,0,0,0-8.79,8.8v5.85a33.24,33.24,0,0,0,.19,3.45L63,31.38a7.08,7.08,0,0,0,1.88,4.06l2,2a5.53,5.53,0,0,0,3.82,1.52h1.2V30.51l-.81-1.2.81-5.44Z"/></clipPath><clipPath id="clip-path-42"><path class="cls-3" d="M65.86,9a9.09,9.09,0,0,0-3.65,7.16h.71v-.06A3.51,3.51,0,0,1,65,13.27c2.35-.93,3.34.59,6.7.59s4.36-1.52,6.71-.59a3.48,3.48,0,0,1,2,2.85.15.15,0,0,0,0,.06h.86A9.09,9.09,0,0,0,78,9.28,12.65,12.65,0,0,0,71.68,7.7,12.89,12.89,0,0,0,65.86,9Z"/></clipPath><clipPath id="clip-path-43"><rect class="cls-4" x="56.46" y="1.74" width="30.66" height="20.35"/></clipPath><clipPath id="clip-path-44"><rect class="cls-4" x="56.47" y="1.79" width="30.58" height="20.29"/></clipPath><clipPath id="clip-path-45"><rect class="cls-4" x="62.16" y="7.7" width="19.16" height="8.52"/></clipPath><clipPath id="clip-path-46"><path class="cls-3" d="M80.73,10.61c-1.83-2.55-5.31-4.08-9.37-4.08S63.83,8.06,62,10.61s-2.48,5.53-1.69,11.67a1.23,1.23,0,0,1,.27,0,2.33,2.33,0,0,1,1.2.63c1.28-4.75.33-4,.67-8.19A3.4,3.4,0,0,1,64.54,12c2.39-.91,3.41.57,6.82.57s4.44-1.48,6.82-.57a3.36,3.36,0,0,1,2.09,2.77c.35,4.25-.62,3.42.71,8.32h0a2.3,2.3,0,0,1,1.31-.76h.16c.72-6,0-9.23-1.73-11.68"/></clipPath><clipPath id="clip-path-47"><path class="cls-3" d="M81.57,20.55c-1-.06-4.32-.25-5.9-.25-1.85,0-3.18.87-3.91.87h-.64c-.73,0-2.06-.87-3.91-.87-1.57,0-4.92.19-5.9.25a.29.29,0,0,0-.28.29v.65a.42.42,0,0,0,.26.39,1.14,1.14,0,0,1,.6.78c.25.83.62,3.7,2.84,4.17s4-.1,4.71-1.21.8-3,1.68-3h.64c.88,0,1,1.87,1.69,3s2.5,1.68,4.71,1.21,2.58-3.34,2.83-4.17a1.15,1.15,0,0,1,.61-.78.43.43,0,0,0,.25-.39v-.65a.29.29,0,0,0-.28-.29M68.88,25.36a3.62,3.62,0,0,1-2.76,1.19,4.13,4.13,0,0,1-1.29-.2A2.55,2.55,0,0,1,63.31,25a5.31,5.31,0,0,1-.5-3.09c.2-.57,1.12-.86,2.77-.86,1.94,0,3.87.51,4.13,1.1s-.34,2.53-.83,3.22M79.58,25a2.6,2.6,0,0,1-1.53,1.36,4.07,4.07,0,0,1-1.28.2A3.63,3.63,0,0,1,74,25.36c-.48-.69-1.09-2.61-.82-3.22S75.37,21,77.31,21c1.64,0,2.57.29,2.76.86A5.36,5.36,0,0,1,79.58,25"/></clipPath><clipPath id="clip-path-48"><path class="cls-3" d="M43.68,62a1.31,1.31,0,0,0,.93.38H98.44a1.3,1.3,0,0,0,1.3-1.3V32.47a1.3,1.3,0,0,0-1.3-1.3H44.61a1.31,1.31,0,0,0-1.31,1.3V61.06a1.33,1.33,0,0,0,.38.92"/></clipPath><clipPath id="clip-path-49"><path class="cls-3" d="M99.22,62.09a1.19,1.19,0,0,1-.78.27H44.6a1.19,1.19,0,0,1-.78-.27Z"/></clipPath><clipPath id="clip-path-50"><path class="cls-3" d="M73.78,46.09a2.26,2.26,0,1,0-2.26,2.26,2.26,2.26,0,0,0,2.26-2.26"/></clipPath></defs><title>Catching the Entrepreneurial Spirit</title><g class="cls-5"><path class="cls-6" d="M79.7,62.68l5.71,0a2.86,2.86,0,0,0-5.71,0Z"/><circle class="cls-6" cx="82.51" cy="51.81" r="2.85"/><circle class="cls-7" cx="82.47" cy="40.87" r="2.85"/><circle class="cls-8" cx="82.43" cy="29.93" r="2.85"/><circle class="cls-9" cx="82.4" cy="18.98" r="2.85"/><circle class="cls-10" cx="82.36" cy="8.04" r="2.85"/><path class="cls-6" d="M97.25,62.62l5.72,0a2.86,2.86,0,0,0-5.72,0Z"/><circle class="cls-11" cx="100.07" cy="51.75" r="2.85"/><circle class="cls-7" cx="100.04" cy="40.8" r="2.85"/><path class="cls-6" d="M63,62.74l5.72,0a2.86,2.86,0,0,0-5.72,0Z"/><circle class="cls-6" cx="65.86" cy="51.87" r="2.85"/><circle class="cls-7" cx="65.82" cy="40.93" r="2.85"/><circle class="cls-8" cx="65.79" cy="29.99" r="2.85"/><circle class="cls-9" cx="65.75" cy="19.04" r="2.85"/><circle class="cls-10" cx="65.71" cy="8.1" r="2.85"/><path class="cls-6" d="M46.39,62.8l5.71,0a2.86,2.86,0,0,0-5.71,0Z"/><circle class="cls-6" cx="49.21" cy="51.93" r="2.85"/><circle class="cls-7" cx="49.17" cy="40.99" r="2.85"/><circle class="cls-8" cx="49.14" cy="30.04" r="2.85"/><path class="cls-6" d="M29.74,62.86l5.71,0a2.86,2.86,0,0,0-5.71,0Z"/><circle class="cls-6" cx="32.56" cy="51.99" r="2.85"/><circle class="cls-7" cx="32.52" cy="41.04" r="2.85"/><circle class="cls-8" cx="32.49" cy="30.1" r="2.85"/><path class="cls-6" d="M13.11,62.92l5.69,0a2.85,2.85,0,0,0-5.69,0Z"/><circle class="cls-11" cx="15.91" cy="52.05" r="2.85"/><path class="cls-6" d="M-2.46,63l5.71,0A2.85,2.85,0,0,0,.38,60.19,2.85,2.85,0,0,0-2.46,63Z"/><circle class="cls-11" cx="0.35" cy="52.1" r="2.85"/><circle class="cls-7" cx="15.88" cy="41.1" r="2.85"/><circle class="cls-8" cx="15.84" cy="30.16" r="2.85"/><circle class="cls-7" cx="0.46" cy="41.16" r="2.85"/><circle class="cls-8" cx="0.42" cy="30.22" r="2.85"/><circle class="cls-9" cx="15.8" cy="19.22" r="2.85"/><circle class="cls-10" cx="15.76" cy="8.28" r="2.85"/></g><path class="cls-12" d="M32.79,18.77v1.42H31.3a.71.71,0,0,1,0-1.42Zm0-1.82v1.41H30.43a.71.71,0,1,1,0-1.41Zm0-14.45v14H30.43a.7.7,0,0,1-.71-.7.68.68,0,0,1,.21-.5A6.72,6.72,0,0,1,32.75,2.5Z"/><g class="cls-13"><rect class="cls-14" x="25.6" y="3.09" width="7.61" height="18.52"/></g><path class="cls-15" d="M32.71,18.77v1.42H34.2a.71.71,0,0,0,0-1.42Zm0-1.82v1.41h2.36a.71.71,0,1,0,0-1.41Zm0-14.45v14h2.36a.7.7,0,0,0,.71-.7.68.68,0,0,0-.21-.5A6.72,6.72,0,0,0,32.75,2.5Z"/><g class="cls-16"><rect class="cls-17" x="32.3" y="2.09" width="7.61" height="18.52"/></g><path class="cls-18" d="M28.28,7.11A2.42,2.42,0,0,1,30.62,5"/><g class="cls-19"><g class="cls-20"><g class="cls-21"><g class="cls-22"><g class="cls-23"><rect class="cls-24" x="53.2" y="15.99" width="15.84" height="20.31"/></g></g></g></g></g><g class="cls-25"><g class="cls-20"><g class="cls-26"><g class="cls-27"><g class="cls-28"><rect class="cls-24" x="73.86" y="15.99" width="16.27" height="20.31"/></g></g></g></g></g><g class="cls-29"><g class="cls-20"><g class="cls-30"><g class="cls-31"><g class="cls-32"><rect class="cls-24" x="37.93" y="25.85" width="67.15" height="42.77"/></g></g></g></g></g><g class="cls-33"><rect class="cls-34" x="43.74" y="38.02" width="55.54" height="24.84"/></g><g class="cls-35"><rect class="cls-36" x="71.08" y="37.87" width="11.27" height="13.36"/></g><g class="cls-37"><g class="cls-20"><g class="cls-38"><g class="cls-39"><g class="cls-40"><rect class="cls-36" x="65.25" y="32.1" width="23.05" height="24.79"/></g></g></g></g></g><g class="cls-41"><rect class="cls-36" x="60.97" y="39.12" width="11.41" height="12.43"/></g><g class="cls-42"><g class="cls-20"><g class="cls-43"><g class="cls-44"><g class="cls-45"><rect class="cls-36" x="55.18" y="33.07" width="23.05" height="24.08"/></g></g></g></g></g><g class="cls-46"><rect class="cls-47" x="76.13" y="38.1" width="6.3" height="10.9"/></g><g class="cls-48"><g class="cls-20"><g class="cls-49"><g class="cls-50"><g class="cls-51"><rect class="cls-47" x="70.37" y="31.93" width="18.53" height="22.88"/></g></g></g></g></g><g class="cls-52"><rect class="cls-47" x="60.97" y="38.1" width="6.3" height="10.9"/></g><g class="cls-53"><g class="cls-20"><g class="cls-54"><g class="cls-55"><g class="cls-56"><rect class="cls-47" x="55.49" y="31.93" width="17.28" height="22.88"/></g></g></g></g></g><g class="cls-57"><g class="cls-20"><g class="cls-58"><g class="cls-59"><g class="cls-60"><rect class="cls-24" x="57.97" y="25.75" width="27.72" height="22.05"/></g></g></g></g></g><g class="cls-61"><rect class="cls-62" x="61.76" y="7.11" width="20.02" height="32.26"/></g><g class="cls-63"><rect class="cls-64" x="61.76" y="7.11" width="10.61" height="32.26"/></g><g class="cls-65"><g class="cls-20"><g class="cls-66"><g class="cls-67"><g class="cls-68"><rect class="cls-24" x="56.05" y="1.37" width="31.43" height="21.14"/></g></g></g></g></g><g class="cls-69"><rect class="cls-70" x="59.56" y="6.11" width="23.6" height="17.38"/></g><g class="cls-71"><rect class="cls-72" x="60.61" y="19.87" width="21.67" height="7.55"/></g><g class="cls-73"><rect class="cls-74" x="42.88" y="30.74" width="57.29" height="32.05"/></g><g class="cls-75"><rect class="cls-76" x="43.39" y="61.67" width="56.26" height="1.12"/></g><g class="cls-77"><rect class="cls-78" x="68.84" y="43.41" width="5.37" height="5.36"/></g></svg>