<svg id="Layer_1" data-name="Layer 1" xmlns="http://www.w3.org/2000/svg" xmlns:xlink="http://www.w3.org/1999/xlink" viewBox="0 0 110 62"><defs><style>.cls-1,.cls-12,.cls-14{fill:#d5ced1;}.cls-1,.cls-2,.cls-3{clip-rule:evenodd;}.cls-15,.cls-17,.cls-2{fill:#f6d727;}.cls-18,.cls-3,.cls-4{fill:none;}.cls-5{opacity:0.5;}.cls-10,.cls-11,.cls-6,.cls-7,.cls-8,.cls-9{fill:#354557;}.cls-7{opacity:0.3;}.cls-8{opacity:0.2;}.cls-9{opacity:0.1;}.cls-10{opacity:0.05;}.cls-11{opacity:0.6;}.cls-12,.cls-15{fill-rule:evenodd;}.cls-13{clip-path:url(#clip-path);}.cls-16{clip-path:url(#clip-path-2);}.cls-18{stroke:#fff;stroke-linecap:round;stroke-miterlimit:10;stroke-width:1.25px;}.cls-19{clip-path:url(#clip-path-3);}.cls-20{isolation:isolate;}.cls-21{clip-path:url(#clip-path-4);}.cls-22{clip-path:url(#clip-path-5);}.cls-23{clip-path:url(#clip-path-6);}.cls-24{fill:#e0bea0;}.cls-25{clip-path:url(#clip-path-7);}.cls-26{clip-path:url(#clip-path-8);}.cls-27{clip-path:url(#clip-path-9);}.cls-28{clip-path:url(#clip-path-10);}.cls-29{clip-path:url(#clip-path-11);}.cls-30{clip-path:url(#clip-path-12);}.cls-31{clip-path:url(#clip-path-13);}.cls-32{clip-path:url(#clip-path-14);}.cls-33{clip-path:url(#clip-path-15);}.cls-34{fill:#c94b2f;}.cls-35{clip-path:url(#clip-path-16);}.cls-36{fill:#a53b2c;}.cls-37{clip-path:url(#clip-path-17);}.cls-38{clip-path:url(#clip-path-18);}.cls-39{clip-path:url(#clip-path-19);}.cls-40{clip-path:url(#clip-path-20);}.cls-41{clip-path:url(#clip-path-21);}.cls-42{clip-path:url(#clip-path-22);}.cls-43{clip-path:url(#clip-path-23);}.cls-44{clip-path:url(#clip-path-24);}.cls-45{clip-path:url(#clip-path-25);}.cls-46{clip-path:url(#clip-path-26);}.cls-47{fill:#fefefe;}.cls-48{clip-path:url(#clip-path-27);}.cls-49{clip-path:url(#clip-path-28);}.cls-50{clip-path:url(#clip-path-29);}.cls-51{clip-path:url(#clip-path-30);}.cls-52{clip-path:url(#clip-path-31);}.cls-53{clip-path:url(#clip-path-32);}.cls-54{clip-path:url(#clip-path-33);}.cls-55{clip-path:url(#clip-path-34);}.cls-56{clip-path:url(#clip-path-35);}.cls-57{clip-path:url(#clip-path-36);}.cls-58{clip-path:url(#clip-path-37);}.cls-59{clip-path:url(#clip-path-38);}.cls-60{clip-path:url(#clip-path-39);}.cls-61{clip-path:url(#clip-path-40);}.cls-62{fill:#f6ddc1;}.cls-63{clip-path:url(#clip-path-41);}.cls-64{fill:#e5cdb7;}.cls-65{clip-path:url(#clip-path-42);}.cls-66{clip-path:url(#clip-path-43);}.cls-67{clip-path:url(#clip-path-44);}.cls-68{clip-path:url(#clip-path-45);}.cls-69{clip-path:url(#clip-path-46);}.cls-70{fill:#604137;}.cls-71{clip-path:url(#clip-path-47);}.cls-72{fill:#354456;}.cls-73{clip-path:url(#clip-path-48);}.cls-74{fill:#e5e5e4;}.cls-75{clip-path:url(#clip-path-49);}.cls-76{fill:#d7d7d7;}.cls-77{clip-path:url(#clip-path-50);}.cls-78{fill:#d5d5d5;}</style><clipPath id="clip-path"><path class="cls-1" d="M31.5,22.82v1.27H30.16a.63.63,0,0,1-.63-.63.64.64,0,0,1,.63-.64Zm0-1.64v1.27H29.38a.63.63,0,0,1-.63-.63.64.64,0,0,1,.63-.64Zm0-12.94V20.82H29.38a.64.64,0,0,1-.63-.64.67.67,0,0,1,.18-.45A6,6,0,0,1,31.46,8.24Z"/></clipPath><clipPath id="clip-path-2"><path class="cls-2" d="M31.42,22.82v1.27h1.34a.63.63,0,0,0,.63-.63.64.64,0,0,0-.63-.64Zm0-1.64v1.27h2.12a.63.63,0,0,0,.63-.63.64.64,0,0,0-.63-.64Zm0-12.94V20.82h2.12a.64.64,0,0,0,.63-.64.67.67,0,0,0-.18-.45A6,6,0,0,0,31.46,8.24Z"/></clipPath><clipPath id="clip-path-3"><path class="cls-3" d="M55.16,27.38l.53,2.79a3.22,3.22,0,0,0,2.17,2.49l.78.23-.45-5.23-.43-.73a2,2,0,0,0-1.3-.94l-.21,0A1.17,1.17,0,0,0,55.16,27.38Z"/></clipPath><clipPath id="clip-path-4"><rect class="cls-4" x="50.11" y="20.68" width="13.51" height="17.48"/></clipPath><clipPath id="clip-path-5"><rect class="cls-4" x="50.17" y="20.71" width="13.44" height="17.44"/></clipPath><clipPath id="clip-path-6"><rect class="cls-4" x="55" y="25.95" width="3.66" height="6.95"/></clipPath><clipPath id="clip-path-7"><path class="cls-3" d="M76,26a2,2,0,0,0-1.33.94l-.45.73-.45,5.23.79-.23a3.22,3.22,0,0,0,2.23-2.49l.55-2.79A1.18,1.18,0,0,0,76.25,26Z"/></clipPath><clipPath id="clip-path-8"><rect class="cls-4" x="68.66" y="20.68" width="13.89" height="17.48"/></clipPath><clipPath id="clip-path-9"><rect class="cls-4" x="68.68" y="20.71" width="13.82" height="17.44"/></clipPath><clipPath id="clip-path-10"><rect class="cls-4" x="73.77" y="25.95" width="3.82" height="6.95"/></clipPath><clipPath id="clip-path-11"><path class="cls-3" d="M59.26,34.7v4.85A3.65,3.65,0,0,1,57,42.93L47.2,47a8.9,8.9,0,0,0-5.51,8.1V62h49V55.1A8.92,8.92,0,0,0,85.19,47L75.4,42.93a3.65,3.65,0,0,1-2.27-3.38V34.7Z"/></clipPath><clipPath id="clip-path-12"><rect class="cls-4" x="36.45" y="29.53" width="59.45" height="37.63"/></clipPath><clipPath id="clip-path-13"><rect class="cls-4" x="36.49" y="29.54" width="59.42" height="37.57"/></clipPath><clipPath id="clip-path-14"><rect class="cls-4" x="41.64" y="34.65" width="49.07" height="27.32"/></clipPath><clipPath id="clip-path-15"><path class="cls-3" d="M85.19,46.82,75.4,42.71a3.74,3.74,0,0,1-2.08-2.26,17.49,17.49,0,0,1-2,2.72c-.28.31-.56.63-.87.95l-.44.16a4.5,4.5,0,0,0-2.78,2.88l-.2.66-.88,2.79-1.07-3.45a4.5,4.5,0,0,0-2.78-2.88l-.44-.16a1.14,1.14,0,0,1-.15-.16c-.34-.37-.66-.73-1-1.09l-.25-.3c-.34-.42-.66-.83-.95-1.26s-.36-.57-.52-.85A3.78,3.78,0,0,1,57,42.71L47.2,46.82a9,9,0,0,0-5.51,8.31V62h49V55.13a9,9,0,0,0-5.51-8.31"/></clipPath><clipPath id="clip-path-16"><path class="cls-3" d="M73.41,40.32a19.43,19.43,0,0,1-2.92,3.8l-.44.16a4.5,4.5,0,0,0-2.78,2.88l-1.08,3.45,2-3.13a2.56,2.56,0,0,1,2.28-1.17l3.73,5.22a16.57,16.57,0,0,0,1.31-6.88V42.79a6.92,6.92,0,0,1-2.12-2.47"/></clipPath><clipPath id="clip-path-17"><path class="cls-3" d="M70.54,44.09l-.44.15a4.5,4.5,0,0,0-2.8,2.86l-1.09,3.42,2-3.1a2.6,2.6,0,0,1,2.3-1.17l3.76,5.19a16.35,16.35,0,0,0,1.33-6.83V42.77a7,7,0,0,1-2.15-2.45A19.06,19.06,0,0,1,70.54,44.09Z"/></clipPath><clipPath id="clip-path-18"><rect class="cls-4" x="60.95" y="35.11" width="20" height="21.52"/></clipPath><clipPath id="clip-path-19"><rect class="cls-4" x="60.97" y="35.15" width="19.9" height="21.46"/></clipPath><clipPath id="clip-path-20"><rect class="cls-4" x="66.14" y="40.3" width="9.54" height="11.14"/></clipPath><clipPath id="clip-path-21"><path class="cls-3" d="M62.69,44.47l-.45-.15a23,23,0,0,1-2.33-2.85l-1.24,0A7.21,7.21,0,0,1,57.13,43v1.87a17,17,0,0,0,1.33,7l3.78-5.29a2.53,2.53,0,0,1,2.47,1.21l1.89,3.15-1.1-3.5a4.54,4.54,0,0,0-2.81-2.92"/></clipPath><clipPath id="clip-path-22"><path class="cls-3" d="M57.18,42.78v1.87a16.76,16.76,0,0,0,1.33,6.93l3.76-5.26a2.53,2.53,0,0,1,2.45,1.21l1.88,3.13-1.09-3.48a4.52,4.52,0,0,0-2.8-2.9l-.45-.15A24.38,24.38,0,0,1,60,41.3l-1.24,0A6.85,6.85,0,0,1,57.18,42.78Z"/></clipPath><clipPath id="clip-path-23"><rect class="cls-4" x="51.87" y="35.95" width="20" height="20.91"/></clipPath><clipPath id="clip-path-24"><rect class="cls-4" x="51.94" y="36.02" width="19.9" height="20.82"/></clipPath><clipPath id="clip-path-25"><rect class="cls-4" x="57.13" y="41.21" width="9.54" height="10.38"/></clipPath><clipPath id="clip-path-26"><path class="cls-3" d="M74.33,49.53h0a16.68,16.68,0,0,0,1.27-6.78l-2-2.21a18.68,18.68,0,0,1-2.88,3.84l3.61,5.15Z"/></clipPath><clipPath id="clip-path-27"><path class="cls-3" d="M70.9,44.19l3.82,5.28h0a16.71,16.71,0,0,0,1.35-6.95L74,40.25A19,19,0,0,1,70.9,44.19Z"/></clipPath><clipPath id="clip-path-28"><rect class="cls-4" x="65.53" y="34.95" width="15.87" height="19.84"/></clipPath><clipPath id="clip-path-29"><rect class="cls-4" x="65.56" y="34.99" width="15.84" height="19.74"/></clipPath><clipPath id="clip-path-30"><rect class="cls-4" x="70.87" y="40.22" width="5.27" height="9.31"/></clipPath><clipPath id="clip-path-31"><path class="cls-3" d="M58.41,49.52,62,44.37a18.75,18.75,0,0,1-2.89-3.84l-2,2.21a16.5,16.5,0,0,0,1.28,6.78h0Z"/></clipPath><clipPath id="clip-path-32"><path class="cls-3" d="M57.18,42.52a17.7,17.7,0,0,0,1.25,6.95h0L62,44.19a19,19,0,0,1-2.84-3.94Z"/></clipPath><clipPath id="clip-path-33"><rect class="cls-4" x="52.17" y="34.95" width="14.81" height="19.84"/></clipPath><clipPath id="clip-path-34"><rect class="cls-4" x="52.22" y="34.99" width="14.72" height="19.74"/></clipPath><clipPath id="clip-path-35"><rect class="cls-4" x="57.13" y="40.22" width="4.88" height="9.31"/></clipPath><clipPath id="clip-path-36"><path class="cls-3" d="M59.6,34.72v4.36a6.37,6.37,0,0,0,.7.92l1.83,1.82a5,5,0,0,0,3.43,1.38H67.4a5,5,0,0,0,3.44-1.38L72.67,40a5.67,5.67,0,0,0,.69-.92V34.72Z"/></clipPath><clipPath id="clip-path-37"><rect class="cls-4" x="54.39" y="29.46" width="24.19" height="19"/></clipPath><clipPath id="clip-path-38"><rect class="cls-4" x="54.44" y="29.46" width="24.08" height="19"/></clipPath><clipPath id="clip-path-39"><rect class="cls-4" x="59.58" y="34.65" width="13.81" height="8.62"/></clipPath><clipPath id="clip-path-40"><path class="cls-3" d="M67.35,40.9a5,5,0,0,0,3.43-1.36l1.82-1.78a6.33,6.33,0,0,0,1.68-3.64L74.85,29A28.8,28.8,0,0,0,75,25.87V20.64a7.88,7.88,0,0,0-7.87-7.89H65.71a7.88,7.88,0,0,0-7.87,7.89v5.23A28.8,28.8,0,0,0,58,29l.57,5.16a6.33,6.33,0,0,0,1.68,3.64l1.82,1.78a5,5,0,0,0,3.43,1.36Z"/></clipPath><clipPath id="clip-path-41"><path class="cls-3" d="M66.59,12.75h-.88a7.88,7.88,0,0,0-7.87,7.89v5.23A28.8,28.8,0,0,0,58,29l.57,5.16a6.33,6.33,0,0,0,1.68,3.64l1.82,1.78a5,5,0,0,0,3.43,1.36h1.07V33.34l-.72-1.07.73-4.88Z"/></clipPath><clipPath id="clip-path-42"><path class="cls-3" d="M61.13,14.08a8.16,8.16,0,0,0-3.27,6.41h.64v0a3.13,3.13,0,0,1,1.85-2.55c2.1-.83,3,.53,6,.53s3.91-1.36,6-.53a3.1,3.1,0,0,1,1.84,2.55.11.11,0,0,1,0,0H75a8.17,8.17,0,0,0-3-6.17,11.35,11.35,0,0,0-5.67-1.42A11.5,11.5,0,0,0,61.13,14.08Z"/></clipPath><clipPath id="clip-path-43"><rect class="cls-4" x="52.71" y="7.55" width="27.48" height="18.24"/></clipPath><clipPath id="clip-path-44"><rect class="cls-4" x="52.72" y="7.6" width="27.4" height="18.19"/></clipPath><clipPath id="clip-path-45"><rect class="cls-4" x="57.82" y="12.9" width="17.17" height="7.63"/></clipPath><clipPath id="clip-path-46"><path class="cls-3" d="M74.46,15.51c-1.64-2.29-4.76-3.66-8.39-3.66s-6.76,1.37-8.4,3.66-2.22,5-1.51,10.46h.24a2.06,2.06,0,0,1,1.08.57c1.14-4.26.29-3.57.6-7.34A3,3,0,0,1,60,16.72c2.14-.81,3,.52,6.12.52s4-1.33,6.11-.52a3,3,0,0,1,1.87,2.49c.31,3.81-.56,3.06.63,7.45h0A2.06,2.06,0,0,1,75.87,26,.66.66,0,0,1,76,26c.65-5.35,0-8.28-1.55-10.47"/></clipPath><clipPath id="clip-path-47"><path class="cls-3" d="M75.22,24.42c-.88-.06-3.88-.23-5.29-.23-1.66,0-2.85.78-3.51.78h-.57c-.65,0-1.84-.78-3.51-.78-1.4,0-4.4.17-5.28.23a.26.26,0,0,0-.25.26v.57a.41.41,0,0,0,.23.36,1,1,0,0,1,.54.69c.22.75.56,3.32,2.54,3.75S63.7,30,64.34,29s.72-2.66,1.51-2.66h.57c.79,0,.87,1.67,1.51,2.66s2.24,1.51,4.23,1.09,2.31-3,2.54-3.75a1,1,0,0,1,.54-.69.41.41,0,0,0,.23-.36v-.57a.26.26,0,0,0-.25-.26m-11.38,4.3a3.24,3.24,0,0,1-2.48,1.08,3.88,3.88,0,0,1-1.15-.18,2.3,2.3,0,0,1-1.36-1.23,4.78,4.78,0,0,1-.45-2.77c.18-.51,1-.77,2.48-.77,1.74,0,3.47.46,3.7,1a4.69,4.69,0,0,1-.74,2.88m9.59-.33a2.34,2.34,0,0,1-1.37,1.23,3.83,3.83,0,0,1-1.15.18,3.26,3.26,0,0,1-2.48-1.08,4.77,4.77,0,0,1-.74-2.88c.24-.53,2-1,3.7-1,1.47,0,2.31.26,2.48.77a4.84,4.84,0,0,1-.44,2.77"/></clipPath><clipPath id="clip-path-48"><path class="cls-3" d="M41.26,61.65a1.16,1.16,0,0,0,.83.34H90.33a1.17,1.17,0,0,0,1.17-1.17V35.2A1.17,1.17,0,0,0,90.33,34H42.09a1.17,1.17,0,0,0-1.17,1.17V60.82a1.18,1.18,0,0,0,.34.83"/></clipPath><clipPath id="clip-path-49"><path class="cls-3" d="M91,61.75a1.17,1.17,0,0,1-.71.24H42.08a1.12,1.12,0,0,1-.7-.24Z"/></clipPath><clipPath id="clip-path-50"><path class="cls-3" d="M68.23,47.41a2,2,0,1,0-2,2,2,2,0,0,0,2-2"/></clipPath></defs><title>catching-spirit</title><g class="cls-5"><path class="cls-6" d="M73.53,62l5.12,0a2.56,2.56,0,0,0-5.12,0Z"/><circle class="cls-6" cx="76.06" cy="52.08" r="2.56"/><circle class="cls-7" cx="76.02" cy="42.27" r="2.56"/><circle class="cls-8" cx="75.99" cy="32.47" r="2.56"/><circle class="cls-9" cx="75.95" cy="22.66" r="2.56"/><circle class="cls-10" cx="75.92" cy="12.86" r="2.56"/><path class="cls-6" d="M89.27,62l5.12,0a2.56,2.56,0,0,0-5.12,0Z"/><circle class="cls-11" cx="91.8" cy="52.02" r="2.56"/><circle class="cls-11" cx="107.31" cy="51.97" r="2.56"/><circle class="cls-7" cx="91.77" cy="42.22" r="2.56"/><path class="cls-6" d="M58.61,62l5.12,0a2.56,2.56,0,0,0-5.12,0Z"/><circle class="cls-6" cx="61.14" cy="52.13" r="2.56"/><circle class="cls-7" cx="61.1" cy="42.33" r="2.56"/><circle class="cls-8" cx="61.07" cy="32.52" r="2.56"/><circle class="cls-9" cx="61.03" cy="22.71" r="2.56"/><circle class="cls-10" cx="61" cy="12.91" r="2.56"/><path class="cls-6" d="M43.69,62l5.12,0a2.56,2.56,0,0,0-5.12,0Z"/><circle class="cls-6" cx="46.21" cy="52.19" r="2.56"/><circle class="cls-7" cx="46.18" cy="42.38" r="2.56"/><circle class="cls-8" cx="46.14" cy="32.57" r="2.56"/><path class="cls-6" d="M28.76,62l5.12,0a2.56,2.56,0,0,0-5.12,0Z"/><circle class="cls-6" cx="31.29" cy="52.24" r="2.56"/><circle class="cls-7" cx="31.26" cy="42.43" r="2.56"/><circle class="cls-8" cx="31.22" cy="32.63" r="2.56"/><path class="cls-6" d="M13.85,62l5.11,0a2.56,2.56,0,0,0-5.11,0Z"/><circle class="cls-11" cx="16.37" cy="52.29" r="2.56"/><path class="cls-6" d="M-.1,62l5.12,0A2.56,2.56,0,0,0-.1,62Z"/><circle class="cls-11" cx="2.42" cy="52.34" r="2.56"/><circle class="cls-7" cx="16.34" cy="42.49" r="2.56"/><circle class="cls-8" cx="16.3" cy="32.68" r="2.56"/><circle class="cls-7" cx="2.51" cy="42.54" r="2.56"/><circle class="cls-8" cx="2.48" cy="32.73" r="2.56"/><circle class="cls-9" cx="16.27" cy="22.87" r="2.56"/><circle class="cls-10" cx="16.23" cy="13.07" r="2.56"/></g><path class="cls-12" d="M31.5,22.82v1.27H30.16a.63.63,0,0,1-.63-.63.64.64,0,0,1,.63-.64Zm0-1.64v1.27H29.38a.63.63,0,0,1-.63-.63.64.64,0,0,1,.63-.64Zm0-12.94V20.82H29.38a.64.64,0,0,1-.63-.64.67.67,0,0,1,.18-.45A6,6,0,0,1,31.46,8.24Z"/><g class="cls-13"><rect class="cls-14" x="25.05" y="8.76" width="6.82" height="16.6"/></g><path class="cls-15" d="M31.42,22.82v1.27h1.34a.63.63,0,0,0,.63-.63.64.64,0,0,0-.63-.64Zm0-1.64v1.27h2.12a.63.63,0,0,0,.63-.63.64.64,0,0,0-.63-.64Zm0-12.94V20.82h2.12a.64.64,0,0,0,.63-.64.67.67,0,0,0-.18-.45A6,6,0,0,0,31.46,8.24Z"/><g class="cls-16"><rect class="cls-17" x="31.05" y="7.87" width="6.82" height="16.6"/></g><path class="cls-18" d="M27.45,12.37a2.17,2.17,0,0,1,2.1-1.9"/><g class="cls-19"><g class="cls-20"><g class="cls-21"><g class="cls-22"><g class="cls-23"><rect class="cls-24" x="49.79" y="20.33" width="14.2" height="18.2"/></g></g></g></g></g><g class="cls-25"><g class="cls-20"><g class="cls-26"><g class="cls-27"><g class="cls-28"><rect class="cls-24" x="68.3" y="20.33" width="14.58" height="18.2"/></g></g></g></g></g><g class="cls-29"><g class="cls-20"><g class="cls-30"><g class="cls-31"><g class="cls-32"><rect class="cls-24" x="36.1" y="29.16" width="60.18" height="38.33"/></g></g></g></g></g><g class="cls-33"><rect class="cls-34" x="41.31" y="40.07" width="49.78" height="22.26"/></g><g class="cls-35"><rect class="cls-36" x="65.81" y="39.94" width="10.1" height="11.98"/></g><g class="cls-37"><g class="cls-20"><g class="cls-38"><g class="cls-39"><g class="cls-40"><rect class="cls-36" x="60.59" y="34.77" width="20.66" height="22.22"/></g></g></g></g></g><g class="cls-41"><rect class="cls-36" x="56.75" y="41.06" width="10.23" height="11.14"/></g><g class="cls-42"><g class="cls-20"><g class="cls-43"><g class="cls-44"><g class="cls-45"><rect class="cls-36" x="51.56" y="35.64" width="20.66" height="21.58"/></g></g></g></g></g><g class="cls-46"><rect class="cls-47" x="70.34" y="40.14" width="5.65" height="9.77"/></g><g class="cls-48"><g class="cls-20"><g class="cls-49"><g class="cls-50"><g class="cls-51"><rect class="cls-47" x="65.18" y="34.61" width="16.6" height="20.51"/></g></g></g></g></g><g class="cls-52"><rect class="cls-47" x="56.75" y="40.14" width="5.65" height="9.77"/></g><g class="cls-53"><g class="cls-20"><g class="cls-54"><g class="cls-55"><g class="cls-56"><rect class="cls-47" x="51.84" y="34.61" width="15.49" height="20.51"/></g></g></g></g></g><g class="cls-57"><g class="cls-20"><g class="cls-58"><g class="cls-59"><g class="cls-60"><rect class="cls-24" x="54.06" y="29.08" width="24.85" height="19.76"/></g></g></g></g></g><g class="cls-61"><rect class="cls-62" x="57.46" y="12.37" width="17.95" height="28.91"/></g><g class="cls-63"><rect class="cls-64" x="57.46" y="12.37" width="9.51" height="28.91"/></g><g class="cls-65"><g class="cls-20"><g class="cls-66"><g class="cls-67"><g class="cls-68"><rect class="cls-24" x="52.34" y="7.22" width="28.17" height="18.95"/></g></g></g></g></g><g class="cls-69"><rect class="cls-70" x="55.49" y="11.47" width="21.16" height="15.57"/></g><g class="cls-71"><rect class="cls-72" x="56.43" y="23.81" width="19.42" height="6.77"/></g><g class="cls-73"><rect class="cls-74" x="40.53" y="33.65" width="51.35" height="28.72"/></g><g class="cls-75"><rect class="cls-76" x="41" y="61.37" width="50.42" height="1"/></g><g class="cls-77"><rect class="cls-78" x="63.8" y="45" width="4.81" height="4.81"/></g></svg>