<svg id="Layer_1" data-name="Layer 1" xmlns="http://www.w3.org/2000/svg" viewBox="0 0 21 23.75"><defs><style>.cls-1{fill:#27739e;fill-rule:evenodd;}.cls-2{fill:none;stroke:#374557;stroke-miterlimit:10;stroke-width:0.75px;}.cls-3{fill:#354456;}</style></defs><title>discussion-questions</title><path class="cls-1" d="M27,4V27.77H6V4Zm-.88,22.89v-22H6.86v22Z" transform="translate(-5.99 -4.02)"/><path class="cls-2" d="M13.85,20.94l3.55-2.09c3.24.15,5.09-1.7,5.4-4.07s-2.11-4.43-5.36-4.58-6.17,1.67-6.48,4c-.25,2,.94,3.71,3.51,4.31Z" transform="translate(-5.99 -4.02)"/><path class="cls-3" d="M16.53,15.67V15.5a1.37,1.37,0,0,1,.12-.62,1.69,1.69,0,0,1,.43-.49,3.33,3.33,0,0,0,.45-.42.8.8,0,0,0,.2-.54.63.63,0,0,0-.2-.49.92.92,0,0,0-.59-.16,2,2,0,0,0-.49.06,2.55,2.55,0,0,0-.55.21l-.2-.46A2.73,2.73,0,0,1,17,12.27a1.41,1.41,0,0,1,.95.3,1.05,1.05,0,0,1,.34.84,1.33,1.33,0,0,1-.06.42,1.28,1.28,0,0,1-.19.34,4.27,4.27,0,0,1-.51.48,2,2,0,0,0-.42.45.9.9,0,0,0-.1.46v.11Zm-.15,1c0-.29.14-.43.41-.43a.4.4,0,0,1,.29.11.44.44,0,0,1,.1.32.45.45,0,0,1-.1.33.38.38,0,0,1-.29.12A.4.4,0,0,1,16.5,17,.43.43,0,0,1,16.38,16.62Z" transform="translate(-5.99 -4.02)"/></svg>