<?xml version="1.0" encoding="utf-8"?>
<!-- Generator: Adobe Illustrator 22.0.1, SVG Export Plug-In . SVG Version: 6.00 Build 0)  -->
<svg version="1.1" id="Layer_1" xmlns="http://www.w3.org/2000/svg" xmlns:xlink="http://www.w3.org/1999/xlink" x="0px" y="0px"
	 viewBox="0 0 110 62" style="enable-background:new 0 0 110 62;" xml:space="preserve">
<style type="text/css">
	.st0{opacity:0.3;fill-rule:evenodd;clip-rule:evenodd;fill:#354557;}
	.st1{fill-rule:evenodd;clip-rule:evenodd;fill:#354557;}
	.st2{fill-rule:evenodd;clip-rule:evenodd;fill:none;}
	.st3{opacity:0.5;fill-rule:evenodd;clip-rule:evenodd;fill:#1E2830;}
	.st4{enable-background:new    ;}
	.st5{fill:#E5E5E5;}
	.st6{fill:#CCCCCB;}
	.st7{display:none;}
	.st8{display:inline;fill-rule:evenodd;clip-rule:evenodd;fill:#878787;}
	.st9{display:inline;fill-rule:evenodd;clip-rule:evenodd;fill:#E5E5E5;}
	.st10{fill:#CFCFCE;}
	.st11{fill:#354557;}
	.st12{fill:url(#SVGID_1_);}
	.st13{fill-rule:evenodd;clip-rule:evenodd;fill:#1E2830;}
	.st14{fill:url(#SVGID_2_);}
	.st15{fill-rule:evenodd;clip-rule:evenodd;fill:#7A4D28;}
	.st16{fill-rule:evenodd;clip-rule:evenodd;fill:#D34F32;}
	.st17{fill-rule:evenodd;clip-rule:evenodd;fill:#CA4B2F;}
	.st18{opacity:0.5;fill-rule:evenodd;clip-rule:evenodd;fill:#F47540;}
	.st19{clip-path:url(#SVGID_4_);fill:#7A4D28;}
	.st20{clip-path:url(#SVGID_6_);fill:#7A4D28;}
	.st21{fill-rule:evenodd;clip-rule:evenodd;fill:#3F3029;}
	.st22{clip-path:url(#SVGID_8_);enable-background:new    ;}
</style>
<symbol  id="Ethical_Considerations" viewBox="-53.3 -27.4 106.5 55">
	<path class="st0" d="M53.3-27.1H-53.3c8.8,10.6,29.4,15.4,52.4,10.6C22.6-21.3,45.4-16.4,53.3-27.1z"/>
	<path class="st1" d="M37.2-20.1c-7.3-2-14.8-3.4-22.7-4.2c-10.1-1-20.4-1.1-30.6-1c-10.2,0.1-20.2,0.8-29.8,4.4
		c-3-1.7-5.5-3.8-7.5-6.1H53.3C50.1-22.8,44.4-21,37.2-20.1z"/>
	<path class="st2" d="M53.3-27.1H-53.3c8.8,10.6,29.4,15.4,52.4,10.6C22.6-21.3,45.4-16.4,53.3-27.1z"/>
	<polygon class="st3" points="47.9,-22.8 25.9,-23.8 22.2,-23.8 21.4,-23.2 23.7,-23.5 46.9,-22.4 	"/>
	<g>
		<g>
			<g class="st4">
				<g>
					<polygon class="st5" points="41.6,19.7 44.3,15 41.6,10.2 23.6,9.8 23.6,20.1 					"/>
				</g>
				<g>
					<polygon class="st6" points="23.6,9.8 23.2,9.8 23.2,20.1 23.6,20.1 					"/>
				</g>
			</g>
		</g>
		<g class="st7">
			<polygon class="st8" points="1.3,15.9 21.7,15.9 21.7,25.5 1.3,25.5 -2.1,20.7 			"/>
			<polygon class="st9" points="1.4,16.2 21.6,16.2 21.6,26 1.4,26 -2,21.1 			"/>
		</g>
		<g>
			<g class="st4">
				<g>
					<polygon class="st5" points="21.4,25.3 21.4,15.1 6.1,15.6 3.8,20.2 6.1,24.7 					"/>
				</g>
				<g>
					<polygon class="st10" points="21.4,25.3 22.1,25.2 22.1,15.1 21.4,15.1 					"/>
				</g>
			</g>
		</g>
		<path class="st1" d="M23.6-23.6h-2.2v50.1c0,0.6,0.5,1.1,1.1,1.1h0c0.6,0,1.1-0.5,1.1-1.1V-23.6z"/>
		<g>
			<path class="st11" d="M25.9-23.8L25.9-23.8l-6.6,0v0c0,0.3,0.3,0.6,0.6,0.6h5.5C25.6-23.2,25.9-23.5,25.9-23.8z"/>
		</g>
		<g>
			<linearGradient id="SVGID_1_" gradientUnits="userSpaceOnUse" x1="19.2317" y1="-23.7951" x2="25.8477" y2="-23.7951">
				<stop  offset="0.3479" style="stop-color:#1E2830;stop-opacity:0"/>
				<stop  offset="1" style="stop-color:#1E2830"/>
			</linearGradient>
			<rect x="19.2" y="-23.8" class="st12" width="6.6" height="0"/>
		</g>
		<path class="st13" d="M25.3-23.2h-1.7v49.7c0,0,0,0,0,0c0,0.6-0.5,1.1-1.1,1.1c0.3-0.2,0.7-0.6,0.7-1.1h0v-49.7c0,0,0,0,0,0l0-0.1
			l2,0c0.2,0,0.3-0.1,0.3-0.3v-0.1h0.3v0C25.8-23.5,25.6-23.2,25.3-23.2z"/>
		<linearGradient id="SVGID_2_" gradientUnits="userSpaceOnUse" x1="21.4678" y1="26.4889" x2="23.6286" y2="26.4889">
			<stop  offset="0.3479" style="stop-color:#1E2830;stop-opacity:0"/>
			<stop  offset="1" style="stop-color:#1E2830"/>
		</linearGradient>
		<path class="st14" d="M23.6,26.7c-0.1-0.1-0.5-0.2-1.1-0.2c-0.5,0-1,0.1-1.1,0.2c0,0,0,0,0-0.1c0-0.2,0.5-0.3,1.1-0.3
			C23.1,26.3,23.6,26.4,23.6,26.7C23.6,26.6,23.6,26.6,23.6,26.7z"/>
	</g>
	<g>
		<path class="st15" d="M4.1-27.1v5.5c0,3-1.8,5.6-4.5,6.8l-8,3.3c-1.1,0.5-1.8,1.6-1.8,2.8v4h-11.3v-4c0-1.2-0.7-2.3-1.8-2.8
			l-8-3.3c-2.7-1.1-4.5-3.8-4.5-6.8v-5.5H4.1z"/>
		<path class="st16" d="M-0.4-14.8l-8,3.3c-0.2,0.1-0.5,0.2-0.7,0.4l-6.7-0.5c0,0-3.9-0.1-7.1,0.4c-0.2,0-0.4-0.2-0.6-0.3l-8-3.3
			c-2.7-1.1-4.5-3.8-4.5-6.8v-5.5h40v5.5C4.1-18.6,2.3-15.9-0.4-14.8"/>
		<path class="st17" d="M-27.1-23.6c-0.1-0.4-0.2-0.8-0.3-1.1c-0.2-0.6-0.4-1.1-0.7-1.6c0,0,0-0.1,0-0.1c0-0.2,0-0.4,0-0.6h1.4
			c0,1.5,0,3,0,4.5C-26.8-22.9-26.9-23.3-27.1-23.6z"/>
		<path class="st17" d="M-0.4-14.8l-5,2.1c1.3-1.5,2.4-3.2,3-5.2c0.6-2.1,0.9-4.5,0.8-6.8c0-0.8-0.2-1.6-0.4-2.4h6.1v5.5
			C4.1-18.6,2.3-15.9-0.4-14.8z"/>
		<path class="st18" d="M-22.2-11.9c9.4-2,19.8,1.4,25.7-8.3c0.2-0.4,0.5-0.8,0.7-1.2c-0.1,2.9-1.8,5.4-4.5,6.5l-8,3.3
			c-0.2,0.1-0.5,0.2-0.7,0.4l-6.7-0.5c0,0-3.9-0.1-7.1,0.4c-0.2,0-0.4-0.2-0.6-0.3l-0.8-0.3C-23.6-11.7-22.9-11.7-22.2-11.9z"/>
		<g>
			<defs>
				<path id="SVGID_3_" d="M-21.2,2.9l-0.4,0.6c-0.2,0.4-0.6,0.7-1.1,0.8c-0.7,0.1-1.2-0.5-1.1-1.1l0.5-2.2c0.2-1,0.9-1.7,1.9-2
					l0.7-0.2L-21.2,2.9z"/>
			</defs>
			<use xlink:href="#SVGID_3_"  style="overflow:visible;fill-rule:evenodd;clip-rule:evenodd;fill:#7A4D28;"/>
			<clipPath id="SVGID_4_">
				<use xlink:href="#SVGID_3_"  style="overflow:visible;"/>
			</clipPath>
			<rect x="-28" y="-5.5" class="st19" width="11.5" height="14.1"/>
		</g>
		<g>
			<defs>
				<path id="SVGID_5_" d="M-11.2-1.3l0.7,0.2c0.9,0.3,1.7,1,1.9,2l0.5,2.2c0.1,0.7-0.4,1.2-1.1,1.1c-0.5-0.1-0.9-0.4-1.1-0.8
					l-0.4-0.6L-11.2-1.3z"/>
			</defs>
			<use xlink:href="#SVGID_5_"  style="overflow:visible;fill-rule:evenodd;clip-rule:evenodd;fill:#7A4D28;"/>
			<clipPath id="SVGID_6_">
				<use xlink:href="#SVGID_5_"  style="overflow:visible;"/>
			</clipPath>
			<rect x="-15.4" y="-5.5" class="st20" width="11.5" height="14.1"/>
		</g>
		<path class="st21" d="M-10.6,11.4c-1,1.3-3.3,2.2-6.1,2.2l-1.4-0.3c-3.6,0-5.3,0.3-5.3-1.6L-24,8.4c0-0.5,0.1-1.4,0.2-1.9l0.7-1.5
			V3.7c0-0.8,0-1.5,0.1-2.3l0.7-3.6c0.3-1.2,0.4-2.1,0.9-2.8l1.8-1.3c0.7-0.6,1.9-1,2.8-1h1.5c1,0,2.2,0.4,2.8,1l1.8,1.3
			c0.8,0.4,0.5,1.5,1.1,2.7L-9,1.4C-9,2.2-8.9,2.9-8.9,3.7v3.8C-8.9,9-9.5,10.4-10.6,11.4z"/>
		<g>
			<defs>
				<rect id="SVGID_7_" x="-35.8" y="-27.1" width="40" height="16"/>
			</defs>
			<clipPath id="SVGID_8_">
				<use xlink:href="#SVGID_7_"  style="overflow:visible;"/>
			</clipPath>
			<g class="st22">
				<g>
					<defs>
						<rect id="SVGID_9_" x="-35.8" y="-27.4" width="40.7" height="17"/>
					</defs>
					<clipPath id="SVGID_10_">
						<use xlink:href="#SVGID_9_"  style="overflow:visible;"/>
					</clipPath>
				</g>
			</g>
		</g>
	</g>
</symbol>
<use xlink:href="#Ethical_Considerations"  width="106.5" height="55" id="XMLID_78_" x="-53.3" y="-27.4" transform="matrix(1.0328 0 0 -1 55 34.9167)" style="overflow:visible;"/>
</svg>
