<svg id="Layer_1" data-name="Layer 1" xmlns="http://www.w3.org/2000/svg" viewBox="0 0 110 62"><defs><style>.cls-1{fill:#fff;}.cls-2{fill:#b10036;}</style></defs><title>IFRS</title><path class="cls-1" d="M77.08,48v-.73H96.17c.13-3,.08-18-.07-18.75h-19V27.8"/><path class="cls-2" d="M77.08,28.53h19c.15.77.2,15.72.07,18.75H77.08Zm10.79,8.22-.13.14a2.2,2.2,0,0,1,.63.91,1.65,1.65,0,0,0,.68.92h2.57c.26.61.75,1.11,1,1.82-.32.3-.32.78-.69,1.1h-.87a2,2,0,0,0-.91.08c.19.35.29.7.56.88-.13.31-.33.53-.33.84h2.47c.62-1,1.08-2,1.74-2.91-.72-1.16-1.29-2.37-2.1-3.46H89.93c-.43-.29-.33-.92-.89-1.11-.18.29-.3.63-.71.79-.11,0-.28,0,.5,2.18-.09-.17-.3-.21-.28-.39s-.16-.15-.27-.18a12.39,12.39,0,0,0-1.19,2.06c.57.62.76,1.46,1.32,2.1-.39.56-.49,1.26-1.06,1.66H85.72L85,42.94c-.3.11-.25.5-.51.67s-.59-.07-.79.07a21.37,21.37,0,0,0,1.1,2.13h3.75l1.86-3.08a15.66,15.66,0,0,0-1.07-1.83,1.15,1.15,0,0,1-.22-.82,1.22,1.22,0,0,0,.51-1.16C89.34,38.92,89.08,38.92,87.87,36.75Zm-9,3.16c0,.2-.05.41.07.61a30.57,30.57,0,0,0,1.8,2.93H84.3c.59-.71.89-1.59,1.45-2.34a9.06,9.06,0,0,0,1.41-.1l-.39-.77a2.18,2.18,0,0,0,.56-.88,22.75,22.75,0,0,1-2.69.11l-1.21,2.14h-1.9l-.62-1.22v-.48a1.37,1.37,0,0,0,.54-1h-1l-.34-.72C79.57,38.7,79.42,39.42,78.9,39.91Zm14.28-2.29c.53-.35.63-1,1-1.45s.17-.87-.09-1.26A12.29,12.29,0,0,1,93,33.09a1.63,1.63,0,0,0-.58-.72H88.78l-1.37,2.39h-1.3l.44.88c0,.28-.52.31-.31.7h2.29L89.87,34h1.74l.91,1.52c-.16.41-.53.7-.67,1.2h.86A1.55,1.55,0,0,0,93.18,37.62ZM81.45,36.9l-.75-1.49A4.62,4.62,0,0,0,81.52,34c.51,0,1,0,1.64,0a1.7,1.7,0,0,1-.43-.76c-.12-.29.18-.52.18-.84H80.65c-.65.92-1.05,2-1.75,2.84a1.65,1.65,0,0,0,.34,1c.5.78.94,1.6,1.43,2.46h2.69c.39.3.34.85.74,1.08.28-.16.25-.54.52-.7s.57.08.82-.08a12.45,12.45,0,0,0-1.32-2.12Zm5.92-5.27c.43.28.3,1,1,1.12,0-.4.29-.55.5-.75s.45.08.66-.14L88.34,30H84.61a28.62,28.62,0,0,1-1.7,3.06c.41.88,1,1.6,1.31,2.5-.17.33-.35.68-.55,1,0,.06,0,.09.1.17h.69c.23.3.22.69.56.86a11,11,0,0,0,1.19-2.15,15.61,15.61,0,0,1-1.34-2.31l.88-1.52Z"/><path class="cls-1" d="M78.9,39.91c.51-.49.67-1.21,1.19-1.73l.34.72h1a1.35,1.35,0,0,1-.54,1v.48l.62,1.22h1.9l1.21-2.14a22.58,22.58,0,0,0,2.68-.11,2.23,2.23,0,0,1-.55.88l.38.77c-.5.18-1,0-1.4.1-.56.75-.86,1.64-1.46,2.34H80.77A30.57,30.57,0,0,1,79,40.52C78.85,40.32,78.93,40.11,78.9,39.91Z"/><path class="cls-1" d="M87.87,36.75h.45c.42-.16.54-.5.72-.79.56.19.46.82.88,1.11h2.55c.81,1.09,1.37,2.31,2.11,3.46-.66.9-1.12,1.93-1.74,2.91H90.37c0-.31.2-.53.33-.84-.27-.18-.36-.52-.56-.87a1.93,1.93,0,0,1,.91-.09h.87c.37-.31.37-.79.69-1.09-.24-.71-.73-1.21-1-1.82H89.05a1.82,1.82,0,0,1-.68-.93,2.18,2.18,0,0,0-.62-.91Z"/><path class="cls-1" d="M93.18,37.62a1.63,1.63,0,0,1-.48-.89h-.85c.15-.5.52-.79.68-1.2L91.62,34H89.87l-1.34,2.33H86.25c-.21-.39.26-.42.31-.7l-.45-.88H87.4l1.38-2.4h3.67a1.71,1.71,0,0,1,.57.73,14.6,14.6,0,0,0,1.09,1.82c.26.39.45.82.09,1.26S93.71,37.27,93.18,37.62Z"/><path class="cls-1" d="M88.82,38.92h.8a1.21,1.21,0,0,1-.52,1.16,1.15,1.15,0,0,0,.22.82,15.1,15.1,0,0,1,1.07,1.83L88.54,45.8H84.8a19.23,19.23,0,0,1-1.09-2.12c.2-.14.51,0,.79-.08s.21-.55.5-.66l.73,1.24h1.64c.57-.4.66-1.09,1-1.66-.56-.64-.74-1.49-1.31-2.1a12.34,12.34,0,0,1,1.18-2.06c.11,0,.33-.11.28.18S88.74,38.76,88.82,38.92Z"/><path class="cls-1" d="M81.45,36.9h2.67A12.61,12.61,0,0,1,85.44,39c-.25.16-.54,0-.82.09s-.24.55-.52.7c-.4-.24-.35-.78-.74-1.08H80.67c-.49-.86-.93-1.69-1.43-2.47a1.65,1.65,0,0,1-.34-1c.7-.87,1.1-1.92,1.74-2.84h2.27c0,.32-.3.55-.18.84a1.45,1.45,0,0,0,.44.75c-.61,0-1.13,0-1.64,0a4.69,4.69,0,0,1-.83,1.42Z"/><path class="cls-1" d="M87.37,31.63H85.75l-.88,1.52a15.61,15.61,0,0,0,1.34,2.31A10.5,10.5,0,0,1,85,37.61c-.35-.17-.33-.55-.56-.86h-.68c-.13-.08-.13-.11-.1-.17.18-.34.36-.69.55-1-.33-.9-.91-1.62-1.31-2.5A28.62,28.62,0,0,0,84.62,30h3.72l1.16,1.86c-.2.22-.43.09-.66.14-.21.2-.52.35-.5.75C87.67,32.62,87.8,31.91,87.37,31.63Z"/></svg>