<?xml version="1.0" encoding="utf-8"?>
<!-- Generator: Adobe Illustrator 22.0.1, SVG Export Plug-In . SVG Version: 6.00 Build 0)  -->
<svg version="1.1" id="Layer_1" xmlns="http://www.w3.org/2000/svg" xmlns:xlink="http://www.w3.org/1999/xlink" x="0px" y="0px"
	 viewBox="0 0 21 23.8" style="enable-background:new 0 0 21 23.8;" xml:space="preserve">
<style type="text/css">
	.st0{clip-path:url(#SVGID_2_);fill:#28739E;}
	.st1{fill:#394557;}
	.st2{fill:#354456;}
</style>
<g>
	<g>
		<defs>
			<rect id="SVGID_1_" y="0" width="21" height="23.8"/>
		</defs>
		<clipPath id="SVGID_2_">
			<use xlink:href="#SVGID_1_"  style="overflow:visible;"/>
		</clipPath>
		<path class="st0" d="M0.9,0.9h19.3v22H0.9V0.9z M0,23.8h21V0H0V23.8z"/>
	</g>
</g>
<g>
	<path class="st1" d="M14.6,8.3V6.7H6.5v9.8h1.6h6.5V8.3z M7.2,7.5h6.6v8.3H7.2V7.5z"/>
	<rect x="9.8" y="9.7" class="st1" width="2.6" height="0.6"/>
	<rect x="9.8" y="11.3" class="st1" width="2.6" height="0.6"/>
	<rect x="9.8" y="12.9" class="st1" width="2.6" height="0.6"/>
</g>
<g>
	<g>
		<polygon class="st2" points="8.8,10.5 8.2,10.1 8.4,9.9 8.7,10.1 9.4,9.4 9.6,9.5 		"/>
		<polyline class="st2" points="8.5,13.7 9.3,12.7 9.6,12.9 8.7,13.8 		"/>
		<polyline class="st2" points="9.6,13.6 8.7,12.7 8.5,12.9 9.4,13.8 		"/>
		<polyline class="st2" points="8.3,11.9 9.2,10.9 9.4,11.1 8.5,12.1 		"/>
		<polyline class="st2" points="9.4,11.9 8.5,11 8.3,11.2 9.2,12.1 		"/>
	</g>
</g>
</svg>
