<svg id="Layer_1" data-name="Layer 1" xmlns="http://www.w3.org/2000/svg" viewBox="0 0 110 62"><defs><style>.cls-1{opacity:0.5;}.cls-2,.cls-3,.cls-4,.cls-5,.cls-6,.cls-7{fill:#354557;}.cls-3{opacity:0.3;}.cls-4{opacity:0.2;}.cls-5{opacity:0.1;}.cls-6{opacity:0.05;}.cls-7{opacity:0.6;}.cls-8{fill:#d2e2eb;stroke:#000;stroke-miterlimit:10;stroke-width:0.25px;}</style></defs><title>Sustainability and responsible management [Recovered]</title><g class="cls-1"><path class="cls-2" d="M76.44,62.51l5.35,0a2.68,2.68,0,0,0-5.35,0Z"/><circle class="cls-2" cx="79.06" cy="52.31" r="2.67"/><circle class="cls-3" cx="79" cy="42.06" r="2.67"/><circle class="cls-4" cx="78.95" cy="31.81" r="2.67"/><circle class="cls-5" cx="78.89" cy="21.56" r="2.67"/><circle class="cls-6" cx="78.83" cy="11.31" r="2.67"/><path class="cls-2" d="M92.89,62.42l5.35,0a2.68,2.68,0,0,0-5.35,0Z"/><circle class="cls-7" cx="95.51" cy="52.22" r="2.67"/><circle class="cls-7" cx="111.73" cy="52.14" r="2.67"/><circle class="cls-3" cx="95.46" cy="41.97" r="2.67"/><path class="cls-2" d="M60.84,62.59l5.35,0a2.68,2.68,0,0,0-5.35,0Z"/><circle class="cls-2" cx="63.46" cy="52.4" r="2.67"/><circle class="cls-3" cx="63.4" cy="42.15" r="2.67"/><circle class="cls-4" cx="63.35" cy="31.9" r="2.67"/><circle class="cls-5" cx="63.29" cy="21.64" r="2.67"/><circle class="cls-6" cx="63.23" cy="11.39" r="2.67"/><path class="cls-2" d="M45.23,62.68l5.36,0a2.68,2.68,0,0,0-5.36,0Z"/><circle class="cls-2" cx="47.86" cy="52.49" r="2.67"/><circle class="cls-3" cx="47.8" cy="42.23" r="2.67"/><circle class="cls-4" cx="47.75" cy="31.98" r="2.67"/><path class="cls-2" d="M29.63,62.76l5.35,0a2.68,2.68,0,0,0-5.35,0Z"/><circle class="cls-2" cx="32.26" cy="52.57" r="2.67"/><circle class="cls-3" cx="32.2" cy="42.32" r="2.67"/><circle class="cls-4" cx="32.15" cy="32.07" r="2.67"/><circle class="cls-5" cx="32.09" cy="21.82" r="2.67"/><path class="cls-2" d="M14,62.85l5.34,0a2.67,2.67,0,0,0-5.34,0Z"/><circle class="cls-7" cx="16.66" cy="52.66" r="2.67"/><path class="cls-2" d="M-.54,62.93l5.35,0a2.68,2.68,0,0,0-5.35,0Z"/><circle class="cls-7" cx="2.08" cy="52.74" r="2.67"/><circle class="cls-3" cx="16.6" cy="42.4" r="2.67"/><circle class="cls-4" cx="16.54" cy="32.15" r="2.67"/><circle class="cls-3" cx="2.15" cy="42.48" r="2.67"/><circle class="cls-4" cx="2.1" cy="32.23" r="2.67"/><circle class="cls-5" cx="16.49" cy="21.9" r="2.67"/><circle class="cls-6" cx="16.43" cy="11.65" r="2.67"/></g><path class="cls-8" d="M54.92,43.2a8.19,8.19,0,0,0-1,3.41,6.17,6.17,0,0,0,.05.87L47.12,35.66a3,3,0,0,1-.39-1.43,3.29,3.29,0,0,1,.39-1.48L50.42,27l-3.69-2.09,12-.22,5.83,10.5L60.81,33ZM71.42,9.55a6.7,6.7,0,0,0-3.24-3H81.7A2.94,2.94,0,0,1,84.4,8l3.35,5.72,3.63-2.15L85.55,22l-11.93-.17,3.69-2.09ZM92.26,40.67a6.65,6.65,0,0,0,4.18-1.32L89.62,51.22a3,3,0,0,1-2.69,1.49H80.49v4.23L74.34,46.66l6.15-10.28v4.29Z"/><path class="cls-2" d="M97.54,30.68a5.7,5.7,0,0,1,.77,2.8,6.14,6.14,0,0,1-3,5.06,7,7,0,0,1-3.14.72H88.52L82,28l10.5-6Z"/><path class="cls-2" d="M60.2,9.88A5.37,5.37,0,0,1,65,7.07a5.84,5.84,0,0,1,5.28,3.19l1.87,3.13L65.7,24.61l-10.5-6.1Z"/><path class="cls-2" d="M61,52.71A5.76,5.76,0,0,1,55.25,47a7.7,7.7,0,0,1,.94-3.3L58,40.56H71V52.71Z"/></svg>