<?xml version="1.0" encoding="utf-8"?>
<!-- Generator: Adobe Illustrator 16.0.0, SVG Export Plug-In . SVG Version: 6.00 Build 0)  -->
<!DOCTYPE svg PUBLIC "-//W3C//DTD SVG 1.1//EN" "http://www.w3.org/Graphics/SVG/1.1/DTD/svg11.dtd">
<svg version="1.1" id="Layer_1" xmlns="http://www.w3.org/2000/svg" xmlns:xlink="http://www.w3.org/1999/xlink" x="0px" y="0px"
	 width="16.5px" height="16.542px" viewBox="0 0 16.5 16.542" enable-background="new 0 0 16.5 16.542" xml:space="preserve">
<path fill-rule="evenodd" clip-rule="evenodd" fill="#A63D23" d="M0.286,8.288c-0.095,4.07,3.285,8.037,8.094,8.025
	c4.288-0.01,7.905-3.682,7.903-8.042c-0.001-4.368-3.605-7.967-8.008-7.958C3.546,0.325,0.18,4.198,0.286,8.288z M12.061,8.344
	c0,2.061-1.692,3.732-3.783,3.739c-2.151,0.007-3.883-1.741-3.868-3.905c0.013-2.046,1.757-3.721,3.871-3.717
	C10.396,4.465,12.061,6.178,12.061,8.344z M6.736,12.398c1.053,0.356,2.036,0.334,3.083,0.016C9.3,13.684,8.813,14.87,8.291,16.15
	C7.757,14.862,7.263,13.672,6.736,12.398z M10.176,4.228c1.198-0.485,2.373-0.959,3.635-1.468c-0.529,1.279-1.016,2.458-1.501,3.632
	c-0.315-0.412-0.579-0.837-0.922-1.183C11.036,4.853,10.607,4.571,10.176,4.228z M4.256,6.456C3.779,5.174,3.331,3.971,2.846,2.668
	C4.1,3.215,5.259,3.719,6.484,4.25C5.461,4.733,4.755,5.439,4.256,6.456z M12.431,6.75c1.236,0.534,2.392,1.035,3.625,1.568
	c-1.234,0.521-2.387,1.012-3.619,1.534C12.771,8.793,12.71,7.816,12.431,6.75z M10.103,12.307c1-0.481,1.67-1.17,2.204-2.108
	c0.492,1.241,0.957,2.413,1.458,3.677C12.494,13.333,11.335,12.836,10.103,12.307z M4.167,6.739C3.784,7.825,3.782,8.81,4.161,9.87
	C2.913,9.336,1.762,8.842,0.533,8.317C1.768,7.779,2.915,7.282,4.167,6.739z M6.747,4.119c0.516-1.22,1.005-2.368,1.525-3.594
	c0.521,1.237,1.003,2.378,1.516,3.596C8.735,3.776,7.775,3.833,6.747,4.119z M4.272,10.272c0.329,0.408,0.6,0.81,0.938,1.146
	c0.336,0.332,0.738,0.599,1.142,0.918c-1.129,0.502-2.244,0.997-3.461,1.539C3.38,12.598,3.821,11.446,4.272,10.272z"/>
<path fill-rule="evenodd" clip-rule="evenodd" fill="#FFFFFF" d="M12.061,8.344c0-2.166-1.666-3.879-3.78-3.883
	C6.168,4.458,4.424,6.132,4.411,8.178c-0.015,2.164,1.716,3.912,3.868,3.905C10.369,12.077,12.061,10.405,12.061,8.344z"/>
<path fill-rule="evenodd" clip-rule="evenodd" fill="#FFFFFF" d="M6.736,12.398c0.527,1.274,1.021,2.464,1.555,3.752
	c0.522-1.28,1.009-2.466,1.528-3.736C8.772,12.732,7.789,12.754,6.736,12.398z"/>
<path fill-rule="evenodd" clip-rule="evenodd" fill="#FFFFFF" d="M10.176,4.228c0.431,0.343,0.86,0.625,1.212,0.981
	c0.343,0.346,0.607,0.771,0.922,1.183c0.485-1.174,0.972-2.353,1.501-3.632C12.549,3.269,11.374,3.743,10.176,4.228z"/>
<path fill-rule="evenodd" clip-rule="evenodd" fill="#FFFFFF" d="M4.256,6.456C4.755,5.439,5.461,4.733,6.484,4.25
	C5.259,3.719,4.1,3.215,2.846,2.668C3.331,3.971,3.779,5.174,4.256,6.456z"/>
<path fill-rule="evenodd" clip-rule="evenodd" fill="#FFFFFF" d="M12.431,6.75c0.279,1.065,0.339,2.043,0.006,3.103
	c1.232-0.522,2.385-1.013,3.619-1.534C14.823,7.786,13.667,7.285,12.431,6.75z"/>
<path fill-rule="evenodd" clip-rule="evenodd" fill="#FFFFFF" d="M10.103,12.307c1.232,0.529,2.391,1.025,3.661,1.568
	c-0.501-1.264-0.965-2.436-1.458-3.677C11.773,11.137,11.103,11.826,10.103,12.307z"/>
<path fill-rule="evenodd" clip-rule="evenodd" fill="#FFFFFF" d="M4.167,6.739c-1.252,0.543-2.399,1.04-3.634,1.578
	c1.229,0.525,2.379,1.02,3.627,1.553C3.782,8.81,3.784,7.825,4.167,6.739z"/>
<path fill-rule="evenodd" clip-rule="evenodd" fill="#FFFFFF" d="M6.747,4.119c1.028-0.286,1.988-0.343,3.042,0.002
	C9.275,2.903,8.793,1.762,8.272,0.525C7.751,1.75,7.263,2.899,6.747,4.119z"/>
<path fill-rule="evenodd" clip-rule="evenodd" fill="#FFFFFF" d="M4.272,10.272c-0.451,1.174-0.892,2.326-1.381,3.604
	c1.217-0.542,2.332-1.037,3.461-1.539c-0.403-0.319-0.806-0.586-1.142-0.918C4.872,11.082,4.601,10.68,4.272,10.272z"/>
</svg>
