<?xml version="1.0" encoding="utf-8"?>
<!-- Generator: Adobe Illustrator 16.0.0, SVG Export Plug-In . SVG Version: 6.00 Build 0)  -->
<!DOCTYPE svg PUBLIC "-//W3C//DTD SVG 1.1//EN" "http://www.w3.org/Graphics/SVG/1.1/DTD/svg11.dtd">
<svg version="1.1" id="Layer_1" xmlns="http://www.w3.org/2000/svg" xmlns:xlink="http://www.w3.org/1999/xlink" x="0px" y="0px"
	 width="27.4px" height="25.3px" viewBox="228 230 27.4 25.3" style="enable-background:new 228 230 27.4 25.3;"
	 xml:space="preserve">
<g>
	
		<linearGradient id="SVGID_1_" gradientUnits="userSpaceOnUse" x1="295.5713" y1="692.4219" x2="295.5713" y2="668.8557" gradientTransform="matrix(1 0 0 1 -56 -437)">
		<stop  offset="0" style="stop-color:#50A0D2"/>
		<stop  offset="1.510000e-02" style="stop-color:#4A93C4"/>
		<stop  offset="4.450000e-02" style="stop-color:#3A76A8"/>
		<stop  offset="8.500000e-02" style="stop-color:#1D5185"/>
		<stop  offset="9.700001e-02" style="stop-color:#16457B"/>
		<stop  offset="0.9007" style="stop-color:#16457B"/>
		<stop  offset="1" style="stop-color:#50A0D2"/>
	</linearGradient>
	<path style="fill:url(#SVGID_1_);" d="M251.1,252.1c0,1.7-1.4,3.1-3.1,3.1h-16.9c-1.7,0-3.1-1.4-3.1-3.1v-16.9
		c0-1.7,1.4-3.1,3.1-3.1H248c1.7,0,3.1,1.4,3.1,3.1V252.1z"/>
	
		<linearGradient id="SVGID_2_" gradientUnits="userSpaceOnUse" x1="515.1084" y1="-86.4702" x2="515.1084" y2="-107.5226" gradientTransform="matrix(-1 0 0 -1 754.6777 146.752)">
		<stop  offset="0" style="stop-color:#D2EDF6"/>
		<stop  offset="1.930000e-02" style="stop-color:#BEDDEF"/>
		<stop  offset="5.860000e-02" style="stop-color:#8ABDE0"/>
		<stop  offset="9.700001e-02" style="stop-color:#50A0D2"/>
		<stop  offset="0.7178" style="stop-color:#50A0D2"/>
		<stop  offset="0.8083" style="stop-color:#3F7FB1"/>
		<stop  offset="1" style="stop-color:#16457B"/>
	</linearGradient>
	<path style="fill:url(#SVGID_2_);" d="M249.9,236.2c0-1.5-1.2-2.8-2.8-2.8H232c-1.5,0-2.8,1.2-2.8,2.8v3.1l20.6,5.9L249.9,236.2
		L249.9,236.2z"/>
	<path style="fill:#AE2081;" d="M237.3,245.7l2.5,2.5c0,0,0.1,0.1,0.1,0.1s0.1,0,0.1-0.1l12.9-12.9
		C246.5,238,241.1,241.7,237.3,245.7z"/>
	<path style="fill:#F3DEB6;" d="M240,248.4c-0.1,0-0.2,0-0.2-0.1l-8.4-8.4c-0.1-0.1-0.1-0.3,0-0.5l2.6-2.6c0.1-0.1,0.1-0.1,0.2-0.1
		c0.1,0,0.2,0,0.2,0.1l5.1,5.1c0.1,0.1,0.3,0.2,0.4,0.2s0.3-0.1,0.4-0.2l11.9-11.9c0.1-0.1,0.1-0.1,0.2-0.1c0.1,0,0.2,0,0.2,0.1
		l2.6,2.6c0.1,0.1,0.1,0.1,0.1,0.2c0,0.1,0,0.2-0.1,0.2l-15.2,15.2C240.2,248.4,240.1,248.4,240,248.4z"/>
	<path style="fill:#EA6226;" d="M253.1,235.3l2.2-2.2c0,0,0.1-0.1,0.1-0.1s0-0.1-0.1-0.1l-2.6-2.6c0,0-0.1-0.1-0.1-0.1
		c-0.1,0-0.1,0-0.1,0.1L240.5,242c-0.1,0.1-0.3,0.2-0.5,0.2s-0.4-0.1-0.5-0.2l-5.1-5.1c0,0-0.1-0.1-0.1-0.1s-0.1,0-0.1,0.1l-2.6,2.6
		c-0.1,0.1-0.1,0.2,0,0.3l5.9,5.9C241.1,241.7,246.5,238,253.1,235.3z"/>
	<g>
		<polygon style="fill:#FFFFFF;" points="243.2,238.5 244.6,237.1 235.4,237.1 236.8,238.5 		"/>
		<polygon style="fill:#FFFFFF;" points="246.6,249.4 233.5,249.4 233.5,242.6 232.1,241.2 232.1,250.8 248,250.8 248,241.2 
			246.6,242.5 		"/>
		<polygon style="fill:#FFFFFF;" points="232.1,237.1 232.1,238.1 233.1,237.1 		"/>
	</g>
</g>
</svg>
