<?xml version="1.0" encoding="utf-8"?>
<!-- Generator: Adobe Illustrator 16.0.3, SVG Export Plug-In . SVG Version: 6.00 Build 0)  -->
<!DOCTYPE svg PUBLIC "-//W3C//DTD SVG 1.1//EN" "http://www.w3.org/Graphics/SVG/1.1/DTD/svg11.dtd">
<svg version="1.1" id="Layer_1" xmlns="http://www.w3.org/2000/svg" xmlns:xlink="http://www.w3.org/1999/xlink" x="0px" y="0px"
	 width="43.885px" height="40.41px" viewBox="228.041 229.951 43.885 40.41" enable-background="new 228.041 229.951 43.885 40.41"
	 xml:space="preserve">
<g>
	
		<linearGradient id="SVGID_1_" gradientUnits="userSpaceOnUse" x1="302.4746" y1="84.3262" x2="302.4746" y2="122.003" gradientTransform="matrix(1 0 0 -1 -56 355)">
		<stop  offset="0" style="stop-color:#50A0D2"/>
		<stop  offset="0.0151" style="stop-color:#4A93C4"/>
		<stop  offset="0.0445" style="stop-color:#3A76A8"/>
		<stop  offset="0.085" style="stop-color:#1D5185"/>
		<stop  offset="0.097" style="stop-color:#16457B"/>
		<stop  offset="0.9007" style="stop-color:#16457B"/>
		<stop  offset="1" style="stop-color:#50A0D2"/>
	</linearGradient>
	<path fill="url(#SVGID_1_)" d="M264.908,265.419c0,2.729-2.213,4.942-4.943,4.942h-26.981c-2.73,0-4.943-2.213-4.943-4.942v-26.981
		c0-2.729,2.212-4.943,4.943-4.943h26.981c2.73,0,4.943,2.214,4.943,4.943V265.419z"/>
	
		<linearGradient id="SVGID_2_" gradientUnits="userSpaceOnUse" x1="1075.3193" y1="129.8398" x2="1075.3193" y2="163.4949" gradientTransform="matrix(-1 0 0 1 1321.793 105.3418)">
		<stop  offset="0" style="stop-color:#D2EDF6"/>
		<stop  offset="0.0193" style="stop-color:#BEDDEF"/>
		<stop  offset="0.0586" style="stop-color:#8ABDE0"/>
		<stop  offset="0.097" style="stop-color:#50A0D2"/>
		<stop  offset="0.7178" style="stop-color:#50A0D2"/>
		<stop  offset="0.8083" style="stop-color:#3F7FB1"/>
		<stop  offset="1" style="stop-color:#16457B"/>
	</linearGradient>
	<path fill="url(#SVGID_2_)" d="M262.941,239.876c0-2.438-1.978-4.416-4.416-4.416h-24.104c-2.438,0-4.416,1.977-4.416,4.416v4.994
		l32.934,9.37v-14.364H262.941z"/>
	<path fill="#AE2081" d="M242.918,255.143l4.017,4.017c0.06,0.062,0.141,0.094,0.227,0.094s0.167-0.032,0.228-0.094l20.672-20.674
		C257.576,242.863,248.879,248.717,242.918,255.143z"/>
	<path fill="#F3DEB6" d="M247.162,259.469c-0.144,0-0.279-0.057-0.38-0.156L233.38,245.91c-0.208-0.21-0.208-0.552,0-0.761
		l4.218-4.216c0.101-0.102,0.236-0.157,0.38-0.157s0.279,0.056,0.38,0.157l8.153,8.152c0.173,0.174,0.405,0.27,0.651,0.27
		c0.247,0,0.478-0.096,0.651-0.27l18.978-18.977c0.102-0.101,0.236-0.157,0.38-0.157c0.146,0,0.279,0.056,0.382,0.157l4.217,4.217
		c0.101,0.101,0.156,0.236,0.156,0.38c0,0.145-0.057,0.28-0.156,0.38l-24.227,24.228
		C247.441,259.412,247.306,259.469,247.162,259.469z"/>
	<path fill="#EA6226" d="M268.063,238.484l3.554-3.553c0.061-0.059,0.094-0.14,0.094-0.226c0-0.085-0.033-0.167-0.094-0.228
		l-4.218-4.217c-0.061-0.06-0.141-0.093-0.227-0.093c-0.087,0-0.166,0.033-0.227,0.093l-18.979,18.977
		c-0.214,0.216-0.5,0.334-0.805,0.334c-0.304,0-0.59-0.118-0.804-0.333l-8.153-8.153c-0.06-0.06-0.141-0.092-0.227-0.092
		s-0.167,0.033-0.227,0.092l-4.217,4.217c-0.125,0.126-0.125,0.329,0,0.455l9.385,9.386
		C248.879,248.717,257.576,242.863,268.063,238.484z"/>
	<g>
		<polygon fill="#FFFFFF" points="252.328,243.623 254.531,241.419 239.792,241.419 241.996,243.623 		"/>
		<polygon fill="#FFFFFF" points="257.719,261.043 236.73,261.043 236.73,250.207 234.525,248.003 234.525,263.248 259.923,263.248 
			259.923,247.878 257.719,250.083 		"/>
		<polygon fill="#FFFFFF" points="234.525,241.419 234.525,243.057 236.164,241.419 		"/>
	</g>
</g>
</svg>
