<?xml version="1.0" encoding="utf-8"?>
<!-- Generator: Adobe Illustrator 16.0.0, SVG Export Plug-In . SVG Version: 6.00 Build 0)  -->
<!DOCTYPE svg PUBLIC "-//W3C//DTD SVG 1.1//EN" "http://www.w3.org/Graphics/SVG/1.1/DTD/svg11.dtd">
<svg version="1.1" id="Layer_1" xmlns="http://www.w3.org/2000/svg" xmlns:xlink="http://www.w3.org/1999/xlink" x="0px" y="0px"
	 width="26.1px" height="26.1px" viewBox="0 0 26.1 26.1" style="enable-background:new 0 0 26.1 26.1;" xml:space="preserve">
<g>
	
		<linearGradient id="SVGID_1_" gradientUnits="userSpaceOnUse" x1="69.0352" y1="463.2935" x2="69.0352" y2="436.649" gradientTransform="matrix(1 0 0 1 -56 -437)">
		<stop  offset="0" style="stop-color:#50A0D2"/>
		<stop  offset="1.510000e-02" style="stop-color:#4A93C4"/>
		<stop  offset="4.450000e-02" style="stop-color:#3A76A8"/>
		<stop  offset="8.500000e-02" style="stop-color:#1D5185"/>
		<stop  offset="9.700001e-02" style="stop-color:#16457B"/>
		<stop  offset="0.9007" style="stop-color:#16457B"/>
		<stop  offset="1" style="stop-color:#50A0D2"/>
	</linearGradient>
	<path style="fill:url(#SVGID_1_);" d="M26.1,22.6c0,1.9-1.6,3.5-3.5,3.5H3.5c-1.9,0-3.5-1.6-3.5-3.5V3.5C0,1.6,1.6,0,3.5,0h19.1
		c1.9,0,3.5,1.6,3.5,3.5V22.6z"/>
	
		<linearGradient id="SVGID_2_" gradientUnits="userSpaceOnUse" x1="69.0352" y1="438.3911" x2="69.0352" y2="451.6724" gradientTransform="matrix(1 0 0 1 -56 -437)">
		<stop  offset="0" style="stop-color:#D2EDF6"/>
		<stop  offset="1.930000e-02" style="stop-color:#BEDDEF"/>
		<stop  offset="5.860000e-02" style="stop-color:#8ABDE0"/>
		<stop  offset="9.700001e-02" style="stop-color:#50A0D2"/>
		<stop  offset="0.7178" style="stop-color:#50A0D2"/>
		<stop  offset="0.8083" style="stop-color:#3F7FB1"/>
		<stop  offset="1" style="stop-color:#16457B"/>
	</linearGradient>
	<path style="fill:url(#SVGID_2_);" d="M24.7,4.5c0-1.7-1.4-3.1-3.1-3.1h-17c-1.7,0-3.1,1.4-3.1,3.1V8l23.3,6.6L24.7,4.5L24.7,4.5
		L24.7,4.5z"/>
	<circle style="fill:#FFFFFF;" cx="12.9" cy="13.4" r="10.4"/>
	<path style="fill:#F3DEB6;" d="M9.3,12.9c0-8.3-0.6-11.7,4.1-6.9l5.2,5.2c1.1,1.1,1.1,3,0,4.1l-5.2,5.2C9.1,24.8,9.3,23,9.3,12.9"
		/>
	<path style="fill:#EA6226;stroke:#EA6226;stroke-width:2;" d="M10.4,13.1c0-6.6-0.5-9.3,3.3-5.5l4.1,4.1c0.9,0.9,0.9,2.4,0,3.3
		l-4.1,4.1C10.2,22.6,10.4,21.1,10.4,13.1"/>
</g>
</svg>
