<?xml version="1.0" encoding="utf-8"?>
<!-- Generator: Adobe Illustrator 16.0.3, SVG Export Plug-In . SVG Version: 6.00 Build 0)  -->
<!DOCTYPE svg PUBLIC "-//W3C//DTD SVG 1.1//EN" "http://www.w3.org/Graphics/SVG/1.1/DTD/svg11.dtd">
<svg version="1.1" id="Layer_1" xmlns="http://www.w3.org/2000/svg" xmlns:xlink="http://www.w3.org/1999/xlink" x="0px" y="0px"
	 width="36.867px" height="36.868px" viewBox="232.041 231.443 36.867 36.868"
	 enable-background="new 232.041 231.443 36.867 36.868" xml:space="preserve">
<g>
	
		<linearGradient id="SVGID_1_" gradientUnits="userSpaceOnUse" x1="306.4746" y1="86.377" x2="306.4746" y2="124.0532" gradientTransform="matrix(1 0 0 -1 -56 355)">
		<stop  offset="0" style="stop-color:#50A0D2"/>
		<stop  offset="0.0151" style="stop-color:#4A93C4"/>
		<stop  offset="0.0445" style="stop-color:#3A76A8"/>
		<stop  offset="0.085" style="stop-color:#1D5185"/>
		<stop  offset="0.097" style="stop-color:#16457B"/>
		<stop  offset="0.9007" style="stop-color:#16457B"/>
		<stop  offset="1" style="stop-color:#50A0D2"/>
	</linearGradient>
	<path fill="url(#SVGID_1_)" d="M268.908,263.367c0,2.73-2.213,4.943-4.943,4.943h-26.981c-2.73,0-4.943-2.213-4.943-4.943v-26.981
		c0-2.729,2.212-4.943,4.943-4.943h26.981c2.73,0,4.943,2.213,4.943,4.943V263.367z"/>
	
		<linearGradient id="SVGID_2_" gradientUnits="userSpaceOnUse" x1="306.4727" y1="121.5898" x2="306.4727" y2="102.8101" gradientTransform="matrix(1 0 0 -1 -56 355)">
		<stop  offset="0" style="stop-color:#D2EDF6"/>
		<stop  offset="0.0193" style="stop-color:#BEDDEF"/>
		<stop  offset="0.0586" style="stop-color:#8ABDE0"/>
		<stop  offset="0.097" style="stop-color:#50A0D2"/>
		<stop  offset="0.7178" style="stop-color:#50A0D2"/>
		<stop  offset="0.8083" style="stop-color:#3F7FB1"/>
		<stop  offset="1" style="stop-color:#16457B"/>
	</linearGradient>
	<path fill="url(#SVGID_2_)" d="M266.941,237.826c0-2.439-1.978-4.416-4.416-4.416h-24.104c-2.438,0-4.416,1.977-4.416,4.416v4.994
		l32.934,9.37v-14.363H266.941z"/>
	<circle fill="#FFFFFF" cx="250.323" cy="250.367" r="14.742"/>
	<path fill="#F3DEB6" d="M245.169,249.721c0-11.788-0.884-16.513,5.856-9.772l7.32,7.319c1.616,1.618,1.616,4.24,0,5.857
		l-7.32,7.318C244.923,266.548,245.169,263.934,245.169,249.721"/>
	<path fill="#EA6226" stroke="#EA6226" stroke-width="2" d="M246.687,249.971c0-9.387-0.704-13.149,4.665-7.782l5.83,5.83
		c1.286,1.288,1.286,3.375-0.002,4.663l-5.828,5.83C246.491,263.372,246.687,261.291,246.687,249.971"/>
</g>
</svg>
