<svg xmlns="http://www.w3.org/2000/svg" xmlns:xlink="http://www.w3.org/1999/xlink" viewBox="0 0 86.57 39.79"><defs><style>.cls-1{fill:none;}.cls-2{clip-path:url(#clip-path);}.cls-3{fill:#782b4c;}</style><clipPath id="clip-path" transform="translate(0 0)"><rect class="cls-1" width="86.57" height="39.79"/></clipPath></defs><title>Planet</title><g id="Layer_2" data-name="Layer 2"><g id="Layer_1-2" data-name="Layer 1"><g id="Planet"><g class="cls-2"><g class="cls-2"><path class="cls-3" d="M36,25.2a.5.5,0,0,0-.51-.5H.51a.5.5,0,1,0,0,1h35a.5.5,0,0,0,.51-.5M9.47,30.5H8.42a.5.5,0,1,0,0,1H9.47a.5.5,0,1,0,0-1M43,30.5H23.4a.5.5,0,1,0,0,1H43a.5.5,0,1,0,0-1m-22.49,0H14.46a.5.5,0,1,0,0,1h6.07a.5.5,0,1,0,0-1M26.2,17.15a.5.5,0,1,0,0,1h4.67a.5.5,0,1,0,0-1Zm-8.2-6H39.07a.5.5,0,1,0,0-1H18a.5.5,0,1,0,0,1M79.93,26.89a1.61,1.61,0,0,0,0,3.21,1.61,1.61,0,0,0,0-3.21M41.63,37.3a1.24,1.24,0,0,0,0,2.48,1.24,1.24,0,0,0,0-2.48m27.9-17.78c0-.4,0-.8-.06-1.19a.69.69,0,0,1-.15,0H60.5a.71.71,0,1,1,0-1.43h8.76a13.29,13.29,0,0,0-21.61-7.2H51a.71.71,0,1,1,0,1.43H46.62a.71.71,0,0,1-.33-.09A13,13,0,0,0,45,12.88H61.78a.71.71,0,1,1,0,1.43H44.21a12.77,12.77,0,0,0-.89,2.84h.92a.5.5,0,1,1,0,1H43.16a12.47,12.47,0,0,0-.08,1.37,12.7,12.7,0,0,0,1,5h4.46a2.81,2.81,0,0,1,5.41,0H68.51a12.65,12.65,0,0,0,.85-3,1.91,1.91,0,0,1-.07-.48H49.81a.71.71,0,1,1,0-1.43H69.52s0,0,0-.07m-18.26,7a1.33,1.33,0,1,0-1.36-1.33,1.35,1.35,0,0,0,1.36,1.33m16.51-.62H54a2.81,2.81,0,0,1-5.41,0H44.83a13.32,13.32,0,0,0,23,0M71,22.71a2,2,0,0,1-.37,0,14.28,14.28,0,0,1-1,2.81l0,0a14.71,14.71,0,0,1-28-6c0-.46,0-.92.07-1.37H34.9a.5.5,0,1,1,0-1h6.94A14.69,14.69,0,0,1,71,19.26h0a1.73,1.73,0,0,1,0,3.45M55.84,3.27a1.12,1.12,0,0,0,0-2.24,1.12,1.12,0,0,0,0,2.24M83.36,0c-4.29,0-4.29,6.54,0,6.54S87.65,0,83.36,0M75,10.4a.76.76,0,0,0,0,1.52.76.76,0,0,0,0-1.52m-17.56,0a.72.72,0,0,1-.73.71H55a.71.71,0,1,1,0-1.43h1.76a.72.72,0,0,1,.73.71" transform="translate(0 0)"/></g></g></g></g></g></svg>