<svg id="Layer_1" data-name="Layer 1" xmlns="http://www.w3.org/2000/svg" viewBox="0 0 15 12"><defs><style>.cls-1{fill:#344456;}.cls-2{fill:#fff;}</style></defs><title>LO</title><rect class="cls-1" width="15" height="12"/><path class="cls-2" d="M2.19,9V2.6H3.55v5.3H6.16V9Z" transform="translate(0 -0.01)"/><path class="cls-2" d="M13,5.81a3.49,3.49,0,0,1-.79,2.45A2.93,2.93,0,0,1,10,9.12a2.93,2.93,0,0,1-2.27-.86A3.5,3.5,0,0,1,6.9,5.8a3.45,3.45,0,0,1,.79-2.45A3,3,0,0,1,10,2.5a2.92,2.92,0,0,1,2.27.85A3.49,3.49,0,0,1,13,5.81Zm-4.69,0a2.69,2.69,0,0,0,.41,1.62A1.43,1.43,0,0,0,10,8q1.63,0,1.63-2.17T10,3.64a1.44,1.44,0,0,0-1.22.55A2.67,2.67,0,0,0,8.33,5.81Z" transform="translate(0 -0.01)"/></svg>