<svg id="Layer_1" data-name="Layer 1" xmlns="http://www.w3.org/2000/svg" viewBox="0 0 12 8"><defs><style>.cls-1{fill:#25739e;}.cls-2{fill:#fff;}</style></defs><title>LO</title><rect class="cls-1" x="-0.17" y="-0.08" width="12.33" height="8.17"/><g id="Layer_1-2" data-name="Layer 1"><path class="cls-2" d="M3.17,6.22H5.4v.61H2.45V1.15h.72Z"/><path class="cls-2" d="M9.69,4.49A2.83,2.83,0,0,1,9.2,6.28a1.69,1.69,0,0,1-1.41.63A1.7,1.7,0,0,1,6.4,6.3a2.68,2.68,0,0,1-.53-1.73V3.5a2.91,2.91,0,0,1,.5-1.79,1.69,1.69,0,0,1,1.41-.64,1.69,1.69,0,0,1,1.4.62,2.81,2.81,0,0,1,.51,1.76ZM9,3.49a2.39,2.39,0,0,0-.3-1.34,1,1,0,0,0-.9-.44,1,1,0,0,0-.89.45,2.24,2.24,0,0,0-.31,1.31v1a2.45,2.45,0,0,0,.3,1.33,1,1,0,0,0,.91.46,1,1,0,0,0,.89-.43A2.4,2.4,0,0,0,9,4.56Z"/></g></svg>