<svg xmlns="http://www.w3.org/2000/svg" xmlns:xlink="http://www.w3.org/1999/xlink" viewBox="0 0 100.8 105.39"><defs><style>.cls-1{fill:none;}.cls-2{clip-path:url(#clip-path);}.cls-3{fill:#dceaec;}.cls-4{opacity:0.5;}.cls-5{clip-path:url(#clip-path-4);}.cls-6{fill:#a2b9ba;}.cls-7{clip-path:url(#clip-path-5);}.cls-8{fill:#fff;}.cls-9{fill:#772a4a;}.cls-10{fill:#f0a041;}</style><clipPath id="clip-path" transform="translate(0 0)"><rect class="cls-1" width="100.8" height="105.39"/></clipPath><clipPath id="clip-path-4" transform="translate(0 0)"><rect class="cls-1" x="23.47" y="14.27" width="8.67" height="8.8"/></clipPath><clipPath id="clip-path-5" transform="translate(0 0)"><rect class="cls-1" x="18.76" y="39.28" width="12.39" height="9.51"/></clipPath></defs><title>Voyager</title><g id="Layer_2" data-name="Layer 2"><g id="Layer_1-2" data-name="Layer 1"><g id="Voyager"><g class="cls-2"><g class="cls-2"><g class="cls-2"><path class="cls-3" d="M32.39,22.51c-2-5.22-5.52-8.72-9.2-8.72-5.54,0-10.79,7.24-10.79,17s6,18.43,11.55,18.43c3.13,0,5.93-2.54,7.77-6.52l.89-2.93L35,39.54l-2-14,1.46-2.06-2.28.05Z" transform="translate(0 0)"/><g class="cls-4"><g class="cls-5"><path class="cls-6" d="M32.13,23.07C30.32,18,27,14.5,23.47,14.27A24.53,24.53,0,0,1,28.68,23l3.46,0" transform="translate(0 0)"/></g></g><g class="cls-4"><g class="cls-7"><path class="cls-6" d="M28.94,42c-1-.78-1.46-1.94-2.42-2.68a18.76,18.76,0,0,1-7.75,7A7.85,7.85,0,0,0,24,48.79c2.93,0,5.4-2.29,7.17-5.91A5.26,5.26,0,0,1,28.94,42" transform="translate(0 0)"/></g></g><polygon class="cls-8" points="31.37 23.36 34.42 23.46 34.42 39.96 30.81 39.76 28.4 35.84 27.75 30 29.05 25.67 31.37 23.36"/><path class="cls-9" d="M21.8,22.19,17.91,18.3a.46.46,0,0,0-.64.64l3.89,3.89a.46.46,0,1,0,.64-.64" transform="translate(0 0)"/><path class="cls-10" d="M30.73,37a.95.95,0,1,0,1.11.35A.83.83,0,0,0,30.73,37" transform="translate(0 0)"/><path class="cls-9" d="M100.29,28.92,47.88,35.24a.73.73,0,0,0,.15-.44.74.74,0,0,0-1.28-.51l-5-2.8,4.85-3.1a.73.73,0,0,0,.24,0,.74.74,0,1,0-.36-1.39l-4-1.67-2-3.4a.46.46,0,0,0-.37-.22.46.46,0,0,0-.39.19L38.4,23.7l-3.25-1.35a.46.46,0,0,0-.53.13l-.36.45H32.56a.46.46,0,0,0,.26-.58l-.1-.26v0l0,0c-2.09-5.29-5.79-8.7-9.5-8.7a7.18,7.18,0,0,0-2.55.48L20.1,13a.46.46,0,0,0-.38-.2H17.92l-.18-.07-1-1.14a.46.46,0,0,0-.34-.15h-.49l-.54-.84a.46.46,0,0,0,.21-.19c.06-.11.11-.19,0-.49l.85-.57a.46.46,0,0,0,.2-.38v-.2l.23-.14a.46.46,0,1,0-.48-.78l-.45.27a.46.46,0,0,0-.22.39v.21l-.55.36c-.36-.66-1-1.69-1.95-3.36a.46.46,0,0,0-.38-.22l-.93,0L11.08,5l.1-.06L12,4.18h1.46a.46.46,0,0,0,.39-.7L13.16,2.4l.77-1.15h.88c-.63.64-.9,1.35-.61,1.78h0l3,4.78a.46.46,0,0,0,.38.21h.06c3.11-.45,3.35-2.6,3.35-2.69A.45.45,0,0,0,21,5.07L18.24.37h0v0a.63.63,0,0,0-.09-.09l0,0a2,2,0,0,0-2,.11H13.68a.45.45,0,0,0-.38.2l-1.06,1.6a.46.46,0,0,0,0,.5l.4.63h-.81a.46.46,0,0,0-.31.12l-.82.75H9.31a.46.46,0,0,0-.41.26L8.18,5.92a.46.46,0,0,0,0,.45L9.28,7.92l.1.38A.45.45,0,0,0,8.79,9l1.67,2.28a.46.46,0,0,0,.3.18l1.36.2.11.16a2.05,2.05,0,0,1,.17.58.45.45,0,0,0-.25.2l-.66,1.14a.46.46,0,0,0,0,.43l.17.35,0,0s0,0,0,0l.14.28a.45.45,0,0,0,.13.16l.63.48-.05.1a.46.46,0,0,0,.12.5l.72.65a.45.45,0,0,0,.3.12h1.57l.78.7a22.35,22.35,0,0,0-4.07,13.32c0,9.53,5.95,18.89,12,18.89,3.21,0,6.19-2.47,8.19-6.78v0a.42.42,0,0,0,0-.06.43.43,0,0,0,0-.09.42.42,0,0,0,0-.08.43.43,0,0,0,0-.09l0-.07L32,42.42,32,42.36l-.05,0h0l-2.86-1L28,39.7a.46.46,0,0,0-.15-.15c-5.2-3.35-4.43-9.16-4-11l.48.32a16.15,16.15,0,0,0,.34,4.38l-.41.5a.46.46,0,0,0,.16.7l.66.31a12,12,0,0,0,2,3.67.46.46,0,0,0,.71-.57,10.58,10.58,0,0,1-1.49-2.55l1.64.76,2.44,3.77a.46.46,0,0,0,.33.21l3.72.42h.05a.46.46,0,0,0,.38-.21l0-.07.22.09A1.55,1.55,0,0,0,34.56,42a.44.44,0,0,0,0,.12L28.89,79.24a1,1,0,0,0-1,.9c0,.51.55.92,1.23.92s1.23-.41,1.23-.92a.87.87,0,0,0-.5-.73l7.08-36.54a1.59,1.59,0,0,0,.39-.34l2.17.92a.44.44,0,0,0,0,.08l30.14,61.6a.46.46,0,1,0,.82-.4L40.7,44l4.17,1.78,7,6a.46.46,0,0,0,.3.11h0a2.05,2.05,0,0,0,1.69-.8,2.31,2.31,0,0,0,.2-1.85.46.46,0,0,0-.14-.21l-1.52-1.29,1.43-.37a.46.46,0,1,0-.23-.88l-1,.26.7-1.76a.46.46,0,0,0-.48-.62c-1.2.15-3.19.39-3.41.4a.45.45,0,0,0-.34.17L46.84,43a1.12,1.12,0,0,1-.55-.38L42.63,42l-2.76-3,5.29-2.44,55.24-6.66a.46.46,0,0,0-.11-.91M18.7,2.95l1.43,2.43c-.09.35-.51,1.35-2.26,1.7L16.24,4.54A3.4,3.4,0,0,0,17.67,4a3.51,3.51,0,0,0,1-1M16.9,2.72A4.09,4.09,0,0,0,18,1.7l0,.08a.45.45,0,0,0,.06.14c0,.06,0,.23-.09.45a2.54,2.54,0,0,1-.82.84c-.76.51-1.43.51-1.54.34l0,0-.13-.21a4,4,0,0,0,1.43-.61M33.47,23.84l-1,1.16H30.28a13.81,13.81,0,0,0,1-1.18h2.15Zm-1.26-.92h0ZM20.58,14.82l.09,0a6.47,6.47,0,0,1,2.52-.53c3.2,0,6.43,2.92,8.41,7.53h-.91a.46.46,0,0,0-.43.59c0,.14.09.3.12.44-.79-.06-2.26,0-3.52,0l-1-.49a.46.46,0,0,0-.2,0H24.24a.45.45,0,0,0-.07-.35l-4.7-6.56a8,8,0,0,1,1.11-.59m1.68,9.73a3.43,3.43,0,0,0,1.51-1.33h1.47a.44.44,0,0,0,.09.1l.46.32-.78.77,0,0L24,25.65H22.35l-.1-.25v-.85m-3.53-8.62,4.54,6.34c-.23.44-.81,1.37-1.54,1.48L16.05,19a12.45,12.45,0,0,1,2.67-3M25.65,25l.88-.87,2.07,1.46H25.19Zm1.83-1.31c1.11,0,2.23-.06,2.75,0a5.44,5.44,0,0,1-1.16,1.12l0,0ZM14.35,9.58v0l0,0h0M25.71,39l-1.77.78L23.34,39l1.15-1.46A9.64,9.64,0,0,0,25.71,39M24,36.7l-1.58,2a.46.46,0,0,0,0,.56l1,1.33a.46.46,0,0,0,.55.14l2.48-1.1c.26.21.54.42.84.61l1,1.71a.45.45,0,0,0,.25.2l2.53.84c-1.83,3.69-4.41,5.79-7.13,5.79-5,0-11.1-8-11.1-18a22.74,22.74,0,0,1,2.72-11.07l5.71,4.83.07,0v.87a.46.46,0,0,0,0,.16l.57,1.48a.45.45,0,0,0,.17.21l.94.63A12.92,12.92,0,0,0,24,36.7m1.25-7.26,1.56,1,.09,0-1.44,1.76a16.06,16.06,0,0,1-.21-2.85m.63,4.65c-.06-.22-.12-.43-.18-.64l1.76-2.16.28,3.67Zm1.49-4.53a.43.43,0,0,0,0,.09h-.16l-3.13-2.09-1.31-.89,0-.11h5.65Zm2.17-3.64h2.61l-.89,3.72h-3Zm-1.22,4.64h2.88l.4,4.68H28.66ZM31,39.13l-1.94-3h2.59a.46.46,0,0,0,.06.18l1.87,3.11Zm2.07,18.54,2.24-14.76a1.57,1.57,0,0,0,.58.17Zm9.4-29.39a1,1,0,0,0,1.63-1.21l1.73.72-5,3.17-.05-.8a.46.46,0,0,0,0-.14l-.44-1.13ZM40,23.06l1,1.75-1.78-.74Zm12.16,22.3L51.51,47l-1.62-1.37,2.27-.27m-6-1.8h0a.45.45,0,0,0,.12.18l7,5.89a1.3,1.3,0,0,1-.12.94,1.09,1.09,0,0,1-.81.39l-6.84-5.9-1.79-2Zm-2.74.59-4-1.71,2.81.38Zm-2.17-2.38-3.59-.49a1.58,1.58,0,0,0-.49-.91l1.34-.78.54-.25Zm-1.7-15-.74-1.89,3.06,1.27.55.92h0l-2.86-.3m.38,1,1,.1L40,28ZM41,35.06l1.43.4L40.24,37Zm3.87.54-.26,0a.45.45,0,0,0-.34.25L41.87,37l1.38-1a.79.79,0,0,0,.27.05.8.8,0,1,0,0-1.6.79.79,0,0,0-.5.18l-1.93-.55-.13-2L46.16,35Z" transform="translate(0 0)"/><path class="cls-9" d="M48.69,47.27a.41.41,0,1,0-.41-.41.41.41,0,0,0,.41.41" transform="translate(0 0)"/><path class="cls-9" d="M49.68,48.1a.41.41,0,1,0-.41-.41.41.41,0,0,0,.41.41" transform="translate(0 0)"/><path class="cls-9" d="M52.64,52.63a.46.46,0,0,0,0,.91h0a3.28,3.28,0,0,0,2.42-1.18,3.78,3.78,0,0,0,.65-2.68.46.46,0,0,0-.9.14,2.91,2.91,0,0,1-.47,2,2.41,2.41,0,0,1-1.78.83" transform="translate(0 0)"/><path class="cls-9" d="M7.68,33.36a.48.48,0,0,1-.35-.15,3.06,3.06,0,0,1-.86-1.64A1.82,1.82,0,0,1,7,30a.48.48,0,1,1,.68.69.89.89,0,0,0-.19.77A2.11,2.11,0,0,0,8,32.54a.48.48,0,0,1-.35.82" transform="translate(0 0)"/><path class="cls-9" d="M4.46,33a.48.48,0,0,1-.35-.15,3.35,3.35,0,0,1-.94-1.8,2,2,0,0,1,.51-1.74.48.48,0,1,1,.68.69,1,1,0,0,0-.23.9,2.41,2.41,0,0,0,.68,1.27.48.48,0,0,1-.35.82" transform="translate(0 0)"/><path class="cls-9" d="M1.56,33.06a.48.48,0,0,1-.35-.15C-.15,31.51-.4,29.53.65,28.5a.48.48,0,1,1,.68.69c-.66.65-.4,2,.58,3a.48.48,0,0,1-.35.82" transform="translate(0 0)"/></g></g></g></g></g></g></svg>