<svg xmlns="http://www.w3.org/2000/svg" xmlns:xlink="http://www.w3.org/1999/xlink" viewBox="0 0 221.96 232.08"><defs><style>.cls-1{fill:none;}.cls-2{clip-path:url(#clip-path);}.cls-3{fill:#dceaec;}.cls-4{opacity:0.5;}.cls-5{clip-path:url(#clip-path-4);}.cls-6{fill:#a2b9ba;}.cls-7{clip-path:url(#clip-path-5);}.cls-8{fill:#fff;}.cls-9{fill:#782a4b;}.cls-10{fill:#f0a040;}</style><clipPath id="clip-path" transform="translate(0 0)"><rect class="cls-1" width="221.96" height="232.08"/></clipPath><clipPath id="clip-path-4" transform="translate(0 0)"><rect class="cls-1" x="151.2" y="31.42" width="19.08" height="19.38"/></clipPath><clipPath id="clip-path-5" transform="translate(0 0)"><rect class="cls-1" x="153.36" y="86.49" width="27.29" height="20.94"/></clipPath></defs><title>Voyager</title><g id="Layer_2" data-name="Layer 2"><g id="Layer_1-2" data-name="Layer 1"><g id="Voyager"><g class="cls-2"><g class="cls-2"><g class="cls-2"><path class="cls-3" d="M150.64,49.57c4.34-11.49,12.16-19.2,20.27-19.2,12.2,0,23.77,15.93,23.77,37.5s-13.24,40.59-25.44,40.59c-6.9,0-13.07-5.59-17.12-14.35l-2-6.46-5.2-.58,4.43-30.87-3.21-4.54,5,.11Z" transform="translate(0 0)"/><g class="cls-4"><g class="cls-5"><path class="cls-6" d="M151.2,50.81c4-11.18,11.35-18.87,19.08-19.38a54,54,0,0,0-11.48,19.3c-2.54,0-5.07.05-7.61.08" transform="translate(0 0)"/></g></g><g class="cls-4"><g class="cls-7"><path class="cls-6" d="M158.23,92.38c2.24-1.73,3.22-4.27,5.34-5.9C170.86,98,180.58,102,180.64,102c-3.61,3.42-7.6,5.43-11.49,5.43-6.45,0-11.88-5-15.8-13a11.57,11.57,0,0,0,4.87-2" transform="translate(0 0)"/></g></g><polygon class="cls-8" points="152.89 51.44 146.17 51.66 146.17 87.99 154.11 87.54 159.43 78.93 160.87 66.06 157.99 56.54 152.89 51.44"/><path class="cls-9" d="M173.95,48.86l8.57-8.57a1,1,0,0,1,1.42,1.42l-8.57,8.57a1,1,0,0,1-1.42-1.42" transform="translate(0 0)"/><path class="cls-10" d="M154.29,81.37a2.09,2.09,0,1,1-2.44.78,1.84,1.84,0,0,1,2.44-.78" transform="translate(0 0)"/><path class="cls-9" d="M0,64.57a1,1,0,0,0,.88,1.12L122.52,80.35l11.64,5.37-6.08,6.68-8,1.53a2.48,2.48,0,0,1-1.21.83l-4.9,4.15a1,1,0,0,0-.76-.37c-.48,0-4.85-.54-7.51-.87A1,1,0,0,0,104.61,99l1.53,3.87-2.17-.57a1,1,0,1,0-.51,1.94l3.15.82-3.35,2.84a1,1,0,0,0-.31.46,5.09,5.09,0,0,0,.45,4.06,4.53,4.53,0,0,0,3.72,1.77h.05a1,1,0,0,0,.65-.24l15.32-13.21,9.19-3.91L66.89,230.64a1,1,0,0,0,.46,1.34,1,1,0,0,0,.44.1,1,1,0,0,0,.9-.56L135.07,95.87a1,1,0,0,0,0-.17l4.78-2a3.5,3.5,0,0,0,.85.74l15.59,80.46a1.91,1.91,0,0,0-1.1,1.62c0,1.11,1.21,2,2.7,2s2.7-.9,2.7-2a2.31,2.31,0,0,0-2.29-2L146,92.83a1,1,0,0,0-.1-.27,3.44,3.44,0,0,0,.21-1.13,3.48,3.48,0,0,0-1.41-2.79l.49-.21a1,1,0,0,0,.07.16,1,1,0,0,0,.85.46h.11l8.19-.93a1,1,0,0,0,.73-.45l5.37-8.29,3.6-1.67a23.3,23.3,0,0,1-3.27,5.61,1,1,0,1,0,1.57,1.25,26.33,26.33,0,0,0,4.32-8.08l1.46-.68a1,1,0,0,0,.36-1.54l-.9-1.11a35.55,35.55,0,0,0,.75-9.65l1.06-.71c.9,4.14,2.59,16.92-8.85,24.3a1,1,0,0,0-.32.33l-2.15,3.64-6.3,2.1,0,0h-.06a1,1,0,0,0-.12.09,1,1,0,0,0-.16.11,1,1,0,0,0-.12.16,1,1,0,0,0-.1.16,1,1,0,0,0-.05.19.93.93,0,0,0,0,.18,1,1,0,0,0,0,.2.93.93,0,0,0,0,.14l0,.06s0,0,0,0c4.39,9.49,11,14.93,18,14.93,13.35,0,26.45-20.6,26.45-41.6,0-11.62-3.52-22.21-9-29.34L188.45,37h3.47a1,1,0,0,0,.67-.26l1.59-1.42a1,1,0,0,0,.15-1.33l1.38-1.05a1,1,0,0,0,.29-.35l.31-.62c.12.07.14.11.05,0l0,0,.38-.76a1,1,0,0,0,0-.95l-1.46-2.51a1,1,0,0,0-.55-.44A4.52,4.52,0,0,1,195,26l.24-.36,3-.44a1,1,0,0,0,.66-.4l3.68-5a1,1,0,0,0-1.3-1.47l.22-.84L203.88,14a1,1,0,0,0,.08-1l-1.59-3.35a1,1,0,0,0-.91-.57h-3l-1.8-1.66a1,1,0,0,0-.68-.27h-1.78L195,5.8a1,1,0,0,0,0-1.09l-2.34-3.52a1,1,0,0,0-.83-.45h-5.31c-1.85-.89-3.61-1-4.45-.24L182,.56a1.5,1.5,0,0,0-.2.2l0,0h0l-6.07,10.35a1,1,0,0,0-.13.6c0,.2.53,4.94,7.39,5.93h.14a1,1,0,0,0,.85-.47L190.68,6.7l0,0c.63-.95,0-2.51-1.34-3.93h1.94L193,5.28l-1.5,2.38a1,1,0,0,0,.85,1.54h3.21l1.8,1.66a1,1,0,0,0,.22.14c-.61.39-1.21.75-1.79,1.1l-2,0a1,1,0,0,0-.85.49c-2.18,3.68-3.51,5.94-4.29,7.39l-1.21-.8v-.47a1,1,0,0,0-.48-.86l-1-.6a1,1,0,1,0-1,1.71l.5.31v.44a1,1,0,0,0,.45.84l1.87,1.25c-.26.66-.16.84,0,1.09a1,1,0,0,0,.47.42L187,25.18h-1.08a1,1,0,0,0-.75.33L182.89,28l-.39.16h-4a1,1,0,0,0-.84.45l-1.18,1.78a15.82,15.82,0,0,0-5.62-1.06c-8.16,0-16.31,7.5-20.92,19.15l0,.06s0,0,0,.07c-.07.19-.16.37-.23.57a1,1,0,0,0,.57,1.28h-3.73l-.8-1a1,1,0,0,0-1.17-.29l-7.16,3-2.81-3.84a1,1,0,0,0-.86-.41,1,1,0,0,0-.81.49l-4.45,7.48-8.83,3.67a1.61,1.61,0,0,0-.79-.21,1.63,1.63,0,1,0,.54,3.17l10.69,6.82-11,6.17a1.63,1.63,0,0,0-2.5,2.08L1.13,63.69A1,1,0,0,0,0,64.57m183-55.81A7.48,7.48,0,0,0,186.2,10l-3.56,5.59c-3.87-.76-4.78-3-5-3.74l3.14-5.36a7.72,7.72,0,0,0,2.25,2.26m4.85-1.42-.3.46,0,0c-.25.37-1.73.37-3.4-.75a5.59,5.59,0,0,1-1.8-1.86c-.26-.49-.29-.85-.19-1a1,1,0,0,0,.12-.3l.11-.18A9,9,0,0,0,184.75,6a8.83,8.83,0,0,0,3.15,1.35M152.75,52.51a1,1,0,0,0,.26,0,30.24,30.24,0,0,0,2.28,2.59H150.5l-2.23-2.56Zm-1.7-2h0ZM179.1,33.93,168.75,48.37a1,1,0,0,0-.17.77h-3a1,1,0,0,0-.43.1l-2.28,1.08c-2.79-.13-6-.23-7.76-.1.06-.3.15-.65.25-1a1,1,0,0,0-1-1.31h-2c4.37-10.13,11.49-16.57,18.53-16.57a14.24,14.24,0,0,1,5.55,1.16,1,1,0,0,0,.2.09,17.62,17.62,0,0,1,2.44,1.3M173,54.1v1.82l-.21.55h-3.69l-2-2.6-.09-.1-1.72-1.7,1-.71a1,1,0,0,0,.2-.21h3.23A7.56,7.56,0,0,0,173,54.06s0,0,0,0m13.66-12.35L174.13,52.32c-1.62-.26-2.88-2.31-3.39-3.27l10-14a27.39,27.39,0,0,1,5.88,6.66M166.5,56.47H159l4.56-3.22,1.93,1.91ZM158,54.71l-.06,0a12,12,0,0,1-2.56-2.46c1.15-.06,3.62,0,6.06.08Zm32.31-33.61,0-.08s0,0,0,.07h0M168,82.64l2.52,3.23-1.3,1.69-3.89-1.72A21.14,21.14,0,0,0,168,82.64m3.16-21,2.08-1.39a1,1,0,0,0,.37-.47l1.26-3.26a1,1,0,0,0,.07-.36V54.2a1,1,0,0,0,.15-.09l12.56-10.63a50.06,50.06,0,0,1,6,24.39c0,21.93-13.37,39.59-24.44,39.59-6,0-11.68-4.64-15.71-12.76l5.57-1.86a1,1,0,0,0,.55-.44l2.22-3.76c.66-.43,1.26-.89,1.84-1.35l5.46,2.42a1,1,0,0,0,1.2-.3l2.26-2.93a1,1,0,0,0,0-1.23l-3.47-4.44c4.27-7.88,2.65-16.69,2-19.21m-5.27,9.5-3.16-3.88a1,1,0,0,0,.2-.1l3.43-2.3a35.27,35.27,0,0,1-.47,6.28m-5,5.86.62-8.09,3.88,4.77c-.12.47-.25.94-.39,1.42Zm-1.37-18.47H172l-.09.24-2.88,2-6.9,4.6h-.35a.93.93,0,0,0,0-.19Zm.14,6.79h-6.52l-2-8.2H157Zm-.83,12.3h-6.44l.88-10.29h6.34ZM148,86.82,152.1,80a1,1,0,0,0,.13-.39h5.7l-4.26,6.59Zm-5.08,8.07a3.47,3.47,0,0,0,1.29-.38L149.11,127Zm-9.78-31.26-1,2.49a1,1,0,0,0-.07.3L132,68.18l-10.95-7,3.81-1.58a2.25,2.25,0,0,0,3.6,2.67ZM135.5,53l-3.93,1.63,2.3-3.85Zm-23.4,47.47-3.57,3-1.43-3.61c1.6.2,3.72.45,5,.59m13.75-5.58-3.94,4.33-15.07,13a2.4,2.4,0,0,1-1.78-.86,2.86,2.86,0,0,1-.26-2.06l15.32-13a1,1,0,0,0,.27-.39h0Zm3.27-.61,6.2-.84-8.86,3.78Zm7-7.66,1.18.54,2.94,1.71a3.48,3.48,0,0,0-1.07,2L131.22,92Zm-7.42-27.07h0l1.2-2,6.73-2.8L135,58.88l-6.31.66m5.19,2.21L132,61.22l2.15-.22Zm-.49,19.8-4.92-3.46,3.15-.89Zm-13-4.43,11.48-6.41-.3,4.44-4.25,1.2a1.76,1.76,0,1,0-.51,3l3,2.13L124.41,79a1,1,0,0,0-.76-.55l-.58-.07Z" transform="translate(0 0)"/><path class="cls-9" d="M114.75,104.1a.91.91,0,1,1,.91-.91.91.91,0,0,1-.91.91" transform="translate(0 0)"/><path class="cls-9" d="M112.57,105.91a.91.91,0,1,1,.91-.91.91.91,0,0,1-.91.91" transform="translate(0 0)"/><path class="cls-9" d="M106.05,115.9a1,1,0,0,1-.09,2h-.09a7.22,7.22,0,0,1-5.33-2.59,8.33,8.33,0,0,1-1.43-5.9,1,1,0,0,1,2,.31,6.4,6.4,0,0,0,1,4.35,5.32,5.32,0,0,0,3.92,1.82" transform="translate(0 0)"/><path class="cls-9" d="M205,73.46a1.06,1.06,0,0,0,.76-.32,6.73,6.73,0,0,0,1.89-3.61,4,4,0,0,0-1-3.54,1.06,1.06,0,1,0-1.49,1.52,2,2,0,0,1,.42,1.69,4.65,4.65,0,0,1-1.31,2.44,1.07,1.07,0,0,0,.76,1.81" transform="translate(0 0)"/><path class="cls-9" d="M212.13,72.76a1.06,1.06,0,0,0,.76-.32,7.38,7.38,0,0,0,2.07-4,4.29,4.29,0,0,0-1.12-3.84,1.07,1.07,0,1,0-1.49,1.52,2.3,2.3,0,0,1,.51,2A5.3,5.3,0,0,1,211.37,71a1.07,1.07,0,0,0,.76,1.81" transform="translate(0 0)"/><path class="cls-9" d="M218.52,72.79a1.06,1.06,0,0,0,.76-.32c3-3.08,3.57-7.44,1.24-9.72A1.07,1.07,0,1,0,219,64.28c1.46,1.43.88,4.5-1.28,6.7a1.07,1.07,0,0,0,.76,1.81" transform="translate(0 0)"/></g></g></g></g></g></g></svg>