<svg xmlns="http://www.w3.org/2000/svg" xmlns:xlink="http://www.w3.org/1999/xlink" viewBox="0 0 221.96 232.08"><defs><style>.cls-1{fill:none;}.cls-2{clip-path:url(#clip-path);}.cls-3{fill:#dceaec;}.cls-4{opacity:0.5;}.cls-5{clip-path:url(#clip-path-4);}.cls-6{fill:#a2b9ba;}.cls-7{clip-path:url(#clip-path-5);}.cls-8{fill:#fff;}.cls-9{fill:#782a4b;}.cls-10{fill:#f0a040;}</style><clipPath id="clip-path" transform="translate(0 0)"><rect class="cls-1" width="221.96" height="232.08"/></clipPath><clipPath id="clip-path-4" transform="translate(0 0)"><rect class="cls-1" x="51.68" y="31.42" width="19.09" height="19.38"/></clipPath><clipPath id="clip-path-5" transform="translate(0 0)"><rect class="cls-1" x="41.32" y="86.49" width="27.29" height="20.94"/></clipPath></defs><title>Voyager</title><g id="Layer_2" data-name="Layer 2"><g id="Layer_1-2" data-name="Layer 1"><g id="Voyager"><g class="cls-2"><g class="cls-2"><g class="cls-2"><path class="cls-3" d="M71.32,49.57C67,38.08,59.16,30.37,51.06,30.37c-12.2,0-23.77,15.93-23.77,37.5s13.24,40.59,25.44,40.59c6.9,0,13.06-5.59,17.12-14.35l2-6.46,5.2-.58L72.58,56.2l3.21-4.54-5,.11Z" transform="translate(0 0)"/><g class="cls-4"><g class="cls-5"><path class="cls-6" d="M70.76,50.81c-4-11.18-11.35-18.87-19.08-19.38a54,54,0,0,1,11.47,19.3c2.54,0,5.07.05,7.61.08" transform="translate(0 0)"/></g></g><g class="cls-4"><g class="cls-7"><path class="cls-6" d="M63.73,92.38c-2.24-1.73-3.23-4.27-5.34-5.9C51.1,98,41.39,102,41.32,102c3.61,3.42,7.6,5.43,11.49,5.43,6.45,0,11.88-5,15.8-13a11.57,11.57,0,0,1-4.87-2" transform="translate(0 0)"/></g></g><polygon class="cls-8" points="69.07 51.44 75.79 51.66 75.79 87.99 67.85 87.54 62.53 78.93 61.1 66.06 63.98 56.54 69.07 51.44"/><path class="cls-9" d="M48,48.86l-8.57-8.57A1,1,0,0,0,38,41.71l8.57,8.57A1,1,0,0,0,48,48.86" transform="translate(0 0)"/><path class="cls-10" d="M67.68,81.37a2.09,2.09,0,1,0,2.43.78,1.84,1.84,0,0,0-2.43-.78" transform="translate(0 0)"/><path class="cls-9" d="M220.84,63.69,105.43,77.6a1.62,1.62,0,0,0,.32-1,1.63,1.63,0,0,0-2.82-1.11l-11-6.17,10.69-6.82a1.6,1.6,0,0,0,.54.1,1.63,1.63,0,1,0-.79-3.05l-8.83-3.67L89,48.44a1,1,0,0,0-.81-.49,1,1,0,0,0-.86.41L84.55,52.2l-7.16-3a1,1,0,0,0-1.17.29l-.8,1H71.69a1,1,0,0,0,.57-1.28c-.07-.19-.15-.37-.23-.57,0,0,0,0,0-.07l0-.07C67.37,36.86,59.22,29.37,51.06,29.37a15.82,15.82,0,0,0-5.62,1.06l-1.18-1.78a1,1,0,0,0-.84-.45h-4L39.08,28l-2.26-2.52a1,1,0,0,0-.75-.33H35l-1.18-1.86a1,1,0,0,0,.47-.41c.14-.24.23-.42,0-1.09l1.87-1.25a1,1,0,0,0,.45-.84V19.3l.5-.31a1,1,0,1,0-1-1.71l-1,.6a1,1,0,0,0-.48.86v.47l-1.21.8c-.79-1.45-2.11-3.72-4.29-7.39a1,1,0,0,0-.85-.49l-2,0c-.58-.35-1.18-.7-1.79-1.1a1,1,0,0,0,.22-.14l1.8-1.66h3.21a1,1,0,0,0,.85-1.54L29,5.28l1.68-2.53h1.94c-1.38,1.41-2,3-1.34,3.93l0,0L38,17.23a1,1,0,0,0,.85.47H39c6.86-1,7.37-5.72,7.39-5.93a1,1,0,0,0-.13-.6L40.16.81h0l0,0a1.39,1.39,0,0,0-.2-.2L39.89.5c-.84-.76-2.6-.64-4.45.24H30.13a1,1,0,0,0-.83.45L27,4.71a1,1,0,0,0,0,1.09l.87,1.39H26a1,1,0,0,0-.68.27l-1.8,1.66h-3a1,1,0,0,0-.91.57L18,13a1,1,0,0,0,.08,1l2.35,3.41.22.84a1,1,0,0,0-1.3,1.46l3.68,5a1,1,0,0,0,.66.4l3,.44.24.36a4.52,4.52,0,0,1,.37,1.28,1,1,0,0,0-.55.44L25.29,30.2a1,1,0,0,0,0,.95l.38.76,0,0c-.09.11-.07.07.05,0l.31.63a1,1,0,0,0,.29.35L27.64,34a1,1,0,0,0-.12.22,1,1,0,0,0,.27,1.11l1.59,1.42A1,1,0,0,0,30,37h3.47l1.72,1.55c-5.43,7.13-9,17.72-9,29.34,0,21,13.1,41.6,26.45,41.6,7.07,0,13.64-5.44,18-14.93,0,0,0,0,0,0l0-.06a.93.93,0,0,0,0-.14,1,1,0,0,0,0-.2.93.93,0,0,0,0-.18,1.14,1.14,0,0,0-.27-.5,21.67,21.67,0,0,0-.28-.2h-.06l0,0-6.3-2.1-2.15-3.63a1,1,0,0,0-.32-.33C50,79.71,51.64,66.92,52.55,62.79l1.06.71a35.56,35.56,0,0,0,.76,9.65l-.9,1.11a1,1,0,0,0,.36,1.54l1.46.68a26.32,26.32,0,0,0,4.32,8.08,1,1,0,0,0,1.57-1.25A23.31,23.31,0,0,1,57.9,77.7l3.6,1.67,5.37,8.29a1,1,0,0,0,.73.45l8.19.93h.11a1,1,0,0,0,.85-.46.93.93,0,0,0,.07-.16l.49.2a3.41,3.41,0,0,0-1.21,3.92,1,1,0,0,0-.1.27l-12.4,81.66a2.31,2.31,0,0,0-2.28,2c0,1.11,1.21,2,2.7,2s2.7-.9,2.7-2a1.91,1.91,0,0,0-1.1-1.62L81.22,94.4a3.5,3.5,0,0,0,.85-.74l4.78,2a1,1,0,0,0,0,.17l66.38,135.65a1,1,0,1,0,1.8-.88L89.62,96.87l9.19,3.92L114.14,114a1,1,0,0,0,.65.24h.05a4.52,4.52,0,0,0,3.72-1.77,5.09,5.09,0,0,0,.45-4.07,1,1,0,0,0-.31-.46l-3.35-2.84,3.15-.82a1,1,0,1,0-.51-1.94l-2.17.57L117.36,99a1,1,0,0,0-1.06-1.37c-2.65.33-7,.86-7.5.87a1,1,0,0,0-.76.37l-4.9-4.15a2.47,2.47,0,0,1-1.21-.83l-8-1.53L87.8,85.72l11.64-5.37L221.08,65.69a1,1,0,0,0-.24-2M41.17,6.49l3.14,5.36c-.2.78-1.12,3-5,3.74L35.77,10a7.49,7.49,0,0,0,3.15-1.25,7.73,7.73,0,0,0,2.25-2.26m-4-.51a9,9,0,0,0,2.35-2.23l.11.18a1,1,0,0,0,.12.3c.09.14.07.5-.19,1a5.59,5.59,0,0,1-1.8,1.86c-1.67,1.12-3.15,1.12-3.4.75l0,0-.3-.46A8.82,8.82,0,0,0,37.22,6M73.69,52.51l-2.23,2.56H66.68A30.4,30.4,0,0,0,69,52.47a1,1,0,0,0,.26,0Zm-2.76-2h0ZM45.31,32.63a1,1,0,0,0,.2-.09,14.24,14.24,0,0,1,5.55-1.16c7,0,14.16,6.44,18.53,16.57h-2a1,1,0,0,0-1,1.31c.1.32.19.67.25,1-1.74-.13-5,0-7.76.1l-2.28-1.09a1,1,0,0,0-.43-.1h-3a1,1,0,0,0-.17-.77L42.86,33.93a17.62,17.62,0,0,1,2.44-1.3M49,54.06a7.56,7.56,0,0,0,3.32-2.93h3.23a1,1,0,0,0,.2.21l1,.71L55,53.77l-.08.1-2,2.6H49.22L49,55.92V54.1s0,0,0,0m-7.77-19,10,14c-.51,1-1.77,3-3.39,3.27L35.34,41.75a27.42,27.42,0,0,1,5.88-6.66M56.49,55.16l1.93-1.91L63,56.47H55.46Zm4-2.88c2.44-.09,4.91-.13,6.06-.08A12,12,0,0,1,64,54.66l-.06,0ZM31.6,21.08s0,0,0-.07l0,.08h0m25,64.75-3.9,1.72-1.3-1.69,2.52-3.23a21.24,21.24,0,0,0,2.68,3.19m-3.79-5-3.47,4.44a1,1,0,0,0,0,1.23l2.26,2.93a1,1,0,0,0,1.2.31l5.46-2.42c.58.47,1.18.92,1.84,1.35l2.22,3.76a1,1,0,0,0,.55.44l5.57,1.86c-4,8.12-9.71,12.76-15.71,12.76-11.07,0-24.44-17.66-24.44-39.59a50.06,50.06,0,0,1,6-24.39L46.85,54.11a1,1,0,0,0,.15.08v1.91a1,1,0,0,0,.07.36l1.26,3.26a1,1,0,0,0,.37.47l2.08,1.4c-.6,2.51-2.23,11.33,2,19.21m2.75-16L59,67.11a1,1,0,0,0,.2.1L56,71.09a35.36,35.36,0,0,1-.47-6.28M57,75c-.14-.48-.27-.95-.39-1.42l3.88-4.76L61.06,77Zm3.28-10a1,1,0,0,0,0,.19h-.35L53,60.68l-2.88-2L50,58.48H62.43Zm4.78-8h5.74l-2,8.2H62.28ZM62.33,67.28h6.34l.88,10.29H63.12Zm6,18.89L64,79.59h5.7a1,1,0,0,0,.13.39L74,86.82ZM72.85,127l4.93-32.49a3.46,3.46,0,0,0,1.29.38ZM93.55,62.28a2.25,2.25,0,0,0,3.6-2.67L101,61.19,90,68.18l-.12-1.76a1,1,0,0,0-.07-.3l-1-2.49ZM88.09,50.77l2.3,3.85L86.46,53Zm26.78,49.1-1.43,3.61-3.57-3c1.28-.13,3.4-.39,5-.59m-13.32-4h0a1,1,0,0,0,.27.39l15.32,13a2.86,2.86,0,0,1-.26,2.06,2.4,2.4,0,0,1-1.78.86l-15.07-13-3.94-4.33Zm-6,1.29-8.86-3.77,6.2.84ZM90.75,92l-7.91-1.07a3.47,3.47,0,0,0-1.08-2l2.94-1.72,1.18-.54ZM87,58.88l-1.62-4.16,6.73,2.8,1.2,2h0L87,58.88M87.82,61l2.15.22-1.86.54Zm2.55,16.21,3.15.89-4.92,3.46Zm8.51,1.19-.58.07a1,1,0,0,0-.76.55l-5.34,2.47,3-2.13a1.74,1.74,0,0,0,.6.11,1.76,1.76,0,1,0,0-3.51,1.74,1.74,0,0,0-1.11.4l-4.25-1.2-.3-4.44,11.48,6.41Z" transform="translate(0 0)"/><path class="cls-9" d="M107.21,104.1a.91.91,0,1,0-.91-.91.91.91,0,0,0,.91.91" transform="translate(0 0)"/><path class="cls-9" d="M109.39,105.91a.91.91,0,1,0-.91-.91.91.91,0,0,0,.91.91" transform="translate(0 0)"/><path class="cls-9" d="M115.91,115.9a1,1,0,0,0,.08,2h.09a7.22,7.22,0,0,0,5.33-2.59,8.33,8.33,0,0,0,1.43-5.9,1,1,0,0,0-2,.31,6.4,6.4,0,0,1-1,4.35,5.32,5.32,0,0,1-3.92,1.82" transform="translate(0 0)"/><path class="cls-9" d="M16.91,73.46a1.06,1.06,0,0,1-.76-.32,6.73,6.73,0,0,1-1.89-3.61,4,4,0,0,1,1-3.54,1.06,1.06,0,1,1,1.49,1.52,2,2,0,0,0-.42,1.69,4.65,4.65,0,0,0,1.31,2.44,1.07,1.07,0,0,1-.76,1.81" transform="translate(0 0)"/><path class="cls-9" d="M9.83,72.76a1.06,1.06,0,0,1-.76-.32,7.38,7.38,0,0,1-2.07-4,4.29,4.29,0,0,1,1.12-3.84,1.07,1.07,0,1,1,1.49,1.52,2.3,2.3,0,0,0-.51,2A5.3,5.3,0,0,0,10.59,71a1.07,1.07,0,0,1-.76,1.81" transform="translate(0 0)"/><path class="cls-9" d="M3.44,72.79a1.06,1.06,0,0,1-.76-.32c-3-3.08-3.57-7.44-1.24-9.72a1.07,1.07,0,1,1,1.49,1.52C1.47,65.71,2,68.78,4.2,71a1.07,1.07,0,0,1-.76,1.81" transform="translate(0 0)"/></g></g></g></g></g></g></svg>