<?xml version="1.0" encoding="utf-8"?>
<!-- Generator: Adobe Illustrator 16.0.3, SVG Export Plug-In . SVG Version: 6.00 Build 0)  -->
<!DOCTYPE svg PUBLIC "-//W3C//DTD SVG 1.1//EN" "http://www.w3.org/Graphics/SVG/1.1/DTD/svg11.dtd">
<svg version="1.1" id="Layer_1" xmlns="http://www.w3.org/2000/svg" xmlns:xlink="http://www.w3.org/1999/xlink" x="0px" y="0px"
	 width="625px" height="32.363px" viewBox="-172.653 0 625 32.363" enable-background="new -172.653 0 625 32.363"
	 xml:space="preserve">
<g>
	<path d="M-146.327,17.481l-0.658-0.66v-2.907c0.435-0.431,0.656-0.65,0.665-0.66l0.028,0.028c0.396,0.4,0.599,0.603,0.608,0.603
		l0.014,0.014v2.925C-145.8,16.954-146.019,17.173-146.327,17.481z M-146.986,20.557v-2.111l0.658-0.643
		c0.42,0.418,0.641,0.637,0.658,0.656v2.078l-0.662,0.66L-146.986,20.557z M-142.575,21.374c-0.232,0.223-0.453,0.441-0.658,0.656
		h-2.281l-0.658-0.672l0.644-0.645h2.296C-142.869,21.089-142.651,21.307-142.575,21.374z M-141.763,13.91v2.911l-0.658,0.646v0.014
		l-0.658-0.658v-2.911l0.658-0.658L-141.763,13.91z M-141.791,18.432l0.028,2.125l-0.654,0.658
		c-0.094-0.094-0.315-0.314-0.663-0.664V18.46l0.658-0.656L-141.791,18.432z"/>
	<path d="M-137.913,17.208v0.865l-0.683,0.686l-0.661-0.676V17.2l0.666-0.666L-137.913,17.208z M-138.249,20.573h2.366l0.672,0.658
		l-0.687,0.688h-2.352l-0.672-0.672L-138.249,20.573z M-135.561,17.073h-2.213l-0.686-0.672l0.672-0.671h2.212l0.672,0.671
		L-135.561,17.073z M-135.884,19.553h-1.891l-0.672-0.672l0.658-0.672h1.904l0.672,0.672L-135.884,19.553z M-135.771,20.43v-0.756
		l0.673-0.672l0.671,0.676v0.77l-0.656,0.656L-135.771,20.43z"/>
	<path d="M-129.82,13.844c-0.01,0.01-0.22,0.219-0.63,0.629l-0.027,0.025h-0.912l-0.646-0.658l0.645-0.644h0.912l0.027,0.015
		L-129.82,13.844z M-130.144,18.026V16.46l-0.673-0.671l-0.686,0.671v1.582l0.672,0.672L-130.144,18.026z M-131.502,19.497v1.807
		l0.686,0.672l0.673-0.658v-1.834l-0.673-0.672L-131.502,19.497z"/>
	<path d="M-127.385,15.732h1.218l-1.218,1.232V15.732z M-126.685,19.063l-0.673-0.672v-1.178l0.662-0.689l0.683,0.682v1.188
		L-126.685,19.063z M-126.699,21.919l-0.658-0.672v-1.262l0.673-0.672l0.672,0.672v1.246L-126.699,21.919z M-126.559,16.401
		l0.647-0.671h1.908l0.678,0.671l-0.672,0.672h-1.89L-126.559,16.401z M-123.198,16.53l0.669,0.674v1.188l-0.672,0.672l-0.672-0.67
		v-1.188L-123.198,16.53z M-123.199,19.315l0.672,0.672v1.26l-0.672,0.672l-0.672-0.672v-1.26L-123.199,19.315z"/>
	<path d="M-119.265,18.798l-0.687-0.672v-0.883l0.684-0.686l0.675,0.676v0.879L-119.265,18.798z M-119.281,21.163l-0.672-0.674
		v-0.77l0.687-0.672l0.672,0.672v0.756L-119.281,21.163z M-115.894,21.292l-0.683,0.684h-1.893l-0.683-0.684l0.676-0.676h1.906
		L-115.894,21.292z M-119.139,16.43l0.672-0.671h1.904l0.672,0.671l-0.687,0.672h-1.89L-119.139,16.43z M-115.849,23.766
		l-0.672,0.688h-1.904l-0.687-0.688l0.672-0.672h1.919L-115.849,23.766z M-115.763,16.559l0.669,0.672v0.895l-0.672,0.672
		l-0.672-0.689v-0.887L-115.763,16.559z M-115.765,19.05l0.672,0.668v0.764l-0.67,0.684l-0.674-0.674v-0.77L-115.765,19.05z
		 M-115.765,21.387l0.672,0.672v0.898l-0.675,0.672l-0.668-0.668v-0.891L-115.765,21.387z"/>
	<path d="M-107.436,16.528l0.672,0.672v3.34l-0.669,0.668l-0.689-0.674V17.2L-107.436,16.528z M-107.436,16.417l-0.673-0.673V13.98
		l0.673-0.672l0.672,0.672v1.75L-107.436,16.417z M-104.72,21.315l-0.672,0.672h-1.232l-0.686-0.686l0.672-0.672h1.231
		L-104.72,21.315z M-104.567,16.501l-0.673,0.672h-1.358l-0.688-0.689l0.661-0.654h1.382L-104.567,16.501z"/>
	<path d="M-101.529,13.253l0.672,0.672v1.735l-0.672,0.673l-0.686-0.673v-1.731L-101.529,13.253z M-101.529,19.05l-0.672-0.67
		v-1.117l0.674-0.674l0.669,0.67v1.119L-101.529,19.05z M-101.529,22.003l-0.672-0.678v-1.336l0.672-0.676l0.672,0.676v1.336
		L-101.529,22.003z M-101.407,16.469l0.696-0.697h1.898l0.67,0.669l-0.689,0.689h-1.893L-101.407,16.469z M-98.014,16.569
		l0.672,0.672v1.137l-0.672,0.672l-0.687-0.672v-1.121L-98.014,16.569z M-98.014,19.302l0.672,0.672v1.357l-0.672,0.672
		l-0.687-0.688v-1.33L-98.014,19.302z"/>
	<path d="M-94.119,18.821l-0.675-0.676v-0.877l0.669-0.682l0.675,0.688v0.877L-94.119,18.821z M-94.141,21.186l-0.653-0.668v-0.764
		l0.675-0.676l0.669,0.67v0.75L-94.141,21.186z M-93.996,16.46l0.687-0.671h1.903l0.658,0.671l-0.672,0.686h-1.904L-93.996,16.46z
		 M-90.748,21.331l-0.672,0.672h-1.89l-0.687-0.688l0.658-0.672h1.918L-90.748,21.331z M-93.993,18.946l0.668-0.684h1.899
		l0.668,0.682l-0.683,0.68h-1.879L-93.993,18.946z M-90.629,16.579l0.679,0.674v0.896l-0.672,0.674l-0.672-0.686v-0.883
		L-90.629,16.579z"/>
	<path d="M-83.048,13.904l0.658-0.666h1.26l0.644,0.646c-0.392,0.41-0.61,0.639-0.657,0.686h-1.246L-83.048,13.904z M-80.346,17.438
		c-0.431-0.416-0.649-0.629-0.658-0.637v-2.055l0.666-0.675l0.042,0.041c0.387,0.379,0.581,0.572,0.581,0.582l0.014,0.015
		l0.015,0.014v2.072L-80.346,17.438z M-81.004,21.387v-2.969l0.658-0.658c0.336,0.346,0.555,0.564,0.658,0.658v2.969l-0.658,0.658
		C-80.777,21.614-80.995,21.397-81.004,21.387z M-80.178,13.904l0.678-0.666h1.247l0.637,0.65c-0.383,0.396-0.602,0.623-0.658,0.68
		h-1.245L-80.178,13.904z"/>
	<path d="M-73.668,13.757v2.926l-0.644,0.645h-0.015l-0.658-0.658v-2.897l0.658-0.656L-73.668,13.757z M-73.698,18.278l0.028,2.98
		l-0.658,0.645c-0.224-0.225-0.442-0.438-0.658-0.645v-2.953l0.028-0.027c0.42-0.412,0.63-0.621,0.63-0.631
		C-73.898,18.067-73.687,18.278-73.698,18.278z"/>
	<path d="M-66.346,17.649l-0.672,0.672h-3.347l-0.686-0.686l0.672-0.672h3.36L-66.346,17.649z"/>
	<path d="M-63.406,17.468c-0.224-0.227-0.438-0.439-0.644-0.646v-2.07c0.42-0.42,0.639-0.64,0.658-0.658l0.027,0.043
		c0.393,0.383,0.588,0.578,0.588,0.588l0.015,0.014h0.014v2.086C-62.879,16.954-63.098,17.169-63.406,17.468z M-64.05,20.552v-2.105
		c0.131-0.141,0.345-0.357,0.644-0.656l0.658,0.656v2.105c-0.436,0.43-0.653,0.648-0.653,0.658L-64.05,20.552z M-59.655,21.374
		c-0.429,0.42-0.648,0.635-0.657,0.643h-2.269l-0.672-0.656l0.658-0.645h2.282L-59.655,21.374z M-63.239,13.938
		c0.233-0.231,0.453-0.451,0.658-0.656h2.282l0.644,0.644c-0.392,0.401-0.61,0.627-0.657,0.672h-2.269L-63.239,13.938z
		 M-63.236,17.651c0.418-0.422,0.638-0.643,0.656-0.662h2.301l0.642,0.643c-0.328,0.326-0.548,0.551-0.66,0.676h-2.291
		L-63.236,17.651z M-58.842,14.736v2.085l-0.645,0.646l-0.657-0.658v-2.059l0.657-0.658L-58.842,14.736z M-58.857,18.419
		l0.015,2.145l-0.661,0.645c-0.223-0.219-0.438-0.432-0.641-0.641v-2.115l0.027-0.029c0.401-0.402,0.611-0.615,0.63-0.633
		L-58.857,18.419z"/>
	<path d="M-52.71,14.512h-2.898c-0.195-0.187-0.42-0.404-0.672-0.658l0.658-0.656h2.912c0.196,0.195,0.415,0.414,0.658,0.656
		L-52.71,14.512z M-55.622,20.632h2.926l0.645,0.645l-0.658,0.672h-2.912c-0.159-0.16-0.374-0.379-0.644-0.658
		C-56.061,21.073-55.846,20.854-55.622,20.632z M-52.71,18.223h-1.82c-0.206-0.205-0.425-0.424-0.657-0.658l0.644-0.645h1.834
		l0.658,0.645L-52.71,18.223z M-52.542,16.737v-2.085l0.028-0.014l0.588-0.588l0.027-0.043c0.01,0.02,0.229,0.244,0.658,0.672v2.058
		c-0.159,0.158-0.378,0.379-0.658,0.658C-52.132,17.165-52.346,16.942-52.542,16.737z M-51.884,21.122
		c-0.009,0-0.229-0.223-0.658-0.658v-2.102c0.009-0.01,0.224-0.229,0.644-0.656c0.309,0.307,0.527,0.525,0.658,0.656v2.102
		L-51.884,21.122z"/>
	<path d="M-46.62,21.26l-0.658,0.658h-0.896c-0.009,0-0.229-0.221-0.658-0.658l0.645-0.645h0.909l0.028,0.016L-46.62,21.26z
		 M-45.865,22.042v1.08l-0.644,0.645l-0.658-0.67V22.05c0.204-0.209,0.421-0.426,0.653-0.654L-45.865,22.042z"/>
	<path d="M-39.089,17.468c-0.224-0.227-0.439-0.439-0.645-0.646v-2.07c0.421-0.42,0.64-0.64,0.658-0.658l0.028,0.043
		c0.392,0.383,0.588,0.578,0.588,0.588l0.014,0.014h0.015v2.086C-38.561,16.954-38.781,17.169-39.089,17.468z M-39.734,20.552
		v-2.105c0.132-0.141,0.346-0.357,0.645-0.656l0.658,0.656v2.105c-0.437,0.43-0.653,0.648-0.653,0.658L-39.734,20.552z
		 M-35.337,21.374c-0.429,0.42-0.649,0.635-0.658,0.643h-2.268l-0.672-0.656l0.657-0.645h2.282L-35.337,21.374z M-38.921,13.938
		c0.233-0.231,0.453-0.451,0.658-0.656h2.281l0.645,0.644c-0.392,0.401-0.611,0.627-0.658,0.672h-2.268L-38.921,13.938z
		 M-38.918,17.651c0.418-0.422,0.637-0.643,0.656-0.662h2.301l0.641,0.643c-0.328,0.326-0.548,0.551-0.659,0.676h-2.291
		L-38.918,17.651z M-34.526,14.736v2.085l-0.644,0.646l-0.658-0.658v-2.059l0.658-0.658L-34.526,14.736z M-34.538,18.419
		l0.014,2.145l-0.66,0.645c-0.224-0.219-0.438-0.432-0.642-0.641v-2.115l0.028-0.029c0.401-0.402,0.611-0.615,0.63-0.633
		L-34.538,18.419z"/>
	<path d="M-28.392,14.512h-2.898c-0.196-0.187-0.42-0.404-0.672-0.658l0.658-0.656h2.912c0.195,0.195,0.415,0.414,0.656,0.656
		L-28.392,14.512z M-31.304,20.632h2.926l0.644,0.645l-0.656,0.672h-2.912c-0.159-0.16-0.374-0.379-0.645-0.658
		C-31.742,21.073-31.529,20.854-31.304,20.632z M-28.392,18.223h-1.82c-0.206-0.205-0.425-0.424-0.657-0.658l0.644-0.645h1.835
		l0.656,0.645L-28.392,18.223z M-28.224,16.737v-2.085l0.027-0.014l0.588-0.588l0.027-0.043c0.01,0.02,0.229,0.244,0.658,0.672
		v2.058c-0.158,0.158-0.378,0.379-0.658,0.658C-27.815,17.165-28.029,16.942-28.224,16.737z M-27.568,21.122
		c-0.009,0-0.229-0.223-0.656-0.658v-2.102c0.009-0.01,0.224-0.229,0.644-0.656c0.31,0.307,0.527,0.525,0.658,0.656v2.102
		L-27.568,21.122z"/>
	<path d="M-21.756,18.151l-0.673,0.688h-1.609l-0.687-0.688l0.672-0.672h1.625L-21.756,18.151z M-21.561,21.29l-0.687-0.693v-1.623
		l0.673-0.666l0.686,0.684v1.611L-21.561,21.29z M-21.527,18.026l-0.679-0.66v-1.617l0.688-0.69l0.672,0.67v1.619L-21.527,18.026z
		 M-18.355,18.18l-0.673,0.688h-1.609l-0.687-0.688l0.672-0.672h1.624L-18.355,18.18z"/>
	<path d="M-13.875,21.26l-0.658,0.658h-0.896c-0.009,0-0.229-0.221-0.657-0.658l0.644-0.645h0.909l0.029,0.016L-13.875,21.26z
		 M-13.119,22.042v1.08l-0.644,0.645l-0.657-0.67V22.05c0.203-0.209,0.421-0.426,0.652-0.654L-13.119,22.042z"/>
	<path d="M-6.344,17.468c-0.225-0.227-0.438-0.439-0.645-0.646v-2.07c0.42-0.42,0.641-0.64,0.658-0.658l0.028,0.043
		c0.392,0.383,0.588,0.578,0.588,0.588l0.014,0.014h0.015v2.086C-5.818,16.954-6.035,17.169-6.344,17.468z M-6.989,20.552v-2.105
		c0.131-0.141,0.346-0.357,0.645-0.656l0.658,0.656v2.105c-0.437,0.43-0.652,0.648-0.652,0.658L-6.989,20.552z M-2.592,21.374
		c-0.429,0.42-0.648,0.635-0.657,0.643h-2.269l-0.673-0.656l0.658-0.645h2.282L-2.592,21.374z M-6.176,13.938
		c0.233-0.231,0.453-0.451,0.658-0.656h2.281l0.645,0.644c-0.393,0.401-0.611,0.627-0.657,0.672h-2.269L-6.176,13.938z
		 M-6.172,17.651c0.418-0.422,0.637-0.643,0.655-0.662h2.301l0.642,0.643c-0.328,0.326-0.549,0.551-0.66,0.676h-2.291L-6.172,17.651
		z M-1.781,14.736v2.085l-0.645,0.646l-0.657-0.658v-2.059l0.657-0.658L-1.781,14.736z M-1.793,18.419l0.014,2.145l-0.66,0.645
		c-0.224-0.219-0.438-0.432-0.642-0.641v-2.115l0.028-0.029c0.399-0.402,0.61-0.615,0.629-0.633L-1.793,18.419z"/>
	<path d="M1.384,17.425c-0.315-0.311-0.536-0.527-0.658-0.66v-2.949c0.422-0.43,0.642-0.649,0.658-0.66l0.028,0.027l0.589,0.592
		l0.014,0.015l0.015,0.014v2.964C1.834,16.964,1.619,17.182,1.384,17.425z M1.529,17.598c0.223-0.23,0.44-0.447,0.653-0.648h2.314
		l0.635,0.633c-0.233,0.238-0.455,0.461-0.661,0.668H2.191L1.529,17.598z M5.934,13.813v2.953L5.29,17.411v0.014l-0.658-0.658
		v-2.952l0.658-0.658L5.934,13.813z M5.922,18.378l0.014,2.967l-0.645,0.658c-0.317-0.316-0.537-0.535-0.658-0.658v-2.939
		l0.028-0.041c0.401-0.393,0.611-0.598,0.63-0.617L5.922,18.378z"/>
	<path d="M10.68,21.26l-0.657,0.658H9.127c-0.01,0-0.229-0.221-0.658-0.658l0.646-0.645h0.91l0.026,0.016L10.68,21.26z
		 M11.437,22.042v1.08l-0.646,0.645l-0.658-0.67V22.05c0.204-0.209,0.422-0.426,0.653-0.654L11.437,22.042z"/>
	<path d="M18.213,17.468c-0.225-0.227-0.438-0.439-0.645-0.646v-2.07c0.42-0.42,0.64-0.64,0.657-0.658l0.028,0.043
		c0.393,0.383,0.588,0.578,0.588,0.588l0.016,0.014h0.014v2.086C18.74,16.954,18.521,17.169,18.213,17.468z M17.568,20.552v-2.105
		c0.131-0.141,0.346-0.357,0.645-0.656l0.658,0.656v2.105c-0.437,0.43-0.652,0.648-0.652,0.658L17.568,20.552z M21.965,21.374
		c-0.43,0.42-0.647,0.635-0.658,0.643h-2.268l-0.672-0.656l0.658-0.645h2.28L21.965,21.374z M18.381,13.938
		c0.233-0.231,0.453-0.451,0.658-0.656h2.281l0.645,0.644c-0.393,0.401-0.61,0.627-0.658,0.672h-2.268L18.381,13.938z
		 M18.384,17.651c0.419-0.422,0.639-0.643,0.655-0.662h2.301l0.643,0.643c-0.327,0.326-0.549,0.551-0.66,0.676h-2.291L18.384,17.651
		z M22.777,14.736v2.085l-0.646,0.646l-0.658-0.658v-2.059l0.658-0.658L22.777,14.736z M22.762,18.419l0.015,2.145l-0.661,0.645
		c-0.225-0.219-0.438-0.432-0.643-0.641v-2.115l0.028-0.029c0.401-0.402,0.611-0.615,0.63-0.633L22.762,18.419z"/>
	<path d="M25.941,17.425c-0.318-0.311-0.537-0.527-0.658-0.66v-2.949c0.42-0.43,0.639-0.649,0.658-0.66l0.026,0.027l0.588,0.592
		l0.015,0.015l0.015,0.014v2.964C26.387,16.964,26.174,17.182,25.941,17.425z M26.086,17.598c0.223-0.23,0.44-0.447,0.654-0.648
		h2.313l0.636,0.633c-0.235,0.238-0.456,0.461-0.662,0.668h-2.281L26.086,17.598z M30.49,13.813v2.953l-0.644,0.645v0.014
		l-0.657-0.658v-2.952l0.657-0.658L30.49,13.813z M30.475,18.378l0.015,2.967l-0.644,0.658c-0.317-0.316-0.537-0.535-0.657-0.658
		v-2.939l0.026-0.041c0.401-0.393,0.611-0.598,0.631-0.617L30.475,18.378z"/>
	<path d="M35.783,18.151l-0.672,0.688h-1.609l-0.687-0.688l0.672-0.672h1.624L35.783,18.151z M35.979,21.29l-0.688-0.693v-1.623
		l0.674-0.666l0.686,0.684v1.611L35.979,21.29z M36.013,18.026l-0.679-0.66v-1.617l0.687-0.69l0.672,0.67v1.619L36.013,18.026z
		 M39.184,18.18l-0.672,0.688h-1.609l-0.688-0.688l0.672-0.672h1.625L39.184,18.18z"/>
	<path d="M46.688,17.438c-0.309-0.307-0.522-0.521-0.645-0.643v-2.072l0.658-0.658l0.026,0.027l0.589,0.588l0.027,0.029v2.07
		L46.688,17.438z M46.045,20.528v-2.107c0.131-0.141,0.345-0.359,0.645-0.66c0.224,0.217,0.442,0.438,0.657,0.664v2.1l-0.646,0.652
		L46.045,20.528z M51.07,21.331c-0.225,0.232-0.443,0.451-0.658,0.656h-2.897l-0.672-0.656l0.657-0.646h2.912
		C50.59,20.854,50.807,21.067,51.07,21.331z M46.857,13.91c0.223-0.231,0.441-0.452,0.656-0.657h2.912l0.645,0.645
		c-0.232,0.232-0.453,0.453-0.658,0.658h-2.897L46.857,13.91z"/>
	<path d="M54.217,21.188l-0.669-0.67v-0.77l0.672-0.674l0.687,0.672v0.754L54.217,21.188z M57.608,21.331l-0.674,0.672h-1.902
		l-0.688-0.688l0.673-0.672h1.918L57.608,21.331z M54.348,18.946l0.688-0.668h1.908l0.663,0.656l-0.697,0.689h-1.873L54.348,18.946z
		 M54.36,16.46l0.672-0.671h1.903l0.673,0.671l-0.688,0.686h-1.89L54.36,16.46z M57.734,16.585l0.672,0.67v0.893l-0.674,0.676
		l-0.671-0.684v-0.883L57.734,16.585z M57.74,19.069l0.666,0.66v0.799l-0.675,0.666l-0.67-0.682v-0.766L57.74,19.069z
		 M58.406,22.003l-1.218-0.016l1.218-1.203V22.003z"/>
	<path d="M61.752,17.229l-0.672-0.672v-2.646l0.672-0.673l0.672,0.673v2.632L61.752,17.229z M61.752,17.325l0.658,0.674v3.262
		l-0.658,0.672L61.08,21.26v-3.262L61.752,17.325z"/>
	<path d="M65.643,18.823l-0.672-0.67V17.27l0.685-0.684l0.674,0.688v0.885L65.643,18.823z M65.641,21.188l-0.67-0.67v-0.77
		l0.672-0.674l0.687,0.672v0.754L65.641,21.188z M69.033,21.331l-0.687,0.672h-1.891l-0.687-0.688l0.673-0.672h1.918L69.033,21.331z
		 M65.785,16.46l0.672-0.671h1.904l0.672,0.671l-0.687,0.686h-1.891L65.785,16.46z"/>
	<path d="M72.281,18.419l-0.672-0.672V16.46l0.672-0.671l0.672,0.685v1.26L72.281,18.419z M72.289,21.239l-0.68-0.674v-1.223
		l0.672-0.674l0.672,0.689v1.195L72.289,21.239z M75.653,21.344l-0.661,0.688h-1.91l-0.676-0.672l0.688-0.688h1.89L75.653,21.344z
		 M75.795,15.788l0.672,0.675v1.266l-0.672,0.676l-0.686-0.676v-1.266L75.795,15.788z M75.795,18.671l0.672,0.674v1.189
		l-0.672,0.691l-0.686-0.666v-1.213L75.795,18.671z M76.494,22.03l-1.23-0.016l1.23-1.23V22.03z"/>
	<path d="M79.895,17.229l-0.672-0.672v-2.646l0.672-0.673l0.672,0.673v2.632L79.895,17.229z M79.895,17.325l0.658,0.674v3.262
		l-0.658,0.672l-0.672-0.672v-3.262L79.895,17.325z"/>
	<path d="M83.785,21.188l-0.668-0.67v-0.77l0.672-0.674l0.686,0.672v0.754L83.785,21.188z M87.176,21.331l-0.672,0.672h-1.904
		l-0.686-0.688l0.672-0.672h1.918L87.176,21.331z M83.918,18.946l0.688-0.668h1.908l0.662,0.656l-0.697,0.689h-1.873L83.918,18.946z
		 M83.927,16.46l0.672-0.671h1.904l0.672,0.671l-0.686,0.686h-1.892L83.927,16.46z M87.302,16.585l0.672,0.67v0.893L87.3,18.823
		l-0.67-0.684v-0.883L87.302,16.585z M87.307,19.069l0.666,0.66v0.799l-0.676,0.666l-0.668-0.682v-0.766L87.307,19.069z
		 M87.973,22.003l-1.219-0.016l1.219-1.203V22.003z"/>
	<path d="M91.166,16.528l0.672,0.672v3.34l-0.668,0.668l-0.689-0.674V17.2L91.166,16.528z M91.166,16.417l-0.672-0.673V13.98
		l0.672-0.672l0.672,0.672v1.75L91.166,16.417z M93.883,21.315l-0.672,0.672h-1.232l-0.686-0.686l0.672-0.672h1.231L93.883,21.315z
		 M94.037,16.501l-0.675,0.672h-1.358l-0.688-0.689l0.662-0.654h1.381L94.037,16.501z"/>
	<path d="M97.102,18.755l-0.672-0.67v-0.867l0.668-0.688l0.676,0.676v0.879L97.102,18.755z M97.098,21.104l-0.668-0.656v-0.77
		l0.672-0.672l0.672,0.67v0.754L97.098,21.104z M97.227,16.401l0.672-0.671h1.904l0.658,0.671l-0.672,0.672h-1.892L97.227,16.401z
		 M100.463,21.247l-0.672,0.672h-1.892l-0.672-0.688l0.658-0.658h1.904L100.463,21.247z M100.592,16.53l0.67,0.674v0.881
		l-0.672,0.67l-0.672-0.67v-0.879L100.592,16.53z M100.59,19.007l0.672,0.672v0.77l-0.67,0.67l-0.674-0.674v-0.768L100.59,19.007z"
		/>
	<path d="M104.227,19.288l0.658,0.672v1.344l-0.658,0.672l-0.686-0.686v-1.316L104.227,19.288z M104.215,19.063l-0.658-0.658v-1.291
		l0.676-0.674l0.668,0.684v1.27L104.215,19.063z M107.043,16.317l-0.672,0.672h-1.345l-0.672-0.686l0.658-0.658h1.357
		L107.043,16.317z"/>
</g>
<g>
	<path fill="#A7BEB6" stroke="#000000" stroke-width="3" stroke-miterlimit="10" d="M-163.049,30.833c0,0,3.455,0,5.382,0
		c1.926,0,1.594-2.99,1.594-2.99s-0.134-8.037,0-10.031c0.132-1.992,0.465-3.387,0.73-4.385c0.266-0.996,0.397-3.188,0.397-3.188
		s0-5.115,0-6.911c0-1.793-1.461-1.857-1.461-1.857h-6.644h-6.642c0,0-1.461,0.064-1.461,1.857c0,1.796,0,6.911,0,6.911
		s0.134,2.191,0.399,3.188c0.266,0.998,0.598,2.393,0.729,4.385c0.134,1.994,0,10.031,0,10.031s-0.331,2.99,1.595,2.99
		C-166.502,30.833-163.049,30.833-163.049,30.833"/>
	<path fill="#9EB8AF" d="M-163.049,30.833c0,0,3.455,0,5.382,0c1.926,0,1.594-2.99,1.594-2.99s-0.134-8.037,0-10.031
		c0.132-1.992,0.465-3.387,0.73-4.385c0.266-0.996,0.397-3.188,0.397-3.188s0-5.115,0-6.911c0-1.793-1.461-1.857-1.461-1.857h-6.644
		h-6.642c0,0-1.461,0.064-1.461,1.857c0,1.796,0,6.911,0,6.911s0.134,2.191,0.399,3.188c0.266,0.998,0.598,2.393,0.729,4.385
		c0.134,1.994,0,10.031,0,10.031s-0.331,2.99,1.595,2.99C-166.502,30.833-163.049,30.833-163.049,30.833"/>
	<path fill="#FFFFFF" d="M-157.501,29.501c0,0.438-0.358,0.797-0.797,0.797h-9.499c-0.441,0-0.797-0.357-0.797-0.797v-15.08
		c0-0.439,0.355-0.795,0.797-0.795h9.499c0.438,0,0.797,0.354,0.797,0.795V29.501z"/>
	
		<line fill="none" stroke="#FFFFFF" stroke-width="0.5" stroke-miterlimit="10" x1="-168.427" y1="15.777" x2="-168.427" y2="1.469"/>
	
		<line fill="none" stroke="#FFFFFF" stroke-width="0.5" stroke-miterlimit="10" x1="-157.698" y1="15.741" x2="-157.698" y2="1.469"/>
	<rect x="-168.462" y="1.469" fill="#FFFFFF" width="10.828" height="2.39"/>
</g>
<line fill="none" stroke="#000000" stroke-miterlimit="10" x1="-146.986" y1="31.838" x2="452.347" y2="31.838"/>
</svg>
