<?xml version="1.0" encoding="utf-8"?>
<!-- Generator: Adobe Illustrator 16.0.3, SVG Export Plug-In . SVG Version: 6.00 Build 0)  -->
<!DOCTYPE svg PUBLIC "-//W3C//DTD SVG 1.1//EN" "http://www.w3.org/Graphics/SVG/1.1/DTD/svg11.dtd">
<svg version="1.1" id="Layer_1" xmlns="http://www.w3.org/2000/svg" xmlns:xlink="http://www.w3.org/1999/xlink" x="0px" y="0px"
	 width="625px" height="40.29px" viewBox="-103.333 0 625 40.29" enable-background="new -103.333 0 625 40.29"
	 xml:space="preserve">
<rect x="-103.333" y="13.148" width="301.445" height="27.142"/>
<rect x="198.113" y="13.148" fill="#9EB8AF" width="323.554" height="27.143"/>
<g>
	<path fill="#FFFFFF" d="M-56.197,18.113l0.842-1.746h0.769l0.317,7.264h-0.818c-0.537-2.043-1.213-3.547-2.026-4.517
		c-1.009-1.212-2.214-1.819-3.613-1.819c-1.514,0-2.747,0.676-3.699,2.027c-0.952,1.352-1.428,3.637-1.428,6.859
		c0,2.711,0.545,4.777,1.636,6.201c0.928,1.205,2.229,1.807,3.906,1.807c1.465,0,2.693-0.471,3.687-1.409
		c0.993-0.94,1.64-2.358,1.941-4.255h0.867c-0.252,2.148-0.989,3.801-2.209,4.957c-1.221,1.154-2.759,1.732-4.614,1.732
		c-1.506,0-2.887-0.379-4.144-1.135c-1.258-0.758-2.263-1.847-3.016-3.267c-0.752-1.42-1.129-2.978-1.129-4.669
		c0-1.799,0.389-3.487,1.166-5.064c0.777-1.58,1.771-2.767,2.984-3.56c1.212-0.794,2.519-1.19,3.918-1.19
		c0.781,0,1.538,0.135,2.271,0.403C-57.857,17.001-57.061,17.462-56.197,18.113z"/>
	<path fill="#FFFFFF" d="M-46.396,22.984c1.538,0,2.83,0.555,3.875,1.666c1.046,1.109,1.569,2.574,1.569,4.389
		c0,1.254-0.234,2.32-0.702,3.204c-0.468,0.884-1.136,1.581-2.002,2.093c-0.867,0.514-1.801,0.771-2.802,0.771
		c-1.481,0-2.736-0.562-3.766-1.685c-1.03-1.123-1.544-2.58-1.544-4.371c0-1.799,0.517-3.26,1.55-4.383
		C-49.184,23.544-47.91,22.984-46.396,22.984z M-46.396,23.849c-0.912,0-1.66,0.414-2.246,1.24s-0.879,2.129-0.879,3.912
		c0,1.813,0.291,3.142,0.873,3.979c0.582,0.839,1.333,1.257,2.252,1.257c0.952,0,1.723-0.418,2.313-1.257
		c0.59-0.838,0.885-2.21,0.885-4.114c0-1.767-0.291-3.043-0.873-3.832C-44.651,24.246-45.428,23.849-46.396,23.849z"/>
	<path fill="#FFFFFF" d="M-34.97,16.501V33.08c0,0.227,0.069,0.402,0.208,0.523c0.203,0.164,0.452,0.244,0.745,0.244h1.208v0.916
		h-6.482v-0.916h1.147c0.374,0,0.653-0.09,0.836-0.268c0.183-0.181,0.274-0.433,0.274-0.759V18.906c0-0.406-0.11-0.703-0.33-0.891
		c-0.301-0.26-0.671-0.391-1.111-0.391H-39.5v-0.916L-34.97,16.501z"/>
	<path fill="#FFFFFF" d="M-27.097,16.501V33.08c0,0.227,0.069,0.402,0.208,0.523c0.203,0.164,0.452,0.244,0.745,0.244h1.208v0.916
		h-6.482v-0.916h1.147c0.374,0,0.653-0.09,0.836-0.268c0.183-0.181,0.274-0.433,0.274-0.759V18.906c0-0.406-0.11-0.703-0.33-0.891
		c-0.301-0.26-0.671-0.391-1.111-0.391h-1.025v-0.916L-27.097,16.501z"/>
	<path fill="#FFFFFF" d="M-11.458,33.505l0.439,0.684c-0.594,0.611-1.253,0.916-1.978,0.916c-0.554,0-1.019-0.15-1.398-0.451
		c-0.378-0.301-0.71-0.83-0.995-1.588c-0.773,0.814-1.453,1.357-2.039,1.63c-0.586,0.272-1.29,0.409-2.112,0.409
		c-1.172,0-2.063-0.252-2.673-0.758c-0.61-0.504-0.916-1.15-0.916-1.939c0-1.188,0.698-2.176,2.093-2.961
		c1.396-0.785,3.253-1.309,5.573-1.568v-1.732c0-0.618-0.249-1.146-0.745-1.587c-0.497-0.438-1.127-0.659-1.892-0.659
		c-0.708,0-1.318,0.146-1.831,0.439c-0.366,0.22-0.549,0.436-0.549,0.646c0,0.121,0.098,0.313,0.293,0.573
		c0.236,0.325,0.354,0.614,0.354,0.866c0,0.367-0.118,0.666-0.354,0.896c-0.236,0.232-0.545,0.35-0.928,0.35
		c-0.407,0-0.747-0.14-1.02-0.416c-0.272-0.275-0.409-0.631-0.409-1.063c0-0.807,0.454-1.542,1.361-2.21
		c0.908-0.666,2.098-1,3.571-1c1.359,0,2.396,0.293,3.113,0.879c0.716,0.595,1.074,1.313,1.074,2.16v6.25
		c0,0.554,0.089,0.961,0.269,1.221c0.179,0.269,0.411,0.402,0.696,0.402C-12.143,33.896-11.81,33.767-11.458,33.505z
		 M-15.462,28.684c-2.067,0.284-3.532,0.749-4.395,1.392c-0.643,0.488-0.964,1.18-0.964,2.075c0,0.627,0.167,1.117,0.5,1.472
		c0.333,0.354,0.769,0.53,1.306,0.53c0.96,0,1.792-0.364,2.496-1.093s1.056-1.643,1.056-2.74L-15.462,28.684L-15.462,28.684z"/>
	<path fill="#FFFFFF" d="M-6.101,16.501v8.508c0.48-0.68,1.013-1.188,1.599-1.521s1.225-0.503,1.917-0.503
		c1.343,0,2.478,0.524,3.406,1.574c0.928,1.05,1.392,2.435,1.392,4.149c0,1.863-0.499,3.367-1.495,4.512
		c-0.997,1.144-2.232,1.715-3.705,1.715c-0.7,0-1.335-0.139-1.904-0.415c-0.57-0.276-1.156-0.744-1.758-1.401
		c-0.464,0.739-0.912,1.346-1.343,1.816l-0.488-0.172c0.228-0.936,0.342-1.911,0.342-2.93V18.906c0-0.398-0.141-0.711-0.421-0.939
		c-0.281-0.228-0.678-0.342-1.19-0.342h-0.513v-0.916L-6.101,16.501z M-3.023,24.07c-0.92,0-1.668,0.4-2.246,1.201
		s-0.867,2.123-0.867,3.969c0,1.756,0.285,3.012,0.854,3.768c0.569,0.756,1.314,1.133,2.234,1.133c0.83,0,1.497-0.372,2.002-1.12
		c0.635-0.942,0.952-2.288,0.952-4.035c0-1.724-0.279-2.974-0.836-3.75C-1.487,24.458-2.187,24.07-3.023,24.07z"/>
	<path fill="#FFFFFF" d="M9.66,22.984c1.538,0,2.83,0.555,3.875,1.666c1.046,1.109,1.569,2.574,1.569,4.389
		c0,1.254-0.234,2.32-0.702,3.204c-0.468,0.884-1.136,1.581-2.002,2.093c-0.867,0.514-1.801,0.771-2.802,0.771
		c-1.481,0-2.736-0.562-3.766-1.685c-1.03-1.123-1.544-2.58-1.544-4.371c0-1.799,0.517-3.26,1.55-4.383
		C6.872,23.544,8.146,22.984,9.66,22.984z M9.66,23.849c-0.912,0-1.66,0.414-2.246,1.24s-0.879,2.129-0.879,3.912
		c0,1.813,0.291,3.142,0.873,3.979c0.582,0.839,1.333,1.257,2.252,1.257c0.952,0,1.723-0.418,2.313-1.257
		c0.59-0.838,0.885-2.21,0.885-4.114c0-1.767-0.291-3.043-0.873-3.832C11.402,24.246,10.627,23.849,9.66,23.849z"/>
	<path fill="#FFFFFF" d="M16.581,23.326l4.114-0.208v4.626c0.439-1.521,0.968-2.673,1.587-3.453
		c0.618-0.781,1.383-1.173,2.295-1.173c0.618,0,1.113,0.188,1.483,0.567c0.371,0.379,0.556,0.885,0.556,1.52
		c0,0.514-0.124,0.912-0.372,1.197c-0.249,0.285-0.56,0.428-0.934,0.428c-0.366,0-0.661-0.123-0.885-0.367
		c-0.224-0.244-0.335-0.574-0.335-0.988c0-0.27,0.065-0.52,0.195-0.758c0.122-0.211,0.183-0.336,0.183-0.377
		c0-0.123-0.078-0.184-0.232-0.184c-0.334,0-0.712,0.195-1.135,0.586c-0.586,0.545-1.038,1.293-1.355,2.246
		c-0.488,1.48-0.732,2.665-0.732,3.553v2.453c0,0.276,0.098,0.488,0.293,0.635c0.195,0.147,0.529,0.219,1.001,0.219h1.453v0.916
		h-7.104v-0.916h1.135c0.382,0,0.671-0.073,0.867-0.225c0.195-0.15,0.293-0.332,0.293-0.543v-7.289c0-0.553-0.118-0.957-0.354-1.213
		c-0.236-0.258-0.574-0.386-1.013-0.386h-1.001v-0.866H16.581z"/>
	<path fill="#FFFFFF" d="M39.944,33.505l0.439,0.684c-0.594,0.611-1.253,0.916-1.977,0.916c-0.554,0-1.019-0.15-1.398-0.451
		c-0.378-0.301-0.71-0.83-0.995-1.588c-0.773,0.814-1.453,1.357-2.039,1.63s-1.29,0.409-2.112,0.409
		c-1.172,0-2.063-0.252-2.673-0.758c-0.61-0.504-0.916-1.15-0.916-1.939c0-1.188,0.698-2.176,2.093-2.961
		c1.396-0.785,3.253-1.309,5.573-1.568v-1.732c0-0.618-0.249-1.146-0.745-1.587c-0.497-0.438-1.127-0.659-1.892-0.659
		c-0.708,0-1.318,0.146-1.831,0.439c-0.366,0.22-0.549,0.436-0.549,0.646c0,0.121,0.098,0.313,0.293,0.573
		c0.236,0.325,0.354,0.614,0.354,0.866c0,0.367-0.118,0.666-0.354,0.896c-0.236,0.232-0.545,0.35-0.928,0.35
		c-0.407,0-0.747-0.14-1.02-0.416c-0.272-0.275-0.409-0.631-0.409-1.063c0-0.807,0.454-1.542,1.361-2.21
		c0.908-0.666,2.098-1,3.571-1c1.359,0,2.396,0.293,3.113,0.879c0.716,0.595,1.074,1.313,1.074,2.16v6.25
		c0,0.554,0.089,0.961,0.269,1.221c0.179,0.269,0.411,0.402,0.696,0.402C39.262,33.896,39.595,33.767,39.944,33.505z M35.94,28.684
		c-2.067,0.284-3.532,0.749-4.395,1.392c-0.643,0.488-0.964,1.18-0.964,2.075c0,0.627,0.167,1.117,0.5,1.472
		c0.333,0.354,0.769,0.53,1.306,0.53c0.96,0,1.792-0.364,2.496-1.093c0.704-0.729,1.056-1.643,1.056-2.74L35.94,28.684L35.94,28.684
		z"/>
	<path fill="#FFFFFF" d="M44.778,18.662h0.818v4.664h3.699v1.123h-3.699v7.336c0,0.635,0.15,1.121,0.451,1.459
		c0.301,0.338,0.684,0.506,1.148,0.506c0.553,0,1.025-0.256,1.416-0.769c0.391-0.513,0.617-1.358,0.684-2.539h0.817
		c-0.049,1.522-0.396,2.651-1.038,3.388c-0.642,0.737-1.477,1.104-2.502,1.104c-0.944,0-1.683-0.259-2.215-0.775
		c-0.533-0.517-0.801-1.194-0.801-2.032v-7.678h-1.989v-0.855c0.907-0.153,1.597-0.531,2.071-1.135
		C44.341,21.554,44.722,20.291,44.778,18.662z"/>
	<path fill="#FFFFFF" d="M51.272,23.326l4.554-0.135v9.839c0,0.269,0.065,0.46,0.195,0.573c0.187,0.164,0.423,0.244,0.708,0.244
		h1.294v0.916h-6.507v-0.916h1.209c0.357,0,0.621-0.088,0.787-0.262c0.167-0.177,0.25-0.431,0.25-0.765v-7.2
		c0-0.457-0.13-0.801-0.391-1.033c-0.26-0.23-0.646-0.348-1.159-0.348h-0.94V23.326z M54.446,16.501
		c0.367,0,0.688,0.139,0.965,0.416c0.276,0.275,0.415,0.603,0.415,0.977c0,0.365-0.134,0.684-0.403,0.951
		c-0.268,0.27-0.59,0.402-0.964,0.402s-0.698-0.136-0.971-0.408c-0.272-0.272-0.409-0.592-0.409-0.959
		c0-0.365,0.139-0.688,0.416-0.963C53.771,16.64,54.088,16.501,54.446,16.501z"/>
	<path fill="#FFFFFF" d="M58.867,23.326h5.627v0.83c-0.749,0.016-1.227,0.083-1.434,0.201c-0.209,0.117-0.313,0.287-0.313,0.506
		c0,0.18,0.041,0.357,0.123,0.537l3.032,6.751l2.761-6.546c0.04-0.113,0.062-0.227,0.062-0.342c0-0.592-0.584-0.961-1.752-1.107
		v-0.83h4.735v0.83c-0.479,0.049-0.863,0.18-1.147,0.391c-0.285,0.211-0.504,0.496-0.658,0.854l-4.191,9.705h-0.66l-4.5-9.974
		c-0.162-0.357-0.359-0.608-0.592-0.75c-0.232-0.144-0.596-0.219-1.092-0.227V23.326z"/>
	<path fill="#FFFFFF" d="M83.525,29.125h-8.191c0.041,1.74,0.366,2.971,0.977,3.687c0.699,0.806,1.592,1.209,2.674,1.209
		c1.595,0,2.877-0.908,3.846-2.724l0.794,0.342c-1.188,2.313-2.906,3.468-5.151,3.468c-1.529,0-2.818-0.554-3.863-1.66
		s-1.568-2.522-1.568-4.248c0-1.854,0.516-3.354,1.545-4.498s2.296-1.715,3.803-1.715c1.105,0,2.063,0.285,2.867,0.854
		c0.807,0.569,1.412,1.389,1.819,2.453C83.357,27.041,83.506,27.984,83.525,29.125z M75.333,28.257h4.956
		c0.293,0,0.521-0.101,0.685-0.301c0.162-0.199,0.243-0.537,0.243-1.019c0-0.896-0.278-1.656-0.837-2.283
		c-0.557-0.627-1.214-0.938-1.971-0.938c-0.848,0-1.564,0.377-2.154,1.135C75.666,25.608,75.357,26.744,75.333,28.257z"/>
	<path fill="#FFFFFF" d="M93.058,16.708h14.308l0.342,6.092h-0.818c-0.324-1.92-0.838-3.264-1.541-4.027s-1.619-1.146-2.748-1.146
		h-3.535c-0.285,0-0.5,0.078-0.646,0.231s-0.221,0.392-0.221,0.707V25h1.547c0.828,0,1.5-0.297,2.014-0.892
		c0.518-0.595,0.795-1.506,0.834-2.733h0.844v8.36h-0.844c-0.039-1.383-0.32-2.374-0.846-2.974
		c-0.521-0.598-1.234-0.896-2.137-0.896h-1.412v7.179c0,0.26,0.088,0.459,0.264,0.598s0.465,0.207,0.871,0.207h2.791
		c3.031,0,4.779-1.936,5.242-5.811h0.879l-0.305,6.727H93.058v-0.916h1.232c0.48,0,0.819-0.084,1.015-0.25s0.293-0.408,0.293-0.727
		V18.564c0-0.316-0.086-0.553-0.256-0.707c-0.172-0.154-0.44-0.232-0.808-0.232h-1.477V16.708L93.058,16.708z"/>
	<path fill="#FFFFFF" d="M110.063,23.326h5.518v0.842c-0.895,0.033-1.34,0.191-1.34,0.476c0,0.131,0.072,0.297,0.219,0.5
		l1.971,2.614l1.934-2.418c0.139-0.178,0.209-0.35,0.209-0.512c0-0.351-0.494-0.57-1.479-0.66v-0.842h4.822v0.842
		c-1.16,0.188-2.047,0.676-2.662,1.461l-2.25,2.812l3.533,4.578c0.234,0.302,0.492,0.516,0.77,0.642
		c0.275,0.127,0.684,0.188,1.221,0.188v0.916h-5.848v-0.916h0.414c0.432,0,0.748-0.043,0.953-0.133
		c0.129-0.065,0.195-0.146,0.195-0.244c0-0.09-0.078-0.239-0.232-0.452l-2.289-3.029l-1.844,2.363
		c-0.26,0.333-0.391,0.601-0.391,0.803c0,0.203,0.09,0.356,0.27,0.463c0.252,0.146,0.676,0.224,1.275,0.229v0.916h-4.969v-0.916
		c0.602-0.057,1.064-0.182,1.393-0.377c0.537-0.334,1.021-0.77,1.451-1.307l2.273-2.881l-3.359-4.346
		c-0.375-0.488-0.961-0.745-1.758-0.77V23.326L110.063,23.326z"/>
	<path fill="#FFFFFF" d="M134.454,29.125h-8.191c0.041,1.74,0.365,2.971,0.977,3.687c0.699,0.806,1.592,1.209,2.674,1.209
		c1.594,0,2.877-0.908,3.846-2.724l0.793,0.342c-1.188,2.313-2.904,3.468-5.15,3.468c-1.529,0-2.818-0.554-3.863-1.66
		s-1.568-2.522-1.568-4.248c0-1.854,0.516-3.354,1.545-4.498s2.297-1.715,3.803-1.715c1.105,0,2.063,0.285,2.867,0.854
		c0.807,0.569,1.412,1.389,1.82,2.453C134.286,27.041,134.436,27.984,134.454,29.125z M126.26,28.257h4.957
		c0.293,0,0.521-0.101,0.686-0.301c0.162-0.199,0.244-0.537,0.244-1.019c0-0.896-0.279-1.656-0.838-2.283s-1.215-0.938-1.973-0.938
		c-0.846,0-1.563,0.377-2.152,1.135C126.592,25.608,126.286,26.744,126.26,28.257z"/>
	<path fill="#FFFFFF" d="M136.04,23.326l4.115-0.208v4.626c0.438-1.521,0.967-2.673,1.586-3.453
		c0.619-0.781,1.383-1.173,2.295-1.173c0.619,0,1.113,0.188,1.482,0.567c0.371,0.379,0.557,0.885,0.557,1.52
		c0,0.514-0.125,0.912-0.373,1.197s-0.559,0.428-0.934,0.428c-0.365,0-0.66-0.123-0.887-0.367c-0.225-0.244-0.336-0.574-0.336-0.988
		c0-0.27,0.064-0.52,0.195-0.758c0.123-0.211,0.184-0.336,0.184-0.377c0-0.123-0.076-0.184-0.23-0.184
		c-0.334,0-0.713,0.195-1.135,0.586c-0.586,0.545-1.037,1.293-1.355,2.246c-0.488,1.48-0.732,2.665-0.732,3.553v2.453
		c0,0.276,0.098,0.488,0.293,0.635c0.195,0.147,0.529,0.219,1.002,0.219h1.451v0.916h-7.104v-0.916h1.135
		c0.383,0,0.672-0.073,0.867-0.225c0.195-0.15,0.293-0.332,0.293-0.543v-7.289c0-0.553-0.119-0.957-0.354-1.213
		c-0.236-0.258-0.574-0.386-1.016-0.386h-1.002v-0.866H136.04z"/>
	<path fill="#FFFFFF" d="M156.059,31.371l0.795,0.23c-0.637,2.336-2.035,3.504-4.199,3.504c-1.588,0-2.887-0.525-3.896-1.574
		c-1.01-1.051-1.514-2.445-1.514-4.188c0-2.019,0.553-3.584,1.66-4.693c1.105-1.111,2.408-1.666,3.906-1.666
		c1.123,0,2.051,0.309,2.783,0.928c0.732,0.618,1.098,1.307,1.098,2.063c0,0.457-0.135,0.832-0.408,1.13
		c-0.273,0.297-0.596,0.444-0.971,0.444c-0.365,0-0.676-0.125-0.928-0.377c-0.252-0.25-0.379-0.555-0.379-0.912
		c0-0.356,0.139-0.696,0.416-1.021c0.129-0.153,0.195-0.276,0.195-0.364c0-0.236-0.158-0.466-0.477-0.688
		c-0.316-0.224-0.748-0.335-1.293-0.335c-0.994,0-1.746,0.361-2.262,1.085c-0.73,1.049-1.098,2.431-1.098,4.146
		c0,1.635,0.324,2.873,0.977,3.713c0.65,0.842,1.48,1.262,2.49,1.262C154.35,34.054,155.381,33.16,156.059,31.371z"/>
	<path fill="#FFFFFF" d="M158.196,23.326l4.553-0.135v9.839c0,0.269,0.066,0.46,0.195,0.573c0.188,0.164,0.424,0.244,0.709,0.244
		h1.293v0.916h-6.506v-0.916h1.209c0.355,0,0.621-0.088,0.787-0.262c0.166-0.177,0.25-0.431,0.25-0.765v-7.2
		c0-0.457-0.131-0.801-0.393-1.033c-0.26-0.23-0.645-0.348-1.16-0.348h-0.938V23.326L158.196,23.326z M161.37,16.501
		c0.367,0,0.688,0.139,0.965,0.416c0.275,0.275,0.414,0.603,0.414,0.977c0,0.365-0.133,0.684-0.402,0.951
		c-0.268,0.27-0.59,0.402-0.965,0.402c-0.373,0-0.697-0.136-0.971-0.408c-0.271-0.272-0.408-0.592-0.408-0.959
		c0-0.365,0.139-0.688,0.416-0.963C160.694,16.64,161.01,16.501,161.37,16.501z"/>
	<path fill="#FFFFFF" d="M167.667,30.455c0.506,1.408,1.084,2.383,1.74,2.924c0.654,0.541,1.463,0.812,2.422,0.812
		c0.889,0,1.57-0.192,2.045-0.579c0.479-0.387,0.715-0.877,0.715-1.473c0-0.342-0.088-0.641-0.264-0.896
		c-0.174-0.257-0.418-0.446-0.727-0.573c-0.311-0.127-1.113-0.312-2.41-0.556c-1.238-0.243-2.104-0.501-2.592-0.771
		c-0.488-0.269-0.869-0.639-1.143-1.11s-0.41-0.983-0.41-1.537c0-0.838,0.281-1.601,0.844-2.282c0.727-0.871,1.74-1.308,3.045-1.308
		c0.994,0,1.914,0.313,2.762,0.94l0.809-0.854h0.5l0.318,4.077h-0.818c-0.357-1.155-0.844-1.987-1.455-2.496
		c-0.609-0.51-1.363-0.764-2.262-0.764c-0.775,0-1.383,0.188-1.824,0.568c-0.438,0.377-0.66,0.84-0.66,1.385
		c0,0.48,0.205,0.879,0.611,1.195c0.4,0.326,1.186,0.583,2.348,0.771c1.355,0.229,2.234,0.42,2.645,0.574
		c0.668,0.244,1.186,0.621,1.551,1.129c0.367,0.51,0.551,1.129,0.551,1.861c0,1.008-0.396,1.862-1.191,2.563
		c-0.795,0.699-1.803,1.049-3.025,1.049c-1.133,0-2.184-0.374-3.154-1.123l-0.893,1.025h-0.645l-0.246-4.553H167.667L167.667,30.455
		z"/>
	<path fill="#FFFFFF" d="M188.59,29.125h-8.189c0.041,1.74,0.365,2.971,0.977,3.687c0.699,0.806,1.592,1.209,2.674,1.209
		c1.594,0,2.877-0.908,3.844-2.724l0.795,0.342c-1.189,2.313-2.906,3.468-5.152,3.468c-1.529,0-2.816-0.554-3.863-1.66
		c-1.045-1.106-1.566-2.522-1.566-4.248c0-1.854,0.514-3.354,1.545-4.498c1.029-1.144,2.297-1.715,3.801-1.715
		c1.107,0,2.064,0.285,2.869,0.854c0.807,0.569,1.412,1.389,1.818,2.453C188.422,27.041,188.575,27.984,188.59,29.125z
		 M180.401,28.257h4.955c0.293,0,0.52-0.101,0.684-0.301c0.164-0.199,0.244-0.537,0.244-1.019c0-0.896-0.277-1.656-0.836-2.283
		c-0.557-0.627-1.215-0.938-1.971-0.938c-0.848,0-1.564,0.377-2.154,1.135C180.733,25.608,180.422,26.744,180.401,28.257z"/>
</g>
<g>
	<path fill="#FBD729" d="M-75.685,11.863c0.864-0.256,1.849-0.23,2.828-0.277c0.598-0.029,0.972,0.379,1.378,0.687
		c1.157,0.877,1.772,2.126,2.213,3.465c0.18,0.55,0.417,1.062,0.721,1.547c0.211,0.341,0.376,0.701,0.519,1.074
		c0.065,0.17,0.168,0.306,0.334,0.392c0.062,0.031,0.127,0.069,0.171,0.121c0.699,0.844,1.682,1.321,2.533,1.969
		c0.561,0.426,1.006,0.942,1.262,1.605c0.202,0.521,0.084,0.923-0.334,1.2c-0.306,0.202-0.61,0.104-0.903-0.017
		c-0.516-0.211-0.978-0.521-1.362-0.916c-0.797-0.817-1.807-1.367-2.642-2.137c-0.226-0.209-0.538-0.17-0.723,0.047
		c-0.192,0.228-0.18,0.453,0.011,0.691c0.266,0.328,0.503,0.686,0.641,1.084c0.173,0.496,0.633,0.785,0.837,1.24
		c0.415,0.927,1.149,1.646,1.592,2.549c0.223,0.453,0.417,0.92,0.279,1.449c-0.089,0.338-0.267,0.596-0.617,0.697
		c-0.369,0.104-0.685,0.02-0.955-0.269c-0.335-0.354-0.633-0.753-0.763-1.207c-0.198-0.688-0.727-1.091-1.171-1.575
		c-0.11-0.119-0.253-0.222-0.33-0.359c-0.407-0.744-1.011-1.336-1.52-2.002c-0.06-0.078-0.091-0.217-0.229-0.152
		c-0.136,0.063-0.107,0.193-0.085,0.311c0.121,0.635,0.324,1.244,0.586,1.836c0.143,0.322,0.268,0.646,0.27,1.008
		c0,0.138,0.035,0.285,0.09,0.408c0.406,0.891,0.544,1.863,0.847,2.785c0.164,0.496,0.172,1.035,0.062,1.564
		c-0.085,0.404-0.307,0.689-0.707,0.789c-0.422,0.104-0.79-0.025-1.061-0.371c-0.407-0.523-0.609-1.129-0.673-1.781
		c-0.013-0.129-0.01-0.257-0.079-0.373c-0.307-0.535-0.399-1.15-0.637-1.705c-0.471-1.096-0.616-2.279-0.992-3.396
		c-0.021-0.063-0.019-0.153-0.102-0.17c-0.106-0.02-0.126,0.088-0.17,0.149c-0.063,0.091-0.074,0.195-0.063,0.304
		c0.065,0.724,0.07,1.441-0.024,2.17c-0.053,0.412,0.145,0.846,0.127,1.281c-0.002,0.021,0.007,0.047,0.003,0.069
		c-0.237,1.062,0.193,2.142-0.099,3.204c-0.106,0.385-0.308,0.684-0.636,0.891c-0.516,0.324-1.056,0.111-1.267-0.455
		c-0.154-0.414-0.233-0.851-0.23-1.273c0.006-0.775-0.128-1.534-0.177-2.301c-0.097-1.479-0.239-2.963-0.131-4.449
		c0.009-0.123-0.033-0.229-0.069-0.34c-0.122-0.367-0.208-0.739-0.238-1.129c-0.026-0.332-0.219-0.608-0.417-0.852
		c-0.198-0.244-0.426-0.465-0.614-0.719c-0.25-0.336-0.652-0.371-0.981-0.118c-0.776,0.595-1.242,1.444-1.792,2.218
		c-0.478,0.67-1.02,1.258-1.729,1.664c-0.542,0.311-1.132,0.371-1.723,0.104c-0.346-0.157-0.332-0.485-0.321-0.782
		c0.012-0.345,0.212-0.623,0.439-0.859c0.614-0.635,1.125-1.344,1.58-2.096c0.03-0.052,0.062-0.103,0.105-0.14
		c0.824-0.709,1.07-1.76,1.574-2.658c0.083-0.149,0.147-0.314,0.234-0.469c0.234-0.414,0.464-0.824,0.586-1.301
		c0.286-1.125,1.107-1.851,2.021-2.471c0.32-0.219,0.643-0.412,0.887-0.727c0.212-0.273,0.504-0.447,0.854-0.517
		C-76.369,12.015-76.072,11.947-75.685,11.863z M-75.688,12.144c-0.206,0.045-0.411,0.111-0.619,0.13
		c-0.543,0.045-0.939,0.323-1.253,0.745c-0.093,0.123-0.2,0.24-0.348,0.283c-0.409,0.123-0.709,0.41-1.017,0.674
		c-0.555,0.479-1.033,1.023-1.266,1.738c-0.079,0.244-0.081,0.523-0.203,0.74c-0.391,0.692-0.727,1.413-1.114,2.106
		c-0.343,0.614-0.532,1.332-1.143,1.776c-0.063,0.045-0.096,0.131-0.142,0.197c-0.455,0.652-0.854,1.344-1.44,1.896
		c-0.241,0.23-0.408,0.516-0.502,0.836c-0.094,0.32,0.041,0.572,0.355,0.691c0.332,0.125,0.662,0.123,0.994,0.004
		c0.888-0.322,1.487-0.963,2.016-1.724c0.556-0.797,1.046-1.655,1.822-2.282c0.217-0.175,0.739-0.316,0.904-0.185
		c0.482,0.387,0.872,0.858,1.226,1.368c0.272,0.394,0.195,0.857,0.333,1.273c0.167,0.502,0.25,0.986,0.206,1.535
		c-0.088,1.119,0.105,2.239,0.117,3.361c0.007,0.852,0.275,1.677,0.216,2.541c-0.034,0.482,0.047,0.98,0.262,1.438
		c0.193,0.414,0.546,0.522,0.938,0.272c0.271-0.173,0.427-0.433,0.518-0.729c0.143-0.468,0.167-0.943,0.073-1.425
		c-0.057-0.286-0.125-0.573-0.066-0.868c0.213-1.076-0.139-2.154,0.037-3.236c0.064-0.396-0.042-0.815-0.059-1.225
		c-0.012-0.291,0.229-0.718,0.406-0.709c0.345,0.014,0.313,0.323,0.392,0.543c0.31,0.858,0.411,1.776,0.712,2.641
		c0.415,1.19,0.912,2.354,1.151,3.604c0.055,0.286,0.202,0.552,0.392,0.778c0.23,0.277,0.538,0.449,0.898,0.352
		c0.349-0.094,0.52-0.375,0.564-0.732c0.051-0.409,0.041-0.814-0.035-1.223c-0.067-0.361-0.248-0.686-0.321-1.039
		c-0.202-0.957-0.632-1.854-0.745-2.836c-0.012-0.113-0.081-0.219-0.125-0.326c-0.271-0.662-0.534-1.324-0.681-2.028
		c-0.055-0.267,0.042-0.448,0.24-0.563c0.205-0.119,0.318,0.086,0.423,0.213c0.533,0.648,1.127,1.252,1.549,1.989
		c0.105,0.185,0.255,0.33,0.41,0.478c0.519,0.492,1,1.002,1.216,1.724c0.109,0.362,0.349,0.685,0.619,0.97
		c0.202,0.211,0.429,0.32,0.72,0.258c0.308-0.063,0.436-0.307,0.497-0.574c0.11-0.493-0.039-0.95-0.262-1.383
		c-0.413-0.801-1.083-1.438-1.441-2.276c-0.244-0.571-0.813-0.937-1.026-1.538c-0.129-0.368-0.348-0.688-0.592-0.989
		c-0.228-0.28-0.225-0.639,0.003-0.889c0.304-0.332,0.662-0.425,0.964-0.154c0.831,0.743,1.802,1.304,2.606,2.078
		c0.439,0.425,0.914,0.813,1.495,1.026c0.61,0.226,1.043-0.158,0.914-0.791c-0.15-0.738-0.679-1.196-1.215-1.661
		c-0.791-0.685-1.758-1.128-2.49-1.91c-0.347-0.371-0.696-0.701-0.86-1.187c-0.163-0.483-0.534-0.858-0.703-1.328
		c-0.283-0.78-0.543-1.571-0.95-2.299c-0.377-0.676-0.782-1.342-1.415-1.813c-0.529-0.395-1.1-0.764-1.796-0.676
		C-74.118,11.907-74.925,11.873-75.688,12.144z"/>
	<path fill="#FFD155" d="M-75.688,12.144c0.763-0.271,1.57-0.237,2.358-0.336c0.697-0.088,1.267,0.281,1.796,0.676
		c0.633,0.471,1.038,1.137,1.415,1.813c0.407,0.728,0.667,1.519,0.95,2.299c0.169,0.47,0.541,0.845,0.703,1.328
		c0.164,0.484,0.514,0.814,0.86,1.187c0.732,0.783,1.699,1.226,2.49,1.91c0.536,0.465,1.065,0.923,1.215,1.661
		c0.129,0.633-0.304,1.017-0.914,0.791c-0.581-0.213-1.055-0.604-1.495-1.026c-0.805-0.774-1.775-1.335-2.606-2.078
		c-0.303-0.271-0.661-0.178-0.964,0.154c-0.228,0.25-0.231,0.606-0.003,0.89c0.244,0.301,0.463,0.62,0.592,0.988
		c0.213,0.602,0.782,0.967,1.026,1.538c0.358,0.84,1.028,1.478,1.441,2.276c0.223,0.433,0.372,0.89,0.262,1.383
		c-0.061,0.269-0.188,0.511-0.497,0.574c-0.292,0.063-0.519-0.047-0.72-0.258c-0.271-0.285-0.51-0.607-0.619-0.97
		c-0.216-0.722-0.697-1.231-1.216-1.724c-0.155-0.146-0.305-0.293-0.41-0.478c-0.422-0.737-1.016-1.341-1.549-1.989
		c-0.104-0.127-0.218-0.332-0.423-0.213c-0.197,0.115-0.295,0.297-0.24,0.563c0.147,0.705,0.411,1.366,0.681,2.028
		c0.044,0.107,0.113,0.213,0.125,0.326c0.113,0.98,0.543,1.879,0.745,2.836c0.073,0.354,0.253,0.678,0.321,1.039
		c0.076,0.407,0.086,0.813,0.035,1.223c-0.044,0.357-0.215,0.64-0.564,0.732c-0.361,0.098-0.668-0.074-0.898-0.352
		c-0.189-0.227-0.336-0.492-0.392-0.778c-0.239-1.249-0.736-2.413-1.151-3.604c-0.301-0.863-0.402-1.781-0.712-2.641
		c-0.079-0.22-0.047-0.529-0.392-0.543c-0.177-0.009-0.417,0.418-0.406,0.709c0.018,0.408,0.123,0.829,0.059,1.225
		c-0.176,1.082,0.176,2.16-0.037,3.236c-0.06,0.295,0.009,0.582,0.066,0.868c0.094,0.479,0.07,0.957-0.073,1.425
		c-0.091,0.299-0.248,0.559-0.518,0.729c-0.392,0.25-0.745,0.142-0.938-0.272c-0.214-0.457-0.295-0.955-0.262-1.438
		c0.06-0.864-0.208-1.689-0.216-2.541c-0.011-1.122-0.205-2.242-0.117-3.361c0.044-0.549-0.039-1.033-0.206-1.535
		c-0.139-0.416-0.061-0.881-0.333-1.272c-0.354-0.511-0.744-0.981-1.226-1.369c-0.165-0.134-0.687,0.01-0.904,0.185
		c-0.776,0.627-1.266,1.485-1.822,2.282c-0.529,0.761-1.128,1.399-2.016,1.724c-0.332,0.119-0.662,0.121-0.994-0.004
		c-0.314-0.119-0.45-0.371-0.355-0.691c0.095-0.32,0.261-0.605,0.502-0.835c0.585-0.554,0.985-1.245,1.44-1.897
		c0.046-0.066,0.079-0.152,0.142-0.197c0.611-0.444,0.8-1.162,1.143-1.776c0.387-0.692,0.724-1.414,1.114-2.106
		c0.122-0.217,0.124-0.496,0.203-0.74c0.233-0.715,0.711-1.262,1.266-1.738c0.308-0.264,0.608-0.551,1.017-0.674
		c0.147-0.043,0.255-0.16,0.348-0.283c0.314-0.422,0.71-0.7,1.253-0.745C-76.099,12.255-75.895,12.189-75.688,12.144z"/>
</g>
<g>
	<path fill="#5253A2" d="M-86.461,15.714c-0.603-0.67-1.004-1.568-1.468-2.433c-0.284-0.528-0.076-1.042,0.027-1.541
		c0.292-1.422,1.156-2.514,2.175-3.487c0.417-0.398,0.777-0.832,1.085-1.316c0.215-0.336,0.472-0.641,0.747-0.93
		c0.125-0.132,0.204-0.284,0.208-0.469c0.002-0.069,0.008-0.146,0.037-0.207c0.46-0.994,0.47-2.086,0.686-3.134
		c0.143-0.689,0.419-1.313,0.908-1.832c0.384-0.404,0.797-0.472,1.228-0.214c0.314,0.189,0.356,0.507,0.375,0.823
		c0.031,0.556-0.052,1.105-0.243,1.624c-0.396,1.071-0.457,2.219-0.792,3.303c-0.09,0.293,0.079,0.561,0.354,0.632
		c0.287,0.076,0.486-0.03,0.618-0.307c0.184-0.381,0.404-0.75,0.703-1.045c0.375-0.369,0.438-0.91,0.762-1.29
		c0.657-0.771,0.991-1.746,1.613-2.533c0.313-0.396,0.652-0.771,1.189-0.875c0.344-0.064,0.654-0.017,0.896,0.256
		c0.255,0.289,0.312,0.61,0.17,0.979c-0.176,0.455-0.409,0.894-0.763,1.208c-0.537,0.476-0.672,1.126-0.917,1.733
		c-0.062,0.152-0.092,0.325-0.185,0.454c-0.496,0.688-0.771,1.488-1.152,2.232c-0.045,0.088-0.159,0.176-0.039,0.273
		c0.115,0.096,0.22,0.014,0.315-0.058c0.522-0.383,0.986-0.828,1.405-1.319c0.229-0.269,0.468-0.52,0.796-0.678
		c0.123-0.06,0.24-0.151,0.328-0.258c0.63-0.75,1.448-1.292,2.15-1.963c0.378-0.361,0.859-0.602,1.385-0.729
		c0.402-0.098,0.755-0.02,1.017,0.299c0.275,0.336,0.317,0.724,0.121,1.117c-0.296,0.594-0.756,1.035-1.318,1.375
		c-0.11,0.067-0.227,0.119-0.304,0.231c-0.349,0.507-0.865,0.856-1.264,1.31c-0.788,0.896-1.792,1.537-2.64,2.356
		c-0.049,0.048-0.13,0.085-0.108,0.165c0.028,0.104,0.132,0.076,0.208,0.089c0.108,0.02,0.208-0.017,0.302-0.073
		c0.624-0.369,1.27-0.683,1.967-0.912c0.396-0.129,0.703-0.493,1.103-0.664c0.022-0.01,0.04-0.028,0.062-0.033
		c1.061-0.242,1.85-1.098,2.936-1.29c0.392-0.068,0.749-0.017,1.076,0.19c0.515,0.326,0.556,0.904,0.134,1.34
		c-0.307,0.316-0.666,0.576-1.05,0.757c-0.703,0.327-1.33,0.774-2,1.149c-1.294,0.724-2.571,1.489-3.96,2.03
		c-0.116,0.045-0.192,0.129-0.276,0.209c-0.281,0.269-0.58,0.509-0.918,0.701c-0.288,0.166-0.455,0.459-0.589,0.742
		c-0.134,0.285-0.235,0.584-0.384,0.865c-0.195,0.369-0.053,0.748,0.316,0.938c0.871,0.443,1.837,0.498,2.772,0.662
		c0.812,0.144,1.575,0.379,2.247,0.846c0.514,0.354,0.822,0.861,0.834,1.51c0.007,0.382-0.296,0.509-0.568,0.628
		c-0.315,0.136-0.655,0.076-0.965-0.028c-0.837-0.281-1.698-0.437-2.573-0.523c-0.058-0.006-0.119-0.012-0.171-0.035
		c-0.994-0.439-2.048-0.21-3.075-0.277c-0.171-0.011-0.349,0.002-0.524-0.01c-0.476-0.033-0.943-0.064-1.427,0.031
		c-1.14,0.227-2.146-0.205-3.1-0.762c-0.335-0.195-0.648-0.404-1.036-0.488c-0.34-0.072-0.622-0.262-0.834-0.549
		C-86.028,16.267-86.22,16.03-86.461,15.714z M-86.206,15.597c0.129,0.166,0.278,0.322,0.383,0.502
		c0.273,0.473,0.695,0.709,1.21,0.813c0.152,0.029,0.304,0.077,0.407,0.191c0.286,0.316,0.674,0.463,1.045,0.627
		c0.668,0.295,1.368,0.492,2.114,0.395c0.253-0.031,0.508-0.152,0.754-0.135c0.794,0.055,1.59,0.047,2.383,0.1
		c0.702,0.045,1.43-0.094,2.094,0.268c0.068,0.036,0.16,0.029,0.241,0.042c0.783,0.131,1.579,0.194,2.332,0.483
		c0.31,0.119,0.64,0.146,0.97,0.095c0.329-0.052,0.499-0.283,0.472-0.619c-0.03-0.353-0.174-0.649-0.426-0.897
		c-0.672-0.662-1.508-0.927-2.421-1.078c-0.959-0.158-1.944-0.23-2.844-0.662c-0.251-0.121-0.605-0.531-0.556-0.736
		c0.143-0.604,0.401-1.158,0.708-1.695c0.237-0.416,0.691-0.545,1.006-0.85c0.38-0.365,0.784-0.65,1.298-0.848
		c1.047-0.401,1.976-1.06,2.984-1.551c0.765-0.373,1.394-0.971,2.2-1.288c0.451-0.178,0.865-0.465,1.186-0.856
		c0.288-0.352,0.235-0.717-0.158-0.963c-0.272-0.17-0.573-0.199-0.881-0.152c-0.484,0.07-0.923,0.255-1.318,0.545
		c-0.235,0.177-0.464,0.359-0.756,0.436c-1.061,0.271-1.884,1.053-2.937,1.358c-0.383,0.11-0.717,0.389-1.08,0.579
		c-0.258,0.138-0.745,0.104-0.815-0.061c-0.135-0.318,0.159-0.424,0.321-0.587c0.644-0.65,1.428-1.136,2.079-1.78
		c0.896-0.887,1.733-1.836,2.757-2.589c0.234-0.172,0.411-0.421,0.534-0.688c0.151-0.327,0.174-0.679-0.07-0.963
		c-0.233-0.272-0.561-0.307-0.903-0.192c-0.392,0.13-0.752,0.313-1.088,0.558c-0.297,0.216-0.512,0.519-0.799,0.737
		c-0.778,0.594-1.403,1.368-2.241,1.893c-0.096,0.061-0.162,0.167-0.241,0.253c-0.48,0.528-0.964,1.053-1.538,1.487
		c-0.217,0.166-0.424,0.156-0.613,0.027c-0.196-0.133-0.06-0.324,0.01-0.475c0.358-0.761,0.646-1.556,1.13-2.254
		c0.121-0.175,0.188-0.373,0.254-0.575c0.22-0.68,0.474-1.334,1.033-1.839c0.28-0.255,0.468-0.608,0.608-0.977
		c0.104-0.273,0.104-0.525-0.077-0.761c-0.192-0.251-0.463-0.262-0.733-0.2c-0.492,0.111-0.842,0.441-1.136,0.83
		c-0.543,0.717-0.83,1.596-1.435,2.28c-0.411,0.467-0.495,1.138-0.947,1.588c-0.277,0.275-0.471,0.609-0.638,0.961
		c-0.156,0.325-0.48,0.477-0.803,0.379c-0.431-0.131-0.668-0.415-0.554-0.806c0.314-1.067,0.402-2.187,0.754-3.246
		c0.193-0.578,0.342-1.175,0.285-1.792c-0.06-0.646-0.593-0.871-1.107-0.483c-0.604,0.454-0.789,1.129-0.978,1.813
		c-0.277,1.01-0.26,2.071-0.653,3.069c-0.186,0.473-0.333,0.93-0.701,1.288c-0.367,0.354-0.547,0.851-0.896,1.205
		c-0.584,0.593-1.187,1.168-1.667,1.848c-0.446,0.631-0.873,1.283-1.026,2.057c-0.127,0.648-0.215,1.321,0.164,1.913
		C-87.097,14.282-86.78,15.027-86.206,15.597z"/>
	<path fill="#263A7F" d="M-86.206,15.597c-0.575-0.57-0.891-1.315-1.317-1.983c-0.379-0.592-0.292-1.265-0.164-1.913
		c0.153-0.773,0.58-1.426,1.026-2.057c0.481-0.68,1.083-1.255,1.667-1.848c0.349-0.354,0.529-0.853,0.896-1.205
		c0.367-0.357,0.515-0.815,0.701-1.288c0.393-0.998,0.375-2.062,0.653-3.069c0.188-0.684,0.374-1.358,0.978-1.813
		c0.515-0.389,1.048-0.162,1.107,0.483c0.057,0.617-0.092,1.213-0.285,1.792c-0.352,1.06-0.44,2.179-0.754,3.246
		c-0.114,0.391,0.124,0.674,0.554,0.806c0.323,0.098,0.647-0.054,0.803-0.379c0.167-0.352,0.361-0.686,0.638-0.962
		c0.452-0.45,0.536-1.121,0.947-1.587c0.605-0.685,0.892-1.563,1.435-2.28c0.294-0.389,0.644-0.719,1.136-0.83
		c0.27-0.063,0.541-0.052,0.733,0.2c0.181,0.235,0.181,0.487,0.077,0.761c-0.14,0.367-0.329,0.722-0.608,0.977
		c-0.559,0.505-0.813,1.159-1.033,1.839c-0.066,0.202-0.133,0.4-0.254,0.575c-0.484,0.698-0.771,1.494-1.13,2.254
		c-0.07,0.149-0.207,0.341-0.01,0.475c0.189,0.129,0.396,0.139,0.613-0.027c0.573-0.436,1.057-0.959,1.538-1.487
		c0.079-0.087,0.145-0.193,0.241-0.253c0.838-0.523,1.463-1.298,2.241-1.893c0.287-0.219,0.502-0.521,0.799-0.737
		c0.336-0.244,0.696-0.427,1.088-0.558c0.342-0.114,0.67-0.08,0.903,0.192c0.244,0.285,0.222,0.636,0.07,0.962
		c-0.123,0.269-0.3,0.517-0.534,0.688c-1.024,0.753-1.861,1.703-2.757,2.589c-0.65,0.646-1.435,1.13-2.079,1.78
		c-0.163,0.163-0.456,0.269-0.321,0.587c0.07,0.163,0.557,0.197,0.815,0.061c0.363-0.19,0.697-0.469,1.08-0.58
		c1.053-0.306,1.876-1.088,2.937-1.357c0.292-0.075,0.521-0.259,0.756-0.436c0.395-0.291,0.834-0.475,1.318-0.545
		c0.308-0.047,0.609-0.018,0.881,0.152c0.394,0.246,0.446,0.611,0.158,0.963c-0.321,0.392-0.735,0.68-1.186,0.856
		c-0.806,0.317-1.436,0.915-2.2,1.288c-1.008,0.491-1.937,1.148-2.984,1.551c-0.514,0.196-0.918,0.481-1.298,0.848
		c-0.314,0.305-0.769,0.434-1.006,0.849c-0.308,0.538-0.566,1.095-0.708,1.696c-0.05,0.205,0.304,0.615,0.556,0.736
		c0.9,0.432,1.885,0.504,2.844,0.662c0.914,0.151,1.75,0.416,2.421,1.078c0.251,0.248,0.396,0.547,0.426,0.897
		c0.027,0.336-0.143,0.567-0.472,0.618c-0.33,0.054-0.66,0.025-0.97-0.094c-0.753-0.289-1.549-0.354-2.332-0.483
		c-0.081-0.013-0.173-0.007-0.241-0.042c-0.665-0.36-1.393-0.223-2.094-0.268c-0.793-0.053-1.589-0.045-2.383-0.1
		c-0.247-0.018-0.501,0.104-0.754,0.135c-0.746,0.098-1.445-0.1-2.114-0.395c-0.371-0.164-0.76-0.311-1.045-0.627
		c-0.104-0.114-0.255-0.162-0.407-0.192c-0.516-0.103-0.938-0.339-1.21-0.812C-85.928,15.919-86.077,15.763-86.206,15.597z"/>
</g>
<g>
	<path fill="#78CCCE" d="M-77.063,26.087c0.288,0.855,0.301,1.84,0.385,2.816c0.05,0.598-0.343,0.984-0.635,1.402
		c-0.831,1.189-2.057,1.852-3.379,2.342c-0.542,0.201-1.044,0.459-1.519,0.779c-0.33,0.224-0.687,0.402-1.053,0.56
		c-0.168,0.071-0.299,0.179-0.378,0.349c-0.03,0.063-0.065,0.129-0.116,0.176c-0.816,0.729-1.257,1.729-1.871,2.604
		c-0.404,0.578-0.905,1.041-1.558,1.322c-0.513,0.221-0.92,0.117-1.212-0.289c-0.213-0.299-0.128-0.605-0.019-0.902
		c0.192-0.523,0.484-0.996,0.865-1.396c0.788-0.827,1.299-1.856,2.036-2.721c0.199-0.232,0.149-0.545-0.074-0.722
		c-0.234-0.183-0.459-0.163-0.69,0.038c-0.318,0.277-0.667,0.527-1.059,0.682c-0.49,0.189-0.762,0.662-1.21,0.883
		c-0.909,0.449-1.602,1.211-2.485,1.688c-0.444,0.239-0.904,0.451-1.438,0.332c-0.342-0.076-0.606-0.242-0.721-0.59
		c-0.12-0.365-0.046-0.684,0.231-0.965c0.341-0.348,0.729-0.66,1.177-0.807c0.681-0.226,1.063-0.769,1.53-1.229
		c0.116-0.115,0.212-0.263,0.349-0.345c0.727-0.435,1.296-1.061,1.942-1.594c0.075-0.062,0.214-0.099,0.145-0.234
		c-0.068-0.133-0.197-0.1-0.313-0.072c-0.63,0.145-1.232,0.369-1.813,0.654c-0.317,0.156-0.636,0.293-0.998,0.309
		c-0.137,0.006-0.282,0.045-0.404,0.105c-0.875,0.438-1.841,0.613-2.751,0.951c-0.49,0.184-1.028,0.211-1.561,0.119
		c-0.408-0.068-0.702-0.279-0.816-0.676c-0.12-0.417-0.004-0.79,0.332-1.074c0.507-0.427,1.104-0.65,1.754-0.74
		c0.127-0.019,0.256-0.021,0.371-0.092c0.522-0.326,1.134-0.441,1.68-0.701c1.077-0.512,2.253-0.701,3.356-1.119
		c0.064-0.023,0.153-0.025,0.165-0.109c0.016-0.105-0.091-0.121-0.154-0.163c-0.092-0.06-0.198-0.067-0.306-0.053
		c-0.721,0.093-1.438,0.124-2.168,0.058c-0.416-0.037-0.841,0.178-1.276,0.176c-0.022,0-0.048,0.01-0.07,0.006
		c-1.07-0.196-2.134,0.275-3.206,0.022c-0.387-0.093-0.694-0.282-0.914-0.603c-0.343-0.504-0.152-1.051,0.408-1.283
		c0.407-0.169,0.84-0.266,1.263-0.277c0.775-0.023,1.527-0.186,2.292-0.264c1.476-0.152,2.951-0.352,4.441-0.299
		c0.125,0.005,0.228-0.041,0.336-0.082c0.364-0.135,0.733-0.236,1.121-0.281c0.33-0.038,0.599-0.24,0.834-0.447
		c0.235-0.207,0.448-0.443,0.696-0.643c0.325-0.262,0.345-0.666,0.081-0.984c-0.624-0.754-1.491-1.186-2.284-1.707
		c-0.688-0.453-1.297-0.971-1.729-1.666c-0.33-0.529-0.413-1.117-0.168-1.717c0.146-0.352,0.474-0.35,0.771-0.35
		c0.343-0.002,0.631,0.188,0.875,0.406c0.657,0.59,1.386,1.072,2.154,1.5c0.052,0.028,0.105,0.059,0.143,0.101
		c0.738,0.798,1.799,1.004,2.715,1.472c0.153,0.078,0.32,0.137,0.477,0.217c0.424,0.219,0.842,0.435,1.323,0.537
		c1.136,0.244,1.89,1.037,2.544,1.926c0.23,0.313,0.436,0.627,0.759,0.858c0.283,0.202,0.467,0.487,0.549,0.833
		C-77.243,25.41-77.163,25.705-77.063,26.087z M-77.347,26.095c-0.051-0.205-0.126-0.406-0.152-0.613
		c-0.064-0.541-0.358-0.926-0.791-1.225c-0.128-0.088-0.248-0.191-0.299-0.338c-0.136-0.404-0.435-0.691-0.71-0.988
		c-0.498-0.537-1.062-0.994-1.784-1.2c-0.246-0.069-0.527-0.062-0.747-0.175c-0.708-0.363-1.441-0.672-2.149-1.033
		c-0.626-0.32-1.351-0.482-1.817-1.076c-0.048-0.061-0.135-0.09-0.205-0.135c-0.668-0.43-1.374-0.803-1.95-1.365
		c-0.236-0.234-0.529-0.389-0.854-0.473c-0.322-0.082-0.57,0.063-0.678,0.383c-0.112,0.336-0.098,0.666,0.035,0.992
		c0.355,0.875,1.019,1.449,1.797,1.949c0.817,0.524,1.693,0.981,2.349,1.734c0.184,0.21,0.345,0.729,0.219,0.896
		c-0.369,0.496-0.827,0.902-1.323,1.275c-0.382,0.287-0.85,0.227-1.259,0.381c-0.494,0.187-0.977,0.287-1.528,0.266
		c-1.12-0.047-2.233,0.189-3.354,0.242c-0.851,0.041-1.665,0.338-2.53,0.312c-0.484-0.015-0.978,0.085-1.427,0.317
		c-0.405,0.209-0.501,0.566-0.237,0.947c0.183,0.264,0.448,0.41,0.75,0.489c0.472,0.125,0.948,0.132,1.426,0.021
		c0.284-0.066,0.568-0.146,0.866-0.098c1.083,0.172,2.148-0.222,3.234-0.086c0.397,0.051,0.813-0.072,1.222-0.105
		c0.29-0.021,0.725,0.201,0.725,0.379c-0.002,0.345-0.313,0.326-0.527,0.412c-0.849,0.342-1.762,0.478-2.614,0.812
		c-1.174,0.46-2.318,1-3.558,1.286c-0.283,0.064-0.544,0.225-0.763,0.421c-0.269,0.241-0.428,0.554-0.316,0.911
		c0.106,0.344,0.394,0.504,0.753,0.535c0.411,0.035,0.815,0.01,1.22-0.08c0.358-0.082,0.675-0.273,1.024-0.361
		c0.951-0.238,1.832-0.701,2.807-0.851c0.112-0.017,0.216-0.089,0.322-0.138c0.65-0.295,1.302-0.584,2.001-0.758
		c0.264-0.064,0.451,0.025,0.574,0.219c0.127,0.201-0.073,0.322-0.196,0.432c-0.63,0.557-1.21,1.173-1.931,1.621
		c-0.181,0.113-0.321,0.27-0.461,0.428c-0.472,0.537-0.962,1.038-1.676,1.281c-0.358,0.121-0.672,0.373-0.946,0.656
		c-0.203,0.209-0.302,0.438-0.229,0.729c0.077,0.307,0.322,0.424,0.593,0.475c0.497,0.09,0.949-0.074,1.372-0.313
		c0.784-0.442,1.395-1.138,2.221-1.526c0.562-0.265,0.905-0.847,1.498-1.082c0.363-0.144,0.674-0.373,0.967-0.629
		c0.272-0.238,0.629-0.248,0.888-0.029c0.343,0.291,0.449,0.645,0.19,0.957c-0.711,0.856-1.235,1.85-1.978,2.683
		c-0.407,0.456-0.779,0.944-0.972,1.534c-0.202,0.617,0.199,1.035,0.826,0.883c0.734-0.178,1.171-0.725,1.615-1.277
		c0.655-0.816,1.06-1.799,1.815-2.561c0.358-0.36,0.674-0.723,1.153-0.904c0.477-0.181,0.838-0.566,1.299-0.752
		c0.771-0.313,1.551-0.602,2.263-1.037c0.659-0.402,1.31-0.832,1.756-1.482c0.373-0.543,0.722-1.127,0.607-1.819
		C-77.048,27.656-77.044,26.847-77.347,26.095z"/>
	<path fill="#62C5BF" d="M-77.347,26.095c0.302,0.752,0.298,1.561,0.425,2.344c0.114,0.691-0.234,1.275-0.607,1.82
		c-0.446,0.649-1.097,1.08-1.756,1.481c-0.712,0.437-1.492,0.726-2.263,1.037c-0.461,0.187-0.823,0.571-1.299,0.752
		c-0.479,0.183-0.795,0.544-1.153,0.904c-0.756,0.762-1.16,1.743-1.815,2.562c-0.443,0.553-0.881,1.1-1.615,1.276
		c-0.626,0.151-1.028-0.267-0.826-0.884c0.193-0.59,0.565-1.077,0.972-1.533c0.742-0.833,1.267-1.825,1.978-2.684
		c0.259-0.313,0.153-0.666-0.19-0.957c-0.258-0.217-0.615-0.207-0.888,0.029c-0.292,0.256-0.604,0.486-0.967,0.631
		c-0.593,0.234-0.936,0.816-1.498,1.082c-0.827,0.389-1.438,1.084-2.221,1.525c-0.423,0.24-0.875,0.404-1.372,0.314
		c-0.271-0.051-0.516-0.168-0.593-0.476c-0.073-0.289,0.026-0.521,0.229-0.729c0.274-0.282,0.588-0.535,0.946-0.655
		c0.714-0.243,1.204-0.744,1.676-1.281c0.14-0.159,0.281-0.313,0.461-0.428c0.721-0.448,1.301-1.063,1.931-1.621
		c0.124-0.108,0.323-0.229,0.196-0.433c-0.123-0.191-0.31-0.283-0.574-0.217c-0.699,0.174-1.351,0.461-2.001,0.756
		c-0.106,0.049-0.209,0.121-0.322,0.139c-0.976,0.148-1.856,0.611-2.807,0.852c-0.35,0.088-0.667,0.278-1.024,0.36
		c-0.405,0.09-0.809,0.116-1.22,0.08c-0.359-0.031-0.647-0.19-0.753-0.535c-0.111-0.356,0.048-0.67,0.316-0.911
		c0.219-0.197,0.479-0.355,0.763-0.421c1.239-0.286,2.384-0.827,3.558-1.286c0.853-0.334,1.766-0.47,2.614-0.813
		c0.214-0.086,0.525-0.066,0.527-0.412c0-0.178-0.435-0.399-0.725-0.377c-0.409,0.031-0.825,0.154-1.222,0.104
		c-1.086-0.135-2.152,0.258-3.234,0.086c-0.298-0.049-0.582,0.031-0.866,0.098c-0.478,0.111-0.954,0.105-1.426-0.02
		c-0.302-0.08-0.567-0.227-0.75-0.49c-0.265-0.381-0.168-0.738,0.237-0.945c0.449-0.233,0.943-0.334,1.428-0.317
		c0.866,0.026,1.68-0.271,2.53-0.312c1.121-0.053,2.234-0.289,3.354-0.242c0.551,0.021,1.034-0.079,1.528-0.266
		c0.409-0.154,0.877-0.094,1.259-0.381c0.496-0.373,0.954-0.779,1.323-1.275c0.126-0.17-0.035-0.688-0.219-0.896
		c-0.656-0.753-1.532-1.21-2.349-1.734c-0.778-0.5-1.442-1.074-1.797-1.949c-0.133-0.326-0.147-0.656-0.035-0.992
		c0.107-0.32,0.355-0.465,0.678-0.383c0.324,0.084,0.617,0.238,0.854,0.473c0.576,0.563,1.282,0.938,1.95,1.365
		c0.069,0.045,0.156,0.074,0.205,0.135c0.466,0.594,1.191,0.756,1.817,1.076c0.708,0.361,1.441,0.67,2.149,1.033
		c0.22,0.113,0.501,0.104,0.747,0.175c0.723,0.206,1.286,0.663,1.784,1.2c0.275,0.297,0.574,0.584,0.71,0.988
		c0.051,0.146,0.171,0.25,0.299,0.338c0.433,0.299,0.727,0.684,0.791,1.225C-77.474,25.689-77.397,25.89-77.347,26.095z"/>
</g>
<g>
	<path fill="#A7BEB6" d="M-90.55,23.667c-0.864,0.256-1.849,0.23-2.828,0.278c-0.598,0.028-0.972-0.38-1.378-0.687
		c-1.158-0.877-1.771-2.127-2.212-3.465c-0.18-0.551-0.417-1.062-0.721-1.547c-0.211-0.34-0.375-0.701-0.519-1.074
		c-0.065-0.17-0.168-0.306-0.334-0.392c-0.062-0.03-0.127-0.069-0.17-0.122c-0.7-0.843-1.681-1.32-2.534-1.968
		c-0.561-0.427-1.006-0.942-1.263-1.606c-0.2-0.521-0.082-0.922,0.335-1.199c0.306-0.203,0.611-0.104,0.903,0.016
		c0.516,0.211,0.976,0.521,1.362,0.917c0.797,0.817,1.807,1.366,2.642,2.136c0.226,0.207,0.538,0.17,0.723-0.047
		c0.193-0.227,0.181-0.453-0.011-0.689c-0.265-0.33-0.503-0.688-0.64-1.086c-0.173-0.496-0.633-0.785-0.837-1.242
		c-0.414-0.924-1.149-1.645-1.592-2.546c-0.222-0.452-0.417-0.92-0.278-1.449c0.089-0.338,0.267-0.598,0.616-0.697
		c0.369-0.105,0.685-0.02,0.956,0.269c0.334,0.354,0.632,0.753,0.763,1.207c0.198,0.688,0.727,1.091,1.17,1.574
		c0.111,0.12,0.254,0.223,0.33,0.36c0.408,0.744,1.011,1.336,1.52,2.001c0.06,0.079,0.091,0.219,0.23,0.152
		c0.135-0.063,0.106-0.192,0.084-0.309c-0.121-0.637-0.325-1.246-0.586-1.836c-0.144-0.324-0.269-0.647-0.271-1.01
		c-0.001-0.137-0.034-0.284-0.091-0.408c-0.405-0.891-0.543-1.862-0.847-2.784c-0.163-0.497-0.171-1.036-0.061-1.564
		c0.085-0.405,0.307-0.69,0.707-0.79c0.422-0.104,0.789,0.026,1.061,0.372c0.408,0.522,0.609,1.127,0.674,1.781
		c0.012,0.127,0.009,0.256,0.078,0.373c0.307,0.535,0.4,1.149,0.638,1.705c0.471,1.096,0.615,2.278,0.992,3.396
		c0.021,0.063,0.019,0.153,0.102,0.169c0.106,0.02,0.125-0.088,0.169-0.15c0.063-0.089,0.074-0.193,0.063-0.303
		c-0.065-0.723-0.07-1.44,0.024-2.17c0.053-0.412-0.145-0.845-0.127-1.279c0.001-0.022-0.007-0.049-0.003-0.069
		c0.237-1.063-0.193-2.144,0.099-3.206c0.106-0.384,0.308-0.684,0.636-0.89c0.515-0.324,1.055-0.112,1.266,0.457
		c0.154,0.412,0.234,0.849,0.231,1.271c-0.006,0.775,0.127,1.535,0.176,2.301c0.097,1.48,0.24,2.962,0.131,4.449
		c-0.009,0.122,0.033,0.229,0.069,0.34c0.122,0.366,0.209,0.739,0.239,1.131c0.026,0.33,0.218,0.606,0.417,0.851
		c0.199,0.244,0.426,0.465,0.615,0.719c0.25,0.335,0.652,0.369,0.981,0.119c0.776-0.596,1.242-1.445,1.792-2.219
		c0.479-0.67,1.02-1.259,1.729-1.664c0.542-0.312,1.132-0.371,1.723-0.104c0.346,0.155,0.332,0.485,0.32,0.782
		c-0.012,0.344-0.211,0.625-0.439,0.859c-0.614,0.635-1.125,1.344-1.58,2.096c-0.031,0.051-0.062,0.104-0.105,0.14
		c-0.825,0.707-1.071,1.761-1.574,2.657c-0.084,0.15-0.147,0.314-0.234,0.47c-0.234,0.415-0.465,0.824-0.587,1.302
		c-0.286,1.125-1.107,1.85-2.02,2.471c-0.321,0.219-0.643,0.41-0.887,0.726c-0.211,0.274-0.504,0.448-0.853,0.517
		C-89.866,23.515-90.162,23.583-90.55,23.667z M-90.546,23.384c0.207-0.043,0.411-0.111,0.619-0.127
		c0.543-0.045,0.938-0.324,1.253-0.746c0.093-0.125,0.2-0.24,0.348-0.284c0.409-0.122,0.709-0.409,1.017-0.673
		c0.555-0.479,1.033-1.023,1.266-1.738c0.079-0.244,0.082-0.523,0.203-0.74c0.391-0.693,0.727-1.414,1.115-2.107
		c0.343-0.614,0.531-1.332,1.143-1.775c0.063-0.046,0.096-0.132,0.142-0.197c0.455-0.652,0.855-1.345,1.44-1.898
		c0.241-0.229,0.408-0.514,0.502-0.834c0.095-0.319-0.041-0.572-0.355-0.691c-0.331-0.126-0.662-0.123-0.993-0.004
		c-0.888,0.322-1.487,0.963-2.017,1.723c-0.555,0.799-1.046,1.656-1.821,2.282c-0.217,0.175-0.739,0.317-0.904,0.185
		c-0.482-0.387-0.872-0.859-1.226-1.369c-0.272-0.393-0.195-0.856-0.333-1.272c-0.167-0.5-0.25-0.987-0.207-1.536
		c0.088-1.117-0.105-2.237-0.116-3.359c-0.008-0.853-0.275-1.677-0.216-2.541c0.033-0.483-0.047-0.981-0.262-1.438
		c-0.193-0.412-0.547-0.521-0.938-0.271c-0.271,0.172-0.426,0.432-0.518,0.729c-0.143,0.468-0.167,0.943-0.073,1.424
		c0.057,0.288,0.125,0.574,0.065,0.869c-0.212,1.076,0.14,2.154-0.037,3.236c-0.063,0.395,0.042,0.814,0.06,1.225
		c0.012,0.291-0.229,0.717-0.406,0.709c-0.345-0.015-0.313-0.326-0.391-0.541c-0.31-0.861-0.412-1.778-0.712-2.644
		c-0.415-1.189-0.912-2.354-1.151-3.603c-0.055-0.286-0.203-0.554-0.391-0.779c-0.231-0.277-0.538-0.448-0.899-0.35
		c-0.348,0.093-0.52,0.375-0.563,0.73c-0.051,0.41-0.041,0.815,0.035,1.223c0.067,0.361,0.247,0.686,0.321,1.039
		c0.201,0.957,0.631,1.855,0.744,2.836c0.013,0.113,0.082,0.219,0.125,0.327c0.271,0.661,0.534,1.323,0.682,2.026
		c0.056,0.269-0.042,0.449-0.24,0.566c-0.205,0.118-0.319-0.087-0.423-0.214c-0.532-0.649-1.126-1.254-1.548-1.989
		c-0.105-0.187-0.255-0.33-0.41-0.478c-0.519-0.492-1-1.002-1.216-1.723c-0.109-0.363-0.349-0.687-0.62-0.971
		c-0.202-0.213-0.429-0.32-0.72-0.259c-0.309,0.064-0.436,0.308-0.496,0.575c-0.11,0.493,0.038,0.95,0.261,1.382
		c0.413,0.801,1.084,1.438,1.442,2.277c0.243,0.572,0.813,0.937,1.025,1.539c0.129,0.367,0.348,0.688,0.592,0.988
		c0.227,0.28,0.223,0.639-0.004,0.889c-0.303,0.332-0.662,0.424-0.964,0.154c-0.83-0.744-1.802-1.305-2.606-2.078
		c-0.439-0.424-0.914-0.814-1.495-1.027c-0.61-0.225-1.043,0.158-0.914,0.791c0.149,0.74,0.679,1.197,1.215,1.662
		c0.791,0.685,1.758,1.125,2.49,1.91c0.347,0.371,0.697,0.701,0.86,1.186c0.162,0.484,0.533,0.859,0.703,1.328
		c0.283,0.781,0.543,1.572,0.95,2.301c0.377,0.674,0.783,1.34,1.416,1.811c0.529,0.395,1.1,0.765,1.797,0.677
		C-92.117,23.625-91.31,23.66-90.546,23.384z"/>
	<path fill="#9EB8AF" d="M-90.546,23.384c-0.763,0.274-1.57,0.238-2.357,0.338c-0.697,0.088-1.268-0.282-1.797-0.676
		c-0.633-0.471-1.038-1.138-1.416-1.811c-0.407-0.729-0.667-1.52-0.95-2.301c-0.17-0.469-0.541-0.844-0.703-1.328
		c-0.163-0.484-0.514-0.814-0.86-1.186c-0.732-0.785-1.699-1.227-2.49-1.91c-0.536-0.465-1.066-0.922-1.215-1.662
		c-0.129-0.633,0.304-1.016,0.914-0.791c0.581,0.213,1.055,0.604,1.495,1.027c0.804,0.773,1.776,1.334,2.606,2.078
		c0.303,0.27,0.661,0.178,0.964-0.154c0.227-0.25,0.231-0.607,0.004-0.889c-0.245-0.301-0.463-0.621-0.592-0.988
		c-0.213-0.604-0.782-0.967-1.025-1.539c-0.358-0.84-1.029-1.478-1.442-2.277c-0.223-0.432-0.371-0.889-0.261-1.382
		c0.06-0.269,0.188-0.511,0.496-0.575c0.291-0.063,0.518,0.046,0.72,0.258c0.271,0.285,0.511,0.607,0.62,0.972
		c0.216,0.721,0.697,1.229,1.216,1.723c0.155,0.146,0.305,0.291,0.41,0.478c0.422,0.735,1.016,1.34,1.548,1.989
		c0.104,0.127,0.219,0.332,0.423,0.213c0.197-0.116,0.295-0.298,0.24-0.565c-0.147-0.703-0.411-1.365-0.682-2.026
		c-0.044-0.108-0.112-0.214-0.125-0.327c-0.112-0.979-0.542-1.879-0.744-2.836c-0.074-0.354-0.254-0.678-0.321-1.039
		c-0.076-0.406-0.086-0.813-0.035-1.223c0.044-0.357,0.216-0.638,0.563-0.731c0.361-0.098,0.668,0.073,0.899,0.351
		c0.188,0.227,0.336,0.493,0.391,0.779c0.239,1.249,0.737,2.413,1.151,3.603c0.301,0.864,0.402,1.78,0.712,2.643
		c0.079,0.216,0.046,0.527,0.391,0.542c0.178,0.008,0.418-0.418,0.406-0.709c-0.018-0.41-0.123-0.83-0.06-1.225
		c0.177-1.082-0.175-2.16,0.037-3.236c0.06-0.295-0.009-0.582-0.065-0.869c-0.094-0.48-0.07-0.956,0.073-1.424
		c0.091-0.299,0.247-0.559,0.518-0.729c0.392-0.25,0.745-0.142,0.938,0.271c0.214,0.458,0.295,0.955,0.262,1.438
		c-0.06,0.864,0.208,1.688,0.216,2.541c0.011,1.122,0.204,2.242,0.116,3.359c-0.044,0.549,0.04,1.036,0.207,1.536
		c0.138,0.416,0.061,0.882,0.333,1.272c0.354,0.51,0.743,0.981,1.226,1.369c0.165,0.133,0.688-0.01,0.904-0.185
		c0.775-0.626,1.266-1.483,1.821-2.282c0.529-0.76,1.129-1.4,2.017-1.723c0.332-0.119,0.662-0.122,0.993,0.004
		c0.314,0.119,0.45,0.372,0.355,0.691c-0.094,0.32-0.261,0.605-0.502,0.834c-0.585,0.555-0.985,1.246-1.44,1.897
		c-0.046,0.066-0.079,0.152-0.142,0.198c-0.611,0.443-0.8,1.161-1.143,1.775c-0.388,0.693-0.724,1.414-1.115,2.107
		c-0.121,0.217-0.124,0.496-0.203,0.74c-0.232,0.715-0.711,1.261-1.266,1.738c-0.308,0.264-0.607,0.551-1.017,0.672
		c-0.147,0.045-0.255,0.16-0.348,0.285c-0.314,0.422-0.71,0.701-1.253,0.746C-90.135,23.273-90.339,23.341-90.546,23.384z"/>
</g>
</svg>
