<?xml version="1.0" encoding="utf-8"?>
<!-- Generator: Adobe Illustrator 16.0.3, SVG Export Plug-In . SVG Version: 6.00 Build 0)  -->
<!DOCTYPE svg PUBLIC "-//W3C//DTD SVG 1.1//EN" "http://www.w3.org/Graphics/SVG/1.1/DTD/svg11.dtd">
<svg version="1.1" id="Layer_1" xmlns="http://www.w3.org/2000/svg" xmlns:xlink="http://www.w3.org/1999/xlink" x="0px" y="0px"
	 width="625px" height="33.455px" viewBox="-114.667 0 625 33.455" enable-background="new -114.667 0 625 33.455"
	 xml:space="preserve">
<rect x="-114.667" y="6.299" width="130.833" height="27.155"/>
<rect x="16.167" y="6.313" fill="#263A7F" width="494.167" height="27.142"/>
<g>
	<g>
		<path fill="#FFFFFF" d="M-6.928,26.67l0.439,0.685c-0.594,0.61-1.253,0.916-1.978,0.916c-0.554,0-1.019-0.15-1.398-0.451
			c-0.378-0.301-0.71-0.83-0.995-1.588c-0.773,0.813-1.453,1.356-2.039,1.629c-0.586,0.273-1.29,0.41-2.112,0.41
			c-1.172,0-2.063-0.252-2.673-0.758c-0.61-0.505-0.916-1.15-0.916-1.939c0-1.188,0.698-2.176,2.093-2.961
			c1.396-0.785,3.253-1.309,5.573-1.568v-1.732c0-0.619-0.249-1.147-0.745-1.588c-0.497-0.438-1.127-0.658-1.892-0.658
			c-0.708,0-1.318,0.146-1.831,0.438c-0.366,0.22-0.549,0.437-0.549,0.647c0,0.121,0.098,0.313,0.293,0.572
			c0.236,0.325,0.354,0.614,0.354,0.866c0,0.367-0.118,0.666-0.354,0.897c-0.236,0.231-0.545,0.349-0.928,0.349
			c-0.407,0-0.747-0.14-1.02-0.416c-0.272-0.274-0.409-0.63-0.409-1.062c0-0.807,0.454-1.543,1.361-2.211
			c0.908-0.666,2.098-1,3.571-1c1.359,0,2.396,0.293,3.113,0.879c0.716,0.595,1.074,1.314,1.074,2.16v6.25
			c0,0.555,0.089,0.961,0.269,1.221c0.179,0.27,0.411,0.402,0.696,0.402C-7.61,27.062-7.277,26.933-6.928,26.67z M-10.932,21.849
			c-2.067,0.285-3.532,0.749-4.395,1.393c-0.643,0.488-0.964,1.18-0.964,2.074c0,0.627,0.167,1.117,0.5,1.472s0.769,0.53,1.306,0.53
			c0.96,0,1.792-0.363,2.496-1.092c0.704-0.729,1.056-1.643,1.056-2.74L-10.932,21.849L-10.932,21.849z"/>
		<path fill="#FFFFFF" d="M-1.568,9.667v8.508c0.48-0.68,1.013-1.188,1.599-1.521c0.586-0.334,1.225-0.504,1.917-0.504
			c1.343,0,2.478,0.524,3.406,1.574c0.928,1.051,1.392,2.435,1.392,4.15c0,1.863-0.499,3.367-1.495,4.511
			c-0.997,1.144-2.232,1.716-3.705,1.716c-0.7,0-1.335-0.139-1.904-0.416c-0.57-0.275-1.156-0.744-1.758-1.401
			c-0.464,0.739-0.912,1.346-1.343,1.817l-0.488-0.172c0.228-0.936,0.342-1.912,0.342-2.93V12.071c0-0.398-0.141-0.711-0.421-0.939
			c-0.281-0.229-0.678-0.342-1.19-0.342h-0.513V9.874L-1.568,9.667z M1.507,17.235c-0.92,0-1.668,0.399-2.246,1.201
			c-0.578,0.801-0.867,2.123-0.867,3.969c0,1.756,0.285,3.012,0.854,3.768s1.314,1.133,2.234,1.133c0.83,0,1.497-0.373,2.002-1.121
			c0.635-0.942,0.952-2.287,0.952-4.035c0-1.724-0.279-2.973-0.836-3.75C3.043,17.624,2.346,17.235,1.507,17.235z"/>
	</g>
	<g>
		<path fill="#FFFFFF" d="M-95.271,11.241l1.099-1.574h0.891l0.073,6.58h-0.806c-0.505-2.02-1.251-3.492-2.24-4.42
			c-0.988-0.928-2.126-1.391-3.412-1.391c-1.074,0-1.953,0.32-2.637,0.965c-0.684,0.644-1.025,1.43-1.025,2.356
			c0,0.579,0.13,1.086,0.39,1.521c0.26,0.436,0.648,0.791,1.165,1.063s1.491,0.563,2.924,0.871c2.011,0.438,3.421,0.881,4.23,1.328
			c0.81,0.446,1.414,1.011,1.813,1.69c0.398,0.679,0.598,1.476,0.598,2.386c0,1.629-0.547,2.977-1.642,4.047
			c-1.095,1.069-2.509,1.604-4.242,1.604c-1.864,0-3.483-0.602-4.858-1.807l-1.379,1.686h-0.878v-6.996h0.879
			c0.342,1.931,1.106,3.451,2.295,4.566c1.188,1.115,2.527,1.672,4.016,1.672c1.204,0,2.187-0.354,2.948-1.068
			c0.761-0.711,1.141-1.575,1.141-2.594c0-0.578-0.143-1.084-0.427-1.52c-0.285-0.436-0.737-0.803-1.355-1.1
			c-0.619-0.297-1.835-0.656-3.65-1.08c-1.994-0.471-3.353-1-4.077-1.586c-1.018-0.83-1.526-2.006-1.526-3.528
			c0-1.587,0.506-2.888,1.52-3.9c1.013-1.013,2.309-1.52,3.888-1.52c0.757,0,1.477,0.134,2.161,0.403
			C-96.71,10.167-96.002,10.614-95.271,11.241z"/>
		<path fill="#FFFFFF" d="M-87.25,11.827h0.818v4.664h3.699v1.123h-3.699v7.336c0,0.635,0.15,1.121,0.452,1.459
			c0.301,0.338,0.684,0.506,1.147,0.506c0.553,0,1.025-0.256,1.416-0.77c0.391-0.513,0.618-1.357,0.684-2.539h0.818
			c-0.049,1.522-0.395,2.651-1.038,3.389c-0.643,0.736-1.477,1.104-2.502,1.104c-0.944,0-1.683-0.259-2.215-0.775
			c-0.533-0.516-0.8-1.193-0.8-2.031v-7.678h-1.99v-0.855c0.907-0.154,1.597-0.531,2.071-1.135
			C-87.688,14.72-87.308,13.456-87.25,11.827z"/>
		<path fill="#FFFFFF" d="M-68.452,26.67l0.439,0.685c-0.594,0.61-1.253,0.916-1.978,0.916c-0.554,0-1.019-0.15-1.398-0.451
			c-0.378-0.301-0.71-0.83-0.995-1.588c-0.773,0.813-1.453,1.356-2.039,1.629c-0.586,0.273-1.29,0.41-2.112,0.41
			c-1.172,0-2.063-0.252-2.673-0.758c-0.61-0.505-0.916-1.15-0.916-1.939c0-1.188,0.698-2.176,2.093-2.961
			c1.396-0.785,3.253-1.309,5.573-1.568v-1.732c0-0.619-0.249-1.147-0.745-1.588c-0.497-0.438-1.127-0.658-1.892-0.658
			c-0.708,0-1.318,0.146-1.831,0.438c-0.366,0.22-0.549,0.437-0.549,0.647c0,0.121,0.098,0.313,0.293,0.572
			c0.236,0.325,0.354,0.614,0.354,0.866c0,0.367-0.118,0.666-0.354,0.897c-0.236,0.231-0.545,0.349-0.928,0.349
			c-0.407,0-0.747-0.14-1.02-0.416c-0.272-0.274-0.409-0.63-0.409-1.062c0-0.807,0.454-1.543,1.361-2.211
			c0.908-0.666,2.098-1,3.571-1c1.359,0,2.396,0.293,3.113,0.879c0.716,0.595,1.074,1.314,1.074,2.16v6.25
			c0,0.555,0.089,0.961,0.269,1.221c0.179,0.27,0.411,0.402,0.696,0.402C-69.134,27.062-68.801,26.933-68.452,26.67z
			 M-72.456,21.849c-2.067,0.285-3.532,0.749-4.395,1.393c-0.643,0.488-0.964,1.18-0.964,2.074c0,0.627,0.167,1.117,0.5,1.472
			s0.769,0.53,1.306,0.53c0.96,0,1.792-0.363,2.496-1.092c0.704-0.729,1.056-1.643,1.056-2.74L-72.456,21.849L-72.456,21.849z"/>
		<path fill="#FFFFFF" d="M-63.618,11.827h0.818v4.664h3.699v1.123h-3.699v7.336c0,0.635,0.15,1.121,0.452,1.459
			c0.301,0.338,0.684,0.506,1.147,0.506c0.553,0,1.025-0.256,1.416-0.77c0.391-0.513,0.618-1.357,0.684-2.539h0.818
			c-0.049,1.522-0.395,2.651-1.038,3.389c-0.643,0.736-1.477,1.104-2.502,1.104c-0.944,0-1.683-0.259-2.215-0.775
			c-0.533-0.516-0.8-1.193-0.8-2.031v-7.678h-1.99v-0.855c0.907-0.154,1.597-0.531,2.071-1.135
			C-64.055,14.72-63.674,13.456-63.618,11.827z"/>
		<path fill="#FFFFFF" d="M-55.523,23.62c0.504,1.408,1.084,2.382,1.739,2.923c0.655,0.542,1.463,0.812,2.423,0.812
			c0.887,0,1.569-0.192,2.044-0.578c0.477-0.388,0.714-0.877,0.714-1.473c0-0.342-0.088-0.641-0.263-0.896
			c-0.175-0.256-0.418-0.446-0.728-0.573c-0.31-0.126-1.113-0.312-2.41-0.556c-1.239-0.243-2.103-0.5-2.592-0.77
			c-0.489-0.27-0.87-0.639-1.143-1.111c-0.273-0.471-0.409-0.983-0.409-1.537c0-0.838,0.281-1.6,0.844-2.282
			c0.725-0.871,1.74-1.308,3.044-1.308c0.994,0,1.915,0.314,2.763,0.94l0.807-0.854h0.501l0.318,4.078h-0.818
			c-0.359-1.156-0.844-1.988-1.456-2.496c-0.612-0.51-1.366-0.764-2.263-0.764c-0.775,0-1.382,0.188-1.822,0.567
			c-0.44,0.378-0.661,0.841-0.661,1.386c0,0.48,0.204,0.879,0.611,1.195c0.399,0.326,1.182,0.582,2.348,0.771
			c1.353,0.229,2.234,0.42,2.642,0.575c0.668,0.244,1.185,0.62,1.552,1.129c0.367,0.51,0.55,1.128,0.55,1.86
			c0,1.009-0.397,1.862-1.192,2.563s-1.803,1.05-3.025,1.05c-1.133,0-2.184-0.375-3.154-1.123l-0.893,1.024H-56.1l-0.245-4.553
			L-55.523,23.62L-55.523,23.62z"/>
	</g>
	<rect x="-38.474" fill="#FFD155" width="5.307" height="27.967"/>
	<rect x="-33.09" y="21.563" fill="#263A7F" width="5.257" height="6.364"/>
	<rect x="-27.708" y="19.264" fill="#62C5BF" width="5.208" height="8.66"/>
</g>
</svg>
