<?xml version="1.0" encoding="utf-8"?>
<!-- Generator: Adobe Illustrator 16.0.3, SVG Export Plug-In . SVG Version: 6.00 Build 0)  -->
<!DOCTYPE svg PUBLIC "-//W3C//DTD SVG 1.1//EN" "http://www.w3.org/Graphics/SVG/1.1/DTD/svg11.dtd">
<svg version="1.1" id="Layer_1" xmlns="http://www.w3.org/2000/svg" xmlns:xlink="http://www.w3.org/1999/xlink" x="0px" y="0px"
	 width="625px" height="34.117px" viewBox="-114.667 0 625 34.117" enable-background="new -114.667 0 625 34.117"
	 xml:space="preserve">
<rect x="-114.667" y="6.803" width="111.461" height="27.271"/>
<rect x="-3.206" y="6.803" fill="#FFD155" width="513.539" height="27.271"/>
<g>
	<path fill="#FFFFFF" d="M-106.941,10.714h14.661l0.354,6.824h-0.842c-0.555-4.013-2.006-6.019-4.355-6.019
		c-0.473,0-0.797,0.082-0.972,0.244c-0.176,0.162-0.263,0.433-0.263,0.806v14.43c0,0.293,0.085,0.508,0.256,0.646
		c0.171,0.139,0.452,0.207,0.842,0.207h1.819v0.916h-8.386v-0.916h2.075c0.276,0,0.488-0.067,0.635-0.207
		c0.147-0.139,0.22-0.319,0.22-0.549V12.46c0-0.31-0.094-0.543-0.281-0.701c-0.188-0.157-0.488-0.237-0.903-0.237
		c-1.18,0-2.165,0.557-2.954,1.672c-0.651,0.92-1.119,2.369-1.404,4.346h-0.893L-106.941,10.714z"/>
	<path fill="#FFFFFF" d="M-92.28,17.331l4.114-0.207v4.625c0.439-1.521,0.968-2.672,1.587-3.453c0.618-0.78,1.383-1.172,2.295-1.172
		c0.618,0,1.113,0.188,1.483,0.565c0.371,0.38,0.556,0.886,0.556,1.521c0,0.515-0.124,0.912-0.372,1.197
		c-0.249,0.284-0.56,0.428-0.934,0.428c-0.366,0-0.661-0.123-0.885-0.366c-0.224-0.244-0.335-0.574-0.335-0.988
		c0-0.271,0.065-0.521,0.195-0.758c0.122-0.211,0.183-0.336,0.183-0.377c0-0.123-0.078-0.185-0.232-0.185
		c-0.334,0-0.712,0.194-1.135,0.586c-0.586,0.545-1.038,1.293-1.355,2.246c-0.488,1.479-0.732,2.666-0.732,3.553v2.453
		c0,0.276,0.098,0.488,0.293,0.635c0.195,0.147,0.529,0.22,1.001,0.22h1.453v0.916h-7.104v-0.916h1.135
		c0.382,0,0.671-0.074,0.867-0.226c0.196-0.151,0.293-0.332,0.293-0.543v-7.289c0-0.553-0.118-0.957-0.354-1.213
		c-0.236-0.258-0.574-0.385-1.013-0.385h-1.001v-0.867H-92.28z"/>
	<path fill="#FFFFFF" d="M-81.257,17.331h5.481v0.83h-0.513c-0.48,0-0.808,0.063-0.983,0.188s-0.262,0.308-0.262,0.543
		c0,0.105,0.024,0.211,0.073,0.316l3.187,6.873l2.368-5.701c0.171-0.406,0.256-0.805,0.256-1.195c0-0.301-0.118-0.535-0.354-0.701
		c-0.236-0.168-0.708-0.274-1.416-0.323v-0.83h4.761v0.83c-0.92,0.09-1.538,0.5-1.855,1.231l-4.232,9.847
		c-0.719,1.672-1.44,2.819-2.165,3.446c-0.732,0.636-1.518,0.953-2.356,0.953c-0.61,0-1.101-0.168-1.471-0.5
		c-0.37-0.334-0.555-0.746-0.555-1.233c0-0.365,0.114-0.666,0.342-0.902c0.228-0.235,0.513-0.354,0.854-0.354
		c0.309,0,0.569,0.103,0.781,0.306C-79.105,31.157-79,31.4-79,31.686c0,0.09-0.017,0.211-0.049,0.365
		c-0.033,0.123-0.049,0.213-0.049,0.271c0,0.194,0.126,0.293,0.378,0.293c0.269,0,0.572-0.099,0.909-0.293
		c0.338-0.195,0.653-0.511,0.946-0.939c0.293-0.432,0.807-1.387,1.541-2.866l-4.341-9.306c-0.154-0.323-0.347-0.565-0.578-0.726
		c-0.231-0.159-0.57-0.268-1.017-0.323v-0.83H-81.257z"/>
	<path fill="#FFFFFF" d="M-60.519,10.714h8.325v0.916h-1.428c-0.635,0-1.036,0.08-1.203,0.238c-0.167,0.157-0.25,0.494-0.25,1.008
		v13.672c0,0.546,0.073,0.888,0.22,1.025c0.195,0.188,0.549,0.278,1.062,0.278h1.599v0.916h-8.325v-0.916h1.575
		c0.553,0,0.911-0.08,1.074-0.244c0.163-0.161,0.244-0.516,0.244-1.061V12.876c0-0.521-0.073-0.844-0.22-0.965
		c-0.228-0.188-0.647-0.281-1.257-0.281h-1.416V10.714z"/>
	<path fill="#FFFFFF" d="M-47.433,12.667h0.818v4.664h3.699v1.123h-3.699v7.336c0,0.635,0.15,1.121,0.452,1.459
		c0.301,0.338,0.684,0.506,1.147,0.506c0.553,0,1.025-0.256,1.416-0.768c0.391-0.515,0.618-1.359,0.684-2.539h0.818
		c-0.049,1.521-0.395,2.649-1.038,3.387c-0.643,0.736-1.477,1.104-2.502,1.104c-0.944,0-1.683-0.26-2.215-0.774
		c-0.533-0.519-0.8-1.194-0.8-2.033v-7.678h-1.99V17.6c0.907-0.154,1.597-0.531,2.071-1.136
		C-47.87,15.563-47.49,14.296-47.433,12.667z"/>
</g>
<g>
	<g>
		<path fill="none" stroke="#000000" stroke-width="3" stroke-linejoin="bevel" d="M-13.724,28.486
			c-0.083-0.496-0.149-0.992-0.199-1.486"/>
		<path fill="none" stroke="#000000" stroke-width="3" stroke-linejoin="bevel" stroke-dasharray="3.0398,3.0398" d="M-14.032,23.96
			c0.324-10.86,8.276-20.335,19.4-22.185c11.641-1.938,22.697,5.148,26.025,16.149"/>
		<path fill="none" stroke="#000000" stroke-width="3" stroke-linejoin="bevel" d="M31.788,19.395
			c0.112,0.483,0.21,0.975,0.293,1.473"/>
		<g>
			<polygon points="26.354,20.178 33.388,28.725 37.273,18.361 			"/>
		</g>
	</g>
</g>
<g>
	<path fill="#FFD155" d="M-19.75,19.43l-2.199,8.09l4.1-1.287c1.188-0.373,2.039-0.937,2.556-1.685
		c0.517-0.75,0.7-2.016,0.549-3.797l0.685-0.215l1.433,5.517l-10.458,3.284l-0.206-0.653l2.256-7.986l-6.07-5.184l-0.231-0.736
		l9.852-3.094l1.838,4.893l-0.685,0.215c-0.524-1.096-1.073-1.891-1.646-2.385c-0.575-0.492-1.17-0.768-1.785-0.824
		c-0.617-0.057-1.319,0.037-2.108,0.285l-3.219,1.012L-19.75,19.43z"/>
</g>
</svg>
