<?xml version="1.0" encoding="utf-8"?>
<!-- Generator: Adobe Illustrator 18.0.0, SVG Export Plug-In . SVG Version: 6.00 Build 0)  -->
<!DOCTYPE svg PUBLIC "-//W3C//DTD SVG 1.1//EN" "http://www.w3.org/Graphics/SVG/1.1/DTD/svg11.dtd">
<svg version="1.1" id="Layer_1" xmlns="http://www.w3.org/2000/svg" xmlns:xlink="http://www.w3.org/1999/xlink" x="0px" y="0px"
	 viewBox="0 0 612 792" enable-background="new 0 0 612 792" xml:space="preserve">
<g>
	<g>
		<g>
			<defs>
				<rect id="SVGID_1_" x="147.5" y="338.1" width="304" height="39.5"/>
			</defs>
			<clipPath id="SVGID_2_">
				<use xlink:href="#SVGID_1_"  overflow="visible"/>
			</clipPath>
			<path clip-path="url(#SVGID_2_)" fill="#BC492A" d="M166.5,345.6c0,0-10.2,0-10.2,11v3.3c0,0,0,11,10.2,11h265.9
				c0,0,10.2,0,10.2-11v-3.3c0,0,0-11-10.2-11H166.5z"/>
		</g>
		<g>
			<defs>
				<rect id="SVGID_3_" x="147.5" y="338.1" width="304" height="39.5"/>
			</defs>
			<clipPath id="SVGID_4_">
				<use xlink:href="#SVGID_3_"  overflow="visible"/>
			</clipPath>
			<path clip-path="url(#SVGID_4_)" fill="none" stroke="#BC492A" d="M166.5,345.6c0,0-10.2,0-10.2,11v3.3c0,0,0,11,10.2,11h265.9
				c0,0,10.2,0,10.2-11v-3.3c0,0,0-11-10.2-11H166.5z"/>
		</g>
	</g>
	<g>
		<path fill="#FFFFFF" d="M193.7,360.8c0.3,0,0.6,0,0.7-0.1s0.4-0.2,0.6-0.4c0.2-0.2,0.3-0.3,0.4-0.5c0.1-0.2,0.2-0.4,0.3-0.6
			l1.4,0.6c-0.1,0.3-0.3,0.6-0.5,0.9c-0.2,0.3-0.4,0.5-0.7,0.8c-0.3,0.3-0.6,0.4-0.9,0.5c-0.4,0.1-0.8,0.2-1.3,0.2
			c-0.7,0-1.2-0.1-1.8-0.3c-0.6-0.2-0.9-0.5-1.2-0.9c-0.3-0.4-0.6-0.8-0.7-1.4s-0.2-1.1-0.2-1.7s0.1-1.2,0.2-1.7
			c0.1-0.5,0.4-1,0.7-1.3c0.4-0.3,0.7-0.6,1.2-0.8c0.5-0.2,1-0.3,1.7-0.3c0.5,0,0.9,0.1,1.3,0.2s0.7,0.3,0.9,0.5s0.5,0.4,0.7,0.7
			s0.3,0.6,0.5,0.9l-1.4,0.4c-0.1-0.2-0.1-0.3-0.3-0.5s-0.3-0.3-0.4-0.4c-0.1-0.1-0.4-0.2-0.6-0.3c-0.2-0.1-0.5-0.1-0.7-0.1
			c-0.4,0-0.7,0.1-1,0.2c-0.3,0.1-0.5,0.3-0.7,0.6c-0.2,0.3-0.3,0.5-0.4,0.9c-0.1,0.4-0.1,0.7-0.1,1.2c0,0.4,0,0.8,0.1,1.2
			c0.1,0.4,0.2,0.7,0.4,0.9c0.2,0.2,0.4,0.5,0.7,0.6S193.2,360.8,193.7,360.8z"/>
		<path fill="#FFFFFF" d="M199.6,357c0.2-0.5,0.5-0.8,0.7-1.1c0.3-0.3,0.7-0.3,1.1-0.3c0.4,0,0.7,0.1,0.9,0.2
			c0.3,0.1,0.5,0.3,0.6,0.5c0.1,0.2,0.3,0.5,0.4,0.8c0.1,0.3,0.1,0.6,0.1,1v4h-1.5v-3.6c0-0.2,0-0.5-0.1-0.7
			c-0.1-0.2-0.1-0.4-0.2-0.5c-0.1-0.1-0.2-0.3-0.4-0.3s-0.3-0.1-0.5-0.1c-0.2,0-0.4,0-0.5,0.1c-0.1,0.1-0.3,0.2-0.4,0.4
			c-0.1,0.2-0.2,0.4-0.3,0.6s-0.1,0.5-0.1,0.7v3.4h-1.5v-8.7h1.5v2.4c0,0.1,0,0.3,0,0.4s0,0.2,0,0.4s0,0.2,0,0.3
			S199.6,356.9,199.6,357L199.6,357z"/>
		<path fill="#FFFFFF" d="M207.3,362.2c-0.5,0-0.8-0.1-1.1-0.2c-0.3-0.1-0.7-0.3-0.8-0.6s-0.5-0.6-0.6-1c-0.1-0.4-0.2-0.9-0.2-1.5
			s0.1-1.1,0.2-1.5c0.1-0.4,0.4-0.7,0.7-1c0.3-0.3,0.6-0.4,0.9-0.6s0.7-0.2,1-0.2c0.5,0,0.8,0.1,1.2,0.3s0.6,0.4,0.8,0.7
			c0.3,0.3,0.4,0.7,0.5,1.1c0.1,0.4,0.2,0.9,0.2,1.4l0,0h-3.8c0,0.3,0,0.5,0.1,0.7c0.1,0.2,0.1,0.4,0.2,0.6c0.1,0.2,0.2,0.3,0.4,0.4
			s0.4,0.1,0.6,0.1c0.3,0,0.5-0.1,0.7-0.2s0.3-0.3,0.4-0.6l1.5,0.1c-0.1,0.2-0.2,0.4-0.3,0.6c-0.1,0.2-0.3,0.4-0.5,0.6
			c-0.2,0.2-0.5,0.3-0.7,0.4C208.2,361.9,207.8,362.2,207.3,362.2z M207.3,356.6c-0.2,0-0.3,0-0.5,0.1c-0.2,0.1-0.3,0.1-0.4,0.3
			c-0.1,0.2-0.2,0.3-0.3,0.5c-0.1,0.2-0.1,0.4-0.1,0.7h2.3c0-0.5-0.2-0.9-0.4-1.2S207.7,356.6,207.3,356.6z"/>
		<path fill="#FFFFFF" d="M213.6,362.2c-0.5,0-0.8-0.1-1.2-0.2s-0.7-0.4-0.8-0.7s-0.4-0.6-0.6-1s-0.2-0.8-0.2-1.3s0.1-1,0.2-1.4
			c0.1-0.4,0.3-0.8,0.6-1c0.3-0.2,0.6-0.5,0.9-0.6c0.4-0.1,0.7-0.2,1.2-0.2c0.4,0,0.7,0.1,1,0.2c0.3,0.1,0.6,0.3,0.7,0.4
			s0.4,0.4,0.6,0.7s0.2,0.5,0.3,0.8l-1.6,0.1c0-0.3-0.2-0.6-0.4-0.8c-0.2-0.2-0.5-0.3-0.7-0.3c-0.4,0-0.7,0.2-0.9,0.5
			s-0.3,0.9-0.3,1.6c0,1.5,0.4,2.2,1.2,2.2c0.3,0,0.6-0.1,0.7-0.3c0.2-0.2,0.3-0.5,0.4-0.9l1.6,0.1c0,0.3-0.1,0.6-0.3,0.8
			s-0.3,0.5-0.6,0.7s-0.5,0.4-0.8,0.5S214,362.2,213.6,362.2z"/>
		<path fill="#FFFFFF" d="M221.1,362l-1.6-2.9l-0.7,0.5v2.4h-1.5v-8.7h1.5v5l2.1-2.6h1.7l-2,2.5l2.2,3.9L221.1,362L221.1,362z"/>
		<path fill="#FFFFFF" d="M230.2,358.7v3.4h-1.6v-3.4l-2.7-4.9h1.7l1.9,3.5l1.9-3.5h1.7L230.2,358.7z"/>
		<path fill="#FFFFFF" d="M238.6,358.9c0,0.5-0.1,0.9-0.2,1.3c-0.1,0.4-0.3,0.7-0.6,1c-0.3,0.3-0.6,0.5-0.9,0.7s-0.8,0.2-1.3,0.2
			c-0.5,0-0.9-0.1-1.3-0.2s-0.7-0.4-0.9-0.7c-0.3-0.3-0.5-0.6-0.6-1s-0.2-0.9-0.2-1.3c0-0.5,0.1-0.9,0.2-1.3c0.1-0.4,0.3-0.7,0.6-1
			c0.3-0.3,0.6-0.5,0.9-0.7s0.8-0.2,1.3-0.2c0.6,0,1,0.1,1.4,0.2c0.4,0.1,0.7,0.4,0.9,0.7c0.3,0.3,0.4,0.6,0.6,1
			S238.6,358.4,238.6,358.9z M237,358.9c0-0.8-0.1-1.3-0.4-1.6c-0.3-0.3-0.6-0.5-1-0.5s-0.8,0.2-1,0.5s-0.4,0.9-0.4,1.6
			c0,0.4,0,0.7,0.1,1c0.1,0.3,0.2,0.5,0.3,0.7c0.1,0.2,0.3,0.3,0.5,0.4s0.4,0.1,0.6,0.1c0.2,0,0.5,0,0.6-0.1
			c0.1-0.1,0.3-0.2,0.5-0.4s0.2-0.4,0.3-0.7C237,359.6,237,359.2,237,358.9z"/>
		<path fill="#FFFFFF" d="M241.3,355.7v3.6c0,0.2,0,0.5,0.1,0.7c0.1,0.2,0.1,0.4,0.2,0.5c0.1,0.1,0.2,0.3,0.3,0.3
			c0.1,0,0.3,0.1,0.5,0.1s0.4,0,0.5-0.1c0.1-0.1,0.3-0.2,0.4-0.4c0.1-0.2,0.2-0.4,0.3-0.6c0.1-0.2,0.1-0.5,0.1-0.7v-3.4h1.5v4.9
			c0,0.1,0,0.3,0,0.4s0,0.3,0,0.4s0,0.2,0,0.4s0,0.2,0,0.2h-1.5c0,0,0-0.1,0-0.2s0-0.2,0-0.3s0-0.3,0-0.4s0-0.2,0-0.3l0,0
			c-0.2,0.5-0.5,0.8-0.7,1s-0.7,0.3-1.1,0.3c-0.4,0-0.7-0.1-0.9-0.2s-0.5-0.3-0.6-0.5c-0.1-0.2-0.3-0.5-0.4-0.8
			c-0.1-0.3-0.1-0.6-0.1-1v-4h1.6V355.7z"/>
		<path fill="#FFFFFF" d="M246.7,362v-4.9c0-0.1,0-0.3,0-0.4s0-0.3,0-0.4s0-0.3,0-0.4s0-0.2,0-0.2h1.5c0,0,0,0.1,0,0.2s0,0.2,0,0.4
			s0,0.3,0,0.4s0,0.2,0,0.3l0,0c0.1-0.2,0.2-0.4,0.2-0.6s0.2-0.3,0.3-0.5c0.1-0.2,0.2-0.2,0.4-0.3s0.3-0.1,0.6-0.1
			c0.1,0,0.2,0,0.3,0c0.1,0,0.2,0,0.2,0.1v1.4c-0.1,0-0.2,0-0.3-0.1c-0.1-0.1-0.2,0-0.4,0c-0.4,0-0.7,0.2-0.9,0.5
			c-0.3,0.3-0.3,0.8-0.3,1.5v3.1H246.7z"/>
		<path fill="#FFFFFF" d="M257.3,362.2c-0.5,0-0.9-0.1-1.3-0.2s-0.7-0.3-1-0.6c-0.3-0.3-0.6-0.6-0.7-1c-0.1-0.4-0.3-0.9-0.3-1.5
			v-5.2h1.6v5c0,0.3,0,0.6,0.1,0.9c0.1,0.3,0.2,0.5,0.4,0.6c0.2,0.1,0.4,0.3,0.6,0.4c0.2,0.1,0.5,0.1,0.7,0.1s0.5,0,0.7-0.1
			s0.4-0.2,0.6-0.4c0.2-0.2,0.3-0.4,0.4-0.6c0.1-0.2,0.1-0.6,0.1-0.9v-5h1.6v5.1c0,0.6-0.1,1.1-0.3,1.5c-0.2,0.4-0.4,0.8-0.7,1
			s-0.7,0.5-1.1,0.6C258.1,362,257.7,362.2,257.3,362.2z"/>
		<path fill="#FFFFFF" d="M265.9,362v-3.6c0-0.2,0-0.5-0.1-0.7c-0.1-0.2-0.1-0.4-0.2-0.5s-0.2-0.3-0.4-0.3c-0.2,0-0.3-0.1-0.5-0.1
			c-0.2,0-0.4,0-0.5,0.1s-0.3,0.2-0.4,0.4s-0.2,0.4-0.3,0.6c-0.1,0.2-0.1,0.5-0.1,0.7v3.4h-1.5v-4.9c0-0.1,0-0.3,0-0.4s0-0.3,0-0.4
			s0-0.2,0-0.4s0-0.2,0-0.2h1.5c0,0,0,0.1,0,0.2s0,0.2,0,0.3s0,0.3,0,0.4s0,0.2,0,0.3l0,0c0.2-0.5,0.5-0.8,0.7-1.1s0.7-0.3,1.1-0.3
			c0.4,0,0.7,0.1,0.9,0.2s0.5,0.3,0.6,0.5c0.1,0.2,0.3,0.5,0.4,0.8s0.1,0.6,0.1,1v4H265.9z"/>
		<path fill="#FFFFFF" d="M272.8,362c0,0,0-0.1,0-0.2s0-0.2,0-0.3s0-0.2,0-0.3s0-0.2,0-0.3l0,0c-0.2,0.4-0.5,0.7-0.7,0.9
			c-0.3,0.2-0.7,0.3-1.1,0.3c-0.4,0-0.7-0.1-0.9-0.2c-0.3-0.1-0.5-0.4-0.7-0.7c-0.2-0.3-0.3-0.6-0.4-1c-0.1-0.4-0.1-0.8-0.1-1.3
			s0-0.9,0.1-1.3c0.1-0.4,0.2-0.7,0.4-1c0.2-0.3,0.5-0.5,0.7-0.7s0.7-0.2,1-0.2c0.2,0,0.4,0,0.6,0.1c0.2,0.1,0.4,0.1,0.5,0.2
			s0.3,0.2,0.4,0.3s0.2,0.3,0.3,0.5l0,0c0,0,0-0.1,0-0.2s0-0.2,0-0.3s0-0.2,0-0.3s0-0.2,0-0.3v-2.3h1.5v7.3c0,0.3,0,0.6,0,0.8
			s0,0.4,0,0.6h-1.5V362z M272.7,358.8c0-0.4,0-0.8-0.1-1s-0.2-0.5-0.3-0.7c-0.1-0.2-0.3-0.3-0.4-0.3c-0.1,0-0.3-0.1-0.5-0.1
			s-0.4,0-0.6,0.1c-0.2,0.1-0.3,0.2-0.4,0.4c-0.1,0.2-0.2,0.4-0.3,0.7c-0.1,0.3-0.1,0.6-0.1,1c0,1.4,0.4,2.2,1.2,2.2
			c0.2,0,0.3,0,0.5-0.1s0.3-0.2,0.4-0.4s0.2-0.4,0.3-0.7S272.7,359.3,272.7,358.8z"/>
		<path fill="#FFFFFF" d="M278.2,362.2c-0.5,0-0.8-0.1-1.1-0.2s-0.7-0.3-0.8-0.6c-0.2-0.3-0.5-0.6-0.6-1s-0.2-0.9-0.2-1.5
			s0.1-1.1,0.2-1.5s0.4-0.7,0.7-1s0.6-0.4,0.9-0.6s0.7-0.2,1-0.2c0.5,0,0.8,0.1,1.2,0.3s0.6,0.4,0.8,0.7c0.3,0.3,0.4,0.7,0.5,1.1
			s0.2,0.9,0.2,1.4l0,0h-3.9c0,0.3,0,0.5,0.1,0.7c0.1,0.2,0.1,0.4,0.2,0.6s0.2,0.3,0.4,0.4c0.2,0.1,0.4,0.1,0.6,0.1
			c0.3,0,0.5-0.1,0.7-0.2c0.2-0.1,0.3-0.3,0.4-0.6l1.5,0.1c-0.1,0.2-0.2,0.4-0.3,0.6c-0.1,0.2-0.3,0.4-0.5,0.6s-0.5,0.3-0.7,0.4
			S278.6,362.2,278.2,362.2z M278.2,356.6c-0.2,0-0.3,0-0.5,0.1c-0.2,0.1-0.3,0.1-0.4,0.3s-0.2,0.3-0.3,0.5s-0.1,0.4-0.1,0.7h2.3
			c0-0.5-0.2-0.9-0.4-1.2C278.7,356.7,278.6,356.6,278.2,356.6z"/>
		<path fill="#FFFFFF" d="M282,362v-4.9c0-0.1,0-0.3,0-0.4s0-0.3,0-0.4s0-0.3,0-0.4s0-0.2,0-0.2h1.5c0,0,0,0.1,0,0.2s0,0.2,0,0.4
			s0,0.3,0,0.4s0,0.2,0,0.3l0,0c0.1-0.2,0.2-0.4,0.2-0.6s0.2-0.3,0.3-0.5s0.2-0.2,0.4-0.3c0.2-0.1,0.3-0.1,0.6-0.1
			c0.1,0,0.2,0,0.3,0c0.1,0,0.2,0,0.2,0.1v1.4c-0.1,0-0.2,0-0.3-0.1c-0.1-0.1-0.2,0-0.4,0c-0.4,0-0.7,0.2-0.9,0.5
			c-0.3,0.3-0.3,0.8-0.3,1.5v3.1H282z"/>
		<path fill="#FFFFFF" d="M291.3,360.2c0,0.3-0.1,0.6-0.2,0.8s-0.3,0.4-0.6,0.6s-0.5,0.3-0.8,0.4s-0.7,0.1-1.1,0.1
			c-0.4,0-0.7,0-1-0.1s-0.6-0.2-0.8-0.3s-0.4-0.3-0.6-0.5c-0.2-0.2-0.3-0.5-0.4-0.8l1.3-0.2c0,0.2,0.1,0.3,0.2,0.4s0.2,0.2,0.3,0.3
			c0.1,0.1,0.3,0.1,0.4,0.1c0.1,0,0.3,0,0.6,0c0.2,0,0.4,0,0.5,0c0.1,0,0.3-0.1,0.4-0.1s0.2-0.1,0.3-0.2c0.1-0.1,0.1-0.2,0.1-0.4
			c0-0.2,0-0.3-0.1-0.4c-0.1-0.1-0.2-0.2-0.4-0.2c-0.2,0-0.4-0.1-0.6-0.2c-0.2-0.1-0.5-0.1-0.7-0.2c-0.3-0.1-0.5-0.1-0.7-0.2
			s-0.5-0.2-0.7-0.3c-0.2-0.1-0.4-0.3-0.5-0.5c-0.1-0.2-0.2-0.5-0.2-0.8s0.1-0.6,0.2-0.8c0.1-0.2,0.3-0.4,0.5-0.6
			c0.2-0.2,0.5-0.3,0.7-0.4s0.7-0.1,1.1-0.1c0.3,0,0.7,0,0.9,0.1s0.6,0.2,0.7,0.3c0.2,0.1,0.4,0.3,0.6,0.5c0.2,0.2,0.3,0.5,0.3,0.8
			l-1.4,0.2c0-0.2-0.1-0.3-0.1-0.4s-0.2-0.2-0.3-0.2c-0.1,0-0.2-0.1-0.4-0.1c-0.2,0-0.3,0-0.5,0c-0.4,0-0.7,0-0.8,0.1
			c-0.2,0.1-0.3,0.3-0.3,0.5c0,0.1,0,0.3,0.1,0.3s0.2,0.2,0.3,0.2s0.3,0.1,0.5,0.1c0.2,0,0.4,0.1,0.7,0.1c0.3,0.1,0.6,0.1,0.8,0.2
			c0.3,0.1,0.5,0.2,0.7,0.3c0.3,0.1,0.4,0.3,0.5,0.6S291.3,359.8,291.3,360.2z"/>
		<path fill="#FFFFFF" d="M294,362.2c-0.5,0-0.8-0.1-1-0.4c-0.2-0.3-0.4-0.7-0.4-1.2v-3.7h-0.7v-1.1h0.8l0.5-1.5h0.9v1.5h1.1v1.1
			h-1.1v3.3c0,0.3,0.1,0.5,0.2,0.7c0.1,0.2,0.3,0.2,0.5,0.2c0.1,0,0.2,0,0.3,0c0.1,0,0.2,0,0.3-0.1v1c-0.2,0.1-0.4,0.1-0.6,0.1
			C294.5,362.1,294.3,362.2,294,362.2z"/>
		<path fill="#FFFFFF" d="M297.6,362.2c-0.3,0-0.6,0-0.7-0.1c-0.2-0.1-0.4-0.2-0.6-0.4c-0.2-0.2-0.3-0.4-0.4-0.6s-0.1-0.5-0.1-0.8
			c0-0.4,0.1-0.7,0.2-0.9c0.1-0.2,0.3-0.5,0.5-0.6c0.2-0.1,0.5-0.3,0.7-0.3s0.6-0.1,0.9-0.1h1.3v-0.3c0-0.2,0-0.4-0.1-0.6
			s-0.1-0.3-0.2-0.4c-0.1-0.1-0.2-0.2-0.3-0.2s-0.2-0.1-0.4-0.1c-0.1,0-0.3,0-0.4,0c-0.1,0-0.2,0.1-0.3,0.1s-0.1,0.2-0.2,0.3
			c-0.1,0.1-0.1,0.3-0.1,0.4l-1.6-0.1c0-0.3,0.1-0.5,0.3-0.8c0.2-0.3,0.3-0.4,0.5-0.6c0.2-0.2,0.5-0.3,0.7-0.4
			c0.3-0.1,0.7-0.1,1-0.1s0.7,0,1,0.1s0.6,0.2,0.7,0.4c0.2,0.2,0.4,0.4,0.5,0.7s0.2,0.6,0.2,1v2.3c0,0.1,0,0.3,0,0.4s0,0.2,0.1,0.3
			s0.1,0.1,0.2,0.2c0.1,0.1,0.2,0.1,0.3,0.1s0.2,0,0.4,0v0.9c-0.1,0-0.2,0-0.3,0.1c-0.1,0.1-0.2,0-0.2,0h-0.2c0,0-0.2,0-0.3,0
			c-0.4,0-0.7-0.1-0.8-0.3c-0.2-0.2-0.3-0.5-0.4-0.9l0,0c-0.2,0.4-0.5,0.7-0.7,0.9S298.1,362.2,297.6,362.2z M299.4,359.1h-0.7
			c-0.2,0-0.3,0-0.5,0c-0.2,0-0.3,0.1-0.4,0.1c-0.1,0-0.2,0.2-0.3,0.3s-0.1,0.3-0.1,0.5c0,0.3,0.1,0.5,0.2,0.7s0.3,0.2,0.6,0.2
			c0.2,0,0.4,0,0.6-0.1c0.2-0.1,0.3-0.2,0.4-0.4c0.1-0.2,0.2-0.3,0.3-0.5s0.1-0.4,0.1-0.6L299.4,359.1L299.4,359.1z"/>
		<path fill="#FFFFFF" d="M306.2,362v-3.6c0-0.2,0-0.5-0.1-0.7s-0.1-0.4-0.2-0.5c-0.1-0.1-0.2-0.3-0.4-0.3c-0.2,0-0.3-0.1-0.5-0.1
			c-0.2,0-0.4,0-0.5,0.1c-0.1,0.1-0.3,0.2-0.4,0.4c-0.1,0.2-0.2,0.4-0.3,0.6c-0.1,0.2-0.1,0.5-0.1,0.7v3.4h-1.5v-4.9
			c0-0.1,0-0.3,0-0.4s0-0.3,0-0.4s0-0.2,0-0.4s0-0.2,0-0.2h1.5c0,0,0,0.1,0,0.2s0,0.2,0,0.3s0,0.3,0,0.4s0,0.2,0,0.3l0,0
			c0.2-0.5,0.5-0.8,0.7-1.1c0.3-0.3,0.7-0.3,1.1-0.3c0.4,0,0.7,0.1,0.9,0.2c0.3,0.1,0.5,0.3,0.6,0.5s0.3,0.5,0.4,0.8s0.1,0.6,0.1,1
			v4H306.2z"/>
		<path fill="#FFFFFF" d="M313,362c0,0,0-0.1,0-0.2s0-0.2,0-0.3s0-0.2,0-0.3s0-0.2,0-0.3l0,0c-0.2,0.4-0.5,0.7-0.7,0.9
			s-0.7,0.3-1.1,0.3s-0.7-0.1-0.9-0.2s-0.5-0.4-0.7-0.7c-0.2-0.3-0.3-0.6-0.4-1s-0.1-0.8-0.1-1.3s0-0.9,0.1-1.3s0.2-0.7,0.4-1
			c0.2-0.3,0.5-0.5,0.7-0.7s0.7-0.2,1-0.2c0.2,0,0.4,0,0.6,0.1c0.2,0.1,0.4,0.1,0.5,0.2s0.3,0.2,0.4,0.3s0.2,0.3,0.3,0.5l0,0
			c0,0,0-0.1,0-0.2s0-0.2,0-0.3s0-0.2,0-0.3s0-0.2,0-0.3v-2.3h1.5v7.3c0,0.3,0,0.6,0,0.8s0,0.4,0,0.6H313V362z M312.9,358.8
			c0-0.4,0-0.8-0.1-1c-0.1-0.2-0.2-0.5-0.3-0.7c-0.1-0.2-0.3-0.3-0.4-0.3c-0.1,0-0.3-0.1-0.5-0.1c-0.2,0-0.4,0-0.6,0.1
			c-0.2,0.1-0.3,0.2-0.4,0.4c-0.1,0.2-0.2,0.4-0.3,0.7c-0.1,0.3-0.1,0.6-0.1,1c0,1.4,0.4,2.2,1.2,2.2c0.2,0,0.3,0,0.5-0.1
			c0.2-0.1,0.3-0.2,0.4-0.4c0.1-0.2,0.2-0.4,0.3-0.7S312.9,359.3,312.9,358.8z"/>
		<path fill="#FFFFFF" d="M316,354.6v-1.2h1.5v1.2H316z M316,362v-6.3h1.5v6.3H316z"/>
		<path fill="#FFFFFF" d="M323,362v-3.6c0-0.2,0-0.5-0.1-0.7c-0.1-0.2-0.1-0.4-0.2-0.5s-0.2-0.3-0.4-0.3c-0.2,0-0.3-0.1-0.5-0.1
			c-0.2,0-0.4,0-0.5,0.1s-0.3,0.2-0.4,0.4s-0.2,0.4-0.3,0.6c-0.1,0.2-0.1,0.5-0.1,0.7v3.4h-1.5v-4.9c0-0.1,0-0.3,0-0.4s0-0.3,0-0.4
			s0-0.2,0-0.4s0-0.2,0-0.2h1.5c0,0,0,0.1,0,0.2s0,0.2,0,0.3s0,0.3,0,0.4s0,0.2,0,0.3l0,0c0.2-0.5,0.5-0.8,0.7-1.1s0.7-0.3,1.1-0.3
			c0.4,0,0.7,0.1,0.9,0.2s0.5,0.3,0.6,0.5c0.1,0.2,0.3,0.5,0.4,0.8s0.1,0.6,0.1,1v4H323z"/>
		<path fill="#FFFFFF" d="M328.4,364.6c-0.4,0-0.7,0-1-0.1s-0.6-0.2-0.7-0.4c-0.2-0.2-0.4-0.3-0.5-0.5c-0.1-0.2-0.2-0.4-0.3-0.7
			l1.5-0.2c0.1,0.3,0.2,0.5,0.4,0.6c0.2,0.1,0.4,0.2,0.7,0.2c0.2,0,0.4,0,0.5-0.1c0.1-0.1,0.3-0.1,0.4-0.3c0.1-0.2,0.2-0.3,0.3-0.5
			s0.1-0.5,0.1-0.8c0-0.1,0-0.2,0-0.3s0-0.2,0-0.3c0-0.1,0-0.2,0-0.3l0,0c-0.2,0.4-0.5,0.7-0.7,0.9c-0.3,0.2-0.7,0.3-1.1,0.3
			c-0.4,0-0.7-0.1-0.9-0.2c-0.3-0.1-0.5-0.4-0.7-0.7c-0.2-0.3-0.3-0.6-0.4-1c-0.1-0.4-0.1-0.8-0.1-1.3s0-0.9,0.1-1.3
			c0.1-0.4,0.2-0.7,0.4-1c0.2-0.3,0.5-0.5,0.7-0.7c0.3-0.2,0.7-0.2,1-0.2s0.7,0.1,1,0.3c0.3,0.2,0.6,0.5,0.7,0.9l0,0
			c0-0.1,0-0.2,0-0.3s0-0.2,0-0.3s0-0.2,0-0.3s0-0.1,0-0.2h1.5c0,0.1,0,0.3,0,0.6s0,0.5,0,0.9v4.7c0,0.5-0.1,0.9-0.2,1.2
			c-0.1,0.3-0.3,0.6-0.6,0.9s-0.6,0.4-0.8,0.5C329.5,364.7,328.8,364.6,328.4,364.6z M329.6,358.8c0-0.4,0-0.7-0.1-1
			s-0.2-0.5-0.3-0.6s-0.3-0.3-0.4-0.3s-0.3-0.1-0.5-0.1c-0.2,0-0.4,0-0.6,0.1c-0.2,0.1-0.3,0.2-0.4,0.4s-0.2,0.4-0.3,0.7
			c-0.1,0.3-0.1,0.6-0.1,0.9c0,0.7,0.1,1.2,0.3,1.5c0.2,0.3,0.5,0.5,0.9,0.5c0.2,0,0.3,0,0.5-0.1c0.2-0.1,0.3-0.2,0.4-0.3
			s0.2-0.4,0.3-0.6C329.5,359.7,329.6,359.2,329.6,358.8z"/>
	</g>
	<g>
		<g>
			<defs>
				<rect id="SVGID_5_" x="155.9" y="342.3" width="29.4" height="29.1"/>
			</defs>
			<clipPath id="SVGID_6_">
				<use xlink:href="#SVGID_5_"  overflow="visible"/>
			</clipPath>
			<path clip-path="url(#SVGID_6_)" fill="#364FA1" d="M180.6,367.8c0,2-1.5,3.6-3.3,3.6h-18c-1.9,0-3.3-1.6-3.3-3.6v-19.4
				c0-2,1.5-3.6,3.3-3.6h18c1.9,0,3.3,1.6,3.3,3.6V367.8L180.6,367.8z"/>
		</g>
		<g>
			<defs>
				<rect id="SVGID_7_" x="155.9" y="342.3" width="29.4" height="29.1"/>
			</defs>
			<clipPath id="SVGID_8_">
				<use xlink:href="#SVGID_7_"  overflow="visible"/>
			</clipPath>
			<path clip-path="url(#SVGID_8_)" fill="#7291CA" d="M179.3,349.4c0-1.8-1.3-3.2-3-3.2h-16.2c-1.7,0-3,1.4-3,3.2v3.6l22,6.7
				L179.3,349.4L179.3,349.4z"/>
		</g>
		<g>
			<defs>
				<rect id="SVGID_9_" x="155.9" y="342.3" width="29.4" height="29.1"/>
			</defs>
			<clipPath id="SVGID_10_">
				<use xlink:href="#SVGID_9_"  overflow="visible"/>
			</clipPath>
			<path clip-path="url(#SVGID_10_)" fill="#AE2080" d="M165.8,360.4l2.7,2.9c0,0,0.1,0.1,0.2,0.1s0.1,0,0.2-0.1l13.8-14.9
				C175.6,351.6,169.8,355.8,165.8,360.4"/>
		</g>
		<g>
			<defs>
				<rect id="SVGID_11_" x="155.9" y="342.3" width="29.4" height="29.1"/>
			</defs>
			<clipPath id="SVGID_12_">
				<use xlink:href="#SVGID_11_"  overflow="visible"/>
			</clipPath>
			<path clip-path="url(#SVGID_12_)" fill="#04733B" d="M168.7,363.5c-0.1,0-0.2,0-0.3-0.1l-9-9.7c-0.1-0.2-0.1-0.4,0-0.5l2.8-3
				c0.1-0.1,0.2-0.1,0.3-0.1c0.1,0,0.2,0,0.3,0.1l5.5,5.9c0.1,0.1,0.3,0.2,0.5,0.2s0.3-0.1,0.5-0.2l12.7-13.7
				c0.1-0.1,0.2-0.1,0.3-0.1c0.1,0,0.2,0,0.3,0.1l2.8,3c0.1,0.1,0.1,0.2,0.1,0.3s0,0.2-0.1,0.3L169,363.4
				C168.9,363.5,168.8,363.5,168.7,363.5"/>
		</g>
		<g>
			<defs>
				<rect id="SVGID_13_" x="155.9" y="342.3" width="29.4" height="29.1"/>
			</defs>
			<clipPath id="SVGID_14_">
				<use xlink:href="#SVGID_13_"  overflow="visible"/>
			</clipPath>
			<path clip-path="url(#SVGID_14_)" fill="#90B83E" d="M182.6,348.4l2.4-2.6c0,0,0.1-0.1,0.1-0.2s0-0.1-0.1-0.2l-2.8-3
				c0,0-0.1-0.1-0.2-0.1c-0.1,0-0.1,0-0.2,0.1l-12.7,13.7c-0.2,0.2-0.4,0.2-0.6,0.2c-0.2,0-0.4-0.1-0.6-0.2l-5.5-5.9
				c0,0-0.1-0.1-0.2-0.1s-0.1,0-0.2,0.1l-2.8,3c-0.1,0.1-0.1,0.2,0,0.3l6.3,6.8C169.8,355.8,175.6,351.6,182.6,348.4"/>
		</g>
		<g>
			<defs>
				<rect id="SVGID_15_" x="155.9" y="342.3" width="29.4" height="29.1"/>
			</defs>
			<clipPath id="SVGID_16_">
				<use xlink:href="#SVGID_15_"  overflow="visible"/>
			</clipPath>
			<polygon clip-path="url(#SVGID_16_)" fill="#FFFFFF" points="172.1,352.1 173.6,350.6 163.8,350.6 165.2,352.1 			"/>
		</g>
		<g>
			<defs>
				<rect id="SVGID_17_" x="155.9" y="342.3" width="29.4" height="29.1"/>
			</defs>
			<clipPath id="SVGID_18_">
				<use xlink:href="#SVGID_17_"  overflow="visible"/>
			</clipPath>
			<polygon clip-path="url(#SVGID_18_)" fill="#FFFFFF" points="175.7,364.7 161.7,364.7 161.7,356.9 160.2,355.3 160.2,366.3 
				177.2,366.3 177.2,355.2 175.7,356.8 			"/>
		</g>
		<g>
			<defs>
				<rect id="SVGID_19_" x="155.9" y="342.3" width="29.4" height="29.1"/>
			</defs>
			<clipPath id="SVGID_20_">
				<use xlink:href="#SVGID_19_"  overflow="visible"/>
			</clipPath>
			<polygon clip-path="url(#SVGID_20_)" fill="#FFFFFF" points="160.2,350.6 160.2,351.7 161.3,350.6 			"/>
		</g>
	</g>
</g>
</svg>
