<?xml version="1.0" encoding="utf-8"?>
<!-- Generator: Adobe Illustrator 18.0.0, SVG Export Plug-In . SVG Version: 6.00 Build 0)  -->
<!DOCTYPE svg PUBLIC "-//W3C//DTD SVG 1.1//EN" "http://www.w3.org/Graphics/SVG/1.1/DTD/svg11.dtd">
<svg version="1.1" id="Layer_1" xmlns="http://www.w3.org/2000/svg" xmlns:xlink="http://www.w3.org/1999/xlink" x="0px" y="0px"
	 viewBox="0 0 612 792" enable-background="new 0 0 612 792" xml:space="preserve">
<g>
	<g>
		<defs>
			<rect id="SVGID_1_" x="147.5" y="338.1" width="327.3" height="39.5"/>
		</defs>
		<clipPath id="SVGID_2_">
			<use xlink:href="#SVGID_1_"  overflow="visible"/>
		</clipPath>
		<path clip-path="url(#SVGID_2_)" fill="#BC492A" d="M168,345.6c0,0-11,0-11,11v3.3c0,0,0,11,11,11h286.3c0,0,11,0,11-11v-3.3
			c0,0,0-11-11-11H168z"/>
		<path clip-path="url(#SVGID_2_)" fill="none" stroke="#BC492A" d="M168,345.6c0,0-11,0-11,11v3.3c0,0,0,11,11,11h286.3
			c0,0,11,0,11-11v-3.3c0,0,0-11-11-11H168z"/>
	</g>
	<g>
		<path fill="#FFFFFF" d="M197.2,360.8c0.3,0,0.6,0,0.8-0.1s0.4-0.2,0.6-0.4s0.3-0.3,0.4-0.5s0.2-0.4,0.3-0.6l1.5,0.6
			c-0.1,0.3-0.3,0.6-0.5,0.9s-0.4,0.5-0.7,0.8s-0.6,0.4-1,0.5s-0.9,0.2-1.4,0.2c-0.7,0-1.3-0.1-1.9-0.3s-1-0.5-1.3-0.9
			s-0.6-0.8-0.8-1.4s-0.2-1.1-0.2-1.7c0-0.6,0.1-1.2,0.2-1.7s0.4-1,0.8-1.3s0.8-0.6,1.3-0.8s1.1-0.3,1.8-0.3c0.5,0,1,0.1,1.4,0.2
			s0.8,0.3,1,0.5s0.5,0.4,0.7,0.7s0.3,0.6,0.5,0.9l-1.5,0.4c-0.1-0.2-0.1-0.3-0.3-0.5s-0.3-0.3-0.4-0.4s-0.4-0.2-0.6-0.3
			s-0.5-0.1-0.8-0.1c-0.4,0-0.8,0.1-1.1,0.2s-0.5,0.3-0.7,0.6s-0.3,0.5-0.4,0.9s-0.1,0.7-0.1,1.2c0,0.4,0,0.8,0.1,1.2
			s0.2,0.7,0.4,0.9s0.4,0.5,0.8,0.6S196.7,360.8,197.2,360.8z"/>
		<path fill="#FFFFFF" d="M203.6,357c0.2-0.5,0.5-0.8,0.8-1.1s0.7-0.3,1.2-0.3c0.4,0,0.7,0.1,1,0.2s0.5,0.3,0.6,0.5s0.3,0.5,0.4,0.8
			s0.1,0.6,0.1,1v4h-1.6v-3.6c0-0.2,0-0.5-0.1-0.7s-0.1-0.4-0.2-0.5s-0.2-0.3-0.4-0.3s-0.3-0.1-0.5-0.1c-0.2,0-0.4,0-0.5,0.1
			s-0.3,0.2-0.4,0.4s-0.2,0.4-0.3,0.6s-0.1,0.5-0.1,0.7v3.4H202v-8.7h1.6v2.4c0,0.1,0,0.3,0,0.4s0,0.2,0,0.4s0,0.2,0,0.3
			S203.6,356.9,203.6,357L203.6,357z"/>
		<path fill="#FFFFFF" d="M211.9,362.2c-0.5,0-0.9-0.1-1.2-0.2s-0.7-0.3-0.9-0.6s-0.5-0.6-0.6-1s-0.2-0.9-0.2-1.5
			c0-0.6,0.1-1.1,0.2-1.5s0.4-0.7,0.7-1s0.6-0.4,1-0.6s0.7-0.2,1.1-0.2c0.5,0,0.9,0.1,1.3,0.3s0.6,0.4,0.9,0.7s0.4,0.7,0.5,1.1
			s0.2,0.9,0.2,1.4v0h-4.1c0,0.3,0,0.5,0.1,0.7s0.1,0.4,0.2,0.6s0.2,0.3,0.4,0.4s0.4,0.1,0.6,0.1c0.3,0,0.5-0.1,0.7-0.2
			s0.3-0.3,0.4-0.6l1.6,0.1c-0.1,0.2-0.2,0.4-0.3,0.6s-0.3,0.4-0.5,0.6s-0.5,0.3-0.8,0.4S212.4,362.2,211.9,362.2z M211.9,356.6
			c-0.2,0-0.3,0-0.5,0.1s-0.3,0.1-0.4,0.3s-0.2,0.3-0.3,0.5s-0.1,0.4-0.1,0.7h2.5c0-0.5-0.2-0.9-0.4-1.2S212.3,356.6,211.9,356.6z"
			/>
		<path fill="#FFFFFF" d="M218.7,362.2c-0.5,0-0.9-0.1-1.3-0.2s-0.7-0.4-0.9-0.7s-0.4-0.6-0.6-1s-0.2-0.8-0.2-1.3
			c0-0.5,0.1-1,0.2-1.4s0.3-0.8,0.6-1s0.6-0.5,1-0.6s0.8-0.2,1.3-0.2c0.4,0,0.8,0.1,1.1,0.2s0.6,0.3,0.8,0.4s0.4,0.4,0.6,0.7
			s0.2,0.5,0.3,0.8l-1.7,0.1c0-0.3-0.2-0.6-0.4-0.8s-0.5-0.3-0.8-0.3c-0.4,0-0.8,0.2-1,0.5s-0.3,0.9-0.3,1.6c0,1.5,0.4,2.2,1.3,2.2
			c0.3,0,0.6-0.1,0.8-0.3s0.3-0.5,0.4-0.9l1.7,0.1c0,0.3-0.1,0.6-0.3,0.8s-0.3,0.5-0.6,0.7s-0.5,0.4-0.9,0.5
			S219.1,362.2,218.7,362.2z"/>
		<path fill="#FFFFFF" d="M226.7,362l-1.7-2.9l-0.7,0.5v2.4h-1.6v-8.7h1.6v5l2.3-2.6h1.8l-2.2,2.5l2.4,3.9H226.7z"/>
		<path fill="#FFFFFF" d="M236.5,358.7v3.4h-1.7v-3.4l-2.9-4.9h1.8l2,3.5l2-3.5h1.8L236.5,358.7z"/>
		<path fill="#FFFFFF" d="M245.6,358.9c0,0.5-0.1,0.9-0.2,1.3s-0.3,0.7-0.6,1s-0.6,0.5-1,0.7s-0.9,0.2-1.4,0.2c-0.5,0-1-0.1-1.4-0.2
			s-0.7-0.4-1-0.7s-0.5-0.6-0.6-1s-0.2-0.9-0.2-1.3c0-0.5,0.1-0.9,0.2-1.3s0.3-0.7,0.6-1s0.6-0.5,1-0.7s0.9-0.2,1.4-0.2
			c0.6,0,1.1,0.1,1.5,0.2s0.7,0.4,1,0.7s0.4,0.6,0.6,1S245.6,358.4,245.6,358.9z M243.9,358.9c0-0.8-0.1-1.3-0.4-1.6
			s-0.6-0.5-1.1-0.5c-0.5,0-0.9,0.2-1.1,0.5s-0.4,0.9-0.4,1.6c0,0.4,0,0.7,0.1,1s0.2,0.5,0.3,0.7s0.3,0.3,0.5,0.4s0.4,0.1,0.6,0.1
			c0.2,0,0.5,0,0.6-0.1s0.3-0.2,0.5-0.4s0.2-0.4,0.3-0.7S243.9,359.2,243.9,358.9z"/>
		<path fill="#FFFFFF" d="M248.5,355.7v3.6c0,0.2,0,0.5,0.1,0.7s0.1,0.4,0.2,0.5s0.2,0.3,0.3,0.3s0.3,0.1,0.5,0.1
			c0.2,0,0.4,0,0.5-0.1s0.3-0.2,0.4-0.4s0.2-0.4,0.3-0.6s0.1-0.5,0.1-0.7v-3.4h1.6v4.9c0,0.1,0,0.3,0,0.4s0,0.3,0,0.4s0,0.2,0,0.4
			s0,0.2,0,0.2h-1.6c0,0,0-0.1,0-0.2s0-0.2,0-0.3s0-0.3,0-0.4s0-0.2,0-0.3h0c-0.2,0.5-0.5,0.8-0.8,1s-0.7,0.3-1.2,0.3
			c-0.4,0-0.7-0.1-1-0.2s-0.5-0.3-0.6-0.5s-0.3-0.5-0.4-0.8s-0.1-0.6-0.1-1v-4H248.5z"/>
		<path fill="#FFFFFF" d="M254.3,362v-4.9c0-0.1,0-0.3,0-0.4s0-0.3,0-0.4s0-0.3,0-0.4s0-0.2,0-0.2h1.6c0,0,0,0.1,0,0.2s0,0.2,0,0.4
			s0,0.3,0,0.4s0,0.2,0,0.3h0c0.1-0.2,0.2-0.4,0.2-0.6s0.2-0.3,0.3-0.5s0.2-0.2,0.4-0.3s0.3-0.1,0.6-0.1c0.1,0,0.2,0,0.3,0
			s0.2,0,0.2,0.1v1.4c-0.1,0-0.2,0-0.3-0.1s-0.2,0-0.4,0c-0.4,0-0.7,0.2-1,0.5s-0.3,0.8-0.3,1.5v3.1H254.3z"/>
		<path fill="#FFFFFF" d="M265.7,362.2c-0.5,0-1-0.1-1.4-0.2s-0.8-0.3-1.1-0.6s-0.6-0.6-0.7-1s-0.3-0.9-0.3-1.5v-5.2h1.7v5
			c0,0.3,0,0.6,0.1,0.9s0.2,0.5,0.4,0.6s0.4,0.3,0.6,0.4s0.5,0.1,0.8,0.1c0.3,0,0.5,0,0.8-0.1s0.4-0.2,0.6-0.4s0.3-0.4,0.4-0.6
			s0.1-0.6,0.1-0.9v-5h1.7v5.1c0,0.6-0.1,1.1-0.3,1.5s-0.4,0.8-0.8,1s-0.7,0.5-1.2,0.6S266.2,362.2,265.7,362.2z"/>
		<path fill="#FFFFFF" d="M275,362v-3.6c0-0.2,0-0.5-0.1-0.7s-0.1-0.4-0.2-0.5s-0.2-0.3-0.4-0.3s-0.3-0.1-0.5-0.1
			c-0.2,0-0.4,0-0.5,0.1s-0.3,0.2-0.4,0.4s-0.2,0.4-0.3,0.6s-0.1,0.5-0.1,0.7v3.4h-1.6v-4.9c0-0.1,0-0.3,0-0.4s0-0.3,0-0.4
			s0-0.2,0-0.4s0-0.2,0-0.2h1.6c0,0,0,0.1,0,0.2s0,0.2,0,0.3s0,0.3,0,0.4s0,0.2,0,0.3h0c0.2-0.5,0.5-0.8,0.8-1.1s0.7-0.3,1.2-0.3
			c0.4,0,0.7,0.1,1,0.2s0.5,0.3,0.6,0.5s0.3,0.5,0.4,0.8s0.1,0.6,0.1,1v4H275z"/>
		<path fill="#FFFFFF" d="M282.4,362c0,0,0-0.1,0-0.2s0-0.2,0-0.3s0-0.2,0-0.3s0-0.2,0-0.3h0c-0.2,0.4-0.5,0.7-0.8,0.9
			s-0.8,0.3-1.2,0.3c-0.4,0-0.7-0.1-1-0.2s-0.5-0.4-0.7-0.7s-0.3-0.6-0.4-1s-0.1-0.8-0.1-1.3c0-0.5,0-0.9,0.1-1.3s0.2-0.7,0.4-1
			s0.5-0.5,0.8-0.7s0.7-0.2,1.1-0.2c0.2,0,0.4,0,0.6,0.1s0.4,0.1,0.5,0.2s0.3,0.2,0.4,0.3s0.2,0.3,0.3,0.5h0c0,0,0-0.1,0-0.2
			s0-0.2,0-0.3s0-0.2,0-0.3s0-0.2,0-0.3v-2.3h1.6v7.3c0,0.3,0,0.6,0,0.8s0,0.4,0,0.6H282.4z M282.3,358.8c0-0.4,0-0.8-0.1-1
			s-0.2-0.5-0.3-0.7s-0.3-0.3-0.4-0.3s-0.3-0.1-0.5-0.1c-0.2,0-0.4,0-0.6,0.1s-0.3,0.2-0.4,0.4s-0.2,0.4-0.3,0.7s-0.1,0.6-0.1,1
			c0,1.4,0.4,2.2,1.3,2.2c0.2,0,0.3,0,0.5-0.1s0.3-0.2,0.4-0.4s0.2-0.4,0.3-0.7S282.3,359.3,282.3,358.8z"/>
		<path fill="#FFFFFF" d="M288.2,362.2c-0.5,0-0.9-0.1-1.2-0.2s-0.7-0.3-0.9-0.6s-0.5-0.6-0.6-1s-0.2-0.9-0.2-1.5
			c0-0.6,0.1-1.1,0.2-1.5s0.4-0.7,0.7-1s0.6-0.4,1-0.6s0.7-0.2,1.1-0.2c0.5,0,0.9,0.1,1.3,0.3s0.6,0.4,0.9,0.7s0.4,0.7,0.5,1.1
			s0.2,0.9,0.2,1.4v0H287c0,0.3,0,0.5,0.1,0.7s0.1,0.4,0.2,0.6s0.2,0.3,0.4,0.4s0.4,0.1,0.6,0.1c0.3,0,0.5-0.1,0.7-0.2
			s0.3-0.3,0.4-0.6l1.6,0.1c-0.1,0.2-0.2,0.4-0.3,0.6s-0.3,0.4-0.5,0.6s-0.5,0.3-0.8,0.4S288.6,362.2,288.2,362.2z M288.2,356.6
			c-0.2,0-0.3,0-0.5,0.1s-0.3,0.1-0.4,0.3s-0.2,0.3-0.3,0.5s-0.1,0.4-0.1,0.7h2.5c0-0.5-0.2-0.9-0.4-1.2S288.6,356.6,288.2,356.6z"
			/>
		<path fill="#FFFFFF" d="M292.3,362v-4.9c0-0.1,0-0.3,0-0.4s0-0.3,0-0.4s0-0.3,0-0.4s0-0.2,0-0.2h1.6c0,0,0,0.1,0,0.2s0,0.2,0,0.4
			s0,0.3,0,0.4s0,0.2,0,0.3h0c0.1-0.2,0.2-0.4,0.2-0.6s0.2-0.3,0.3-0.5s0.2-0.2,0.4-0.3s0.3-0.1,0.6-0.1c0.1,0,0.2,0,0.3,0
			s0.2,0,0.2,0.1v1.4c-0.1,0-0.2,0-0.3-0.1s-0.2,0-0.4,0c-0.4,0-0.7,0.2-1,0.5s-0.3,0.8-0.3,1.5v3.1H292.3z"/>
		<path fill="#FFFFFF" d="M302.3,360.2c0,0.3-0.1,0.6-0.2,0.8s-0.3,0.4-0.6,0.6s-0.5,0.3-0.9,0.4s-0.8,0.1-1.2,0.1
			c-0.4,0-0.8,0-1.1-0.1s-0.6-0.2-0.9-0.3s-0.4-0.3-0.6-0.5s-0.3-0.5-0.4-0.8l1.4-0.2c0,0.2,0.1,0.3,0.2,0.4s0.2,0.2,0.3,0.3
			s0.3,0.1,0.4,0.1s0.3,0,0.6,0c0.2,0,0.4,0,0.5,0s0.3-0.1,0.4-0.1s0.2-0.1,0.3-0.2s0.1-0.2,0.1-0.4c0-0.2,0-0.3-0.1-0.4
			s-0.2-0.2-0.4-0.2s-0.4-0.1-0.6-0.2s-0.5-0.1-0.7-0.2c-0.3-0.1-0.5-0.1-0.8-0.2s-0.5-0.2-0.7-0.3s-0.4-0.3-0.5-0.5
			s-0.2-0.5-0.2-0.8c0-0.3,0.1-0.6,0.2-0.8s0.3-0.4,0.5-0.6s0.5-0.3,0.8-0.4s0.7-0.1,1.2-0.1c0.3,0,0.7,0,1,0.1s0.6,0.2,0.8,0.3
			s0.4,0.3,0.6,0.5s0.3,0.5,0.3,0.8l-1.5,0.2c0-0.2-0.1-0.3-0.1-0.4s-0.2-0.2-0.3-0.2s-0.2-0.1-0.4-0.1s-0.3,0-0.5,0
			c-0.4,0-0.7,0-0.9,0.1s-0.3,0.3-0.3,0.5c0,0.1,0,0.3,0.1,0.3s0.2,0.2,0.3,0.2s0.3,0.1,0.5,0.1s0.4,0.1,0.7,0.1
			c0.3,0.1,0.6,0.1,0.9,0.2s0.5,0.2,0.8,0.3s0.4,0.3,0.5,0.6S302.3,359.8,302.3,360.2z"/>
		<path fill="#FFFFFF" d="M305.2,362.2c-0.5,0-0.9-0.1-1.1-0.4s-0.4-0.7-0.4-1.2v-3.7h-0.8v-1.1h0.9l0.5-1.5h1v1.5h1.2v1.1h-1.2v3.3
			c0,0.3,0.1,0.5,0.2,0.7s0.3,0.2,0.5,0.2c0.1,0,0.2,0,0.3,0s0.2,0,0.3-0.1v1c-0.2,0.1-0.4,0.1-0.6,0.1S305.5,362.2,305.2,362.2z"/>
		<path fill="#FFFFFF" d="M309.1,362.2c-0.3,0-0.6,0-0.8-0.1s-0.4-0.2-0.6-0.4s-0.3-0.4-0.4-0.6s-0.1-0.5-0.1-0.8
			c0-0.4,0.1-0.7,0.2-0.9s0.3-0.5,0.5-0.6s0.5-0.3,0.8-0.3s0.6-0.1,1-0.1l1.4,0v-0.3c0-0.2,0-0.4-0.1-0.6s-0.1-0.3-0.2-0.4
			s-0.2-0.2-0.3-0.2s-0.2-0.1-0.4-0.1c-0.1,0-0.3,0-0.4,0s-0.2,0.1-0.3,0.1s-0.1,0.2-0.2,0.3s-0.1,0.3-0.1,0.4l-1.7-0.1
			c0-0.3,0.1-0.5,0.3-0.8s0.3-0.4,0.5-0.6s0.5-0.3,0.8-0.4s0.7-0.1,1.1-0.1c0.4,0,0.7,0,1.1,0.1s0.6,0.2,0.8,0.4s0.4,0.4,0.5,0.7
			s0.2,0.6,0.2,1v2.3c0,0.1,0,0.3,0,0.4s0,0.2,0.1,0.3s0.1,0.1,0.2,0.2s0.2,0.1,0.3,0.1c0.1,0,0.2,0,0.4,0v0.9c-0.1,0-0.2,0-0.3,0.1
			s-0.2,0-0.2,0s-0.2,0-0.2,0s-0.2,0-0.3,0c-0.4,0-0.7-0.1-0.9-0.3s-0.3-0.5-0.4-0.9h0c-0.2,0.4-0.5,0.7-0.8,0.9
			S309.6,362.2,309.1,362.2z M311,359.1l-0.8,0c-0.2,0-0.3,0-0.5,0s-0.3,0.1-0.4,0.1s-0.2,0.2-0.3,0.3s-0.1,0.3-0.1,0.5
			c0,0.3,0.1,0.5,0.2,0.7s0.3,0.2,0.6,0.2c0.2,0,0.4,0,0.6-0.1s0.3-0.2,0.4-0.4s0.2-0.3,0.3-0.5s0.1-0.4,0.1-0.6V359.1z"/>
		<path fill="#FFFFFF" d="M318.4,362v-3.6c0-0.2,0-0.5-0.1-0.7s-0.1-0.4-0.2-0.5s-0.2-0.3-0.4-0.3s-0.3-0.1-0.5-0.1
			c-0.2,0-0.4,0-0.5,0.1s-0.3,0.2-0.4,0.4s-0.2,0.4-0.3,0.6s-0.1,0.5-0.1,0.7v3.4h-1.6v-4.9c0-0.1,0-0.3,0-0.4s0-0.3,0-0.4
			s0-0.2,0-0.4s0-0.2,0-0.2h1.6c0,0,0,0.1,0,0.2s0,0.2,0,0.3s0,0.3,0,0.4s0,0.2,0,0.3h0c0.2-0.5,0.5-0.8,0.8-1.1s0.7-0.3,1.2-0.3
			c0.4,0,0.7,0.1,1,0.2s0.5,0.3,0.6,0.5s0.3,0.5,0.4,0.8s0.1,0.6,0.1,1v4H318.4z"/>
		<path fill="#FFFFFF" d="M325.7,362c0,0,0-0.1,0-0.2s0-0.2,0-0.3s0-0.2,0-0.3s0-0.2,0-0.3h0c-0.2,0.4-0.5,0.7-0.8,0.9
			s-0.8,0.3-1.2,0.3c-0.4,0-0.7-0.1-1-0.2s-0.5-0.4-0.7-0.7s-0.3-0.6-0.4-1s-0.1-0.8-0.1-1.3c0-0.5,0-0.9,0.1-1.3s0.2-0.7,0.4-1
			s0.5-0.5,0.8-0.7s0.7-0.2,1.1-0.2c0.2,0,0.4,0,0.6,0.1s0.4,0.1,0.5,0.2s0.3,0.2,0.4,0.3s0.2,0.3,0.3,0.5h0c0,0,0-0.1,0-0.2
			s0-0.2,0-0.3s0-0.2,0-0.3s0-0.2,0-0.3v-2.3h1.6v7.3c0,0.3,0,0.6,0,0.8s0,0.4,0,0.6H325.7z M325.6,358.8c0-0.4,0-0.8-0.1-1
			s-0.2-0.5-0.3-0.7s-0.3-0.3-0.4-0.3s-0.3-0.1-0.5-0.1c-0.2,0-0.4,0-0.6,0.1s-0.3,0.2-0.4,0.4s-0.2,0.4-0.3,0.7s-0.1,0.6-0.1,1
			c0,1.4,0.4,2.2,1.3,2.2c0.2,0,0.3,0,0.5-0.1s0.3-0.2,0.4-0.4s0.2-0.4,0.3-0.7S325.6,359.3,325.6,358.8z"/>
		<path fill="#FFFFFF" d="M328.9,354.6v-1.2h1.6v1.2H328.9z M328.9,362v-6.3h1.6v6.3H328.9z"/>
		<path fill="#FFFFFF" d="M336.4,362v-3.6c0-0.2,0-0.5-0.1-0.7s-0.1-0.4-0.2-0.5s-0.2-0.3-0.4-0.3s-0.3-0.1-0.5-0.1
			c-0.2,0-0.4,0-0.5,0.1s-0.3,0.2-0.4,0.4s-0.2,0.4-0.3,0.6s-0.1,0.5-0.1,0.7v3.4h-1.6v-4.9c0-0.1,0-0.3,0-0.4s0-0.3,0-0.4
			s0-0.2,0-0.4s0-0.2,0-0.2h1.6c0,0,0,0.1,0,0.2s0,0.2,0,0.3s0,0.3,0,0.4s0,0.2,0,0.3h0c0.2-0.5,0.5-0.8,0.8-1.1s0.7-0.3,1.2-0.3
			c0.4,0,0.7,0.1,1,0.2s0.5,0.3,0.6,0.5s0.3,0.5,0.4,0.8s0.1,0.6,0.1,1v4H336.4z"/>
		<path fill="#FFFFFF" d="M342.3,364.6c-0.4,0-0.8,0-1.1-0.1s-0.6-0.2-0.8-0.4s-0.4-0.3-0.5-0.5s-0.2-0.4-0.3-0.7l1.6-0.2
			c0.1,0.3,0.2,0.5,0.4,0.6s0.4,0.2,0.8,0.2c0.2,0,0.4,0,0.5-0.1s0.3-0.1,0.4-0.3s0.2-0.3,0.3-0.5s0.1-0.5,0.1-0.8
			c0-0.1,0-0.2,0-0.3s0-0.2,0-0.3c0-0.1,0-0.2,0-0.3h0c-0.2,0.4-0.5,0.7-0.8,0.9s-0.8,0.3-1.2,0.3c-0.4,0-0.7-0.1-1-0.2
			s-0.5-0.4-0.7-0.7s-0.3-0.6-0.4-1s-0.1-0.8-0.1-1.3c0-0.5,0-0.9,0.1-1.3s0.2-0.7,0.4-1s0.5-0.5,0.8-0.7s0.7-0.2,1.1-0.2
			s0.8,0.1,1.1,0.3s0.6,0.5,0.8,0.9h0c0-0.1,0-0.2,0-0.3s0-0.2,0-0.3s0-0.2,0-0.3s0-0.1,0-0.2h1.6c0,0.1,0,0.3,0,0.6s0,0.5,0,0.9
			v4.7c0,0.5-0.1,0.9-0.2,1.2s-0.3,0.6-0.6,0.9s-0.6,0.4-0.9,0.5S342.7,364.6,342.3,364.6z M343.6,358.8c0-0.4,0-0.7-0.1-1
			s-0.2-0.5-0.3-0.6s-0.3-0.3-0.4-0.3s-0.3-0.1-0.5-0.1c-0.2,0-0.4,0-0.6,0.1s-0.3,0.2-0.4,0.4s-0.2,0.4-0.3,0.7s-0.1,0.6-0.1,0.9
			c0,0.7,0.1,1.2,0.3,1.5s0.5,0.5,1,0.5c0.2,0,0.3,0,0.5-0.1s0.3-0.2,0.4-0.3s0.2-0.4,0.3-0.6S343.6,359.2,343.6,358.8z"/>
	</g>
	<g>
		<defs>
			<rect id="SVGID_3_" x="156.5" y="342.3" width="31.6" height="29.1"/>
		</defs>
		<clipPath id="SVGID_4_">
			<use xlink:href="#SVGID_3_"  overflow="visible"/>
		</clipPath>
		<path clip-path="url(#SVGID_4_)" fill="#364FA1" d="M183.1,367.8c0,2-1.6,3.6-3.6,3.6h-19.4c-2,0-3.6-1.6-3.6-3.6v-19.4
			c0-2,1.6-3.6,3.6-3.6h19.4c2,0,3.6,1.6,3.6,3.6L183.1,367.8L183.1,367.8z"/>
		<path clip-path="url(#SVGID_4_)" fill="#7291CA" d="M181.7,349.4c0-1.8-1.4-3.2-3.2-3.2h-17.4c-1.8,0-3.2,1.4-3.2,3.2v3.6
			l23.7,6.7L181.7,349.4L181.7,349.4z"/>
		<path clip-path="url(#SVGID_4_)" fill="#AE2080" d="M167.2,360.4l2.9,2.9c0,0,0.1,0.1,0.2,0.1c0.1,0,0.1,0,0.2-0.1l14.9-14.9
			C177.8,351.6,171.5,355.8,167.2,360.4"/>
		<path clip-path="url(#SVGID_4_)" fill="#04733B" d="M170.3,363.5c-0.1,0-0.2,0-0.3-0.1l-9.7-9.7c-0.1-0.2-0.1-0.4,0-0.5l3-3
			c0.1-0.1,0.2-0.1,0.3-0.1c0.1,0,0.2,0,0.3,0.1l5.9,5.9c0.1,0.1,0.3,0.2,0.5,0.2c0.2,0,0.3-0.1,0.5-0.2l13.7-13.7
			c0.1-0.1,0.2-0.1,0.3-0.1c0.1,0,0.2,0,0.3,0.1l3,3c0.1,0.1,0.1,0.2,0.1,0.3s0,0.2-0.1,0.3l-17.4,17.4
			C170.5,363.5,170.4,363.5,170.3,363.5"/>
		<path clip-path="url(#SVGID_4_)" fill="#90B83E" d="M185.3,348.4l2.6-2.6c0,0,0.1-0.1,0.1-0.2s0-0.1-0.1-0.2l-3-3
			c0,0-0.1-0.1-0.2-0.1c-0.1,0-0.1,0-0.2,0.1l-13.7,13.7c-0.2,0.2-0.4,0.2-0.6,0.2c-0.2,0-0.4-0.1-0.6-0.2l-5.9-5.9
			c0,0-0.1-0.1-0.2-0.1c-0.1,0-0.1,0-0.2,0.1l-3,3c-0.1,0.1-0.1,0.2,0,0.3l6.8,6.8C171.5,355.8,177.8,351.6,185.3,348.4"/>
		<polygon clip-path="url(#SVGID_4_)" fill="#FFFFFF" points="174,352.1 175.6,350.6 165,350.6 166.6,352.1 		"/>
		<polygon clip-path="url(#SVGID_4_)" fill="#FFFFFF" points="177.9,364.7 162.8,364.7 162.8,356.9 161.2,355.3 161.2,366.3 
			179.5,366.3 179.5,355.2 177.9,356.8 		"/>
		<polygon clip-path="url(#SVGID_4_)" fill="#FFFFFF" points="161.2,350.6 161.2,351.7 162.4,350.6 		"/>
	</g>
</g>
<g>
</g>
<g>
</g>
<g>
</g>
<g>
</g>
<g>
</g>
<g>
</g>
</svg>
