<?xml version="1.0" encoding="utf-8"?>
<!-- Generator: Adobe Illustrator 19.1.0, SVG Export Plug-In . SVG Version: 6.00 Build 0)  -->
<svg version="1.1" xmlns="http://www.w3.org/2000/svg" xmlns:xlink="http://www.w3.org/1999/xlink" x="0px" y="0px"
	 viewBox="0 0 612 792" style="enable-background:new 0 0 612 792;" xml:space="preserve">
<style type="text/css">
	.st0{fill:none;stroke:#00529B;}
	.st1{fill:#00529B;}
	.st2{fill:#987C4D;}
</style>
<g id="type_possibilities">
</g>
<g id="Key_parts">
</g>
<g id="Xi">
</g>
<g id="Sigma">
	<line class="st0" x1="32.1" y1="38.9" x2="163.6" y2="38.9"/>
	<g>
		<path class="st1" d="M33.8,44.6c0-0.3,0-0.6,0-0.8h-1c-0.2,0-0.2,0.1-0.3,0.3l0,0.6h-0.2c0-0.4,0-0.9,0-1.3c0.5,0,0.9,0,1.4,0h0.9
			c0.5,0,0.9,0,1.4,0c0,0.4,0,0.8,0,1.3h-0.2l0-0.6c0-0.2-0.1-0.3-0.3-0.3h-1c0,0.2,0,0.5,0,0.8V48c0,0.3,0,0.5,0.1,0.6
			c0,0.1,0.1,0.1,0.3,0.1l0.3,0v0.2c-0.3,0-0.6,0-0.9,0c-0.3,0-0.6,0-0.9,0v-0.2l0.3,0c0.2,0,0.2,0,0.3-0.1c0-0.1,0.1-0.3,0.1-0.6
			V44.6z"/>
		<path class="st1" d="M40.9,48.1c0,0.3,0,0.4,0,0.5c0,0.1,0.1,0.1,0.2,0.1l0.3,0v0.2c-0.3,0-0.5,0-0.8,0c-0.3,0-0.5,0-0.8,0v-0.2
			l0.3,0c0.1,0,0.2,0,0.2-0.1c0-0.1,0-0.3,0-0.5v-1.5c-0.1,0-0.2,0-0.4,0h-1.3c-0.2,0-0.4,0-0.4,0v1.5c0,0.3,0,0.4,0,0.5
			c0,0.1,0.1,0.1,0.2,0.1l0.3,0v0.2c-0.3,0-0.5,0-0.8,0c-0.3,0-0.5,0-0.8,0v-0.2l0.3,0c0.1,0,0.2,0,0.2-0.1c0-0.1,0-0.3,0-0.5v-3
			c0-0.3,0-0.4,0-0.5c0-0.1-0.1-0.1-0.2-0.1l-0.3,0v-0.2c0.3,0,0.5,0,0.8,0c0.2,0,0.5,0,0.8,0v0.2l-0.3,0c-0.1,0-0.2,0-0.2,0.1
			c0,0.1,0,0.3,0,0.5v1.2c0.1,0,0.2,0,0.4,0H40c0.2,0,0.4,0,0.4,0v-1.2c0-0.3,0-0.4,0-0.5c0-0.1-0.1-0.1-0.2-0.1l-0.3,0v-0.2
			c0.3,0,0.5,0,0.8,0c0.2,0,0.5,0,0.8,0v0.2l-0.3,0c-0.1,0-0.2,0-0.2,0.1c0,0.1,0,0.3,0,0.5V48.1z"/>
		<path class="st1" d="M43.2,45.1c0-0.3,0-0.4,0-0.5c0-0.1-0.1-0.1-0.2-0.1l-0.3,0v-0.2c0.3,0,0.6,0,0.9,0c0.5,0,1,0,1.3,0
			c0.2,0,0.5,0,0.7,0c-0.1,0.3-0.1,0.7-0.1,1h-0.2v-0.4c0-0.1,0-0.2,0-0.2c-0.3-0.1-0.7-0.1-1.1-0.1c-0.1,0-0.3,0-0.5,0.1v1.8
			c0.2,0,0.4,0,0.6,0c0.3,0,0.5,0,0.6-0.1c0,0,0-0.1,0-0.2l0-0.4h0.2c0,0.3,0,0.5,0,0.8c0,0.3,0,0.5,0,0.8H45l0-0.4
			c0-0.1,0-0.1,0-0.2c-0.1-0.1-0.2-0.1-0.6-0.1c-0.3,0-0.5,0-0.6,0v1.9c0.2,0,0.3,0.1,0.5,0.1c0.4,0,1,0,1.1-0.1
			c0.1-0.1,0.2-0.4,0.2-0.8h0.2c-0.1,0.3-0.1,0.7-0.1,1.1c-0.2,0-0.7,0-1.1,0c-0.4,0-0.8,0-1.2,0c-0.2,0-0.4,0-0.6,0v-0.2l0.2,0
			c0.1,0,0.2,0,0.2-0.1c0-0.1,0-0.3,0-0.5V45.1z"/>
		<path class="st1" d="M52.1,44.2l0-0.5c0-0.2-0.1-0.3-0.3-0.5c-0.2-0.2-0.5-0.2-0.8-0.2c-0.5,0-1.1,0.4-1.1,1.3
			c0,0.6,0.3,1,1.2,1.1c1,0.1,1.7,0.5,1.7,1.5c0,1.5-1.1,2.3-2.2,2.3c-0.5,0-1-0.2-1.2-0.3c0.1-0.5,0.1-1,0.1-1.4h0.2l0.1,0.6
			c0,0.4,0.6,0.7,1.2,0.7c0.6,0,1.3-0.5,1.3-1.4c0-0.9-0.5-1.1-1.3-1.2c-1.1-0.2-1.6-0.6-1.6-1.5c0-1.4,1-2,1.8-2
			c0.6,0,1,0.2,1.3,0.4c-0.1,0.5-0.1,0.8-0.1,1.3H52.1z"/>
		<path class="st1" d="M57.6,48.7c-0.3,0.2-0.9,0.4-1.2,0.4c-1.3,0-2.2-0.9-2.2-2.5c0-0.8,0.2-1.4,0.7-1.8c0.4-0.4,1-0.6,1.6-0.6
			c0.5,0,1,0.2,1.3,0.3c-0.1,0.3-0.1,0.7-0.1,1h-0.2v-0.5c0-0.2-0.2-0.3-0.5-0.4c-0.2-0.1-0.4-0.1-0.6-0.1c-1,0-1.6,0.9-1.6,2.1
			c0,1.3,0.7,2.2,1.8,2.2c0.4,0,0.9-0.2,1.1-0.4l0,0.1L57.6,48.7z"/>
		<path class="st1" d="M60.1,48.1c0,0.3,0,0.4,0,0.5c0,0.1,0.1,0.1,0.2,0.1l0.3,0v0.2c-0.3,0-0.5,0-0.8,0c-0.3,0-0.5,0-0.8,0v-0.2
			l0.3,0c0.1,0,0.2,0,0.2-0.1c0-0.1,0-0.3,0-0.5v-3c0-0.3,0-0.4,0-0.5c0-0.1-0.1-0.1-0.2-0.1l-0.3,0v-0.2c0.3,0,0.5,0,0.8,0
			c0.2,0,0.5,0,0.8,0v0.2l-0.3,0c-0.1,0-0.2,0-0.2,0.1c0,0.1,0,0.3,0,0.5V48.1z"/>
		<path class="st1" d="M62.3,45.1c0-0.3,0-0.4,0-0.5c0-0.1-0.1-0.1-0.2-0.1l-0.3,0v-0.2c0.3,0,0.6,0,0.9,0c0.5,0,1,0,1.3,0
			c0.2,0,0.5,0,0.7,0c-0.1,0.3-0.1,0.7-0.1,1h-0.2v-0.4c0-0.1,0-0.2,0-0.2c-0.3-0.1-0.7-0.1-1.1-0.1c-0.1,0-0.3,0-0.5,0.1v1.8
			c0.2,0,0.4,0,0.6,0c0.3,0,0.5,0,0.6-0.1c0,0,0-0.1,0-0.2l0-0.4h0.2c0,0.3,0,0.5,0,0.8c0,0.3,0,0.5,0,0.8h-0.2l0-0.4
			c0-0.1,0-0.1,0-0.2c-0.1-0.1-0.2-0.1-0.6-0.1c-0.3,0-0.5,0-0.6,0v1.9c0.2,0,0.3,0.1,0.5,0.1c0.4,0,1,0,1.1-0.1
			c0.1-0.1,0.2-0.4,0.2-0.8h0.2c-0.1,0.3-0.1,0.7-0.1,1.1c-0.2,0-0.7,0-1.1,0c-0.4,0-0.8,0-1.2,0c-0.2,0-0.4,0-0.6,0v-0.2l0.2,0
			c0.1,0,0.2,0,0.2-0.1c0-0.1,0-0.3,0-0.5V45.1z"/>
		<path class="st1" d="M66.5,45.1c0-0.3,0-0.4,0-0.5c0-0.1-0.1-0.1-0.2-0.1l-0.2,0v-0.2c0.2,0,0.5,0,0.6,0c0.1,0,0.2,0,0.3,0l2.6,4
			h0v-3.2c0-0.3,0-0.4,0-0.5c0-0.1-0.1-0.1-0.2-0.1l-0.2,0l0-0.2c0.2,0,0.4,0,0.6,0c0.2,0,0.4,0,0.6,0v0.2l-0.2,0
			c-0.1,0-0.2,0-0.2,0.1c0,0.1,0,0.3,0,0.5v3.7c0,0.1,0,0.2,0,0.3l-0.5-0.1l-2.6-4h0v3.1c0,0.3,0,0.4,0,0.5c0,0.1,0.1,0.1,0.2,0.1
			l0.2,0v0.2c-0.2,0-0.4,0-0.6,0c-0.2,0-0.4,0-0.6,0v-0.2l0.2,0c0.1,0,0.2,0,0.2-0.1c0-0.1,0-0.3,0-0.5V45.1z"/>
		<path class="st1" d="M72.8,45.2c0-0.3,0-0.5,0-0.7h-0.8c-0.2,0-0.2,0.1-0.2,0.2l0,0.5h-0.2c0-0.4,0-0.7,0-1.1c0.4,0,0.8,0,1.2,0
			h0.8c0.4,0,0.8,0,1.2,0c0,0.4,0,0.7,0,1.1h-0.2l0-0.5c0-0.2-0.1-0.2-0.2-0.2h-0.8c0,0.2,0,0.4,0,0.7v2.9c0,0.3,0,0.4,0,0.5
			c0,0.1,0.1,0.1,0.2,0.1l0.3,0v0.2c-0.3,0-0.5,0-0.8,0c-0.3,0-0.5,0-0.8,0v-0.2l0.3,0c0.1,0,0.2,0,0.2-0.1c0-0.1,0-0.3,0-0.5V45.2z
			"/>
		<path class="st1" d="M76.8,48.1c0,0.3,0,0.4,0,0.5c0,0.1,0.1,0.1,0.2,0.1l0.3,0v0.2c-0.3,0-0.5,0-0.8,0c-0.3,0-0.5,0-0.8,0v-0.2
			l0.3,0c0.1,0,0.2,0,0.2-0.1c0-0.1,0-0.3,0-0.5v-3c0-0.3,0-0.4,0-0.5c0-0.1-0.1-0.1-0.2-0.1l-0.3,0v-0.2c0.3,0,0.5,0,0.8,0
			c0.2,0,0.5,0,0.8,0v0.2l-0.3,0c-0.1,0-0.2,0-0.2,0.1c0,0.1,0,0.3,0,0.5V48.1z"/>
		<path class="st1" d="M79.6,48.1c0,0.3,0,0.4,0,0.5c0,0.1,0.1,0.1,0.2,0.1l0.3,0v0.2c-0.3,0-0.5,0-0.8,0c-0.3,0-0.5,0-0.8,0v-0.2
			l0.3,0c0.1,0,0.2,0,0.2-0.1c0-0.1,0-0.3,0-0.5v-3c0-0.3,0-0.4,0-0.5c0-0.1-0.1-0.1-0.2-0.1l-0.3,0v-0.2c0.3,0,0.6,0,0.9,0
			c0.4,0,0.9,0,1.2,0c0.2,0,0.5,0,0.7,0c-0.1,0.3-0.1,0.7-0.1,1H81v-0.4c0-0.1,0-0.2,0-0.2c-0.3-0.1-0.7-0.1-1-0.1
			c-0.1,0-0.3,0-0.5,0.1v1.8c0.2,0,0.4,0,0.6,0c0.3,0,0.5,0,0.6-0.1c0,0,0-0.1,0-0.2l0-0.4H81c0,0.3,0,0.5,0,0.8c0,0.3,0,0.5,0,0.8
			h-0.2l0-0.4c0-0.1,0-0.1,0-0.2c-0.1-0.1-0.2-0.1-0.6-0.1c-0.3,0-0.5,0-0.6,0V48.1z"/>
		<path class="st1" d="M83.5,48.1c0,0.3,0,0.4,0,0.5c0,0.1,0.1,0.1,0.2,0.1l0.3,0v0.2c-0.3,0-0.5,0-0.8,0c-0.3,0-0.5,0-0.8,0v-0.2
			l0.3,0c0.1,0,0.2,0,0.2-0.1c0-0.1,0-0.3,0-0.5v-3c0-0.3,0-0.4,0-0.5c0-0.1-0.1-0.1-0.2-0.1l-0.3,0v-0.2c0.3,0,0.5,0,0.8,0
			c0.2,0,0.5,0,0.8,0v0.2l-0.3,0c-0.1,0-0.2,0-0.2,0.1c0,0.1,0,0.3,0,0.5V48.1z"/>
		<path class="st1" d="M88.6,48.7c-0.3,0.2-0.9,0.4-1.2,0.4c-1.3,0-2.2-0.9-2.2-2.5c0-0.8,0.2-1.4,0.7-1.8c0.4-0.4,1-0.6,1.6-0.6
			c0.5,0,1,0.2,1.3,0.3c-0.1,0.3-0.1,0.7-0.1,1h-0.2v-0.5c0-0.2-0.2-0.3-0.5-0.4c-0.2-0.1-0.4-0.1-0.6-0.1c-1,0-1.6,0.9-1.6,2.1
			c0,1.3,0.7,2.2,1.8,2.2c0.4,0,0.9-0.2,1.1-0.4l0,0.1L88.6,48.7z"/>
		<path class="st1" d="M93.8,47.8c0,0.3,0,0.6,0.1,0.7c0,0.1,0.1,0.1,0.3,0.1l0.3,0v0.3c-0.4,0-0.7,0-1,0c-0.4,0-0.7,0-1.1,0v-0.3
			l0.3,0c0.2,0,0.3,0,0.3-0.1c0.1-0.1,0.1-0.3,0.1-0.7v-4.1c0-0.3,0-0.6-0.1-0.7c0-0.1-0.1-0.1-0.3-0.1l-0.3,0v-0.3
			c0.4,0,0.8,0,1.2,0c0.4,0,0.8,0,1.3,0c1.2,0,1.5,0.7,1.5,1.4c0,1-0.7,1.6-1.4,1.7l1.6,2.7c0.1,0.2,0.3,0.2,0.4,0.2v0.3
			c-0.2,0-0.4,0-0.5,0s-0.3,0-0.5,0c-0.1-0.2-0.2-0.3-0.3-0.5l-1.3-2.2c-0.1-0.2-0.3-0.4-0.4-0.6l0-0.1c0.2,0,0.4,0,0.6,0
			c0.5-0.1,0.9-0.6,0.9-1.3c0-1-0.6-1.2-1.1-1.2c-0.3,0-0.5,0-0.7,0.1V47.8z"/>
		<path class="st1" d="M98.9,45.1c0-0.3,0-0.4,0-0.5c0-0.1-0.1-0.1-0.2-0.1l-0.3,0v-0.2c0.3,0,0.6,0,0.9,0c0.5,0,1,0,1.3,0
			c0.2,0,0.5,0,0.7,0c-0.1,0.3-0.1,0.7-0.1,1H101v-0.4c0-0.1,0-0.2,0-0.2c-0.3-0.1-0.7-0.1-1.1-0.1c-0.1,0-0.3,0-0.5,0.1v1.8
			c0.2,0,0.4,0,0.6,0c0.3,0,0.5,0,0.6-0.1c0,0,0-0.1,0-0.2l0-0.4h0.2c0,0.3,0,0.5,0,0.8c0,0.3,0,0.5,0,0.8h-0.2l0-0.4
			c0-0.1,0-0.1,0-0.2c-0.1-0.1-0.2-0.1-0.6-0.1c-0.3,0-0.5,0-0.6,0v1.9c0.2,0,0.3,0.1,0.5,0.1c0.4,0,1,0,1.1-0.1
			c0.1-0.1,0.2-0.4,0.2-0.8h0.2c-0.1,0.3-0.1,0.7-0.1,1.1c-0.2,0-0.7,0-1.1,0c-0.4,0-0.8,0-1.2,0c-0.2,0-0.4,0-0.6,0v-0.2l0.2,0
			c0.1,0,0.2,0,0.2-0.1c0-0.1,0-0.3,0-0.5V45.1z"/>
		<path class="st1" d="M104.8,45.3l0-0.4c0-0.2,0-0.3-0.2-0.4c-0.2-0.1-0.4-0.2-0.6-0.2c-0.4,0-0.8,0.3-0.8,1c0,0.5,0.2,0.7,0.9,0.8
			c0.8,0.1,1.2,0.3,1.2,1.1c0,1.2-0.8,1.7-1.6,1.7c-0.4,0-0.7-0.1-0.9-0.3c0-0.4,0-0.7,0-1h0.2l0,0.5c0,0.3,0.5,0.5,0.9,0.5
			c0.5,0,1-0.4,1-1c0-0.6-0.4-0.8-1-0.9c-0.9-0.1-1.2-0.5-1.2-1.2c0-1,0.7-1.5,1.4-1.5c0.4,0,0.8,0.2,1,0.3c-0.1,0.3-0.1,0.6-0.1,1
			H104.8z"/>
		<path class="st1" d="M107,45.1c0-0.3,0-0.4,0-0.5c0-0.1-0.1-0.1-0.2-0.1l-0.3,0v-0.2c0.3,0,0.6,0,0.9,0c0.5,0,1,0,1.3,0
			c0.2,0,0.5,0,0.7,0c-0.1,0.3-0.1,0.7-0.1,1H109v-0.4c0-0.1,0-0.2,0-0.2c-0.3-0.1-0.7-0.1-1.1-0.1c-0.1,0-0.3,0-0.5,0.1v1.8
			c0.2,0,0.4,0,0.6,0c0.3,0,0.5,0,0.6-0.1c0,0,0-0.1,0-0.2l0-0.4h0.2c0,0.3,0,0.5,0,0.8c0,0.3,0,0.5,0,0.8h-0.2l0-0.4
			c0-0.1,0-0.1,0-0.2c-0.1-0.1-0.2-0.1-0.6-0.1c-0.3,0-0.5,0-0.6,0v1.9c0.2,0,0.3,0.1,0.5,0.1c0.4,0,1,0,1.1-0.1
			c0.1-0.1,0.2-0.4,0.2-0.8h0.2c-0.1,0.3-0.1,0.7-0.1,1.1c-0.2,0-0.7,0-1.1,0c-0.4,0-0.8,0-1.2,0c-0.2,0-0.4,0-0.6,0v-0.2l0.2,0
			c0.1,0,0.2,0,0.2-0.1c0-0.1,0-0.3,0-0.5V45.1z"/>
		<path class="st1" d="M111.9,47.1l0.7-2l0.7,2H111.9z M112.8,44.2h-0.2c-0.1,0.5-0.3,1-0.5,1.5l-1,2.7c-0.1,0.2-0.2,0.3-0.3,0.3
			l-0.2,0v0.2c0.2,0,0.4,0,0.6,0c0.2,0,0.4,0,0.6,0v-0.2l-0.2,0c-0.2,0-0.3,0-0.3-0.2c0-0.1,0.1-0.6,0.2-0.7l0.2-0.5h1.6l0.2,0.8
			c0.1,0.2,0.1,0.3,0.1,0.4c0,0.1-0.1,0.1-0.2,0.1l-0.3,0v0.2c0.3,0,0.5,0,0.7,0c0.2,0,0.5,0,0.7,0v-0.2l-0.2,0
			c-0.1,0-0.2-0.1-0.2-0.2c-0.1-0.1-0.1-0.3-0.2-0.5L112.8,44.2z"/>
		<path class="st1" d="M116.9,48.1c0,0.3,0,0.4,0,0.5c0,0.1,0.1,0.1,0.2,0.1l0.3,0v0.2c-0.3,0-0.5,0-0.8,0c-0.3,0-0.5,0-0.8,0v-0.2
			l0.3,0c0.1,0,0.2,0,0.2-0.1c0-0.1,0-0.3,0-0.5v-3c0-0.3,0-0.4,0-0.5c0-0.1-0.1-0.1-0.2-0.1l-0.2,0v-0.2c0.3,0,0.6,0,0.9,0
			c0.3,0,0.6,0,0.9,0c0.9,0,1.1,0.5,1.1,1c0,0.7-0.5,1.2-1.1,1.3l1.2,2c0.1,0.1,0.2,0.2,0.3,0.2v0.2c-0.1,0-0.3,0-0.4,0
			c-0.1,0-0.2,0-0.4,0c-0.1-0.1-0.2-0.2-0.2-0.4l-1-1.7c-0.1-0.1-0.2-0.3-0.3-0.4l0-0.1c0.1,0,0.3,0,0.5,0c0.4-0.1,0.7-0.4,0.7-0.9
			c0-0.7-0.4-0.9-0.9-0.9c-0.2,0-0.4,0-0.6,0.1V48.1z"/>
		<path class="st1" d="M123.8,48.7c-0.3,0.2-0.9,0.4-1.2,0.4c-1.3,0-2.2-0.9-2.2-2.5c0-0.8,0.2-1.4,0.7-1.8c0.4-0.4,1-0.6,1.6-0.6
			c0.5,0,1,0.2,1.3,0.3c-0.1,0.3-0.1,0.7-0.1,1h-0.2v-0.5c0-0.2-0.2-0.3-0.5-0.4c-0.2-0.1-0.4-0.1-0.6-0.1c-1,0-1.6,0.9-1.6,2.1
			c0,1.3,0.7,2.2,1.8,2.2c0.4,0,0.9-0.2,1.1-0.4l0,0.1L123.8,48.7z"/>
		<path class="st1" d="M128.9,48.1c0,0.3,0,0.4,0,0.5c0,0.1,0.1,0.1,0.2,0.1l0.3,0v0.2c-0.3,0-0.5,0-0.8,0c-0.3,0-0.5,0-0.8,0v-0.2
			l0.3,0c0.1,0,0.2,0,0.2-0.1c0-0.1,0-0.3,0-0.5v-1.5c-0.1,0-0.2,0-0.4,0h-1.3c-0.2,0-0.4,0-0.4,0v1.5c0,0.3,0,0.4,0,0.5
			c0,0.1,0.1,0.1,0.2,0.1l0.3,0v0.2c-0.3,0-0.5,0-0.8,0c-0.3,0-0.5,0-0.8,0v-0.2l0.3,0c0.1,0,0.2,0,0.2-0.1c0-0.1,0-0.3,0-0.5v-3
			c0-0.3,0-0.4,0-0.5c0-0.1-0.1-0.1-0.2-0.1l-0.3,0v-0.2c0.3,0,0.5,0,0.8,0c0.2,0,0.5,0,0.8,0v0.2l-0.3,0c-0.1,0-0.2,0-0.2,0.1
			c0,0.1,0,0.3,0,0.5v1.2c0.1,0,0.2,0,0.4,0h1.3c0.2,0,0.4,0,0.4,0v-1.2c0-0.3,0-0.4,0-0.5c0-0.1-0.1-0.1-0.2-0.1l-0.3,0v-0.2
			c0.3,0,0.5,0,0.8,0c0.2,0,0.5,0,0.8,0v0.2l-0.3,0c-0.1,0-0.2,0-0.2,0.1c0,0.1,0,0.3,0,0.5V48.1z"/>
		<path class="st1" d="M135.8,44.2l0-0.5c0-0.2-0.1-0.3-0.3-0.5c-0.2-0.2-0.5-0.2-0.8-0.2c-0.5,0-1.1,0.4-1.1,1.3
			c0,0.6,0.3,1,1.2,1.1c1,0.1,1.7,0.5,1.7,1.5c0,1.5-1.1,2.3-2.2,2.3c-0.5,0-1-0.2-1.2-0.3c0.1-0.5,0.1-1,0.1-1.4h0.2l0.1,0.6
			c0,0.4,0.6,0.7,1.2,0.7c0.6,0,1.3-0.5,1.3-1.4c0-0.9-0.5-1.1-1.3-1.2c-1.1-0.2-1.6-0.6-1.6-1.5c0-1.4,1-2,1.8-2
			c0.6,0,1,0.2,1.3,0.4c-0.1,0.5-0.1,0.8-0.1,1.3H135.8z"/>
		<path class="st1" d="M139.9,44.4c1,0,1.5,0.9,1.5,2.2c0,1.2-0.4,2.1-1.3,2.1c-1.1,0-1.5-1.2-1.5-2.4
			C138.5,45.2,139,44.4,139.9,44.4z M139.9,49c1.2,0,2.1-1.2,2.1-2.6c0-1.5-0.8-2.3-2-2.3c-1.3,0-2,1.1-2,2.5
			C138,48.1,138.8,49,139.9,49z"/>
		<path class="st1" d="M146.5,48.7c-0.3,0.2-0.9,0.4-1.2,0.4c-1.3,0-2.2-0.9-2.2-2.5c0-0.8,0.2-1.4,0.7-1.8c0.4-0.4,1-0.6,1.6-0.6
			c0.5,0,1,0.2,1.3,0.3c-0.1,0.3-0.1,0.7-0.1,1h-0.2v-0.5c0-0.2-0.2-0.3-0.5-0.4c-0.2-0.1-0.4-0.1-0.6-0.1c-1,0-1.6,0.9-1.6,2.1
			c0,1.3,0.7,2.2,1.8,2.2c0.4,0,0.9-0.2,1.1-0.4l0,0.1L146.5,48.7z"/>
		<path class="st1" d="M149,48.1c0,0.3,0,0.4,0,0.5c0,0.1,0.1,0.1,0.2,0.1l0.3,0v0.2c-0.3,0-0.5,0-0.8,0c-0.3,0-0.5,0-0.8,0v-0.2
			l0.3,0c0.1,0,0.2,0,0.2-0.1c0-0.1,0-0.3,0-0.5v-3c0-0.3,0-0.4,0-0.5c0-0.1-0.1-0.1-0.2-0.1l-0.3,0v-0.2c0.3,0,0.5,0,0.8,0
			c0.2,0,0.5,0,0.8,0v0.2l-0.3,0c-0.1,0-0.2,0-0.2,0.1c0,0.1,0,0.3,0,0.5V48.1z"/>
		<path class="st1" d="M151.3,45.1c0-0.3,0-0.4,0-0.5c0-0.1-0.1-0.1-0.2-0.1l-0.3,0v-0.2c0.3,0,0.6,0,0.9,0c0.5,0,1,0,1.3,0
			c0.2,0,0.5,0,0.7,0c-0.1,0.3-0.1,0.7-0.1,1h-0.2v-0.4c0-0.1,0-0.2,0-0.2c-0.3-0.1-0.7-0.1-1.1-0.1c-0.1,0-0.3,0-0.5,0.1v1.8
			c0.2,0,0.4,0,0.6,0c0.3,0,0.5,0,0.6-0.1c0,0,0-0.1,0-0.2l0-0.4h0.2c0,0.3,0,0.5,0,0.8c0,0.3,0,0.5,0,0.8H153l0-0.4
			c0-0.1,0-0.1,0-0.2c-0.1-0.1-0.2-0.1-0.6-0.1c-0.3,0-0.5,0-0.6,0v1.9c0.2,0,0.3,0.1,0.5,0.1c0.4,0,1,0,1.1-0.1
			c0.1-0.1,0.2-0.4,0.2-0.8h0.2c-0.1,0.3-0.1,0.7-0.1,1.1c-0.2,0-0.7,0-1.1,0c-0.4,0-0.8,0-1.2,0c-0.2,0-0.4,0-0.6,0v-0.2l0.2,0
			c0.1,0,0.2,0,0.2-0.1c0-0.1,0-0.3,0-0.5V45.1z"/>
		<path class="st1" d="M156.2,45.2c0-0.3,0-0.5,0-0.7h-0.8c-0.2,0-0.2,0.1-0.2,0.2l0,0.5H155c0-0.4,0-0.7,0-1.1c0.4,0,0.8,0,1.2,0
			h0.8c0.4,0,0.8,0,1.2,0c0,0.4,0,0.7,0,1.1h-0.2l0-0.5c0-0.2-0.1-0.2-0.2-0.2h-0.8c0,0.2,0,0.4,0,0.7v2.9c0,0.3,0,0.4,0,0.5
			c0,0.1,0.1,0.1,0.2,0.1l0.3,0v0.2c-0.3,0-0.5,0-0.8,0c-0.3,0-0.5,0-0.8,0v-0.2l0.3,0c0.1,0,0.2,0,0.2-0.1c0-0.1,0-0.3,0-0.5V45.2z
			"/>
		<path class="st1" d="M161.1,46.6l0.6-1.1c0.2-0.4,0.4-0.9,0.6-1.3h0.4v0.1c-0.5,0.7-1.1,1.8-1.3,2.4c-0.1,0.2-0.1,0.3-0.1,0.5v0.9
			c0,0.3,0,0.4,0,0.5c0,0.1,0.1,0.1,0.2,0.1l0.3,0v0.2c-0.3,0-0.5,0-0.8,0c-0.3,0-0.5,0-0.8,0v-0.2l0.3,0c0.1,0,0.2,0,0.2-0.1
			c0-0.1,0-0.3,0-0.5v-1c0-0.1,0-0.2,0-0.3l-0.7-1.5c-0.3-0.6-0.6-0.9-0.7-0.9l-0.2,0v-0.2l0.6-0.2c0.1,0,0.2,0.1,0.3,0.3
			c0.1,0.1,0.2,0.3,0.2,0.4L161.1,46.6z"/>
	</g>
	<g>
		<path class="st1" d="M44.5,18.1l-0.2-1.8c-0.1-0.8-0.2-1.2-1.4-1.9c-0.9-0.5-2.2-0.8-3.4-0.8c-2.2,0-4.6,1.5-4.6,4.6
			c0,2.1,1.3,3.4,5.2,3.9c4.4,0.5,7.2,1.6,7.2,5.1c0,5.4-4.8,7.9-9.5,7.9c-2.2,0-4.3-0.7-5.4-1.2c0.3-1.6,0.3-3.3,0.2-4.8h1l0.3,2.1
			c0.2,1.3,2.6,2.5,5.1,2.5c2.8,0,5.6-1.7,5.6-4.8c0-3-2.3-3.8-5.5-4.2c-4.9-0.6-6.9-2.1-6.9-5.4c0-4.9,4.3-7.1,8-7.1
			c2.5,0,4.4,0.8,5.7,1.3c-0.3,1.6-0.4,2.9-0.4,4.4H44.5z"/>
		<path class="st1" d="M54.7,31.6c0,1,0.1,1.6,0.2,1.9c0.2,0.3,0.5,0.4,1.1,0.4l1.2,0.1v0.8c-1.3-0.1-2.5-0.1-3.7-0.1
			c-1.2,0-2.4,0-3.7,0.1v-0.8l1.2-0.1c0.6,0,0.9-0.1,1.1-0.4c0.2-0.3,0.2-0.9,0.2-1.9V20.2c0-1-0.1-1.6-0.2-1.9
			C51.9,18.1,51.6,18,51,18l-1.2-0.1v-0.8c1.3,0.1,2.5,0.1,3.7,0.1c1.2,0,2.3,0,3.7-0.1v0.8L56,18c-0.6,0-0.9,0.1-1.1,0.4
			c-0.2,0.3-0.2,0.9-0.2,1.9V31.6z"/>
		<path class="st1" d="M74.2,29.6c0-0.6-0.2-0.8-0.9-0.9l-2.1-0.2v-0.8c1,0,2.1,0.1,3.1,0.1c1,0,2.1,0,3.1-0.1l0.1,0.6l-0.7,0.3
			c-0.3,0.1-0.3,0.2-0.3,0.9v4.2c-2.2,0.6-4.9,1.3-6.6,1.3c-5.6,0-10.2-2.9-10.2-9.3c0-5.5,4.6-9.1,10.6-9.1c3.1,0,5.1,0.7,6.3,1
			c-0.3,1.2-0.5,2.5-0.5,3.8h-0.8v-1.3c0-1.2-0.9-1.6-2.1-2c-0.8-0.3-1.9-0.5-3.5-0.5c-4.8,0-7.3,3.2-7.3,7.6c0,5,2.9,8.6,8.1,8.6
			c1.9,0,3.4-0.4,3.5-0.9c0.1-0.3,0.1-0.4,0.1-1V29.6z"/>
		<path class="st1" d="M100.7,31.6c0,1,0.1,1.6,0.2,1.9c0.2,0.3,0.5,0.4,1.1,0.4l1.2,0.1v0.8c-1.3-0.1-2.5-0.1-3.7-0.1
			c-1.2,0-2.4,0-3.4,0.1v-0.8l0.9-0.1c0.6-0.1,0.9-0.1,1.1-0.4c0.2-0.3,0.2-0.9,0.2-1.9V20.1h-0.1c-0.4,0.7-0.7,1.4-1.1,2.1
			l-4.5,9.5c-0.5,1-0.9,2.1-1.4,3.2h-0.5l-7-14.8h-0.1v11.4c0,1,0.1,1.6,0.2,1.9c0.2,0.3,0.5,0.3,1.1,0.4l1.1,0.1v0.8
			c-1.1,0-2-0.1-3-0.1c-0.9,0-1.9,0.1-2.9,0.1v-0.8l1.1-0.1c0.6-0.1,0.9-0.1,1.1-0.4c0.2-0.3,0.2-0.9,0.2-1.9V20.2
			c0-1-0.1-1.6-0.2-1.9c-0.2-0.3-0.5-0.3-1.1-0.4l-1.1-0.1v-0.8c0.8,0,1.6,0.1,2.4,0.1c0.8,0,1.6-0.1,2.4-0.1l6.7,14l6.6-14
			c0.8,0,1.6,0.1,2.4,0.1c0.8,0,1.6-0.1,2.3-0.1v0.8L102,18c-0.6,0.1-0.9,0.1-1.1,0.4c-0.2,0.3-0.2,0.9-0.2,1.9V31.6z"/>
		<path class="st1" d="M109.8,27.8l3.2-7.5l3.2,7.5H109.8z M114.1,16.9h-0.8c-0.7,1.8-1.5,3.7-2.3,5.4l-4.5,10.2
			c-0.3,0.7-0.8,1.2-1.4,1.2l-0.9,0.1v0.8c1,0,1.9-0.1,2.9-0.1c0.7,0,1.7,0.1,2.9,0.1v-0.8l-0.9-0.1c-0.8-0.1-1.2-0.2-1.2-0.7
			c0-0.4,0.7-2.1,0.9-2.6l0.7-1.7h7.3l1.2,2.9c0.3,0.6,0.5,1.3,0.5,1.6c0,0.3-0.5,0.5-1,0.5l-1.2,0.1v0.8c1.4,0,2.5-0.1,3.4-0.1
			c1.1,0,2.2,0.1,3.4,0.1v-0.8l-0.9-0.1c-0.5-0.1-0.7-0.4-1-0.9c-0.3-0.5-0.6-1.2-0.8-1.7L114.1,16.9z"/>
		<path class="st1" d="M142.9,25.1c-0.5,0.7-1,1.3-1.4,2l-4.9,7.6c-0.5,0-1.1-0.1-1.6-0.1c-0.6,0-1.1,0.1-1.6,0.1v-0.9l0.8-0.1
			c1-0.1,1.5-1,2-1.8l5.9-8l-4-6.7c-1-1.7-2.1-2.8-2.9-2.8l-1.4-0.1l-0.1-0.8l4.4-0.8c0.8,0.4,1.3,1.3,1.8,2l4,6.8l5.8-8.5h3.2v0.9
			l-1.3,0.1c-0.6,0-1.5,1.3-2.1,2.1l-4.8,6.5l5.5,8.8c0.6,0.9,1.3,2.1,2.1,2.2l0.9,0.1v0.9c-0.8,0-1.5-0.1-2.3-0.1
			c-0.8,0-1.5,0.1-2.3,0.1l-0.5-0.8L142.9,25.1z"/>
		<path class="st1" d="M160.9,31.6c0,1,0.1,1.6,0.2,1.9c0.2,0.3,0.5,0.4,1.1,0.4l1.2,0.1l0,0.8c-1.3-0.1-2.5-0.1-3.7-0.1
			c-1.2,0-2.4,0-3.7,0.1v-0.8l1.2-0.1c0.6,0,0.9-0.1,1.1-0.4c0.2-0.3,0.2-0.9,0.2-1.9V20.2c0-1-0.1-1.6-0.2-1.9
			c-0.2-0.3-0.5-0.4-1.1-0.4l-1.2-0.1v-0.8c1.3,0.1,2.5,0.1,3.7,0.1c1.2,0,2.3,0,3.7-0.1v0.8l-1.2,0.1c-0.6,0-0.9,0.1-1.1,0.4
			c-0.2,0.3-0.2,0.9-0.2,1.9V31.6z"/>
	</g>
	<path class="st2" d="M23.2,28.1c-1.1-0.2-0.6,1.1-1,1.6c-0.2,0.4-0.6,0.7-1,0.7h-2.9h-0.2l0.4-2.9l-0.1-0.1l-3.3,0l-1,0.7l-3.8,0
		l2.4-1.7h7.3h0.1c-0.1,0.7-0.3,1.5-0.2,2.2c0.1,0.2,0.3,0.3,0.5,0.3c0.2,0,0.4-0.2,0.4-0.3l2.3-15.9c0.1-0.3,0.1-0.7-0.2-0.8
		c-0.2-0.1-0.5,0-0.6,0.2c-0.3,0.8,0,2.1-1.1,2.4H12v-2.2c0.6-0.2,1.1-0.4,1.7-0.8c1.3-1,1.8-2.5,1.5-4.1c-0.3-1.4-1.6-2.8-3-3.1
		c-1.5-0.4-3,0-4.1,1.1C7,6.2,6.7,7.8,7,9.1c0.3,1.4,1.6,2.7,3,3.1v2.2H1.6c-0.3,0-0.6-0.3-0.8-0.6c-0.4-0.6,0.4-1.5-0.3-2
		c-0.2-0.1-0.5,0-0.6,0.3l-1.2,8.2c0,0.1,0.1,0.3,0.2,0.4c0.2,0.1,0.5,0.1,0.7-0.1c0.2-0.3,0.1-0.6,0.2-0.9c0.1-0.6,0.6-1.2,1.2-1.3
		l3,0l0.1,0.1l-0.3,2.4c0,0,1.5,1.5,1.6,1.5H5.2c-1,0-2.2,0-3.2,0H1.9l0.2-2C2,20.2,1.8,20,1.6,20c-0.2,0-0.4,0.2-0.4,0.4l-1.8,12.5
		l-0.5,3.6c0.1,0.2,0.2,0.2,0.3,0.3c0.2,0.1,0.4,0,0.6-0.1c0.4-0.8,0-2.1,1.1-2.4h9.1v2H9.4C9.1,36.6,9,37,8.8,37.3
		c-0.3,0.9-0.1,1.8,0.6,2.4c0.2,0.1,0.5,0.1,0.6,0.1v8.9c0.6,0.3,1.4,0.3,2,0v-9c0,0,0.4,0,0.6-0.1c0.2-0.1,0.2-0.3,0.4-0.4
		c0.4-0.6,0.5-1.6,0.1-2.2c-0.2-0.3-0.4-0.6-0.7-0.7c-0.1,0-0.2,0-0.4,0v-1.9v-0.1h8.6l0.4,0.1c0.8,0.4,0.5,1.4,0.5,2.1
		c0.1,0.2,0.3,0.3,0.5,0.3c0.2,0,0.3-0.2,0.4-0.3l1.1-7.3C23.3,28.9,23.7,28.3,23.2,28.1z M19.5,21.4l0.4-2.8h1.4l-0.5,3.9h-0.1
		h-8.1h-0.2l-1.8-1.6h4.6l0.9,0.7l3.3,0L19.5,21.4z M10,10.7c-1-0.3-1.6-1.4-1.7-2.3c0-0.9,0.3-1.8,1.1-2.4c0.7-0.5,1.7-0.7,2.5-0.4
		c0.8,0.3,1.6,1.1,1.7,1.8c0.2,0.9,0,1.9-0.7,2.6c-0.3,0.3-0.6,0.5-1,0.7c-0.1-0.2,0.1-0.5-0.2-0.6c-0.6-0.2-1.3-0.1-1.9,0.1
		L10,10.7z M2.2,30.3H0.7h0c0.2-1.3,0.4-2.6,0.6-3.9h0.1h3.2c-0.6,0.5-1.4,1-2,1.5L2.2,30.3z M16.9,31.9H3.1h0l0.5-3.5l5.5-4l0,0
		l-4.4-3.9L5.2,17h0.5H19l-0.5,3.5h-2.3l-0.9-0.7H8.7H7.9l0.1,0.2l5.4,4.7l-0.1,0.2l-6,4.4h0.1h7l1-0.7h2L16.9,31.9z"/>
</g>
</svg>
