<?xml version="1.0" encoding="utf-8"?>
<!-- Generator: Adobe Illustrator 19.1.0, SVG Export Plug-In . SVG Version: 6.00 Build 0)  -->
<svg version="1.1" xmlns="http://www.w3.org/2000/svg" xmlns:xlink="http://www.w3.org/1999/xlink" x="0px" y="0px"
	 viewBox="0 0 612 792" style="enable-background:new 0 0 612 792;" xml:space="preserve">
<style type="text/css">
	.st0{fill:none;stroke:#00529B;}
	.st1{fill:#00529B;}
	.st2{fill:#987C4D;}
</style>
<g id="type_possibilities">
</g>
<g id="Key_parts">
</g>
<g id="Xi">
</g>
<g id="Sigma">
	<line class="st0" x1="307" y1="350.8" x2="358.6" y2="350.8"/>
	<g>
		<path class="st1" d="M307.6,353.1c0-0.1,0-0.2,0-0.3h-0.4c-0.1,0-0.1,0-0.1,0.1l0,0.2h-0.1c0-0.2,0-0.3,0-0.5c0.2,0,0.4,0,0.5,0
			h0.4c0.2,0,0.4,0,0.5,0c0,0.2,0,0.3,0,0.5h-0.1l0-0.2c0-0.1,0-0.1-0.1-0.1h-0.4c0,0.1,0,0.2,0,0.3v1.3c0,0.1,0,0.2,0,0.2
			c0,0,0,0,0.1,0l0.1,0v0.1c-0.1,0-0.2,0-0.4,0c-0.1,0-0.2,0-0.4,0v-0.1l0.1,0c0.1,0,0.1,0,0.1,0c0,0,0-0.1,0-0.2V353.1z"/>
		<path class="st1" d="M310.5,354.5c0,0.1,0,0.2,0,0.2c0,0,0,0,0.1,0l0.1,0v0.1c-0.1,0-0.2,0-0.3,0c-0.1,0-0.2,0-0.3,0v-0.1l0.1,0
			c0.1,0,0.1,0,0.1,0c0,0,0-0.1,0-0.2v-0.6c0,0-0.1,0-0.2,0h-0.5c-0.1,0-0.2,0-0.2,0v0.6c0,0.1,0,0.2,0,0.2c0,0,0,0,0.1,0l0.1,0v0.1
			c-0.1,0-0.2,0-0.3,0c-0.1,0-0.2,0-0.3,0v-0.1l0.1,0c0.1,0,0.1,0,0.1,0c0,0,0-0.1,0-0.2v-1.2c0-0.1,0-0.2,0-0.2c0,0,0,0-0.1,0
			l-0.1,0v-0.1c0.1,0,0.2,0,0.3,0c0.1,0,0.2,0,0.3,0v0.1l-0.1,0c-0.1,0-0.1,0-0.1,0c0,0,0,0.1,0,0.2v0.5c0,0,0.1,0,0.2,0h0.5
			c0.1,0,0.2,0,0.2,0v-0.5c0-0.1,0-0.2,0-0.2c0,0,0,0-0.1,0l-0.1,0v-0.1c0.1,0,0.2,0,0.3,0c0.1,0,0.2,0,0.3,0v0.1l-0.1,0
			c-0.1,0-0.1,0-0.1,0c0,0,0,0.1,0,0.2V354.5z"/>
		<path class="st1" d="M311.4,353.3c0-0.1,0-0.2,0-0.2c0,0,0,0-0.1,0l-0.1,0v-0.1c0.1,0,0.2,0,0.4,0c0.2,0,0.4,0,0.5,0
			c0.1,0,0.2,0,0.3,0c0,0.1,0,0.3,0,0.4h-0.1v-0.2c0,0,0-0.1,0-0.1c-0.1-0.1-0.3-0.1-0.4-0.1c-0.1,0-0.1,0-0.2,0v0.7
			c0.1,0,0.1,0,0.2,0c0.1,0,0.2,0,0.2,0c0,0,0,0,0-0.1l0-0.1h0.1c0,0.1,0,0.2,0,0.3c0,0.1,0,0.2,0,0.3h-0.1l0-0.2c0,0,0-0.1,0-0.1
			c0,0-0.1,0-0.2,0c-0.1,0-0.2,0-0.2,0v0.7c0.1,0,0.1,0,0.2,0c0.2,0,0.4,0,0.4,0c0,0,0.1-0.1,0.1-0.3h0.1c0,0.1,0,0.3,0,0.4
			c-0.1,0-0.3,0-0.4,0c-0.2,0-0.3,0-0.5,0c-0.1,0-0.2,0-0.2,0v-0.1l0.1,0c0.1,0,0.1,0,0.1,0c0,0,0-0.1,0-0.2V353.3z"/>
		<path class="st1" d="M314.8,352.9l0-0.2c0-0.1,0-0.1-0.1-0.2c-0.1-0.1-0.2-0.1-0.3-0.1c-0.2,0-0.4,0.2-0.4,0.5
			c0,0.2,0.1,0.4,0.5,0.4c0.4,0.1,0.7,0.2,0.7,0.6c0,0.6-0.4,0.9-0.9,0.9c-0.2,0-0.4-0.1-0.5-0.1c0-0.2,0-0.4,0-0.5h0.1l0,0.2
			c0,0.1,0.2,0.3,0.5,0.3c0.3,0,0.5-0.2,0.5-0.5c0-0.3-0.2-0.4-0.5-0.5c-0.4-0.1-0.6-0.2-0.6-0.6c0-0.5,0.4-0.8,0.7-0.8
			c0.2,0,0.4,0.1,0.5,0.1C314.9,352.6,314.9,352.8,314.8,352.9L314.8,352.9z"/>
		<path class="st1" d="M317,354.7c-0.1,0.1-0.3,0.1-0.5,0.1c-0.5,0-0.9-0.4-0.9-1c0-0.3,0.1-0.5,0.3-0.7c0.2-0.2,0.4-0.3,0.6-0.3
			c0.2,0,0.4,0.1,0.5,0.1c0,0.1,0,0.3,0,0.4H317v-0.2c0-0.1-0.1-0.1-0.2-0.2c-0.1,0-0.2,0-0.2,0c-0.4,0-0.6,0.4-0.6,0.8
			c0,0.5,0.3,0.9,0.7,0.9c0.2,0,0.3-0.1,0.4-0.2l0,0L317,354.7z"/>
		<path class="st1" d="M318,354.5c0,0.1,0,0.2,0,0.2c0,0,0,0,0.1,0l0.1,0v0.1c-0.1,0-0.2,0-0.3,0c-0.1,0-0.2,0-0.3,0v-0.1l0.1,0
			c0.1,0,0.1,0,0.1,0c0,0,0-0.1,0-0.2v-1.2c0-0.1,0-0.2,0-0.2c0,0,0,0-0.1,0l-0.1,0v-0.1c0.1,0,0.2,0,0.3,0c0.1,0,0.2,0,0.3,0v0.1
			l-0.1,0c-0.1,0-0.1,0-0.1,0c0,0,0,0.1,0,0.2V354.5z"/>
		<path class="st1" d="M318.9,353.3c0-0.1,0-0.2,0-0.2c0,0,0,0-0.1,0l-0.1,0v-0.1c0.1,0,0.2,0,0.4,0c0.2,0,0.4,0,0.5,0
			c0.1,0,0.2,0,0.3,0c0,0.1,0,0.3,0,0.4h-0.1v-0.2c0,0,0-0.1,0-0.1c-0.1-0.1-0.3-0.1-0.4-0.1c-0.1,0-0.1,0-0.2,0v0.7
			c0.1,0,0.1,0,0.2,0c0.1,0,0.2,0,0.2,0c0,0,0,0,0-0.1l0-0.1h0.1c0,0.1,0,0.2,0,0.3c0,0.1,0,0.2,0,0.3h-0.1l0-0.2c0,0,0-0.1,0-0.1
			c0,0-0.1,0-0.2,0c-0.1,0-0.2,0-0.2,0v0.7c0.1,0,0.1,0,0.2,0c0.2,0,0.4,0,0.4,0c0,0,0.1-0.1,0.1-0.3h0.1c0,0.1,0,0.3,0,0.4
			c-0.1,0-0.3,0-0.4,0c-0.2,0-0.3,0-0.5,0c-0.1,0-0.2,0-0.2,0v-0.1l0.1,0c0.1,0,0.1,0,0.1,0c0,0,0-0.1,0-0.2V353.3z"/>
		<path class="st1" d="M320.5,353.3c0-0.1,0-0.2,0-0.2c0,0,0,0-0.1,0l-0.1,0v-0.1c0.1,0,0.2,0,0.3,0c0,0,0.1,0,0.1,0l1,1.6h0v-1.2
			c0-0.1,0-0.2,0-0.2c0,0,0,0-0.1,0l-0.1,0l0-0.1c0.1,0,0.2,0,0.2,0c0.1,0,0.2,0,0.3,0v0.1l-0.1,0c-0.1,0-0.1,0-0.1,0
			c0,0,0,0.1,0,0.2v1.5c0,0,0,0.1,0,0.1l-0.2,0l-1-1.6L320.5,353.3l0.1,1.2c0,0.1,0,0.2,0,0.2c0,0,0,0,0.1,0l0.1,0v0.1
			c-0.1,0-0.2,0-0.3,0c-0.1,0-0.2,0-0.2,0v-0.1l0.1,0c0.1,0,0.1,0,0.1,0c0,0,0-0.1,0-0.2V353.3z"/>
		<path class="st1" d="M323,353.3c0-0.1,0-0.2,0-0.3h-0.3c-0.1,0-0.1,0-0.1,0.1l0,0.2h-0.1c0-0.1,0-0.3,0-0.4c0.2,0,0.3,0,0.5,0h0.3
			c0.2,0,0.3,0,0.5,0c0,0.1,0,0.3,0,0.4h-0.1l0-0.2c0-0.1,0-0.1-0.1-0.1h-0.3c0,0.1,0,0.2,0,0.3v1.1c0,0.1,0,0.2,0,0.2
			c0,0,0,0,0.1,0l0.1,0v0.1c-0.1,0-0.2,0-0.3,0c-0.1,0-0.2,0-0.3,0v-0.1l0.1,0c0.1,0,0.1,0,0.1,0c0,0,0-0.1,0-0.2V353.3z"/>
		<path class="st1" d="M324.6,354.5c0,0.1,0,0.2,0,0.2c0,0,0,0,0.1,0l0.1,0v0.1c-0.1,0-0.2,0-0.3,0c-0.1,0-0.2,0-0.3,0v-0.1l0.1,0
			c0.1,0,0.1,0,0.1,0c0,0,0-0.1,0-0.2v-1.2c0-0.1,0-0.2,0-0.2c0,0,0,0-0.1,0l-0.1,0v-0.1c0.1,0,0.2,0,0.3,0c0.1,0,0.2,0,0.3,0v0.1
			l-0.1,0c-0.1,0-0.1,0-0.1,0c0,0,0,0.1,0,0.2V354.5z"/>
		<path class="st1" d="M325.6,354.5c0,0.1,0,0.2,0,0.2c0,0,0,0,0.1,0l0.1,0v0.1c-0.1,0-0.2,0-0.3,0c-0.1,0-0.2,0-0.3,0v-0.1l0.1,0
			c0.1,0,0.1,0,0.1,0c0,0,0-0.1,0-0.2v-1.2c0-0.1,0-0.2,0-0.2c0,0,0,0-0.1,0l-0.1,0v-0.1c0.1,0,0.2,0,0.4,0c0.1,0,0.3,0,0.5,0
			c0.1,0,0.2,0,0.3,0c0,0.1,0,0.3,0,0.4h-0.1v-0.2c0,0,0-0.1,0-0.1c-0.1-0.1-0.3-0.1-0.4-0.1c-0.1,0-0.1,0-0.2,0v0.7
			c0.1,0,0.1,0,0.2,0c0.1,0,0.2,0,0.2,0c0,0,0,0,0-0.1l0-0.1h0.1c0,0.1,0,0.2,0,0.3c0,0.1,0,0.2,0,0.3h-0.1l0-0.2c0,0,0-0.1,0-0.1
			c0,0-0.1,0-0.2,0c-0.1,0-0.2,0-0.2,0V354.5z"/>
		<path class="st1" d="M327.2,354.5c0,0.1,0,0.2,0,0.2c0,0,0,0,0.1,0l0.1,0v0.1c-0.1,0-0.2,0-0.3,0c-0.1,0-0.2,0-0.3,0v-0.1l0.1,0
			c0.1,0,0.1,0,0.1,0c0,0,0-0.1,0-0.2v-1.2c0-0.1,0-0.2,0-0.2c0,0,0,0-0.1,0l-0.1,0v-0.1c0.1,0,0.2,0,0.3,0c0.1,0,0.2,0,0.3,0v0.1
			l-0.1,0c-0.1,0-0.1,0-0.1,0c0,0,0,0.1,0,0.2V354.5z"/>
		<path class="st1" d="M329.2,354.7c-0.1,0.1-0.3,0.1-0.5,0.1c-0.5,0-0.9-0.4-0.9-1c0-0.3,0.1-0.5,0.3-0.7c0.2-0.2,0.4-0.3,0.6-0.3
			c0.2,0,0.4,0.1,0.5,0.1c0,0.1,0,0.3,0,0.4h-0.1v-0.2c0-0.1-0.1-0.1-0.2-0.2c-0.1,0-0.2,0-0.2,0c-0.4,0-0.6,0.4-0.6,0.8
			c0,0.5,0.3,0.9,0.7,0.9c0.2,0,0.3-0.1,0.4-0.2l0,0L329.2,354.7z"/>
		<path class="st1" d="M331.2,354.4c0,0.1,0,0.2,0,0.3c0,0,0.1,0,0.1,0.1l0.1,0v0.1c-0.1,0-0.3,0-0.4,0c-0.1,0-0.3,0-0.4,0v-0.1
			l0.1,0c0.1,0,0.1,0,0.1-0.1c0,0,0-0.1,0-0.3v-1.6c0-0.1,0-0.2,0-0.3c0,0-0.1,0-0.1-0.1l-0.1,0v-0.1c0.2,0,0.3,0,0.5,0
			c0.2,0,0.3,0,0.5,0c0.5,0,0.6,0.3,0.6,0.5c0,0.4-0.3,0.6-0.6,0.7l0.6,1c0,0.1,0.1,0.1,0.2,0.1v0.1c-0.1,0-0.1,0-0.2,0
			c-0.1,0-0.1,0-0.2,0c0-0.1-0.1-0.1-0.1-0.2l-0.5-0.9c0-0.1-0.1-0.1-0.1-0.2l0,0c0.1,0,0.2,0,0.2,0c0.2,0,0.4-0.2,0.4-0.5
			c0-0.4-0.2-0.5-0.4-0.5c-0.1,0-0.2,0-0.3,0V354.4z"/>
		<path class="st1" d="M333.3,353.3c0-0.1,0-0.2,0-0.2c0,0,0,0-0.1,0l-0.1,0v-0.1c0.1,0,0.2,0,0.4,0c0.2,0,0.4,0,0.5,0
			c0.1,0,0.2,0,0.3,0c0,0.1,0,0.3,0,0.4h-0.1v-0.2c0,0,0-0.1,0-0.1c-0.1-0.1-0.3-0.1-0.4-0.1c-0.1,0-0.1,0-0.2,0v0.7
			c0.1,0,0.1,0,0.2,0c0.1,0,0.2,0,0.2,0c0,0,0,0,0-0.1l0-0.1h0.1c0,0.1,0,0.2,0,0.3c0,0.1,0,0.2,0,0.3H334l0-0.2c0,0,0-0.1,0-0.1
			c0,0-0.1,0-0.2,0c-0.1,0-0.2,0-0.2,0v0.7c0.1,0,0.1,0,0.2,0c0.2,0,0.4,0,0.4,0c0,0,0.1-0.1,0.1-0.3h0.1c0,0.1,0,0.3,0,0.4
			c-0.1,0-0.3,0-0.4,0c-0.2,0-0.3,0-0.5,0c-0.1,0-0.2,0-0.2,0v-0.1l0.1,0c0.1,0,0.1,0,0.1,0c0,0,0-0.1,0-0.2V353.3z"/>
		<path class="st1" d="M335.5,353.4l0-0.2c0-0.1,0-0.1-0.1-0.2c-0.1,0-0.1-0.1-0.2-0.1c-0.1,0-0.3,0.1-0.3,0.4
			c0,0.2,0.1,0.3,0.4,0.3c0.3,0,0.5,0.1,0.5,0.4c0,0.5-0.3,0.7-0.6,0.7c-0.1,0-0.3-0.1-0.4-0.1c0-0.1,0-0.3,0-0.4h0.1l0,0.2
			c0,0.1,0.2,0.2,0.3,0.2c0.2,0,0.4-0.1,0.4-0.4c0-0.3-0.2-0.3-0.4-0.4c-0.3,0-0.5-0.2-0.5-0.5c0-0.4,0.3-0.6,0.5-0.6
			c0.2,0,0.3,0.1,0.4,0.1C335.6,353.2,335.6,353.3,335.5,353.4L335.5,353.4z"/>
		<path class="st1" d="M336.4,353.3c0-0.1,0-0.2,0-0.2c0,0,0,0-0.1,0l-0.1,0v-0.1c0.1,0,0.2,0,0.4,0c0.2,0,0.4,0,0.5,0
			c0.1,0,0.2,0,0.3,0c0,0.1,0,0.3,0,0.4h-0.1v-0.2c0,0,0-0.1,0-0.1c-0.1-0.1-0.3-0.1-0.4-0.1c-0.1,0-0.1,0-0.2,0v0.7
			c0.1,0,0.1,0,0.2,0c0.1,0,0.2,0,0.2,0c0,0,0,0,0-0.1l0-0.1h0.1c0,0.1,0,0.2,0,0.3c0,0.1,0,0.2,0,0.3h-0.1l0-0.2c0,0,0-0.1,0-0.1
			c0,0-0.1,0-0.2,0c-0.1,0-0.2,0-0.2,0v0.7c0.1,0,0.1,0,0.2,0c0.2,0,0.4,0,0.4,0c0,0,0.1-0.1,0.1-0.3h0.1c0,0.1,0,0.3,0,0.4
			c-0.1,0-0.3,0-0.4,0c-0.2,0-0.3,0-0.5,0c-0.1,0-0.2,0-0.2,0v-0.1l0.1,0c0.1,0,0.1,0,0.1,0c0,0,0-0.1,0-0.2V353.3z"/>
		<path class="st1" d="M338.3,354.1l0.3-0.8l0.3,0.8H338.3z M338.7,352.9L338.7,352.9c-0.1,0.2-0.2,0.4-0.3,0.6l-0.4,1.1
			c0,0.1-0.1,0.1-0.1,0.1l-0.1,0v0.1c0.1,0,0.2,0,0.2,0c0.1,0,0.1,0,0.2,0v-0.1l-0.1,0c-0.1,0-0.1,0-0.1-0.1c0,0,0.1-0.2,0.1-0.3
			l0.1-0.2h0.6l0.1,0.3c0,0.1,0,0.1,0,0.2c0,0,0,0.1-0.1,0.1l-0.1,0v0.1c0.1,0,0.2,0,0.3,0c0.1,0,0.2,0,0.3,0v-0.1l-0.1,0
			c0,0-0.1,0-0.1-0.1c0-0.1,0-0.1-0.1-0.2L338.7,352.9z"/>
		<path class="st1" d="M340.3,354.5c0,0.1,0,0.2,0,0.2c0,0,0,0,0.1,0l0.1,0v0.1c-0.1,0-0.2,0-0.3,0c-0.1,0-0.2,0-0.3,0v-0.1l0.1,0
			c0.1,0,0.1,0,0.1,0c0,0,0-0.1,0-0.2v-1.2c0-0.1,0-0.2,0-0.2c0,0,0,0-0.1,0l-0.1,0v-0.1c0.1,0,0.2,0,0.4,0c0.1,0,0.2,0,0.4,0
			c0.3,0,0.4,0.2,0.4,0.4c0,0.3-0.2,0.5-0.4,0.5l0.5,0.8c0,0.1,0.1,0.1,0.1,0.1v0.1c-0.1,0-0.1,0-0.2,0c0,0-0.1,0-0.1,0
			c0-0.1-0.1-0.1-0.1-0.1l-0.4-0.7c0-0.1-0.1-0.1-0.1-0.2l0,0c0.1,0,0.1,0,0.2,0c0.1,0,0.3-0.2,0.3-0.4c0-0.3-0.2-0.4-0.3-0.4
			c-0.1,0-0.2,0-0.2,0V354.5z"/>
		<path class="st1" d="M343,354.7c-0.1,0.1-0.3,0.1-0.5,0.1c-0.5,0-0.9-0.4-0.9-1c0-0.3,0.1-0.5,0.3-0.7c0.2-0.2,0.4-0.3,0.6-0.3
			c0.2,0,0.4,0.1,0.5,0.1c0,0.1,0,0.3,0,0.4h-0.1v-0.2c0-0.1-0.1-0.1-0.2-0.2c-0.1,0-0.2,0-0.2,0c-0.4,0-0.6,0.4-0.6,0.8
			c0,0.5,0.3,0.9,0.7,0.9c0.2,0,0.3-0.1,0.4-0.2l0,0L343,354.7z"/>
		<path class="st1" d="M345,354.5c0,0.1,0,0.2,0,0.2c0,0,0,0,0.1,0l0.1,0v0.1c-0.1,0-0.2,0-0.3,0c-0.1,0-0.2,0-0.3,0v-0.1l0.1,0
			c0.1,0,0.1,0,0.1,0c0,0,0-0.1,0-0.2v-0.6c0,0-0.1,0-0.2,0h-0.5c-0.1,0-0.2,0-0.2,0v0.6c0,0.1,0,0.2,0,0.2c0,0,0,0,0.1,0l0.1,0v0.1
			c-0.1,0-0.2,0-0.3,0c-0.1,0-0.2,0-0.3,0v-0.1l0.1,0c0.1,0,0.1,0,0.1,0c0,0,0-0.1,0-0.2v-1.2c0-0.1,0-0.2,0-0.2c0,0,0,0-0.1,0
			l-0.1,0v-0.1c0.1,0,0.2,0,0.3,0c0.1,0,0.2,0,0.3,0v0.1l-0.1,0c-0.1,0-0.1,0-0.1,0c0,0,0,0.1,0,0.2v0.5c0,0,0.1,0,0.2,0h0.5
			c0.1,0,0.2,0,0.2,0v-0.5c0-0.1,0-0.2,0-0.2c0,0,0,0-0.1,0l-0.1,0v-0.1c0.1,0,0.2,0,0.3,0c0.1,0,0.2,0,0.3,0v0.1l-0.1,0
			c-0.1,0-0.1,0-0.1,0c0,0,0,0.1,0,0.2V354.5z"/>
		<path class="st1" d="M347.7,352.9l0-0.2c0-0.1,0-0.1-0.1-0.2c-0.1-0.1-0.2-0.1-0.3-0.1c-0.2,0-0.4,0.2-0.4,0.5
			c0,0.2,0.1,0.4,0.5,0.4c0.4,0.1,0.7,0.2,0.7,0.6c0,0.6-0.4,0.9-0.9,0.9c-0.2,0-0.4-0.1-0.5-0.1c0-0.2,0-0.4,0-0.5h0.1l0,0.2
			c0,0.1,0.2,0.3,0.5,0.3c0.3,0,0.5-0.2,0.5-0.5c0-0.3-0.2-0.4-0.5-0.5c-0.4-0.1-0.6-0.2-0.6-0.6c0-0.5,0.4-0.8,0.7-0.8
			c0.2,0,0.4,0.1,0.5,0.1C347.8,352.6,347.8,352.8,347.7,352.9L347.7,352.9z"/>
		<path class="st1" d="M349.4,353c0.4,0,0.6,0.4,0.6,0.9c0,0.5-0.2,0.8-0.5,0.8c-0.4,0-0.6-0.5-0.6-1C348.8,353.3,349,353,349.4,353
			z M349.3,354.8c0.5,0,0.8-0.5,0.8-1c0-0.6-0.3-0.9-0.8-0.9c-0.5,0-0.8,0.4-0.8,1C348.6,354.5,348.9,354.8,349.3,354.8z"/>
		<path class="st1" d="M351.9,354.7c-0.1,0.1-0.3,0.1-0.5,0.1c-0.5,0-0.9-0.4-0.9-1c0-0.3,0.1-0.5,0.3-0.7c0.2-0.2,0.4-0.3,0.6-0.3
			c0.2,0,0.4,0.1,0.5,0.1c0,0.1,0,0.3,0,0.4h-0.1v-0.2c0-0.1-0.1-0.1-0.2-0.2c-0.1,0-0.2,0-0.2,0c-0.4,0-0.6,0.4-0.6,0.8
			c0,0.5,0.3,0.9,0.7,0.9c0.2,0,0.3-0.1,0.4-0.2l0,0L351.9,354.7z"/>
		<path class="st1" d="M352.9,354.5c0,0.1,0,0.2,0,0.2c0,0,0,0,0.1,0l0.1,0v0.1c-0.1,0-0.2,0-0.3,0c-0.1,0-0.2,0-0.3,0v-0.1l0.1,0
			c0.1,0,0.1,0,0.1,0c0,0,0-0.1,0-0.2v-1.2c0-0.1,0-0.2,0-0.2c0,0,0,0-0.1,0l-0.1,0v-0.1c0.1,0,0.2,0,0.3,0c0.1,0,0.2,0,0.3,0v0.1
			l-0.1,0c-0.1,0-0.1,0-0.1,0c0,0,0,0.1,0,0.2V354.5z"/>
		<path class="st1" d="M353.8,353.3c0-0.1,0-0.2,0-0.2c0,0,0,0-0.1,0l-0.1,0v-0.1c0.1,0,0.2,0,0.4,0c0.2,0,0.4,0,0.5,0
			c0.1,0,0.2,0,0.3,0c0,0.1,0,0.3,0,0.4h-0.1v-0.2c0,0,0-0.1,0-0.1c-0.1-0.1-0.3-0.1-0.4-0.1c-0.1,0-0.1,0-0.2,0v0.7
			c0.1,0,0.1,0,0.2,0c0.1,0,0.2,0,0.2,0c0,0,0,0,0-0.1l0-0.1h0.1c0,0.1,0,0.2,0,0.3c0,0.1,0,0.2,0,0.3h-0.1l0-0.2c0,0,0-0.1,0-0.1
			c0,0-0.1,0-0.2,0c-0.1,0-0.2,0-0.2,0v0.7c0.1,0,0.1,0,0.2,0c0.2,0,0.4,0,0.4,0c0,0,0.1-0.1,0.1-0.3h0.1c0,0.1,0,0.3,0,0.4
			c-0.1,0-0.3,0-0.4,0c-0.2,0-0.3,0-0.5,0c-0.1,0-0.2,0-0.2,0v-0.1l0.1,0c0.1,0,0.1,0,0.1,0c0,0,0-0.1,0-0.2V353.3z"/>
		<path class="st1" d="M355.8,353.3c0-0.1,0-0.2,0-0.3h-0.3c-0.1,0-0.1,0-0.1,0.1l0,0.2h-0.1c0-0.1,0-0.3,0-0.4c0.2,0,0.3,0,0.5,0
			h0.3c0.2,0,0.3,0,0.5,0c0,0.1,0,0.3,0,0.4h-0.1l0-0.2c0-0.1,0-0.1-0.1-0.1H356c0,0.1,0,0.2,0,0.3v1.1c0,0.1,0,0.2,0,0.2
			c0,0,0,0,0.1,0l0.1,0v0.1c-0.1,0-0.2,0-0.3,0c-0.1,0-0.2,0-0.3,0v-0.1l0.1,0c0.1,0,0.1,0,0.1,0c0,0,0-0.1,0-0.2V353.3z"/>
		<path class="st1" d="M357.7,353.9l0.2-0.4c0.1-0.2,0.2-0.3,0.2-0.5h0.2v0C358.1,353.2,357.8,353.7,357.7,353.9
			c0.1,0.1,0.1,0.2,0.1,0.2v0.3c0,0.1,0,0.2,0,0.2c0,0,0,0,0.1,0l0.1,0v0.1c-0.1,0-0.2,0-0.3,0c-0.1,0-0.2,0-0.3,0v-0.1l0.1,0
			c0.1,0,0.1,0,0.1,0c0,0,0-0.1,0-0.2v-0.4c0,0,0-0.1,0-0.1l-0.3-0.6c-0.1-0.2-0.2-0.3-0.3-0.3l-0.1,0V353l0.2-0.1
			c0,0,0.1,0,0.1,0.1c0,0.1,0.1,0.1,0.1,0.2L357.7,353.9z"/>
	</g>
	<g>
		<path class="st1" d="M311.9,342.7l-0.1-0.7c0-0.3-0.1-0.5-0.5-0.7c-0.3-0.2-0.9-0.3-1.3-0.3c-0.9,0-1.8,0.6-1.8,1.8
			c0,0.8,0.5,1.4,2,1.5c1.7,0.2,2.8,0.6,2.8,2c0,2.1-1.9,3.1-3.7,3.1c-0.9,0-1.7-0.3-2.1-0.5c0.1-0.6,0.1-1.3,0.1-1.9h0.4l0.1,0.8
			c0.1,0.5,1,1,2,1c1.1,0,2.2-0.7,2.2-1.9c0-1.2-0.9-1.5-2.2-1.6c-1.9-0.2-2.7-0.8-2.7-2.1c0-1.9,1.7-2.8,3.1-2.8
			c1,0,1.7,0.3,2.2,0.5c-0.1,0.6-0.2,1.2-0.2,1.7H311.9z"/>
		<path class="st1" d="M315.9,348c0,0.4,0,0.6,0.1,0.7c0.1,0.1,0.2,0.1,0.4,0.1l0.5,0v0.3c-0.5,0-1,0-1.4,0c-0.5,0-1,0-1.5,0v-0.3
			l0.5,0c0.2,0,0.4,0,0.4-0.1c0.1-0.1,0.1-0.4,0.1-0.7v-4.4c0-0.4,0-0.6-0.1-0.7c-0.1-0.1-0.2-0.1-0.4-0.1l-0.5,0v-0.3
			c0.5,0,1,0,1.5,0c0.5,0,0.9,0,1.4,0v0.3l-0.5,0c-0.2,0-0.4,0-0.4,0.1c-0.1,0.1-0.1,0.4-0.1,0.7V348z"/>
		<path class="st1" d="M323.5,347.2c0-0.2-0.1-0.3-0.3-0.3l-0.8-0.1v-0.3c0.4,0,0.8,0,1.2,0c0.4,0,0.8,0,1.2,0l0,0.2l-0.3,0.1
			c-0.1,0-0.1,0.1-0.1,0.4v1.7c-0.9,0.2-1.9,0.5-2.6,0.5c-2.2,0-4-1.1-4-3.6c0-2.2,1.8-3.6,4.2-3.6c1.2,0,2,0.3,2.5,0.4
			c-0.1,0.5-0.2,1-0.2,1.5H324v-0.5c0-0.5-0.4-0.6-0.8-0.8c-0.3-0.1-0.7-0.2-1.4-0.2c-1.9,0-2.9,1.2-2.9,3c0,2,1.1,3.4,3.2,3.4
			c0.8,0,1.3-0.2,1.4-0.3c0-0.1,0-0.2,0-0.4V347.2z"/>
		<path class="st1" d="M333.9,348c0,0.4,0,0.6,0.1,0.7c0.1,0.1,0.2,0.1,0.4,0.1l0.5,0v0.3c-0.5,0-1,0-1.4,0c-0.5,0-1,0-1.3,0v-0.3
			l0.3,0c0.2,0,0.4,0,0.4-0.1c0.1-0.1,0.1-0.4,0.1-0.7v-4.5h0c-0.1,0.3-0.3,0.5-0.4,0.8l-1.8,3.7c-0.2,0.4-0.4,0.8-0.5,1.3h-0.2
			l-2.7-5.8h0v4.5c0,0.4,0,0.6,0.1,0.7c0.1,0.1,0.2,0.1,0.4,0.1l0.4,0v0.3c-0.4,0-0.8,0-1.2,0c-0.4,0-0.8,0-1.1,0v-0.3l0.4,0
			c0.2,0,0.4,0,0.4-0.1c0.1-0.1,0.1-0.4,0.1-0.7v-4.4c0-0.4,0-0.6-0.1-0.7c-0.1-0.1-0.2-0.1-0.4-0.1l-0.4,0v-0.3c0.3,0,0.6,0,0.9,0
			c0.3,0,0.6,0,0.9,0l2.6,5.5l2.6-5.5c0.3,0,0.6,0,0.9,0c0.3,0,0.6,0,0.9,0v0.3l-0.4,0c-0.2,0-0.4,0-0.4,0.1
			c-0.1,0.1-0.1,0.4-0.1,0.7V348z"/>
		<path class="st1" d="M337.5,346.5l1.3-3l1.2,3H337.5z M339.2,342.2h-0.3c-0.3,0.7-0.6,1.4-0.9,2.1l-1.8,4
			c-0.1,0.3-0.3,0.5-0.5,0.5l-0.4,0v0.3c0.4,0,0.8,0,1.1,0c0.3,0,0.7,0,1.1,0v-0.3l-0.4,0c-0.3,0-0.5-0.1-0.5-0.3
			c0-0.2,0.3-0.8,0.3-1l0.3-0.7h2.9l0.5,1.1c0.1,0.2,0.2,0.5,0.2,0.6c0,0.1-0.2,0.2-0.4,0.2l-0.5,0v0.3c0.5,0,1,0,1.3,0
			c0.4,0,0.9,0,1.3,0v-0.3l-0.3,0c-0.2,0-0.3-0.1-0.4-0.3c-0.1-0.2-0.2-0.5-0.3-0.7L339.2,342.2z"/>
		<path class="st1" d="M350.5,345.4c-0.2,0.3-0.4,0.5-0.6,0.8l-1.9,3c-0.2,0-0.4,0-0.6,0c-0.2,0-0.4,0-0.6,0v-0.4l0.3,0
			c0.4,0,0.6-0.4,0.8-0.7l2.3-3.1l-1.6-2.6c-0.4-0.7-0.8-1.1-1.1-1.1l-0.6,0l0-0.3l1.7-0.3c0.3,0.1,0.5,0.5,0.7,0.8l1.6,2.7l2.3-3.3
			h1.2v0.4l-0.5,0c-0.2,0-0.6,0.5-0.8,0.8l-1.9,2.6l2.2,3.4c0.2,0.4,0.5,0.8,0.8,0.9l0.4,0v0.4c-0.3,0-0.6,0-0.9,0
			c-0.3,0-0.6,0-0.9,0l-0.2-0.3L350.5,345.4z"/>
		<path class="st1" d="M357.6,348c0,0.4,0,0.6,0.1,0.7c0.1,0.1,0.2,0.1,0.4,0.1l0.5,0l0,0.3c-0.5,0-1,0-1.4,0c-0.5,0-1,0-1.5,0v-0.3
			l0.5,0c0.2,0,0.4,0,0.4-0.1c0.1-0.1,0.1-0.4,0.1-0.7v-4.4c0-0.4,0-0.6-0.1-0.7c-0.1-0.1-0.2-0.1-0.4-0.1l-0.5,0v-0.3
			c0.5,0,1,0,1.5,0c0.5,0,0.9,0,1.4,0v0.3l-0.5,0c-0.2,0-0.4,0-0.4,0.1c-0.1,0.1-0.1,0.4-0.1,0.7V348z"/>
	</g>
	<path class="st2" d="M303.5,346.6c-0.4-0.1-0.2,0.4-0.4,0.6c-0.1,0.1-0.2,0.3-0.4,0.3h-1.1h-0.1l0.2-1.1l0,0l-1.3,0l-0.4,0.3
		l-1.5,0l1-0.7h2.9h0c0,0.3-0.1,0.6-0.1,0.9c0,0.1,0.1,0.1,0.2,0.1c0.1,0,0.1-0.1,0.2-0.1l0.9-6.2c0-0.1,0-0.3-0.1-0.3
		c-0.1,0-0.2,0-0.2,0.1c-0.1,0.3,0,0.8-0.4,0.9h-3.6v-0.9c0.2-0.1,0.4-0.2,0.6-0.3c0.5-0.4,0.7-1,0.6-1.6c-0.1-0.5-0.6-1.1-1.2-1.2
		c-0.6-0.2-1.2,0-1.6,0.4c-0.4,0.4-0.6,1-0.4,1.5c0.1,0.6,0.6,1.1,1.2,1.2v0.9H295c-0.1,0-0.3-0.1-0.3-0.2c-0.2-0.2,0.1-0.6-0.1-0.8
		c-0.1,0-0.2,0-0.2,0.1l-0.5,3.2c0,0.1,0,0.1,0.1,0.1c0.1,0,0.2,0,0.3,0c0.1-0.1,0.1-0.2,0.1-0.4c0-0.2,0.2-0.5,0.5-0.5l1.2,0l0,0
		l-0.1,1c0,0,0.6,0.6,0.6,0.6h0c-0.4,0-0.8,0-1.3,0h0l0.1-0.8c0-0.1-0.1-0.2-0.2-0.2c-0.1,0-0.2,0.1-0.2,0.1l-0.7,4.9l-0.2,1.4
		c0,0.1,0.1,0.1,0.1,0.1c0.1,0,0.2,0,0.2,0c0.2-0.3,0-0.8,0.4-0.9h3.6v0.8h-0.2c-0.1,0.1-0.2,0.2-0.2,0.4c-0.1,0.3,0,0.7,0.2,0.9
		c0.1,0,0.2,0,0.2,0v3.5c0.2,0.1,0.6,0.1,0.8,0v-3.5c0,0,0.1,0,0.2,0c0.1-0.1,0.1-0.1,0.1-0.2c0.2-0.2,0.2-0.6,0.1-0.9
		c-0.1-0.1-0.1-0.2-0.3-0.3c-0.1,0-0.1,0-0.1,0v-0.8v0h3.4l0.2,0.1c0.3,0.2,0.2,0.5,0.2,0.8c0,0.1,0.1,0.1,0.2,0.1
		c0.1,0,0.1-0.1,0.1-0.1l0.4-2.9C303.6,346.9,303.7,346.7,303.5,346.6z M302,344l0.2-1.1h0.6l-0.2,1.5h0h-3.2h-0.1l-0.7-0.6h1.8
		l0.4,0.3L302,344L302,344z M298.3,339.8c-0.4-0.1-0.6-0.5-0.7-0.9c0-0.4,0.1-0.7,0.4-0.9c0.3-0.2,0.7-0.3,1-0.1
		c0.3,0.1,0.6,0.4,0.7,0.7c0.1,0.4,0,0.7-0.3,1c-0.1,0.1-0.2,0.2-0.4,0.3c0-0.1,0-0.2-0.1-0.2c-0.2-0.1-0.5-0.1-0.7,0.1L298.3,339.8
		z M295.3,347.5h-0.6h0c0.1-0.5,0.1-1,0.2-1.5h0h1.3c-0.3,0.2-0.5,0.4-0.8,0.6L295.3,347.5z M301,348.1h-5.4h0l0.2-1.4l2.2-1.6l0,0
		l-1.7-1.5l0.2-1.4h0.2h5.3l-0.2,1.4h-0.9l-0.3-0.3h-2.6h-0.3l0.1,0.1l2.1,1.9l-0.1,0.1l-2.4,1.7h0h2.7l0.4-0.3h0.8L301,348.1z"/>
</g>
</svg>
