<?xml version="1.0" encoding="utf-8"?>
<!-- Generator: Adobe Illustrator 15.1.0, SVG Export Plug-In . SVG Version: 6.00 Build 0)  -->
<!DOCTYPE svg PUBLIC "-//W3C//DTD SVG 1.0//EN" "http://www.w3.org/TR/2001/REC-SVG-20010904/DTD/svg10.dtd">
<svg version="1.0" id="Layer_1" xmlns="http://www.w3.org/2000/svg" xmlns:xlink="http://www.w3.org/1999/xlink" x="0px" y="0px"
	 width="392.97px" height="40.034px" viewBox="0 0 392.97 40.034" enable-background="new 0 0 392.97 40.034" xml:space="preserve">
<rect x="28.1" fill="#010101" width="349.317" height="40.034"/>
<rect x="278.992" fill="#009B91" width="113.978" height="40.034"/>
<g>
	<path fill="#FFFFFF" d="M289.562,35.092V4.096h4.397v27.709h13.948v3.287H289.562z"/>
	<path fill="#FFFFFF" d="M314.555,35.092V4.096h4.397v30.997H314.555z"/>
	<path fill="#FFFFFF" d="M329.077,35.092V4.096h4.313l15.603,23.938V4.096h3.771v30.997h-4.294l-15.624-23.927v23.927H329.077z"/>
	<path fill="#FFFFFF" d="M362.909,35.092V4.096h4.125v15.249l12.545-15.249H384l-12.141,14.789l14.283,16.208h-5.559l-13.55-15.707
		v15.707H362.909z"/>
</g>
<g>
	<path fill="#FFFFFF" d="M55.031,29.657v-2.385h5.558V11.367h-5.558V8.982h14.291v2.385h-5.558v15.905h5.558v2.385H55.031z"/>
	<path fill="#FFFFFF" d="M75.059,29.657V12.158h3.176v3.287c1.459-2.449,3.448-3.674,5.962-3.674c3.319,0,4.978,1.972,4.978,5.912
		v11.973h-3.173V18.554c0-1.362-0.214-2.332-0.638-2.909c-0.425-0.574-1.135-0.861-2.134-0.861c-1.591,0-3.255,1.146-4.995,3.434
		v11.44H75.059z"/>
	<path fill="#FFFFFF" d="M109.767,29.639c-1.59,0.279-3.126,0.42-4.608,0.42c-2.589,0-4.351-0.463-5.285-1.395
		c-0.935-0.93-1.4-2.688-1.4-5.277v-8.443h-4.368V12.56h4.368V8.789h3.173v3.771h7.767v2.385h-7.767v8.958
		c0,1,0.062,1.688,0.186,2.063c0.125,0.379,0.392,0.703,0.8,0.984c0.731,0.484,1.798,0.725,3.196,0.725
		c1.324,0,2.639-0.15,3.939-0.451V29.639z"/>
	<path fill="#FFFFFF" d="M129.586,28.963c-2.202,0.729-4.222,1.096-6.059,1.096c-3.008,0-5.32-0.773-6.937-2.32
		c-1.617-1.547-2.424-3.76-2.424-6.639c0-2.716,0.774-4.951,2.327-6.703c1.552-1.749,3.526-2.625,5.923-2.625
		c2.417,0,4.196,0.724,5.341,2.174c1.144,1.45,1.717,3.706,1.717,6.768v1.016h-11.924c0.234,3.965,2.373,5.945,6.413,5.945
		c1.708,0,3.581-0.408,5.622-1.225V28.963z M117.647,19.345h8.443v-0.451c0-3.158-1.317-4.737-3.949-4.737
		c-1.268,0-2.296,0.457-3.085,1.368C118.267,16.438,117.797,17.71,117.647,19.345z"/>
	<path fill="#FFFFFF" d="M136.74,29.657V12.158h3.176v3.287c1.611-2.449,3.774-3.674,6.492-3.674c0.956,0,2.042,0.135,3.255,0.401
		v4.963h-2.385v-2.432c-0.472-0.108-0.902-0.161-1.289-0.161c-1.213,0-2.279,0.281-3.198,0.844
		c-0.918,0.565-1.876,1.523-2.875,2.877v11.393H136.74z"/>
	<path fill="#FFFFFF" d="M165.117,27.545c-1.925,1.611-3.841,2.416-5.754,2.416c-1.6,0-2.918-0.457-3.955-1.367
		c-1.037-0.914-1.556-2.068-1.556-3.467c0-1.813,0.806-3.275,2.417-4.382c1.611-1.104,3.738-1.658,6.381-1.658h1.966v-1.5
		c0-1.233-0.272-2.115-0.82-2.643c-0.548-0.524-1.456-0.788-2.725-0.788c-1.837,0-3.738,0.516-5.704,1.547v-2.725
		c2.253-0.806,4.368-1.207,6.341-1.207c2.221,0,3.79,0.439,4.707,1.321c0.917,0.879,1.377,2.399,1.377,4.559v7.333
		c0,1.051,0.111,1.77,0.337,2.15s0.65,0.57,1.274,0.57c0.202,0,0.536-0.053,0.999-0.16l0.29,1.9
		c-1.061,0.344-1.865,0.516-2.411,0.516C166.717,29.961,165.662,29.157,165.117,27.545z M164.616,25.483v-4.416h-0.949
		c-4.351,0-6.527,1.177-6.527,3.531c0,0.846,0.279,1.529,0.838,2.045c0.56,0.516,1.301,0.773,2.224,0.773
		C161.587,27.417,163.059,26.772,164.616,25.483z"/>
	<path fill="#FFFFFF" d="M189.319,29.092c-1.881,0.645-3.756,0.967-5.625,0.967c-3.05,0-5.399-0.795-7.049-2.385
		c-1.649-1.588-2.473-3.844-2.473-6.768c0-2.868,0.813-5.106,2.44-6.718c1.627-1.611,3.891-2.417,6.791-2.417
		c1.849,0,3.712,0.278,5.593,0.838v2.657c-2.074-0.741-3.841-1.11-5.303-1.11c-1.912,0-3.413,0.601-4.503,1.805
		c-1.09,1.201-1.635,2.851-1.635,4.945c0,2.118,0.581,3.774,1.747,4.971c1.165,1.199,2.773,1.797,4.827,1.797
		c1.535,0,3.264-0.361,5.188-1.078V29.092z"/>
	<path fill="#FFFFFF" d="M209.186,29.639c-1.59,0.279-3.126,0.42-4.608,0.42c-2.589,0-4.351-0.463-5.285-1.395
		c-0.935-0.93-1.4-2.688-1.4-5.277v-8.443h-4.368V12.56h4.368V8.789h3.173v3.771h7.767v2.385h-7.767v8.958
		c0,1,0.062,1.688,0.186,2.063c0.125,0.379,0.392,0.703,0.8,0.984c0.731,0.484,1.798,0.725,3.196,0.725
		c1.324,0,2.639-0.15,3.939-0.451V29.639z"/>
	<path fill="#FFFFFF" d="M220.465,29.657V14.543h-6.363v-2.385h9.539v17.499H220.465z M220.063,8.194V4.213h3.979v3.981H220.063z"/>
	<path fill="#FFFFFF" d="M239.446,29.657l-7.251-17.499h3.262l5.812,14.018l5.994-14.018h2.818l-7.444,17.499H239.446z"/>
	<path fill="#FFFFFF" d="M268.772,28.963c-2.202,0.729-4.222,1.096-6.059,1.096c-3.008,0-5.32-0.773-6.937-2.32
		c-1.617-1.547-2.424-3.76-2.424-6.639c0-2.716,0.774-4.951,2.327-6.703c1.552-1.749,3.526-2.625,5.923-2.625
		c2.417,0,4.196,0.724,5.341,2.174c1.144,1.45,1.717,3.706,1.717,6.768v1.016h-11.924c0.234,3.965,2.373,5.945,6.413,5.945
		c1.708,0,3.581-0.408,5.622-1.225V28.963z M256.834,19.345h8.443v-0.451c0-3.158-1.317-4.737-3.949-4.737
		c-1.268,0-2.296,0.457-3.085,1.368C257.453,16.438,256.983,17.71,256.834,19.345z"/>
</g>
<image overflow="visible" width="433" height="433" xlink:href="BACKUP_8-21/01_Work/01_Words_&amp;_Numbers/CNX_A&amp;P/05_Template/R8/Links/c.png"  transform="matrix(0.0853 0 0 0.0922 0 0.0015)">
</image>
</svg>
