<?xml version="1.0" encoding="utf-8"?>
<!-- Generator: Adobe Illustrator 15.1.0, SVG Export Plug-In . SVG Version: 6.00 Build 0)  -->
<!DOCTYPE svg PUBLIC "-//W3C//DTD SVG 1.0//EN" "http://www.w3.org/TR/2001/REC-SVG-20010904/DTD/svg10.dtd">
<svg version="1.0" id="Layer_1" xmlns="http://www.w3.org/2000/svg" xmlns:xlink="http://www.w3.org/1999/xlink" x="0px" y="0px"
	 width="392.97px" height="40.034px" viewBox="0 0 392.97 40.034" enable-background="new 0 0 392.97 40.034" xml:space="preserve">
<rect x="27.297" y="-0.001" fill="#010101" width="349.317" height="40.035"/>
<rect x="-0.206" y="-0.001" fill="#009B91" width="38.118" height="40.035"/>
<image overflow="visible" width="120" height="81" id="hand_xA0_Image_1_" xlink:href="1A96E972.png"  transform="matrix(0.36 0 0 0.36 3.7402 4.4302)">
</image>
<rect x="278.188" y="-0.001" fill="#009B91" width="114.987" height="40.035"/>
<g>
	<path fill="#FFFFFF" d="M288.759,35.09V4.095h4.397v27.708h13.948v3.288H288.759z"/>
	<path fill="#FFFFFF" d="M313.752,35.09V4.095h4.397V35.09H313.752z"/>
	<path fill="#FFFFFF" d="M328.274,35.09V4.095h4.313l15.604,23.937V4.095h3.771V35.09h-4.295l-15.624-23.928V35.09H328.274z"/>
	<path fill="#FFFFFF" d="M362.106,35.09V4.095h4.125v15.248l12.545-15.248h4.421l-12.141,14.789l14.282,16.207h-5.558l-13.55-15.707
		V35.09H362.106z"/>
</g>
<g>
	<path fill="#FFFFFF" d="M54.228,29.655V27.27h5.558V11.365h-5.558V8.98h14.291v2.385h-5.558V27.27h5.558v2.385H54.228z"/>
	<path fill="#FFFFFF" d="M74.255,29.655V12.156h3.176v3.287c1.459-2.449,3.448-3.674,5.962-3.674c3.319,0,4.978,1.972,4.978,5.912
		v11.974h-3.173V18.551c0-1.362-0.214-2.332-0.637-2.908c-0.425-0.574-1.136-0.863-2.135-0.863c-1.591,0-3.255,1.146-4.995,3.434
		v11.44H74.255z"/>
	<path fill="#FFFFFF" d="M108.963,29.637c-1.589,0.279-3.126,0.419-4.608,0.419c-2.588,0-4.351-0.463-5.285-1.394
		c-0.935-0.928-1.4-2.688-1.4-5.277v-8.443h-4.368v-2.385h4.368V8.787h3.173v3.771h7.767v2.385h-7.767v8.959
		c0,0.999,0.062,1.688,0.187,2.063c0.124,0.378,0.391,0.705,0.8,0.984c0.73,0.483,1.797,0.724,3.196,0.724
		c1.324,0,2.638-0.149,3.938-0.451V29.637z"/>
	<path fill="#FFFFFF" d="M128.782,28.96c-2.201,0.731-4.222,1.096-6.059,1.096c-3.007,0-5.32-0.773-6.936-2.32
		c-1.617-1.547-2.425-3.759-2.425-6.639c0-2.716,0.775-4.951,2.328-6.703c1.551-1.749,3.525-2.625,5.922-2.625
		c2.417,0,4.197,0.724,5.341,2.174c1.145,1.45,1.717,3.706,1.717,6.768v1.017h-11.924c0.234,3.964,2.373,5.944,6.413,5.944
		c1.708,0,3.582-0.407,5.622-1.225V28.96z M116.844,19.342h8.443v-0.451c0-3.158-1.316-4.737-3.949-4.737
		c-1.267,0-2.295,0.457-3.085,1.368C117.464,16.436,116.993,17.709,116.844,19.342z"/>
	<path fill="#FFFFFF" d="M135.937,29.655V12.156h3.176v3.287c1.611-2.449,3.775-3.674,6.492-3.674c0.957,0,2.042,0.135,3.255,0.401
		v4.963h-2.385v-2.432c-0.472-0.108-0.902-0.161-1.289-0.161c-1.213,0-2.279,0.281-3.197,0.845
		c-0.919,0.564-1.877,1.522-2.876,2.875v11.394H135.937z"/>
	<path fill="#FFFFFF" d="M164.313,27.542c-1.925,1.611-3.841,2.417-5.754,2.417c-1.6,0-2.918-0.455-3.955-1.368
		c-1.037-0.914-1.556-2.068-1.556-3.466c0-1.813,0.806-3.275,2.417-4.383c1.611-1.104,3.738-1.658,6.381-1.658h1.966v-1.5
		c0-1.233-0.272-2.115-0.82-2.643c-0.548-0.524-1.456-0.788-2.725-0.788c-1.837,0-3.738,0.516-5.704,1.547v-2.725
		c2.253-0.806,4.368-1.207,6.342-1.207c2.221,0,3.789,0.439,4.706,1.321c0.917,0.88,1.377,2.399,1.377,4.559v7.333
		c0,1.052,0.111,1.77,0.337,2.15s0.65,0.571,1.274,0.571c0.202,0,0.536-0.053,0.999-0.161l0.29,1.901
		c-1.061,0.344-1.864,0.516-2.411,0.516C165.913,29.959,164.858,29.154,164.313,27.542z M163.813,25.48v-4.415h-0.949
		c-4.351,0-6.527,1.178-6.527,3.53c0,0.849,0.28,1.529,0.838,2.045c0.56,0.516,1.301,0.773,2.224,0.773
		C160.783,27.414,162.256,26.769,163.813,25.48z"/>
	<path fill="#FFFFFF" d="M188.516,29.089c-1.881,0.645-3.756,0.967-5.625,0.967c-3.05,0-5.399-0.794-7.049-2.385
		c-1.649-1.588-2.473-3.844-2.473-6.768c0-2.868,0.813-5.106,2.44-6.718c1.628-1.611,3.891-2.417,6.791-2.417
		c1.849,0,3.712,0.278,5.593,0.838v2.657c-2.074-0.741-3.841-1.11-5.303-1.11c-1.911,0-3.413,0.601-4.503,1.805
		c-1.09,1.203-1.635,2.851-1.635,4.945c0,2.118,0.582,3.773,1.748,4.972c1.164,1.198,2.772,1.796,4.826,1.796
		c1.535,0,3.264-0.358,5.188-1.078V29.089z"/>
	<path fill="#FFFFFF" d="M208.382,29.637c-1.589,0.279-3.126,0.419-4.608,0.419c-2.588,0-4.351-0.463-5.285-1.394
		c-0.935-0.928-1.4-2.688-1.4-5.277v-8.443h-4.368v-2.385h4.368V8.787h3.173v3.771h7.767v2.385h-7.767v8.959
		c0,0.999,0.062,1.688,0.187,2.063c0.124,0.378,0.391,0.705,0.8,0.984c0.73,0.483,1.797,0.724,3.196,0.724
		c1.324,0,2.638-0.149,3.938-0.451V29.637z"/>
	<path fill="#FFFFFF" d="M219.661,29.655V14.541h-6.363v-2.385h9.54v17.499H219.661z M219.26,8.192V4.21h3.979v3.981H219.26z"/>
	<path fill="#FFFFFF" d="M238.644,29.655l-7.251-17.499h3.261l5.813,14.019l5.994-14.019h2.818l-7.444,17.499H238.644z"/>
	<path fill="#FFFFFF" d="M267.97,28.96c-2.203,0.731-4.222,1.096-6.059,1.096c-3.009,0-5.32-0.773-6.938-2.32
		s-2.423-3.759-2.423-6.639c0-2.716,0.773-4.951,2.326-6.703c1.553-1.749,3.527-2.625,5.924-2.625c2.417,0,4.195,0.724,5.341,2.174
		c1.143,1.45,1.717,3.706,1.717,6.768v1.017h-11.924c0.234,3.964,2.373,5.944,6.413,5.944c1.708,0,3.58-0.407,5.622-1.225V28.96z
		 M256.031,19.342h8.443v-0.451c0-3.158-1.318-4.737-3.949-4.737c-1.269,0-2.297,0.457-3.085,1.368
		C256.649,16.436,256.181,17.709,256.031,19.342z"/>
</g>
</svg>
